<svg width="512" height="512" viewBox="0 0 512 512" fill="none" xmlns="http://www.w3.org/2000/svg">
<path d="M298.556 306.406C298.556 294.14 298.39 291.693 297.874 289.683C297.277 287.364 296.3 285.171 294.977 283.184C293.827 281.456 292.124 279.705 282.996 271.505L233.948 227.44C225.642 219.978 220.305 215.206 215.947 211.865C211.799 208.686 209.848 207.857 208.745 207.524C204.731 206.315 200.444 206.315 196.43 207.524C195.333 207.855 193.387 208.681 189.246 211.856C184.894 215.193 179.567 219.959 171.273 227.41L122.191 271.505C113.052 279.716 111.342 281.464 110.198 283.184C108.871 285.177 107.893 287.371 107.298 289.683C106.783 291.685 106.627 294.106 106.627 306.406V405.182H298.556V306.406ZM341.207 405.182H405.183V153.477C405.183 141.205 405.166 133.279 404.673 127.245C404.201 121.46 403.398 119.315 402.863 118.266C400.83 114.276 397.562 111.007 393.526 108.95C392.469 108.412 390.323 107.61 384.538 107.137C378.5 106.643 370.566 106.626 358.271 106.626H217.523C205.228 106.626 197.286 106.643 191.242 107.137C185.445 107.61 183.296 108.414 182.243 108.95C178.23 110.995 174.972 114.253 172.927 118.266C172.391 119.319 171.587 121.468 171.114 127.265C170.62 133.309 170.603 141.251 170.603 153.546V172.91C174.728 170.351 179.162 168.184 184.122 166.689C196.163 163.059 209.013 163.059 221.054 166.689C229.064 169.103 235.702 173.268 241.895 178.016C247.878 182.602 254.636 188.691 262.452 195.713L311.5 239.778C319.04 246.553 325.655 252.298 330.484 259.554C334.46 265.528 337.396 272.12 339.181 279.063C341.351 287.503 341.207 296.265 341.207 306.406V405.182ZM447.833 405.182H469.159C480.936 405.182 490.484 414.729 490.484 426.507C490.484 438.285 480.936 447.833 469.159 447.833H42.6509C30.8732 447.833 21.3257 438.285 21.3257 426.507C21.3259 414.729 30.8733 405.182 42.6509 405.182H63.9761V306.406C63.9761 296.299 63.8197 287.51 65.9917 279.063C67.7787 272.112 70.7201 265.522 74.6919 259.554C79.5226 252.295 86.1762 246.526 93.687 239.778L127.953 208.993V153.546C127.953 141.955 127.936 131.977 128.604 123.793C129.293 115.362 130.813 106.973 134.925 98.9024C141.059 86.8645 150.841 77.0819 162.879 70.9483C170.95 66.8363 179.339 65.3156 187.77 64.627C195.954 63.9586 205.932 63.9756 217.523 63.9756H358.271C369.862 63.9756 379.835 63.9584 388.013 64.627C396.443 65.3161 404.822 66.8382 412.889 70.9483C424.904 77.0701 434.719 86.8415 440.865 98.9024C444.974 106.967 446.494 115.35 447.182 123.772C447.85 131.945 447.833 141.908 447.833 153.477V405.182Z" fill="white"/>
</svg>
