<svg width="512" height="512" viewBox="0 0 512 512" fill="none" xmlns="http://www.w3.org/2000/svg">
<path d="M405.182 255.903C405.182 245.677 405.17 239.075 404.825 234.023C404.493 229.164 403.925 227.311 403.556 226.422C401.387 221.185 397.237 217.036 392.023 214.876C391.137 214.509 389.284 213.94 384.417 213.608C379.36 213.264 372.753 213.252 362.526 213.252C352.298 213.252 345.694 213.264 340.64 213.608C335.779 213.94 333.927 214.508 333.04 214.876C327.824 217.036 323.672 221.187 321.503 226.422C321.136 227.31 320.568 229.162 320.237 234.022C319.892 239.074 319.88 245.675 319.88 255.903V405.181H405.182V255.903ZM234.579 191.927C246.356 191.927 255.904 201.475 255.904 213.252C255.904 225.03 246.356 234.578 234.579 234.578H149.277C137.499 234.578 127.952 225.03 127.952 213.252C127.952 201.475 137.499 191.927 149.277 191.927H234.579ZM234.579 127.951C246.356 127.951 255.904 137.499 255.904 149.276C255.904 161.054 246.356 170.602 234.579 170.602H149.277C137.499 170.602 127.952 161.054 127.952 149.276C127.952 137.499 137.499 127.951 149.277 127.951H234.579ZM277.229 132.15C277.229 119.879 277.212 111.953 276.719 105.919C276.246 100.134 275.444 97.9892 274.91 96.9395C272.877 92.9499 269.608 89.6804 265.573 87.6241C264.516 87.0856 262.37 86.2836 256.584 85.8106C250.547 85.317 242.613 85.2998 230.318 85.2998H153.546C141.252 85.2998 133.31 85.3169 127.265 85.8106C121.468 86.2841 119.318 87.0875 118.265 87.6241C114.253 89.6686 110.995 92.9269 108.951 96.9395C108.414 97.9927 107.61 100.142 107.136 105.939C106.643 111.983 106.626 119.925 106.626 132.22V405.181H277.229V132.15ZM319.88 174.285C325.799 172.286 331.768 171.464 337.737 171.057C344.579 170.59 352.881 170.602 362.526 170.602C372.171 170.602 380.474 170.59 387.319 171.057C394.353 171.536 401.392 172.592 408.344 175.472C424.032 181.97 436.472 194.436 442.96 210.101C445.838 217.049 446.895 224.081 447.375 231.115C447.843 237.957 447.833 246.258 447.833 255.903V405.181H469.158C480.935 405.181 490.483 414.729 490.483 426.507C490.483 438.284 480.935 447.832 469.158 447.832H42.6499C30.8723 447.832 21.3249 438.284 21.3247 426.507C21.3247 414.729 30.8722 405.181 42.6499 405.181H63.9751V132.22C63.9751 120.628 63.959 110.651 64.6274 102.467C65.3161 94.0355 66.8367 85.6466 70.9487 77.5762C77.0823 65.5384 86.8641 55.7557 98.9019 49.6221C106.972 45.5101 115.361 43.9895 123.792 43.3008C131.976 42.6324 141.955 42.6495 153.546 42.6495H230.318C241.909 42.6495 251.882 42.6322 260.06 43.3008C268.49 43.99 276.869 45.5119 284.936 49.6221C296.951 55.744 306.766 65.5153 312.912 77.5762C317.021 85.6412 318.541 94.0238 319.229 102.445C319.897 110.619 319.88 120.582 319.88 132.15V174.285Z" fill="white"/>
</svg>
