<svg width="512" height="512" viewBox="0 0 512 512" fill="none" xmlns="http://www.w3.org/2000/svg">
<path d="M405.183 306.406C405.183 294.14 405.017 291.693 404.5 289.683C403.904 287.364 402.927 285.171 401.604 283.184C400.454 281.456 398.75 279.705 389.623 271.505L340.575 227.44C332.268 219.978 326.932 215.206 322.574 211.865C318.426 208.686 316.475 207.857 315.372 207.524C311.358 206.315 307.071 206.315 303.057 207.524C301.96 207.855 300.014 208.681 295.873 211.856C291.521 215.193 286.194 219.959 277.9 227.41L228.818 271.505C219.678 279.716 217.969 281.464 216.825 283.184C215.498 285.177 214.521 287.371 213.926 289.683C213.411 291.685 213.254 294.106 213.254 306.406V405.182H405.183V306.406ZM234.58 153.477C234.58 141.205 234.563 133.279 234.07 127.245C233.597 121.459 232.794 119.315 232.259 118.266C230.227 114.276 226.959 111.007 222.923 108.95C221.867 108.412 219.721 107.61 213.935 107.137C207.898 106.643 199.963 106.626 187.667 106.626H153.547C141.253 106.626 133.311 106.643 127.266 107.137C121.469 107.61 119.319 108.414 118.266 108.95C114.253 110.995 110.996 114.253 108.952 118.266C108.415 119.319 107.611 121.468 107.137 127.265C106.643 133.309 106.627 141.251 106.627 153.546V405.182H170.603V306.406C170.603 296.299 170.447 287.51 172.619 279.063C174.406 272.112 177.347 265.522 181.319 259.554C186.15 252.295 192.803 246.526 200.314 239.778L234.58 208.993V153.477ZM277.23 172.91C281.355 170.351 285.789 168.184 290.749 166.689C302.79 163.059 315.64 163.059 327.681 166.689C335.691 169.103 342.329 173.268 348.522 178.016C354.505 182.602 361.263 188.691 369.079 195.713L418.126 239.778C425.667 246.553 432.282 252.298 437.111 259.554C441.087 265.528 444.023 272.119 445.808 279.063C447.978 287.503 447.833 296.265 447.833 306.406V405.182H469.159C480.936 405.182 490.484 414.729 490.484 426.507C490.484 438.285 480.936 447.833 469.159 447.833H42.6509C30.8732 447.833 21.3257 438.285 21.3257 426.507C21.3259 414.729 30.8733 405.182 42.6509 405.182H63.9761V153.546C63.9761 141.954 63.96 131.977 64.6284 123.793C65.3171 115.362 66.8377 106.973 70.9497 98.9024C77.0833 86.8646 86.8651 77.0819 98.9028 70.9483C106.973 66.8363 115.362 65.3157 123.793 64.627C131.977 63.9586 141.956 63.9756 153.547 63.9756H187.667C199.258 63.9756 209.231 63.9584 217.41 64.627C225.84 65.3162 234.22 66.8381 242.287 70.9483C254.301 77.0701 264.117 86.8415 270.262 98.9024C274.371 106.967 275.89 115.35 276.579 123.772C277.247 131.945 277.23 141.908 277.23 153.477V172.91Z" fill="white"/>
</svg>
