<svg width="512" height="512" viewBox="0 0 512 512" fill="none" xmlns="http://www.w3.org/2000/svg">
<path d="M426.508 255.905C426.508 161.683 350.126 85.3013 255.904 85.3013C161.683 85.3013 85.3008 161.683 85.3008 255.905C85.3008 350.126 161.683 426.508 255.904 426.508C350.126 426.508 426.508 350.126 426.508 255.905ZM332.381 151.189C340.473 147.511 349.999 149.238 356.285 155.524C362.571 161.81 364.298 171.335 360.62 179.427L307.307 296.717C305.173 301.411 301.411 305.174 296.717 307.307L179.427 360.621C171.334 364.299 161.809 362.571 155.523 356.286C149.238 350 147.51 340.474 151.188 332.381L204.502 215.092L204.707 214.655C206.872 210.165 210.545 206.569 215.092 204.502L332.381 151.189ZM240.021 240.021L213.548 298.26L271.787 271.788L298.26 213.548L240.021 240.021ZM469.158 255.905C469.158 373.682 373.681 469.159 255.904 469.159C138.127 469.159 42.6504 373.682 42.6504 255.905C42.6504 138.128 138.127 42.6509 255.904 42.6509C373.681 42.6509 469.158 138.128 469.158 255.905Z" fill="white"/>
</svg>
