<svg width="512" height="512" viewBox="0 0 512 512" fill="none" xmlns="http://www.w3.org/2000/svg">
<path d="M257.285 42.6548C374.427 43.3966 469.16 138.588 469.16 255.905C469.16 373.682 373.683 469.159 255.906 469.159C138.129 469.159 42.6524 373.682 42.6523 255.905C42.6523 138.128 138.129 42.6509 255.906 42.6509L257.285 42.6548ZM192.479 277.23C194.647 319.167 203.103 356.017 215.076 382.958C222.07 398.695 229.847 410.11 237.404 417.302C244.619 424.168 250.677 426.37 255.448 426.501L255.906 426.508C260.745 426.508 266.961 424.39 274.408 417.302C281.966 410.11 289.742 398.695 296.736 382.958C308.71 356.017 317.165 319.167 319.334 277.23H192.479ZM86.625 277.23C93.8351 335.05 129.978 383.884 180.109 408.787C178.724 406.009 177.387 403.172 176.102 400.28C161.392 367.182 151.977 324.232 149.777 277.23H86.625ZM362.035 277.23C359.835 324.232 350.421 367.182 335.711 400.28C334.426 403.172 333.089 406.009 331.703 408.787C381.835 383.884 417.977 335.05 425.188 277.23H362.035ZM331.703 103.023C333.089 105.8 334.426 108.638 335.711 111.53C350.421 144.627 359.835 187.578 362.035 234.58H425.188C417.977 176.759 381.835 127.926 331.703 103.023ZM255.906 85.3013C251.067 85.3013 244.852 87.4188 237.404 94.5063C229.847 101.699 222.071 113.115 215.076 128.852C203.103 155.792 194.647 192.643 192.479 234.58H319.334C317.165 192.643 308.71 155.792 296.736 128.852C289.742 113.115 281.966 101.699 274.408 94.5063C266.961 87.4188 260.745 85.3013 255.906 85.3013ZM180.108 103.022C129.977 127.925 93.835 176.76 86.625 234.58H149.777C151.977 187.578 161.392 144.627 176.102 111.53C177.387 108.638 178.723 105.799 180.108 103.022Z" fill="white"/>
</svg>
