<svg width="512" height="512" viewBox="0 0 512 512" fill="none" xmlns="http://www.w3.org/2000/svg">
<path d="M405.182 244.223C405.182 231.744 405.013 229.256 404.48 227.217C403.865 224.862 402.857 222.643 401.497 220.639C400.312 218.894 398.552 217.126 389.166 208.912L286.803 119.346C278.597 112.166 273.336 107.582 269.045 104.373C264.967 101.325 263.051 100.527 261.957 100.203C258.009 99.0361 253.796 99.0361 249.848 100.203C248.758 100.526 246.846 101.322 242.776 104.366C238.491 107.569 233.239 112.145 225.044 119.316L122.648 208.912C113.264 217.124 111.503 218.893 110.318 220.639C108.934 222.678 107.925 224.903 107.32 227.217C106.789 229.249 106.627 231.712 106.627 244.223V362.535C106.627 372.764 106.638 379.366 106.983 384.418C107.315 389.279 107.882 391.13 108.25 392.018C110.42 397.257 114.575 401.411 119.786 403.57C120.673 403.937 122.525 404.505 127.387 404.836C132.441 405.181 139.044 405.193 149.272 405.193C159.5 405.193 166.107 405.181 171.164 404.836C176.03 404.504 177.883 403.937 178.769 403.57C183.98 401.411 188.133 397.26 190.303 392.02C190.672 391.131 191.239 389.278 191.571 384.416C191.916 379.363 191.928 372.76 191.928 362.534V341.208C191.928 305.875 220.572 277.232 255.905 277.232C291.238 277.232 319.881 305.875 319.881 341.208V362.534C319.881 372.762 319.892 379.365 320.237 384.418C320.569 389.28 321.137 391.132 321.505 392.02C323.674 397.257 327.827 401.41 333.04 403.57C333.927 403.937 335.779 404.504 340.641 404.836C345.695 405.181 352.298 405.193 362.526 405.193C372.754 405.193 379.361 405.181 384.418 404.836C389.284 404.504 391.137 403.937 392.023 403.57C397.232 401.412 401.386 397.259 403.557 392.018C403.926 391.128 404.493 389.276 404.825 384.416C405.17 379.365 405.182 372.762 405.182 362.535V244.223ZM447.834 362.535C447.834 372.181 447.844 380.481 447.377 387.324C446.896 394.358 445.84 401.391 442.962 408.339C436.475 423.999 424.037 436.473 408.345 442.973C401.393 445.853 394.353 446.908 387.319 447.388C380.475 447.855 372.171 447.843 362.526 447.843C352.882 447.843 344.58 447.855 337.738 447.388C330.704 446.908 323.669 445.852 316.718 442.973C301.03 436.475 288.588 424.005 282.1 408.341C279.221 401.391 278.165 394.355 277.685 387.322C277.218 380.479 277.23 372.178 277.23 362.534V341.208C277.23 329.431 267.682 319.883 255.905 319.883C244.127 319.883 234.579 329.431 234.579 341.208V362.534C234.579 372.179 234.59 380.481 234.123 387.324C233.642 394.358 232.585 401.392 229.707 408.341C223.22 424.003 210.782 436.474 195.091 442.973C188.139 445.853 181.099 446.908 174.065 447.388C167.221 447.855 158.917 447.843 149.272 447.843C139.628 447.843 131.326 447.855 124.484 447.388C117.45 446.908 110.415 445.852 103.465 442.973C87.7743 436.474 75.3337 424.001 68.8463 408.339C65.9676 401.389 64.9113 394.355 64.4313 387.322C63.9645 380.48 63.9762 372.18 63.9762 362.535V244.223C63.9762 233.945 63.8141 225.007 66.0543 216.434C67.9053 209.351 70.9587 202.681 75.0299 196.684C80.0009 189.361 86.7952 183.61 94.5622 176.814L196.959 87.2181C204.661 80.4782 211.333 74.6207 217.235 70.2074C223.352 65.6338 229.892 61.628 237.754 59.3031C249.595 55.8013 262.21 55.8013 274.051 59.3031C281.916 61.6289 288.461 65.6364 294.584 70.2142C300.493 74.6323 307.173 80.496 314.889 87.2474L417.251 176.814C424.772 183.395 431.388 189 436.314 196.002L436.786 196.684L437.541 197.823C441.254 203.552 444.02 209.832 445.745 216.434C447.983 225 447.834 233.913 447.834 244.223V362.535Z" fill="white"/>
</svg>
