<svg width="512" height="512" viewBox="0 0 512 512" fill="none" xmlns="http://www.w3.org/2000/svg">
<path d="M405.182 244.223C405.182 231.72 405.019 229.246 404.489 227.217C403.881 224.889 402.873 222.667 401.496 220.639C400.312 218.894 398.552 217.126 389.165 208.912L286.803 119.346C278.597 112.166 273.335 107.582 269.044 104.373C264.967 101.325 263.051 100.527 261.956 100.203C258.009 99.0361 253.795 99.0361 249.848 100.203C248.757 100.526 246.846 101.322 242.776 104.366C238.491 107.569 233.238 112.145 225.043 119.316L122.648 208.912C113.246 217.139 111.489 218.898 110.307 220.639C108.938 222.655 107.931 224.875 107.319 227.217C106.789 229.249 106.626 231.712 106.626 244.223V358.271C106.626 370.565 106.643 378.506 107.137 384.551C107.61 390.348 108.414 392.498 108.95 393.551C110.994 397.562 114.252 400.819 118.266 402.865C119.315 403.399 121.46 404.202 127.245 404.675C133.279 405.168 141.205 405.184 153.477 405.184H358.342C370.614 405.184 378.535 405.168 384.564 404.675C390.342 404.203 392.484 403.401 393.536 402.865C397.562 400.813 400.825 397.55 402.862 393.551C403.398 392.501 404.199 390.357 404.672 384.574C405.165 378.541 405.182 370.617 405.182 358.345V244.223ZM234.578 341.208V298.557H191.928C180.15 298.557 170.603 289.009 170.603 277.232C170.603 265.454 180.15 255.907 191.928 255.907H234.578V213.255C234.579 201.478 244.127 191.93 255.904 191.93C267.682 191.93 277.229 201.478 277.23 213.255V255.907H319.88C331.658 255.907 341.206 265.454 341.206 277.232C341.206 289.009 331.658 298.557 319.88 298.557H277.23V341.208C277.23 352.986 267.682 362.533 255.904 362.534C244.127 362.534 234.578 352.986 234.578 341.208ZM447.833 358.345C447.833 369.913 447.85 379.875 447.182 388.048C446.493 396.469 444.973 404.85 440.864 412.914C434.724 424.966 424.923 434.74 412.899 440.867C404.836 444.974 396.461 446.495 388.04 447.184C379.87 447.852 369.91 447.835 358.342 447.835H153.477C141.909 447.835 131.945 447.852 123.772 447.184C115.35 446.496 106.968 444.976 98.9025 440.867C86.866 434.734 77.0827 424.953 70.9484 412.914C66.8364 404.844 65.3158 396.455 64.6271 388.024C63.9587 379.84 63.9757 369.862 63.9757 358.271V244.223C63.9757 233.945 63.8137 225.007 66.0539 216.434C67.8976 209.378 70.9316 202.705 75.0187 196.684C79.9929 189.356 86.8126 183.595 94.5617 176.815L196.958 87.2181C204.661 80.4782 211.332 74.6207 217.235 70.2074C223.351 65.6338 229.891 61.628 237.753 59.3031C249.594 55.8013 262.21 55.8013 274.051 59.3031C281.916 61.6289 288.46 65.6364 294.583 70.2142C300.493 74.6323 307.173 80.496 314.889 87.2474L417.25 176.814C424.772 183.395 431.388 189 436.314 196.002L436.785 196.684L437.537 197.819C441.239 203.529 444.023 209.806 445.755 216.434C447.995 225.005 447.833 233.958 447.833 244.223V358.345Z" fill="white"/>
</svg>
