<svg width="512" height="512" viewBox="0 0 512 512" fill="none" xmlns="http://www.w3.org/2000/svg">
<path d="M298.555 405.182C298.555 390.976 289.918 375.504 270.576 362.609C251.383 349.813 223.638 341.207 191.928 341.207C160.218 341.207 132.475 349.814 113.282 362.609C93.9397 375.504 85.3014 390.975 85.3014 405.182C85.3014 416.96 75.7539 426.507 63.9762 426.507C52.1985 426.507 42.651 416.96 42.651 405.182C42.651 372.278 62.6562 345.1 89.6236 327.122C116.74 309.044 152.972 298.555 191.928 298.555C230.884 298.555 267.117 309.044 294.234 327.122C321.201 345.1 341.207 372.278 341.207 405.182C341.207 416.96 331.659 426.507 319.881 426.507C308.104 426.507 298.555 416.96 298.555 405.182ZM383.857 341.207V298.555H341.207C329.429 298.555 319.881 289.008 319.881 277.23C319.881 265.452 329.429 255.905 341.207 255.905H383.857V213.253C383.857 201.476 393.405 191.928 405.182 191.928C416.96 191.928 426.508 201.476 426.508 213.253V255.905H469.159C480.936 255.905 490.484 265.452 490.484 277.23C490.484 289.008 480.936 298.555 469.159 298.555H426.508V341.207C426.508 352.984 416.96 362.532 405.182 362.532C393.405 362.532 383.857 352.984 383.857 341.207ZM255.905 170.603C255.905 135.27 227.261 106.626 191.928 106.626C156.595 106.627 127.953 135.27 127.953 170.603C127.953 205.936 156.595 234.579 191.928 234.58C227.261 234.58 255.905 205.936 255.905 170.603ZM298.555 170.603C298.555 229.491 250.817 277.23 191.928 277.23C133.04 277.23 85.3014 229.491 85.3014 170.603C85.3014 111.715 133.04 63.9762 191.928 63.9761C250.817 63.9761 298.555 111.715 298.555 170.603Z" fill="white"/>
</svg>
