<svg width="512" height="512" viewBox="0 0 512 512" fill="none" xmlns="http://www.w3.org/2000/svg">
<path d="M426.51 196.128C426.51 183.857 426.493 175.93 426 169.897C425.527 164.111 424.724 161.967 424.189 160.917C422.157 156.927 418.888 153.658 414.853 151.602C413.796 151.063 411.649 150.261 405.864 149.788C399.827 149.295 391.893 149.277 379.598 149.277H132.223C119.928 149.277 111.986 149.294 105.941 149.788C100.145 150.262 97.9957 151.065 96.9424 151.602C92.9298 153.646 89.6715 156.904 87.627 160.917C87.0904 161.97 86.287 164.12 85.8135 169.916C85.3198 175.961 85.3028 183.902 85.3028 196.197V315.62C85.3028 327.916 85.32 335.849 85.8135 341.887C86.2865 347.672 87.0885 349.818 87.627 350.875C89.6833 354.911 92.9528 358.179 96.9424 360.212C97.9213 360.711 99.8839 361.456 104.929 361.935C106.835 362.115 108.963 362.241 111.408 362.33C116.512 351.336 125.183 342.407 134.863 335.954C150.402 325.595 170.641 319.881 191.93 319.881C213.219 319.881 233.458 325.595 248.997 335.954C258.736 342.447 267.454 351.446 272.544 362.531H379.659C391.931 362.531 399.852 362.516 405.881 362.023C411.659 361.55 413.802 360.748 414.854 360.212C418.866 358.167 422.145 354.888 424.189 350.875C424.725 349.823 425.528 347.681 426 341.903C426.493 335.875 426.51 327.954 426.51 315.682V196.128ZM383.858 277.231C395.636 277.231 405.184 286.778 405.184 298.556C405.183 310.333 395.636 319.881 383.858 319.881H298.557C286.779 319.881 277.232 310.333 277.231 298.556C277.231 286.778 286.779 277.231 298.557 277.231H383.858ZM213.255 234.579C213.255 222.802 203.707 213.254 191.93 213.254C180.152 213.254 170.605 222.802 170.605 234.579C170.605 246.357 180.152 255.904 191.93 255.904C203.707 255.904 213.255 246.357 213.255 234.579ZM383.858 213.254C395.636 213.254 405.184 222.802 405.184 234.579C405.184 246.357 395.636 255.904 383.858 255.904H319.883C308.105 255.904 298.557 246.357 298.557 234.579C298.557 222.802 308.105 213.254 319.883 213.254H383.858ZM255.906 234.579C255.906 269.912 227.263 298.556 191.93 298.556C156.597 298.556 127.954 269.912 127.954 234.579C127.954 199.246 156.597 170.603 191.93 170.603C227.263 170.603 255.906 199.246 255.906 234.579ZM469.16 315.682C469.16 327.249 469.177 337.209 468.509 345.379C467.82 353.8 466.299 362.176 462.191 370.238C456.058 382.276 446.254 392.08 434.216 398.214C426.153 402.322 417.778 403.843 409.357 404.531C401.187 405.199 391.227 405.183 379.659 405.183L127.938 405.182C117.618 405.174 108.549 405.12 100.902 404.395C93.0107 403.646 85.1634 402.078 77.5791 398.214C65.5182 392.069 55.7469 382.253 49.625 370.238C45.5149 362.172 43.9929 353.792 43.3038 345.362C42.6352 337.184 42.6524 327.211 42.6524 315.62V196.197C42.6524 184.606 42.6353 174.628 43.3038 166.444C43.9924 158.013 45.513 149.624 49.625 141.554C55.7587 129.516 65.5412 119.733 77.5791 113.6C85.6495 109.488 94.0384 107.967 102.47 107.278C110.653 106.61 120.631 106.627 132.223 106.627H379.598C391.189 106.627 401.161 106.61 409.34 107.278C417.506 107.946 425.626 109.395 433.459 113.222L434.216 113.6L435.336 114.185C446.841 120.335 456.238 129.87 462.191 141.554C466.301 149.619 467.821 158.001 468.509 166.423C469.177 174.597 469.16 184.56 469.16 196.128V315.682Z" fill="white"/>
</svg>
