<svg width="512" height="512" viewBox="0 0 512 512" fill="none" xmlns="http://www.w3.org/2000/svg">
<path d="M298.557 405.182C298.557 390.976 289.919 375.504 270.577 362.609C251.384 349.814 223.64 341.207 191.93 341.207C160.22 341.207 132.476 349.814 113.283 362.609C93.9411 375.504 85.3028 390.976 85.3027 405.182C85.3027 416.96 75.7552 426.508 63.9775 426.508C52.1998 426.508 42.6523 416.96 42.6523 405.182C42.6524 372.279 62.6576 345.1 89.625 327.122C116.741 309.044 152.974 298.556 191.93 298.556C230.886 298.556 267.119 309.044 294.235 327.122C321.203 345.1 341.208 372.279 341.208 405.182C341.208 416.96 331.66 426.507 319.883 426.508C308.105 426.508 298.557 416.96 298.557 405.182ZM447.835 255.905C459.613 255.905 469.16 265.453 469.16 277.23C469.16 289.008 459.613 298.555 447.835 298.556H319.883C308.105 298.556 298.557 289.008 298.557 277.23C298.557 265.453 308.105 255.905 319.883 255.905H447.835ZM255.906 170.603C255.906 135.27 227.263 106.627 191.93 106.627C156.597 106.627 127.954 135.27 127.954 170.603C127.954 205.936 156.597 234.58 191.93 234.58C227.263 234.58 255.906 205.936 255.906 170.603ZM298.557 170.603C298.557 229.492 250.818 277.23 191.93 277.23C133.041 277.23 85.3028 229.492 85.3027 170.603C85.3027 111.715 133.041 63.9766 191.93 63.9764C250.818 63.9764 298.557 111.715 298.557 170.603Z" fill="white"/>
</svg>
