<svg width="512" height="512" viewBox="0 0 512 512" fill="none" xmlns="http://www.w3.org/2000/svg">
<path d="M298.555 405.182C298.555 390.976 289.918 375.504 270.576 362.609C251.383 349.814 223.638 341.207 191.928 341.207C160.218 341.207 132.475 349.814 113.282 362.609C93.9398 375.504 85.3015 390.976 85.3014 405.182C85.3014 416.96 75.7539 426.508 63.9762 426.508C52.1985 426.508 42.651 416.96 42.651 405.182C42.6511 372.278 62.6563 345.1 89.6236 327.122C116.74 309.044 152.972 298.555 191.928 298.555C230.884 298.555 267.117 309.044 294.234 327.122C321.201 345.1 341.206 372.278 341.207 405.182C341.207 416.96 331.659 426.508 319.881 426.508C308.104 426.508 298.555 416.96 298.555 405.182ZM428.041 170.6C428.041 153.611 424.68 136.777 418.169 121.058C411.662 105.35 402.125 91.0774 390.103 79.0552C381.775 70.7272 381.775 57.225 390.103 48.897C398.431 40.5689 411.934 40.5689 420.262 48.897C436.245 64.8796 448.923 83.8537 457.573 104.736C466.218 125.607 470.691 147.985 470.691 170.6C470.691 193.208 466.228 215.594 457.581 236.471C448.929 257.358 436.242 276.333 420.262 292.313C411.934 300.641 398.431 300.641 390.103 292.313C381.775 283.985 381.775 270.482 390.103 262.154C402.128 250.129 411.672 235.854 418.176 220.15C424.685 204.437 428.041 187.597 428.041 170.6ZM255.905 170.603C255.905 135.27 227.261 106.626 191.928 106.626C156.595 106.627 127.953 135.27 127.953 170.603C127.953 205.936 156.595 234.579 191.928 234.58C227.261 234.58 255.905 205.936 255.905 170.603ZM362.53 170.617C362.53 162.219 360.872 153.892 357.656 146.126C354.441 138.365 349.728 131.312 343.788 125.372C335.46 117.044 335.459 103.541 343.787 95.2124C352.115 86.8844 365.618 86.8845 373.946 95.2124C383.847 105.114 391.702 116.869 397.06 129.805C402.417 142.738 405.18 156.611 405.18 170.617C405.18 184.628 402.417 198.469 397.062 211.398C391.706 224.329 383.851 236.095 373.946 246.001C365.618 254.329 352.115 254.329 343.787 246.001C335.459 237.672 335.459 224.17 343.787 215.842C349.723 209.906 354.44 202.843 357.658 195.076C360.876 187.306 362.53 179.01 362.53 170.617ZM298.555 170.603C298.555 229.492 250.817 277.23 191.928 277.23C133.04 277.23 85.3014 229.491 85.3014 170.603C85.3014 111.715 133.04 63.9763 191.928 63.9761C250.817 63.9761 298.555 111.715 298.555 170.603Z" fill="white"/>
</svg>
