<svg width="512" height="512" viewBox="0 0 512 512" fill="none" xmlns="http://www.w3.org/2000/svg">
<path d="M255.905 319.881C319.304 319.881 371.931 365.991 382.086 426.504C392.991 426.5 400.258 426.458 405.88 425.999C411.658 425.526 413.8 424.724 414.852 424.188C418.864 422.143 422.144 418.864 424.188 414.852C424.724 413.8 425.526 411.658 425.999 405.879C426.492 399.851 426.508 391.93 426.508 379.658V132.152C426.508 119.88 426.492 111.954 425.999 105.92C425.526 100.135 424.723 97.9905 424.188 96.9409C422.155 92.9514 418.888 89.6818 414.852 87.6255C413.795 87.087 411.649 86.285 405.863 85.812C399.826 85.3185 391.892 85.3013 379.596 85.3013H132.221C119.927 85.3013 111.985 85.3183 105.94 85.812C100.144 86.2854 97.9944 87.0889 96.9411 87.6255C92.9285 89.67 89.6702 92.9283 87.6257 96.9409C87.0891 97.9942 86.2856 100.143 85.8122 105.94C85.3185 111.985 85.3014 119.926 85.3014 132.221V379.596C85.3014 391.891 85.3186 399.825 85.8122 405.863C86.2852 411.649 87.0872 413.795 87.6257 414.852C89.682 418.888 92.9516 422.155 96.9411 424.188C97.9907 424.723 100.135 425.526 105.921 425.999C111.547 426.458 118.818 426.5 129.723 426.504C139.877 365.991 192.506 319.881 255.905 319.881ZM255.905 362.532C216.158 362.532 182.76 389.717 173.291 426.508H338.519C329.05 389.717 295.652 362.532 255.905 362.532ZM298.555 213.253C298.555 189.698 279.46 170.603 255.905 170.603C232.35 170.603 213.254 189.698 213.254 213.253C213.254 236.809 232.35 255.905 255.905 255.905C279.46 255.905 298.555 236.809 298.555 213.253ZM341.207 213.253C341.207 260.364 303.016 298.555 255.905 298.555C208.794 298.555 170.603 260.364 170.603 213.253C170.603 166.143 208.794 127.953 255.905 127.953C303.016 127.953 341.206 166.143 341.207 213.253ZM469.159 379.658C469.159 391.226 469.176 401.186 468.507 409.356C467.819 417.776 466.298 426.152 462.19 434.214C456.056 446.252 446.252 456.056 434.215 462.19C426.152 466.298 417.777 467.819 409.356 468.507C401.186 469.175 391.226 469.159 379.658 469.159H132.152C120.584 469.159 110.621 469.175 102.447 468.507C94.0254 467.819 85.6428 466.299 77.5778 462.19C65.5169 456.045 55.7455 446.229 49.6237 434.214C45.5136 426.148 43.9916 417.768 43.3024 409.338C42.6338 401.16 42.651 391.187 42.651 379.596V132.221C42.651 120.63 42.634 110.652 43.3024 102.468C43.9911 94.0369 45.5117 85.6479 49.6237 77.5776C55.7573 65.5397 65.5399 55.7571 77.5778 49.6235C85.6481 45.5115 94.0371 43.9909 102.468 43.3022C110.652 42.6338 120.63 42.6509 132.221 42.6509H379.596C391.187 42.6509 401.16 42.6336 409.339 43.3022C417.768 43.9914 426.148 45.5134 434.215 49.6235C446.229 55.7453 456.045 65.5167 462.19 77.5776C466.299 85.6426 467.819 94.0252 468.507 102.447C469.175 110.62 469.159 120.584 469.159 132.152V379.658Z" fill="white"/>
</svg>
