<svg width="512" height="512" viewBox="0 0 512 512" fill="none" xmlns="http://www.w3.org/2000/svg">
<path d="M405.184 447.834C405.184 428.396 392.518 407.572 365.238 390.522C338.259 373.659 299.66 362.532 255.906 362.532C212.153 362.532 173.553 373.659 146.573 390.522C119.293 407.572 106.628 428.396 106.628 447.834C106.628 459.612 97.0804 469.159 85.3027 469.159C73.5251 469.159 63.9776 459.612 63.9775 447.834C63.9775 408.384 89.5029 375.895 123.969 354.354C158.735 332.625 205.438 319.882 255.906 319.882C306.374 319.882 353.076 332.625 387.843 354.354C422.309 375.895 447.835 408.384 447.835 447.834C447.835 459.612 438.286 469.159 426.509 469.159C414.731 469.159 405.184 459.612 405.184 447.834ZM341.208 170.604C341.208 123.493 303.017 85.302 255.906 85.3019C208.795 85.3019 170.605 123.493 170.604 170.604C170.604 217.714 208.795 255.905 255.906 255.905C303.017 255.905 341.208 217.714 341.208 170.604ZM383.858 170.604C383.858 241.27 326.572 298.556 255.906 298.556C185.24 298.556 127.953 241.27 127.953 170.604C127.953 99.9375 185.24 42.6515 255.906 42.6515C326.572 42.6517 383.858 99.9376 383.858 170.604Z" fill="white"/>
</svg>
