<svg width="512" height="512" viewBox="0 0 512 512" fill="none" xmlns="http://www.w3.org/2000/svg">
<path d="M362.53 405.182C362.53 390.976 353.893 375.504 334.551 362.609C315.358 349.814 287.613 341.207 255.903 341.207C224.193 341.207 196.45 349.814 177.257 362.609C157.915 375.504 149.276 390.976 149.276 405.182C149.276 416.96 139.729 426.508 127.951 426.508C116.173 426.508 106.626 416.96 106.626 405.182C106.626 372.279 126.631 345.1 153.599 327.122C180.715 309.044 216.947 298.556 255.903 298.556C294.859 298.556 331.092 309.044 358.209 327.122C385.176 345.1 405.182 372.279 405.182 405.182C405.182 416.96 395.634 426.507 383.856 426.508C372.079 426.508 362.53 416.96 362.53 405.182ZM319.88 170.603C319.88 135.27 291.236 106.627 255.903 106.627C220.57 106.627 191.928 135.27 191.928 170.603C191.928 205.936 220.57 234.58 255.903 234.58C291.236 234.58 319.88 205.936 319.88 170.603ZM362.53 170.603C362.53 229.492 314.792 277.23 255.903 277.23C197.015 277.23 149.276 229.492 149.276 170.603C149.276 111.715 197.015 63.9766 255.903 63.9764C314.792 63.9764 362.53 111.715 362.53 170.603Z" fill="white"/>
</svg>
