<svg width="512" height="512" viewBox="0 0 512 512" fill="none" xmlns="http://www.w3.org/2000/svg">
<path d="M298.555 405.182C298.555 390.976 289.918 375.504 270.576 362.609C251.383 349.813 223.639 341.207 191.928 341.207C160.218 341.207 132.475 349.814 113.282 362.609C93.9399 375.504 85.3016 390.975 85.3015 405.182C85.3015 416.96 75.754 426.507 63.9763 426.507C52.1986 426.507 42.6511 416.96 42.6511 405.182C42.6512 372.278 62.6564 345.1 89.6238 327.122C116.74 309.044 152.973 298.555 191.928 298.555C230.885 298.555 267.118 309.044 294.234 327.122C321.201 345.1 341.207 372.278 341.207 405.182C341.207 416.96 331.659 426.507 319.882 426.507C308.104 426.507 298.555 416.96 298.555 405.182ZM432.754 198.174C441.082 189.846 454.584 189.846 462.912 198.174C471.24 206.502 471.24 220.005 462.912 228.333L435.341 255.904L462.912 283.475C471.24 291.803 471.24 305.306 462.912 313.634C454.584 321.962 441.082 321.962 432.754 313.634L405.182 286.063L377.611 313.634C369.283 321.962 355.781 321.962 347.453 313.634C339.125 305.306 339.125 291.803 347.453 283.475L375.023 255.904L347.453 228.333C339.125 220.005 339.125 206.502 347.453 198.174C355.781 189.846 369.283 189.846 377.611 198.174L405.182 225.746L432.754 198.174ZM255.905 170.603C255.905 135.27 227.262 106.626 191.928 106.626C156.596 106.627 127.953 135.27 127.953 170.603C127.953 205.936 156.596 234.579 191.928 234.58C227.261 234.58 255.905 205.936 255.905 170.603ZM298.555 170.603C298.555 229.491 250.817 277.23 191.928 277.23C133.04 277.23 85.3016 229.491 85.3015 170.603C85.3015 111.715 133.04 63.9762 191.928 63.9761C250.817 63.9761 298.555 111.715 298.555 170.603Z" fill="white"/>
</svg>
