<svg width="512" height="512" viewBox="0 0 512 512" fill="none" xmlns="http://www.w3.org/2000/svg">
<path d="M383.857 447.834C383.857 377.168 326.57 319.882 255.904 319.882C185.238 319.882 127.952 377.168 127.952 447.834C127.952 459.611 118.405 469.159 106.627 469.159C94.8493 469.159 85.3019 459.611 85.3018 447.834C85.3018 353.612 161.683 277.23 255.904 277.23C350.126 277.23 426.508 353.612 426.508 447.834C426.508 459.611 416.96 469.159 405.183 469.159C393.405 469.159 383.858 459.611 383.857 447.834ZM319.881 149.278C319.881 113.945 291.237 85.3015 255.904 85.3015C220.571 85.3018 191.929 113.945 191.929 149.278C191.929 184.611 220.571 213.253 255.904 213.254C291.237 213.254 319.881 184.611 319.881 149.278ZM362.532 149.278C362.532 208.166 314.793 255.905 255.904 255.905C197.016 255.905 149.277 208.166 149.277 149.278C149.277 90.3898 197.016 42.6514 255.904 42.6511C314.793 42.6511 362.532 90.3896 362.532 149.278Z" fill="white"/>
</svg>
