<svg width="512" height="512" viewBox="0 0 512 512" fill="none" xmlns="http://www.w3.org/2000/svg">
<path d="M383.853 225.858C383.853 219.599 383.836 216.182 383.635 213.726C383.629 213.647 383.619 213.572 383.613 213.5C383.524 213.492 383.431 213.482 383.332 213.474C380.85 213.271 377.394 213.254 371.07 213.254H140.755C134.433 213.254 130.968 213.271 128.477 213.474C128.377 213.482 128.283 213.492 128.194 213.5C128.185 213.588 128.175 213.681 128.167 213.779C127.964 216.266 127.947 219.728 127.947 226.051V336.944C127.947 349.239 127.965 357.178 128.458 363.221C128.932 369.014 129.735 371.163 130.272 372.217C132.319 376.235 135.58 379.496 139.587 381.537C140.637 382.072 142.781 382.875 148.567 383.348C154.6 383.841 162.527 383.858 174.798 383.858H336.995C349.267 383.858 357.188 383.841 363.217 383.348C368.995 382.875 371.137 382.073 372.189 381.537C376.226 379.48 379.5 376.204 381.532 372.216C382.068 371.164 382.87 369.022 383.343 363.243C383.836 357.214 383.853 349.293 383.853 337.021V225.858ZM298.551 277.23C310.329 277.23 319.876 286.778 319.876 298.556C319.876 310.333 310.329 319.881 298.551 319.881H213.249C201.472 319.881 191.924 310.333 191.924 298.556C191.924 286.778 201.472 277.23 213.249 277.23H298.551ZM106.144 149.278C103.337 149.278 101.924 149.282 100.898 149.328C100.867 149.33 100.838 149.332 100.811 149.333C100.791 149.357 100.77 149.381 100.749 149.407C100.099 150.208 99.2502 151.345 97.5803 153.599C91.9727 161.169 88.5171 165.861 86.2942 169.399C86.1137 169.686 85.9525 169.95 85.8078 170.191C86.0821 170.217 86.3832 170.245 86.7131 170.27C90.8724 170.588 96.6895 170.603 106.096 170.603H405.678C415.084 170.603 420.907 170.588 425.072 170.27C425.41 170.244 425.718 170.216 425.998 170.189C425.853 169.947 425.693 169.682 425.512 169.395C423.286 165.854 419.828 161.16 414.22 153.589C412.563 151.352 411.713 150.217 411.071 149.429C411.043 149.395 411.014 149.364 410.989 149.334C410.96 149.333 410.928 149.33 410.895 149.328C409.867 149.282 408.451 149.278 405.646 149.278H106.144ZM426.503 337.021C426.503 348.589 426.52 358.548 425.852 366.719C425.163 375.14 423.644 383.517 419.535 391.579C413.389 403.642 403.565 413.418 391.552 419.539C383.489 423.647 375.113 425.168 366.693 425.857C358.523 426.525 348.563 426.508 336.995 426.508H174.798C163.23 426.508 153.267 426.525 145.093 425.857C136.671 425.168 128.289 423.649 120.224 419.539C108.181 413.403 98.4006 403.613 92.2697 391.58C88.1583 383.511 86.6372 375.125 85.9485 366.694C85.28 358.511 85.2971 348.535 85.2971 336.944V226.051C85.2971 221.46 85.2855 216.95 85.4875 212.93C84.7933 212.89 84.1162 212.847 83.4572 212.796C77.5639 212.345 69.7171 211.294 62.6164 206.92C48.8883 198.464 41.1216 182.995 42.4953 166.959C43.2073 158.648 47.0331 151.715 50.1819 146.704C53.4818 141.453 58.1197 135.218 63.3088 128.212C65.8177 124.825 69.0315 120.259 73.3039 116.66V116.659C78.3985 112.369 84.4382 109.324 90.925 107.782L91.4348 107.665C96.705 106.499 102.056 106.627 106.144 106.627H405.646C409.732 106.627 415.09 106.499 420.361 107.665L420.87 107.782L421.478 107.932C427.534 109.465 433.181 112.313 438.011 116.261L438.491 116.659V116.66C442.75 120.247 445.938 124.755 448.491 128.202H448.492C453.681 135.207 458.32 141.444 461.621 146.696C464.77 151.704 468.602 158.643 469.315 166.958C470.69 183.02 462.884 198.477 449.178 206.92C442.073 211.296 434.217 212.346 428.325 212.796C427.673 212.846 427.003 212.888 426.317 212.928C426.514 216.902 426.503 221.348 426.503 225.858V337.021Z" fill="white"/>
</svg>
