<svg width="512" height="512" viewBox="0 0 512 512" fill="none" xmlns="http://www.w3.org/2000/svg">
<path d="M0.000488281 298.552C0.000488281 234.958 46.3908 182.218 107.18 172.284C136.408 120.401 192.034 85.3016 255.905 85.3015C335.849 85.3015 402.934 140.273 421.451 214.486C472.618 222.319 511.81 266.523 511.81 319.881C511.81 378.769 464.071 426.507 405.183 426.508L127.953 426.509C57.2854 426.509 0.000653213 369.217 0.000488281 298.552ZM234.58 341.206V253.1L203.758 273.648C193.959 280.181 180.718 277.533 174.185 267.734C167.652 257.934 170.3 244.694 180.1 238.161L244.076 195.509C251.239 190.734 260.571 190.734 267.734 195.509L331.71 238.161C341.51 244.694 344.159 257.934 337.625 267.734C331.092 277.534 317.852 280.181 308.052 273.648L277.231 253.1V341.206C277.231 352.983 267.682 362.532 255.905 362.532C244.127 362.532 234.58 352.983 234.58 341.206ZM42.6509 298.552C42.651 345.664 80.8432 383.858 127.953 383.858L405.183 383.857C440.516 383.857 469.159 355.214 469.159 319.881C469.159 284.548 440.516 255.904 405.183 255.904C404.808 255.904 404.438 255.908 404.053 255.915C393.302 256.101 384.094 248.254 382.573 237.61C373.711 175.619 320.352 127.952 255.905 127.952C204.819 127.952 160.691 157.89 140.171 201.276C136.86 208.277 130.014 212.933 122.286 213.439C77.8285 216.349 42.6509 253.354 42.6509 298.552Z" fill="white"/>
</svg>
