<svg width="512" height="512" viewBox="0 0 512 512" fill="none" xmlns="http://www.w3.org/2000/svg">
<path d="M0 298.552C0 234.958 46.3903 182.218 107.18 172.284C136.408 120.401 192.033 85.3016 255.904 85.3015C335.849 85.3015 402.934 140.273 421.45 214.486C472.617 222.319 511.81 266.523 511.81 319.881C511.81 378.769 464.071 426.507 405.183 426.508L127.952 426.509C57.2849 426.509 0.000164931 369.217 0 298.552ZM234.579 191.928C234.579 180.151 244.127 170.603 255.904 170.603C267.682 170.603 277.23 180.151 277.23 191.928V280.033L308.052 259.486C317.851 252.953 331.092 255.601 337.625 265.401C344.158 275.201 341.509 288.44 331.71 294.973L267.733 337.625C260.57 342.4 251.238 342.4 244.075 337.625L180.1 294.973C170.3 288.44 167.652 275.201 174.185 265.401C180.718 255.601 193.958 252.953 203.758 259.486L234.579 280.033V191.928ZM42.6504 298.552C42.6506 345.664 80.8427 383.858 127.952 383.858L405.183 383.857C440.516 383.857 469.158 355.214 469.158 319.881C469.158 284.548 440.516 255.904 405.183 255.904C404.807 255.904 404.437 255.908 404.053 255.915C393.302 256.101 384.094 248.254 382.572 237.61C373.711 175.619 320.352 127.952 255.904 127.952C204.819 127.952 160.69 157.89 140.171 201.276C136.86 208.277 130.013 212.933 122.285 213.439C77.828 216.349 42.6504 253.354 42.6504 298.552Z" fill="white"/>
</svg>
