<svg width="512" height="512" viewBox="0 0 512 512" fill="none" xmlns="http://www.w3.org/2000/svg">
<path d="M0.000244141 298.552C0.000244141 234.958 46.3906 182.218 107.18 172.284C136.408 120.401 192.033 85.3016 255.905 85.3015C335.849 85.3015 402.934 140.273 421.45 214.486C472.618 222.319 511.81 266.523 511.81 319.881C511.81 378.769 464.071 426.507 405.183 426.508L127.952 426.509C57.2851 426.509 0.000409072 369.217 0.000244141 298.552ZM42.6506 298.552C42.6508 345.664 80.843 383.858 127.952 383.858L405.183 383.857C440.516 383.857 469.158 355.214 469.158 319.881C469.158 284.548 440.516 255.904 405.183 255.904C404.807 255.904 404.438 255.908 404.053 255.915C393.302 256.101 384.094 248.254 382.573 237.61C373.711 175.619 320.352 127.952 255.905 127.952C204.819 127.952 160.69 157.89 140.171 201.276C136.86 208.277 130.013 212.933 122.285 213.439C77.8283 216.349 42.6506 253.354 42.6506 298.552Z" fill="white"/>
</svg>
