<svg width="512" height="512" viewBox="0 0 512 512" fill="none" xmlns="http://www.w3.org/2000/svg">
<path d="M85.3018 379.596V132.221C85.3018 120.63 85.2848 110.652 85.9532 102.468C86.6418 94.037 88.1625 85.648 92.2745 77.5777C98.4081 65.5398 108.191 55.7572 120.229 49.6236C128.299 45.5116 136.688 43.9909 145.119 43.3023C153.303 42.6339 163.281 42.6509 174.872 42.6509H270.293C272.879 42.6509 275.271 42.6509 277.424 42.6705C283.645 42.7271 289.607 42.9241 295.832 44.4185L297.056 44.7251C303.154 46.3175 308.969 48.8024 314.321 52.0826C321.277 56.3451 326.975 62.2362 333.628 68.8892L402.744 138.003C408.396 143.658 413.339 148.756 417.065 154.837C420.563 160.545 423.16 166.784 424.731 173.331C426.136 179.183 426.397 184.803 426.473 190.647C426.498 191.071 426.512 191.498 426.512 191.928C426.512 192.22 426.504 192.51 426.492 192.799C426.504 194.671 426.508 196.703 426.508 198.874V379.668C426.508 391.236 426.525 401.196 425.856 409.366C425.168 417.786 423.647 426.163 419.539 434.225C413.4 446.274 403.59 456.062 391.564 462.19C383.501 466.298 375.126 467.819 366.705 468.507C358.535 469.175 348.575 469.159 337.007 469.159H174.803C163.234 469.159 153.271 469.175 145.098 468.507C136.676 467.819 128.294 466.299 120.229 462.19C108.179 456.05 98.4019 446.251 92.2745 434.225C88.1635 426.157 86.6421 417.774 85.9532 409.343C85.2846 401.163 85.3018 391.188 85.3018 379.596ZM127.952 379.596C127.952 391.891 127.969 399.828 128.463 405.869C128.936 411.659 129.739 413.806 130.276 414.862C132.327 418.887 135.591 422.15 139.592 424.188C140.642 424.723 142.786 425.526 148.571 425.999C154.605 426.492 162.531 426.508 174.803 426.508H337.007C349.279 426.508 357.2 426.492 363.229 425.999C369.007 425.526 371.149 424.724 372.201 424.188C376.225 422.138 379.498 418.863 381.537 414.862C382.073 413.81 382.875 411.668 383.348 405.89C383.841 399.861 383.857 391.94 383.857 379.668V213.253H345.405C333.837 213.253 323.874 213.271 315.7 212.603C307.279 211.915 298.897 210.395 290.832 206.286C278.776 200.143 269.002 190.333 262.878 178.314C258.767 170.246 257.246 161.864 256.557 153.433C255.888 145.253 255.904 135.278 255.904 123.687V85.3013H174.872C162.577 85.3013 154.636 85.3183 148.591 85.8121C142.794 86.2855 140.645 87.0889 139.592 87.6255C135.579 89.6701 132.321 92.9283 130.276 96.941C129.74 97.9942 128.936 100.144 128.463 105.94C127.969 111.985 127.952 119.926 127.952 132.221V379.596ZM298.556 123.687C298.556 135.982 298.572 143.919 299.065 149.959C299.539 155.748 300.342 157.895 300.88 158.951C302.934 162.982 306.2 166.249 310.194 168.284C311.244 168.818 313.388 169.62 319.174 170.093C325.208 170.586 333.134 170.603 345.405 170.603H374.983C373.702 169.293 372.112 167.69 370.121 165.7L303.469 99.0484C301.474 97.0535 299.868 95.4592 298.556 94.1744V123.687Z" fill="white"/>
</svg>
