<svg width="512" height="512" viewBox="0 0 512 512" fill="none" xmlns="http://www.w3.org/2000/svg">
<path d="M230.555 219.116C238.909 211.174 252.121 211.302 260.319 219.5L313.633 272.814C321.961 281.142 321.961 294.644 313.633 302.972L153.692 462.913C149.693 466.912 144.269 469.159 138.613 469.159H85.2998C73.5222 469.159 63.9747 459.611 63.9746 447.834V394.52C63.9746 388.865 66.2215 383.44 70.2207 379.441L230.161 219.5L230.555 219.116ZM106.625 403.353V426.509H129.78L209.75 346.538L186.595 323.383L106.625 403.353ZM216.754 293.224L239.909 316.38L268.396 287.893L245.24 264.738L216.754 293.224ZM106.625 234.584V132.221C106.625 120.63 106.609 110.652 107.277 102.469C107.966 94.0372 109.487 85.6483 113.599 77.5779C119.732 65.5401 129.514 55.7574 141.552 49.6238C149.622 45.5118 158.011 43.9912 166.442 43.3025C174.626 42.6341 184.605 42.6512 196.196 42.6512H291.617C294.203 42.6512 296.595 42.6511 298.748 42.6707C304.969 42.7273 310.931 42.9244 317.155 44.4187C323.699 45.9898 329.935 48.584 335.645 52.0828H335.646C342.601 56.3453 348.298 62.2365 354.951 68.8894L421.604 135.542C428.075 142.013 433.763 147.532 437.984 154.189L438.389 154.838L439.034 155.914C442.207 161.326 444.582 167.193 446.056 173.331C447.461 179.183 447.721 184.803 447.796 190.647C447.821 191.071 447.836 191.498 447.836 191.929C447.836 192.221 447.827 192.512 447.815 192.802C447.828 194.672 447.832 196.704 447.832 198.874V379.669C447.832 391.236 447.849 401.196 447.181 409.366C446.492 417.787 444.971 426.163 440.863 434.225C434.726 446.27 424.923 456.06 412.892 462.19C404.828 466.299 396.451 467.819 388.03 468.508C379.859 469.176 369.898 469.159 358.33 469.159H277.229C265.451 469.159 255.903 459.611 255.903 447.834C255.903 436.056 265.451 426.509 277.229 426.509H358.33C370.602 426.509 378.525 426.492 384.555 425.999C390.335 425.526 392.477 424.724 393.528 424.188C397.547 422.14 400.82 418.868 402.861 414.862C403.397 413.81 404.198 411.668 404.671 405.89C405.164 399.862 405.181 391.941 405.181 379.669V213.254H366.729C355.161 213.254 345.198 213.271 337.024 212.603C328.603 211.915 320.22 210.395 312.155 206.286C300.099 200.143 290.325 190.333 284.201 178.314C280.09 170.246 278.57 161.864 277.881 153.433C277.212 145.253 277.229 135.279 277.229 123.687V85.3016H196.196C183.901 85.3016 175.96 85.3186 169.915 85.8123C164.118 86.2858 161.968 87.0892 160.915 87.6258C156.902 89.6703 153.645 92.9286 151.601 96.9412C151.064 97.9944 150.26 100.143 149.786 105.94C149.292 111.985 149.276 119.927 149.276 132.221V234.584C149.276 246.361 139.728 255.909 127.95 255.909C116.173 255.909 106.625 246.361 106.625 234.584ZM319.879 123.687C319.879 135.982 319.896 143.919 320.39 149.959C320.863 155.748 321.665 157.895 322.203 158.951C324.257 162.982 327.525 166.249 331.519 168.284C332.568 168.819 334.713 169.621 340.498 170.094C346.532 170.587 354.458 170.603 366.729 170.603H396.307C395.025 169.294 393.435 167.69 391.444 165.7L324.793 99.0486C322.798 97.0534 321.191 95.4586 319.879 94.1736V123.687Z" fill="white"/>
</svg>
