<svg width="512" height="512" viewBox="0 0 512 512" fill="none" xmlns="http://www.w3.org/2000/svg">
<path d="M85.3018 379.596V132.221C85.3018 120.63 85.2848 110.652 85.9532 102.469C86.6418 94.0372 88.1625 85.6482 92.2745 77.5779C98.4081 65.54 108.191 55.7574 120.229 49.6238C128.299 45.5118 136.688 43.9912 145.119 43.3025C153.303 42.6341 163.281 42.6512 174.872 42.6512H270.293C272.879 42.6512 275.271 42.6511 277.424 42.6707C283.645 42.7273 289.607 42.9243 295.832 44.4187L297.056 44.7254C303.154 46.3178 308.969 48.8026 314.321 52.0828C321.277 56.3453 326.975 62.2364 333.628 68.8894L402.744 138.004C408.396 143.658 413.339 148.756 417.065 154.838C420.563 160.545 423.16 166.784 424.731 173.331C426.136 179.183 426.397 184.803 426.473 190.647C426.498 191.071 426.512 191.498 426.512 191.929C426.512 192.22 426.504 192.511 426.492 192.8C426.504 194.671 426.508 196.703 426.508 198.874V379.669C426.508 391.237 426.525 401.196 425.856 409.366C425.168 417.787 423.647 426.163 419.539 434.225C413.4 446.274 403.59 456.062 391.564 462.19C383.501 466.298 375.126 467.819 366.705 468.508C358.535 469.176 348.575 469.159 337.007 469.159H174.803C163.234 469.159 153.271 469.176 145.098 468.508C136.676 467.819 128.294 466.3 120.229 462.19C108.179 456.051 98.4019 446.251 92.2745 434.225C88.1635 426.157 86.6421 417.774 85.9532 409.344C85.2846 401.163 85.3018 391.188 85.3018 379.596ZM234.579 383.857V341.207H191.929C180.151 341.207 170.604 331.659 170.604 319.882C170.604 308.104 180.151 298.555 191.929 298.555H234.579V255.905C234.579 244.128 244.127 234.58 255.904 234.58C267.682 234.58 277.231 244.127 277.231 255.905V298.555H319.881C331.659 298.555 341.206 308.104 341.206 319.882C341.206 331.659 331.658 341.207 319.881 341.207H277.231V383.857C277.231 395.635 267.682 405.182 255.904 405.182C244.127 405.182 234.579 395.635 234.579 383.857ZM127.952 379.596C127.952 391.892 127.969 399.828 128.463 405.869C128.936 411.659 129.739 413.807 130.276 414.862C132.327 418.887 135.591 422.15 139.592 424.188C140.642 424.723 142.786 425.526 148.571 425.999C154.605 426.492 162.531 426.509 174.803 426.509H337.007C349.279 426.509 357.2 426.492 363.229 425.999C369.007 425.526 371.149 424.724 372.201 424.188C376.225 422.138 379.498 418.864 381.537 414.862C382.073 413.81 382.875 411.669 383.348 405.89C383.841 399.862 383.857 391.941 383.857 379.669V213.254H345.405C333.837 213.254 323.874 213.271 315.7 212.603C307.279 211.915 298.897 210.395 290.832 206.286C278.776 200.143 269.002 190.333 262.878 178.314C258.767 170.246 257.246 161.864 256.557 153.433C255.888 145.253 255.904 135.279 255.904 123.687V85.3016H174.872C162.577 85.3016 154.636 85.3186 148.591 85.8123C142.794 86.2858 140.645 87.0892 139.592 87.6258C135.579 89.6703 132.321 92.9286 130.276 96.9412C129.74 97.9945 128.936 100.144 128.463 105.94C127.969 111.985 127.952 119.927 127.952 132.221V379.596ZM298.556 123.687C298.556 135.982 298.572 143.919 299.065 149.959C299.539 155.748 300.342 157.895 300.88 158.951C302.934 162.982 306.2 166.249 310.194 168.284C311.244 168.819 313.388 169.621 319.174 170.094C325.208 170.587 333.134 170.603 345.405 170.603H374.983C373.702 169.294 372.112 167.691 370.121 165.7L303.469 99.0486C301.474 97.0537 299.868 95.4594 298.556 94.1746V123.687Z" fill="white"/>
</svg>
