<svg width="512" height="512" viewBox="0 0 512 512" fill="none" xmlns="http://www.w3.org/2000/svg">
<path d="M42.6515 162.075C42.6515 156.455 42.6349 150.957 43.0128 146.331C43.4109 141.457 44.3501 135.702 47.2999 129.913L47.6905 129.165C51.7983 121.482 58.1622 115.237 65.9366 111.276C71.723 108.328 77.4722 107.387 82.3478 106.989C86.9726 106.611 92.4695 106.627 98.089 106.627H191.929V98.0993C191.929 92.4793 191.912 86.9808 192.29 82.3542C192.688 77.4799 193.628 71.7256 196.578 65.9362C200.667 57.9111 207.189 51.3885 215.214 47.2995L215.757 47.029C221.36 44.2929 226.903 43.3984 231.626 43.0124C236.251 42.6344 241.747 42.651 247.366 42.651H348.391C352.591 42.651 358.17 42.5142 363.65 43.8297C367.993 44.8725 372.163 46.5951 375.986 48.9381L376.434 49.2174C381.03 52.1341 384.733 56.0192 387.608 58.8932L452.922 124.208C455.896 127.182 459.923 131.015 462.866 135.818C465.024 139.34 466.705 143.215 467.78 147.327L467.987 148.152L468.106 148.664C469.288 153.949 469.159 159.273 469.159 163.25V349.733C469.159 355.361 469.174 360.859 468.793 365.49C468.392 370.368 467.447 376.114 464.502 381.894C460.443 389.859 453.972 396.418 445.888 400.537C440.101 403.485 434.348 404.424 429.479 404.822C424.856 405.2 419.365 405.182 413.757 405.182H319.882V413.71C319.882 419.337 319.896 424.834 319.515 429.465C319.113 434.344 318.17 440.09 315.225 445.87C311.153 453.862 304.656 460.406 296.598 464.512C290.808 467.462 285.052 468.4 280.184 468.798C275.56 469.175 270.067 469.159 264.458 469.159H98.0548C92.4467 469.159 86.9572 469.175 82.337 468.798C77.4658 468.399 71.7201 467.459 65.9366 464.512C57.8884 460.412 51.3772 453.867 47.2999 445.865C44.3519 440.079 43.4114 434.331 43.0128 429.455C42.6348 424.83 42.6515 419.334 42.6515 413.715V162.075ZM213.254 200.459C213.254 206.782 213.271 210.241 213.474 212.726C213.482 212.826 213.493 212.92 213.501 213.008C213.585 213.016 213.673 213.027 213.766 213.035C216.244 213.238 219.694 213.255 226.006 213.255H268.398L213.254 158.111V200.459ZM85.3019 413.715C85.3019 420.038 85.3186 423.497 85.5216 425.98C85.5297 426.08 85.5398 426.174 85.548 426.262C85.6319 426.27 85.7203 426.281 85.8136 426.289C88.2922 426.491 91.7426 426.508 98.0548 426.508H264.458C270.769 426.508 274.227 426.492 276.713 426.289C276.806 426.281 276.895 426.27 276.979 426.262C276.987 426.17 276.999 426.072 277.008 425.968C277.212 423.487 277.231 420.025 277.231 413.71V255.905H226.006C220.398 255.905 214.909 255.921 210.289 255.544C205.418 255.145 199.672 254.205 193.889 251.258C185.845 247.16 179.332 240.619 175.252 232.613C172.303 226.826 171.363 221.075 170.965 216.2C170.587 211.575 170.604 206.078 170.604 200.459V149.278H98.089C91.7651 149.278 88.3066 149.295 85.8224 149.498C85.7258 149.506 85.6345 149.515 85.548 149.523C85.5398 149.611 85.5296 149.704 85.5216 149.802C85.3184 152.29 85.3019 155.752 85.3019 162.075V413.715ZM362.532 136.483C362.532 142.806 362.549 146.265 362.752 148.75C362.76 148.849 362.77 148.944 362.778 149.033C362.862 149.041 362.95 149.051 363.043 149.058C365.522 149.261 368.972 149.278 375.284 149.278H417.676L362.532 94.1344V136.483ZM234.58 119.158C235.959 120.471 237.208 121.747 238.33 122.87L303.645 188.183C306.526 191.064 310.394 194.752 313.31 199.347L313.589 199.795L314.014 200.504C315.968 203.834 317.498 207.466 318.502 211.303L318.709 212.129L318.827 212.639C319.704 216.561 319.86 220.504 319.882 223.902V362.532H413.757C420.068 362.532 423.523 362.515 426.006 362.312C426.094 362.305 426.177 362.295 426.257 362.288C426.266 362.195 426.277 362.097 426.285 361.993C426.489 359.511 426.509 356.049 426.509 349.733V191.928H375.284C369.677 191.928 364.188 191.945 359.568 191.567C354.696 191.169 348.951 190.229 343.167 187.282C335.123 183.183 328.61 176.643 324.53 168.636C321.582 162.849 320.642 157.1 320.243 152.224C319.865 147.599 319.882 142.102 319.882 136.483V85.3014H247.366C241.043 85.3014 237.585 85.3181 235.101 85.5211C235.004 85.529 234.913 85.5386 234.826 85.5465C234.818 85.6346 234.808 85.7275 234.8 85.8258C234.597 88.3135 234.58 91.7759 234.58 98.0993V119.158Z" fill="white"/>
</svg>
