<svg width="512" height="512" viewBox="0 0 512 512" fill="none" xmlns="http://www.w3.org/2000/svg">
<path d="M85.3018 379.596V132.221C85.3018 120.63 85.2848 110.652 85.9532 102.469C86.6418 94.0372 88.1625 85.6482 92.2745 77.5779C98.4081 65.54 108.191 55.7574 120.229 49.6238C128.299 45.5118 136.688 43.9912 145.119 43.3025C153.303 42.6341 163.281 42.6512 174.872 42.6512H270.293C272.881 42.6512 275.278 42.651 277.433 42.6707C283.677 42.7276 289.607 42.9313 295.818 44.4226C302.333 45.9866 308.585 48.5679 314.321 52.0828C321.277 56.3453 326.975 62.2363 333.628 68.8894L400.279 135.542C406.959 142.222 412.806 147.887 417.065 154.838C420.563 160.545 423.16 166.784 424.732 173.331C426.223 179.542 426.429 185.489 426.486 191.734C426.506 193.882 426.508 196.265 426.508 198.874V379.669C426.508 391.237 426.525 401.196 425.857 409.366C425.168 417.787 423.648 426.163 419.54 434.225C413.401 446.274 403.59 456.062 391.564 462.19C383.501 466.298 375.126 467.819 366.705 468.508C358.535 469.176 348.575 469.159 337.007 469.159H174.803C163.234 469.159 153.271 469.176 145.098 468.508C136.676 467.819 128.294 466.3 120.229 462.19C108.179 456.05 98.402 446.251 92.2745 434.225C88.1636 426.157 86.6422 417.774 85.9532 409.344C85.2847 401.163 85.3018 391.188 85.3018 379.596ZM277.231 309.219C277.231 291.552 262.909 277.23 245.242 277.23C227.576 277.23 213.254 291.552 213.254 309.219C213.254 326.885 227.576 341.207 245.242 341.207C262.909 341.207 277.231 326.885 277.231 309.219ZM298.556 123.695C298.556 135.989 298.572 143.925 299.066 149.966C299.539 155.757 300.342 157.905 300.88 158.96C302.93 162.982 306.192 166.245 310.194 168.284C311.244 168.819 313.389 169.621 319.175 170.094C325.209 170.587 333.134 170.603 345.405 170.603H374.983C373.702 169.294 372.112 167.691 370.121 165.7L303.469 99.0486C301.476 97.0555 299.87 95.4627 298.559 94.1785L298.556 123.695ZM319.881 309.219C319.881 322.078 316.628 334.177 310.901 344.74L334.947 368.786C343.275 377.114 343.275 390.616 334.947 398.944C326.619 407.272 313.116 407.272 304.788 398.944L280.736 374.892C270.18 380.61 258.091 383.857 245.242 383.857C204.02 383.857 170.604 350.44 170.604 309.219C170.604 267.997 204.02 234.58 245.242 234.58C286.464 234.58 319.881 267.997 319.881 309.219ZM127.952 379.596C127.952 391.892 127.969 399.828 128.463 405.869C128.936 411.659 129.739 413.807 130.276 414.862C132.327 418.887 135.591 422.15 139.592 424.188C140.642 424.723 142.786 425.526 148.571 425.999C154.605 426.492 162.531 426.509 174.803 426.509H337.007C349.279 426.509 357.2 426.492 363.229 425.999C369.007 425.526 371.149 424.724 372.201 424.188C376.225 422.138 379.498 418.864 381.537 414.862C382.073 413.81 382.875 411.669 383.348 405.89C383.841 399.862 383.857 391.941 383.857 379.669V213.254H345.405C333.837 213.254 323.874 213.27 315.7 212.602C307.279 211.914 298.897 210.395 290.832 206.286C278.784 200.147 269.007 190.35 262.878 178.322C258.767 170.254 257.246 161.87 256.557 153.439C255.888 145.258 255.905 135.283 255.905 123.692L255.91 85.3016H174.872C162.577 85.3016 154.636 85.3186 148.591 85.8123C142.794 86.2858 140.645 87.0892 139.592 87.6258C135.579 89.6703 132.321 92.9286 130.276 96.9412C129.74 97.9945 128.936 100.144 128.463 105.94C127.969 111.985 127.952 119.927 127.952 132.221V379.596Z" fill="white"/>
</svg>
