<svg width="512" height="512" viewBox="0 0 512 512" fill="none" xmlns="http://www.w3.org/2000/svg">
<path d="M426.513 358.262V196.189C426.513 183.894 426.497 175.955 426.003 169.912C425.53 164.119 424.726 161.971 424.189 160.916C422.154 156.922 418.888 153.656 414.856 151.602C413.801 151.064 411.654 150.26 405.864 149.787C399.824 149.294 391.888 149.278 379.593 149.278H85.3018V358.266C85.3018 370.561 85.3189 378.498 85.8125 384.538C86.2857 390.327 87.0882 392.474 87.626 393.53C89.68 397.561 92.9474 400.827 96.9414 402.863C97.9911 403.397 100.136 404.199 105.921 404.672C111.955 405.165 119.881 405.182 132.152 405.182H379.658C391.93 405.182 399.851 405.165 405.88 404.672C411.657 404.2 413.799 403.399 414.852 402.863L415.227 402.666C419.077 400.608 422.212 397.413 424.189 393.534C424.726 392.48 425.53 390.332 426.003 384.538C426.497 378.496 426.513 370.557 426.513 358.262ZM277.231 266.567C277.23 248.9 262.909 234.578 245.242 234.578C227.576 234.579 213.254 248.9 213.254 266.567C213.254 284.233 227.576 298.555 245.242 298.555C262.909 298.555 277.231 284.233 277.231 266.567ZM319.882 266.567C319.882 279.426 316.628 291.525 310.901 302.088L334.947 326.134C343.275 334.462 343.275 347.965 334.947 356.293C326.619 364.621 313.117 364.621 304.789 356.293L280.736 332.24C270.18 337.958 258.091 341.206 245.242 341.206C204.02 341.206 170.604 307.788 170.604 266.567C170.604 225.345 204.021 191.928 245.242 191.928C286.464 191.928 319.882 225.345 319.882 266.567ZM469.164 358.262C469.164 369.853 469.18 379.83 468.512 388.012C467.823 396.443 466.302 404.828 462.19 412.897C456.052 424.943 446.244 434.735 434.215 440.864C426.152 444.972 417.777 446.493 409.356 447.182C401.186 447.85 391.226 447.833 379.658 447.833H132.152C120.584 447.833 110.621 447.85 102.447 447.182C94.0258 446.494 85.6432 444.974 77.5782 440.864C65.5217 434.721 55.7482 424.912 49.6241 412.893C45.5133 404.825 43.9918 396.442 43.3028 388.012C42.6342 379.832 42.6514 369.857 42.6514 358.266V127.951C42.6516 92.6186 71.2942 63.976 106.627 63.9758H184.988C194.403 63.9758 202.601 63.8386 210.535 65.7434C217.084 67.3157 223.315 69.9113 229.021 73.4075C235.976 77.6699 241.673 83.5611 248.326 90.2141L264.738 106.626H379.593C391.184 106.626 401.159 106.61 409.339 107.279C417.769 107.968 426.152 109.489 434.22 113.6C446.239 119.724 456.047 129.497 462.19 141.553C466.302 149.622 467.823 158.008 468.512 166.439C469.18 174.621 469.164 184.597 469.164 196.189V358.262Z" fill="white"/>
</svg>
