<svg width="512" height="512" viewBox="0 0 512 512" fill="none" xmlns="http://www.w3.org/2000/svg">
<path d="M426.511 358.262V196.189C426.511 183.894 426.495 175.955 426.001 169.913C425.528 164.119 424.724 161.971 424.187 160.916C422.152 156.923 418.886 153.656 414.855 151.602C413.799 151.064 411.652 150.261 405.862 149.788C399.823 149.294 391.886 149.278 379.591 149.278H85.2998V358.266C85.2998 370.561 85.317 378.499 85.8106 384.539C86.2837 390.327 87.0862 392.474 87.6241 393.53C89.6781 397.561 92.9454 400.828 96.9395 402.863C97.9892 403.398 100.134 404.2 105.919 404.672C111.953 405.165 119.879 405.182 132.15 405.182H379.656C391.928 405.182 399.849 405.165 405.878 404.672C411.655 404.2 413.797 403.399 414.85 402.863L415.225 402.666C419.075 400.608 422.21 397.413 424.187 393.535C424.724 392.48 425.528 390.332 426.001 384.539C426.495 378.496 426.511 370.557 426.511 358.262ZM469.162 358.262C469.162 369.854 469.178 379.83 468.51 388.012C467.821 396.443 466.3 404.828 462.189 412.897C456.05 424.944 446.242 434.736 434.213 440.865C426.151 444.973 417.775 446.494 409.355 447.182C401.184 447.85 391.224 447.833 379.656 447.833H132.15C120.582 447.833 110.619 447.85 102.445 447.182C94.0238 446.494 85.6412 444.974 77.5762 440.865C65.5197 434.722 55.7462 424.912 49.6221 412.893C45.5114 404.825 43.9898 396.443 43.3008 388.012C42.6323 379.832 42.6495 369.857 42.6495 358.266V127.952C42.6497 92.6189 71.2923 63.9763 106.625 63.9761H184.986C194.401 63.9761 202.599 63.8388 210.533 65.7436C217.083 67.316 223.313 69.9115 229.019 73.4077C235.974 77.6702 241.671 83.5614 248.324 90.2143L264.736 106.626H379.591C391.182 106.626 401.157 106.61 409.337 107.279C417.767 107.968 426.15 109.489 434.218 113.6C446.237 119.724 456.045 129.497 462.189 141.553C466.3 149.622 467.821 158.008 468.51 166.439C469.178 174.621 469.162 184.597 469.162 196.189V358.262Z" fill="white"/>
</svg>
