<svg width="512" height="512" viewBox="0 0 512 512" fill="none" xmlns="http://www.w3.org/2000/svg">
<path d="M426.512 358.262V196.189C426.512 183.894 426.496 175.955 426.002 169.913C425.529 164.119 424.725 161.971 424.188 160.916C422.153 156.923 418.887 153.656 414.856 151.602C413.8 151.064 411.653 150.261 405.864 149.788C399.824 149.294 391.888 149.278 379.592 149.278H85.3013V358.266C85.3013 370.561 85.3184 378.499 85.8121 384.539C86.2852 390.327 87.0877 392.474 87.6255 393.53C89.6796 397.561 92.9469 400.828 96.941 402.863C97.9906 403.398 100.135 404.2 105.92 404.672C111.954 405.165 119.88 405.182 132.152 405.182H379.658C391.93 405.182 399.851 405.165 405.879 404.672C411.657 404.2 413.799 403.399 414.851 402.863L415.226 402.666C419.076 400.608 422.212 397.413 424.188 393.535C424.725 392.48 425.529 390.332 426.002 384.539C426.496 378.496 426.512 370.557 426.512 358.262ZM234.58 213.253C234.58 201.476 244.127 191.928 255.905 191.928C267.682 191.928 277.23 201.476 277.23 213.253V301.359L308.051 280.811C317.851 274.278 331.091 276.927 337.625 286.726C344.158 296.526 341.51 309.766 331.71 316.299L267.734 358.95C260.571 363.725 251.239 363.725 244.076 358.95L180.099 316.299C170.3 309.766 167.652 296.526 174.185 286.726C180.718 276.927 193.958 274.278 203.757 280.811L234.58 301.359V213.253ZM469.164 358.262C469.164 369.854 469.18 379.83 468.511 388.012C467.822 396.443 466.301 404.828 462.19 412.897C456.052 424.944 446.243 434.736 434.214 440.865C426.152 444.973 417.776 446.494 409.356 447.182C401.186 447.85 391.226 447.833 379.658 447.833H132.152C120.584 447.833 110.62 447.85 102.447 447.182C94.0253 446.494 85.6427 444.974 77.5777 440.865C65.5212 434.722 55.7477 424.912 49.6236 412.893C45.5128 404.825 43.9913 396.443 43.3023 388.012C42.6338 379.832 42.6509 369.857 42.6509 358.266V127.952C42.6511 92.6189 71.2938 63.9763 106.627 63.9761H184.988C194.403 63.9761 202.601 63.8388 210.535 65.7436C217.084 67.316 223.315 69.9115 229.02 73.4077C235.976 77.6702 241.673 83.5614 248.326 90.2143L264.738 106.626H379.592C391.184 106.626 401.158 106.61 409.338 107.279C417.769 107.968 426.152 109.489 434.219 113.6C446.238 119.724 456.047 129.497 462.19 141.553C466.301 149.622 467.822 158.008 468.511 166.439C469.18 174.621 469.164 184.597 469.164 196.189V358.262Z" fill="white"/>
</svg>
