<svg width="512" height="512" viewBox="0 0 512 512" fill="none" xmlns="http://www.w3.org/2000/svg">
<path d="M426.513 358.262V196.189C426.513 183.894 426.497 175.955 426.003 169.913C425.53 164.119 424.726 161.971 424.189 160.916C422.154 156.923 418.888 153.656 414.856 151.602C413.801 151.064 411.654 150.261 405.864 149.788C399.824 149.294 391.888 149.278 379.593 149.278H85.3018V358.266C85.3018 370.561 85.3189 378.499 85.8125 384.539C86.2857 390.327 87.0882 392.474 87.626 393.53C89.68 397.561 92.9474 400.828 96.9414 402.863C97.9911 403.398 100.136 404.2 105.921 404.672C111.955 405.165 119.881 405.182 132.152 405.182H379.658C391.93 405.182 399.851 405.165 405.88 404.672C411.657 404.2 413.799 403.399 414.852 402.863L415.227 402.666C419.077 400.608 422.212 397.413 424.189 393.535C424.726 392.48 425.53 390.332 426.003 384.539C426.497 378.496 426.513 370.557 426.513 358.262ZM234.58 341.207V253.099L203.758 273.648C193.958 280.181 180.719 277.533 174.186 267.734C167.653 257.934 170.3 244.694 180.1 238.161L244.076 195.51L244.413 195.29C251.53 190.735 260.683 190.809 267.734 195.51L331.711 238.161C341.51 244.694 344.158 257.934 337.625 267.734C331.092 277.533 317.851 280.181 308.052 273.648L277.231 253.1V341.207C277.23 352.984 267.683 362.532 255.905 362.532C244.128 362.532 234.58 352.984 234.58 341.207ZM469.164 358.262C469.164 369.854 469.18 379.83 468.512 388.012C467.823 396.443 466.302 404.828 462.19 412.897C456.052 424.944 446.244 434.736 434.215 440.865C426.152 444.973 417.777 446.494 409.356 447.182C401.186 447.85 391.226 447.833 379.658 447.833H132.152C120.584 447.833 110.621 447.85 102.447 447.182C94.0258 446.494 85.6432 444.974 77.5782 440.865C65.5217 434.722 55.7482 424.912 49.6241 412.893C45.5133 404.825 43.9918 396.443 43.3028 388.012C42.6342 379.832 42.6514 369.857 42.6514 358.266V127.952C42.6516 92.6189 71.2942 63.9763 106.627 63.9761H184.988C194.403 63.9761 202.601 63.8388 210.535 65.7436C217.084 67.316 223.315 69.9115 229.021 73.4077C235.976 77.6702 241.673 83.5614 248.326 90.2143L264.738 106.626H379.593C391.184 106.626 401.159 106.61 409.339 107.279C417.769 107.968 426.152 109.489 434.22 113.6C446.239 119.724 456.047 129.497 462.19 141.553C466.302 149.622 467.823 158.008 468.512 166.439C469.18 174.621 469.164 184.597 469.164 196.189V358.262Z" fill="white"/>
</svg>
