<svg width="512" height="512" viewBox="0 0 512 512" fill="none" xmlns="http://www.w3.org/2000/svg">
<path d="M426.512 358.262V196.189C426.512 183.894 426.496 175.955 426.003 169.913C425.529 164.119 424.725 161.971 424.188 160.916C422.153 156.923 418.887 153.656 414.856 151.602C413.801 151.064 411.654 150.261 405.864 149.788C399.824 149.294 391.888 149.278 379.593 149.278H85.3016V358.266C85.3016 370.561 85.3187 378.499 85.8123 384.539C86.2854 390.327 87.088 392.474 87.6258 393.53C89.6798 397.561 92.9472 400.828 96.9412 402.863C97.9909 403.398 100.135 404.2 105.921 404.672C111.954 405.165 119.881 405.182 132.152 405.182H379.658C391.93 405.182 399.851 405.165 405.88 404.672C411.657 404.2 413.799 403.399 414.851 402.863L415.226 402.666C419.076 400.608 422.212 397.413 424.188 393.535C424.726 392.48 425.529 390.332 426.003 384.539C426.496 378.496 426.512 370.557 426.512 358.262ZM198.175 219.499C206.503 211.171 220.006 211.171 228.334 219.499C236.662 227.828 236.662 241.331 228.334 249.659L200.762 277.23L228.334 304.801C236.662 313.129 236.662 326.632 228.334 334.96C220.006 343.288 206.503 343.288 198.175 334.96L155.524 292.309C151.525 288.31 149.278 282.886 149.278 277.23C149.278 271.574 151.525 266.15 155.524 262.151L198.175 219.499ZM283.476 219.499C291.804 211.171 305.307 211.171 313.636 219.499L356.286 262.151C360.285 266.15 362.532 271.574 362.532 277.23C362.532 282.886 360.285 288.31 356.286 292.309L313.636 334.96C305.307 343.288 291.804 343.288 283.476 334.96C275.148 326.632 275.148 313.129 283.476 304.801L311.048 277.23L283.476 249.659C275.148 241.331 275.148 227.828 283.476 219.499ZM469.164 358.262C469.164 369.854 469.18 379.83 468.512 388.012C467.823 396.443 466.301 404.828 462.19 412.897C456.052 424.944 446.244 434.736 434.215 440.865C426.152 444.973 417.777 446.494 409.356 447.182C401.186 447.85 391.226 447.833 379.658 447.833H132.152C120.584 447.833 110.621 447.85 102.447 447.182C94.0256 446.494 85.6429 444.974 77.5779 440.865C65.5214 434.722 55.7479 424.912 49.6238 412.893C45.5131 404.825 43.9915 396.443 43.3025 388.012C42.634 379.832 42.6512 369.857 42.6512 358.266V127.952C42.6514 92.6189 71.294 63.9763 106.627 63.9761H184.988C194.403 63.9761 202.601 63.8388 210.535 65.7436C217.084 67.316 223.315 69.9115 229.02 73.4077C235.976 77.6702 241.673 83.5614 248.326 90.2143L264.738 106.626H379.593C391.184 106.626 401.159 106.61 409.339 107.279C417.769 107.968 426.152 109.489 434.22 113.6C446.238 119.724 456.047 129.497 462.19 141.553C466.302 149.622 467.823 158.008 468.512 166.439C469.18 174.621 469.164 184.597 469.164 196.189V358.262Z" fill="white"/>
</svg>
