<svg width="512" height="512" viewBox="0 0 512 512" fill="none" xmlns="http://www.w3.org/2000/svg">
<path d="M426.512 358.262V196.189C426.512 183.894 426.496 175.955 426.002 169.913C425.529 164.119 424.725 161.971 424.188 160.916C422.153 156.923 418.887 153.656 414.855 151.602C413.8 151.064 411.653 150.261 405.863 149.788C399.824 149.294 391.887 149.278 379.592 149.278H85.3008V358.266C85.3008 370.561 85.3179 378.499 85.8116 384.539C86.2847 390.327 87.0872 392.474 87.625 393.53C89.6791 397.561 92.9464 400.828 96.9405 402.863C97.9902 403.398 100.135 404.2 105.92 404.672C111.954 405.165 119.88 405.182 132.151 405.182H379.657C391.929 405.182 399.85 405.165 405.879 404.672C411.656 404.2 413.798 403.399 414.851 402.863L415.226 402.666C419.076 400.608 422.211 397.413 424.188 393.535C424.725 392.48 425.529 390.332 426.002 384.539C426.496 378.496 426.512 370.557 426.512 358.262ZM283.475 219.499C291.803 211.171 305.306 211.171 313.634 219.499C321.962 227.828 321.962 241.331 313.634 249.659L286.063 277.229L313.634 304.8C321.962 313.128 321.962 326.631 313.634 334.959C305.306 343.288 291.803 343.288 283.475 334.959L255.903 307.388L228.333 334.959C220.005 343.288 206.502 343.288 198.174 334.959C189.846 326.631 189.846 313.128 198.174 304.8L225.744 277.229L198.174 249.659C189.846 241.331 189.846 227.828 198.174 219.499C206.502 211.171 220.005 211.171 228.333 219.499L255.903 247.07L283.475 219.499ZM469.163 358.262C469.163 369.854 469.179 379.83 468.511 388.012C467.822 396.443 466.301 404.828 462.189 412.897C456.051 424.944 446.243 434.736 434.214 440.865C426.152 444.973 417.776 446.494 409.355 447.182C401.185 447.85 391.225 447.833 379.657 447.833H132.151C120.583 447.833 110.62 447.85 102.446 447.182C94.0248 446.494 85.6422 444.974 77.5772 440.865C65.5207 434.722 55.7472 424.912 49.6231 412.893C45.5123 404.825 43.9908 396.443 43.3018 388.012C42.6333 379.832 42.6504 369.857 42.6504 358.266V127.952C42.6507 92.6189 71.2933 63.9763 106.626 63.9761H184.987C194.402 63.9761 202.6 63.8388 210.534 65.7436C217.083 67.316 223.314 69.9115 229.02 73.4077C235.975 77.6702 241.672 83.5614 248.325 90.2143L264.737 106.626H379.592C391.183 106.626 401.158 106.61 409.338 107.279C417.768 107.968 426.151 109.489 434.219 113.6C446.238 119.724 456.046 129.497 462.189 141.553C466.301 149.622 467.822 158.008 468.511 166.439C469.179 174.621 469.163 184.597 469.163 196.189V358.262Z" fill="white"/>
</svg>
