<svg width="512" height="512" viewBox="0 0 512 512" fill="none" xmlns="http://www.w3.org/2000/svg">
<path d="M341.207 287.893C341.207 258.449 317.337 234.579 287.893 234.579C258.449 234.579 234.579 258.449 234.579 287.893C234.579 317.337 258.449 341.207 287.893 341.207C317.337 341.206 341.207 317.337 341.207 287.893ZM405.182 213.258V153.477C405.182 141.206 405.166 133.279 404.673 127.246C404.2 121.46 403.398 119.316 402.863 118.266C400.83 114.277 397.562 111.007 393.526 108.951C392.469 108.412 390.323 107.61 384.538 107.137C378.5 106.644 370.567 106.627 358.271 106.627H153.547C141.252 106.627 133.31 106.644 127.265 107.137C121.469 107.611 119.32 108.414 118.266 108.951C114.254 110.995 110.996 114.254 108.951 118.266C108.414 119.319 107.611 121.469 107.137 127.265C106.644 133.31 106.627 141.252 106.627 153.546V358.271C106.627 370.566 106.644 378.503 107.137 384.543C107.611 390.334 108.413 392.481 108.951 393.537C111.002 397.561 114.266 400.824 118.266 402.863C119.316 403.398 121.46 404.2 127.246 404.672C133.28 405.165 141.206 405.182 153.477 405.182H213.259C225.036 405.182 234.584 414.73 234.584 426.507C234.584 438.285 225.036 447.833 213.259 447.834H153.477C141.909 447.834 131.946 447.85 123.772 447.182C115.351 446.494 106.968 444.974 98.9031 440.865C86.8533 434.725 77.0765 424.926 70.949 412.9C66.838 404.832 65.3167 396.448 64.6277 388.017C63.9592 379.837 63.9764 369.862 63.9764 358.271V153.546C63.9764 141.955 63.9593 131.977 64.6277 123.793C65.3164 115.362 66.837 106.973 70.949 98.9029C77.0826 86.865 86.8652 77.0824 98.9031 70.9488C106.973 66.8368 115.362 65.3161 123.794 64.6275C131.977 63.9591 141.955 63.9761 153.547 63.9761H358.271C369.862 63.9761 379.835 63.9589 388.013 64.6275C396.443 65.3167 404.823 66.8386 412.889 70.9488C424.904 77.0706 434.72 86.842 440.865 98.9029C444.974 106.968 446.494 115.35 447.182 123.772C447.85 131.946 447.834 141.909 447.834 153.477V213.258C447.834 225.036 438.285 234.584 426.508 234.584C414.73 234.583 405.183 225.036 405.182 213.258ZM383.857 287.893C383.857 306.671 378.462 324.187 369.14 338.981L420.262 390.103C428.59 398.431 428.59 411.933 420.262 420.261C411.933 428.589 398.431 428.589 390.103 420.261L338.981 369.14C324.188 378.462 306.671 383.857 287.893 383.857C234.894 383.857 191.929 340.893 191.929 287.893C191.929 234.893 234.894 191.928 287.893 191.928C340.893 191.929 383.857 234.894 383.857 287.893Z" fill="white"/>
</svg>
