<svg width="512" height="512" viewBox="0 0 512 512" fill="none" xmlns="http://www.w3.org/2000/svg">
<path d="M405.183 153.477C405.183 141.206 405.166 133.279 404.673 127.246C404.2 121.46 403.398 119.316 402.863 118.266C400.83 114.277 397.562 111.007 393.526 108.951C392.469 108.412 390.324 107.61 384.538 107.137C378.501 106.644 370.567 106.627 358.271 106.627H153.547C141.252 106.627 133.31 106.644 127.266 107.137C121.469 107.611 119.32 108.414 118.267 108.951C114.254 110.995 110.996 114.254 108.951 118.266C108.414 119.319 107.611 121.469 107.138 127.265C106.644 133.31 106.627 141.252 106.627 153.546V358.271C106.627 370.566 106.644 378.503 107.138 384.543C107.611 390.334 108.413 392.481 108.951 393.537C111.002 397.561 114.266 400.824 118.267 402.863C119.316 403.398 121.461 404.2 127.246 404.672C133.28 405.165 141.206 405.182 153.477 405.182H255.905V311.353C255.905 305.733 255.889 300.235 256.267 295.608C256.665 290.734 257.604 284.979 260.554 279.19C264.643 271.165 271.165 264.642 279.19 260.553C284.977 257.605 290.726 256.665 295.601 256.266C300.226 255.888 305.723 255.905 311.343 255.905H405.183V153.477ZM298.556 396.318C299.868 395.034 301.474 393.441 303.469 391.446L391.446 303.468C393.441 301.473 395.035 299.868 396.318 298.555H311.343C305.019 298.555 301.56 298.572 299.076 298.775C298.98 298.783 298.888 298.792 298.802 298.8C298.794 298.888 298.783 298.981 298.775 299.08C298.572 301.567 298.556 305.03 298.556 311.353V396.318ZM447.834 270.294C447.834 272.884 447.833 275.277 447.812 277.433C447.753 283.669 447.549 289.611 446.058 295.822C444.586 301.952 442.212 307.825 439.036 313.244L438.391 314.321C434.134 321.266 428.303 326.93 421.605 333.627L333.628 421.605C326.95 428.283 321.272 434.141 314.321 438.401C308.618 441.896 302.383 444.494 295.832 446.067C289.605 447.562 283.641 447.758 277.423 447.814C275.284 447.833 272.909 447.834 270.343 447.834H153.477C141.909 447.834 131.946 447.85 123.772 447.182C115.351 446.494 106.968 444.974 98.9032 440.865C86.8533 434.725 77.0766 424.925 70.9491 412.899C66.8383 404.831 65.3168 396.448 64.6278 388.017C63.9594 379.837 63.9765 369.862 63.9765 358.271V153.546C63.9765 141.955 63.9594 131.977 64.6278 123.793C65.3165 115.362 66.8371 106.973 70.9491 98.9029C77.0828 86.865 86.8653 77.0824 98.9032 70.9488C106.974 66.8368 115.363 65.3161 123.794 64.6275C131.978 63.9591 141.955 63.9761 153.547 63.9761H358.271C369.862 63.9761 379.835 63.9589 388.014 64.6275C396.443 65.3167 404.823 66.8386 412.89 70.9488C424.904 77.0706 434.72 86.842 440.865 98.9029C444.974 106.968 446.494 115.35 447.183 123.772C447.85 131.946 447.834 141.909 447.834 153.477V270.294Z" fill="white"/>
</svg>
