<svg width="512" height="512" viewBox="0 0 512 512" fill="none" xmlns="http://www.w3.org/2000/svg">
<path d="M405.182 153.477C405.182 141.206 405.166 133.279 404.673 127.246C404.2 121.46 403.398 119.316 402.863 118.266C400.83 114.277 397.562 111.007 393.526 108.951C392.469 108.412 390.323 107.61 384.538 107.137C378.5 106.644 370.567 106.627 358.271 106.627H191.929V405.182H358.333C370.605 405.182 378.526 405.165 384.554 404.672C390.332 404.2 392.474 403.399 393.526 402.863C397.55 400.813 400.824 397.538 402.863 393.537C403.399 392.485 404.2 390.342 404.673 384.564C405.166 378.535 405.182 370.614 405.182 358.342V153.477ZM341.207 213.253C352.984 213.254 362.532 222.801 362.532 234.579C362.532 246.356 352.984 255.905 341.207 255.905H255.905C244.127 255.905 234.579 246.356 234.579 234.579C234.579 222.801 244.128 213.253 255.905 213.253H341.207ZM341.207 149.278C352.984 149.278 362.532 158.826 362.532 170.603C362.532 182.381 352.984 191.928 341.207 191.928H255.905C244.127 191.928 234.579 182.381 234.579 170.603C234.579 158.825 244.127 149.278 255.905 149.278H341.207ZM106.627 358.271C106.627 370.566 106.644 378.503 107.137 384.543C107.611 390.334 108.413 392.481 108.951 393.537C111.002 397.561 114.266 400.824 118.266 402.863C119.316 403.398 121.461 404.2 127.246 404.672C132.562 405.107 139.347 405.168 149.278 405.177V106.631C139.361 106.641 132.58 106.703 127.265 107.137C121.469 107.611 119.32 108.414 118.266 108.951C114.254 110.995 110.996 114.254 108.951 118.266C108.414 119.319 107.611 121.469 107.137 127.265C106.644 133.31 106.627 141.252 106.627 153.546V358.271ZM447.834 358.342C447.834 369.91 447.85 379.87 447.182 388.041C446.494 396.461 444.973 404.837 440.865 412.899C434.726 424.948 424.916 434.737 412.889 440.865C404.827 444.973 396.451 446.494 388.03 447.182C379.86 447.85 369.901 447.834 358.333 447.834H153.477C141.909 447.834 131.946 447.85 123.772 447.182C115.351 446.494 106.968 444.974 98.9031 440.865C86.8532 434.725 77.0765 424.925 70.949 412.899C66.8382 404.831 65.3167 396.448 64.6277 388.017C63.9592 379.837 63.9764 369.862 63.9764 358.271V153.546C63.9764 141.955 63.9593 131.977 64.6277 123.793C65.3164 115.362 66.837 106.973 70.949 98.9029C77.0826 86.865 86.8652 77.0824 98.9031 70.9488C106.973 66.8368 115.362 65.3161 123.794 64.6275C131.977 63.9591 141.955 63.9761 153.547 63.9761H358.271C369.862 63.9761 379.835 63.9589 388.013 64.6275C396.443 65.3167 404.823 66.8386 412.889 70.9488C424.904 77.0706 434.72 86.842 440.865 98.9029C444.974 106.968 446.494 115.35 447.182 123.772C447.85 131.946 447.834 141.909 447.834 153.477V358.342Z" fill="white"/>
</svg>
