<svg width="512" height="512" viewBox="0 0 512 512" fill="none" xmlns="http://www.w3.org/2000/svg">
<path d="M326.128 134.198C334.456 125.87 347.958 125.87 356.286 134.198L462.913 240.825C466.912 244.824 469.159 250.248 469.159 255.904C469.159 261.56 466.912 266.984 462.913 270.983L356.286 377.61C347.958 385.938 334.456 385.938 326.128 377.61C317.8 369.282 317.8 355.78 326.128 347.452L396.35 277.229H63.9763C52.1986 277.229 42.6511 267.682 42.6511 255.904C42.6511 244.126 52.1986 234.579 63.9763 234.579H396.35L326.128 164.356C317.8 156.028 317.8 142.526 326.128 134.198Z" fill="white"/>
</svg>
