<svg width="512" height="512" viewBox="0 0 512 512" fill="none" xmlns="http://www.w3.org/2000/svg">
<path d="M426.509 255.905C426.509 161.683 350.127 85.3013 255.905 85.3013C161.683 85.3013 85.3015 161.683 85.3015 255.905C85.3016 350.126 161.683 426.508 255.905 426.508C350.127 426.508 426.508 350.126 426.509 255.905ZM219.5 176.849C227.828 168.521 241.331 168.521 249.659 176.849C257.987 185.177 257.987 198.68 249.659 207.008L222.088 234.58H341.207C352.984 234.58 362.532 244.127 362.532 255.905C362.532 267.682 352.984 277.23 341.207 277.23H222.088L249.659 304.801C257.987 313.129 257.987 326.632 249.659 334.96C241.331 343.288 227.828 343.288 219.5 334.96L155.524 270.984C147.196 262.656 147.196 249.154 155.524 240.826L219.5 176.849ZM469.159 255.905C469.159 373.682 373.682 469.159 255.905 469.159C138.128 469.159 42.6512 373.682 42.6511 255.905C42.6511 138.128 138.128 42.6509 255.905 42.6509C373.682 42.6509 469.159 138.128 469.159 255.905Z" fill="white"/>
</svg>
