<svg width="512" height="512" viewBox="0 0 512 512" fill="none" xmlns="http://www.w3.org/2000/svg">
<path d="M391.633 98.8696C397.289 98.8696 402.714 101.116 406.713 105.116C410.712 109.115 412.959 114.54 412.959 120.196L412.95 270.99C412.95 282.767 403.402 292.314 391.624 292.314C379.847 292.313 370.299 282.765 370.3 270.987L370.305 171.681L135.284 406.703C126.956 415.03 113.454 415.03 105.126 406.703C96.7981 398.375 96.7981 384.872 105.126 376.543L340.15 141.52H240.848C229.07 141.52 219.523 131.972 219.523 120.195C219.523 108.417 229.07 98.8697 240.848 98.8696H391.633Z" fill="white"/>
</svg>
