<svg width="512" height="512" viewBox="0 0 512 512" fill="none" xmlns="http://www.w3.org/2000/svg">
<path d="M426.508 255.905C426.508 161.683 350.126 85.3013 255.905 85.3013C161.683 85.3013 85.3013 161.683 85.3013 255.905C85.3013 350.126 161.683 426.508 255.905 426.508C350.126 426.508 426.508 350.126 426.508 255.905ZM304.801 176.849C313.129 168.521 326.632 168.521 334.96 176.849C343.288 185.177 343.288 198.68 334.96 207.008L243.414 298.555H277.23C289.008 298.555 298.555 308.104 298.555 319.881C298.555 331.659 289.008 341.207 277.23 341.207H191.928C180.151 341.206 170.603 331.659 170.603 319.881V234.58C170.603 222.802 180.151 213.254 191.928 213.253C203.706 213.253 213.253 222.802 213.253 234.58V268.397L304.801 176.849ZM469.159 255.905C469.159 373.682 373.682 469.159 255.905 469.159C138.128 469.159 42.6509 373.682 42.6509 255.905C42.6509 138.128 138.128 42.6509 255.905 42.6509C373.682 42.6509 469.159 138.128 469.159 255.905Z" fill="white"/>
</svg>
