<svg width="512" height="512" viewBox="0 0 512 512" fill="none" xmlns="http://www.w3.org/2000/svg">
<path d="M85.3006 447.833V341.207C85.3006 329.429 94.8481 319.881 106.626 319.881H213.253C225.03 319.881 234.578 329.429 234.578 341.207C234.578 352.984 225.03 362.532 213.253 362.532H151.437C161.68 372.568 173.365 381.125 186.167 387.889C210.859 400.935 238.724 406.792 266.583 404.795C294.443 402.798 321.176 393.035 343.754 376.601C366.334 360.165 383.851 337.725 394.313 311.83C398.725 300.91 411.154 295.634 422.074 300.045C432.994 304.457 438.27 316.887 433.858 327.807C420.407 361.101 397.885 389.953 368.853 411.084C339.819 432.218 305.444 444.77 269.632 447.337C233.817 449.905 197.992 442.375 166.242 425.6C152.375 418.273 139.528 409.311 127.951 398.955V447.833C127.951 459.611 118.403 469.159 106.626 469.159C94.8482 469.159 85.3007 459.611 85.3006 447.833ZM383.856 63.9761C383.856 52.1984 393.404 42.6509 405.181 42.6509C416.959 42.6509 426.507 52.1984 426.507 63.9761V170.603C426.507 182.381 416.959 191.928 405.181 191.928H298.555C286.777 191.928 277.229 182.381 277.229 170.603C277.229 158.825 286.777 149.278 298.555 149.278H360.379C350.139 139.239 338.459 130.681 325.658 123.917C300.963 110.87 273.123 105.013 245.267 107.009C217.408 109.006 190.644 118.784 168.065 135.218C145.485 151.654 127.968 174.095 117.506 199.99C113.094 210.91 100.665 216.186 89.745 211.774C78.8249 207.362 73.5488 194.932 77.9608 184.012C91.4122 150.719 113.934 121.866 142.966 100.735C171.999 79.602 206.405 67.0354 242.219 64.4683C278.036 61.9009 313.835 69.4325 345.583 86.2065C359.447 93.5315 372.286 102.491 383.856 112.843V63.9761Z" fill="white"/>
</svg>
