<svg width="512" height="512" viewBox="0 0 512 512" fill="none" xmlns="http://www.w3.org/2000/svg">
<path d="M219.501 112.873C227.829 104.545 241.332 104.545 249.66 112.873C257.988 121.201 257.988 134.703 249.66 143.031L158.112 234.579H405.184C416.961 234.579 426.509 244.127 426.509 255.905C426.509 267.682 416.961 277.23 405.184 277.23H158.111L249.66 368.778C257.988 377.106 257.988 390.609 249.66 398.937C241.332 407.265 227.829 407.265 219.501 398.937L91.5488 270.985C87.5495 266.985 85.3027 261.56 85.3027 255.905C85.3028 250.249 87.5496 244.825 91.5488 240.825L219.501 112.873Z" fill="white"/>
</svg>
