<svg width="512" height="512" viewBox="0 0 512 512" fill="none" xmlns="http://www.w3.org/2000/svg">
<path d="M383.856 447.834V398.945C372.28 409.305 359.434 418.271 345.562 425.601C313.814 442.375 278.015 449.905 242.198 447.338C206.39 444.771 171.984 432.221 142.945 411.085C113.913 389.953 91.3917 361.101 77.9403 327.808C73.5283 316.888 78.8044 304.458 89.7245 300.046C100.644 295.634 113.073 300.91 117.485 311.83C127.947 337.725 145.464 360.166 168.045 376.602C190.618 393.032 217.382 402.798 245.247 404.796C273.103 406.793 300.943 400.937 325.638 387.89C338.438 381.126 350.118 372.569 360.357 362.532H298.555C286.777 362.532 277.229 352.985 277.229 341.207C277.229 329.429 286.777 319.882 298.555 319.882H405.181C416.959 319.882 426.507 329.429 426.507 341.207V447.834C426.507 459.612 416.959 469.159 405.181 469.159C393.404 469.159 383.856 459.612 383.856 447.834ZM85.3006 63.9766C85.3006 52.199 94.8483 42.6515 106.626 42.6514C118.404 42.6514 127.951 52.1989 127.951 63.9766V112.854C139.528 102.496 152.375 93.5339 166.242 86.207C197.992 69.4318 233.817 61.9015 269.633 64.4688C305.452 67.0363 339.825 79.6054 368.854 100.735C397.886 121.867 420.408 150.719 433.859 184.013C438.271 194.933 432.995 207.362 422.075 211.774C411.155 216.186 398.725 210.91 394.313 199.99C383.851 174.095 366.335 151.654 343.755 135.219C321.172 118.781 294.437 109.006 266.583 107.01C238.725 105.013 210.86 110.871 186.167 123.918C173.365 130.682 161.68 139.24 151.436 149.278H213.253C225.03 149.278 234.579 158.826 234.579 170.604C234.579 182.381 225.03 191.929 213.253 191.929H106.626C94.8483 191.929 85.3006 182.381 85.3006 170.604V63.9766Z" fill="white"/>
</svg>
