<svg width="512" height="512" viewBox="0 0 512 512" fill="none" xmlns="http://www.w3.org/2000/svg">
<path d="M426.51 255.905C426.51 161.683 350.128 85.3013 255.906 85.3013C161.685 85.3013 85.3027 161.683 85.3027 255.905C85.3028 350.126 161.685 426.508 255.906 426.508C350.128 426.508 426.51 350.126 426.51 255.905ZM170.604 277.23V191.928C170.605 180.151 180.152 170.603 191.93 170.603H277.231C289.009 170.603 298.557 180.151 298.557 191.928C298.557 203.706 289.009 213.253 277.231 213.253H243.414L334.962 304.801C343.29 313.129 343.29 326.632 334.962 334.96C326.634 343.289 313.131 343.289 304.803 334.96L213.255 243.413V277.23C213.255 289.008 203.707 298.555 191.93 298.555C180.152 298.555 170.604 289.008 170.604 277.23ZM469.16 255.905C469.16 373.682 373.683 469.159 255.906 469.159C138.129 469.159 42.6524 373.682 42.6523 255.905C42.6523 138.128 138.129 42.6509 255.906 42.6509C373.683 42.6509 469.16 138.128 469.16 255.905Z" fill="white"/>
</svg>
