<svg width="512" height="512" viewBox="0 0 512 512" fill="none" xmlns="http://www.w3.org/2000/svg">
<path d="M426.508 255.905C426.508 161.683 350.126 85.3013 255.905 85.3013C161.683 85.3013 85.3013 161.683 85.3013 255.905C85.3013 350.126 161.683 426.508 255.905 426.508C350.126 426.508 426.508 350.126 426.508 255.905ZM234.58 170.603C234.58 158.825 244.127 149.278 255.905 149.278C267.682 149.278 277.23 158.825 277.23 170.603V289.722L304.801 262.151C313.129 253.823 326.632 253.823 334.96 262.151C343.288 270.479 343.288 283.981 334.96 292.309L270.984 356.286C262.656 364.614 249.154 364.614 240.826 356.286L176.849 292.309C168.521 283.981 168.521 270.479 176.849 262.151C185.177 253.823 198.68 253.823 207.008 262.151L234.58 289.722V170.603ZM469.159 255.905C469.159 373.682 373.682 469.159 255.905 469.159C138.128 469.159 42.6509 373.682 42.6509 255.905C42.6509 138.128 138.128 42.6509 255.905 42.6509C373.682 42.651 469.159 138.128 469.159 255.905Z" fill="white"/>
</svg>
