<svg width="512" height="512" viewBox="0 0 512 512" fill="none" xmlns="http://www.w3.org/2000/svg">
<path d="M426.509 213.254C426.509 166.144 388.318 127.953 341.207 127.953H234.581C222.803 127.953 213.254 118.405 213.254 106.627C213.254 94.8497 222.803 85.3022 234.581 85.3022H341.207C411.874 85.3024 469.16 142.588 469.16 213.254C469.16 283.92 411.873 341.206 341.207 341.207H115.46L164.358 390.104C172.686 398.432 172.686 411.934 164.358 420.262C156.03 428.59 142.528 428.59 134.2 420.262L48.8979 334.96C40.5699 326.632 40.5698 313.13 48.8979 304.802L134.2 219.5C142.528 211.173 156.03 211.173 164.358 219.5C172.686 227.829 172.686 241.332 164.358 249.66L115.46 298.556H341.207C388.318 298.556 426.509 260.365 426.509 213.254Z" fill="white"/>
</svg>
