<svg width="512" height="512" viewBox="0 0 512 512" fill="none" xmlns="http://www.w3.org/2000/svg">
<path d="M426.509 255.905C426.509 161.683 350.127 85.3016 255.905 85.3015C161.684 85.3015 85.3018 161.683 85.3018 255.905C85.3018 350.127 161.684 426.509 255.905 426.509C350.127 426.508 426.509 350.127 426.509 255.905ZM469.159 255.905C469.159 373.682 373.682 469.159 255.905 469.159C138.128 469.159 42.6514 373.682 42.6514 255.905C42.6514 138.128 138.128 42.6511 255.905 42.6511C373.682 42.6512 469.159 138.128 469.159 255.905ZM341.207 277.23C341.207 289.008 331.659 298.555 319.882 298.555C308.104 298.555 298.556 289.008 298.556 277.23V243.414L207.009 334.961C198.681 343.289 185.178 343.289 176.85 334.961C168.522 326.633 168.522 313.13 176.85 304.802L268.397 213.254H234.58C222.802 213.254 213.254 203.706 213.254 191.928C213.254 180.151 222.802 170.603 234.58 170.603H319.882C331.659 170.604 341.207 180.151 341.207 191.928V277.23Z" fill="white"/>
</svg>
