<svg width="512" height="512" viewBox="0 0 512 512" fill="none" xmlns="http://www.w3.org/2000/svg">
<path d="M155.523 134.199C163.852 125.871 177.354 125.871 185.682 134.199C194.01 142.528 194.01 156.03 185.682 164.358L115.459 234.58H447.833C459.611 234.58 469.158 244.128 469.158 255.905C469.158 267.683 459.611 277.231 447.833 277.231H115.459L185.682 347.453C194.01 355.781 194.01 369.283 185.682 377.612C177.354 385.94 163.852 385.94 155.523 377.612L48.8965 270.985C44.8972 266.985 42.6504 261.561 42.6504 255.905C42.6504 250.25 44.8972 244.826 48.8965 240.826L155.523 134.199Z" fill="white"/>
</svg>
