<svg width="512" height="512" viewBox="0 0 512 512" fill="none" xmlns="http://www.w3.org/2000/svg">
<path d="M319.882 217.454C319.882 205.182 319.865 197.256 319.372 191.222C318.899 185.437 318.096 183.292 317.561 182.243C315.526 178.249 312.261 174.981 308.229 172.927C307.174 172.389 305.027 171.587 299.237 171.114C293.197 170.62 285.261 170.603 272.966 170.603H63.9764C52.1987 170.603 42.6512 161.055 42.6512 149.278C42.6512 137.5 52.1987 127.953 63.9764 127.953H272.966C284.557 127.953 294.531 127.935 302.711 128.604C311.141 129.293 319.524 130.815 327.592 134.925C339.611 141.049 349.42 150.823 355.563 162.879C359.673 170.944 361.192 179.327 361.881 187.748C362.549 195.922 362.532 205.885 362.532 217.454V332.373L432.755 262.151C441.083 253.823 454.585 253.823 462.913 262.151C471.241 270.479 471.241 283.982 462.913 292.31L356.286 398.937C347.958 407.265 334.456 407.264 326.128 398.937L219.5 292.31C211.172 283.982 211.172 270.479 219.5 262.151C227.828 253.823 241.331 253.823 249.659 262.151L319.882 332.373V217.454Z" fill="white"/>
</svg>
