<svg width="512" height="512" viewBox="0 0 512 512" fill="none" xmlns="http://www.w3.org/2000/svg">
<path d="M149.277 106.626C149.277 94.8488 158.826 85.3013 170.603 85.3013C182.381 85.3015 191.929 94.8489 191.929 106.626V353.698L219.5 326.126C227.828 317.798 241.331 317.798 249.659 326.126C257.987 334.455 257.987 347.958 249.659 356.286L185.683 420.261C177.354 428.589 163.851 428.589 155.523 420.261L91.5478 356.286C83.2197 347.958 83.2197 334.455 91.5478 326.126C99.8759 317.799 113.378 317.799 121.706 326.126L149.277 353.698V106.626ZM319.881 405.182V158.111L292.31 185.682C283.981 194.01 270.478 194.01 262.15 185.682C253.822 177.354 253.822 163.851 262.15 155.523L326.127 91.5474C334.455 83.2193 347.958 83.2193 356.286 91.5474L420.262 155.523C428.59 163.851 428.59 177.354 420.262 185.682C411.934 194.01 398.432 194.01 390.103 185.682L362.532 158.111V405.182C362.532 416.96 352.984 426.507 341.206 426.507C329.428 426.507 319.881 416.96 319.881 405.182Z" fill="white"/>
</svg>
