<svg width="512" height="512" viewBox="0 0 512 512" fill="none" xmlns="http://www.w3.org/2000/svg">
<path d="M234.579 63.9763C234.579 52.1986 244.127 42.6511 255.904 42.6511C267.682 42.6511 277.229 52.1986 277.229 63.9763V396.35L347.452 326.128C355.78 317.8 369.282 317.8 377.61 326.128C385.938 334.456 385.938 347.958 377.61 356.286L270.983 462.913C266.984 466.912 261.56 469.159 255.904 469.159C250.248 469.159 244.824 466.912 240.825 462.913L134.198 356.286C125.87 347.958 125.87 334.456 134.198 326.128C142.526 317.8 156.028 317.8 164.356 326.128L234.579 396.35V63.9763Z" fill="white"/>
</svg>
