<svg width="512" height="512" viewBox="0 0 512 512" fill="none" xmlns="http://www.w3.org/2000/svg">
<path d="M426.509 255.905C426.509 161.683 350.127 85.3013 255.905 85.3013C161.684 85.3013 85.3018 161.683 85.3018 255.905C85.3018 350.126 161.684 426.508 255.905 426.508C350.127 426.508 426.509 350.126 426.509 255.905ZM262.151 176.849C270.479 168.521 283.982 168.521 292.31 176.849C300.638 185.177 300.638 198.68 292.31 207.008L243.413 255.905L292.31 304.801C300.638 313.129 300.638 326.632 292.31 334.96C283.982 343.288 270.479 343.288 262.151 334.96L198.175 270.984C189.847 262.656 189.847 249.154 198.175 240.826L262.151 176.849ZM469.159 255.905C469.159 373.682 373.682 469.159 255.905 469.159C138.128 469.159 42.6514 373.682 42.6514 255.905C42.6514 138.128 138.128 42.6509 255.905 42.6509C373.682 42.6509 469.159 138.128 469.159 255.905Z" fill="white"/>
</svg>
