<svg width="512" height="512" viewBox="0 0 512 512" fill="none" xmlns="http://www.w3.org/2000/svg">
<path d="M426.508 255.905C426.508 161.683 350.126 85.3013 255.905 85.3013C161.683 85.3013 85.3013 161.683 85.3013 255.905C85.3013 350.126 161.683 426.508 255.905 426.508C350.126 426.508 426.508 350.126 426.508 255.905ZM219.5 176.849C227.828 168.521 241.331 168.521 249.659 176.849L313.635 240.826C321.963 249.154 321.963 262.656 313.635 270.984L249.659 334.96C241.331 343.288 227.828 343.289 219.5 334.96C211.172 326.632 211.172 313.129 219.5 304.801L268.396 255.905L219.5 207.008C211.171 198.68 211.172 185.177 219.5 176.849ZM469.159 255.905C469.159 373.682 373.682 469.159 255.905 469.159C138.128 469.159 42.6509 373.682 42.6509 255.905C42.6509 138.128 138.128 42.6509 255.905 42.6509C373.682 42.651 469.159 138.128 469.159 255.905Z" fill="white"/>
</svg>
