<svg width="512" height="512" viewBox="0 0 512 512" fill="none" xmlns="http://www.w3.org/2000/svg">
<path d="M219.498 155.524C227.826 147.196 241.328 147.196 249.657 155.524C257.985 163.852 257.985 177.354 249.657 185.683L179.436 255.903L249.657 326.124C257.985 334.452 257.985 347.954 249.657 356.282C241.329 364.61 227.826 364.61 219.498 356.282L134.199 270.982C125.87 262.654 125.87 249.152 134.199 240.824L219.498 155.524ZM347.448 155.524C355.776 147.196 369.279 147.196 377.607 155.524C385.935 163.852 385.935 177.355 377.607 185.683L307.386 255.903L377.607 326.124C385.935 334.452 385.935 347.954 377.607 356.282C369.279 364.61 355.776 364.61 347.448 356.282L262.148 270.982C253.82 262.654 253.82 249.152 262.148 240.824L347.448 155.524Z" fill="white"/>
</svg>
