<svg width="512" height="512" viewBox="0 0 512 512" fill="none" xmlns="http://www.w3.org/2000/svg">
<path d="M326.122 262.147C334.45 253.82 347.952 253.82 356.28 262.147C364.608 270.476 364.608 283.979 356.28 292.307L270.98 377.606C262.652 385.934 249.15 385.934 240.822 377.606L155.522 292.307C147.194 283.979 147.194 270.476 155.522 262.147C163.85 253.82 177.353 253.82 185.681 262.147L255.901 332.368L326.122 262.147ZM326.122 134.198C334.45 125.87 347.952 125.87 356.28 134.198C364.608 142.526 364.608 156.028 356.28 164.356L270.98 249.656C262.652 257.984 249.15 257.984 240.822 249.656L155.522 164.356C147.194 156.028 147.194 142.526 155.522 134.198C163.851 125.87 177.353 125.87 185.681 134.198L255.901 204.419L326.122 134.198Z" fill="white"/>
</svg>
