<svg width="512" height="512" viewBox="0 0 512 512" fill="none" xmlns="http://www.w3.org/2000/svg">
<path d="M85.3013 298.555C85.3013 286.777 94.8488 277.23 106.626 277.23C118.404 277.23 127.952 286.777 127.952 298.555V383.857H213.253C225.031 383.857 234.579 393.404 234.579 405.182C234.579 416.96 225.031 426.507 213.253 426.507H106.626C94.8488 426.507 85.3013 416.96 85.3013 405.182V298.555ZM383.857 213.253V127.952H298.555C286.777 127.952 277.23 118.404 277.23 106.626C277.23 94.8488 286.777 85.3013 298.555 85.3013H405.182C416.96 85.3013 426.507 94.8488 426.507 106.626V213.253C426.507 225.031 416.96 234.579 405.182 234.579C393.404 234.579 383.857 225.031 383.857 213.253Z" fill="white"/>
</svg>
