<svg width="512" height="512" viewBox="0 0 512 512" fill="none" xmlns="http://www.w3.org/2000/svg">
<path d="M191.93 405.182V319.88H106.628C94.8503 319.88 85.3028 310.333 85.3027 298.555C85.3027 286.777 94.8502 277.23 106.628 277.23H213.255C225.033 277.23 234.58 286.777 234.58 298.555V405.182C234.58 416.96 225.033 426.507 213.255 426.507C201.477 426.507 191.93 416.96 191.93 405.182ZM277.231 106.626C277.231 94.8488 286.779 85.3013 298.557 85.3013C310.334 85.3013 319.882 94.8488 319.882 106.626V191.928H405.184C416.961 191.928 426.509 201.476 426.509 213.253C426.509 225.031 416.961 234.579 405.184 234.579H298.557C286.779 234.579 277.231 225.031 277.231 213.253V106.626Z" fill="white"/>
</svg>
