<svg width="512" height="512" viewBox="0 0 512 512" fill="none" xmlns="http://www.w3.org/2000/svg">
<path d="M326.124 155.524C334.452 147.196 347.955 147.196 356.283 155.524C364.61 163.852 364.61 177.354 356.283 185.682L286.061 255.902L356.282 326.122C364.61 334.45 364.61 347.953 356.282 356.281C347.954 364.61 334.451 364.61 326.123 356.281L255.902 286.061L185.682 356.282C177.354 364.61 163.852 364.61 155.524 356.282C147.196 347.954 147.196 334.451 155.524 326.123L225.745 255.903L155.524 185.682C147.196 177.354 147.196 163.852 155.524 155.524C163.852 147.196 177.354 147.196 185.682 155.524L255.903 225.744L326.124 155.524Z" fill="white"/>
</svg>
