<svg width="512" height="512" viewBox="0 0 512 512" fill="none" xmlns="http://www.w3.org/2000/svg">
<path d="M368.779 112.873C377.107 104.545 390.61 104.545 398.938 112.873C407.266 121.201 407.266 134.703 398.938 143.031L286.064 255.905L398.936 368.778C407.264 377.106 407.264 390.608 398.936 398.936C390.608 407.264 377.106 407.264 368.778 398.936L255.905 286.064L143.032 398.938C134.704 407.265 121.202 407.265 112.874 398.938C104.545 390.61 104.545 377.107 112.874 368.779L225.746 255.905L112.874 143.031C104.545 134.703 104.545 121.201 112.874 112.873C121.202 104.545 134.704 104.545 143.032 112.873L255.905 225.745L368.779 112.873Z" fill="white"/>
</svg>
