<svg width="512" height="512" viewBox="0 0 512 512" fill="none" xmlns="http://www.w3.org/2000/svg">
<path d="M432.754 48.896C441.082 40.5679 454.584 40.5679 462.912 48.896C471.24 57.224 471.24 70.7261 462.912 79.0542L286.062 255.904L462.91 432.751C471.238 441.08 471.238 454.583 462.91 462.911C454.582 471.239 441.079 471.239 432.751 462.911L255.903 286.063L79.0537 462.913C70.7256 471.241 57.2236 471.241 48.8955 462.913C40.5674 454.584 40.5674 441.082 48.8955 432.754L225.744 255.904L48.8955 79.0542C40.5674 70.7261 40.5674 57.2241 48.8955 48.896C57.2236 40.5679 70.7256 40.5679 79.0537 48.896L255.903 225.745L432.754 48.896Z" fill="white"/>
</svg>
