<svg width="512" height="512" viewBox="0 0 512 512" fill="none" xmlns="http://www.w3.org/2000/svg">
<path d="M405.183 341.206C416.96 341.206 426.508 350.754 426.508 362.531C426.508 374.309 416.96 383.857 405.183 383.857H106.627C94.8493 383.857 85.3018 374.309 85.3018 362.531C85.3018 350.754 94.8493 341.206 106.627 341.206H405.183ZM405.183 234.579C416.96 234.579 426.508 244.127 426.508 255.905C426.508 267.682 416.96 277.23 405.183 277.23H106.627C94.8493 277.23 85.3018 267.682 85.3018 255.905C85.3018 244.127 94.8493 234.579 106.627 234.579H405.183ZM405.183 127.952C416.96 127.952 426.508 137.5 426.508 149.278C426.508 161.055 416.96 170.603 405.183 170.603H106.627C94.8493 170.603 85.3018 161.055 85.3018 149.278C85.3018 137.5 94.8493 127.952 106.627 127.952H405.183Z" fill="white"/>
</svg>
