<svg width="512" height="512" viewBox="0 0 512 512" fill="none" xmlns="http://www.w3.org/2000/svg">
<path d="M405.183 341.206C416.961 341.206 426.508 350.754 426.508 362.532C426.508 374.309 416.961 383.857 405.183 383.857H234.58C222.802 383.857 213.254 374.309 213.254 362.532C213.254 350.754 222.802 341.207 234.58 341.206H405.183ZM405.183 234.579C416.961 234.579 426.508 244.127 426.508 255.905C426.508 267.682 416.961 277.23 405.183 277.23H106.627C94.8497 277.23 85.3022 267.682 85.3022 255.905C85.3023 244.127 94.8498 234.579 106.627 234.579H405.183ZM405.183 127.953C416.961 127.953 426.508 137.5 426.508 149.278C426.508 161.055 416.961 170.603 405.183 170.603H234.58C222.802 170.603 213.254 161.055 213.254 149.278C213.254 137.5 222.802 127.953 234.58 127.953H405.183Z" fill="white"/>
</svg>
