<svg width="512" height="512" viewBox="0 0 512 512" fill="none" xmlns="http://www.w3.org/2000/svg">
<path d="M405.184 341.206C416.961 341.206 426.509 350.754 426.509 362.532C426.509 374.309 416.961 383.857 405.184 383.857H106.628C94.8502 383.857 85.3027 374.309 85.3027 362.532C85.3028 350.754 94.8503 341.206 106.628 341.206H405.184ZM405.184 234.58C416.961 234.58 426.509 244.127 426.509 255.905C426.509 267.682 416.961 277.23 405.184 277.23H106.628C94.8502 277.23 85.3027 267.682 85.3027 255.905C85.3028 244.127 94.8503 234.58 106.628 234.58H405.184ZM277.231 127.953C289.009 127.953 298.557 137.5 298.557 149.278C298.557 161.055 289.009 170.603 277.231 170.603H106.628C94.8502 170.603 85.3027 161.055 85.3027 149.278C85.3027 137.5 94.8502 127.953 106.628 127.953H277.231Z" fill="white"/>
</svg>
