<svg width="512" height="512" viewBox="0 0 512 512" fill="none" xmlns="http://www.w3.org/2000/svg">
<path d="M191.929 277.227C215.484 277.228 234.579 296.323 234.579 319.878C234.579 343.433 215.484 362.528 191.929 362.528C168.374 362.528 149.278 343.433 149.278 319.878C149.278 296.323 168.374 277.227 191.929 277.227ZM319.878 277.227C343.433 277.227 362.528 296.323 362.528 319.878C362.528 343.433 343.433 362.528 319.878 362.528C296.323 362.528 277.228 343.433 277.228 319.878C277.228 296.323 296.323 277.228 319.878 277.227ZM191.929 149.278C215.484 149.278 234.579 168.374 234.579 191.929C234.579 215.484 215.484 234.579 191.929 234.579C168.374 234.579 149.278 215.484 149.278 191.929C149.278 168.373 168.374 149.278 191.929 149.278ZM319.878 149.278C343.433 149.278 362.528 168.373 362.528 191.929C362.528 215.484 343.433 234.579 319.878 234.579C296.323 234.579 277.228 215.484 277.228 191.929C277.228 168.374 296.323 149.278 319.878 149.278Z" fill="white"/>
</svg>
