<svg width="512" height="512" viewBox="0 0 512 512" fill="none" xmlns="http://www.w3.org/2000/svg">
<path d="M255.904 341.206C279.46 341.206 298.556 360.302 298.556 383.858C298.556 407.413 279.46 426.508 255.904 426.508C232.349 426.508 213.254 407.413 213.254 383.858C213.254 360.302 232.349 341.206 255.904 341.206ZM255.904 213.254C279.46 213.254 298.555 232.349 298.556 255.905C298.556 279.46 279.46 298.556 255.904 298.556C232.349 298.556 213.254 279.46 213.254 255.905C213.254 232.35 232.349 213.254 255.904 213.254ZM255.904 85.3021C279.46 85.3021 298.556 104.397 298.556 127.952C298.556 151.508 279.46 170.604 255.904 170.604C232.349 170.604 213.254 151.508 213.254 127.952C213.254 104.397 232.349 85.3022 255.904 85.3021Z" fill="white"/>
</svg>
