<svg width="512" height="512" viewBox="0 0 512 512" fill="none" xmlns="http://www.w3.org/2000/svg">
<path d="M139.984 158.795C192.815 105.963 285.76 79.2964 400.684 86.4482L403.402 86.623L403.9 86.6621C414.325 87.5997 422.562 95.9893 423.262 106.482C431.006 222.659 404.337 316.657 351.09 369.904C324.134 396.86 290.623 412.969 252.823 415.452C219.793 417.622 184.806 409.317 149.291 390.747L121.704 418.324C113.374 426.65 99.8723 426.648 91.5458 418.318C83.2193 409.989 83.2221 396.487 91.5517 388.16L119.134 360.587C100.568 325.074 92.2659 290.089 94.4365 257.061C96.9206 219.262 113.029 185.751 139.984 158.795ZM381.648 128.235C281.431 124.939 208.753 150.344 170.144 188.954C149.977 209.121 138.754 233.1 136.995 259.858C135.648 280.358 139.806 303.472 151.043 328.679L212.182 267.529C220.509 259.2 234.012 259.199 242.341 267.526C250.67 275.854 250.67 289.357 242.343 297.686L181.198 358.839C206.408 370.08 229.525 374.239 250.027 372.893C276.786 371.135 300.765 359.912 320.932 339.745C359.541 301.135 384.944 228.455 381.648 128.235Z" fill="white"/>
</svg>
