<svg width="512" height="512" viewBox="0 0 512 512" fill="none" xmlns="http://www.w3.org/2000/svg">
<path d="M170.602 127.953C170.602 121.08 170.928 114.281 171.565 107.569C120.03 136.934 85.2999 192.384 85.2998 255.908C85.2998 350.128 161.681 426.505 255.903 426.505C319.43 426.505 374.879 391.778 404.243 340.244C397.529 340.88 390.728 341.206 383.855 341.206C266.079 341.206 170.602 245.729 170.602 127.953ZM213.252 127.953C213.252 222.174 289.634 298.556 383.855 298.556C401.133 298.556 417.768 296.002 433.423 291.257C440.951 288.975 449.125 291.024 454.688 296.586C460.25 302.149 462.299 310.322 460.018 317.851C433.482 405.401 352.165 469.156 255.903 469.156C138.127 469.156 42.6494 373.685 42.6494 255.908C42.6496 159.644 106.416 78.3296 193.965 51.7943C201.493 49.5125 209.667 51.5607 215.229 57.1234C220.792 62.6861 222.84 70.8594 220.559 78.3881C215.812 94.0487 213.252 110.681 213.252 127.953Z" fill="white"/>
</svg>
