<svg width="512" height="512" viewBox="0 0 512 512" fill="none" xmlns="http://www.w3.org/2000/svg">
<path d="M341.207 127.953C341.207 104.398 322.111 85.3018 298.555 85.3018C275 85.3019 255.905 104.398 255.905 127.953C255.905 138.021 252.434 148.061 246.174 155.901C239.782 163.905 229.526 170.604 216.481 170.604H170.603V216.481C170.603 229.526 163.905 239.783 155.901 246.174C148.061 252.434 138.021 255.905 127.953 255.905C104.398 255.905 85.3018 275 85.3016 298.556C85.3016 322.111 104.398 341.207 127.953 341.207C138.021 341.207 148.06 344.677 155.9 350.938C163.904 357.329 170.603 367.585 170.603 380.63V426.509H426.508L426.509 426.508V383.857C379.398 383.857 341.207 345.666 341.207 298.556C341.207 251.813 378.803 213.852 425.406 213.262L426.509 213.255V170.604L426.508 170.604H380.63C367.585 170.604 357.328 163.904 350.937 155.9C344.677 148.06 341.207 138.021 341.207 127.953ZM426.508 127.953C450.061 127.953 469.16 147.046 469.16 170.604L469.159 216.482C469.159 229.527 462.46 239.783 454.457 246.174C446.617 252.434 436.577 255.905 426.509 255.905C402.953 255.905 383.857 275 383.857 298.556C383.857 322.111 402.953 341.207 426.509 341.207C436.576 341.207 446.616 344.677 454.456 350.938C462.46 357.329 469.159 367.585 469.159 380.63V426.508C469.159 450.061 450.065 469.16 426.509 469.16L170.603 469.159C147.048 469.159 127.953 450.064 127.953 426.509V383.857C80.8422 383.857 42.6512 345.666 42.6512 298.556C42.6514 251.813 80.2477 213.852 126.85 213.262L127.953 213.255V170.604C127.953 147.048 147.048 127.953 170.603 127.953H213.255C213.255 80.8425 251.445 42.6515 298.555 42.6514C345.666 42.6514 383.857 80.8423 383.857 127.953H426.508Z" fill="white"/>
</svg>
