<svg width="512" height="512" viewBox="0 0 512 512" fill="none" xmlns="http://www.w3.org/2000/svg">
<path d="M298.556 362.531V319.881C298.556 296.326 279.461 277.23 255.905 277.229C232.35 277.229 213.254 296.325 213.254 319.881V362.531C213.254 374.309 203.706 383.857 191.929 383.857C180.151 383.857 170.604 374.309 170.604 362.531V319.881C170.604 272.77 208.794 234.579 255.905 234.579C303.016 234.579 341.207 272.77 341.207 319.881V362.531C341.207 374.309 331.659 383.857 319.882 383.857C308.104 383.857 298.556 374.309 298.556 362.531ZM362.532 362.531V319.881C362.532 260.992 314.794 213.254 255.905 213.254C197.017 213.254 149.278 260.992 149.278 319.881V362.531C149.278 374.309 139.731 383.857 127.953 383.857C116.175 383.857 106.627 374.309 106.627 362.531V319.881C106.627 237.437 173.461 170.603 255.905 170.603C338.349 170.603 405.183 237.437 405.183 319.881V362.531C405.183 374.309 395.635 383.857 383.857 383.857C372.08 383.857 362.532 374.309 362.532 362.531ZM426.509 362.531V319.881C426.509 225.659 350.127 149.277 255.905 149.277C161.684 149.277 85.3018 225.659 85.3018 319.881V362.531C85.3018 374.309 75.7543 383.857 63.9766 383.857C52.1989 383.857 42.6514 374.309 42.6514 362.531V319.881C42.6514 202.104 138.128 106.627 255.905 106.627C373.682 106.627 469.159 202.104 469.159 319.881V362.531C469.159 374.309 459.612 383.857 447.834 383.857C436.056 383.857 426.509 374.309 426.509 362.531Z" fill="white"/>
</svg>
