<svg width="512" height="512" viewBox="0 0 512 512" fill="none" xmlns="http://www.w3.org/2000/svg">
<path d="M234.579 469.158V426.507C234.579 414.73 244.126 405.182 255.904 405.182C267.682 405.182 277.229 414.73 277.229 426.507V469.158C277.229 480.935 267.682 490.483 255.904 490.483C244.126 490.483 234.579 480.935 234.579 469.158ZM121.716 362.977C130.044 354.649 143.547 354.649 151.875 362.977C160.203 371.305 160.202 384.807 151.875 393.135L121.716 423.294C113.388 431.623 99.8852 431.623 91.5571 423.294C83.2291 414.966 83.2293 401.464 91.5571 393.136L121.716 362.977ZM362.977 362.977C371.305 354.649 384.807 354.649 393.135 362.977L423.294 393.136C431.622 401.464 431.622 414.966 423.294 423.294C414.966 431.622 401.464 431.622 393.136 423.294L362.977 393.135C354.649 384.807 354.649 371.305 362.977 362.977ZM341.206 255.904C341.206 208.793 303.015 170.602 255.904 170.602C208.793 170.602 170.602 208.793 170.602 255.904C170.602 303.015 208.793 341.206 255.904 341.206C303.015 341.206 341.206 303.015 341.206 255.904ZM85.3003 234.579C97.078 234.579 106.626 244.126 106.626 255.904C106.626 267.682 97.078 277.229 85.3003 277.229H42.6499C30.8722 277.229 21.3247 267.682 21.3247 255.904C21.3248 244.126 30.8722 234.579 42.6499 234.579H85.3003ZM469.158 234.579C480.935 234.579 490.483 244.126 490.483 255.904C490.483 267.682 480.935 277.229 469.158 277.229H426.507C414.73 277.229 405.182 267.682 405.182 255.904C405.182 244.126 414.73 234.579 426.507 234.579H469.158ZM91.5464 91.5464C99.8744 83.2183 113.377 83.2184 121.706 91.5464L151.864 121.706C160.192 130.034 160.192 143.536 151.864 151.864C143.536 160.192 130.034 160.192 121.706 151.864L91.5464 121.706C83.2184 113.377 83.2183 99.8744 91.5464 91.5464ZM393.146 91.5464C401.474 83.2184 414.977 83.2183 423.305 91.5464C431.633 99.8744 431.633 113.377 423.305 121.706L393.146 151.864C384.818 160.192 371.316 160.192 362.988 151.864C354.66 143.536 354.66 130.034 362.988 121.706L393.146 91.5464ZM234.579 85.3003V42.6499C234.579 30.8722 244.126 21.3248 255.904 21.3247C267.682 21.3247 277.229 30.8722 277.229 42.6499V85.3003C277.229 97.078 267.682 106.626 255.904 106.626C244.126 106.626 234.579 97.078 234.579 85.3003ZM383.856 255.904C383.856 326.57 326.57 383.856 255.904 383.856C185.238 383.856 127.952 326.57 127.952 255.904C127.952 185.238 185.238 127.952 255.904 127.952C326.57 127.952 383.856 185.238 383.856 255.904Z" fill="white"/>
</svg>
