<svg width="512" height="512" viewBox="0 0 512 512" fill="none" xmlns="http://www.w3.org/2000/svg">
<path d="M383.858 291.993C383.858 229.229 350.239 171.69 314.159 128.375C296.345 106.987 278.482 89.7336 265.076 77.8374C261.703 74.8446 258.622 72.1991 255.905 69.9204C253.189 72.199 250.108 74.8448 246.735 77.8374C233.329 89.7336 215.467 106.987 197.652 128.375C161.572 171.69 127.953 229.229 127.953 291.993C127.953 327.957 141.647 362.278 165.75 387.44C189.819 412.567 222.27 426.495 255.907 426.495C289.541 426.495 321.989 412.561 346.061 387.431C370.164 362.268 383.858 327.956 383.858 291.993ZM319.885 285.435C319.885 273.657 329.433 264.109 341.211 264.109C352.988 264.109 362.536 273.658 362.536 285.435C362.536 317.023 350.306 347.422 328.372 369.918C315.914 382.696 300.894 392.338 284.501 398.283C273.429 402.298 261.199 396.577 257.184 385.505C253.168 374.433 258.889 362.202 269.961 358.187C280.304 354.436 289.857 348.325 297.834 340.144C311.893 325.724 319.885 306.055 319.885 285.435ZM426.509 291.993C426.509 338.692 408.746 383.647 376.86 416.934C344.942 450.255 301.455 469.146 255.907 469.146C210.363 469.146 166.871 450.267 134.95 416.943C103.063 383.654 85.3027 338.69 85.3027 291.993C85.3029 214.502 126.322 147.369 164.881 101.078C184.386 77.6611 203.843 58.8758 218.427 45.9351C225.732 39.4525 231.852 34.4045 236.191 30.9419C238.362 29.21 240.09 27.8719 241.303 26.9478C241.909 26.4858 242.387 26.1269 242.727 25.8736C242.896 25.7469 243.032 25.6465 243.132 25.5728L243.296 25.4517C243.302 25.4475 243.309 25.443 243.312 25.441C243.318 25.4364 243.323 25.4326 255.905 42.6499L243.323 25.4322C250.818 19.9556 260.994 19.9556 268.488 25.4322L255.905 42.6499C268.488 25.432 268.494 25.4364 268.5 25.441C268.503 25.443 268.51 25.4475 268.516 25.4517L268.68 25.5728C268.779 25.6465 268.915 25.7469 269.085 25.8736C269.425 26.1269 269.902 26.4859 270.508 26.9478C271.72 27.8719 273.449 29.2098 275.62 30.9419C279.96 34.4045 286.079 39.4525 293.385 45.9351C307.968 58.8758 327.426 77.6611 346.931 101.078C385.489 147.369 426.509 214.502 426.509 291.993Z" fill="white"/>
</svg>
