<svg width="512" height="512" viewBox="0 0 512 512" fill="none" xmlns="http://www.w3.org/2000/svg">
<path d="M426.509 204.591C426.509 193.175 426.364 190.906 425.91 189.015C425.383 186.817 424.525 184.744 423.367 182.856C422.355 181.204 420.868 179.523 412.777 171.432L340.393 99.0489C332.303 90.9591 330.611 89.4604 328.961 88.4493C327.041 87.2727 324.96 86.4108 322.798 85.8917C320.915 85.4397 318.649 85.3019 307.199 85.3019H204.591C193.145 85.3019 190.898 85.4395 189.015 85.8917C186.858 86.4095 184.781 87.2697 182.856 88.4493C181.241 89.4386 179.591 90.8951 171.638 98.8487C171.559 98.9273 171.48 99.0058 171.401 99.0831L171.312 99.1681L99.1662 171.314L99.0813 171.402C99.0043 171.482 98.9261 171.561 98.8479 171.639C90.8949 179.592 89.4386 181.242 88.4494 182.856C87.2698 184.781 86.4096 186.858 85.8918 189.015C85.4397 190.898 85.302 193.145 85.302 204.591V307.198C85.302 318.649 85.4398 320.915 85.8918 322.798C86.4109 324.96 87.2728 327.041 88.4494 328.961C89.4605 330.611 90.9593 332.303 99.0491 340.393L171.432 412.776C179.524 420.869 181.204 422.355 182.856 423.367C184.745 424.525 186.817 425.383 189.015 425.91C190.906 426.364 193.175 426.509 204.591 426.509H306.617C306.817 426.503 307.019 426.5 307.22 426.5C318.667 426.5 320.915 426.362 322.798 425.91C325.001 425.381 327.077 424.522 328.961 423.367C330.617 422.353 332.314 420.855 340.393 412.776L412.777 340.393C420.855 332.314 422.353 330.617 423.367 328.961C424.522 327.077 425.381 325.001 425.91 322.798C426.363 320.914 426.5 318.666 426.5 307.22C426.5 307.018 426.503 306.817 426.509 306.616V204.591ZM469.159 307.199C469.159 307.398 469.156 307.595 469.151 307.792C469.155 316.969 469.249 324.982 467.383 332.754C465.822 339.254 463.256 345.497 459.734 351.245C455.473 358.198 449.609 363.878 442.935 370.552L370.552 442.935C363.878 449.608 358.198 455.473 351.245 459.733C345.497 463.256 339.254 465.822 332.754 467.383C324.982 469.249 316.969 469.155 307.792 469.15C307.595 469.156 307.398 469.159 307.199 469.159H204.591C195.143 469.159 186.984 469.286 179.058 467.383C172.552 465.821 166.314 463.252 160.572 459.733C153.615 455.47 147.934 449.595 141.274 442.935L68.8899 370.552C62.2369 363.899 56.3457 358.201 52.0832 351.245C48.5831 345.533 45.9897 339.296 44.4192 332.754C42.5143 324.82 42.6516 316.612 42.6516 307.198V204.591C42.6516 195.174 42.5145 186.991 44.4192 179.058C45.991 172.511 48.586 166.278 52.0832 160.571C56.2936 153.701 62.0814 148.085 68.5617 141.608L68.6575 141.51L68.8899 141.274L141.274 68.8898L141.511 68.6564L141.607 68.5626C148.085 62.0816 153.701 56.2936 160.572 52.0831C166.279 48.5859 172.511 45.9908 179.058 44.419C186.991 42.5144 195.174 42.6515 204.591 42.6515H307.199C316.613 42.6515 324.82 42.5142 332.754 44.419C339.296 45.9895 345.533 48.5829 351.245 52.0831C358.201 56.3456 363.899 62.2366 370.552 68.8898L442.935 141.274C449.594 147.932 455.471 153.615 459.734 160.571C463.253 166.315 465.821 172.552 467.383 179.058C469.286 186.984 469.159 195.143 469.159 204.591V307.199Z" fill="white"/>
</svg>
