<svg width="512" height="512" viewBox="0 0 512 512" fill="none" xmlns="http://www.w3.org/2000/svg">
<path d="M405.184 132.153C405.184 119.881 405.167 111.955 404.674 105.921C404.201 100.136 403.399 97.9913 402.864 96.9416C400.831 92.952 397.563 89.6825 393.527 87.6261C392.471 87.0877 390.325 86.2856 384.539 85.8127C378.502 85.3191 370.568 85.3019 358.272 85.3019H153.548C141.253 85.3019 133.311 85.3189 127.267 85.8127C121.47 86.2861 119.321 87.0895 118.268 87.6261C114.255 89.6707 110.997 92.9289 108.952 96.9416C108.416 97.9948 107.612 100.144 107.139 105.941C106.645 111.985 106.628 119.927 106.628 132.222V216.774C106.628 343.779 202.191 401.19 244.951 420.545C247.521 421.708 248.428 422.1 249.244 422.386C249.775 422.572 250.52 422.8 252.217 423.095C252.273 423.1 252.571 423.135 253.157 423.169C253.931 423.214 254.891 423.241 255.917 423.241C256.943 423.241 257.902 423.214 258.676 423.169C259.265 423.135 259.563 423.099 259.617 423.094C261.299 422.802 262.031 422.577 262.545 422.397C263.351 422.114 264.238 421.73 266.806 420.568L266.809 420.566L266.855 420.545C309.615 401.19 405.183 343.78 405.184 216.775V132.153ZM447.835 216.775C447.835 369.91 331.511 438.095 284.442 459.401L284.439 459.402L284.39 459.425C279.215 461.767 274.851 463.754 266.74 465.147L266.741 465.148C263.219 465.752 259.008 465.893 255.917 465.893C252.826 465.893 248.615 465.752 245.093 465.148C236.973 463.754 232.592 461.768 227.363 459.402C180.294 438.096 63.9776 369.909 63.9776 216.774V132.222C63.9776 120.63 63.9605 110.653 64.6289 102.469C65.3176 94.0376 66.8382 85.6486 70.9502 77.5783C77.0838 65.5404 86.8664 55.7578 98.9043 49.6242C106.975 45.5122 115.364 43.9916 123.795 43.3029C131.979 42.6345 141.956 42.6515 153.548 42.6515H358.272C369.863 42.6515 379.836 42.6343 388.015 43.3029C396.445 43.9921 404.824 45.514 412.891 49.6242C424.905 55.746 434.721 65.5174 440.866 77.5783C444.976 85.6433 446.495 94.0259 447.184 102.447C447.852 110.621 447.835 120.584 447.835 132.153V216.775Z" fill="white"/>
</svg>
