<svg width="512" height="512" viewBox="0 0 512 512" fill="none" xmlns="http://www.w3.org/2000/svg">
<path d="M426.508 132.153C426.508 119.881 426.491 111.955 425.998 105.921C425.525 100.135 424.722 97.9912 424.188 96.9416C422.155 92.9521 418.887 89.6825 414.852 87.6261C413.795 87.0877 411.648 86.2857 405.862 85.8127C399.825 85.3191 391.891 85.3019 379.596 85.3019H132.221C119.926 85.3019 111.984 85.3189 105.939 85.8127C100.143 86.2861 97.9938 87.0895 96.9405 87.6261C92.9278 89.6707 89.6696 92.9289 87.625 96.9416C87.0884 97.9948 86.285 100.144 85.8116 105.941C85.3178 111.985 85.3008 119.927 85.3008 132.222V379.597C85.3008 391.892 85.318 399.826 85.8116 405.863C86.2846 411.649 87.0866 413.796 87.625 414.853C89.6814 418.888 92.951 422.156 96.9405 424.189C97.9901 424.723 100.134 425.526 105.92 425.999C111.954 426.492 119.88 426.509 132.151 426.509H379.657C391.929 426.509 399.85 426.492 405.879 425.999C411.657 425.527 413.8 424.725 414.852 424.189C418.864 422.144 422.143 418.865 424.188 414.853C424.724 413.801 425.526 411.658 425.998 405.88C426.491 399.851 426.508 391.93 426.508 379.658V132.153ZM469.158 379.658C469.158 391.226 469.175 401.186 468.507 409.357C467.818 417.777 466.297 426.153 462.189 434.215C456.056 446.253 446.252 456.057 434.214 462.191C426.151 466.299 417.776 467.819 409.355 468.508C401.185 469.176 391.225 469.159 379.657 469.159H132.151C120.583 469.159 110.62 469.176 102.446 468.508C94.0248 467.82 85.6422 466.3 77.5772 462.191C65.5163 456.045 55.7449 446.23 49.6231 434.215C45.513 426.148 43.991 417.769 43.3018 409.339C42.6332 401.161 42.6504 391.188 42.6504 379.597V132.222C42.6504 120.63 42.6334 110.653 43.3018 102.469C43.9905 94.0376 45.5111 85.6486 49.6231 77.5783C55.7567 65.5404 65.5393 55.7578 77.5772 49.6242C85.6475 45.5122 94.0365 43.9916 102.468 43.3029C110.652 42.6345 120.629 42.6515 132.221 42.6515H379.596C391.187 42.6515 401.159 42.6343 409.338 43.3029C417.768 43.9921 426.147 45.5141 434.214 49.6242C446.229 55.746 456.044 65.5174 462.189 77.5783C466.299 85.6433 467.819 94.0259 468.507 102.447C469.175 110.621 469.158 120.584 469.158 132.153V379.658Z" fill="white"/>
</svg>
