<svg width="512" height="512" viewBox="0 0 512 512" fill="none" xmlns="http://www.w3.org/2000/svg">
<path d="M229.877 69.5077C246.441 62.133 265.364 62.133 281.928 69.5077C293.622 74.7147 301.954 84.2085 309.022 94.2089C316.153 104.3 323.99 117.915 333.478 134.348L436.899 313.48C446.388 329.915 454.26 343.513 459.434 354.739C464.56 365.863 468.615 377.829 467.277 390.559C465.381 408.605 455.905 424.97 441.248 435.619C430.893 443.143 418.509 445.609 406.321 446.727C394.024 447.856 378.326 447.835 359.365 447.835H152.446C133.486 447.835 117.787 447.856 105.489 446.727C93.3017 445.609 80.9164 443.143 70.5606 435.619C55.9011 424.968 46.4307 408.602 44.5342 390.559C43.1961 377.828 47.253 365.862 52.3799 354.738C57.5542 343.512 65.4266 329.915 74.9151 313.48L178.355 134.317C187.833 117.9 195.664 104.292 202.791 94.205C209.853 84.2098 218.183 74.7145 229.877 69.5077ZM264.58 108.471C259.059 106.012 252.746 106.012 247.225 108.471C246.264 108.898 243.419 110.616 237.625 118.816C231.896 126.925 225.19 138.497 215.291 155.642L111.852 334.806C101.946 351.963 95.2735 363.568 91.1143 372.592C86.9079 381.718 86.8417 385.049 86.9522 386.1C87.5829 392.1 90.7314 397.555 95.6299 401.114C96.4819 401.733 99.3918 403.339 109.387 404.256C119.272 405.163 132.645 405.184 152.446 405.184H359.365C379.166 405.184 392.538 405.163 402.423 404.256C412.416 403.339 415.326 401.733 416.179 401.114C421.08 397.553 424.229 392.097 424.859 386.1C424.97 385.048 424.904 381.716 420.698 372.591C416.54 363.568 409.868 351.962 399.963 334.806L296.54 155.673C286.634 138.514 279.923 126.936 274.19 118.824C268.394 110.622 265.545 108.9 264.58 108.471Z" fill="white"/>
</svg>
