<svg width="512" height="512" viewBox="0 0 512 512" fill="none" xmlns="http://www.w3.org/2000/svg">
<path d="M426.509 255.905C426.509 161.684 350.127 85.3019 255.905 85.3019C161.684 85.3019 85.3018 161.684 85.3018 255.905C85.3018 350.127 161.684 426.509 255.905 426.509C350.127 426.509 426.509 350.127 426.509 255.905ZM304.802 198.175C313.13 189.847 326.633 189.847 334.961 198.175C343.289 206.503 343.289 220.006 334.961 228.334L249.659 313.636C241.331 321.964 227.828 321.964 219.5 313.636L176.85 270.984C168.522 262.656 168.522 249.154 176.85 240.826C185.178 232.498 198.681 232.498 207.009 240.826L234.579 268.397L304.802 198.175ZM469.159 255.905C469.159 373.682 373.682 469.159 255.905 469.159C138.128 469.159 42.6514 373.682 42.6514 255.905C42.6514 138.128 138.128 42.6515 255.905 42.6515C373.682 42.6515 469.159 138.128 469.159 255.905Z" fill="white"/>
</svg>
