<svg width="512" height="512" viewBox="0 0 512 512" fill="none" xmlns="http://www.w3.org/2000/svg">
<path d="M426.508 255.905C426.508 161.683 350.126 85.3013 255.905 85.3013C161.683 85.3013 85.3013 161.683 85.3013 255.905C85.3013 350.126 161.683 426.508 255.905 426.508C350.126 426.508 426.508 350.126 426.508 255.905ZM256.967 341.207C268.745 341.207 278.292 350.754 278.292 362.532V364.665C278.292 376.426 268.77 385.967 257.008 385.99L254.884 385.994C249.221 386.005 243.786 383.763 239.778 379.762C235.77 375.762 233.517 370.331 233.517 364.668V362.532C233.517 350.754 243.065 341.207 254.842 341.207H256.967ZM234.58 298.56V277.225C234.58 265.447 244.127 255.9 255.905 255.9C263.771 255.9 271.484 253.724 278.191 249.614C284.895 245.505 290.327 239.628 293.899 232.616C297.47 225.605 299.035 217.741 298.417 209.901C297.798 202.051 295.026 194.538 290.406 188.181C285.778 181.815 279.483 176.851 272.218 173.844C264.951 170.836 257 169.897 249.229 171.13C241.456 172.364 234.169 175.725 228.192 180.833C222.209 185.945 217.764 192.602 215.336 200.082C211.701 211.284 199.672 217.418 188.469 213.783C177.267 210.147 171.133 198.118 174.768 186.916C179.625 171.948 188.524 158.629 200.482 148.41C212.445 138.186 227.012 131.471 242.546 129.006C258.083 126.541 273.994 128.419 288.532 134.437C303.072 140.456 315.66 150.382 324.907 163.105C334.161 175.838 339.699 190.872 340.935 206.548C342.172 222.234 339.043 237.958 331.903 251.975C324.763 265.991 313.895 277.755 300.478 285.978C293.227 290.422 285.387 293.732 277.23 295.838V298.56C277.23 310.338 267.682 319.886 255.905 319.886C244.127 319.886 234.58 310.338 234.58 298.56ZM469.159 255.905C469.159 373.682 373.682 469.159 255.905 469.159C138.128 469.159 42.6509 373.682 42.6509 255.905C42.6509 138.128 138.128 42.6509 255.905 42.6509C373.682 42.6509 469.159 138.128 469.159 255.905Z" fill="white"/>
</svg>
