<svg width="512" height="512" viewBox="0 0 512 512" fill="none" xmlns="http://www.w3.org/2000/svg">
<path d="M426.508 255.905C426.508 161.683 350.126 85.3016 255.905 85.3015C161.683 85.3015 85.3014 161.683 85.3014 255.905C85.3014 350.127 161.683 426.509 255.905 426.509C350.126 426.508 426.508 350.127 426.508 255.905ZM256.967 308.156C268.745 308.156 278.293 317.705 278.293 329.482V331.614C278.293 337.284 276.034 342.722 272.016 346.723C267.999 350.725 262.553 352.961 256.883 352.939L254.759 352.931C243.015 352.885 233.517 343.351 233.517 331.606V329.482C233.517 317.705 243.065 308.156 254.842 308.156H256.967ZM234.58 265.506V180.204C234.58 168.426 244.127 158.879 255.905 158.879C267.682 158.879 277.23 168.426 277.23 180.204V265.506C277.23 277.283 267.682 286.831 255.905 286.831C244.127 286.831 234.58 277.283 234.58 265.506ZM469.159 255.905C469.159 373.682 373.682 469.159 255.905 469.159C138.128 469.159 42.651 373.682 42.651 255.905C42.651 138.128 138.128 42.6511 255.905 42.6511C373.682 42.6512 469.159 138.128 469.159 255.905Z" fill="white"/>
</svg>
