<svg width="512" height="512" viewBox="0 0 512 512" fill="none" xmlns="http://www.w3.org/2000/svg">
<path d="M256.967 383.857C268.744 383.857 278.293 393.405 278.293 405.183V407.315C278.293 419.076 268.77 428.618 257.009 428.641L254.885 428.645C249.222 428.656 243.787 426.414 239.778 422.413C235.77 418.413 233.518 412.982 233.518 407.319V405.183C233.518 393.405 243.065 383.857 254.843 383.857H256.967ZM239.193 107.943C258.616 104.862 278.525 107.214 296.695 114.735C314.875 122.261 330.594 134.668 342.15 150.568C353.71 166.473 360.653 185.262 362.199 204.872C363.745 224.487 359.824 244.134 350.901 261.649C341.981 279.159 328.401 293.886 311.621 304.17C300.988 310.687 289.343 315.256 277.23 317.729V319.877C277.23 331.655 267.683 341.202 255.905 341.202C244.128 341.202 234.58 331.655 234.58 319.877V298.56C234.58 286.782 244.128 277.233 255.905 277.233C267.705 277.233 279.274 273.97 289.335 267.805C299.383 261.647 307.536 252.816 312.898 242.289C318.259 231.767 320.607 219.977 319.681 208.224C318.754 196.465 314.589 185.192 307.649 175.644C300.706 166.091 291.275 158.653 280.382 154.144C269.479 149.631 257.53 148.219 245.877 150.067C234.222 151.917 223.312 156.949 214.343 164.614C205.37 172.282 198.694 182.279 195.053 193.499C191.417 204.702 179.388 210.836 168.185 207.2C156.983 203.565 150.849 191.536 154.484 180.334C160.556 161.625 171.686 144.966 186.634 132.191C201.585 119.414 219.771 111.025 239.193 107.943Z" fill="white"/>
</svg>
