<svg width="512" height="512" viewBox="0 0 512 512" fill="none" xmlns="http://www.w3.org/2000/svg">
<path d="M426.508 255.904C426.508 161.682 350.126 85.3001 255.904 85.3C161.683 85.3 85.3008 161.682 85.3008 255.904C85.3008 350.125 161.683 426.507 255.904 426.507C350.126 426.507 426.508 350.125 426.508 255.904ZM234.579 341.205V234.578C234.579 222.801 244.127 213.252 255.904 213.252C267.682 213.252 277.229 222.801 277.229 234.578V341.205C277.229 352.983 267.682 362.53 255.904 362.531C244.127 362.531 234.579 352.983 234.579 341.205ZM256.967 149.277C268.744 149.277 278.292 158.824 278.292 170.602V172.735C278.292 184.496 268.769 194.037 257.008 194.06L254.884 194.064C249.221 194.075 243.786 191.833 239.777 187.832C235.769 183.832 233.517 178.401 233.517 172.739V170.602C233.517 158.824 243.064 149.277 254.842 149.277H256.967ZM469.158 255.904C469.158 373.68 373.681 469.157 255.904 469.157C138.127 469.157 42.6504 373.68 42.6504 255.904C42.6504 138.127 138.127 42.6497 255.904 42.6497C373.681 42.6497 469.158 138.127 469.158 255.904Z" fill="white"/>
</svg>
