<svg width="512" height="512" viewBox="0 0 512 512" fill="none" xmlns="http://www.w3.org/2000/svg">
<path d="M426.509 204.601C426.509 193.185 426.364 190.915 425.91 189.024C425.38 186.814 424.518 184.733 423.367 182.855C422.355 181.204 420.868 179.523 412.777 171.431L340.393 99.0486C332.303 90.9587 330.611 89.46 328.961 88.449C327.041 87.2724 324.96 86.4104 322.798 85.8913C320.915 85.4394 318.649 85.3015 307.199 85.3015H204.591C193.145 85.3015 190.898 85.4392 189.015 85.8913C186.858 86.4091 184.781 87.2693 182.856 88.449C181.241 89.4382 179.591 90.8947 171.638 98.8484C171.559 98.9269 171.48 99.0054 171.401 99.0827L171.312 99.1677L99.049 171.431C99.0021 171.478 98.9529 171.524 98.9055 171.57C90.9256 179.551 89.4508 181.221 88.4494 182.855C87.2767 184.769 86.4126 186.855 85.8918 189.024C85.4396 190.908 85.302 193.155 85.302 204.601V307.209C85.302 318.656 85.4397 320.903 85.8918 322.787C86.4109 324.949 87.2727 327.03 88.4494 328.95C89.4605 330.6 90.9589 332.292 99.049 340.383L171.432 412.765C179.524 420.857 181.204 422.344 182.856 423.356C184.798 424.546 186.877 425.407 189.015 425.921C190.891 426.371 193.13 426.509 204.543 426.509H307.246C318.663 426.509 320.922 426.371 322.797 425.921C324.941 425.406 327.025 424.543 328.961 423.356C330.617 422.341 332.315 420.844 340.393 412.765L412.777 340.383C420.855 332.304 422.353 330.606 423.367 328.95C424.522 327.066 425.381 324.99 425.91 322.787C426.364 320.896 426.509 318.625 426.509 307.209V204.601ZM304.802 198.175C313.13 189.846 326.633 189.846 334.961 198.175C343.289 206.503 343.289 220.006 334.961 228.334L249.659 313.635C241.331 321.963 227.828 321.964 219.5 313.635L176.85 270.984C168.522 262.656 168.522 249.154 176.85 240.826C185.178 232.498 198.681 232.498 207.009 240.826L234.579 268.396L304.802 198.175ZM469.159 307.209C469.159 316.656 469.286 324.817 467.383 332.743V332.744C465.823 339.244 463.256 345.487 459.734 351.235C455.473 358.187 449.609 363.867 442.935 370.541L370.552 442.925C363.878 449.598 358.198 455.462 351.245 459.722C345.55 463.212 339.314 465.818 332.754 467.393C324.827 469.296 316.63 469.159 307.246 469.159H204.543C195.156 469.159 186.984 469.296 179.058 467.393C172.492 465.817 166.261 463.209 160.572 459.722C153.615 455.46 147.934 449.585 141.274 442.925L68.8899 370.541C62.237 363.888 56.3457 358.191 52.0832 351.235C48.5831 345.523 45.9897 339.285 44.4192 332.744C42.5144 324.81 42.6516 316.626 42.6516 307.209V204.601C42.6516 195.184 42.5145 187.002 44.4192 179.068C45.988 172.534 48.5792 166.289 52.0832 160.571C56.3381 153.628 62.2073 147.952 68.8244 141.335L68.9543 141.208L141.274 68.8894L141.511 68.656L141.607 68.5622C148.085 62.0812 153.701 56.2932 160.572 52.0827C166.279 48.5855 172.511 45.9905 179.058 44.4187C186.991 42.514 195.174 42.6511 204.591 42.6511H307.199C316.613 42.6511 324.82 42.5138 332.754 44.4187C339.296 45.9892 345.533 48.5825 351.245 52.0827C358.201 56.3453 363.899 62.2363 370.552 68.8894L442.935 141.273C449.386 147.725 455.103 153.258 459.329 159.923L459.734 160.571L460.383 161.655C463.576 167.107 465.922 172.981 467.383 179.068C469.286 186.994 469.159 195.153 469.159 204.601V307.209Z" fill="white"/>
</svg>
