<svg width="512" height="512" viewBox="0 0 512 512" fill="none" xmlns="http://www.w3.org/2000/svg">
<path d="M405.183 132.153C405.183 119.881 405.166 111.955 404.673 105.921C404.201 100.136 403.399 97.9913 402.864 96.9416C400.831 92.952 397.563 89.6825 393.527 87.6261C392.47 87.0877 390.324 86.2856 384.539 85.8127C378.501 85.3191 370.567 85.3019 358.272 85.3019H153.547C141.253 85.3019 133.311 85.3189 127.266 85.8127C121.47 86.2861 119.32 87.0895 118.267 87.6261C114.255 89.6707 110.996 92.9289 108.952 96.9416C108.415 97.9948 107.612 100.144 107.138 105.941C106.645 111.985 106.627 119.927 106.627 132.222V216.774C106.627 343.779 202.191 401.19 244.951 420.545C247.521 421.708 248.427 422.1 249.244 422.386C249.774 422.572 250.52 422.8 252.216 423.095C252.272 423.1 252.57 423.135 253.157 423.169C253.93 423.214 254.89 423.241 255.917 423.241C256.943 423.241 257.902 423.214 258.675 423.169C259.265 423.135 259.563 423.099 259.617 423.094C261.297 422.802 262.028 422.578 262.542 422.398C263.347 422.115 264.233 421.731 266.797 420.57L266.854 420.545C309.615 401.19 405.183 343.78 405.183 216.775V132.153ZM304.802 176.85C313.13 168.522 326.633 168.522 334.961 176.85C343.289 185.178 343.289 198.681 334.961 207.009L249.66 292.31C241.332 300.638 227.829 300.638 219.501 292.31L176.85 249.659C168.522 241.331 168.522 227.828 176.85 219.5C185.178 211.173 198.68 211.173 207.008 219.5L234.58 247.071L304.802 176.85ZM447.835 216.775C447.834 369.91 331.511 438.095 284.442 459.401C284.423 459.409 284.403 459.416 284.384 459.425L284.385 459.426C279.214 461.767 274.85 463.754 266.74 465.147L266.741 465.148C263.219 465.752 259.008 465.893 255.917 465.893C252.825 465.893 248.614 465.752 245.092 465.148C236.972 463.754 232.592 461.768 227.363 459.402C180.293 438.096 63.9771 369.909 63.9771 216.774V132.222C63.9771 120.63 63.96 110.653 64.6285 102.469C65.3171 94.0376 66.8377 85.6486 70.9497 77.5783C77.0834 65.5404 86.866 55.7578 98.9039 49.6242C106.974 45.5122 115.363 43.9916 123.794 43.3029C131.978 42.6345 141.956 42.6515 153.547 42.6515H358.272C369.863 42.6515 379.836 42.6343 388.014 43.3029C396.444 43.9921 404.824 45.514 412.89 49.6242C424.905 55.746 434.72 65.5174 440.866 77.5783C444.975 85.6433 446.495 94.0259 447.183 102.447C447.851 110.621 447.835 120.584 447.835 132.153V216.775Z" fill="white"/>
</svg>
