<svg width="512" height="512" viewBox="0 0 512 512" fill="none" xmlns="http://www.w3.org/2000/svg">
<path d="M426.508 132.152C426.508 119.88 426.491 111.954 425.998 105.92C425.525 100.135 424.722 97.9906 424.188 96.941C422.155 92.9515 418.887 89.6818 414.852 87.6255C413.795 87.0871 411.648 86.2851 405.862 85.8121C399.825 85.3185 391.891 85.3013 379.596 85.3013H132.221C119.926 85.3013 111.984 85.3183 105.939 85.8121C100.143 86.2855 97.9938 87.0889 96.9405 87.6255C92.9278 89.6701 89.6696 92.9283 87.625 96.941C87.0884 97.9942 86.285 100.144 85.8116 105.94C85.3178 111.985 85.3008 119.926 85.3008 132.221V379.596C85.3008 391.891 85.318 399.828 85.8116 405.869C86.2847 411.659 87.0873 413.806 87.625 414.862C89.6757 418.887 92.9399 422.15 96.9405 424.188C97.9901 424.723 100.134 425.526 105.92 425.999C111.954 426.492 119.88 426.508 132.151 426.508H379.657C391.929 426.508 399.85 426.492 405.879 425.999C411.657 425.526 413.8 424.724 414.852 424.188C418.875 422.138 422.149 418.863 424.188 414.862C424.724 413.81 425.526 411.668 425.998 405.89C426.491 399.861 426.508 391.94 426.508 379.668V132.152ZM256.967 341.207C268.744 341.207 278.292 350.754 278.292 362.532V364.665C278.292 376.426 268.769 385.967 257.008 385.99L254.884 385.994C249.221 386.005 243.786 383.763 239.777 379.762C235.769 375.762 233.517 370.331 233.517 364.668V362.532C233.517 350.754 243.064 341.207 254.842 341.207H256.967ZM234.579 298.56V277.225C234.579 265.447 244.127 255.9 255.904 255.9C263.771 255.9 271.484 253.724 278.19 249.614C284.895 245.505 290.326 239.628 293.898 232.616C297.47 225.605 299.034 217.741 298.416 209.901C297.797 202.051 295.026 194.538 290.405 188.181C285.778 181.815 279.482 176.851 272.218 173.844C264.951 170.836 256.999 169.898 249.229 171.13C241.456 172.364 234.168 175.725 228.191 180.833C222.209 185.945 217.763 192.602 215.336 200.082C211.7 211.284 199.671 217.418 188.469 213.783C177.266 210.147 171.132 198.118 174.768 186.916C179.625 171.948 188.524 158.629 200.481 148.41C212.445 138.186 227.011 131.471 242.546 129.006C258.083 126.541 273.993 128.419 288.531 134.437C303.071 140.456 315.659 150.382 324.906 163.105C334.161 175.838 339.699 190.872 340.935 206.548C342.171 222.234 339.043 237.958 331.902 251.975C324.763 265.991 313.894 277.755 300.478 285.978C293.227 290.422 285.387 293.732 277.23 295.838V298.56C277.23 310.338 267.682 319.886 255.904 319.886C244.127 319.886 234.579 310.338 234.579 298.56ZM469.158 379.668C469.158 391.236 469.175 401.196 468.507 409.366C467.818 417.786 466.298 426.163 462.189 434.225C456.05 446.274 446.241 456.062 434.214 462.19C426.151 466.298 417.776 467.819 409.355 468.507C401.185 469.175 391.225 469.159 379.657 469.159H132.151C120.583 469.159 110.62 469.175 102.446 468.507C94.0248 467.819 85.6422 466.299 77.5772 462.19C65.5273 456.05 55.7505 446.251 49.6231 434.225C45.5122 426.157 43.9908 417.774 43.3018 409.343C42.6333 401.163 42.6504 391.188 42.6504 379.596V132.221C42.6504 120.63 42.6334 110.652 43.3018 102.468C43.9905 94.037 45.5111 85.648 49.6231 77.5777C55.7567 65.5398 65.5393 55.7572 77.5772 49.6236C85.6475 45.5116 94.0365 43.9909 102.468 43.3023C110.652 42.6339 120.629 42.6509 132.221 42.6509H379.596C391.187 42.6509 401.159 42.6337 409.338 43.3023C417.768 43.9914 426.147 45.5135 434.214 49.6236C446.229 55.7454 456.044 65.5168 462.189 77.5777C466.299 85.6427 467.819 94.0253 468.507 102.447C469.175 110.62 469.158 120.584 469.158 132.152V379.668Z" fill="white"/>
</svg>
