<svg width="512" height="512" viewBox="0 0 512 512" fill="none" xmlns="http://www.w3.org/2000/svg">
<path d="M229.876 69.5078C246.44 62.1331 265.363 62.1331 281.927 69.5078C293.622 74.7148 301.954 84.2085 309.021 94.2089C316.152 104.3 323.99 117.915 333.477 134.348L436.899 313.48C446.387 329.914 454.259 343.509 459.432 354.732C464.559 365.854 468.615 377.817 467.277 390.548C465.381 408.588 455.91 424.966 441.248 435.619C430.892 443.143 418.508 445.609 406.321 446.728C394.024 447.856 378.325 447.835 359.365 447.835H152.446C133.486 447.835 117.786 447.856 105.489 446.728C93.3012 445.609 80.9159 443.143 70.5601 435.619C55.895 424.964 46.4294 408.584 44.5337 390.548C43.1956 377.816 47.2532 365.852 52.3804 354.731C57.5544 343.509 65.4269 329.914 74.9146 313.48L178.354 134.317C187.833 117.9 195.664 104.292 202.791 94.205C209.852 84.2099 218.182 74.7145 229.876 69.5078ZM264.58 108.471C259.058 106.012 252.745 106.012 247.224 108.471C246.264 108.898 243.418 110.616 237.625 118.816C231.895 126.925 225.19 138.497 215.291 155.643L111.851 334.806C101.945 351.964 95.2722 363.566 91.1128 372.588C86.9066 381.711 86.8413 385.04 86.9517 386.09C87.583 392.096 90.7363 397.559 95.6294 401.114C96.4814 401.733 99.3913 403.339 109.386 404.256C119.272 405.163 132.645 405.184 152.446 405.184H359.365C379.166 405.184 392.538 405.163 402.422 404.256C412.416 403.339 415.326 401.733 416.178 401.114C421.074 397.557 424.228 392.093 424.859 386.09C424.969 385.038 424.904 381.709 420.699 372.587C416.54 363.566 409.868 351.963 399.962 334.806L296.54 155.673C286.633 138.515 279.923 126.936 274.19 118.824C268.394 110.622 265.545 108.901 264.58 108.471ZM256.988 319.883C268.765 319.883 278.314 329.43 278.314 341.208V343.341C278.314 355.102 268.791 364.643 257.03 364.666L254.885 364.67C249.222 364.681 243.787 362.439 239.779 358.438C235.771 354.438 233.518 349.008 233.518 343.345V341.208C233.518 329.43 243.066 319.883 254.843 319.883H256.988ZM234.58 277.231V191.93C234.58 180.152 244.128 170.604 255.906 170.604C267.683 170.605 277.231 180.152 277.231 191.93V277.231C277.231 289.009 267.683 298.556 255.906 298.557C244.128 298.557 234.58 289.009 234.58 277.231Z" fill="white"/>
</svg>
