<svg width="512" height="512" viewBox="0 0 512 512" fill="none" xmlns="http://www.w3.org/2000/svg">
<path d="M256.967 362.531C268.744 362.531 278.292 372.08 278.292 383.857V385.989C278.292 397.751 268.77 407.291 257.009 407.315L254.885 407.319C249.222 407.33 243.787 405.088 239.778 401.088C235.77 397.088 233.518 391.657 233.518 385.994V383.857C233.518 372.08 243.065 362.531 254.843 362.531H256.967ZM234.579 298.556V127.952C234.579 116.175 244.128 106.627 255.905 106.627C267.683 106.627 277.23 116.175 277.23 127.952V298.556C277.23 310.333 267.683 319.881 255.905 319.881C244.128 319.881 234.579 310.333 234.579 298.556Z" fill="white"/>
</svg>
