<svg width="512" height="512" viewBox="0 0 512 512" fill="none" xmlns="http://www.w3.org/2000/svg">
<path d="M215.502 57.5279C238.781 37.6912 273.032 37.6916 296.31 57.5289L322.348 79.7183C325.499 82.4038 329.4 84.0184 333.508 84.3462H333.507L367.606 87.064H367.608C398.088 89.4964 422.309 113.694 424.742 144.189L424.743 144.196L427.454 178.295L427.489 178.678C427.871 182.508 429.383 186.162 431.845 189.169L432.095 189.467L432.096 189.468L454.274 215.498L454.736 216.044C474.11 239.308 473.961 273.196 454.277 296.294L454.276 296.294L432.099 322.327L432.097 322.329C429.41 325.482 427.788 329.398 427.46 333.504V333.508L424.732 367.603L424.733 367.604C422.32 397.836 398.504 421.926 368.336 424.678L367.622 424.739L333.51 427.46C329.382 427.79 325.479 429.408 322.342 432.081L296.312 454.268L296.31 454.27C273.034 474.106 238.78 474.112 215.499 454.273L215.496 454.271L189.467 432.083L189.17 431.835C186.079 429.303 182.288 427.775 178.299 427.457V427.456L144.189 424.739H144.187C113.686 422.305 89.5103 398.084 87.0765 367.613L84.3489 333.51L84.3479 333.506C84.0207 329.405 82.4024 325.495 79.7122 322.338L79.7073 322.334L57.5325 296.295L57.0716 295.749C37.6998 272.488 37.84 238.607 57.5267 215.505L57.5286 215.503L79.7278 189.461C82.3829 186.345 83.9979 182.448 84.3294 178.295L84.3304 178.291L87.0579 144.189C89.4941 113.686 113.745 89.4935 144.214 87.0621L178.288 84.3443L178.674 84.3101C182.653 83.9136 186.416 82.3123 189.46 79.7183H189.461L215.502 57.5279ZM268.646 89.9908C261.309 83.7382 250.503 83.7382 243.165 89.9908L243.164 89.9917L217.123 112.18L217.124 112.181C207.147 120.684 194.743 125.818 181.681 126.86H181.68L147.606 129.577L147.607 129.578C137.98 130.346 130.339 137.993 129.574 147.585V147.59L126.845 181.692C125.805 194.719 120.711 207.126 112.188 217.127L112.186 217.129L89.9876 243.169L89.9886 243.169C83.8374 250.388 83.74 260.953 89.7063 268.285L89.9954 268.631L89.9993 268.636L112.174 294.674L112.96 295.615C120.982 305.411 125.851 317.438 126.864 330.109L129.592 364.211V364.215C130.36 373.84 137.984 381.457 147.579 382.223H147.578L181.689 384.941H181.692C194.348 385.951 206.38 390.803 216.189 398.834L217.131 399.621L217.133 399.623L243.163 421.811C250.499 428.062 261.307 428.063 268.646 421.808L294.676 399.62L294.678 399.619C304.661 391.111 317.063 385.987 330.117 384.945L364.23 382.223L364.678 382.182C374.059 381.219 381.461 373.688 382.217 364.211V364.208L384.945 330.112L385.055 328.887C386.314 316.262 391.407 304.319 399.635 294.665L421.812 268.633L421.814 268.63C428.065 261.295 428.066 250.501 421.812 243.162L421.811 243.16L399.631 217.129V217.128C391.145 207.17 385.983 194.773 384.939 181.688L384.938 181.681L382.227 147.582C381.461 137.98 373.833 130.348 364.218 129.58V129.581L330.117 126.863L330.116 126.862C317.041 125.819 304.652 120.675 294.684 112.18L268.646 89.9908ZM256.966 341.203C268.744 341.203 278.292 350.75 278.292 362.528V364.661C278.292 370.327 276.036 375.761 272.024 379.762C268.011 383.763 262.57 386.003 256.904 385.986L254.78 385.979C243.026 385.944 233.517 376.407 233.517 364.654V362.528C233.517 350.75 243.065 341.203 254.842 341.203H256.966ZM234.579 298.546V277.221C234.579 265.444 244.127 255.896 255.905 255.896C263.771 255.896 271.484 253.72 278.191 249.61C284.895 245.501 290.327 239.623 293.899 232.611C297.47 225.6 299.034 217.736 298.416 209.896C297.797 202.046 295.026 194.533 290.406 188.176C285.778 181.81 279.482 176.847 272.218 173.84C264.951 170.832 257 169.894 249.229 171.127C241.456 172.36 234.169 175.721 228.192 180.829C222.209 185.941 217.763 192.598 215.336 200.077C211.701 211.279 199.672 217.413 188.469 213.778C177.267 210.142 171.132 198.114 174.768 186.912C179.625 171.944 188.524 158.624 200.482 148.405C212.445 138.181 227.012 131.467 242.546 129.002C258.083 126.538 273.994 128.414 288.532 134.432C303.072 140.451 315.659 150.378 324.907 163.101C334.161 175.834 339.699 190.868 340.935 206.544C342.171 222.23 339.043 237.954 331.903 251.971C324.763 265.987 313.894 277.752 300.478 285.974C293.227 290.418 285.387 293.728 277.23 295.835V298.546C277.23 310.324 267.682 319.872 255.905 319.872C244.127 319.872 234.58 310.324 234.579 298.546Z" fill="white"/>
</svg>
