<svg width="512" height="512" viewBox="0 0 512 512" fill="none" xmlns="http://www.w3.org/2000/svg">
<path d="M215.5 57.5267C238.779 37.69 273.03 37.6904 296.308 57.5276L322.346 79.7171C325.497 82.4025 329.398 84.0172 333.506 84.345H333.505L367.604 87.0628H367.606C398.086 89.4952 422.307 113.693 424.741 144.188L424.742 144.195L427.452 178.294L427.487 178.677C427.869 182.507 429.381 186.161 431.843 189.167L432.093 189.466L432.094 189.467L454.272 215.496L454.734 216.043C474.108 239.307 473.959 273.195 454.275 296.293L454.274 296.292L432.097 322.325L432.095 322.327C429.408 325.481 427.786 329.397 427.458 333.503V333.507L424.73 367.602L424.731 367.603C422.318 397.835 398.502 421.925 368.334 424.677L367.62 424.738L333.508 427.459C329.38 427.789 325.477 429.406 322.34 432.079L296.31 454.267L296.308 454.269C273.032 474.105 238.778 474.111 215.497 454.272L215.494 454.27L189.465 432.081L189.168 431.833C186.077 429.302 182.287 427.774 178.297 427.455V427.454L144.187 424.738H144.185C113.684 422.304 89.5084 398.083 87.0745 367.612L84.347 333.509L84.346 333.505C84.0187 329.404 82.4005 325.494 79.7103 322.337L79.7054 322.332L57.5306 296.294L57.0696 295.747C37.6979 272.487 37.838 238.605 57.5247 215.504L57.5267 215.502L79.7259 189.46C82.3809 186.344 83.9959 182.447 84.3274 178.294L84.3284 178.289L87.056 144.188C89.4921 113.685 113.743 89.4923 144.212 87.0608L178.286 84.3431L178.672 84.3089C182.651 83.9124 186.414 82.311 189.458 79.7171H189.459L215.5 57.5267ZM268.644 89.9895C261.307 83.737 250.501 83.737 243.163 89.9895L243.162 89.9905L217.121 112.179L217.122 112.18C207.145 120.683 194.741 125.816 181.679 126.859H181.678L147.604 129.575L147.605 129.576C137.978 130.345 130.337 137.992 129.572 147.584V147.589L126.843 181.691C125.803 194.718 120.709 207.125 112.186 217.126L112.184 217.128L89.9856 243.167L89.9866 243.168C83.8354 250.386 83.738 260.952 89.7044 268.283L89.9935 268.63L89.9974 268.635L112.172 294.673L112.958 295.614C120.98 305.409 125.85 317.437 126.862 330.108L129.59 364.21V364.214C130.358 373.838 137.982 381.456 147.577 382.222H147.576L181.687 384.94H181.69C194.346 385.95 206.378 390.801 216.187 398.832L217.129 399.619L217.131 399.621L243.161 421.81C250.497 428.061 261.305 428.061 268.644 421.807L294.674 399.618L294.676 399.617C304.659 391.11 317.061 385.985 330.116 384.944L364.228 382.222L364.676 382.181C374.057 381.218 381.459 373.687 382.215 364.21V364.206L384.943 330.111L385.053 328.886C386.312 316.26 391.405 304.318 399.633 294.663L421.81 268.632L421.812 268.629C428.063 261.293 428.064 250.499 421.81 243.16L421.809 243.158L399.629 217.128V217.127C391.143 207.169 385.981 194.771 384.937 181.687L384.936 181.68L382.225 147.58C381.459 137.979 373.831 130.347 364.216 129.578V129.579L330.116 126.862L330.114 126.861C317.04 125.817 304.65 120.674 294.682 112.179L268.644 89.9895ZM256.964 308.151C268.742 308.151 278.29 317.698 278.29 329.476V331.609C278.29 337.279 276.031 342.716 272.014 346.718C267.997 350.719 262.551 352.956 256.881 352.934L254.757 352.926C243.012 352.88 233.515 343.346 233.515 331.601V329.476C233.515 317.698 243.063 308.151 254.84 308.151H256.964ZM234.577 265.5V180.199C234.577 168.421 244.125 158.873 255.903 158.873C267.68 158.873 277.228 168.421 277.228 180.199V265.5C277.228 277.278 267.68 286.825 255.903 286.825C244.125 286.825 234.578 277.278 234.577 265.5Z" fill="white"/>
</svg>
