<svg width="512" height="512" viewBox="0 0 512 512" fill="none" xmlns="http://www.w3.org/2000/svg">
<path d="M0.000976562 298.552C0.000976562 234.958 46.3913 182.218 107.181 172.284C136.409 120.401 192.034 85.3016 255.905 85.3015C335.85 85.3015 402.935 140.273 421.451 214.486C472.618 222.319 511.81 266.523 511.811 319.881C511.811 378.769 464.072 426.507 405.184 426.508L127.953 426.51C57.2859 426.509 0.00114149 369.217 0.000976562 298.552ZM234.58 341.206V298.555H191.93C180.152 298.555 170.604 289.008 170.604 277.23C170.604 265.453 180.152 255.904 191.93 255.904H234.58V213.254C234.58 201.476 244.128 191.929 255.905 191.928C267.683 191.928 277.231 201.476 277.231 213.254V255.904H319.882C331.66 255.904 341.207 265.453 341.207 277.23C341.207 289.008 331.659 298.555 319.882 298.555H277.231V341.206C277.231 352.984 267.683 362.532 255.905 362.532C244.128 362.532 234.58 352.983 234.58 341.206ZM42.6514 298.552C42.6515 345.664 80.8437 383.858 127.953 383.858L405.184 383.857C440.517 383.857 469.159 355.214 469.159 319.881C469.159 284.548 440.517 255.904 405.184 255.904C404.808 255.904 404.438 255.908 404.054 255.915C393.303 256.101 384.095 248.254 382.573 237.61C373.712 175.619 320.353 127.952 255.905 127.952C204.82 127.952 160.691 157.891 140.172 201.276C136.861 208.277 130.014 212.933 122.286 213.439C77.829 216.349 42.6514 253.354 42.6514 298.552Z" fill="white"/>
</svg>
