<svg width="512" height="512" viewBox="0 0 512 512" fill="none" xmlns="http://www.w3.org/2000/svg">
<path d="M91.5479 91.5475C99.8759 83.2195 113.378 83.2195 121.706 91.5475L462.913 432.754C471.241 441.082 471.241 454.585 462.913 462.913C454.585 471.241 441.082 471.241 432.754 462.913L396.35 426.508H127.952C57.286 426.507 4.94797e-05 369.221 0 298.555C0 234.963 46.3808 182.216 107.174 172.282C111.319 164.927 115.994 157.916 121.141 151.299L91.5479 121.706C83.2198 113.378 83.2198 99.8756 91.5479 91.5475ZM469.148 319.881C469.148 284.537 440.526 255.904 405.203 255.904C404.82 255.904 404.42 255.908 404.043 255.915C393.292 256.101 384.083 248.254 382.562 237.61C373.7 175.617 320.35 127.952 255.904 127.952C243.166 127.952 230.898 129.807 219.337 133.248C208.049 136.607 196.174 130.18 192.814 118.891C189.455 107.603 195.883 95.7284 207.171 92.3688C222.638 87.7656 239.002 85.3015 255.904 85.3015C335.849 85.3015 402.922 140.272 421.438 214.481C472.624 222.301 511.799 266.521 511.799 319.881C511.799 345.062 503.061 368.272 488.422 386.533C481.055 395.722 467.634 397.2 458.444 389.834C449.255 382.467 447.777 369.046 455.144 359.856C463.918 348.91 469.148 335.044 469.148 319.881ZM42.6504 298.555C42.6504 345.666 80.8414 383.857 127.952 383.857H353.699L151.612 181.77C147.241 187.9 143.401 194.424 140.161 201.275C136.85 208.276 130.003 212.931 122.275 213.437C77.8222 216.347 42.6504 253.353 42.6504 298.555Z" fill="white"/>
</svg>
