<svg width="512" height="512" viewBox="0 0 512 512" fill="none" xmlns="http://www.w3.org/2000/svg">
<path d="M0.000488281 298.552C0.000488281 234.958 46.3908 182.218 107.18 172.284C136.408 120.401 192.034 85.3016 255.905 85.3015C335.849 85.3015 402.934 140.273 421.451 214.486C472.618 222.319 511.81 266.523 511.81 319.881C511.81 378.769 464.071 426.507 405.183 426.508L127.953 426.51C57.2854 426.509 0.000653213 369.217 0.000488281 298.552ZM319.881 255.904C331.659 255.904 341.207 265.453 341.207 277.23C341.206 289.008 331.659 298.555 319.881 298.555H191.929C180.152 298.555 170.603 289.008 170.603 277.23C170.603 265.453 180.152 255.904 191.929 255.904H319.881ZM42.6509 298.552C42.651 345.664 80.8432 383.858 127.953 383.858L405.183 383.857C440.516 383.857 469.159 355.214 469.159 319.881C469.159 284.548 440.516 255.904 405.183 255.904C404.808 255.904 404.438 255.908 404.053 255.915C393.302 256.101 384.094 248.254 382.573 237.61C373.711 175.619 320.352 127.952 255.905 127.952C204.819 127.952 160.691 157.891 140.171 201.276C136.86 208.277 130.014 212.933 122.286 213.439C77.8285 216.349 42.6509 253.354 42.6509 298.552Z" fill="white"/>
</svg>
