<svg width="512" height="512" viewBox="0 0 512 512" fill="none" xmlns="http://www.w3.org/2000/svg">
<path d="M0 298.552C0 234.958 46.3903 182.218 107.18 172.284C136.408 120.401 192.033 85.3016 255.904 85.3015C335.849 85.3015 402.934 140.273 421.45 214.486C472.617 222.319 511.81 266.523 511.81 319.881C511.81 378.769 464.071 426.507 405.183 426.508L127.952 426.509C57.2849 426.509 0.000164931 369.217 0 298.552ZM283.476 219.5C291.804 211.172 305.306 211.172 313.634 219.5C321.962 227.828 321.962 241.331 313.634 249.659L286.062 277.229L313.634 304.8C321.962 313.129 321.962 326.632 313.634 334.96C305.306 343.287 291.804 343.287 283.476 334.96L255.904 307.388L228.333 334.96C220.005 343.287 206.503 343.287 198.175 334.96C189.847 326.632 189.847 313.129 198.175 304.8L225.745 277.229L198.175 249.659C189.847 241.331 189.847 227.828 198.175 219.5C206.503 211.172 220.005 211.172 228.333 219.5L255.904 247.071L283.476 219.5ZM42.6504 298.552C42.6506 345.664 80.8427 383.858 127.952 383.858L405.183 383.857C440.516 383.857 469.158 355.214 469.158 319.881C469.158 284.548 440.516 255.904 405.183 255.904C404.807 255.904 404.437 255.908 404.053 255.915C393.302 256.101 384.094 248.254 382.572 237.61C373.711 175.619 320.352 127.952 255.904 127.952C204.819 127.952 160.69 157.89 140.171 201.276C136.86 208.277 130.013 212.933 122.285 213.439C77.828 216.349 42.6504 253.354 42.6504 298.552Z" fill="white"/>
</svg>
