<svg width="512" height="512" viewBox="0 0 512 512" fill="none" xmlns="http://www.w3.org/2000/svg">
<path d="M234.579 234.578C234.579 222.801 244.128 213.253 255.905 213.253C267.682 213.253 277.23 222.801 277.23 234.578V322.684L308.052 302.137C317.851 295.604 331.092 298.251 337.625 308.051C344.158 317.851 341.509 331.091 331.71 337.624L267.734 380.275C260.571 385.05 251.239 385.05 244.076 380.275L180.099 337.624C170.3 331.091 167.651 317.851 174.184 308.051C180.717 298.251 193.958 295.604 203.758 302.137L234.579 322.684V234.578ZM173.643 106.626C157.777 106.626 154.648 106.876 152.188 107.679C149.328 108.613 146.692 110.143 144.473 112.153C142.56 113.886 140.792 116.478 132.93 130.235L132.929 130.234L122.049 149.278H389.762L378.898 130.264C371.033 116.499 369.25 113.891 367.331 112.153C365.09 110.122 362.472 108.603 359.64 107.679C357.182 106.877 354.03 106.626 338.159 106.626H173.643ZM106.627 358.266C106.627 370.561 106.644 378.498 107.137 384.538C107.611 390.327 108.413 392.474 108.951 393.53C111.005 397.561 114.272 400.827 118.266 402.863C119.316 403.397 121.461 404.199 127.246 404.672C133.28 405.165 141.206 405.182 153.477 405.182H358.333C370.605 405.182 378.526 405.165 384.554 404.672C390.332 404.2 392.474 403.399 393.526 402.863C397.543 400.816 400.821 397.538 402.863 393.53C403.399 392.478 404.2 390.335 404.673 384.556C405.166 378.526 405.182 370.604 405.182 358.332V191.928H106.627V358.266ZM447.834 358.332C447.834 369.9 447.85 379.861 447.182 388.031C446.494 396.452 444.973 404.83 440.865 412.893C434.729 424.935 424.923 434.733 412.889 440.864C404.827 444.973 396.451 446.493 388.03 447.182C379.86 447.85 369.901 447.833 358.333 447.833H153.477C141.909 447.833 131.946 447.85 123.772 447.182C115.351 446.494 106.968 444.974 98.9031 440.864C86.8466 434.721 77.0731 424.912 70.949 412.893C66.8382 404.825 65.3167 396.442 64.6277 388.012C63.9592 379.832 63.9764 369.857 63.9764 358.266V170.603C63.9764 166.892 64.9448 163.245 66.7859 160.023L98.2674 104.92C103.713 95.3869 108.718 86.9948 115.836 80.5461C122.514 74.4952 130.402 69.9244 138.954 67.133C149.394 63.7256 160.665 63.9758 173.643 63.9758H338.159C351.134 63.9758 362.434 63.7253 372.875 67.133C381.456 69.9338 389.313 74.5155 395.969 80.5461C403.087 86.9963 408.096 95.3873 413.555 104.941L415.93 109.104L445.024 160.023C446.865 163.245 447.834 166.892 447.834 170.603V358.332Z" fill="white"/>
</svg>
