<svg width="512" height="512" viewBox="0 0 512 512" fill="none" xmlns="http://www.w3.org/2000/svg">
<path d="M85.3028 379.596V132.221C85.3028 120.63 85.2857 110.652 85.9541 102.469C86.6428 94.0372 88.1634 85.6482 92.2754 77.5779C98.409 65.54 108.192 55.7574 120.23 49.6238C128.3 45.5118 136.689 43.9912 145.12 43.3025C153.304 42.6341 163.282 42.6512 174.873 42.6512H270.294C272.88 42.6512 275.272 42.6511 277.425 42.6707C283.646 42.7273 289.608 42.9243 295.833 44.4187L297.057 44.7254C303.155 46.3178 308.97 48.8026 314.322 52.0828C321.278 56.3453 326.976 62.2364 333.629 68.8894L402.745 138.004C408.397 143.658 413.34 148.756 417.066 154.838C420.564 160.545 423.161 166.784 424.732 173.331C426.137 179.183 426.398 184.803 426.474 190.647C426.499 191.071 426.513 191.498 426.513 191.929C426.513 192.22 426.505 192.511 426.493 192.8C426.505 194.671 426.509 196.703 426.509 198.874V379.669C426.509 391.237 426.526 401.196 425.857 409.366C425.169 417.787 423.648 426.163 419.54 434.225C413.401 446.274 403.591 456.062 391.564 462.19C383.502 466.298 375.127 467.819 366.706 468.508C358.536 469.176 348.576 469.159 337.008 469.159H174.804C163.235 469.159 153.272 469.176 145.099 468.508C136.677 467.819 128.295 466.3 120.23 462.19C108.18 456.051 98.4029 446.251 92.2754 434.225C88.1645 426.157 86.6431 417.774 85.9541 409.344C85.2856 401.163 85.3028 391.188 85.3028 379.596ZM319.882 298.555C331.66 298.555 341.207 308.104 341.207 319.882C341.207 331.659 331.659 341.207 319.882 341.207H191.93C180.152 341.207 170.605 331.659 170.605 319.882C170.605 308.104 180.152 298.555 191.93 298.555H319.882ZM127.953 379.596C127.953 391.892 127.97 399.828 128.464 405.869C128.937 411.659 129.74 413.807 130.277 414.862C132.328 418.887 135.592 422.15 139.593 424.188C140.642 424.723 142.787 425.526 148.572 425.999C154.606 426.492 162.532 426.509 174.804 426.509H337.008C349.28 426.509 357.201 426.492 363.23 425.999C369.008 425.526 371.15 424.724 372.202 424.188C376.226 422.138 379.499 418.864 381.538 414.862C382.074 413.81 382.876 411.669 383.349 405.89C383.842 399.862 383.858 391.941 383.858 379.669V213.254H345.406C333.838 213.254 323.875 213.271 315.701 212.603C307.28 211.915 298.898 210.395 290.833 206.286C278.777 200.143 269.003 190.333 262.879 178.314C258.768 170.246 257.247 161.864 256.558 153.433C255.889 145.253 255.905 135.279 255.905 123.687V85.3016H174.873C162.578 85.3016 154.637 85.3186 148.592 85.8123C142.795 86.2858 140.646 87.0892 139.593 87.6258C135.58 89.6703 132.322 92.9286 130.277 96.9412C129.741 97.9945 128.937 100.144 128.464 105.94C127.97 111.985 127.953 119.927 127.953 132.221V379.596ZM298.557 123.687C298.557 135.982 298.573 143.919 299.066 149.959C299.54 155.748 300.343 157.895 300.881 158.951C302.935 162.982 306.201 166.249 310.195 168.284C311.245 168.819 313.389 169.621 319.175 170.094C325.209 170.587 333.135 170.603 345.406 170.603H374.984C373.703 169.294 372.113 167.691 370.122 165.7L303.47 99.0486C301.475 97.0537 299.869 95.4594 298.557 94.1746V123.687Z" fill="white"/>
</svg>
