<svg width="512" height="512" viewBox="0 0 512 512" fill="none" xmlns="http://www.w3.org/2000/svg">
<path d="M85.3016 379.596V132.221C85.3016 120.63 85.2845 110.652 85.9529 102.468C86.6416 94.037 88.1622 85.648 92.2742 77.5777C98.4078 65.5398 108.19 55.7572 120.228 49.6236C128.299 45.5116 136.688 43.9909 145.119 43.3023C153.303 42.6339 163.28 42.6509 174.872 42.6509H270.293C272.879 42.6509 275.27 42.6509 277.424 42.6705C283.645 42.7271 289.607 42.9241 295.832 44.4185L297.055 44.7251C303.154 46.3175 308.968 48.8024 314.321 52.0826C321.277 56.3451 326.975 62.2362 333.628 68.8892L402.744 138.003C408.396 143.658 413.338 148.756 417.065 154.837C420.562 160.545 423.159 166.784 424.731 173.331C426.136 179.183 426.397 184.803 426.472 190.647C426.498 191.071 426.512 191.498 426.512 191.928C426.512 192.22 426.504 192.51 426.492 192.799C426.504 194.671 426.508 196.703 426.508 198.874V379.668C426.508 391.236 426.524 401.196 425.856 409.366C425.168 417.786 423.647 426.163 419.539 434.225C413.4 446.274 403.59 456.062 391.563 462.19C383.501 466.298 375.125 467.819 366.705 468.507C358.535 469.175 348.575 469.159 337.007 469.159H174.803C163.234 469.159 153.271 469.175 145.097 468.507C136.676 467.819 128.293 466.299 120.228 462.19C108.178 456.05 98.4017 446.251 92.2742 434.225C88.1633 426.157 86.6419 417.774 85.9529 409.343C85.2844 401.163 85.3016 391.188 85.3016 379.596ZM283.475 262.151C291.803 253.823 305.305 253.823 313.634 262.151C321.962 270.479 321.962 283.981 313.634 292.309L286.062 319.88L313.634 347.452C321.962 355.78 321.962 369.283 313.634 377.611C305.306 385.938 291.803 385.939 283.475 377.611L255.904 350.039L228.333 377.611C220.005 385.938 206.503 385.938 198.175 377.611C189.847 369.283 189.847 355.78 198.175 347.452L225.746 319.88L198.175 292.309C189.847 283.981 189.847 270.479 198.175 262.151C206.503 253.823 220.005 253.823 228.333 262.151L255.904 289.722L283.475 262.151ZM127.952 379.596C127.952 391.891 127.969 399.828 128.463 405.869C128.936 411.659 129.738 413.806 130.276 414.862C132.327 418.887 135.591 422.15 139.592 424.188C140.641 424.723 142.785 425.526 148.571 425.999C154.605 426.492 162.531 426.508 174.803 426.508H337.007C349.278 426.508 357.2 426.492 363.228 425.999C369.007 425.526 371.149 424.724 372.201 424.188C376.224 422.138 379.498 418.863 381.537 414.862C382.073 413.81 382.875 411.668 383.347 405.89C383.84 399.861 383.857 391.94 383.857 379.668V213.253H345.405C333.837 213.253 323.874 213.271 315.7 212.603C307.279 211.915 298.897 210.395 290.832 206.286C278.775 200.143 269.002 190.333 262.878 178.314C258.767 170.246 257.245 161.864 256.556 153.433C255.888 145.253 255.904 135.278 255.904 123.687V85.3013H174.872C162.577 85.3013 154.635 85.3183 148.591 85.8121C142.794 86.2855 140.645 87.0889 139.592 87.6255C135.579 89.6701 132.321 92.9283 130.276 96.941C129.74 97.9942 128.936 100.144 128.463 105.94C127.969 111.985 127.952 119.926 127.952 132.221V379.596ZM298.555 123.687C298.555 135.982 298.572 143.919 299.065 149.959C299.538 155.748 300.342 157.895 300.88 158.951C302.934 162.982 306.2 166.249 310.194 168.284C311.244 168.818 313.388 169.62 319.174 170.093C325.207 170.586 333.134 170.603 345.405 170.603H374.983C373.702 169.293 372.111 167.69 370.121 165.7L303.469 99.0484C301.474 97.0535 299.868 95.4592 298.555 94.1744V123.687Z" fill="white"/>
</svg>
