<svg width="512" height="512" viewBox="0 0 512 512" fill="none" xmlns="http://www.w3.org/2000/svg">
<path d="M426.514 358.262V196.189C426.514 183.894 426.498 175.955 426.004 169.913C425.531 164.119 424.727 161.971 424.189 160.916C422.157 156.927 418.888 153.658 414.853 151.602C413.796 151.064 411.65 150.261 405.863 149.788C399.825 149.294 391.889 149.278 379.594 149.278H85.3028V358.266C85.3028 370.561 85.3199 378.497 85.8135 384.536C86.2866 390.323 87.0889 392.47 87.627 393.526C89.6832 397.561 92.9527 400.83 96.9424 402.863C97.9921 403.398 100.137 404.2 105.922 404.672C111.956 405.165 119.882 405.182 132.153 405.182H379.673C391.945 405.182 399.866 405.165 405.895 404.672C411.672 404.2 413.814 403.399 414.866 402.863C418.874 400.821 422.142 397.552 424.189 393.535C424.727 392.48 425.531 390.332 426.004 384.539C426.498 378.496 426.514 370.557 426.514 358.262ZM319.883 298.555C331.66 298.555 341.208 308.103 341.208 319.88C341.208 331.658 331.66 341.206 319.883 341.207H191.93C180.152 341.206 170.605 331.658 170.605 319.88C170.605 308.103 180.152 298.555 191.93 298.555H319.883ZM319.883 234.579C331.66 234.579 341.208 244.127 341.208 255.905C341.208 267.682 331.66 277.23 319.883 277.23H191.93C180.152 277.23 170.605 267.682 170.605 255.905C170.605 244.127 180.152 234.579 191.93 234.579H319.883ZM469.165 358.262C469.165 369.854 469.181 379.83 468.513 388.012C467.824 396.443 466.303 404.828 462.191 412.897C456.06 424.93 446.273 434.728 434.23 440.865C426.167 444.973 417.791 446.494 409.37 447.182C401.2 447.85 391.241 447.833 379.673 447.833H132.153C120.585 447.833 110.622 447.85 102.448 447.182C94.0268 446.494 85.6441 444.974 77.5791 440.865C65.5183 434.719 55.7469 424.904 49.625 412.889C45.5145 404.822 43.9928 396.44 43.3038 388.01C42.6352 379.831 42.6524 369.857 42.6524 358.266V127.952C42.6526 92.6189 71.2952 63.9763 106.628 63.9761H184.989C194.403 63.9761 202.608 63.8388 210.542 65.7436C217.099 67.3177 223.323 69.9155 229.022 73.4077C235.977 77.6701 241.674 83.5616 248.327 90.2143L264.739 106.626H379.594C391.185 106.626 401.159 106.61 409.338 107.279C417.768 107.968 426.149 109.49 434.216 113.6C446.23 119.722 456.046 129.492 462.191 141.553C466.303 149.622 467.824 158.008 468.513 166.439C469.181 174.621 469.165 184.597 469.165 196.189V358.262Z" fill="white"/>
</svg>
