<svg width="512" height="512" viewBox="0 0 512 512" fill="none" xmlns="http://www.w3.org/2000/svg">
<path d="M426.514 196.189C426.514 183.894 426.498 175.955 426.004 169.913C425.531 164.119 424.727 161.971 424.189 160.916C422.155 156.923 418.889 153.656 414.857 151.602C413.802 151.064 411.655 150.261 405.865 149.788C399.825 149.294 391.889 149.278 379.594 149.278H85.3028V274.263L86.1289 271.372L86.2559 270.944C89.0066 262.02 97.2615 255.905 106.634 255.905H426.514V196.189ZM96.9151 388.872C96.897 388.935 96.879 388.998 96.8604 389.061L96.835 389.144C95.4023 394.159 94.3645 397.822 93.628 400.763C94.6625 401.561 95.7706 402.266 96.9424 402.863C97.9921 403.398 100.137 404.2 105.922 404.672C111.956 405.165 119.882 405.182 132.153 405.182H379.659C391.931 405.182 399.852 405.165 405.881 404.672C411.658 404.2 413.8 403.399 414.853 402.863L415.228 402.666C419.078 400.608 422.213 397.413 424.189 393.535C424.727 392.48 425.531 390.332 426.004 384.539C426.498 378.496 426.514 370.557 426.514 358.262V298.555H122.72L96.9151 388.872ZM469.165 256.874C473.83 257.577 479.037 258.949 484.085 261.939L484.682 262.3L485.522 262.835C494.14 268.458 500.434 277.009 503.244 286.915C505.402 294.519 504.641 301.667 503.549 307.384C502.483 312.964 500.576 319.573 498.573 326.582L475.42 407.619V407.62C473.402 414.683 471.089 424.147 465.29 431.527C460.725 437.336 454.717 441.872 447.871 444.667C439.176 448.219 429.407 447.833 422.096 447.833H109.211C101.934 447.833 95.0547 447.853 89.4004 447.349C83.6136 446.834 76.5128 445.611 69.7803 441.439C60.7425 435.839 54.1153 427.06 51.211 416.823C51.037 416.209 50.8829 415.598 50.7452 414.99C50.36 414.298 49.9852 413.6 49.625 412.893C45.5143 404.825 43.9927 396.443 43.3038 388.012C42.6352 379.832 42.6524 369.857 42.6524 358.266V127.952C42.6526 92.6189 71.2952 63.9763 106.628 63.9761H184.989C194.404 63.9761 202.602 63.8388 210.536 65.7436C217.085 67.316 223.316 69.9115 229.022 73.4077C235.977 77.6702 241.674 83.5614 248.327 90.2143L264.739 106.626H379.594C391.185 106.626 401.16 106.61 409.34 107.279C417.77 107.968 426.153 109.489 434.221 113.6C446.24 119.724 456.048 129.497 462.191 141.553C466.303 149.622 467.824 158.008 468.513 166.439C469.181 174.621 469.165 184.597 469.165 196.189V256.874Z" fill="white"/>
</svg>
