<svg width="512" height="512" viewBox="0 0 512 512" fill="none" xmlns="http://www.w3.org/2000/svg">
<path d="M426.5 140.746C426.5 134.422 426.483 130.962 426.28 128.475C426.272 128.377 426.261 128.284 426.253 128.196C426.175 128.189 426.094 128.18 426.008 128.173C423.509 127.969 420.034 127.953 413.713 127.953H170.603V170.674C173.979 170.812 177.617 171.187 181.169 172.181C186.204 173.591 190.872 175.898 195.009 178.959C200.27 182.849 204.143 188.133 207.157 192.008L223.683 213.255H328.411C334.033 213.255 339.537 213.238 344.171 213.615C348.887 213.999 354.452 214.89 360.068 217.632L360.612 217.903L361.369 218.299C368.886 222.322 374.891 228.453 378.815 235.8L379.201 236.54L379.471 237.082C382.208 242.686 383.102 248.232 383.488 252.955C383.866 257.577 383.849 263.069 383.849 268.684L383.868 298.563L413.762 298.555C420.074 298.555 423.529 298.539 426.012 298.337C426.096 298.33 426.176 298.32 426.253 298.313C426.261 298.223 426.272 298.128 426.28 298.028C426.483 295.542 426.5 292.082 426.5 285.758V140.746ZM85.3014 413.713C85.3014 420.036 85.3181 423.493 85.5211 425.976C85.5294 426.077 85.5401 426.172 85.5485 426.262C85.632 426.27 85.7202 426.281 85.8131 426.289C88.2915 426.491 91.7416 426.508 98.0533 426.508H328.44C334.751 426.508 338.21 426.492 340.696 426.289C340.785 426.281 340.87 426.271 340.951 426.263C340.959 426.174 340.97 426.081 340.978 425.981C341.181 423.495 341.198 420.034 341.198 413.711L341.231 319.908L341.198 268.698C341.198 262.374 341.181 258.914 340.978 256.427C340.97 256.329 340.959 256.235 340.951 256.147C340.873 256.14 340.792 256.132 340.707 256.125C338.207 255.921 334.732 255.905 328.411 255.905H85.3014V413.713ZM469.151 285.758C469.151 291.378 469.168 296.876 468.79 301.502C468.391 306.376 467.452 312.129 464.503 317.917C460.452 325.866 453.995 332.433 445.894 336.56C440.107 339.509 434.354 340.448 429.485 340.845C424.864 341.223 419.374 341.206 413.767 341.206L413.768 341.207L383.874 341.214L383.849 413.718C383.849 419.336 383.866 424.83 383.488 429.454C383.09 434.328 382.15 440.081 379.201 445.869C375.138 453.843 368.656 460.398 360.581 464.512C354.791 467.462 349.035 468.4 344.167 468.798C339.543 469.175 334.049 469.159 328.44 469.159H98.0533C92.4456 469.159 86.9566 469.175 82.3365 468.798C77.4654 468.399 71.7196 467.459 65.9361 464.512C58.1311 460.536 51.7803 454.262 47.6881 446.606L47.2994 445.861C44.3516 440.076 43.411 434.328 43.0123 429.452C42.6343 424.828 42.651 419.332 42.651 413.713V226.051C42.651 220.432 42.6345 214.934 43.0123 210.307C43.4103 205.434 44.3493 199.678 47.2994 193.888C51.3884 185.863 57.9108 179.341 65.9361 175.252C71.7238 172.303 77.4753 171.363 82.3492 170.965C86.9743 170.587 92.4708 170.603 98.0885 170.603H127.953V98.0993C127.953 92.4802 127.936 86.9819 128.314 82.3552C128.712 77.4818 129.651 71.7263 132.601 65.9362L132.992 65.1882C137.1 57.5054 143.464 51.2606 151.238 47.2995C157.024 44.3512 162.773 43.4109 167.649 43.0124C172.274 42.6344 177.771 42.6511 183.39 42.6511H248.686C253.455 42.6511 259.715 42.4775 265.83 44.07L266.421 44.2292L267.34 44.4977C271.621 45.7991 275.749 47.7823 279.51 50.4294L280.311 51.0065L280.8 51.3757C285.813 55.2268 289.54 60.3027 292.46 64.0563L308.984 85.3015H413.713C419.334 85.3015 424.838 85.2854 429.471 85.6628C434.188 86.047 439.753 86.9375 445.369 89.6794L445.913 89.9499L446.67 90.3454C454.437 94.5023 460.591 100.91 464.503 108.587C467.452 114.375 468.391 120.128 468.79 125.003C469.168 129.628 469.151 135.126 469.151 140.746V285.758Z" fill="white"/>
</svg>
