<svg width="512" height="512" viewBox="0 0 512 512" fill="none" xmlns="http://www.w3.org/2000/svg">
<path d="M394.52 213.253C400.175 213.253 405.6 215.5 409.599 219.499L462.912 272.813C471.24 281.141 471.24 294.644 462.912 302.972L302.972 462.912C298.973 466.911 293.548 469.158 287.893 469.158H234.579C222.802 469.158 213.254 459.611 213.254 447.833V394.52C213.254 388.864 215.501 383.439 219.5 379.44L379.441 219.499L379.819 219.13C383.779 215.362 389.04 213.253 394.52 213.253ZM255.904 403.353V426.507H279.06L359.029 346.536L335.874 323.382L255.904 403.353ZM366.033 293.223L389.188 316.378L417.674 287.892L394.52 264.737L366.033 293.223ZM426.508 197.259V196.194C426.508 183.899 426.491 175.959 425.997 169.917C425.524 164.124 424.721 161.976 424.184 160.921C422.139 156.908 418.876 153.646 414.863 151.602C413.809 151.064 411.661 150.261 405.868 149.787C399.826 149.294 391.887 149.277 379.592 149.277H85.3009V358.266C85.3009 370.561 85.318 378.5 85.8116 384.542C86.285 390.335 87.0879 392.484 87.6251 393.538C89.6696 397.551 92.9328 400.813 96.9454 402.858C97.9999 403.395 100.148 404.199 105.941 404.672C111.983 405.166 119.922 405.182 132.217 405.182H149.277C161.055 405.182 170.602 414.73 170.603 426.507C170.603 438.285 161.055 447.833 149.277 447.833H132.217C120.626 447.833 110.65 447.849 102.468 447.181C94.037 446.492 85.6512 444.971 77.5821 440.86C65.5443 434.726 55.7568 424.939 49.6232 412.902C45.5118 404.832 43.9907 396.447 43.3019 388.016C42.6334 379.834 42.6505 369.857 42.6505 358.266V119.421C42.6505 113.802 42.6339 108.305 43.0118 103.679C43.4101 98.804 44.3497 93.0511 47.2989 87.2628C51.388 79.2378 57.9126 72.7132 65.9376 68.6242C71.7258 65.6749 77.4788 64.7354 82.3536 64.3371C86.9795 63.9591 92.4771 63.9757 98.0968 63.9757H199.12C203.321 63.9757 208.898 63.8389 214.377 65.1544C218.729 66.1993 222.889 67.9224 226.705 70.2609C231.51 73.2051 235.356 77.2445 238.326 80.215L264.737 106.626H379.592C391.183 106.626 401.159 106.61 409.341 107.278C417.772 107.967 426.158 109.488 434.227 113.6C446.265 119.733 456.052 129.52 462.186 141.558C466.297 149.627 467.818 158.013 468.507 166.444C469.175 174.625 469.158 184.602 469.158 196.194V197.259C469.158 209.037 459.611 218.585 447.833 218.585C436.055 218.585 426.508 209.037 426.508 197.259Z" fill="white"/>
</svg>
