<svg width="512" height="512" viewBox="0 0 512 512" fill="none" xmlns="http://www.w3.org/2000/svg">
<path d="M426.512 358.262V196.189C426.512 183.894 426.496 175.955 426.002 169.913C425.529 164.119 424.725 161.971 424.188 160.916C422.155 156.927 418.887 153.658 414.851 151.602C413.795 151.064 411.649 150.261 405.862 149.788C399.823 149.294 391.888 149.278 379.592 149.278H85.3013V358.266C85.3013 370.561 85.3185 378.497 85.8121 384.536C86.2851 390.323 87.0874 392.47 87.6255 393.526C89.6818 397.561 92.9512 400.83 96.941 402.863C97.9907 403.398 100.135 404.2 105.92 404.672C111.954 405.165 119.88 405.182 132.152 405.182H379.671C391.943 405.182 399.864 405.165 405.893 404.672C411.671 404.2 413.813 403.399 414.865 402.863C418.872 400.821 422.141 397.552 424.188 393.535C424.725 392.48 425.529 390.332 426.002 384.539C426.496 378.496 426.512 370.557 426.512 358.262ZM319.881 255.905C331.659 255.905 341.207 265.452 341.207 277.23C341.207 289.007 331.659 298.555 319.881 298.555H191.928C180.151 298.555 170.603 289.008 170.603 277.23C170.603 265.452 180.151 255.905 191.928 255.905H319.881ZM469.164 358.262C469.164 369.854 469.18 379.83 468.511 388.012C467.822 396.443 466.301 404.828 462.19 412.897C456.059 424.93 446.271 434.728 434.228 440.865C426.165 444.973 417.789 446.494 409.369 447.182C401.199 447.85 391.239 447.833 379.671 447.833H132.152C120.584 447.833 110.62 447.85 102.447 447.182C94.0253 446.494 85.6427 444.974 77.5777 440.865C65.5169 434.719 55.7455 424.904 49.6236 412.889C45.513 404.822 43.9914 396.44 43.3023 388.01C42.6337 379.831 42.6509 369.857 42.6509 358.266V127.952C42.6511 92.6189 71.2938 63.9763 106.627 63.9761H184.988C194.402 63.9761 202.606 63.8388 210.541 65.7436C217.097 67.3177 223.321 69.9155 229.02 73.4077C235.976 77.6701 241.673 83.5616 248.326 90.2143L264.738 106.626H379.592C391.183 106.626 401.157 106.61 409.336 107.279C417.767 107.968 426.147 109.49 434.214 113.6C446.229 119.722 456.045 129.492 462.19 141.553C466.301 149.622 467.822 158.008 468.511 166.439C469.18 174.621 469.164 184.597 469.164 196.189V358.262Z" fill="white"/>
</svg>
