<svg width="512" height="512" viewBox="0 0 512 512" fill="none" xmlns="http://www.w3.org/2000/svg">
<path d="M63.9766 358.271V153.548C63.9766 141.956 63.9595 131.978 64.628 123.794C65.3166 115.363 66.8372 106.974 70.9493 98.9033C77.0829 86.8656 86.8656 77.0838 98.9034 70.9502C106.974 66.8381 115.363 65.3176 123.794 64.6289C131.978 63.9605 141.955 63.9766 153.547 63.9766H213.259C225.036 63.9768 234.584 73.5244 234.584 85.3018C234.584 97.0793 225.036 106.628 213.259 106.628H153.547C141.252 106.628 133.31 106.644 127.266 107.138C121.469 107.611 119.32 108.416 118.267 108.952C114.254 110.997 110.996 114.254 108.951 118.267C108.415 119.32 107.611 121.469 107.138 127.267C106.644 133.311 106.627 141.253 106.627 153.548V358.271C106.627 370.567 106.644 378.504 107.138 384.544C107.611 390.334 108.414 392.482 108.951 393.537C111.002 397.562 114.266 400.825 118.267 402.863C119.316 403.398 121.461 404.201 127.246 404.674C133.28 405.167 141.206 405.184 153.478 405.184H358.333C370.605 405.184 378.526 405.167 384.555 404.674C390.333 404.201 392.474 403.399 393.526 402.863C397.543 400.816 400.821 397.539 402.863 393.531C403.399 392.48 404.2 390.338 404.673 384.558C405.166 378.528 405.183 370.605 405.183 358.333V298.557C405.183 286.779 414.73 277.231 426.508 277.23C438.286 277.23 447.834 286.779 447.834 298.557V358.333C447.834 369.901 447.851 379.861 447.183 388.032C446.494 396.453 444.974 404.831 440.865 412.895C434.729 424.937 424.923 434.734 412.89 440.865C404.827 444.973 396.451 446.494 388.03 447.183C379.86 447.851 369.901 447.834 358.333 447.834H153.478C141.909 447.834 131.946 447.851 123.773 447.183C115.351 446.494 106.968 444.975 98.9034 440.865C86.8534 434.725 77.0767 424.926 70.9493 412.9C66.8383 404.832 65.3169 396.449 64.628 388.019C63.9594 379.838 63.9766 369.863 63.9766 358.271ZM390.498 27.1875C398.853 19.2461 412.064 19.3745 420.262 27.5723L484.238 91.5479C492.566 99.8759 492.566 113.379 484.238 121.707L292.31 313.636C288.31 317.635 282.886 319.882 277.231 319.882H213.254C201.477 319.882 191.929 310.334 191.929 298.557V234.58C191.929 228.924 194.176 223.5 198.175 219.501L390.104 27.5723L390.498 27.1875ZM234.579 243.414V277.23H268.398L375.023 170.604L341.206 136.786L234.579 243.414ZM371.365 106.627L405.183 140.444L439 106.627L405.183 72.8096L371.365 106.627Z" fill="white"/>
</svg>
