<svg width="512" height="512" viewBox="0 0 512 512" fill="none" xmlns="http://www.w3.org/2000/svg">
<path d="M405.183 306.406C405.183 294.109 405.026 291.684 404.511 289.683C403.922 287.392 402.943 285.195 401.604 283.184C400.454 281.456 398.75 279.705 389.623 271.505L340.575 227.44C332.269 219.978 326.932 215.206 322.574 211.865C318.426 208.686 316.475 207.857 315.372 207.524C311.358 206.315 307.074 206.315 303.06 207.524C301.96 207.856 300.011 208.683 295.863 211.864C291.505 215.206 286.171 219.979 277.865 227.44L277.23 228.01V405.182H405.183V306.406ZM234.58 153.477C234.58 141.205 234.563 133.279 234.07 127.245C233.597 121.459 232.794 119.315 232.259 118.266C230.221 114.265 226.958 111.001 222.933 108.95C221.878 108.413 219.73 107.61 213.941 107.137C207.9 106.643 199.963 106.626 187.667 106.626H153.547C141.253 106.626 133.311 106.643 127.266 107.137C121.469 107.61 119.319 108.414 118.266 108.95C114.253 110.995 110.996 114.253 108.952 118.266C108.415 119.319 107.611 121.468 107.137 127.265C106.643 133.309 106.627 141.251 106.627 153.546V405.182H234.58V153.477ZM277.23 172.91C281.357 170.35 285.79 168.184 290.75 166.689C302.792 163.059 315.639 163.059 327.681 166.689C335.691 169.103 342.329 173.268 348.522 178.016C354.505 182.602 361.263 188.691 369.079 195.713L418.126 239.778C425.667 246.553 432.282 252.298 437.111 259.554C441.071 265.504 444.027 272.092 445.819 279.063C447.991 287.51 447.833 296.304 447.833 306.406V405.182H469.159C480.936 405.182 490.484 414.729 490.484 426.507C490.484 438.285 480.936 447.833 469.159 447.833H42.6509C30.8732 447.833 21.3257 438.285 21.3257 426.507C21.3259 414.729 30.8733 405.182 42.6509 405.182H63.9761V153.546C63.9761 141.954 63.96 131.977 64.6284 123.793C65.3171 115.362 66.8377 106.973 70.9497 98.9024C77.0833 86.8646 86.8651 77.0819 98.9028 70.9483C106.973 66.8363 115.362 65.3157 123.793 64.627C131.977 63.9586 141.956 63.9756 153.547 63.9756H187.667C199.259 63.9756 209.234 63.9585 217.415 64.627C225.845 65.3159 234.228 66.8374 242.296 70.9483C254.322 77.0757 264.122 86.8524 270.262 98.9024C274.371 106.967 275.89 115.35 276.579 123.772C277.247 131.945 277.23 141.908 277.23 153.477V172.91Z" fill="white"/>
</svg>
