<svg width="512" height="512" viewBox="0 0 512 512" fill="none" xmlns="http://www.w3.org/2000/svg">
<path d="M325.289 85.301C339.709 85.301 352.266 84.9978 363.617 89.0871C372.919 92.4381 381.29 97.8917 388.114 105.014C396.457 113.722 401.273 125.303 407.122 138.462L440.362 213.253H447.834C459.611 213.253 469.159 222.801 469.159 234.578C469.159 246.172 459.907 255.605 448.384 255.897L447.834 255.903V383.854C447.834 419.185 419.192 447.832 383.857 447.832C348.525 447.832 319.882 419.19 319.882 383.858L191.927 383.857C191.927 419.189 163.286 447.832 127.953 447.832C92.6199 447.832 63.9764 419.19 63.9763 383.857V255.903C52.1986 255.903 42.6511 246.356 42.6511 234.578C42.6513 222.801 52.1987 213.253 63.9763 213.253H71.4353C71.519 213.065 71.6026 212.875 71.6873 212.685L104.662 138.491C110.522 125.307 115.343 113.725 123.688 105.014C130.519 97.8844 138.902 92.4347 148.194 89.0871C159.545 84.998 172.094 85.301 186.514 85.301H325.289ZM362.532 383.859C362.533 395.635 372.08 405.182 383.857 405.182C395.632 405.182 405.18 395.636 405.182 383.859H362.532ZM106.627 341.205L405.182 341.207V255.903H106.627V341.205ZM186.514 127.951C168.83 127.951 165.312 128.255 162.649 129.214C159.554 130.329 156.764 132.142 154.485 134.521C152.526 136.566 150.815 139.662 143.636 155.814L118.108 213.253H393.688L368.147 155.784C360.975 139.646 359.272 136.561 357.317 134.521C355.032 132.135 352.247 130.326 349.161 129.214C346.498 128.255 342.973 127.951 325.289 127.951H186.514ZM106.627 383.857C106.627 395.634 116.175 405.182 127.953 405.182C139.73 405.182 149.278 395.634 149.278 383.857H106.627Z" fill="white"/>
</svg>
