<svg width="512" height="512" viewBox="0 0 512 512" fill="none" xmlns="http://www.w3.org/2000/svg">
<path d="M63.9766 447.833V91.9819C63.9766 85.4204 66.9971 79.2238 72.166 75.1821C107.583 47.4891 142.203 39.8707 175.799 43.4946C207.853 46.9522 238.125 60.6823 264.604 72.5141C292.408 84.9376 316.419 95.463 340.586 98.0698C363.211 100.51 386.751 96.0022 413.372 75.187C419.796 70.1638 428.522 69.2445 435.853 72.8178C443.183 76.3912 447.834 83.832 447.834 91.9868V334.529C447.834 341.09 444.813 347.287 439.645 351.329C404.228 379.022 369.608 386.641 336.012 383.018C303.958 379.561 273.685 365.832 247.206 354.001C219.403 341.579 195.392 331.055 171.225 328.449C150.947 326.262 129.934 329.658 106.627 345.372V447.833C106.627 459.611 97.0794 469.159 85.3018 469.159C73.5242 469.159 63.9767 459.611 63.9766 447.833ZM171.225 85.8989C150.947 83.7116 129.934 87.1065 106.627 102.82V296.706C130.102 286.262 153.182 283.605 175.798 286.044C207.852 289.501 238.125 303.23 264.604 315.061C292.408 327.483 316.418 338.008 340.585 340.614C360.863 342.801 381.875 339.404 405.183 323.69V129.812C381.708 140.257 358.628 142.914 336.012 140.474C303.958 137.017 273.684 123.286 247.205 111.455C219.402 99.0311 195.392 88.5058 171.225 85.8989Z" fill="white"/>
</svg>
