<svg width="512" height="512" viewBox="0 0 512 512" fill="none" xmlns="http://www.w3.org/2000/svg">
<path d="M405.183 244.223C405.183 231.744 405.014 229.256 404.481 227.217C403.865 224.862 402.858 222.643 401.497 220.639C400.313 218.894 398.553 217.126 389.166 208.912L286.804 119.346C278.598 112.166 273.337 107.582 269.045 104.373C264.968 101.325 263.052 100.527 261.957 100.203C258.01 99.0361 253.796 99.0361 249.849 100.203C248.758 100.526 246.847 101.322 242.777 104.366C238.492 107.569 233.239 112.145 225.044 119.316L122.649 208.912C113.265 217.124 111.504 218.893 110.319 220.639C108.934 222.678 107.926 224.903 107.321 227.217C106.79 229.249 106.627 231.712 106.627 244.223V358.271C106.627 370.565 106.644 378.506 107.138 384.551C107.612 390.348 108.415 392.498 108.952 393.551C110.995 397.562 114.253 400.819 118.267 402.865C119.317 403.399 121.461 404.202 127.246 404.675C133.28 405.168 141.206 405.184 153.478 405.184H358.333C370.605 405.184 378.526 405.168 384.555 404.675C390.333 404.203 392.475 403.401 393.527 402.865C397.564 400.808 400.832 397.539 402.864 393.551C403.399 392.501 404.201 390.357 404.673 384.574C405.166 378.541 405.183 370.617 405.183 358.345V244.223ZM304.802 219.501C313.13 211.173 326.633 211.173 334.961 219.501C343.289 227.829 343.289 241.332 334.961 249.66L249.66 334.962C245.66 338.962 240.235 341.208 234.579 341.208C228.924 341.208 223.5 338.961 219.5 334.962L176.85 292.311C168.522 283.983 168.522 270.481 176.85 262.153C185.178 253.825 198.68 253.825 207.008 262.153L234.579 289.723L304.802 219.501ZM447.834 358.345C447.834 369.913 447.851 379.875 447.183 388.048C446.495 396.469 444.975 404.85 440.866 412.914C434.72 424.976 424.903 434.745 412.89 440.867C404.827 444.975 396.451 446.495 388.031 447.184C379.861 447.852 369.901 447.835 358.333 447.835H153.478C141.91 447.835 131.947 447.852 123.773 447.184C115.351 446.496 106.969 444.976 98.9037 440.867C86.8672 434.734 77.0839 424.953 70.9496 412.914C66.8376 404.844 65.317 396.455 64.6283 388.024C63.9599 379.84 63.977 369.862 63.977 358.271V244.223C63.977 233.945 63.8149 225.007 66.0551 216.434C67.906 209.351 70.9595 202.681 75.0307 196.684C80.0016 189.361 86.7961 183.611 94.5629 176.815L196.959 87.2181C204.662 80.4782 211.333 74.6207 217.236 70.2074C223.352 65.6338 229.892 61.628 237.754 59.3031C249.596 55.8013 262.211 55.8013 274.052 59.3031C281.917 61.6289 288.461 65.6364 294.584 70.2142C300.494 74.6323 307.174 80.496 314.89 87.2474L417.251 176.814C424.773 183.395 431.389 189 436.315 196.002L436.787 196.684L437.541 197.823C441.255 203.552 444.02 209.832 445.746 216.434C447.984 225 447.834 233.913 447.834 244.223V358.345Z" fill="white"/>
</svg>
