<svg width="512" height="512" viewBox="0 0 512 512" fill="none" xmlns="http://www.w3.org/2000/svg">
<path d="M277.23 341.208C277.23 329.431 267.683 319.883 255.905 319.883C244.128 319.883 234.58 329.431 234.58 341.208V405.184H277.23V341.208ZM319.882 405.184H405.184V244.223C405.184 231.744 405.013 229.256 404.48 227.217C403.865 224.862 402.858 222.643 401.498 220.639C400.313 218.894 398.553 217.126 389.166 208.913L286.804 119.346C278.598 112.166 273.337 107.582 269.046 104.373C264.968 101.325 263.051 100.527 261.957 100.204C258.01 99.0364 253.796 99.0363 249.849 100.204C248.758 100.526 246.846 101.322 242.776 104.366C238.492 107.57 233.24 112.146 225.045 119.316L122.648 208.913C113.264 217.124 111.503 218.893 110.318 220.639C108.934 222.678 107.925 224.903 107.32 227.217C106.79 229.249 106.628 231.712 106.628 244.223V405.184H191.929V341.208C191.929 305.875 220.572 277.232 255.905 277.232C291.238 277.232 319.882 305.875 319.882 341.208V405.184ZM447.834 405.184H469.159C480.937 405.184 490.484 414.733 490.484 426.51C490.484 438.288 480.937 447.835 469.159 447.835H42.6514C30.8738 447.835 21.3264 438.288 21.3262 426.51C21.3262 414.733 30.8737 405.184 42.6514 405.184H63.9766V244.223C63.9766 233.945 63.8145 225.007 66.0547 216.434C67.9056 209.351 70.9591 202.681 75.0303 196.684C80.0013 189.361 86.7965 183.611 94.5635 176.815L196.959 87.2182C204.662 80.4783 211.333 74.6209 217.235 70.2075C223.352 65.6339 229.892 61.6282 237.754 59.3032C249.596 55.8013 262.211 55.8013 274.053 59.3032C281.917 61.629 288.461 65.6366 294.584 70.2143C300.493 74.6324 307.174 80.4962 314.89 87.2475L417.252 176.815C425.016 183.608 431.815 189.361 436.786 196.684C440.881 202.717 443.906 209.392 445.746 216.434C447.984 225 447.834 233.913 447.834 244.223V405.184Z" fill="white"/>
</svg>
