<svg width="512" height="512" viewBox="0 0 512 512" fill="none" xmlns="http://www.w3.org/2000/svg">
<path d="M405.183 244.223C405.183 231.72 405.02 229.246 404.49 227.217C403.882 224.889 402.874 222.667 401.497 220.639C400.313 218.894 398.553 217.126 389.166 208.912L286.804 119.346C278.598 112.166 273.336 107.582 269.045 104.373C264.968 101.325 263.052 100.527 261.957 100.203C258.01 99.0361 253.796 99.0361 249.849 100.203C248.758 100.526 246.847 101.322 242.777 104.366C238.492 107.569 233.239 112.145 225.044 119.316L122.649 208.912C113.247 217.139 111.49 218.898 110.308 220.639C108.939 222.655 107.932 224.875 107.32 227.217C106.79 229.249 106.627 231.712 106.627 244.223V358.271C106.627 370.565 106.644 378.506 107.138 384.551C107.611 390.348 108.415 392.498 108.951 393.551C110.995 397.562 114.253 400.819 118.267 402.865C119.316 403.399 121.461 404.202 127.246 404.675C133.28 405.168 141.206 405.184 153.478 405.184H358.343C370.615 405.184 378.536 405.168 384.565 404.675C390.343 404.203 392.485 403.401 393.537 402.865C397.563 400.813 400.826 397.55 402.863 393.551C403.399 392.501 404.2 390.357 404.673 384.574C405.166 378.541 405.183 370.617 405.183 358.345V244.223ZM283.476 219.501C291.804 211.173 305.307 211.173 313.635 219.501C321.963 227.829 321.963 241.332 313.635 249.66L286.064 277.232L313.635 304.803C321.963 313.131 321.963 326.633 313.635 334.961C305.307 343.289 291.804 343.289 283.476 334.961L255.904 307.39L228.334 334.961C220.006 343.289 206.503 343.289 198.175 334.961C189.847 326.633 189.847 313.131 198.175 304.803L225.746 277.232L198.175 249.66C189.847 241.332 189.847 227.829 198.175 219.501C206.503 211.173 220.006 211.173 228.334 219.501L255.904 247.073L283.476 219.501ZM447.834 358.345C447.834 369.913 447.851 379.875 447.183 388.048C446.494 396.469 444.974 404.85 440.865 412.914C434.725 424.966 424.924 434.74 412.9 440.867C404.837 444.974 396.462 446.495 388.041 447.184C379.871 447.852 369.911 447.835 358.343 447.835H153.478C141.91 447.835 131.946 447.852 123.773 447.184C115.351 446.496 106.968 444.976 98.9035 440.867C86.867 434.734 77.0837 424.953 70.9494 412.914C66.8374 404.844 65.3167 396.455 64.6281 388.024C63.9597 379.84 63.9767 369.862 63.9767 358.271V244.223C63.9767 233.945 63.8146 225.007 66.0548 216.434C67.8986 209.378 70.9325 202.705 75.0197 196.684C79.9938 189.356 86.8136 183.595 94.5626 176.815L196.959 87.2181C204.662 80.4782 211.333 74.6207 217.236 70.2074C223.352 65.6338 229.892 61.628 237.754 59.3031C249.595 55.8013 262.21 55.8013 274.052 59.3031C281.917 61.6289 288.461 65.6364 294.584 70.2142C300.494 74.6323 307.174 80.496 314.89 87.2474L417.251 176.814C424.773 183.395 431.389 189 436.315 196.002L436.786 196.684L437.538 197.819C441.24 203.529 444.024 209.806 445.756 216.434C447.996 225.005 447.834 233.958 447.834 244.223V358.345Z" fill="white"/>
</svg>
