<svg width="512" height="512" viewBox="0 0 512 512" fill="none" xmlns="http://www.w3.org/2000/svg">
<path d="M405.182 244.223C405.182 231.744 405.013 229.256 404.48 227.217C403.865 224.862 402.857 222.643 401.497 220.639C400.312 218.894 398.552 217.126 389.166 208.912L286.803 119.346C278.597 112.166 273.336 107.582 269.045 104.373C264.967 101.325 263.051 100.527 261.957 100.203C258.009 99.0361 253.796 99.0361 249.848 100.203C248.758 100.526 246.846 101.322 242.776 104.366C238.491 107.569 233.239 112.145 225.044 119.316L122.648 208.912C113.264 217.124 111.503 218.893 110.318 220.639C108.934 222.678 107.925 224.903 107.32 227.217C106.789 229.249 106.627 231.712 106.627 244.223V358.271C106.627 370.565 106.644 378.506 107.137 384.551C107.611 390.348 108.414 392.498 108.951 393.551C110.995 397.562 114.252 400.819 118.266 402.865C119.316 403.399 121.46 404.202 127.246 404.675C133.28 405.168 141.206 405.184 153.477 405.184H358.333C370.605 405.184 378.526 405.168 384.554 404.675C390.332 404.203 392.474 403.401 393.526 402.865C397.563 400.808 400.831 397.539 402.863 393.551C403.398 392.501 404.2 390.357 404.673 384.574C405.166 378.541 405.182 370.617 405.182 358.345V244.223ZM319.881 255.907C331.658 255.907 341.207 265.454 341.207 277.232C341.207 289.009 331.658 298.557 319.881 298.557H191.928C180.151 298.557 170.603 289.009 170.603 277.232C170.603 265.454 180.151 255.907 191.928 255.907H319.881ZM447.834 358.345C447.834 369.913 447.85 379.875 447.182 388.048C446.494 396.469 444.974 404.85 440.865 412.914C434.719 424.976 424.903 434.745 412.889 440.867C404.827 444.975 396.451 446.495 388.03 447.184C379.86 447.852 369.9 447.835 358.333 447.835H153.477C141.909 447.835 131.946 447.852 123.772 447.184C115.351 446.496 106.968 444.976 98.903 440.867C86.8665 434.734 77.0832 424.953 70.9489 412.914C66.8369 404.844 65.3163 396.455 64.6276 388.024C63.9592 379.84 63.9762 369.862 63.9762 358.271V244.223C63.9762 233.945 63.8141 225.007 66.0543 216.434C67.9053 209.351 70.9587 202.681 75.0299 196.684C80.0008 189.361 86.7953 183.611 94.5622 176.815L196.959 87.2181C204.661 80.4782 211.333 74.6207 217.235 70.2074C223.352 65.6338 229.892 61.628 237.754 59.3031C249.595 55.8013 262.21 55.8013 274.051 59.3031C281.916 61.6289 288.461 65.6364 294.584 70.2142C300.493 74.6323 307.173 80.496 314.889 87.2474L417.251 176.814C424.772 183.395 431.388 189 436.314 196.002L436.786 196.684L437.541 197.823C441.254 203.552 444.02 209.832 445.745 216.434C447.983 225 447.834 233.913 447.834 244.223V358.345Z" fill="white"/>
</svg>
