<svg width="512" height="512" viewBox="0 0 512 512" fill="none" xmlns="http://www.w3.org/2000/svg">
<path d="M182.958 44.6292C188.836 41.903 195.649 41.9937 201.465 44.9017L319.88 104.11L438.296 44.9017C444.907 41.5965 452.757 41.9498 459.044 45.8352C465.332 49.7209 469.159 56.585 469.159 63.9759V383.857C469.159 391.934 464.595 399.319 457.371 402.931L329.417 466.908C323.414 469.909 316.348 469.909 310.344 466.908L191.928 407.699L73.5132 466.908C66.9026 470.213 59.0512 469.86 52.7642 465.974C46.4772 462.088 42.6509 455.224 42.6509 447.833V127.952C42.6509 119.875 47.2143 112.491 54.439 108.878L182.391 44.9017L182.958 44.6292ZM85.3013 141.131V413.327L170.603 370.676V98.4808L85.3013 141.131ZM213.253 370.676L298.555 413.327V141.131L213.253 98.4808V370.676ZM341.207 141.131V413.327L426.508 370.676V98.4808L341.207 141.131Z" fill="white"/>
</svg>
