<svg width="512" height="512" viewBox="0 0 512 512" fill="none" xmlns="http://www.w3.org/2000/svg">
<path d="M85.3018 211.609C85.3018 166.72 103.334 123.725 135.354 92.0581C167.365 60.3984 210.735 42.6509 255.906 42.6509C301.078 42.6509 344.443 60.3954 376.455 92.0552C408.476 123.724 426.506 166.731 426.506 211.618C426.506 269.545 401.245 321.142 372.23 361.483C343.108 401.973 308.935 432.9 288.116 449.947C283.261 453.922 276.856 459.601 267.463 462.246C260.352 464.247 251.45 464.247 244.34 462.246C234.944 459.6 228.501 453.877 223.696 449.943C202.877 432.896 168.703 401.967 139.58 361.476C110.564 321.134 85.3018 269.536 85.3018 211.609ZM277.23 191.928C277.23 180.151 267.682 170.603 255.904 170.603C244.127 170.603 234.579 180.151 234.579 191.928C234.579 203.706 244.127 213.253 255.904 213.253C267.682 213.253 277.23 203.706 277.23 191.928ZM127.952 211.609C127.952 257.148 147.947 300.065 174.205 336.573C200.355 372.931 231.472 401.185 250.717 416.943C252.194 418.152 253.281 419.042 254.234 419.792C255.009 420.403 255.536 420.793 255.906 421.052C256.273 420.796 256.799 420.409 257.574 419.798C258.526 419.049 259.615 418.159 261.096 416.947C280.341 401.189 311.456 372.935 337.605 336.579C363.862 300.073 383.855 257.157 383.855 211.618C383.855 178.193 370.433 146.086 346.464 122.38C322.486 98.6655 289.917 85.3013 255.906 85.3013C221.896 85.3013 189.323 98.6684 165.345 122.383C141.374 146.091 127.952 178.187 127.952 211.609ZM319.881 191.928C319.881 227.261 291.237 255.905 255.904 255.905C220.571 255.905 191.929 227.261 191.929 191.928C191.929 156.595 220.572 127.953 255.904 127.953C291.237 127.953 319.881 156.595 319.881 191.928Z" fill="white"/>
</svg>
