<svg width="512" height="512" viewBox="0 0 512 512" fill="none" xmlns="http://www.w3.org/2000/svg">
<path d="M319.881 294.356V179.436L249.658 249.658C241.33 257.986 227.827 257.986 219.499 249.658C211.171 241.33 211.171 227.828 219.499 219.5L326.127 112.873L326.521 112.488C334.875 104.547 348.087 104.675 356.285 112.873L462.912 219.5C471.24 227.828 471.24 241.33 462.912 249.658C454.584 257.986 441.082 257.986 432.754 249.658L362.531 179.436V294.356C362.531 305.924 362.548 315.885 361.88 324.056C361.191 332.476 359.671 340.854 355.562 348.917C349.429 360.955 339.629 370.755 327.591 376.889C319.528 380.997 311.15 382.517 302.729 383.205C294.559 383.873 284.598 383.857 273.03 383.857H63.9756C52.1979 383.857 42.6504 374.309 42.6504 362.531C42.6506 350.754 52.198 341.206 63.9756 341.206H273.03C285.302 341.206 293.225 341.189 299.255 340.696C305.035 340.224 307.177 339.422 308.229 338.887C312.241 336.842 315.516 333.566 317.561 329.554C318.096 328.502 318.899 326.36 319.371 320.58C319.864 314.55 319.881 306.628 319.881 294.356Z" fill="white"/>
</svg>
