<svg width="512" height="512" viewBox="0 0 512 512" fill="none" xmlns="http://www.w3.org/2000/svg">
<path d="M234.58 447.834V115.46L164.357 185.682C156.029 194.01 142.527 194.01 134.199 185.682C125.871 177.354 125.871 163.852 134.199 155.524L240.826 48.8972L241.205 48.5271C245.164 44.7594 250.426 42.6511 255.905 42.6511C261.561 42.6511 266.985 44.8979 270.984 48.8972L377.611 155.524C385.939 163.852 385.939 177.354 377.611 185.682C369.283 194.01 355.781 194.01 347.453 185.682L277.23 115.46V447.834C277.23 459.611 267.682 469.159 255.905 469.159C244.127 469.159 234.58 459.611 234.58 447.834Z" fill="white"/>
</svg>
