<svg width="512" height="512" viewBox="0 0 512 512" fill="none" xmlns="http://www.w3.org/2000/svg">
<path d="M376.534 105.106C384.862 96.7776 398.365 96.7776 406.693 105.106C415.021 113.434 415.021 126.936 406.693 135.264L171.669 370.289H270.979C282.756 370.289 292.305 379.838 292.305 391.615C292.304 403.393 282.756 412.941 270.979 412.941H120.186C114.53 412.941 109.106 410.694 105.106 406.695C101.107 402.695 98.8604 397.271 98.8604 391.615V240.817C98.8606 229.039 108.408 219.491 120.186 219.491C131.963 219.491 141.511 229.039 141.511 240.817V340.131L376.534 105.106Z" fill="white"/>
</svg>
