<svg width="512" height="512" viewBox="0 0 512 512" fill="none" xmlns="http://www.w3.org/2000/svg">
<path d="M262.151 219.5C270.48 211.172 283.983 211.172 292.311 219.5L398.938 326.127C407.265 334.456 407.265 347.958 398.938 356.286L292.311 462.913C283.983 471.241 270.479 471.241 262.151 462.913C253.823 454.585 253.824 441.083 262.151 432.754L332.374 362.532H217.454C205.886 362.532 195.923 362.548 187.749 361.88C179.328 361.192 170.945 359.672 162.88 355.563C150.823 349.42 141.05 339.611 134.926 327.591C130.815 319.524 129.294 311.141 128.605 302.71C127.936 294.53 127.953 284.556 127.953 272.965V63.9761C127.953 52.1984 137.501 42.6509 149.278 42.6509C161.056 42.6509 170.604 52.1984 170.604 63.9761V272.965C170.604 285.261 170.621 293.197 171.114 299.237C171.587 305.026 172.39 307.173 172.928 308.229C174.982 312.26 178.249 315.526 182.243 317.561C183.293 318.096 185.437 318.899 191.223 319.372C197.256 319.865 205.183 319.881 217.454 319.881H332.374L262.151 249.659C253.823 241.331 253.823 227.828 262.151 219.5Z" fill="white"/>
</svg>
