<svg width="512" height="512" viewBox="0 0 512 512" fill="none" xmlns="http://www.w3.org/2000/svg">
<path d="M341.206 447.837V238.779C341.206 226.507 341.189 218.581 340.696 212.547C340.223 206.762 339.421 204.618 338.887 203.568C336.852 199.574 333.585 196.307 329.554 194.252C328.498 193.715 326.35 192.912 320.561 192.439C314.522 191.945 306.585 191.928 294.29 191.928H179.436L249.658 262.151C257.986 270.479 257.986 283.981 249.658 292.309C241.33 300.637 227.828 300.637 219.5 292.309L112.873 185.682C104.545 177.354 104.545 163.852 112.873 155.524L219.5 48.897C227.828 40.5689 241.33 40.5689 249.658 48.897C257.986 57.2251 257.986 70.7271 249.658 79.0552L179.436 149.278H294.29C305.881 149.278 315.856 149.261 324.036 149.929C332.466 150.618 340.849 152.14 348.917 156.251C360.936 162.375 370.746 172.148 376.889 184.205C380.998 192.27 382.518 200.652 383.206 209.074C383.874 217.247 383.857 227.211 383.857 238.779V447.837C383.857 459.615 374.309 469.163 362.531 469.163C350.754 469.162 341.206 459.615 341.206 447.837Z" fill="white"/>
</svg>
