<svg width="512" height="512" viewBox="0 0 512 512" fill="none" xmlns="http://www.w3.org/2000/svg">
<path d="M426.51 255.905C426.51 161.683 350.128 85.3013 255.906 85.3013C161.685 85.3013 85.3027 161.683 85.3027 255.905C85.3028 350.126 161.685 426.508 255.906 426.508C350.128 426.508 426.51 350.126 426.51 255.905ZM262.152 176.849C270.48 168.521 283.982 168.521 292.311 176.849L356.287 240.826C364.615 249.154 364.615 262.656 356.287 270.984L292.311 334.96C283.982 343.288 270.48 343.288 262.152 334.96C253.824 326.632 253.824 313.129 262.152 304.801L289.724 277.23H170.604C158.827 277.23 149.279 267.682 149.279 255.905C149.279 244.127 158.827 234.58 170.604 234.58H289.724L262.152 207.008C253.824 198.68 253.824 185.177 262.152 176.849ZM469.16 255.905C469.16 373.682 373.683 469.159 255.906 469.159C138.129 469.159 42.6524 373.682 42.6523 255.905C42.6523 138.128 138.129 42.6509 255.906 42.6509C373.683 42.6509 469.16 138.128 469.16 255.905Z" fill="white"/>
</svg>
