<svg width="512" height="512" viewBox="0 0 512 512" fill="none" xmlns="http://www.w3.org/2000/svg">
<path d="M42.6514 298.555C42.6514 227.889 99.9374 170.603 170.604 170.603H396.351L347.453 121.706C339.125 113.378 339.125 99.8757 347.453 91.5476C355.781 83.2195 369.283 83.2195 377.611 91.5476L462.913 176.849C471.241 185.177 471.241 198.68 462.913 207.008L377.611 292.309C369.283 300.637 355.781 300.637 347.453 292.309C339.125 283.981 339.125 270.478 347.453 262.15L396.351 213.254H170.604C123.493 213.254 85.3018 251.445 85.3018 298.555C85.3018 345.666 123.493 383.857 170.604 383.857H277.23C289.008 383.857 298.556 393.405 298.556 405.182C298.556 416.96 289.008 426.508 277.23 426.508H170.604C99.9374 426.508 42.6514 369.221 42.6514 298.555Z" fill="white"/>
</svg>
