<svg width="512" height="512" viewBox="0 0 512 512" fill="none" xmlns="http://www.w3.org/2000/svg">
<path d="M426.51 255.905C426.51 161.683 350.128 85.3013 255.906 85.3013C161.685 85.3013 85.3027 161.683 85.3027 255.905C85.3028 350.126 161.685 426.508 255.906 426.508C350.128 426.508 426.51 350.126 426.51 255.905ZM234.581 341.207V222.086L207.01 249.659C198.682 257.987 185.179 257.987 176.851 249.659C168.523 241.331 168.523 227.828 176.851 219.5L240.827 155.524L241.221 155.139C249.575 147.197 262.787 147.326 270.985 155.524L334.962 219.5C343.29 227.828 343.29 241.331 334.962 249.659C326.634 257.987 313.131 257.987 304.803 249.659L277.231 222.086V341.207C277.231 352.984 267.684 362.532 255.906 362.532C244.129 362.532 234.581 352.984 234.581 341.207ZM469.16 255.905C469.16 373.682 373.683 469.159 255.906 469.159C138.129 469.159 42.6524 373.682 42.6523 255.905C42.6523 138.128 138.129 42.6509 255.906 42.6509C373.683 42.6509 469.16 138.128 469.16 255.905Z" fill="white"/>
</svg>
