<svg width="512" height="512" viewBox="0 0 512 512" fill="none" xmlns="http://www.w3.org/2000/svg">
<path d="M219.5 219.5C227.828 211.172 241.33 211.172 249.658 219.5C257.986 227.828 257.986 241.331 249.658 249.659L179.436 319.881H294.357C306.628 319.881 314.55 319.865 320.58 319.372C326.36 318.899 328.502 318.097 329.554 317.561C333.566 315.517 336.842 312.242 338.887 308.229C339.423 307.178 340.224 305.035 340.696 299.255C341.189 293.225 341.206 285.303 341.206 273.031V63.9761C341.206 52.1985 350.754 42.651 362.531 42.6509C374.309 42.6509 383.858 52.1984 383.858 63.9761V273.031C383.858 284.599 383.873 294.559 383.205 302.73C382.517 311.151 380.997 319.528 376.889 327.591C370.755 339.629 360.955 349.429 348.917 355.563C340.854 359.671 332.477 361.192 324.056 361.88C315.885 362.548 305.924 362.532 294.357 362.532H179.436L249.658 432.754C257.986 441.082 257.986 454.585 249.658 462.913C241.33 471.241 227.828 471.241 219.5 462.913L112.873 356.286C104.545 347.958 104.545 334.456 112.873 326.127L219.5 219.5Z" fill="white"/>
</svg>
