<svg width="512" height="512" viewBox="0 0 512 512" fill="none" xmlns="http://www.w3.org/2000/svg">
<path d="M127.954 447.837V238.848C127.954 227.257 127.937 217.279 128.606 209.095C129.294 200.664 130.815 192.275 134.927 184.205C141.06 172.167 150.843 162.384 162.881 156.251C170.951 152.139 179.34 150.618 187.772 149.929C195.955 149.261 205.933 149.278 217.524 149.278H332.375L262.152 79.0552C253.824 70.7272 253.824 57.2251 262.152 48.897C270.48 40.5689 283.983 40.5689 292.312 48.897L398.939 155.524C407.266 163.852 407.266 177.354 398.939 185.682L292.312 292.309C283.983 300.637 270.48 300.637 262.152 292.309C253.825 283.981 253.824 270.479 262.152 262.151L332.375 191.928H217.524C205.23 191.928 197.288 191.945 191.243 192.439C185.447 192.912 183.297 193.716 182.244 194.252C178.232 196.297 174.973 199.555 172.929 203.568C172.392 204.621 171.589 206.77 171.115 212.567C170.622 218.612 170.605 226.553 170.605 238.848V447.837C170.605 459.615 161.057 469.163 149.279 469.163C137.502 469.163 127.954 459.615 127.954 447.837Z" fill="white"/>
</svg>
