<svg width="512" height="512" viewBox="0 0 512 512" fill="none" xmlns="http://www.w3.org/2000/svg">
<path d="M138.616 304.953V190.099L68.393 260.321C60.0649 268.649 46.5629 268.649 38.2348 260.321C29.9068 251.993 29.9067 238.491 38.2348 230.163L144.862 123.536L145.255 123.151C153.61 115.21 166.822 115.338 175.02 123.536L281.647 230.163C289.975 238.491 289.975 251.993 281.647 260.321C273.319 268.649 259.817 268.649 251.489 260.321L181.266 190.099V304.953C181.266 317.248 181.283 325.185 181.777 331.225C182.25 337.014 183.052 339.161 183.59 340.217C185.644 344.248 188.912 347.515 192.906 349.55C193.955 350.085 196.1 350.887 201.885 351.359C207.919 351.853 215.845 351.869 228.117 351.869H437.175C448.953 351.869 458.5 361.417 458.5 373.194C458.5 384.972 448.953 394.521 437.175 394.521H228.117C216.549 394.521 206.585 394.537 198.412 393.869C189.99 393.181 181.607 391.661 173.542 387.552C161.486 381.409 151.712 371.599 145.588 359.58C141.478 351.512 139.956 343.13 139.267 334.699C138.599 326.519 138.616 316.544 138.616 304.953Z" fill="white"/>
</svg>
