<svg width="512" height="512" viewBox="0 0 512 512" fill="none" xmlns="http://www.w3.org/2000/svg">
<path d="M326.127 262.15C334.455 253.822 347.958 253.822 356.286 262.15L420.262 326.126C428.59 334.455 428.59 347.958 420.262 356.286L356.286 420.261C347.958 428.589 334.455 428.589 326.127 420.261C317.799 411.933 317.799 398.431 326.127 390.103L353.698 362.532H106.627C94.8493 362.532 85.3018 352.983 85.3018 341.206C85.3019 329.428 94.8494 319.88 106.627 319.88H353.698L326.127 292.309C317.799 283.981 317.799 270.478 326.127 262.15ZM155.523 91.5473C163.852 83.2192 177.355 83.2192 185.683 91.5473C194.01 99.8754 194.01 113.377 185.683 121.706L158.111 149.277H405.183C416.96 149.277 426.508 158.825 426.508 170.603C426.508 182.381 416.96 191.928 405.183 191.928H158.111L185.683 219.499C194.011 227.828 194.011 241.331 185.683 249.659C177.355 257.987 163.851 257.987 155.523 249.659L91.5479 185.682C83.2198 177.354 83.2198 163.851 91.5479 155.523L155.523 91.5473Z" fill="white"/>
</svg>
