<svg width="512" height="512" viewBox="0 0 512 512" fill="none" xmlns="http://www.w3.org/2000/svg">
<path d="M42.6514 213.254C42.6514 142.588 99.9374 85.3023 170.604 85.3022H277.23C289.008 85.3022 298.556 94.8497 298.556 106.627C298.556 118.405 289.008 127.953 277.23 127.953H170.604C123.493 127.953 85.3018 166.144 85.3018 213.254C85.3018 260.365 123.493 298.556 170.604 298.556H396.351L347.453 249.66C339.125 241.332 339.125 227.829 347.453 219.5C355.781 211.173 369.283 211.173 377.611 219.5L462.913 304.802C471.241 313.13 471.241 326.632 462.913 334.96L377.611 420.262C369.283 428.59 355.781 428.59 347.453 420.262C339.125 411.934 339.125 398.432 347.453 390.104L396.351 341.207H170.604C99.9374 341.207 42.6514 283.921 42.6514 213.254Z" fill="white"/>
</svg>
