<svg width="512" height="512" viewBox="0 0 512 512" fill="none" xmlns="http://www.w3.org/2000/svg">
<path d="M159.941 206.86C159.941 195.269 159.924 185.291 160.592 177.108C161.281 168.676 162.802 160.287 166.914 152.217C173.047 140.179 182.83 130.396 194.868 124.263C202.938 120.151 211.327 118.63 219.758 117.942C227.942 117.273 237.92 117.29 249.511 117.29H458.5C470.278 117.29 479.826 126.838 479.826 138.615C479.826 150.393 470.278 159.941 458.5 159.941H249.511C237.216 159.941 229.275 159.958 223.23 160.451C217.433 160.925 215.284 161.728 214.231 162.265C210.218 164.309 206.96 167.568 204.915 171.58C204.379 172.633 203.575 174.783 203.102 180.579C202.608 186.624 202.591 194.566 202.591 206.86V321.711L272.814 251.488C281.142 243.16 294.644 243.161 302.972 251.488C311.3 259.816 311.3 273.319 302.972 281.648L196.345 388.275C188.017 396.602 174.515 396.602 166.187 388.275L59.56 281.648C51.2319 273.319 51.2319 259.816 59.56 251.488C67.8881 243.16 81.3902 243.16 89.7182 251.488L159.941 321.711V206.86Z" fill="white"/>
</svg>
