<svg width="512" height="512" viewBox="0 0 512 512" fill="none" xmlns="http://www.w3.org/2000/svg">
<path d="M426.508 255.905C426.508 161.683 350.126 85.3016 255.905 85.3015C161.683 85.3015 85.3013 161.683 85.3013 255.905C85.3013 350.127 161.683 426.509 255.905 426.509C350.126 426.508 426.508 350.127 426.508 255.905ZM176.849 176.849C185.177 168.521 198.68 168.521 207.008 176.849L298.555 268.396V234.58C298.555 222.802 308.104 213.254 319.881 213.254C331.659 213.254 341.207 222.802 341.207 234.58V319.882C341.206 331.659 331.659 341.207 319.881 341.207H234.58C222.802 341.207 213.254 331.659 213.253 319.882C213.253 308.104 222.802 298.555 234.58 298.555H268.396L176.849 207.009C168.521 198.68 168.521 185.177 176.849 176.849ZM469.159 255.905C469.159 373.682 373.682 469.159 255.905 469.159C138.128 469.159 42.6509 373.682 42.6509 255.905C42.6509 138.128 138.128 42.6511 255.905 42.6511C373.682 42.6512 469.159 138.128 469.159 255.905Z" fill="white"/>
</svg>
