<svg width="512" height="512" viewBox="0 0 512 512" fill="none" xmlns="http://www.w3.org/2000/svg">
<path d="M426.508 298.555C426.508 251.445 388.317 213.254 341.207 213.254H115.46L164.357 262.15C172.685 270.478 172.685 283.981 164.357 292.309C156.029 300.637 142.527 300.637 134.199 292.309L48.8971 207.007C40.569 198.679 40.569 185.177 48.8971 176.849L134.199 91.5475C142.527 83.2195 156.029 83.2195 164.357 91.5475C172.685 99.8756 172.685 113.378 164.357 121.706L115.46 170.603H341.207C411.873 170.603 469.159 227.889 469.159 298.555C469.159 369.221 411.873 426.507 341.207 426.508H234.58C222.802 426.508 213.254 416.96 213.254 405.182C213.254 393.405 222.802 383.857 234.58 383.857H341.207C388.317 383.857 426.508 345.666 426.508 298.555Z" fill="white"/>
</svg>
