<svg width="512" height="512" viewBox="0 0 512 512" fill="none" xmlns="http://www.w3.org/2000/svg">
<path d="M426.508 255.904C426.508 161.682 350.126 85.3 255.904 85.3C161.683 85.3 85.3008 161.682 85.3008 255.904C85.3008 350.125 161.683 426.507 255.904 426.507C350.126 426.507 426.508 350.125 426.508 255.904ZM241.219 197.789C249.573 189.847 262.785 189.975 270.983 198.173L334.96 262.15C343.288 270.478 343.288 283.98 334.96 292.308C326.632 300.636 313.129 300.636 304.801 292.308L255.904 243.411L207.008 292.308C198.68 300.636 185.177 300.636 176.849 292.308C168.521 283.98 168.521 270.478 176.849 262.15L240.825 198.173L241.219 197.789ZM469.158 255.904C469.158 373.68 373.681 469.157 255.904 469.157C138.127 469.157 42.6504 373.68 42.6504 255.904C42.6504 138.127 138.127 42.6496 255.904 42.6496C373.681 42.6496 469.158 138.127 469.158 255.904Z" fill="white"/>
</svg>
