<svg width="512" height="512" viewBox="0 0 512 512" fill="none" xmlns="http://www.w3.org/2000/svg">
<path d="M426.508 255.905C426.508 161.684 350.126 85.3019 255.905 85.3019C161.683 85.3019 85.3014 161.684 85.3014 255.905C85.3014 350.127 161.683 426.509 255.905 426.509C350.126 426.509 426.508 350.127 426.508 255.905ZM304.801 219.5C313.129 211.172 326.633 211.172 334.961 219.5C343.289 227.828 343.289 241.331 334.961 249.659L270.984 313.636C262.656 321.964 249.154 321.963 240.826 313.636L176.849 249.659C168.521 241.331 168.521 227.828 176.849 219.5C185.177 211.172 198.68 211.172 207.008 219.5L255.905 268.397L304.801 219.5ZM469.159 255.905C469.159 373.682 373.682 469.159 255.905 469.159C138.128 469.159 42.6511 373.682 42.651 255.905C42.651 138.128 138.128 42.6515 255.905 42.6515C373.682 42.6515 469.159 138.128 469.159 255.905Z" fill="white"/>
</svg>
