<svg width="512" height="512" viewBox="0 0 512 512" fill="none" xmlns="http://www.w3.org/2000/svg">
<path d="M134.199 155.524C142.527 147.196 156.029 147.196 164.357 155.524L249.657 240.824C257.985 249.152 257.985 262.654 249.657 270.982L164.357 356.282C156.029 364.61 142.527 364.61 134.199 356.282C125.871 347.954 125.871 334.452 134.199 326.124L204.42 255.903L134.199 185.683C125.871 177.354 125.871 163.852 134.199 155.524ZM262.148 155.524C270.477 147.196 283.979 147.196 292.308 155.524L377.607 240.824C385.935 249.152 385.935 262.654 377.607 270.982L292.308 356.282C283.979 364.61 270.477 364.61 262.148 356.282C253.821 347.954 253.821 334.452 262.148 326.124L332.369 255.903L262.148 185.683C253.821 177.355 253.821 163.852 262.148 155.524Z" fill="white"/>
</svg>
