<svg width="512" height="512" viewBox="0 0 512 512" fill="none" xmlns="http://www.w3.org/2000/svg">
<path d="M255.903 255.901C261.559 255.901 266.983 258.148 270.982 262.147L356.282 347.447C364.61 355.775 364.61 369.278 356.282 377.606C347.954 385.934 334.452 385.934 326.124 377.606L255.903 307.385L185.683 377.606C177.355 385.934 163.852 385.934 155.524 377.606C147.196 369.278 147.196 355.775 155.524 347.447L240.824 262.147L241.203 261.778C245.163 258.01 250.424 255.901 255.903 255.901ZM241.218 133.813C249.572 125.871 262.784 126 270.982 134.198L356.282 219.498C364.61 227.826 364.61 241.328 356.282 249.656C347.954 257.984 334.452 257.984 326.124 249.656L255.903 179.435L185.683 249.656C177.354 257.984 163.852 257.984 155.524 249.656C147.196 241.328 147.196 227.826 155.524 219.498L240.824 134.198L241.218 133.813Z" fill="white"/>
</svg>
