<svg width="512" height="512" viewBox="0 0 512 512" fill="none" xmlns="http://www.w3.org/2000/svg">
<path d="M255.905 298.555C261.561 298.555 266.985 300.802 270.984 304.801L356.286 390.103C364.614 398.431 364.614 411.933 356.286 420.261C347.958 428.589 334.455 428.589 326.127 420.261L255.904 350.039L185.682 420.261C177.354 428.589 163.852 428.589 155.524 420.261C147.196 411.933 147.196 398.431 155.524 390.103L240.826 304.801L241.205 304.431C245.164 300.664 250.426 298.555 255.905 298.555ZM326.127 91.5473C334.455 83.2192 347.958 83.2192 356.286 91.5473C364.614 99.8754 364.614 113.377 356.286 121.706L270.984 207.007C266.985 211.007 261.561 213.253 255.905 213.253C250.249 213.253 244.825 211.006 240.826 207.007L155.524 121.706C147.196 113.377 147.196 99.8754 155.524 91.5473C163.852 83.2192 177.354 83.2192 185.682 91.5473L255.904 161.769L326.127 91.5473Z" fill="white"/>
</svg>
