<svg width="512" height="512" viewBox="0 0 512 512" fill="none" xmlns="http://www.w3.org/2000/svg">
<path d="M326.126 304.801C334.454 296.473 347.958 296.473 356.286 304.801C364.614 313.129 364.613 326.631 356.286 334.959L270.984 420.261C266.985 424.26 261.561 426.507 255.905 426.507C250.249 426.507 244.825 424.26 240.826 420.261L155.524 334.959C147.196 326.631 147.196 313.129 155.524 304.801C163.852 296.473 177.354 296.473 185.682 304.801L255.904 375.023L326.126 304.801ZM255.905 85.3013C261.561 85.3013 266.985 87.5481 270.984 91.5474L356.286 176.849C364.613 185.177 364.614 198.679 356.286 207.007C347.958 215.335 334.454 215.335 326.126 207.007L255.904 136.785L185.682 207.007C177.354 215.335 163.852 215.335 155.524 207.007C147.196 198.679 147.196 185.177 155.524 176.849L240.826 91.5474L241.205 91.1772C245.164 87.4096 250.426 85.3013 255.905 85.3013Z" fill="white"/>
</svg>
