<svg width="512" height="512" viewBox="0 0 512 512" fill="none" xmlns="http://www.w3.org/2000/svg">
<path d="M362.531 153.477C362.531 141.205 362.515 133.279 362.022 127.245C361.549 121.46 360.747 119.315 360.212 118.266C358.179 114.276 354.911 111.007 350.875 108.95C349.818 108.412 347.672 107.61 341.887 107.137C335.849 106.643 327.916 106.626 315.62 106.626H196.197C183.902 106.626 175.961 106.643 169.916 107.137C164.12 107.61 161.97 108.414 160.917 108.95C156.904 110.995 153.646 114.253 151.602 118.266C151.065 119.319 150.262 121.468 149.788 127.265C149.294 133.31 149.277 141.251 149.277 153.546V355.821C149.277 370.629 149.288 380.69 149.776 388.199C150.277 395.898 151.18 398.292 151.454 398.852C155.487 407.08 164.325 411.81 173.413 410.601C174.03 410.518 176.524 409.941 183.208 406.087C189.727 402.328 198.105 396.756 210.426 388.542L213.658 386.384C220.947 381.524 227.47 377.309 234.573 374.798C248.368 369.922 263.419 369.922 277.214 374.798C285.343 377.671 292.725 382.781 301.371 388.545C313.688 396.756 322.069 402.327 328.589 406.083C335.274 409.935 337.775 410.515 338.398 410.598C347.488 411.807 356.324 407.077 360.356 398.852C360.629 398.293 361.532 395.898 362.032 388.197C362.521 380.688 362.531 370.627 362.531 355.821V153.477ZM405.183 355.821C405.183 370.036 405.194 381.743 404.594 390.966C404.006 399.998 402.732 409.301 398.653 417.623C386.549 442.318 360.024 456.502 332.772 452.876C323.591 451.654 315.145 447.56 307.297 443.039C299.284 438.422 289.545 431.921 277.712 424.032C267.137 416.982 264.907 415.684 263.001 415.011C258.403 413.385 253.385 413.385 248.786 415.011C246.89 415.681 244.676 416.969 234.143 423.991L234.084 424.029C222.255 431.915 212.52 438.418 204.514 443.035C196.672 447.557 188.225 451.657 179.038 452.879C151.784 456.505 125.259 442.316 113.156 417.623C109.077 409.301 107.803 400 107.216 390.967C106.616 381.744 106.627 370.038 106.627 355.821V153.546C106.627 141.955 106.61 131.977 107.278 123.793C107.967 115.362 109.488 106.973 113.6 98.9024C119.733 86.8645 129.516 77.0819 141.554 70.9483C149.624 66.8363 158.013 65.3156 166.444 64.627C174.628 63.9586 184.606 63.9756 196.197 63.9756H315.62C327.211 63.9756 337.184 63.9584 345.362 64.627C353.792 65.3162 362.172 66.8381 370.238 70.9483C382.253 77.0701 392.069 86.8414 398.214 98.9024C402.323 106.967 403.843 115.35 404.531 123.772C405.199 131.945 405.183 141.908 405.183 153.477V355.821Z" fill="white"/>
</svg>
