<svg width="512" height="512" viewBox="0 0 512 512" fill="none" xmlns="http://www.w3.org/2000/svg">
<path d="M319.882 341.207H106.628V426.508H307.13C313.441 426.508 316.897 426.492 319.38 426.289C319.467 426.282 319.551 426.271 319.63 426.264C319.639 426.171 319.651 426.073 319.659 425.968C319.863 423.488 319.882 420.029 319.882 413.712V341.207ZM405.184 226.051C405.184 219.736 405.165 216.273 404.961 213.791C404.952 213.688 404.941 213.59 404.933 213.499C404.849 213.491 404.761 213.482 404.669 213.474C402.177 213.271 398.711 213.254 392.389 213.254H106.628V298.555H392.432C398.743 298.555 402.198 298.539 404.682 298.337C404.769 298.329 404.852 298.319 404.932 298.312C404.94 298.219 404.952 298.12 404.961 298.015C405.165 295.537 405.184 292.079 405.184 285.762V226.051ZM255.906 98.0992C255.906 91.7837 255.888 88.3212 255.684 85.8385C255.675 85.7354 255.664 85.6382 255.655 85.5465C255.572 85.5388 255.483 85.5287 255.391 85.5211C252.899 85.3178 249.433 85.3014 243.11 85.3014H106.628V170.603H255.906V98.0992ZM298.557 170.603H392.389C398.009 170.603 403.509 170.587 408.138 170.964C413.01 171.362 418.771 172.3 424.563 175.252C432.636 179.365 439.113 185.911 443.178 193.888C446.123 199.669 447.067 205.416 447.468 210.295C447.849 214.926 447.835 220.424 447.835 226.051V285.762C447.835 291.389 447.849 296.885 447.468 301.514C447.066 306.394 446.121 312.135 443.178 317.913C439.251 325.619 433.061 332.024 425.317 336.167L424.563 336.56C418.776 339.509 413.023 340.448 408.154 340.845C403.532 341.223 398.04 341.207 392.432 341.207H362.533V413.712C362.533 419.34 362.547 424.836 362.166 429.466C361.764 434.346 360.82 440.088 357.876 445.867C353.821 453.826 347.353 460.39 339.262 464.512C333.474 467.461 327.722 468.4 322.853 468.797C318.23 469.175 312.738 469.159 307.13 469.159H85.3027C73.5251 469.159 63.9776 459.611 63.9775 447.834V63.9762C63.9775 52.1985 73.525 42.651 85.3027 42.651H243.11C248.731 42.651 254.232 42.6346 258.86 43.0123C263.581 43.3975 269.134 44.2899 274.743 47.0289L275.286 47.2994L276.038 47.692C283.761 51.8231 289.963 58.208 293.9 65.9361L294.17 66.4781C296.904 72.0755 297.802 77.6165 298.19 82.3424C298.571 86.974 298.557 92.4717 298.557 98.0992V170.603Z" fill="white"/>
</svg>
