<svg width="512" height="512" viewBox="0 0 512 512" fill="none" xmlns="http://www.w3.org/2000/svg">
<path d="M426.508 204.726C426.508 198.411 426.488 194.948 426.284 192.466C426.276 192.363 426.265 192.265 426.256 192.174C426.173 192.166 426.085 192.156 425.992 192.148C423.501 191.945 420.035 191.929 413.712 191.929H341.206V405.182L426.508 405.183V204.726ZM85.3009 405.182H170.603V255.905H98.088C91.7642 255.905 88.3057 255.922 85.8214 256.125C85.7248 256.133 85.6335 256.142 85.547 256.15C85.5389 256.238 85.5286 256.331 85.5206 256.43C85.3174 258.917 85.3009 262.379 85.3009 268.702V405.182ZM298.555 119.425C298.555 113.109 298.536 109.647 298.332 107.164C298.324 107.061 298.312 106.964 298.304 106.873C298.217 106.865 298.126 106.854 298.029 106.847C295.539 106.643 292.074 106.627 285.751 106.627H226.04C219.717 106.627 216.259 106.644 213.775 106.847C213.678 106.854 213.587 106.864 213.5 106.872C213.492 106.96 213.482 107.053 213.474 107.151C213.271 109.639 213.253 113.101 213.253 119.425V405.182H298.555V119.425ZM341.206 149.278H413.712C419.333 149.278 424.833 149.261 429.462 149.639C434.182 150.024 439.735 150.917 445.344 153.656L445.887 153.927L446.64 154.319C454.363 158.45 460.563 164.835 464.501 172.563C467.447 178.344 468.391 184.091 468.792 188.97C469.173 193.601 469.158 199.099 469.158 204.726V426.51C469.158 432.166 466.912 437.59 462.912 441.59C458.913 445.589 453.488 447.836 447.832 447.836L63.9757 447.834C52.198 447.834 42.6505 438.285 42.6505 426.508V268.702C42.6505 263.082 42.634 257.584 43.0118 252.958C43.4099 248.084 44.349 242.328 47.2989 236.539L47.6896 235.792C51.7973 228.109 58.1611 221.864 65.9357 217.902C71.722 214.954 77.4712 214.014 82.3468 213.615C86.9717 213.237 92.4685 213.254 98.088 213.254H170.603V119.425C170.603 113.805 170.586 108.306 170.964 103.68C171.362 98.8054 172.301 93.051 175.251 87.2616C179.34 79.2364 185.863 72.7139 193.888 68.6249L194.431 68.3544C200.033 65.6184 205.577 64.7238 210.3 64.3378C214.925 63.9598 220.421 63.9764 226.04 63.9764H285.751C291.371 63.9764 296.871 63.96 301.499 64.3378C306.22 64.7231 311.771 65.6161 317.379 68.3544L317.922 68.6249L318.672 69.0165C326.373 73.1345 332.598 79.5076 336.549 87.2616C339.494 93.0425 340.439 98.7895 340.84 103.668C341.221 108.299 341.206 113.797 341.206 119.425V149.278Z" fill="white"/>
</svg>
