<svg width="512" height="512" viewBox="0 0 512 512" fill="none" xmlns="http://www.w3.org/2000/svg">
<path d="M405.183 153.478C405.183 141.206 405.166 133.28 404.673 127.246C404.2 121.461 403.398 119.316 402.863 118.267C400.831 114.277 397.562 111.007 393.526 108.951C392.47 108.413 390.324 107.611 384.538 107.138C378.501 106.644 370.567 106.627 358.272 106.627H153.547C141.252 106.627 133.31 106.644 127.266 107.138C121.469 107.611 119.32 108.415 118.267 108.951C114.254 110.996 110.996 114.254 108.951 118.267C108.415 119.32 107.611 121.469 107.138 127.266C106.644 133.31 106.627 141.252 106.627 153.547V358.271C106.627 370.567 106.644 378.504 107.138 384.544C107.611 390.334 108.414 392.482 108.951 393.537C111.002 397.562 114.266 400.825 118.267 402.863C119.316 403.398 121.461 404.2 127.246 404.673C133.28 405.166 141.206 405.183 153.478 405.183H358.333C370.605 405.183 378.526 405.166 384.555 404.673C390.333 404.2 392.474 403.399 393.526 402.863C397.55 400.813 400.824 397.539 402.863 393.537C403.399 392.485 404.2 390.343 404.673 384.564C405.166 378.536 405.183 370.615 405.183 358.343V153.478ZM447.834 358.343C447.834 369.911 447.851 379.871 447.183 388.041C446.494 396.461 444.973 404.837 440.865 412.899C434.726 424.948 424.916 434.737 412.89 440.865C404.827 444.973 396.451 446.494 388.03 447.183C379.86 447.851 369.901 447.834 358.333 447.834H153.478C141.909 447.834 131.946 447.85 123.773 447.183C115.351 446.494 106.968 444.975 98.9034 440.865C86.8534 434.725 77.0767 424.925 70.9493 412.899C66.8385 404.831 65.3169 396.448 64.628 388.018C63.9595 379.837 63.9766 369.862 63.9766 358.271V153.547C63.9766 141.955 63.9596 131.978 64.628 123.794C65.3166 115.363 66.8373 106.974 70.9493 98.9033C77.0829 86.8654 86.8655 77.0828 98.9034 70.9492C106.974 66.8372 115.363 65.3166 123.794 64.6279C131.978 63.9595 141.955 63.9765 153.547 63.9765H358.272C369.862 63.9765 379.835 63.9593 388.014 64.6279C396.444 65.3171 404.823 66.8391 412.89 70.9492C424.904 77.071 434.72 86.8424 440.865 98.9033C444.975 106.968 446.494 115.351 447.183 123.772C447.851 131.946 447.834 141.909 447.834 153.478V358.343Z" fill="white"/>
</svg>
