<svg width="512" height="512" viewBox="0 0 512 512" fill="none" xmlns="http://www.w3.org/2000/svg">
<path d="M48.8974 251.176C57.2254 242.848 70.7275 242.848 79.0556 251.176L169.532 341.652C177.86 349.98 177.86 363.483 169.532 371.811C161.204 380.139 147.701 380.139 139.373 371.811L48.8974 281.334C40.5694 273.006 40.5693 259.504 48.8974 251.176ZM426.932 160.7C435.259 152.372 448.762 152.371 457.091 160.698C465.419 169.026 465.42 182.528 457.093 190.857L276.16 371.81C272.161 375.809 266.736 378.057 261.08 378.057C255.424 378.057 249.999 375.81 246 371.811L155.524 281.334C147.196 273.006 147.196 259.504 155.524 251.176C163.852 242.848 177.354 242.848 185.683 251.176L261.078 326.571L426.932 160.7ZM320.257 160.768C328.547 152.402 342.049 152.341 350.415 160.631C358.781 168.921 358.843 182.423 350.553 190.789L281.716 260.255C273.426 268.621 259.923 268.682 251.558 260.392C243.192 252.102 243.13 238.599 251.42 230.234L320.257 160.768Z" fill="white"/>
</svg>
