<svg width="512" height="512" viewBox="0 0 512 512" fill="none" xmlns="http://www.w3.org/2000/svg">
<path d="M42.6514 336.946V174.873C42.6514 163.281 42.6344 153.303 43.3028 145.12C43.9914 136.688 45.5121 128.299 49.6241 120.229C55.7577 108.191 65.5403 98.4086 77.5782 92.2749C85.6485 88.1629 94.0375 86.6423 102.469 85.9537C110.652 85.2852 120.63 85.3023 132.222 85.3023H379.597C391.188 85.3023 401.16 85.2851 409.339 85.9537C417.505 86.6213 425.625 88.0703 433.458 91.897L434.215 92.2749L435.335 92.8599C446.84 99.0101 456.237 108.545 462.19 120.229C466.3 128.294 467.82 136.677 468.508 145.098C469.176 153.272 469.159 163.235 469.159 174.803V337.018C469.159 348.586 469.176 358.545 468.508 366.715C467.819 375.136 466.299 383.512 462.19 391.575C456.051 403.624 446.242 413.413 434.215 419.541C426.153 423.648 417.777 425.168 409.356 425.857C401.186 426.525 391.226 426.508 379.658 426.508H132.152C120.584 426.508 110.621 426.525 102.447 425.857C94.0258 425.169 85.6431 423.65 77.5782 419.541C65.5282 413.401 55.7515 403.601 49.6241 391.575C45.5132 383.507 43.9917 375.123 43.3028 366.693C42.6342 358.512 42.6514 348.537 42.6514 336.946ZM234.58 298.556C246.358 298.556 255.905 308.104 255.905 319.881C255.905 331.659 246.358 341.206 234.58 341.207H149.278C137.501 341.207 127.953 331.659 127.953 319.881C127.953 308.104 137.501 298.556 149.278 298.556H234.58ZM132.222 127.953C119.927 127.953 111.985 127.97 105.94 128.463C100.144 128.937 97.9947 129.74 96.9414 130.277C92.9288 132.321 89.6706 135.58 87.626 139.592C87.0894 140.646 86.286 142.795 85.8125 148.591C85.3784 153.906 85.3171 160.687 85.3077 170.604H426.504C426.495 160.673 426.433 153.888 425.999 148.572C425.526 142.786 424.723 140.642 424.189 139.592C422.156 135.603 418.887 132.333 414.852 130.277C413.795 129.738 411.648 128.936 405.863 128.463C399.826 127.97 391.892 127.953 379.597 127.953H132.222ZM85.3018 336.946C85.3018 349.241 85.3189 357.179 85.8125 363.219C86.2857 369.009 87.0883 371.156 87.626 372.211C89.6767 376.236 92.9409 379.499 96.9414 381.538C97.9911 382.072 100.135 382.875 105.921 383.348C111.955 383.841 119.881 383.858 132.152 383.858H379.658C391.93 383.858 399.851 383.841 405.88 383.348C411.658 382.876 413.801 382.074 414.853 381.538C418.876 379.487 422.15 376.213 424.189 372.211C424.725 371.159 425.527 369.018 425.999 363.24C426.492 357.211 426.509 349.29 426.509 337.018V255.905H85.3018V336.946Z" fill="white"/>
</svg>
