<svg width="512" height="512" viewBox="0 0 512 512" fill="none" xmlns="http://www.w3.org/2000/svg">
<path d="M426.509 174.803C426.509 162.532 426.492 154.606 425.999 148.572C425.526 142.786 424.723 140.642 424.189 139.592C422.156 135.603 418.887 132.333 414.852 130.277C413.795 129.738 411.648 128.936 405.863 128.463C399.826 127.97 391.892 127.953 379.597 127.953H132.222C119.927 127.953 111.985 127.97 105.94 128.463C100.144 128.937 97.9947 129.74 96.9414 130.277C92.9288 132.321 89.6706 135.58 87.626 139.592C87.0894 140.646 86.286 142.795 85.8125 148.591C85.3188 154.636 85.3018 162.578 85.3018 174.873V336.946C85.3018 349.241 85.3189 357.179 85.8125 363.219C86.2857 369.009 87.0883 371.156 87.626 372.211C89.6767 376.236 92.9409 379.499 96.9414 381.538C97.9911 382.072 100.135 382.875 105.921 383.348C111.955 383.841 119.881 383.858 132.152 383.858H379.658C391.93 383.858 399.851 383.841 405.88 383.348C411.658 382.876 413.801 382.074 414.853 381.538C418.876 379.487 422.15 376.213 424.189 372.211C424.725 371.159 425.527 369.018 425.999 363.24C426.492 357.211 426.509 349.29 426.509 337.018V174.803ZM191.929 287.893C191.929 258.449 215.798 234.58 245.242 234.58C257.02 234.58 266.568 244.127 266.568 255.905C266.568 267.683 257.02 277.231 245.242 277.231C239.354 277.231 234.58 282.005 234.58 287.893C234.58 293.782 239.354 298.556 245.242 298.556C257.02 298.556 266.568 308.104 266.568 319.881C266.568 331.659 257.02 341.207 245.242 341.207C215.798 341.206 191.929 317.337 191.929 287.893ZM341.207 287.893C341.207 282.004 336.433 277.231 330.544 277.231C324.655 277.231 319.882 282.004 319.882 287.893C319.882 293.782 324.655 298.556 330.544 298.556C336.433 298.556 341.207 293.782 341.207 287.893ZM383.857 287.893C383.857 317.337 359.988 341.207 330.544 341.207C301.1 341.207 277.231 317.337 277.231 287.893C277.231 258.449 301.1 234.58 330.544 234.58C359.988 234.58 383.857 258.449 383.857 287.893ZM469.159 337.018C469.159 348.586 469.176 358.545 468.508 366.715C467.819 375.136 466.299 383.512 462.19 391.575C456.051 403.624 446.242 413.413 434.215 419.541C426.153 423.648 417.777 425.168 409.356 425.857C401.186 426.525 391.226 426.508 379.658 426.508H132.152C120.584 426.508 110.621 426.525 102.447 425.857C94.0258 425.169 85.6431 423.65 77.5782 419.541C65.5282 413.401 55.7515 403.601 49.6241 391.575C45.5132 383.507 43.9917 375.123 43.3028 366.693C42.6342 358.512 42.6514 348.537 42.6514 336.946V174.873C42.6514 163.281 42.6344 153.303 43.3028 145.12C43.9914 136.688 45.5121 128.299 49.6241 120.229C55.7577 108.191 65.5403 98.4086 77.5782 92.2749C85.6485 88.1629 94.0375 86.6423 102.469 85.9537C110.652 85.2852 120.63 85.3023 132.222 85.3023H379.597C391.188 85.3023 401.16 85.2851 409.339 85.9537C417.505 86.6213 425.625 88.0703 433.458 91.897L434.215 92.2749L435.335 92.8599C446.84 99.0101 456.237 108.545 462.19 120.229C466.3 128.294 467.82 136.677 468.508 145.098C469.176 153.272 469.159 163.235 469.159 174.803V337.018Z" fill="white"/>
</svg>
