<svg width="512" height="512" viewBox="0 0 512 512" fill="none" xmlns="http://www.w3.org/2000/svg">
<path d="M383.857 426.508C395.635 426.509 405.183 436.056 405.183 447.834C405.183 459.611 395.635 469.158 383.857 469.159H127.952C116.175 469.159 106.627 459.611 106.627 447.834C106.627 436.056 116.174 426.508 127.952 426.508H383.857ZM234.579 63.9761C234.579 52.1985 244.127 42.6511 255.904 42.6509C267.682 42.6509 277.229 52.1984 277.229 63.9761V311.048L347.452 240.826C355.78 232.498 369.283 232.498 377.611 240.826C385.939 249.154 385.939 262.656 377.611 270.984L270.984 377.611C262.656 385.939 249.153 385.939 240.825 377.611L134.198 270.984C125.87 262.656 125.87 249.154 134.198 240.826C142.526 232.498 156.028 232.498 164.356 240.826L234.579 311.047V63.9761Z" fill="white"/>
</svg>
