<svg width="512" height="512" viewBox="0 0 512 512" fill="none" xmlns="http://www.w3.org/2000/svg">
<path d="M127.952 277.23C151.507 277.23 170.603 296.325 170.603 319.88C170.603 343.436 151.507 362.531 127.952 362.531C104.396 362.531 85.3013 343.435 85.3013 319.88C85.3015 296.325 104.397 277.23 127.952 277.23ZM255.904 277.23C279.459 277.23 298.555 296.325 298.555 319.88C298.555 343.436 279.459 362.531 255.904 362.531C232.349 362.531 213.253 343.435 213.253 319.88C213.254 296.325 232.349 277.23 255.904 277.23ZM383.857 277.23C407.412 277.23 426.507 296.325 426.507 319.88C426.507 343.435 407.412 362.531 383.857 362.531C360.302 362.531 341.206 343.436 341.206 319.88C341.206 296.325 360.302 277.23 383.857 277.23ZM127.952 149.278C151.507 149.278 170.603 168.373 170.603 191.928C170.603 215.483 151.507 234.579 127.952 234.579C104.396 234.579 85.3013 215.483 85.3013 191.928C85.3014 168.373 104.396 149.278 127.952 149.278ZM255.904 149.278C279.459 149.278 298.555 168.373 298.555 191.928C298.555 215.483 279.459 234.579 255.904 234.579C232.349 234.579 213.253 215.483 213.253 191.928C213.254 168.373 232.349 149.278 255.904 149.278ZM383.857 149.278C407.412 149.278 426.507 168.373 426.507 191.928C426.507 215.483 407.412 234.579 383.857 234.579C360.302 234.579 341.206 215.483 341.206 191.928C341.206 168.373 360.302 149.278 383.857 149.278Z" fill="white"/>
</svg>
