<svg width="512" height="512" viewBox="0 0 512 512" fill="none" xmlns="http://www.w3.org/2000/svg">
<path d="M191.93 341.206C215.485 341.206 234.581 360.302 234.581 383.857C234.581 407.412 215.485 426.508 191.93 426.508C168.374 426.507 149.279 407.412 149.279 383.857C149.279 360.302 168.374 341.206 191.93 341.206ZM319.882 341.206C343.437 341.206 362.533 360.302 362.533 383.857C362.533 407.412 343.437 426.508 319.882 426.508C296.327 426.507 277.232 407.412 277.231 383.857C277.231 360.302 296.327 341.206 319.882 341.206ZM191.93 213.254C215.485 213.254 234.581 232.349 234.581 255.904C234.581 279.459 215.485 298.555 191.93 298.555C168.374 298.555 149.279 279.459 149.279 255.904C149.28 232.349 168.375 213.254 191.93 213.254ZM319.882 213.254C343.437 213.254 362.533 232.349 362.533 255.904C362.533 279.459 343.437 298.555 319.882 298.555C296.327 298.555 277.231 279.459 277.231 255.904C277.232 232.349 296.327 213.254 319.882 213.254ZM191.93 85.3015C215.485 85.3015 234.581 104.397 234.581 127.952C234.581 151.507 215.485 170.603 191.93 170.603C168.374 170.603 149.279 151.507 149.279 127.952C149.279 104.397 168.374 85.3016 191.93 85.3015ZM319.882 85.3015C343.437 85.3015 362.533 104.397 362.533 127.952C362.533 151.507 343.437 170.603 319.882 170.603C296.327 170.603 277.231 151.507 277.231 127.952C277.232 104.397 296.327 85.3018 319.882 85.3015Z" fill="white"/>
</svg>
