<svg width="512" height="512" viewBox="0 0 512 512" fill="none" xmlns="http://www.w3.org/2000/svg">
<path d="M63.9768 358.267V357.2C63.9771 345.423 73.5245 335.875 85.302 335.875C97.0796 335.875 106.627 345.423 106.627 357.2V358.267C106.627 370.562 106.644 378.499 107.138 384.539C107.611 390.328 108.414 392.475 108.951 393.53C111.006 397.562 114.273 400.828 118.267 402.863C119.317 403.398 121.461 404.2 127.246 404.673C133.28 405.166 141.206 405.183 153.478 405.183H358.333C370.605 405.183 378.526 405.166 384.555 404.673C390.333 404.2 392.475 403.399 393.527 402.863C397.55 400.813 400.825 397.539 402.864 393.537C403.4 392.485 404.201 390.343 404.673 384.564C405.166 378.536 405.183 370.615 405.183 358.343V153.477C405.183 141.206 405.166 133.28 404.673 127.246C404.2 121.461 403.398 119.316 402.864 118.267C400.831 114.277 397.562 111.007 393.527 108.951C392.47 108.413 390.324 107.611 384.538 107.138C378.501 106.644 370.567 106.627 358.272 106.627H153.547C141.252 106.627 133.311 106.644 127.266 107.138C121.469 107.611 119.32 108.415 118.267 108.951C114.254 110.996 110.996 114.254 108.951 118.267C108.415 119.32 107.611 121.469 107.138 127.266C106.644 133.31 106.627 141.252 106.627 153.547V154.567C106.627 166.345 97.0796 175.893 85.302 175.893C73.5244 175.893 63.977 166.345 63.9768 154.567V153.547C63.9768 141.955 63.9598 131.978 64.6282 123.794C65.3169 115.363 66.8375 106.974 70.9495 98.9033C77.0831 86.8654 86.8657 77.0828 98.9036 70.9492C106.974 66.8371 115.363 65.3165 123.794 64.6279C131.978 63.9595 141.956 63.9765 153.547 63.9765H358.272C369.863 63.9765 379.836 63.9593 388.014 64.6279C396.444 65.317 404.823 66.839 412.89 70.9492C424.905 77.071 434.72 86.8423 440.866 98.9033C444.975 106.968 446.495 115.351 447.183 123.772C447.851 131.946 447.834 141.909 447.834 153.477V358.343C447.834 369.911 447.851 379.871 447.183 388.041C446.494 396.461 444.973 404.837 440.866 412.899C434.726 424.948 424.917 434.737 412.89 440.865C404.827 444.973 396.451 446.494 388.031 447.183C379.86 447.851 369.901 447.834 358.333 447.834H153.478C141.91 447.834 131.946 447.85 123.773 447.183C115.351 446.494 106.969 444.974 98.9036 440.865C86.8471 434.722 77.0736 424.913 70.9495 412.893C66.8387 404.826 65.3172 396.443 64.6282 388.013C63.9597 379.832 63.9768 369.858 63.9768 358.267ZM240.825 176.85C249.154 168.521 262.657 168.521 270.985 176.85L334.961 240.825C343.289 249.153 343.289 262.656 334.961 270.984L270.985 334.961C262.657 343.289 249.154 343.289 240.825 334.961C232.497 326.633 232.498 313.13 240.825 304.802L268.397 277.23H85.302C73.5245 277.23 63.977 267.683 63.9768 255.905C63.9768 244.128 73.5243 234.579 85.302 234.579H268.397L240.825 207.008C232.498 198.68 232.498 185.178 240.825 176.85Z" fill="white"/>
</svg>
