<svg width="512" height="512" viewBox="0 0 512 512" fill="none" xmlns="http://www.w3.org/2000/svg">
<path d="M266.261 455.815C259.82 459.393 251.989 459.393 245.548 455.815L255.905 437.173L266.261 455.815ZM426.508 202.59C426.508 174.868 418.495 155.287 407.523 142.243C396.49 129.127 381.376 121.307 364.822 118.921C331.512 114.121 292.969 131.495 275.524 172.443C272.174 180.307 264.452 185.41 255.905 185.41C247.358 185.41 239.636 180.307 236.286 172.443C218.84 131.495 180.298 114.121 146.988 118.921C130.434 121.306 115.32 129.127 104.287 142.243C93.3145 155.287 85.3013 174.868 85.3013 202.59C85.3014 256.612 126.638 309.728 174.108 351.925C197.159 372.416 220.311 389.146 237.746 400.77C244.95 405.573 251.144 409.479 255.904 412.396C260.664 409.479 266.859 405.573 274.064 400.77C291.499 389.146 314.649 372.416 337.701 351.925C385.171 309.728 426.508 256.612 426.508 202.59ZM469.159 202.59C469.159 276.521 414.53 340.696 366.037 383.803C341.106 405.964 316.275 423.889 297.723 436.257C288.427 442.455 280.654 447.291 275.167 450.602C272.421 452.258 270.244 453.534 268.729 454.409C267.972 454.847 267.379 455.185 266.964 455.42C266.757 455.538 266.594 455.629 266.476 455.695C266.417 455.728 266.369 455.755 266.333 455.775C266.316 455.784 266.301 455.793 266.289 455.8C266.283 455.803 266.276 455.807 266.273 455.809C266.27 455.81 266.25 455.781 264.97 453.483L255.905 437.173L246.839 453.483C245.573 455.757 245.54 455.809 245.537 455.809C245.534 455.807 245.527 455.803 245.521 455.8C245.509 455.793 245.494 455.784 245.476 455.775C245.44 455.755 245.392 455.728 245.333 455.695C245.216 455.63 245.053 455.538 244.845 455.42C244.43 455.185 243.838 454.847 243.081 454.409C241.566 453.534 239.388 452.258 236.643 450.602C231.155 447.291 223.383 442.455 214.086 436.257C195.535 423.889 170.703 405.964 145.772 383.803C97.2783 340.696 42.651 276.521 42.6509 202.59C42.6509 166.336 53.2977 136.601 71.6479 114.787C89.937 93.0458 114.808 80.4667 140.905 76.7062C182.06 70.7757 226.616 86.6777 255.904 122.907C285.192 86.677 329.749 70.7757 370.905 76.7062C397.001 80.4667 421.873 93.0459 440.162 114.787C458.512 136.601 469.159 166.336 469.159 202.59Z" fill="white"/>
</svg>
