<svg width="512" height="512" viewBox="0 0 512 512" fill="none" xmlns="http://www.w3.org/2000/svg">
<path d="M236.139 29.1834C248.988 25.0085 262.832 25.0085 275.681 29.1834C284.29 31.9806 291.291 36.8321 297.735 42.3025C303.989 47.611 311.025 54.6704 319.212 62.8572L448.923 192.568C457.124 200.77 464.189 207.816 469.504 214.082C474.978 220.536 479.826 227.543 482.622 236.149C486.797 248.998 486.797 262.822 482.622 275.672C479.825 284.281 474.974 291.286 469.5 297.737C464.187 303.999 457.121 311.043 448.923 319.242L319.585 448.579C319.465 448.704 319.345 448.828 319.223 448.951C311.032 457.141 303.994 464.203 297.739 469.512C291.293 474.984 284.291 479.836 275.681 482.634C262.832 486.808 248.988 486.808 236.139 482.634C227.534 479.838 220.536 474.989 214.099 469.525C207.853 464.223 200.828 457.173 192.658 449.004L62.8671 319.213C54.6801 311.026 47.6182 303.988 42.3075 297.732C36.8363 291.288 31.9805 284.283 29.1825 275.672C25.0075 262.822 25.0075 248.998 29.1825 236.149C31.9813 227.536 36.8387 220.529 42.3124 214.082C47.5747 207.883 54.5557 200.916 62.6483 192.824C62.7307 192.739 62.8115 192.652 62.8954 192.568L192.577 62.8855C200.767 54.6959 207.809 47.6303 214.068 42.3162C220.514 36.8431 227.524 31.9824 236.139 29.1834ZM262.501 69.7468C258.218 68.3553 253.601 68.3552 249.318 69.7468C248.199 70.1106 246.109 71.0619 241.673 74.8289C237.049 78.7548 231.423 84.3582 222.736 93.0447L93.3046 222.474C93.2174 222.565 93.1326 222.657 93.0438 222.746C84.3535 231.436 78.7507 237.063 74.826 241.685C71.0623 246.119 70.1108 248.206 69.746 249.329C68.3543 253.612 68.3543 258.209 69.746 262.492C70.1104 263.613 71.0607 265.699 74.8212 270.129C78.7428 274.748 84.341 280.37 93.0253 289.054L222.816 418.845C231.483 427.513 237.092 433.097 241.701 437.01C246.12 440.76 248.2 441.707 249.318 442.07C253.601 443.462 258.218 443.462 262.501 442.07C263.625 441.705 265.711 440.756 270.138 436.998C274.7 433.125 280.24 427.614 288.751 419.103C288.86 418.989 288.97 418.877 289.082 418.765L421.882 285.963C428.83 279 433.548 274.186 436.979 270.142C440.74 265.711 441.693 263.621 442.059 262.492C443.451 258.209 443.451 253.612 442.059 249.329C441.692 248.197 440.736 246.102 436.975 241.669C433.055 237.046 427.453 231.415 418.765 222.726L289.054 93.0154C280.369 84.3309 274.75 78.7358 270.134 74.8171C265.709 71.0608 263.624 70.1119 262.501 69.7468Z" fill="white"/>
</svg>
