<svg width="512" height="512" viewBox="0 0 512 512" fill="none" xmlns="http://www.w3.org/2000/svg">
<path d="M319.881 426.508V383.857C319.881 372.08 329.429 362.532 341.207 362.532C352.984 362.532 362.532 372.08 362.532 383.857V426.508C362.532 438.285 352.984 447.834 341.207 447.834C329.429 447.834 319.881 438.285 319.881 426.508ZM135.264 225.748C143.592 217.42 157.095 217.42 165.423 225.748C173.751 234.076 173.751 247.578 165.423 255.906L135.264 286.065C110.287 311.043 110.294 351.544 135.285 376.535C160.272 401.522 200.765 401.525 225.746 376.544L255.916 346.379C264.245 338.052 277.747 338.052 286.074 346.381C294.402 354.71 294.401 368.213 286.072 376.54L255.904 406.703C214.261 448.345 146.764 448.331 105.127 406.693C63.4936 365.06 63.458 297.554 105.105 255.906L135.264 225.748ZM426.508 319.881C438.285 319.881 447.834 329.429 447.834 341.207C447.834 352.984 438.285 362.532 426.508 362.532H383.857C372.08 362.532 362.532 352.984 362.532 341.207C362.532 329.429 372.08 319.881 383.857 319.881H426.508ZM255.906 105.115C297.544 63.478 365.05 63.4628 406.693 105.106C448.337 146.75 448.321 214.267 406.685 255.904L376.529 286.062C368.202 294.391 354.699 294.391 346.37 286.063C338.042 277.736 338.041 264.233 346.369 255.904L376.525 225.746C401.512 200.759 401.516 160.246 376.535 135.265C351.554 110.283 311.053 110.287 286.065 135.274L255.906 165.433C247.578 173.761 234.076 173.761 225.748 165.433C217.42 157.104 217.42 143.602 225.748 135.274L255.906 105.115ZM127.952 149.278C139.73 149.278 149.278 158.826 149.278 170.603C149.278 182.381 139.73 191.929 127.952 191.929H85.3018C73.5241 191.929 63.9766 182.381 63.9766 170.603C63.9766 158.826 73.5241 149.278 85.3018 149.278H127.952ZM149.278 127.952V85.3017C149.278 73.524 158.826 63.9765 170.604 63.9765C182.381 63.9766 191.929 73.5241 191.929 85.3017V127.952C191.929 139.73 182.381 149.278 170.604 149.278C158.826 149.278 149.278 139.73 149.278 127.952Z" fill="white"/>
</svg>
