<svg width="512" height="512" viewBox="0 0 512 512" fill="none" xmlns="http://www.w3.org/2000/svg">
<path d="M42.6504 255.905C42.6504 197.017 90.3889 149.278 149.277 149.278H191.928C203.705 149.278 213.253 158.826 213.253 170.603C213.253 182.381 203.705 191.929 191.928 191.929H149.277C113.944 191.929 85.3008 220.572 85.3008 255.905C85.3009 291.238 113.944 319.881 149.277 319.881H191.928C203.705 319.881 213.253 329.429 213.253 341.207C213.253 352.984 203.705 362.532 191.928 362.532H149.277C90.3889 362.532 42.6505 314.794 42.6504 255.905ZM426.508 255.905C426.508 220.572 397.864 191.929 362.531 191.929H319.881C308.103 191.929 298.555 182.381 298.555 170.603C298.555 158.826 308.103 149.278 319.881 149.278H362.531C421.42 149.278 469.158 197.017 469.158 255.905C469.158 314.794 421.42 362.532 362.531 362.532H319.881C308.103 362.532 298.555 352.984 298.555 341.207C298.555 329.429 308.103 319.881 319.881 319.881H362.531C397.864 319.881 426.508 291.238 426.508 255.905ZM341.206 234.58C352.984 234.58 362.531 244.128 362.531 255.905C362.531 267.683 352.984 277.23 341.206 277.23H170.603C158.825 277.23 149.277 267.683 149.277 255.905C149.277 244.127 158.825 234.58 170.603 234.58H341.206Z" fill="white"/>
</svg>
