<svg width="512" height="512" viewBox="0 0 512 512" fill="none" xmlns="http://www.w3.org/2000/svg">
<path d="M127.952 255.905C151.508 255.905 170.604 275 170.604 298.555C170.604 322.111 151.508 341.206 127.952 341.206C104.397 341.206 85.302 322.111 85.302 298.555C85.302 275 104.397 255.905 127.952 255.905ZM255.905 213.254C279.46 213.254 298.556 232.35 298.556 255.905C298.556 279.46 279.46 298.555 255.905 298.555C232.349 298.555 213.254 279.46 213.254 255.905C213.254 232.35 232.349 213.254 255.905 213.254ZM383.858 170.603C407.413 170.603 426.508 189.698 426.508 213.254C426.508 236.809 407.413 255.905 383.858 255.905C360.302 255.905 341.206 236.809 341.206 213.254C341.206 189.698 360.302 170.603 383.858 170.603Z" fill="white"/>
</svg>
