<svg width="512" height="512" viewBox="0 0 512 512" fill="none" xmlns="http://www.w3.org/2000/svg">
<path d="M405.182 260.104C405.182 247.833 405.166 239.907 404.673 233.873C404.2 228.087 403.398 225.943 402.863 224.894C400.83 220.904 397.562 217.635 393.526 215.579C392.469 215.041 390.324 214.238 384.538 213.765C378.5 213.271 370.567 213.254 358.271 213.254H153.547C141.252 213.254 133.31 213.271 127.265 213.765C121.468 214.238 119.32 215.042 118.266 215.579C114.254 217.624 110.995 220.881 108.951 224.894C108.414 225.947 107.611 228.096 107.137 233.893C106.644 239.937 106.627 247.88 106.627 260.175V379.597C106.627 391.892 106.644 399.829 107.137 405.869C107.611 411.659 108.413 413.807 108.951 414.862C111.002 418.887 114.266 422.15 118.266 424.188C119.316 424.723 121.46 425.526 127.246 425.999C133.28 426.492 141.206 426.509 153.477 426.509H358.333C370.605 426.509 378.526 426.492 384.554 425.999C390.333 425.527 392.474 424.724 393.526 424.188L393.901 423.993C397.753 421.933 400.888 418.739 402.863 414.862C403.399 413.81 404.2 411.668 404.673 405.891C405.166 399.862 405.182 391.941 405.182 379.669V260.104ZM447.834 379.669C447.834 391.237 447.85 401.196 447.182 409.366C446.494 417.787 444.973 426.163 440.865 434.226C434.726 446.274 424.916 456.062 412.889 462.19C404.827 466.299 396.451 467.819 388.03 468.508C379.86 469.176 369.901 469.159 358.333 469.159H153.477C141.909 469.159 131.946 469.176 123.772 468.508C115.351 467.82 106.968 466.3 98.9031 462.19C86.8532 456.051 77.0764 446.251 70.949 434.226C66.8381 426.157 65.3167 417.774 64.6277 409.344C63.9592 401.163 63.9764 391.188 63.9764 379.597V260.175C63.9764 248.583 63.9593 238.605 64.6277 230.421C65.3164 221.99 66.837 213.601 70.949 205.53C77.0826 193.492 86.8653 183.71 98.9031 177.576C106.973 173.464 115.362 171.945 123.794 171.256C131.977 170.587 141.955 170.604 153.547 170.604H170.603V130.515C170.603 83.4608 206.456 42.6516 253.85 42.6514C278.019 42.6514 299.495 53.5107 314.453 70.2754C322.294 79.0635 321.526 92.5447 312.738 100.386C303.95 108.227 290.469 107.459 282.628 98.6709C275.045 90.1716 264.826 85.3018 253.85 85.3018C232.848 85.3019 213.254 104.076 213.254 130.515V170.604H358.271C369.862 170.604 379.835 170.587 388.013 171.256C396.443 171.945 404.823 173.466 412.889 177.576C424.904 183.698 434.72 193.469 440.865 205.53C444.974 213.595 446.494 221.978 447.182 230.399C447.85 238.573 447.834 248.536 447.834 260.104V379.669Z" fill="white"/>
</svg>
