<svg width="512" height="512" viewBox="0 0 512 512" fill="none" xmlns="http://www.w3.org/2000/svg">
<path d="M231.424 302.353C247.1 295.86 264.714 295.86 280.39 302.353C287.34 305.232 293.061 309.461 298.374 314.095C303.543 318.603 309.405 324.481 316.225 331.301C323.05 338.126 328.923 343.987 333.429 349.159C338.062 354.478 342.277 360.195 345.152 367.134C351.645 382.81 351.645 400.425 345.152 416.101C342.277 423.04 338.062 428.756 333.429 434.075C328.923 439.249 323.05 445.111 316.225 451.936C309.405 458.756 303.543 464.634 298.374 469.142C293.061 473.776 287.34 478.004 280.39 480.883C264.714 487.376 247.099 487.376 231.423 480.883C224.472 478.004 218.747 473.771 213.436 469.138C208.267 464.629 202.406 458.751 195.59 451.936C188.77 445.116 182.892 439.253 178.384 434.085C173.75 428.772 169.521 423.051 166.642 416.101C160.149 400.425 160.149 382.81 166.642 367.134C169.521 360.183 173.751 354.461 178.385 349.149C182.893 343.98 188.771 338.119 195.589 331.301C202.409 324.481 208.271 318.603 213.439 314.095C218.752 309.461 224.474 305.232 231.424 302.353ZM264.068 341.757C258.842 339.593 252.971 339.593 247.745 341.757C246.858 342.125 245.147 343.033 241.475 346.237C237.658 349.566 232.98 354.227 225.747 361.459C218.517 368.689 213.856 373.367 210.526 377.185C207.321 380.859 206.413 382.57 206.046 383.456C203.882 388.681 203.882 394.553 206.046 399.779C206.414 400.666 207.322 402.377 210.526 406.05C213.855 409.867 218.516 414.544 225.748 421.777C232.976 429.005 237.654 433.666 241.473 436.997C245.149 440.204 246.861 441.113 247.745 441.479C252.97 443.643 258.842 443.643 264.068 441.479C264.955 441.111 266.667 440.204 270.339 437C274.156 433.671 278.833 429.009 286.066 421.777C293.292 414.55 297.949 409.872 301.27 406.06C304.463 402.394 305.375 400.678 305.747 399.779C307.912 394.553 307.912 388.681 305.747 383.456C305.375 382.558 304.464 380.842 301.27 377.176C297.949 373.364 293.293 368.686 286.066 361.459C278.834 354.227 274.156 349.566 270.339 346.237C266.666 343.033 264.955 342.125 264.068 341.757ZM95.7034 166.633C111.379 160.14 128.993 160.14 144.669 166.633C151.62 169.512 157.342 173.74 162.655 178.374C167.823 182.882 173.685 188.761 180.504 195.58C187.329 202.405 193.202 208.267 197.708 213.44C202.342 218.758 206.557 224.474 209.431 231.413C215.924 247.089 215.924 264.704 209.431 280.38C206.557 287.319 202.343 293.036 197.709 298.355C193.203 303.528 187.33 309.39 180.504 316.215C173.684 323.035 167.823 328.913 162.655 333.421C157.342 338.055 151.62 342.283 144.669 345.162C128.993 351.655 111.379 351.655 95.7034 345.162H95.7024C88.7512 342.283 83.0275 338.051 77.7161 333.418C72.5473 328.909 66.6854 323.031 59.8694 316.215C53.0498 309.395 47.1714 303.534 42.6634 298.365C38.0291 293.053 33.8012 287.331 30.9221 280.38C24.4289 264.704 24.4289 247.089 30.9221 231.413C33.8013 224.463 38.0306 218.74 42.6643 213.428C47.1726 208.26 53.0506 202.398 59.8684 195.58C66.6882 188.761 72.5508 182.882 77.719 178.374C83.0318 173.74 88.753 169.512 95.7034 166.633ZM367.144 166.633C382.82 160.14 400.435 160.14 416.111 166.633C423.061 169.512 428.782 173.74 434.095 178.374C439.263 182.882 445.125 188.761 451.945 195.58C458.77 202.405 464.643 208.267 469.15 213.44C473.783 218.758 477.998 224.474 480.872 231.413L481.171 232.15C487.363 247.639 487.264 264.949 480.872 280.38C477.998 287.319 473.783 293.036 469.15 298.355C464.643 303.528 458.77 309.39 451.945 316.215C445.125 323.035 439.263 328.913 434.095 333.421C428.782 338.055 423.061 342.283 416.111 345.162C400.435 351.655 382.82 351.656 367.144 345.162C360.192 342.283 354.468 338.052 349.157 333.418C343.988 328.909 338.126 323.031 331.31 316.215C324.49 309.395 318.612 303.534 314.104 298.365C309.47 293.053 305.242 287.331 302.363 280.38C295.869 264.704 295.869 247.089 302.363 231.413C305.242 224.463 309.471 218.74 314.105 213.428C318.613 208.26 324.492 202.398 331.31 195.58C338.129 188.761 343.991 182.882 349.159 178.374C354.472 173.74 360.194 169.512 367.144 166.633ZM128.348 206.036C123.123 203.872 117.251 203.872 112.026 206.036C111.138 206.404 109.427 207.312 105.754 210.516C101.937 213.846 97.2597 218.506 90.0276 225.739C82.7975 232.969 78.1362 237.646 74.8059 241.464C71.6012 245.138 70.6924 246.85 70.3255 247.736C68.1612 252.961 68.1611 258.834 70.3255 264.059C70.693 264.946 71.6015 266.657 74.805 270.329C78.1346 274.147 82.7955 278.824 90.0276 286.056C97.2558 293.284 101.934 297.946 105.753 301.278C109.429 304.484 111.141 305.393 112.025 305.759L112.516 305.955C117.616 307.921 123.286 307.855 128.348 305.758C129.235 305.39 130.946 304.483 134.618 301.28C138.436 297.95 143.113 293.289 150.345 286.057H150.346C157.573 278.83 162.228 274.153 165.549 270.34C168.743 266.674 169.654 264.958 170.027 264.059C172.191 258.834 172.191 252.961 170.027 247.736C169.654 246.837 168.743 245.122 165.549 241.455C162.228 237.643 157.572 232.966 150.345 225.739C143.113 218.506 138.436 213.846 134.618 210.516C130.946 207.312 129.235 206.404 128.348 206.036ZM399.788 206.036C394.563 203.872 388.691 203.872 383.466 206.036C382.579 206.404 380.868 207.313 377.196 210.516C373.378 213.846 368.7 218.506 361.468 225.739C354.238 232.969 349.577 237.646 346.246 241.464C343.042 245.138 342.134 246.85 341.767 247.736C339.602 252.961 339.602 258.834 341.767 264.059C342.135 264.946 343.042 266.657 346.245 270.329C349.575 274.147 354.237 278.824 361.469 286.056C368.697 293.284 373.375 297.946 377.194 301.278C380.869 304.484 382.581 305.393 383.465 305.759C388.69 307.923 394.563 307.922 399.788 305.758C400.676 305.39 402.387 304.483 406.059 301.28C409.876 297.95 414.554 293.289 421.786 286.057C429.013 278.83 433.668 274.153 436.99 270.34C440.184 266.673 441.096 264.958 441.468 264.059C443.632 258.834 443.632 252.961 441.468 247.736C441.096 246.837 440.185 245.122 436.991 241.455C433.669 237.643 429.013 232.966 421.786 225.739C414.554 218.506 409.876 213.846 406.059 210.516C402.386 207.313 400.676 206.404 399.788 206.036ZM231.424 30.9231C247.1 24.4299 264.714 24.4299 280.39 30.9231C287.34 33.8021 293.062 38.0302 298.374 42.6643C303.543 47.1724 309.405 53.0507 316.225 59.8704C323.05 66.6953 328.923 72.5571 333.429 77.7297C338.062 83.0483 342.277 88.7651 345.152 95.7044C351.645 111.38 351.645 128.994 345.152 144.67C342.277 151.609 338.062 157.326 333.429 162.645C328.923 167.818 323.05 173.68 316.225 180.505C309.405 187.325 303.543 193.203 298.374 197.711C293.061 202.345 287.34 206.573 280.39 209.452C264.714 215.946 247.099 215.946 231.423 209.452C224.472 206.573 218.747 202.342 213.436 197.708C208.267 193.199 202.406 187.321 195.59 180.505C188.771 173.686 182.892 167.824 178.384 162.656C173.75 157.343 169.521 151.621 166.642 144.67C160.149 128.994 160.149 111.38 166.642 95.7044V95.7034C169.521 88.7527 173.751 83.0303 178.385 77.718C182.893 72.5498 188.771 66.6883 195.589 59.8704C202.409 53.0508 208.27 47.1724 213.439 42.6643C218.752 38.0301 224.473 33.8021 231.424 30.9231ZM264.068 70.3264C258.842 68.1622 252.971 68.1621 247.745 70.3264C246.858 70.694 245.148 71.6024 241.475 74.8059C237.657 78.1357 232.98 82.7964 225.747 90.0286C218.517 97.2591 213.856 101.937 210.526 105.755C207.321 109.429 206.413 111.14 206.046 112.026C203.882 117.251 203.882 123.124 206.046 128.349C206.414 129.236 207.322 130.947 210.526 134.619C213.855 138.437 218.516 143.114 225.748 150.346C232.976 157.574 237.654 162.236 241.473 165.568C245.149 168.774 246.861 169.683 247.745 170.049C252.97 172.213 258.843 172.213 264.068 170.049V170.048C264.955 169.681 266.667 168.773 270.339 165.57C274.156 162.24 278.834 157.579 286.066 150.347C293.292 143.12 297.949 138.443 301.27 134.63C304.463 130.964 305.375 129.248 305.747 128.349C307.912 123.124 307.912 117.251 305.747 112.026C305.375 111.127 304.464 109.412 301.27 105.745C297.949 101.933 293.293 97.2557 286.066 90.0286C278.834 82.7965 274.156 78.1356 270.339 74.8059C266.666 71.6024 264.955 70.694 264.068 70.3264Z" fill="white"/>
</svg>
