<svg width="512" height="512" viewBox="0 0 512 512" fill="none" xmlns="http://www.w3.org/2000/svg">
<path d="M175.794 34.8846C184.713 33.0216 193.941 33.0721 202.872 35.076C213.743 37.5151 223.451 43.6441 234.754 50.4295L242.347 54.9881C243.804 55.8624 243.935 55.9448 244.14 56.0594C247.102 57.7104 250.415 58.6283 253.827 58.7381C254.087 58.7464 254.413 58.7488 255.931 58.7488C257.454 58.7488 257.755 58.7465 258.018 58.7381C261.427 58.6287 264.732 57.7142 267.685 56.0721C267.923 55.9399 268.21 55.7731 269.488 55.0076L277.034 50.489L277.463 50.239C277.475 50.2321 277.487 50.2255 277.5 50.2185C288.558 43.591 298.103 37.6327 308.792 35.2332C317.653 33.2439 326.847 33.1555 335.767 35.0017C346.633 37.2506 356.398 43.1719 367.77 49.7254L378.301 55.7937C389.723 62.3754 399.747 67.866 407.15 76.1619C413.218 82.9621 417.766 90.9801 420.484 99.6873C423.79 110.278 423.343 121.677 423.124 134.725L422.97 143.794C422.948 145.095 422.95 145.533 422.956 145.882C423.004 149.06 423.769 152.2 425.193 155.06L425.487 155.629V155.63C425.611 155.861 425.762 156.127 426.522 157.443L427.566 159.249L427.908 159.781C429.657 162.417 431.981 164.639 434.723 166.282H434.724C434.992 166.442 435.328 166.637 436.527 167.304L444.205 171.576C444.261 171.607 444.318 171.636 444.374 171.667C455.804 178.025 465.878 183.339 473.384 191.48C479.543 198.159 484.211 206.079 487.072 214.698C490.563 225.213 490.335 236.601 490.365 249.712L490.393 261.957C490.423 274.985 490.705 286.41 487.235 296.959C484.382 305.632 479.71 313.594 473.513 320.317C465.959 328.514 455.788 333.856 444.249 340.251L436.539 344.523C436.488 344.551 436.436 344.577 436.385 344.604C435.811 344.923 435.458 345.119 435.223 345.251L434.75 345.523C431.824 347.268 429.354 349.694 427.552 352.596V352.597C427.355 352.915 427.121 353.298 426.502 354.37C425.752 355.668 425.604 355.93 425.482 356.158C423.876 359.154 423.006 362.509 422.956 365.929V365.929C422.951 366.271 422.949 366.693 422.97 367.982L423.129 377.354C423.346 390.269 423.791 401.612 420.511 412.152C417.809 420.835 413.288 428.836 407.252 435.631C399.899 443.907 389.923 449.403 378.643 455.95H378.642L368.087 462.076C356.718 468.674 346.931 474.652 336.035 476.929C327.074 478.8 317.842 478.713 308.952 476.719C298.082 474.28 288.393 468.167 277.081 461.376L269.059 456.56L269.053 456.556C268.03 455.942 267.84 455.831 267.686 455.745C264.724 454.094 261.392 453.17 257.98 453.06C257.716 453.052 257.417 453.05 255.891 453.05C254.369 453.05 254.067 453.051 253.803 453.059L253.804 453.06C250.419 453.169 247.118 454.082 244.144 455.735C243.895 455.874 243.583 456.055 242.34 456.799L234.795 461.317C223.536 468.058 213.867 474.146 203.041 476.576C194.158 478.57 184.961 478.639 176.062 476.798C165.197 474.549 155.44 468.634 144.062 462.078L133.534 456.012C122.129 449.439 112.081 443.944 104.674 435.644C98.6029 428.84 94.0603 420.822 91.3434 412.119C88.0314 401.509 88.4614 390.092 88.6842 376.89L88.8307 368.2C88.8571 366.635 88.8591 366.288 88.8542 365.997C88.7964 362.615 87.951 359.327 86.403 356.396C86.2875 356.178 86.2072 356.044 85.3092 354.475C84.9042 353.768 84.661 353.344 84.5006 353.068L84.1891 352.543C82.404 349.659 79.9557 347.24 77.0543 345.493C76.8366 345.362 76.666 345.27 75.1061 344.402L67.4635 340.15C56.0008 333.773 45.9427 328.464 38.4333 320.32C32.2507 313.615 27.6134 305.688 24.7633 297.102C21.278 286.603 21.472 275.269 21.442 262.088L21.4147 250.1C21.3846 236.869 21.1186 225.425 24.5993 214.845C27.4525 206.173 32.1293 198.204 38.3258 191.48C45.8787 183.285 56.0302 177.949 67.5778 171.55L75.2887 167.277C76.7366 166.475 76.8939 166.39 77.0944 166.27C80.0192 164.526 82.4835 162.105 84.2858 159.201C84.4058 159.008 84.4506 158.922 85.3141 157.428C86.0643 156.129 86.2109 155.87 86.3336 155.641C87.9588 152.611 88.8258 149.278 88.8864 145.944C88.8853 145.895 88.8843 145.808 88.8805 145.671C88.8705 145.304 88.8505 144.649 88.8366 143.822L88.6842 134.766C88.4629 121.613 88.034 110.235 91.3268 99.6541C94.0255 90.9823 98.5376 82.9756 104.582 76.1726C111.908 67.9272 121.832 62.4451 133.056 55.9324C133.134 55.8861 133.212 55.84 133.29 55.7947L143.689 49.7586L144.074 49.5418C155.312 43.0141 165.001 37.1389 175.794 34.8846ZM193.535 76.6922C190.585 76.0303 187.514 76.0079 184.514 76.6346C181.954 77.1693 179.076 78.5421 165.155 86.6219C165.008 86.7072 164.859 86.7891 164.71 86.8709L154.827 92.6072C154.746 92.6557 154.665 92.7053 154.584 92.7527C140.785 100.761 138.186 102.564 136.465 104.501C134.459 106.759 132.954 109.425 132.05 112.327C131.272 114.828 131.059 118.04 131.329 134.049L131.481 143.104C131.49 143.649 131.502 144.021 131.515 144.506C131.527 144.93 131.547 145.673 131.535 146.507C131.383 156.787 128.73 166.828 123.922 175.796C123.407 176.755 122.867 177.687 122.246 178.762C121.737 179.643 121.117 180.739 120.525 181.692C115.131 190.383 107.734 197.658 98.9381 202.903C97.9793 203.475 96.9141 204.055 95.9616 204.583L88.2516 208.855C74.1419 216.674 71.4678 218.455 69.6881 220.386C67.6288 222.62 66.0678 225.275 65.1139 228.175C64.2911 230.676 64.0285 233.901 64.0651 250.004L64.0924 261.991C64.1287 277.947 64.4142 281.172 65.2418 283.665C66.2076 286.574 67.7616 289.209 69.7887 291.408C71.559 293.328 74.1991 295.09 88.1989 302.879L95.8405 307.13C96.8812 307.709 98.0198 308.331 99.0563 308.955C107.769 314.202 115.106 321.453 120.456 330.096V330.097C121.078 331.103 121.655 332.118 122.325 333.288C122.888 334.272 123.555 335.415 124.116 336.476H124.117C128.824 345.389 131.328 355.26 131.499 365.27C131.518 366.426 131.499 367.543 131.476 368.92L131.329 377.61C131.058 393.671 131.273 396.901 132.056 399.41C132.962 402.312 134.475 404.981 136.498 407.248C138.241 409.202 140.877 411.018 154.829 419.057L165.357 425.124C179.265 433.138 182.147 434.502 184.706 435.032C187.683 435.648 190.749 435.623 193.699 434.961C196.247 434.389 199.11 432.972 212.884 424.724L220.429 420.206C221.574 419.52 222.472 418.985 223.419 418.459C232.313 413.514 242.248 410.758 252.436 410.431H252.437C253.541 410.396 254.631 410.398 255.891 410.398C257.154 410.398 258.245 410.396 259.351 410.431C269.541 410.759 279.526 413.515 288.451 418.49H288.452C289.342 418.986 290.197 419.503 291.012 419.993L299.035 424.809C312.857 433.108 315.728 434.528 318.289 435.102C321.28 435.773 324.355 435.797 327.314 435.179C329.872 434.644 332.761 433.265 346.677 425.188L357.233 419.061C371.041 411.047 373.646 409.242 375.368 407.304C377.382 405.037 378.887 402.371 379.787 399.479C380.548 397.032 380.75 393.898 380.484 378.072L380.326 368.7C380.301 367.247 380.294 366.304 380.309 365.297C380.461 355.079 383.056 345.026 387.894 336.003C388.408 335.044 388.952 334.107 389.57 333.038L390.531 331.393C390.808 330.927 391.057 330.52 391.314 330.105L391.826 329.295C397.173 320.961 404.386 313.971 412.906 308.89C413.835 308.337 414.766 307.824 415.825 307.237L416.005 307.141L423.576 302.945C437.693 295.122 440.373 293.341 442.151 291.412C444.211 289.177 445.768 286.529 446.721 283.63C447.529 281.174 447.779 278.016 447.743 262.053L447.715 249.808C447.678 233.782 447.416 230.612 446.593 228.136C445.639 225.26 444.08 222.616 442.029 220.391C440.27 218.484 437.639 216.728 423.767 209.01C423.712 208.98 423.657 208.951 423.602 208.921L415.793 204.576C414.873 204.065 414.162 203.665 413.482 203.269L412.806 202.87C404.357 197.809 397.179 190.866 391.846 182.561L391.336 181.754C390.735 180.787 390.066 179.601 389.59 178.777L389.59 178.776C388.963 177.691 388.411 176.739 387.889 175.765V175.766C383.075 166.778 380.466 156.753 380.31 146.534C380.295 145.515 380.301 144.553 380.326 143.076L380.478 134.008L380.557 128.594C380.688 117.252 380.448 114.563 379.772 112.398C378.867 109.501 377.353 106.83 375.327 104.559C373.58 102.602 370.94 100.777 357.007 92.7478L346.475 86.6795C332.563 78.6627 329.681 77.2968 327.123 76.7674C324.167 76.1557 321.105 76.1814 318.133 76.8484C315.594 77.4186 312.75 78.8245 299.015 87.0486C298.858 87.1429 298.698 87.2339 298.539 87.324L291.399 91.6004C290.291 92.2637 289.369 92.8167 288.411 93.3494C279.496 98.3059 269.55 101.041 259.386 101.367C258.282 101.402 257.191 101.4 255.931 101.4C254.686 101.4 253.56 101.403 252.456 101.367C242.265 101.039 232.3 98.2883 223.375 93.3133C222.382 92.7602 221.328 92.1161 220.394 91.5555L212.8 86.9969C198.971 78.6941 196.093 77.2662 193.535 76.6922ZM319.887 255.904C319.887 220.571 291.244 191.928 255.911 191.928C220.578 191.928 191.934 220.571 191.934 255.904C191.934 291.237 220.578 319.88 255.911 319.88C291.244 319.88 319.887 291.237 319.887 255.904ZM362.538 255.904C362.538 314.792 314.799 362.531 255.911 362.531C197.022 362.531 149.284 314.792 149.284 255.904C149.284 197.016 197.022 149.277 255.911 149.277C314.799 149.277 362.538 197.016 362.538 255.904Z" fill="white"/>
</svg>
