<svg width="512" height="512" viewBox="0 0 512 512" fill="none" xmlns="http://www.w3.org/2000/svg">
<path d="M170.603 383.857C194.158 383.857 213.253 402.953 213.253 426.508C213.253 450.064 194.158 469.159 170.603 469.159C147.048 469.159 127.953 450.064 127.953 426.508C127.953 402.953 147.048 383.857 170.603 383.857ZM383.857 383.857C407.412 383.857 426.508 402.953 426.508 426.508C426.508 450.064 407.412 469.159 383.857 469.159C360.302 469.159 341.207 450.064 341.207 426.508C341.207 402.953 360.302 383.857 383.857 383.857ZM69.6987 42.651C74.4337 42.651 79.1542 42.6369 83.1772 42.9381C87.3313 43.2491 92.1383 43.9662 97.1274 46.0865L97.6108 46.2965L98.2896 46.6041C105.045 49.7344 110.853 54.5741 115.151 60.6402L115.576 61.2506L115.87 61.6871C118.857 66.2028 120.434 70.7929 121.493 74.816C122.518 78.7099 123.359 83.3434 124.215 87.983L127.657 106.627H404.942C411.878 106.627 418.475 106.607 423.921 107.088C429.367 107.568 435.933 108.687 442.294 112.321L442.91 112.68L443.73 113.183C452.139 118.476 458.52 126.579 461.616 136.162C463.965 143.433 463.572 150.349 462.792 155.929C462.035 161.335 460.537 167.742 458.983 174.476L458.984 174.477L458.976 174.508C458.976 174.51 458.976 174.512 458.975 174.514C458.973 174.524 458.971 174.534 458.968 174.545L425.503 319.557C425.491 319.609 425.478 319.661 425.465 319.713C424.458 324.081 423.46 328.459 422.322 332.141C421.095 336.107 419.325 340.615 416.125 345.004C411.625 351.175 405.53 356.077 398.41 359.114C393.406 361.248 388.605 361.959 384.462 362.261C380.586 362.545 376.051 362.532 371.527 362.532L149.279 362.533C138.994 362.533 130.174 355.192 128.307 345.079L82.2729 95.7262C81.3013 90.463 80.7707 87.6637 80.2466 85.6725C80.2295 85.6074 80.2109 85.546 80.1948 85.4869C80.1308 85.4816 80.0634 85.4756 79.9927 85.4703C77.9293 85.3158 75.0672 85.3014 69.6987 85.3014H63.9761C52.1984 85.3014 42.6509 75.7539 42.6509 63.9762C42.6509 52.1985 52.1984 42.651 63.9761 42.651H69.6987ZM167.027 319.881H371.527C376.667 319.881 379.389 319.868 381.353 319.724C381.411 319.72 381.466 319.714 381.519 319.71C381.536 319.656 381.556 319.6 381.575 319.541C382.153 317.669 382.775 315.032 383.928 310.034L383.963 309.882L417.41 164.954C417.412 164.944 417.414 164.933 417.417 164.923C419.148 157.419 420.116 153.141 420.552 150.02C420.572 149.877 420.589 149.742 420.605 149.615C420.471 149.601 420.328 149.587 420.175 149.574C417.041 149.297 412.657 149.278 404.942 149.278H135.532L167.027 319.881Z" fill="white"/>
</svg>
