<svg width="512" height="512" viewBox="0 0 512 512" fill="none" xmlns="http://www.w3.org/2000/svg">
<path d="M255.905 63.9761C307.49 63.9762 350.519 100.608 360.398 149.278H372.235C383.589 149.285 393.395 149.36 401.531 150.064C411.026 150.886 420.512 152.703 429.326 157.759C442.307 165.205 452.257 176.964 457.463 190.98C460.998 200.497 461.233 210.14 460.484 219.629C459.751 228.919 457.849 240.219 455.637 253.486C455.619 253.598 455.596 253.708 455.576 253.82L435.715 372.991C434.079 382.804 432.672 391.331 430.959 398.311C429.182 405.551 426.747 412.623 422.315 419.287C415.627 429.343 406.235 437.29 395.229 442.227C387.93 445.501 380.56 446.741 373.128 447.304C365.964 447.847 357.326 447.833 347.377 447.833H164.439C154.49 447.833 145.849 447.847 138.684 447.304C131.252 446.741 123.879 445.502 116.579 442.227C105.568 437.287 96.1823 429.339 89.4978 419.287C85.0698 412.628 82.6323 405.56 80.8523 398.319C79.1358 391.336 77.7261 382.809 76.0896 372.991L56.198 253.638C56.1911 253.598 56.1832 253.557 56.1765 253.517C53.9637 240.24 52.0601 228.933 51.3269 219.639C50.578 210.146 50.8125 200.5 54.3484 190.98C59.5607 176.947 69.5353 165.196 82.5007 157.759C91.312 152.705 100.789 150.886 110.283 150.064C118.415 149.359 128.217 149.285 139.57 149.278H151.412C161.291 100.608 204.32 63.9761 255.905 63.9761ZM144.529 191.928C130.292 191.928 120.987 191.947 113.965 192.555C107.143 193.146 104.768 194.155 103.721 194.755C99.3865 197.242 96.0619 201.167 94.3298 205.831C93.9115 206.957 93.3073 209.463 93.8455 216.285C94.3985 223.295 95.9039 232.45 98.2351 246.437C98.242 246.477 98.2499 246.517 98.2566 246.557L118.16 365.979C119.9 376.419 121.028 383.09 122.269 388.138C123.447 392.927 124.386 394.727 125.012 395.669C127.239 399.018 130.364 401.665 134.036 403.312C135.065 403.773 136.989 404.403 141.905 404.775C147.089 405.167 153.851 405.182 164.439 405.182H347.377C357.965 405.182 364.724 405.167 369.906 404.775C374.819 404.403 376.742 403.774 377.772 403.312C381.45 401.662 384.577 399.013 386.801 395.669C387.424 394.732 388.361 392.937 389.537 388.145C390.777 383.093 391.903 376.424 393.643 365.979L413.548 246.557L413.608 246.222C415.92 232.349 417.414 223.251 417.965 216.276C418.502 209.459 417.898 206.955 417.48 205.831C415.742 201.15 412.424 197.233 408.105 194.755C407.062 194.157 404.684 193.147 397.852 192.555C390.823 191.947 381.511 191.928 367.274 191.928H144.529ZM255.905 106.626C228.049 106.626 204.352 124.429 195.569 149.278H316.24C307.457 124.43 283.761 106.627 255.905 106.626Z" fill="white"/>
</svg>
