<svg width="512" height="512" viewBox="0 0 512 512" fill="none" xmlns="http://www.w3.org/2000/svg">
<path d="M191.928 405.182C191.928 393.405 182.381 383.857 170.603 383.857C158.826 383.857 149.278 393.405 149.278 405.182C149.278 416.96 158.826 426.508 170.603 426.508C182.381 426.508 191.928 416.96 191.928 405.182ZM383.857 405.182C383.857 393.405 374.31 383.857 362.532 383.857C350.754 383.857 341.207 393.405 341.207 405.182C341.207 416.96 350.754 426.508 362.532 426.508C374.31 426.508 383.857 416.96 383.857 405.182ZM174.144 277.23H373.026C377.898 277.23 380.454 277.218 382.299 277.088C382.357 277.083 382.412 277.077 382.466 277.073C382.487 277.017 382.51 276.959 382.533 276.897C383.173 275.153 383.899 272.685 385.256 267.981L414.783 165.62C417.023 157.853 418.289 153.38 418.922 150.112C418.954 149.944 418.982 149.786 419.009 149.639C418.863 149.624 418.708 149.609 418.542 149.594C415.22 149.298 410.572 149.278 402.479 149.278H146.725L174.144 277.23ZM426.509 405.182C426.509 440.515 397.865 469.159 362.532 469.159C327.199 469.159 298.555 440.515 298.555 405.182C298.555 397.705 299.839 390.527 302.197 383.857H230.939C233.297 390.527 234.58 397.705 234.58 405.182C234.58 440.515 205.936 469.159 170.603 469.159C135.27 469.159 106.627 440.515 106.627 405.182C106.627 378.812 122.583 356.168 145.366 346.378C145.162 345.478 144.959 344.566 144.76 343.647L91.5642 95.4137C90.4719 90.3163 89.8748 87.6072 89.3123 85.694C89.29 85.6182 89.2663 85.5474 89.2458 85.4801C89.1791 85.4745 89.1085 85.468 89.0339 85.4625C87.0409 85.3152 84.2742 85.3014 79.0437 85.3014H63.9763C52.1986 85.3014 42.6511 75.7539 42.6511 63.9762C42.6511 52.1985 52.1986 42.651 63.9763 42.651H79.0437C83.6493 42.651 88.2495 42.6372 92.1765 42.9273C96.1155 43.2184 100.628 43.877 105.341 45.7574L106.286 46.15L106.95 46.444C113.564 49.4368 119.346 54.0832 123.691 59.9654L124.121 60.5572L124.701 61.3971C127.521 65.6003 129.114 69.868 130.23 73.6627C131.345 77.4539 132.3 81.9564 133.268 86.4772L137.586 106.627H402.479C409.779 106.627 416.671 106.607 422.333 107.112C428.134 107.63 435.237 108.859 441.972 113.04C450.742 118.483 457.23 126.917 460.253 136.758L460.534 137.715L460.727 138.428C462.632 145.78 461.869 152.669 460.796 158.214C459.715 163.802 457.788 170.418 455.762 177.44L426.235 279.802C424.208 286.829 421.878 296.277 416.075 303.634C411.508 309.425 405.5 313.947 398.667 316.732C389.998 320.265 380.276 319.881 373.026 319.881H183.284L185.756 331.418L185.757 331.419C186.829 336.422 187.407 339.059 187.956 340.932C187.965 340.965 187.975 340.996 187.984 341.027C188.05 341.032 188.12 341.04 188.193 341.046C190.195 341.193 192.97 341.207 198.197 341.207H362.532C397.865 341.207 426.508 369.849 426.509 405.182Z" fill="white"/>
</svg>
