<svg width="512" height="512" viewBox="0 0 512 512" fill="none" xmlns="http://www.w3.org/2000/svg">
<path d="M191.929 383.857C191.929 366.191 177.607 351.869 159.94 351.869C142.274 351.869 127.953 366.191 127.953 383.857C127.953 401.524 142.274 415.844 159.94 415.845C177.607 415.845 191.928 401.524 191.929 383.857ZM447.834 362.531C459.611 362.531 469.159 372.08 469.159 383.857C469.159 395.635 459.611 405.182 447.834 405.183H298.555C286.778 405.182 277.23 395.635 277.23 383.857C277.23 372.08 286.778 362.531 298.555 362.531H447.834ZM351.869 181.266C385.759 181.266 414.372 203.853 423.479 234.794C424.469 234.653 425.48 234.579 426.509 234.579H447.834C459.611 234.579 469.159 244.127 469.159 255.904C469.159 267.682 459.611 277.23 447.834 277.23H426.509C425.48 277.23 424.469 277.155 423.479 277.015C414.373 307.956 385.759 330.544 351.869 330.544C310.647 330.544 277.23 297.126 277.23 255.904C277.23 214.683 310.647 181.266 351.869 181.266ZM213.254 234.579C225.031 234.579 234.58 244.127 234.58 255.904C234.58 267.682 225.031 277.23 213.254 277.23H63.9764C52.1987 277.23 42.6512 267.682 42.6512 255.904C42.6513 244.127 52.1988 234.579 63.9764 234.579H213.254ZM223.917 53.3134C257.728 53.3134 286.289 75.7958 295.465 106.627H447.834C459.611 106.627 469.159 116.174 469.159 127.952C469.159 139.73 459.611 149.277 447.834 149.277H295.465C286.289 180.108 257.729 202.591 223.917 202.591C182.695 202.591 149.278 169.174 149.278 127.952C149.278 86.7302 182.695 53.3135 223.917 53.3134ZM85.3016 106.627C97.0793 106.627 106.627 116.174 106.627 127.952C106.627 139.73 97.0793 149.277 85.3016 149.277H63.9764C52.1987 149.277 42.6512 139.73 42.6512 127.952C42.6512 116.174 52.1987 106.627 63.9764 106.627H85.3016ZM234.58 383.857C234.58 425.079 201.162 458.496 159.94 458.496C126.129 458.496 97.5692 436.013 88.3934 405.183H63.9764C52.1988 405.183 42.6514 395.635 42.6512 383.857C42.6512 372.08 52.1987 362.531 63.9764 362.531H88.3934C97.5693 331.701 126.129 309.218 159.94 309.218C201.162 309.218 234.58 342.635 234.58 383.857ZM319.882 255.904C319.882 273.571 334.203 287.892 351.869 287.893C369.535 287.893 383.857 273.571 383.857 255.904C383.857 238.238 369.535 223.916 351.869 223.916C334.203 223.916 319.882 238.238 319.882 255.904ZM191.929 127.952C191.929 145.619 206.25 159.94 223.917 159.94C241.583 159.94 255.905 145.619 255.905 127.952C255.905 110.286 241.583 95.9638 223.917 95.9638C206.25 95.9638 191.929 110.286 191.929 127.952Z" fill="white"/>
</svg>
