<svg width="512" height="512" viewBox="0 0 512 512" fill="none" xmlns="http://www.w3.org/2000/svg">
<path d="M106.627 426.508V405.183H63.9762C52.1985 405.183 42.651 395.635 42.651 383.857C42.651 372.08 52.1985 362.532 63.9762 362.532H106.627V341.207C106.627 329.429 116.175 319.881 127.953 319.881C139.73 319.881 149.278 329.429 149.278 341.207V426.508C149.278 438.285 139.73 447.834 127.953 447.834C116.175 447.834 106.627 438.285 106.627 426.508ZM447.834 362.532C459.611 362.532 469.159 372.08 469.159 383.857C469.159 395.635 459.611 405.182 447.834 405.183H213.254C201.476 405.182 191.928 395.635 191.928 383.857C191.928 372.08 201.476 362.532 213.254 362.532H447.834ZM319.881 298.556V277.23H63.9762C52.1986 277.23 42.6511 267.683 42.651 255.905C42.651 244.128 52.1985 234.579 63.9762 234.579H319.881V213.254C319.882 201.476 329.429 191.929 341.207 191.929C352.984 191.929 362.532 201.476 362.532 213.254V298.556C362.532 310.333 352.984 319.881 341.207 319.881C329.429 319.881 319.881 310.333 319.881 298.556ZM447.834 234.579C459.611 234.579 469.159 244.128 469.159 255.905C469.159 267.683 459.611 277.23 447.834 277.23H426.508C414.731 277.23 405.182 267.683 405.182 255.905C405.182 244.128 414.731 234.579 426.508 234.579H447.834ZM191.928 170.603V149.278H63.9762C52.1985 149.278 42.651 139.73 42.651 127.952C42.6512 116.175 52.1986 106.627 63.9762 106.627H191.928V85.3017C191.928 73.5242 201.476 63.9767 213.254 63.9765C225.031 63.9765 234.58 73.524 234.58 85.3017V170.603C234.58 182.381 225.031 191.929 213.254 191.929C201.476 191.928 191.928 182.381 191.928 170.603ZM447.834 106.627C459.611 106.627 469.159 116.175 469.159 127.952C469.159 139.73 459.611 149.278 447.834 149.278H298.555C286.778 149.278 277.23 139.73 277.23 127.952C277.23 116.175 286.778 106.627 298.555 106.627H447.834Z" fill="white"/>
</svg>
