<svg width="512" height="512" viewBox="0 0 512 512" fill="none" xmlns="http://www.w3.org/2000/svg">
<path d="M191.929 319.88C191.929 302.214 177.607 287.892 159.941 287.892C142.274 287.892 127.954 302.214 127.953 319.88C127.953 337.547 142.274 351.868 159.941 351.869C177.607 351.869 191.929 337.547 191.929 319.88ZM447.834 298.555C459.612 298.555 469.159 308.103 469.159 319.88C469.159 331.658 459.612 341.206 447.834 341.206H298.556C286.778 341.206 277.231 331.658 277.231 319.88C277.231 308.103 286.778 298.555 298.556 298.555H447.834ZM351.869 117.289C385.759 117.289 414.373 139.876 423.48 170.817C424.469 170.676 425.481 170.603 426.509 170.603H447.834C459.612 170.603 469.159 180.151 469.159 191.928C469.159 203.706 459.612 213.253 447.834 213.253H426.509C425.481 213.253 424.469 213.179 423.48 213.039C414.373 243.98 385.759 266.567 351.869 266.567C310.648 266.567 277.231 233.15 277.231 191.928C277.231 150.706 310.648 117.29 351.869 117.289ZM213.254 170.603C225.032 170.603 234.58 180.15 234.58 191.928C234.58 203.706 225.032 213.253 213.254 213.253H63.9768C52.1991 213.253 42.6516 203.706 42.6516 191.928C42.6516 180.15 52.1991 170.603 63.9768 170.603H213.254ZM234.58 319.88C234.58 361.102 201.163 394.52 159.941 394.52C126.129 394.52 97.5697 372.037 88.3938 341.206H63.9768C52.1991 341.206 42.6516 331.658 42.6516 319.88C42.6518 308.103 52.1992 298.555 63.9768 298.555H88.3938C97.5696 267.724 126.129 245.242 159.941 245.242C201.163 245.242 234.58 278.659 234.58 319.88ZM319.882 191.928C319.882 209.595 334.203 223.916 351.869 223.916C369.536 223.916 383.858 209.595 383.858 191.928C383.858 174.262 369.536 159.94 351.869 159.94C334.203 159.94 319.882 174.262 319.882 191.928Z" fill="white"/>
</svg>
