<svg width="512" height="512" viewBox="0 0 512 512" fill="none" xmlns="http://www.w3.org/2000/svg">
<path d="M426.508 238.777C426.508 226.506 426.492 218.581 425.999 212.547C425.526 206.761 424.723 204.617 424.188 203.567V203.566C422.155 199.577 418.888 196.308 414.852 194.252C413.795 193.714 411.649 192.91 405.863 192.438C399.826 191.944 391.892 191.928 379.596 191.928H132.221C119.927 191.928 111.985 191.945 105.94 192.438C100.144 192.912 97.9943 193.715 96.9411 194.252C92.9284 196.296 89.6702 199.555 87.6257 203.567C87.089 204.621 86.2856 206.77 85.8122 212.566C85.3184 218.611 85.3014 226.553 85.3014 238.848V358.271C85.3014 370.566 85.3186 378.503 85.8122 384.543C86.2854 390.333 87.0879 392.481 87.6257 393.536C89.6763 397.561 92.9405 400.824 96.9411 402.862C97.9908 403.397 100.135 404.199 105.921 404.672C111.954 405.165 119.881 405.182 132.152 405.182H379.658C391.93 405.182 399.851 405.165 405.88 404.672C411.658 404.199 413.8 403.398 414.852 402.862C418.876 400.812 422.149 397.538 424.188 393.536C424.724 392.484 425.526 390.342 425.999 384.563C426.492 378.535 426.508 370.614 426.508 358.342V238.777ZM255.905 106.626C228.049 106.626 204.352 124.429 195.569 149.277H316.24C307.457 124.429 283.761 106.626 255.905 106.626ZM469.159 358.342C469.159 369.91 469.176 379.87 468.507 388.04C467.819 396.46 466.298 404.836 462.19 412.898C456.051 424.947 446.241 434.736 434.215 440.864C426.152 444.972 417.776 446.493 409.356 447.182C401.186 447.85 391.226 447.833 379.658 447.833H132.152C120.584 447.833 110.621 447.85 102.447 447.182C94.0254 446.493 85.6428 444.974 77.5778 440.864C65.5278 434.724 55.7512 424.924 49.6237 412.898C45.5129 404.83 43.9914 396.447 43.3024 388.017C42.6339 379.836 42.651 369.861 42.651 358.271V238.848C42.651 227.256 42.634 217.278 43.3024 209.095C43.9911 200.663 45.5117 192.274 49.6237 184.204C55.7573 172.166 65.5399 162.384 77.5778 156.25C85.6481 152.138 94.0371 150.617 102.468 149.929C110.652 149.26 120.63 149.277 132.221 149.277H151.412C161.291 100.608 204.32 63.9756 255.905 63.9756C307.49 63.9756 350.519 100.608 360.398 149.277H379.596C391.187 149.277 401.16 149.26 409.339 149.929C417.768 150.618 426.148 152.14 434.215 156.25C446.229 162.372 456.045 172.143 462.19 184.204C466.299 192.269 467.819 200.651 468.507 209.072C469.175 217.246 469.159 227.209 469.159 238.777V358.342Z" fill="white"/>
</svg>
