<svg width="512" height="512" viewBox="0 0 512 512" fill="none" xmlns="http://www.w3.org/2000/svg">
<path d="M447.833 255.904C447.833 197.016 400.095 149.277 341.207 149.277H170.603C111.715 149.277 63.9762 197.016 63.9761 255.904C63.9761 314.793 111.715 362.531 170.603 362.531H341.207C400.095 362.531 447.833 314.793 447.833 255.904ZM383.857 255.904C383.857 232.349 364.762 213.254 341.207 213.254C317.651 213.254 298.556 232.349 298.556 255.904C298.556 279.46 317.651 298.556 341.207 298.556C364.762 298.556 383.857 279.46 383.857 255.904ZM426.508 255.904C426.508 303.015 388.317 341.206 341.207 341.206C294.096 341.206 255.905 303.015 255.905 255.904C255.905 208.794 294.096 170.603 341.207 170.603C388.317 170.603 426.508 208.794 426.508 255.904ZM490.484 255.904C490.484 338.348 423.65 405.183 341.207 405.183H170.603C88.1593 405.182 21.3257 338.348 21.3257 255.904C21.3258 173.461 88.1594 106.627 170.603 106.627H341.207C423.65 106.627 490.484 173.461 490.484 255.904Z" fill="white"/>
</svg>
