<svg width="512" height="512" viewBox="0 0 512 512" fill="none" xmlns="http://www.w3.org/2000/svg">
<path d="M238.499 72.978C249.054 72.0185 258.211 71.0152 267.191 72.5766C274.577 73.8608 281.678 76.4352 288.166 80.1723C296.065 84.7218 302.456 91.3553 309.949 98.8481L420.046 208.945C428.247 217.146 435.307 224.187 440.617 230.449C446.089 236.902 450.927 243.901 453.722 252.502C457.888 265.325 457.922 279.171 453.739 292.047C450.942 300.654 446.096 307.656 440.622 314.107C435.312 320.366 428.249 327.408 420.05 335.607L335.606 420.051C327.407 428.25 320.361 435.317 314.097 440.632C307.645 446.107 300.637 450.962 292.026 453.76C279.166 457.938 265.31 457.925 252.471 453.753C243.88 450.962 236.897 446.128 230.473 440.676C224.242 435.389 217.237 428.359 209.094 420.216L98.7239 309.847C91.3053 302.429 84.6872 296.053 80.1507 288.177C76.4037 281.672 73.8437 274.568 72.5628 267.202C71.0096 258.269 72.0081 249.166 72.9505 238.801L80.014 161.103L80.0276 160.961L80.0462 160.78C80.9232 151.132 81.6741 142.72 82.8353 135.777C84.0418 128.562 85.9018 121.451 89.7288 114.569C95.5264 104.143 104.122 95.548 114.548 89.7504C121.453 85.9107 128.594 84.0428 135.853 82.8295C142.848 81.6603 151.333 80.9023 161.092 80.0151L238.499 72.978ZM259.884 114.597C257.756 114.227 255.207 114.286 242.361 115.454L164.953 122.491C154.566 123.435 147.936 124.052 142.884 124.897C138.095 125.697 136.254 126.482 135.276 127.026C131.801 128.958 128.937 131.822 127.004 135.297C126.469 136.259 125.694 138.075 124.902 142.812C124.065 147.815 123.455 154.374 122.52 164.663C122.516 164.711 122.511 164.758 122.506 164.805L122.477 165.106L115.426 242.663C114.276 255.311 114.221 257.813 114.583 259.895C115.014 262.37 115.871 264.738 117.11 266.889C118.175 268.738 119.837 270.642 128.883 279.688V279.689L239.252 390.058L245.193 395.984C250.624 401.376 254.626 405.234 258.069 408.156C262.465 411.886 264.534 412.828 265.651 413.191C269.944 414.586 274.573 414.585 278.846 413.197C279.973 412.83 282.065 411.877 286.501 408.113C291.126 404.188 296.756 398.583 305.448 389.892L389.892 305.448C398.584 296.756 404.181 291.131 408.1 286.513C411.856 282.086 412.807 279.998 413.175 278.867C414.558 274.61 414.559 269.993 413.159 265.683C412.789 264.546 411.836 262.455 408.086 258.033C404.172 253.417 398.577 247.793 389.888 239.104L279.79 129.006C270.668 119.884 268.749 118.208 266.878 117.13C264.71 115.881 262.34 115.024 259.884 114.597ZM161.878 161.896C178.534 145.24 205.549 145.24 222.205 161.896C238.861 178.552 238.861 205.557 222.205 222.213C205.545 238.874 178.522 238.861 161.87 222.209C145.204 205.543 145.233 178.542 161.878 161.896Z" fill="white"/>
</svg>
