<svg width="512" height="512" viewBox="0 0 512 512" fill="none" xmlns="http://www.w3.org/2000/svg">
<path d="M106.627 379.592V149.278H85.3018C73.5242 149.278 63.9768 139.73 63.9766 127.953C63.9766 116.175 73.5241 106.626 85.3018 106.626H149.542C149.595 105.435 149.657 104.281 149.733 103.167C150.213 96.1331 151.269 89.0988 154.147 82.149C160.637 66.4826 173.08 54.0182 188.766 47.521C195.717 44.6417 202.755 43.5858 209.789 43.106C216.632 42.6392 224.935 42.6509 234.579 42.6509H277.23C286.875 42.6509 295.176 42.6392 302.019 43.106C309.052 43.5859 316.088 44.642 323.038 47.521C338.72 54.0169 351.17 66.4795 357.66 82.149C360.538 89.0974 361.595 96.1304 362.075 103.165C362.151 104.28 362.214 105.434 362.267 106.626H426.508C438.285 106.626 447.834 116.175 447.834 127.953C447.834 139.73 438.285 149.278 426.508 149.278H405.183V379.658C405.183 391.226 405.199 401.186 404.531 409.357C403.843 417.778 402.322 426.156 398.214 434.219C392.078 446.261 382.272 456.059 370.238 462.19C362.176 466.298 353.8 467.819 345.38 468.507C337.21 469.175 327.25 469.159 315.682 469.159H196.128C184.56 469.159 174.597 469.175 166.423 468.507C158.001 467.819 149.619 466.299 141.554 462.19C129.498 456.047 119.725 446.238 113.601 434.219C109.49 426.151 107.968 417.769 107.279 409.338C106.611 401.158 106.627 391.183 106.627 379.592ZM191.929 362.532V213.253C191.929 201.476 201.476 191.928 213.254 191.928C225.031 191.928 234.579 201.476 234.579 213.253V362.532C234.579 374.309 225.032 383.857 213.254 383.857C201.476 383.857 191.929 374.309 191.929 362.532ZM277.23 362.532V213.253C277.231 201.476 286.778 191.928 298.556 191.928C310.333 191.928 319.881 201.476 319.881 213.253V362.532C319.881 374.309 310.333 383.857 298.556 383.857C286.778 383.857 277.23 374.309 277.23 362.532ZM234.579 85.3013C224.351 85.3013 217.747 85.3129 212.691 85.6577C207.827 85.9895 205.975 86.5571 205.088 86.9243C199.872 89.0848 195.72 93.2365 193.552 98.4712C193.184 99.3595 192.617 101.211 192.285 106.07C192.273 106.253 192.262 106.439 192.25 106.626H319.559C319.547 106.44 319.536 106.255 319.523 106.072C319.191 101.213 318.624 99.3609 318.256 98.4712C316.089 93.2395 311.936 89.0861 306.717 86.9243C305.829 86.5568 303.977 85.9895 299.115 85.6577C294.062 85.3129 287.458 85.3013 277.23 85.3013H234.579ZM149.278 379.592C149.278 391.888 149.294 399.824 149.788 405.864C150.261 411.653 151.065 413.8 151.603 414.856C153.657 418.887 156.923 422.153 160.917 424.188C161.967 424.723 164.111 425.526 169.896 425.999C175.93 426.492 183.856 426.508 196.128 426.508H315.682C327.953 426.508 335.875 426.492 341.903 425.999C347.682 425.526 349.824 424.724 350.876 424.188C354.893 422.141 358.17 418.864 360.212 414.856C360.748 413.805 361.55 411.662 362.022 405.882C362.515 399.852 362.532 391.93 362.532 379.658V149.278H149.278V379.592Z" fill="white"/>
</svg>
