<svg width="512" height="512" viewBox="0 0 512 512" fill="none" xmlns="http://www.w3.org/2000/svg">
<path d="M106.628 379.592V149.278H85.3027C73.5252 149.278 63.9777 139.73 63.9775 127.953C63.9775 116.175 73.525 106.626 85.3027 106.626H149.543C149.596 105.435 149.658 104.281 149.734 103.167C150.214 96.1331 151.27 89.0988 154.148 82.149C160.638 66.4826 173.081 54.0182 188.767 47.521C195.718 44.6417 202.756 43.5858 209.79 43.106C216.633 42.6392 224.936 42.6509 234.58 42.6509H277.231C286.876 42.6509 295.177 42.6392 302.02 43.106C309.053 43.5859 316.089 44.642 323.039 47.521C338.721 54.0169 351.171 66.4795 357.661 82.149C360.539 89.0974 361.595 96.1304 362.076 103.165C362.152 104.28 362.215 105.434 362.268 106.626H426.509C438.286 106.626 447.835 116.175 447.835 127.953C447.835 139.73 438.286 149.278 426.509 149.278H405.184V379.658C405.184 391.226 405.2 401.186 404.532 409.357C403.844 417.778 402.323 426.156 398.215 434.219C392.079 446.261 382.273 456.059 370.239 462.19C362.177 466.298 353.801 467.819 345.381 468.507C337.211 469.175 327.251 469.159 315.683 469.159H196.129C184.561 469.159 174.598 469.175 166.424 468.507C158.002 467.819 149.62 466.299 141.555 462.19C129.499 456.047 119.726 446.238 113.602 434.219C109.491 426.151 107.969 417.769 107.28 409.338C106.612 401.158 106.628 391.183 106.628 379.592ZM234.58 85.3013C224.352 85.3013 217.748 85.3129 212.692 85.6577C207.828 85.9895 205.976 86.5571 205.089 86.9243C199.873 89.0848 195.721 93.2365 193.553 98.4712C193.185 99.3595 192.618 101.211 192.286 106.07C192.274 106.253 192.263 106.439 192.251 106.626H319.56C319.548 106.44 319.537 106.255 319.524 106.072C319.192 101.213 318.625 99.3609 318.257 98.4712C316.09 93.2395 311.937 89.0861 306.718 86.9243C305.83 86.5568 303.978 85.9895 299.116 85.6577C294.063 85.3129 287.459 85.3013 277.231 85.3013H234.58ZM149.279 379.592C149.279 391.888 149.295 399.824 149.789 405.864C150.262 411.653 151.066 413.8 151.604 414.856C153.658 418.887 156.924 422.153 160.918 424.188C161.968 424.723 164.112 425.526 169.897 425.999C175.931 426.492 183.857 426.508 196.129 426.508H315.683C327.954 426.508 335.876 426.492 341.904 425.999C347.683 425.526 349.825 424.724 350.877 424.188C354.894 422.141 358.171 418.864 360.213 414.856C360.749 413.805 361.551 411.662 362.023 405.882C362.516 399.852 362.533 391.93 362.533 379.658V149.278H149.279V379.592Z" fill="white"/>
</svg>
