<svg width="512" height="512" viewBox="0 0 512 512" fill="none" xmlns="http://www.w3.org/2000/svg">
<path d="M70.3392 134.082C78.7315 125.819 92.2331 125.923 100.496 134.315L185.798 220.95C188.268 223.459 188.814 223.997 189.189 224.332C197.286 231.579 209.531 231.579 217.628 224.332L217.969 224.015C218.396 223.605 219.166 222.831 221.018 220.95C223.143 218.791 224.776 217.142 226.375 215.711C250.666 193.969 287.404 193.969 311.695 215.711L312.304 216.265C313.733 217.587 315.233 219.112 317.041 220.949V220.95L405.187 310.473L405.182 234.58C405.181 222.802 414.729 213.255 426.506 213.254C438.284 213.253 447.832 222.799 447.833 234.577L447.842 362.529C447.843 368.185 445.596 373.611 441.597 377.61C437.598 381.61 432.173 383.856 426.517 383.856H298.555C286.777 383.856 277.23 374.309 277.23 362.531C277.23 350.753 286.777 341.206 298.555 341.206H375.592L286.65 250.874C284.238 248.425 283.638 247.839 283.249 247.491C275.152 240.244 262.917 240.244 254.82 247.491C254.414 247.854 253.764 248.482 251.41 250.874C249.399 252.916 247.704 254.653 246.074 256.112C221.973 277.684 185.607 277.853 161.315 256.618L160.743 256.112C159.113 254.653 157.417 252.916 155.407 250.874L70.1058 164.239C61.8426 155.847 61.947 142.345 70.3392 134.082Z" fill="white"/>
</svg>
