<svg width="512" height="512" viewBox="0 0 512 512" fill="none" xmlns="http://www.w3.org/2000/svg">
<path d="M405.183 153.477C405.183 141.206 405.166 133.279 404.673 127.246C404.2 121.46 403.398 119.316 402.864 118.266C400.831 114.277 397.562 111.007 393.527 108.951C392.47 108.412 390.324 107.61 384.538 107.137C378.501 106.644 370.567 106.627 358.272 106.627H213.254V405.182H358.333C370.605 405.182 378.526 405.165 384.555 404.672C390.333 404.2 392.475 403.399 393.527 402.863C397.539 400.818 400.819 397.539 402.864 393.526C403.4 392.474 404.201 390.332 404.673 384.554C405.166 378.525 405.183 370.604 405.183 358.333V153.477ZM106.627 358.271C106.627 370.566 106.644 378.5 107.138 384.538C107.611 390.323 108.413 392.469 108.951 393.526C111.008 397.562 114.277 400.83 118.267 402.863C119.317 403.398 121.461 404.2 127.246 404.672C133.28 405.165 141.206 405.182 153.478 405.182H170.604V106.627H153.547C141.252 106.627 133.311 106.644 127.266 107.137C121.469 107.611 119.32 108.414 118.267 108.951C114.254 110.995 110.996 114.254 108.951 118.266C108.415 119.319 107.611 121.469 107.138 127.265C106.644 133.31 106.627 141.252 106.627 153.546V358.271ZM447.834 358.333C447.834 369.9 447.851 379.86 447.183 388.03C446.494 396.45 444.974 404.827 440.866 412.889C434.732 424.927 424.928 434.731 412.89 440.865C404.827 444.973 396.451 446.494 388.031 447.182C379.861 447.85 369.901 447.834 358.333 447.834H153.478C141.91 447.834 131.946 447.85 123.773 447.182C115.351 446.494 106.969 444.974 98.9036 440.865C86.8427 434.719 77.0714 424.904 70.9495 412.889C66.8394 404.823 65.3174 396.443 64.6282 388.013C63.9596 379.835 63.9768 369.862 63.9768 358.271V153.546C63.9768 141.955 63.9598 131.977 64.6282 123.793C65.3169 115.362 66.8375 106.973 70.9495 98.9029C77.0831 86.865 86.8657 77.0824 98.9036 70.9488C106.974 66.8368 115.363 65.3161 123.794 64.6275C131.978 63.9591 141.956 63.9761 153.547 63.9761H358.272C369.863 63.9761 379.836 63.9589 388.014 64.6275C396.444 65.3167 404.823 66.8386 412.89 70.9488C424.905 77.0706 434.72 86.842 440.866 98.9029C444.975 106.968 446.495 115.35 447.183 123.772C447.851 131.946 447.834 141.909 447.834 153.477V358.333Z" fill="white"/>
</svg>
