<svg width="512" height="512" viewBox="0 0 512 512" fill="none" xmlns="http://www.w3.org/2000/svg">
<path d="M426.508 217.453C426.508 205.182 426.492 197.255 425.999 191.222C425.526 185.436 424.723 183.292 424.188 182.242C422.155 178.253 418.888 174.984 414.852 172.928C413.795 172.389 411.649 171.586 405.863 171.113C399.825 170.62 391.891 170.603 379.596 170.603H132.221C119.926 170.603 111.985 170.62 105.94 171.113C100.143 171.587 97.9942 172.391 96.941 172.928C92.9284 174.972 89.6701 178.23 87.6255 182.242C87.0889 183.295 86.2856 185.445 85.8121 191.242C85.3183 197.287 85.3013 205.228 85.3013 217.523V336.945C85.3013 349.241 85.3185 357.175 85.8121 363.213C86.2851 368.999 87.0871 371.144 87.6255 372.201C89.6818 376.237 92.9514 379.505 96.941 381.538C97.9907 382.073 100.135 382.875 105.92 383.348C111.954 383.841 119.88 383.857 132.152 383.857H379.658C391.93 383.857 399.851 383.841 405.879 383.348C411.658 382.875 413.8 382.074 414.852 381.538C418.865 379.494 422.144 376.214 424.188 372.201C424.724 371.149 425.526 369.007 425.999 363.229C426.492 357.201 426.508 349.28 426.508 337.008V217.453ZM298.555 277.23C298.555 253.675 279.46 234.579 255.905 234.579C232.349 234.579 213.253 253.675 213.253 277.23C213.254 300.786 232.349 319.881 255.905 319.881C279.46 319.881 298.555 300.786 298.555 277.23ZM226.291 106.627C222.486 106.627 221.704 106.641 221.111 106.685C213.082 107.276 206.075 112.33 202.985 119.734C202.756 120.283 202.492 121.029 201.289 124.64C201.278 124.672 201.267 124.705 201.255 124.738L201.214 124.859C200.731 126.31 200.451 127.155 200.254 127.781C200.236 127.839 200.221 127.892 200.207 127.938C200.647 127.947 201.284 127.952 202.366 127.952H309.44C310.516 127.952 311.156 127.947 311.601 127.938C311.584 127.883 311.566 127.82 311.543 127.748C311.336 127.087 311.038 126.189 310.521 124.638C309.328 121.06 309.054 120.291 308.822 119.734C305.728 112.321 298.73 107.276 290.71 106.685C290.117 106.641 289.323 106.627 285.517 106.627H226.291ZM341.207 277.23C341.207 324.341 303.016 362.532 255.905 362.532C208.794 362.532 170.603 324.341 170.603 277.23C170.603 230.12 208.794 191.929 255.905 191.929C303.016 191.929 341.207 230.12 341.207 277.23ZM469.159 337.008C469.159 348.575 469.175 358.535 468.507 366.705C467.819 375.126 466.298 383.502 462.19 391.564C456.056 403.602 446.252 413.406 434.214 419.54C426.152 423.648 417.776 425.168 409.356 425.856C401.186 426.524 391.226 426.508 379.658 426.508H132.152C120.584 426.508 110.62 426.524 102.447 425.856C94.0253 425.168 85.6426 423.649 77.5777 419.54C65.5168 413.395 55.7454 403.579 49.6236 391.564C45.5134 383.498 43.9914 375.117 43.3023 366.687C42.6337 358.509 42.6509 348.536 42.6509 336.945V217.523C42.6509 205.932 42.6339 195.953 43.3023 187.769C43.9909 179.338 45.5117 170.95 49.6236 162.88C55.7572 150.842 65.5398 141.059 77.5777 134.926C85.648 130.814 94.0369 129.293 102.468 128.604C110.652 127.936 120.63 127.952 132.221 127.952H157.523C157.526 125.018 157.834 122.035 158.473 119.041C159.032 116.422 160.032 113.535 160.786 111.273L160.818 111.176L160.86 111.054C161.831 108.139 162.654 105.631 163.624 103.309C172.914 81.0449 193.943 65.9211 217.975 64.1494C220.513 63.9623 223.172 63.9765 226.291 63.9765H285.517C288.633 63.9765 291.308 63.9622 293.846 64.1494C317.887 65.9217 338.896 81.0535 348.183 103.309C349.16 105.65 349.987 108.162 350.983 111.15C351.762 113.488 352.772 116.407 353.335 119.043C353.973 122.036 354.281 125.018 354.285 127.952H379.596C391.187 127.952 401.16 127.936 409.338 128.604C417.768 129.294 426.148 130.816 434.214 134.926C446.229 141.048 456.045 150.819 462.19 162.88C466.299 170.945 467.819 179.327 468.507 187.748C469.175 195.922 469.159 205.885 469.159 217.453V337.008Z" fill="white"/>
</svg>
