<svg width="512" height="512" viewBox="0 0 512 512" fill="none" xmlns="http://www.w3.org/2000/svg">
<path d="M362.532 210.054C360.349 211.299 358.14 212.479 355.918 213.59C329.221 226.938 293.831 234.579 255.905 234.579C217.979 234.579 182.589 226.938 155.892 213.59C153.67 212.479 151.461 211.299 149.278 210.054V362.532C149.278 367.77 154.079 378.252 174.966 388.696C194.579 398.502 223.165 405.182 255.905 405.182C288.645 405.182 317.232 398.502 336.844 388.696C357.732 378.252 362.532 367.77 362.532 362.532V210.054ZM362.532 149.278C362.532 144.041 357.732 133.558 336.844 123.114C317.232 113.308 288.645 106.627 255.905 106.627C223.165 106.627 194.579 113.308 174.966 123.114C154.078 133.558 149.278 144.041 149.278 149.278C149.278 154.516 154.079 164.999 174.966 175.442C194.579 185.248 223.165 191.929 255.905 191.929C288.645 191.929 317.232 185.248 336.844 175.442C357.732 164.999 362.532 154.516 362.532 149.278ZM405.183 362.532C405.183 392.627 381.34 414.133 355.918 426.844C329.221 440.192 293.831 447.834 255.905 447.834C217.979 447.834 182.589 440.192 155.892 426.844C130.47 414.133 106.628 392.628 106.627 362.532V149.278C106.627 119.183 130.47 97.6766 155.892 84.9657C182.589 71.6171 217.979 63.9765 255.905 63.9764C293.831 63.9764 329.221 71.617 355.918 84.9657C381.34 97.6766 405.183 119.183 405.183 149.278V362.532Z" fill="white"/>
</svg>
