<svg width="512" height="512" viewBox="0 0 512 512" fill="none" xmlns="http://www.w3.org/2000/svg">
<path d="M213.253 405.182C225.031 405.182 234.579 414.73 234.58 426.507C234.58 438.285 225.031 447.834 213.253 447.834H149.278C137.5 447.834 127.953 438.285 127.953 426.507C127.953 414.73 137.5 405.182 149.278 405.182H213.253ZM426.508 153.477C426.508 141.206 426.492 133.279 425.999 127.246C425.526 121.46 424.723 119.316 424.188 118.266C422.155 114.277 418.888 111.007 414.852 108.951C413.795 108.412 411.649 107.61 405.863 107.137C399.825 106.644 391.892 106.627 379.596 106.627H345.475C333.18 106.627 325.239 106.644 319.194 107.137C313.397 107.611 311.248 108.414 310.195 108.951C306.182 110.995 302.924 114.254 300.879 118.266C300.343 119.319 299.539 121.469 299.066 127.265C298.572 133.31 298.555 141.252 298.555 153.546L298.556 362.515C298.565 373.271 298.653 380.261 299.155 385.544C299.633 390.579 300.378 392.541 300.879 393.526C302.936 397.562 306.205 400.83 310.195 402.863C311.245 403.398 313.389 404.2 319.174 404.672C325.208 405.165 333.134 405.182 345.406 405.182H379.658C391.93 405.182 399.851 405.165 405.879 404.672C411.658 404.2 413.8 403.399 414.852 402.863C418.865 400.818 422.144 397.538 424.188 393.526C424.724 392.474 425.526 390.332 425.999 384.554C426.492 378.525 426.508 370.604 426.508 358.333V153.477ZM383.857 341.207C395.635 341.207 405.182 350.754 405.182 362.532C405.182 374.309 395.635 383.857 383.857 383.857H341.207C329.429 383.857 319.882 374.309 319.881 362.532C319.881 350.754 329.429 341.207 341.207 341.207H383.857ZM362.574 127.952C374.351 127.952 383.899 137.5 383.899 149.278V149.32C383.899 155.065 381.581 160.567 377.47 164.58C373.36 168.593 367.804 170.777 362.061 170.639L362.019 170.638C350.444 170.36 341.207 160.897 341.207 149.319V149.278C341.207 137.5 350.754 127.952 362.532 127.952H362.574ZM85.3013 294.294C85.3013 306.59 85.3185 314.524 85.8121 320.561C86.285 326.346 87.0871 328.492 87.6255 329.549C89.6818 333.585 92.9514 336.853 96.941 338.886C97.9906 339.421 100.135 340.224 105.92 340.697C111.954 341.19 119.88 341.207 132.152 341.207H255.905L255.908 213.253H132.221C119.926 213.253 111.985 213.27 105.94 213.764C100.144 214.238 97.9942 215.041 96.941 215.578C92.9283 217.622 89.6701 220.88 87.6255 224.893C87.0889 225.946 86.2855 228.096 85.8121 233.892C85.3183 239.937 85.3013 247.879 85.3013 260.173V294.294ZM469.159 358.333C469.159 369.9 469.175 379.86 468.507 388.03C467.819 396.45 466.298 404.827 462.19 412.889C456.056 424.927 446.252 434.731 434.214 440.865C426.152 444.973 417.776 446.494 409.356 447.182C401.186 447.85 391.226 447.834 379.658 447.834H345.406C333.838 447.834 323.874 447.85 315.701 447.182C307.279 446.494 298.897 444.974 290.832 440.865C278.771 434.719 268.999 424.904 262.877 412.889C259.016 405.31 257.445 397.472 256.695 389.58C256.521 387.753 256.387 385.844 256.282 383.857H132.152C120.584 383.857 110.62 383.874 102.447 383.206C94.0253 382.517 85.6427 380.998 77.5777 376.888C65.5168 370.743 55.7454 360.927 49.6236 348.913C45.5134 340.846 43.9914 332.467 43.3023 324.037C42.6337 315.858 42.6509 305.886 42.6509 294.294V260.173C42.6509 248.582 42.6339 238.604 43.3023 230.42C43.9909 221.989 45.5116 213.6 49.6236 205.53C55.7572 193.492 65.5398 183.709 77.5777 177.576C85.648 173.464 94.037 171.943 102.468 171.254C110.652 170.586 120.63 170.603 132.221 170.603H255.907L255.905 153.546C255.905 141.955 255.888 131.977 256.556 123.793C257.245 115.362 258.765 106.973 262.877 98.9029C269.011 86.865 278.794 77.0824 290.832 70.9488C298.902 66.8367 307.291 65.3161 315.722 64.6275C323.906 63.9591 333.884 63.9761 345.475 63.9761H379.596C391.187 63.9761 401.16 63.9589 409.338 64.6275C417.768 65.3166 426.148 66.8387 434.214 70.9488C446.229 77.0706 456.045 86.842 462.19 98.9029C466.299 106.968 467.819 115.35 468.507 123.772C469.175 131.946 469.159 141.909 469.159 153.477V358.333Z" fill="white"/>
</svg>
