<svg width="512" height="512" viewBox="0 0 512 512" fill="none" xmlns="http://www.w3.org/2000/svg">
<path d="M191.928 238.778C191.928 226.507 191.912 218.581 191.419 212.548C190.946 206.762 190.144 204.618 189.609 203.568C187.576 199.579 184.308 196.309 180.272 194.253C179.215 193.714 177.069 192.911 171.284 192.438C165.246 191.945 157.312 191.929 145.017 191.929H132.221C119.926 191.929 111.985 191.946 105.94 192.439C100.143 192.913 97.9942 193.716 96.941 194.253C92.9283 196.297 89.6701 199.556 87.6255 203.568C87.0889 204.621 86.2855 206.771 85.8121 212.567C85.3183 218.612 85.3013 226.554 85.3013 238.848V358.271C85.3013 370.567 85.3185 378.5 85.8121 384.538C86.285 390.323 87.0871 392.469 87.6255 393.526C89.6818 397.562 92.9514 400.83 96.941 402.863C97.9907 403.398 100.135 404.2 105.92 404.673C111.954 405.166 119.88 405.182 132.152 405.182H145.079C157.351 405.182 165.272 405.166 171.3 404.673C177.078 404.2 179.22 403.399 180.272 402.863C184.285 400.819 187.564 397.539 189.609 393.526C190.145 392.474 190.946 390.332 191.419 384.554C191.911 378.526 191.928 370.605 191.928 358.333V238.778ZM234.58 341.207H379.658C391.93 341.207 399.852 341.19 405.882 340.697C411.662 340.224 413.805 339.422 414.856 338.887C418.864 336.844 422.141 333.567 424.188 329.55C424.724 328.497 425.526 326.356 425.999 320.578C426.492 314.549 426.508 306.628 426.508 294.356V153.477C426.508 141.206 426.492 133.28 425.999 127.246C425.526 121.46 424.723 119.316 424.188 118.266C422.155 114.277 418.888 111.007 414.852 108.951C413.795 108.413 411.649 107.61 405.863 107.137C399.825 106.644 391.892 106.627 379.596 106.627H196.198C183.903 106.627 175.961 106.644 169.917 107.137C164.119 107.611 161.97 108.414 160.917 108.951C156.904 110.996 153.647 114.254 151.602 118.266C151.065 119.32 150.261 121.469 149.788 127.265C149.353 132.581 149.292 139.363 149.283 149.282C159.07 149.288 167.602 149.344 174.759 149.929C183.189 150.619 191.569 152.141 199.635 156.251C211.65 162.373 221.466 172.144 227.611 184.205C231.72 192.27 233.24 200.652 233.928 209.073C234.596 217.247 234.58 227.21 234.58 238.778V341.207ZM469.159 294.356C469.159 305.924 469.175 315.883 468.507 324.053C467.819 332.474 466.298 340.85 462.19 348.913C456.059 360.946 446.261 370.753 434.219 376.888C426.156 380.997 417.778 382.517 409.357 383.206C401.186 383.874 391.226 383.857 379.658 383.857H234.203C234.127 385.296 234.038 386.687 233.928 388.03C233.24 396.451 231.719 404.827 227.611 412.889C221.477 424.927 211.673 434.731 199.635 440.865C191.573 444.973 183.197 446.494 174.776 447.182C166.606 447.85 156.646 447.834 145.079 447.834H132.152C120.584 447.834 110.62 447.85 102.447 447.182C94.0253 446.494 85.6427 444.974 77.5777 440.865C65.5168 434.72 55.7454 424.904 49.6236 412.889C45.5134 404.823 43.9915 396.443 43.3023 388.013C42.6337 379.835 42.6509 369.862 42.6509 358.271V238.848C42.6509 227.257 42.6339 217.279 43.3023 209.096C43.9909 200.664 45.5116 192.275 49.6236 184.205C55.7572 172.167 65.5398 162.384 77.5777 156.251C85.648 152.139 94.0369 150.618 102.468 149.929C103.808 149.82 105.195 149.73 106.629 149.654C106.634 139.709 106.686 131.047 107.279 123.794C107.967 115.362 109.488 106.973 113.6 98.9031C119.734 86.8652 129.516 77.0826 141.554 70.949C149.624 66.8372 158.013 65.3164 166.444 64.6277C174.628 63.9593 184.606 63.9764 196.198 63.9764H379.596C391.187 63.9764 401.16 63.9591 409.338 64.6277C417.768 65.3169 426.148 66.8389 434.214 70.949C446.229 77.0708 456.045 86.8422 462.19 98.9031C466.299 106.968 467.819 115.351 468.507 123.772C469.175 131.946 469.159 141.909 469.159 153.477V294.356Z" fill="white"/>
</svg>
