<svg width="512" height="512" viewBox="0 0 512 512" fill="none" xmlns="http://www.w3.org/2000/svg">
<path d="M447.834 196.128C447.834 183.856 447.817 175.93 447.324 169.897C446.851 164.111 446.049 161.967 445.514 160.917C443.481 156.927 440.213 153.658 436.177 151.602C435.12 151.063 432.975 150.261 427.189 149.788C421.152 149.295 413.217 149.277 400.921 149.277H110.896C98.6012 149.277 90.6596 149.294 84.6148 149.788C78.8183 150.262 76.669 151.065 75.6158 151.602C71.6031 153.646 68.3449 156.904 66.3003 160.917C65.7637 161.97 64.9603 164.12 64.4869 169.916C63.9931 175.961 63.9761 183.902 63.9761 196.197V315.62C63.9761 327.916 63.9933 335.849 64.4869 341.887C64.9598 347.672 65.7619 349.818 66.3003 350.875C68.3566 354.911 71.6262 358.179 75.6158 360.212C76.6654 360.747 78.8098 361.549 84.5953 362.022C90.629 362.515 98.5552 362.531 110.827 362.531H400.984C413.256 362.531 421.177 362.516 427.206 362.023C432.984 361.55 435.125 360.748 436.177 360.212C440.19 358.167 443.47 354.888 445.514 350.875C446.05 349.823 446.851 347.681 447.324 341.903C447.817 335.875 447.834 327.954 447.834 315.682V196.128ZM127.953 298.556C139.73 298.556 149.278 308.103 149.278 319.881C149.278 331.659 139.73 341.206 127.953 341.206H106.627C94.8498 341.206 85.3014 331.659 85.3013 319.881C85.3013 308.103 94.8498 298.556 106.627 298.556H127.953ZM319.881 298.556C331.659 298.556 341.207 308.103 341.207 319.881C341.207 331.659 331.659 341.206 319.881 341.206H191.928C180.151 341.206 170.603 331.658 170.603 319.881C170.603 308.103 180.151 298.556 191.928 298.556H319.881ZM405.183 298.556C416.961 298.556 426.508 308.103 426.508 319.881C426.508 331.658 416.961 341.206 405.183 341.206H383.857C372.079 341.206 362.532 331.658 362.532 319.881C362.532 308.103 372.079 298.556 383.857 298.556H405.183ZM405.183 234.579C416.961 234.579 426.508 244.127 426.508 255.904C426.508 267.682 416.961 277.229 405.183 277.23H106.627C94.8498 277.23 85.3013 267.682 85.3013 255.904C85.3015 244.127 94.8499 234.579 106.627 234.579H405.183ZM405.183 170.603C416.961 170.603 426.508 180.151 426.508 191.929C426.508 203.706 416.961 213.254 405.183 213.254H106.627C94.8499 213.254 85.3015 203.706 85.3013 191.929C85.3013 180.151 94.8498 170.603 106.627 170.603H405.183ZM490.484 315.682C490.484 327.25 490.501 337.209 489.833 345.379C489.144 353.8 487.624 362.176 483.516 370.238C477.383 382.276 467.578 392.08 455.541 398.214C447.478 402.322 439.102 403.843 430.681 404.531C422.511 405.199 412.552 405.183 400.984 405.183H110.827C99.2586 405.183 89.2953 405.199 81.1216 404.531C72.7001 403.843 64.3175 402.323 56.2525 398.214C44.1915 392.069 34.4202 382.253 28.2984 370.238C24.1882 362.172 22.6663 353.792 21.9771 345.362C21.3085 337.184 21.3257 327.211 21.3257 315.62V196.197C21.3257 184.606 21.3087 174.628 21.9771 166.444C22.6657 158.013 24.1864 149.624 28.2984 141.554C34.432 129.516 44.2146 119.733 56.2525 113.6C64.3228 109.488 72.7118 107.967 81.1431 107.278C89.3268 106.61 99.3046 106.627 110.896 106.627H400.921C412.512 106.627 422.485 106.61 430.664 107.278C439.094 107.968 447.474 109.489 455.541 113.6C467.555 119.722 477.371 129.493 483.516 141.554C487.625 149.619 489.144 158.001 489.833 166.423C490.5 174.597 490.484 184.56 490.484 196.128V315.682Z" fill="white"/>
</svg>
