<svg width="512" height="512" viewBox="0 0 512 512" fill="none" xmlns="http://www.w3.org/2000/svg">
<path d="M341.207 132.152C341.207 119.881 341.19 111.954 340.697 105.921C340.224 100.135 339.421 97.9908 338.887 96.9412C336.854 92.9516 333.586 89.6821 329.551 87.6258C328.494 87.0873 326.348 86.2853 320.562 85.8123C314.525 85.3187 306.59 85.3016 294.295 85.3016H217.523C205.228 85.3016 197.287 85.3186 191.242 85.8123C185.446 86.2858 183.296 87.0892 182.243 87.6258C178.23 89.6703 174.972 92.9286 172.928 96.9412C172.391 97.9945 171.588 100.144 171.114 105.94C170.62 111.985 170.603 119.927 170.603 132.221V379.596C170.603 391.892 170.62 399.829 171.114 405.869C171.587 411.659 172.39 413.807 172.928 414.862C174.978 418.887 178.242 422.15 182.243 424.188C183.293 424.723 185.437 425.526 191.222 425.999C197.256 426.492 205.182 426.509 217.454 426.509H294.357C306.629 426.509 314.549 426.492 320.578 425.999C326.356 425.526 328.499 424.724 329.551 424.188L329.926 423.993C333.778 421.933 336.911 418.739 338.887 414.862C339.423 413.81 340.225 411.669 340.697 405.89C341.19 399.862 341.207 391.941 341.207 379.669V132.152ZM255.948 362.532C261.69 362.532 267.189 364.848 271.202 368.955C275.215 373.062 277.401 378.615 277.267 384.355L277.266 384.398C277.134 390.055 274.76 395.427 270.666 399.332C266.572 403.237 261.093 405.355 255.436 405.22L255.395 405.219C243.82 404.942 234.58 395.478 234.58 383.899V383.857C234.58 372.08 244.127 362.532 255.905 362.532H255.948ZM383.857 379.669C383.857 391.237 383.874 401.196 383.206 409.366C382.517 417.787 380.997 426.163 376.889 434.225C370.75 446.274 360.94 456.062 348.914 462.19C340.851 466.298 332.475 467.819 324.054 468.508C315.884 469.176 305.925 469.159 294.357 469.159H217.454C205.886 469.159 195.922 469.176 187.749 468.508C179.327 467.819 170.945 466.3 162.88 462.19C150.83 456.05 141.053 446.251 134.926 434.225C130.815 426.157 129.293 417.774 128.604 409.344C127.936 401.163 127.953 391.188 127.953 379.596V132.221C127.953 120.63 127.936 110.652 128.604 102.469C129.293 94.0372 130.814 85.6482 134.926 77.5779C141.059 65.54 150.842 55.7574 162.88 49.6238C170.95 45.5118 179.339 43.9912 187.77 43.3025C195.954 42.6341 205.932 42.6512 217.523 42.6512H294.295C305.886 42.6512 315.859 42.634 324.037 43.3025C332.467 43.9917 340.847 45.5136 348.914 49.6238C360.928 55.7457 370.744 65.5171 376.889 77.5779C380.999 85.6429 382.518 94.0256 383.206 102.447C383.874 110.621 383.857 120.584 383.857 132.152V379.669Z" fill="white"/>
</svg>
