<svg width="512" height="512" viewBox="0 0 512 512" fill="none" xmlns="http://www.w3.org/2000/svg">
<path d="M341.207 132.152C341.207 119.881 341.19 111.954 340.697 105.921C340.224 100.135 339.421 97.9908 338.886 96.9412C336.854 92.9516 333.586 89.6821 329.55 87.6258C328.494 87.0873 326.348 86.2853 320.562 85.8123C314.525 85.3187 306.59 85.3016 294.294 85.3016H217.523C205.228 85.3016 197.287 85.3186 191.242 85.8123C185.445 86.2858 183.296 87.0892 182.243 87.6258C178.23 89.6703 174.972 92.9286 172.927 96.9412C172.391 97.9945 171.587 100.144 171.114 105.94C170.62 111.985 170.603 119.927 170.603 132.221V379.596C170.603 391.892 170.62 399.826 171.114 405.863C171.587 411.649 172.389 413.796 172.927 414.852C174.984 418.888 178.253 422.156 182.243 424.188C183.292 424.723 185.437 425.526 191.222 425.999C197.256 426.492 205.182 426.509 217.454 426.509H294.357C306.628 426.509 314.549 426.492 320.578 425.999C326.356 425.526 328.498 424.724 329.55 424.188L329.924 423.993C333.766 421.938 336.906 418.739 338.886 414.852C339.422 413.8 340.224 411.658 340.697 405.88C341.19 399.851 341.207 391.93 341.207 379.658V132.152ZM255.948 106.627C261.69 106.627 267.189 108.943 271.202 113.051C275.214 117.158 277.401 122.71 277.267 128.451L277.266 128.493C277.134 134.15 274.759 139.522 270.665 143.428C266.57 147.333 261.091 149.45 255.434 149.314L255.392 149.313C243.818 149.035 234.58 139.572 234.58 127.994V127.953C234.58 116.175 244.127 106.627 255.905 106.627H255.948ZM383.857 379.658C383.857 391.226 383.874 401.186 383.206 409.356C382.517 417.777 380.997 426.152 376.889 434.215C370.756 446.252 360.951 456.057 348.914 462.19C340.851 466.298 332.475 467.819 324.054 468.508C315.884 469.176 305.925 469.159 294.357 469.159H217.454C205.886 469.159 195.922 469.176 187.749 468.508C179.327 467.819 170.944 466.3 162.879 462.19C150.819 456.045 141.047 446.229 134.925 434.215C130.815 426.148 129.293 417.769 128.604 409.339C127.935 401.16 127.953 391.188 127.953 379.596V132.221C127.953 120.63 127.936 110.652 128.604 102.469C129.293 94.0372 130.813 85.6482 134.925 77.5779C141.059 65.54 150.842 55.7574 162.879 49.6238C170.95 45.5118 179.339 43.9912 187.77 43.3025C195.954 42.6341 205.932 42.6512 217.523 42.6512H294.294C305.885 42.6512 315.858 42.634 324.037 43.3025C332.467 43.9917 340.847 45.5136 348.914 49.6238C360.928 55.7457 370.744 65.5171 376.889 77.5779C380.998 85.6429 382.517 94.0256 383.206 102.447C383.874 110.621 383.857 120.584 383.857 132.152V379.658Z" fill="white"/>
</svg>
