<svg width="512" height="512" viewBox="0 0 512 512" fill="none" xmlns="http://www.w3.org/2000/svg">
<path d="M362.53 383.857C362.53 373.629 362.518 367.025 362.173 361.969C361.842 357.105 361.273 355.252 360.906 354.366C358.743 349.144 354.596 344.995 349.368 342.83C348.48 342.462 346.628 341.895 341.766 341.563C336.713 341.218 330.109 341.207 319.881 341.207H191.928C181.7 341.207 175.096 341.218 170.041 341.563C165.176 341.895 163.324 342.462 162.437 342.83C157.212 344.994 153.065 349.14 150.901 354.366C150.533 355.253 149.966 357.105 149.634 361.966C149.29 367.02 149.278 373.624 149.278 383.852C149.278 394.08 149.289 400.686 149.634 405.743C149.966 410.61 150.534 412.463 150.901 413.349C153.065 418.572 157.21 422.717 162.437 424.882C163.325 425.25 165.179 425.819 170.043 426.151C175.097 426.496 181.702 426.508 191.928 426.508H319.88C330.107 426.508 336.711 426.496 341.764 426.151C346.626 425.819 348.479 425.251 349.368 424.882C354.593 422.718 358.741 418.568 360.906 413.343C361.273 412.456 361.842 410.604 362.173 405.742C362.518 400.688 362.53 394.085 362.53 383.857ZM298.555 213.253C310.333 213.253 319.881 222.802 319.881 234.58C319.881 246.357 310.333 255.905 298.555 255.905H213.253C201.476 255.905 191.928 246.357 191.928 234.58C191.928 222.802 201.476 213.254 213.253 213.253H298.555ZM196.198 85.3013C183.903 85.3013 175.961 85.3183 169.917 85.8121C164.119 86.2856 161.97 87.0889 160.917 87.6255C156.904 89.6701 153.647 92.9284 151.602 96.941C151.065 97.9942 150.261 100.143 149.788 105.94C149.354 111.255 149.292 118.036 149.283 127.953H362.527C362.518 118.021 362.456 111.236 362.022 105.92C361.549 100.135 360.747 97.9907 360.212 96.941C358.18 92.9514 354.911 89.6818 350.876 87.6255C349.819 87.0871 347.673 86.2851 341.887 85.8121C335.85 85.3185 327.915 85.3013 315.62 85.3013H196.198ZM426.508 217.453C426.508 205.182 426.492 197.256 425.999 191.222C425.526 185.437 424.723 183.292 424.188 182.243C422.155 178.253 418.887 174.984 414.851 172.927C413.866 172.425 411.904 171.68 406.87 171.202C401.587 170.7 394.596 170.612 383.84 170.604H127.969C117.215 170.612 110.219 170.7 104.93 171.203C99.8863 171.682 97.9222 172.427 96.941 172.927C92.9283 174.972 89.6701 178.23 87.6255 182.243C87.0889 183.296 86.2855 185.445 85.8121 191.242C85.3183 197.287 85.3013 205.228 85.3013 217.523V298.56C85.3013 308.788 85.313 315.389 85.6578 320.44C85.9893 325.298 86.5563 327.149 86.9244 328.038C89.0916 333.27 93.242 337.419 98.4605 339.581C99.3479 339.948 101.2 340.516 106.062 340.848C107.378 340.938 108.799 341.004 110.362 341.054C110.705 340.049 111.082 339.045 111.497 338.043C117.99 322.368 130.439 309.919 146.115 303.425C153.066 300.546 160.104 299.491 167.138 299.011C173.981 298.544 182.284 298.555 191.928 298.555H319.881C329.526 298.555 337.827 298.544 344.669 299.011C351.703 299.491 358.739 300.546 365.689 303.425L366.421 303.734C381.75 310.307 393.917 322.61 400.31 338.043C400.725 339.045 401.101 340.049 401.444 341.054C403.006 341.004 404.426 340.938 405.742 340.848C410.604 340.516 412.456 339.948 413.343 339.581C418.565 337.418 422.716 333.267 424.882 328.038C425.251 327.148 425.819 325.296 426.151 320.438C426.496 315.388 426.508 308.787 426.508 298.56V217.453ZM469.159 298.56C469.159 308.206 469.17 316.505 468.703 323.346C468.222 330.38 467.165 337.412 464.287 344.36C457.795 360.032 445.345 372.49 429.666 378.985C422.715 381.864 415.679 382.92 408.645 383.4C407.529 383.476 406.373 383.538 405.179 383.59C405.179 383.679 405.18 383.768 405.18 383.857C405.18 393.501 405.192 401.803 404.725 408.645C404.245 415.679 403.189 422.715 400.31 429.666C393.817 445.341 381.365 457.793 365.689 464.287C358.74 467.165 351.706 468.222 344.671 468.703C337.828 469.17 329.526 469.159 319.88 469.159H191.928C182.283 469.159 173.98 469.17 167.136 468.703C160.102 468.222 153.065 467.165 146.115 464.287C130.441 457.794 117.991 445.348 111.497 429.67C108.617 422.719 107.562 415.679 107.083 408.645C106.616 401.801 106.627 393.497 106.627 383.852C106.627 383.765 106.627 383.677 106.627 383.59C105.432 383.538 104.276 383.476 103.159 383.4C96.1251 382.92 89.0897 381.864 82.1392 378.985C66.4564 372.489 54.0114 360.028 47.521 344.359C44.6426 337.41 43.586 330.377 43.106 323.344C42.6391 316.504 42.6509 308.204 42.6509 298.56V217.523C42.6509 205.932 42.6339 195.954 43.3023 187.77C43.9909 179.339 45.5116 170.95 49.6236 162.879C55.7572 150.842 65.5398 141.059 77.5777 134.925C85.1596 131.062 93.0045 129.492 100.897 128.743C102.727 128.569 104.639 128.434 106.629 128.329C106.634 118.383 106.686 109.721 107.279 102.468C107.967 94.0369 109.488 85.648 113.6 77.5777C119.734 65.5398 129.516 55.7572 141.554 49.6236C149.624 45.5117 158.013 43.9909 166.444 43.3023C174.628 42.6339 184.606 42.6509 196.198 42.6509H315.62C327.211 42.6509 337.183 42.6337 345.362 43.3023C353.792 43.9914 362.172 45.5134 370.239 49.6236C382.253 55.7454 392.069 65.5168 398.214 77.5777C402.324 85.6426 403.843 94.0253 404.531 102.447C405.124 109.706 405.174 118.376 405.178 128.329C407.167 128.434 409.077 128.569 410.906 128.743C418.798 129.493 426.635 131.064 434.214 134.925C446.229 141.047 456.045 150.819 462.19 162.879C466.299 170.944 467.819 179.326 468.507 187.748C469.175 195.921 469.159 205.885 469.159 217.453V298.56Z" fill="white"/>
</svg>
