<svg width="512" height="512" viewBox="0 0 512 512" fill="none" xmlns="http://www.w3.org/2000/svg">
<path d="M277.23 362.532C277.23 350.754 286.778 341.207 298.555 341.207C310.333 341.207 319.881 350.754 319.881 362.532V405.183H341.207C352.984 405.183 362.532 414.73 362.532 426.508C362.532 438.285 352.984 447.834 341.207 447.834H298.555C286.778 447.834 277.23 438.285 277.23 426.508V362.532ZM426.508 405.183C438.285 405.183 447.834 414.73 447.834 426.508C447.834 438.285 438.285 447.834 426.508 447.834H405.182C393.405 447.834 383.857 438.285 383.857 426.508C383.857 414.73 393.405 405.183 405.182 405.183H426.508ZM63.9764 362.526C63.9764 352.882 63.9646 344.58 64.4315 337.738C64.9114 330.704 65.9675 323.669 68.8465 316.719C75.3397 301.043 87.7887 288.594 103.465 282.1C110.415 279.222 117.451 278.165 124.484 277.685C131.326 277.219 139.628 277.23 149.272 277.23C158.917 277.23 167.221 277.219 174.065 277.685C181.1 278.165 188.139 279.221 195.092 282.1C210.769 288.595 223.215 301.045 229.707 316.719C232.586 323.67 233.642 330.707 234.122 337.741C234.589 344.584 234.577 352.887 234.577 362.532C234.577 372.177 234.589 380.478 234.122 387.32C233.642 394.354 232.586 401.389 229.707 408.34C223.216 424.011 210.773 436.467 195.092 442.962C188.139 445.841 181.1 446.896 174.065 447.376C167.221 447.843 158.917 447.831 149.272 447.831C139.628 447.831 131.326 447.843 124.484 447.376C117.451 446.896 110.415 445.841 103.465 442.962C87.7908 436.469 75.3405 424.023 68.8465 408.346C65.9668 401.393 64.9112 394.354 64.4315 387.319C63.9647 380.475 63.9764 372.171 63.9764 362.526ZM426.508 277.23C438.285 277.23 447.834 286.778 447.834 298.556V362.532C447.834 374.31 438.285 383.857 426.508 383.857H362.532C350.754 383.857 341.207 374.31 341.207 362.532C341.207 350.754 350.754 341.207 362.532 341.207H405.182V319.881C393.405 319.881 383.857 310.333 383.857 298.556C383.857 286.778 393.405 277.23 405.182 277.23H426.508ZM341.207 277.23C352.984 277.231 362.532 286.778 362.532 298.556C362.532 310.333 352.984 319.881 341.207 319.881H298.555C286.778 319.881 277.23 310.333 277.23 298.556C277.23 286.778 286.778 277.23 298.555 277.23H341.207ZM63.9764 149.272C63.9764 139.628 63.9646 131.326 64.4315 124.484C64.9114 117.451 65.9675 110.415 68.8465 103.465C75.3397 87.7888 87.7887 75.3398 103.465 68.8466C110.415 65.9676 117.451 64.9114 124.484 64.4315C131.326 63.9647 139.628 63.9765 149.272 63.9765C158.917 63.9765 167.221 63.9648 174.065 64.4315C181.1 64.9113 188.139 65.9669 195.092 68.8466C210.769 75.3406 223.215 87.7909 229.707 103.465C232.586 110.416 233.642 117.453 234.122 124.487C234.589 131.331 234.577 139.634 234.577 149.278C234.577 158.923 234.589 167.224 234.122 174.066C233.642 181.1 232.586 188.135 229.707 195.086C223.216 210.757 210.772 223.212 195.092 229.707C188.139 232.587 181.1 233.642 174.065 234.122C167.221 234.589 158.917 234.577 149.272 234.577C139.628 234.577 131.326 234.589 124.484 234.122C117.451 233.642 110.415 232.586 103.465 229.707C87.7908 223.215 75.3406 210.769 68.8465 195.092C65.9668 188.14 64.9112 181.1 64.4315 174.065C63.9647 167.221 63.9764 158.917 63.9764 149.272ZM277.23 149.272C277.23 139.628 277.219 131.326 277.685 124.484C278.165 117.451 279.221 110.415 282.1 103.465C288.594 87.7888 301.043 75.3398 316.719 68.8466C323.669 65.9676 330.704 64.9115 337.738 64.4315C344.58 63.9647 352.882 63.9765 362.526 63.9765C372.171 63.9765 380.475 63.9648 387.319 64.4315C394.353 64.9113 401.393 65.9669 408.346 68.8466C424.023 75.3406 436.469 87.7909 442.962 103.465C445.841 110.416 446.896 117.453 447.376 124.487C447.843 131.331 447.831 139.634 447.831 149.278C447.831 158.923 447.843 167.224 447.376 174.066C446.896 181.1 445.841 188.135 442.962 195.086C436.471 210.757 424.026 223.212 408.346 229.707C401.393 232.587 394.354 233.642 387.319 234.122C380.475 234.589 372.171 234.577 362.526 234.577C352.882 234.577 344.58 234.589 337.738 234.122C330.704 233.642 323.669 232.586 316.719 229.707C301.045 223.215 288.594 210.769 282.1 195.092C279.221 188.14 278.165 181.1 277.685 174.065C277.219 167.221 277.23 158.917 277.23 149.272ZM106.627 362.526C106.627 372.754 106.638 379.361 106.983 384.418C107.315 389.284 107.883 391.137 108.25 392.023C110.413 397.247 114.559 401.392 119.786 403.558C120.673 403.925 122.525 404.492 127.388 404.824C132.441 405.169 139.044 405.181 149.272 405.181C159.5 405.181 166.107 405.169 171.164 404.824C176.03 404.492 177.883 403.924 178.769 403.558C183.99 401.395 188.137 397.249 190.304 392.018C190.671 391.131 191.238 389.279 191.57 384.417C191.915 379.363 191.927 372.76 191.927 362.532C191.927 352.304 191.915 345.699 191.57 340.643C191.238 335.779 190.671 333.927 190.304 333.04C188.138 327.813 183.993 323.668 178.769 321.505C177.883 321.138 176.031 320.569 171.164 320.237C166.107 319.892 159.5 319.881 149.272 319.881C139.044 319.881 132.441 319.892 127.388 320.237C122.525 320.569 120.673 321.137 119.786 321.505C114.561 323.669 110.414 327.815 108.25 333.04C107.882 333.927 107.315 335.779 106.983 340.642C106.638 345.695 106.627 352.298 106.627 362.526ZM106.627 149.272C106.627 159.5 106.638 166.107 106.983 171.164C107.315 176.03 107.883 177.883 108.25 178.769C110.413 183.993 114.559 188.138 119.786 190.304C120.673 190.671 122.526 191.238 127.388 191.57C132.441 191.915 139.044 191.927 149.272 191.927C159.5 191.927 166.107 191.915 171.164 191.57C176.03 191.238 177.883 190.671 178.769 190.304C183.99 188.141 188.137 183.995 190.304 178.765C190.671 177.877 191.238 176.025 191.57 171.163C191.915 166.109 191.927 159.506 191.927 149.278C191.927 139.05 191.915 132.445 191.57 127.39C191.238 122.525 190.671 120.673 190.304 119.786C188.138 114.559 183.993 110.413 178.769 108.25C177.883 107.883 176.03 107.315 171.164 106.983C166.107 106.638 159.5 106.627 149.272 106.627C139.044 106.627 132.441 106.639 127.388 106.983C122.526 107.315 120.673 107.882 119.786 108.25C114.561 110.414 110.414 114.561 108.25 119.786C107.882 120.674 107.315 122.526 106.983 127.388C106.638 132.441 106.627 139.044 106.627 149.272ZM319.881 149.272C319.881 159.5 319.892 166.107 320.237 171.164C320.569 176.031 321.138 177.884 321.505 178.769C323.668 183.993 327.813 188.138 333.04 190.304C333.927 190.671 335.779 191.238 340.641 191.57C345.695 191.915 352.298 191.927 362.526 191.927C372.754 191.927 379.361 191.915 384.418 191.57C389.284 191.238 391.137 190.671 392.023 190.304C397.244 188.141 401.391 183.995 403.557 178.765C403.925 177.877 404.492 176.025 404.824 171.163C405.169 166.109 405.18 159.506 405.18 149.278C405.18 139.05 405.169 132.445 404.824 127.39C404.492 122.525 403.925 120.673 403.557 119.786C401.392 114.559 397.247 110.413 392.023 108.25C391.137 107.883 389.284 107.315 384.418 106.983C379.361 106.638 372.754 106.627 362.526 106.627C352.298 106.627 345.695 106.639 340.641 106.983C335.779 107.315 333.927 107.882 333.04 108.25C327.815 110.414 323.669 114.561 321.505 119.786C321.137 120.673 320.569 122.525 320.237 127.388C319.892 132.441 319.881 139.044 319.881 149.272Z" fill="white"/>
</svg>
