<svg width="512" height="512" viewBox="0 0 512 512" fill="none" xmlns="http://www.w3.org/2000/svg">
<path d="M341.207 366.732C341.207 354.46 341.19 346.534 340.697 340.5C340.224 334.714 339.421 332.57 338.886 331.521C336.854 327.531 333.586 324.263 329.55 322.206C328.494 321.668 326.348 320.865 320.562 320.392C314.525 319.898 306.59 319.882 294.294 319.882H217.523C205.228 319.882 197.287 319.898 191.242 320.392C185.445 320.865 183.296 321.67 182.243 322.206C178.23 324.251 174.972 327.508 172.927 331.521C172.391 332.574 171.587 334.723 171.114 340.521C170.62 346.565 170.603 354.507 170.603 366.802V426.509L341.207 426.512V366.732ZM319.881 127.953C331.659 127.954 341.207 137.501 341.207 149.279C341.206 161.056 331.659 170.603 319.881 170.604H191.928C180.151 170.604 170.603 161.056 170.603 149.279C170.603 137.501 180.151 127.953 191.928 127.953H319.881ZM42.6509 132.222C42.6509 120.63 42.6339 110.653 43.3023 102.469C43.9909 94.0376 45.5116 85.6486 49.6236 77.5783C55.7572 65.5404 65.5398 55.7578 77.5777 49.6242C85.648 45.5122 94.037 43.9916 102.468 43.3029C110.652 42.6345 120.63 42.6516 132.221 42.6516H321.481C331.576 42.6516 340.36 42.4947 348.799 44.6623C355.72 46.4397 362.313 49.3615 368.296 53.3381C375.484 58.1153 381.173 64.6686 387.717 71.9406L446.472 137.225C452.125 143.505 457.243 149.015 460.937 155.573C464.017 161.042 466.262 166.915 467.625 173.013C469.277 180.408 469.159 187.972 469.159 196.612V379.658C469.159 391.226 469.175 401.189 468.507 409.362C467.819 417.783 466.299 426.164 462.19 434.229C456.049 446.28 446.238 456.064 434.214 462.191C426.152 466.299 417.776 467.819 409.356 468.508C401.187 469.176 391.229 469.158 379.663 469.158L379.664 469.159H132.152C120.584 469.159 110.62 469.176 102.447 468.508C94.0253 467.82 85.6427 466.3 77.5777 462.191C65.5168 456.045 55.7454 446.23 49.6236 434.215C45.5135 426.148 43.9914 417.769 43.3023 409.339C42.6337 401.161 42.6509 391.188 42.6509 379.597V132.222ZM85.3013 379.597C85.3013 391.892 85.3185 399.826 85.8121 405.863C86.2851 411.649 87.0871 413.796 87.6255 414.853C89.6818 418.888 92.9515 422.156 96.941 424.189C97.9906 424.723 100.135 425.526 105.92 425.999C111.236 426.434 118.021 426.494 127.953 426.503V366.802C127.953 355.21 127.936 345.232 128.604 337.048C129.293 328.617 130.813 320.228 134.925 312.157C141.059 300.12 150.842 290.337 162.879 284.203C170.95 280.091 179.339 278.572 187.77 277.883C195.954 277.215 205.932 277.231 217.523 277.231H294.294C305.885 277.231 315.858 277.214 324.037 277.883C332.466 278.572 340.846 280.093 348.913 284.203C360.927 290.325 370.743 300.097 376.888 312.157C380.998 320.222 382.517 328.605 383.206 337.027C383.874 345.2 383.857 355.163 383.857 366.732V426.503C393.788 426.494 400.568 426.434 405.879 425.999C411.658 425.527 413.8 424.725 414.852 424.189C418.878 422.137 422.151 418.864 424.188 414.865C424.723 413.815 425.526 411.672 425.999 405.888C426.492 399.855 426.508 391.93 426.508 379.658V196.611C426.508 186.108 426.389 184.053 426.001 182.315C425.6 180.52 424.976 178.801 424.145 177.189L423.776 176.505C422.925 174.994 421.662 173.414 414.771 165.758L356.014 100.473C348.024 91.5943 346.345 89.9606 344.688 88.8596C342.715 87.5485 340.522 86.5718 338.19 85.9728C336.189 85.4591 333.768 85.3019 321.481 85.3019H132.221C119.926 85.3019 111.985 85.319 105.94 85.8127C100.144 86.2861 97.9942 87.0896 96.941 87.6262C92.9283 89.6707 89.6701 92.929 87.6255 96.9416C87.0889 97.9949 86.2855 100.144 85.8121 105.941C85.3183 111.985 85.3013 119.927 85.3013 132.222V379.597Z" fill="white"/>
</svg>
