<svg width="512" height="512" viewBox="0 0 512 512" fill="none" xmlns="http://www.w3.org/2000/svg">
<path d="M405.183 132.152C405.183 119.881 405.166 111.954 404.673 105.921C404.2 100.135 403.398 97.9909 402.863 96.9412C400.83 92.9516 397.562 89.6821 393.526 87.6258C392.469 87.0873 390.324 86.2853 384.538 85.8123C378.501 85.3187 370.567 85.3016 358.271 85.3016H153.547C141.252 85.3016 133.31 85.3186 127.266 85.8123C121.469 86.2858 119.32 87.0892 118.267 87.6258C114.254 89.6703 110.996 92.9286 108.951 96.9412C108.414 97.9945 107.611 100.144 107.138 105.94C106.644 111.985 106.627 119.927 106.627 132.221V379.596C106.627 391.892 106.644 399.829 107.138 405.869C107.611 411.659 108.413 413.807 108.951 414.862C111.002 418.887 114.266 422.15 118.267 424.188C119.316 424.723 121.46 425.526 127.246 425.999C133.28 426.492 141.206 426.509 153.477 426.509H358.333C370.605 426.509 378.526 426.492 384.555 425.999C390.333 425.526 392.474 424.724 393.526 424.188C397.55 422.138 400.824 418.864 402.863 414.862C403.399 413.81 404.2 411.668 404.673 405.89C405.166 399.862 405.183 391.941 405.183 379.669V132.152ZM255.947 106.627C261.689 106.627 267.189 108.943 271.202 113.051C275.215 117.158 277.402 122.71 277.268 128.451L277.267 128.493C277.134 134.15 274.759 139.522 270.664 143.428C266.569 147.333 261.09 149.45 255.434 149.314L255.393 149.313C243.818 149.035 234.579 139.572 234.579 127.994V127.953C234.579 116.175 244.128 106.627 255.905 106.627H255.947ZM447.834 379.669C447.834 391.236 447.851 401.196 447.183 409.366C446.494 417.787 444.973 426.163 440.865 434.225C434.726 446.274 424.916 456.062 412.89 462.19C404.827 466.298 396.451 467.819 388.03 468.508C379.86 469.176 369.901 469.159 358.333 469.159H153.477C141.909 469.159 131.946 469.176 123.772 468.508C115.351 467.819 106.968 466.3 98.9032 462.19C86.8533 456.05 77.0766 446.251 70.9491 434.225C66.8382 426.157 65.3168 417.774 64.6278 409.344C63.9593 401.163 63.9765 391.188 63.9765 379.596V132.221C63.9765 120.63 63.9594 110.652 64.6278 102.469C65.3165 94.0372 66.8371 85.6482 70.9491 77.5779C77.0828 65.54 86.8653 55.7574 98.9032 49.6238C106.974 45.5118 115.363 43.9912 123.794 43.3025C131.978 42.6341 141.955 42.6512 153.547 42.6512H358.271C369.862 42.6512 379.835 42.6339 388.014 43.3025C396.443 43.9917 404.823 45.5137 412.89 49.6238C424.904 55.7457 434.72 65.517 440.865 77.5779C444.974 85.6429 446.494 94.0255 447.183 102.447C447.85 110.621 447.834 120.584 447.834 132.152V379.669Z" fill="white"/>
</svg>
