<svg width="512" height="512" viewBox="0 0 512 512" fill="none" xmlns="http://www.w3.org/2000/svg">
<path d="M426.508 174.802C426.508 162.531 426.492 154.605 425.999 148.571C425.526 142.785 424.723 140.641 424.188 139.591C422.155 135.602 418.887 132.332 414.851 130.276C413.794 129.738 411.648 128.935 405.863 128.463C399.825 127.969 391.892 127.952 379.596 127.952H132.221C119.926 127.952 111.985 127.969 105.94 128.463C100.144 128.936 97.9942 129.739 96.941 130.276C92.9283 132.321 89.6701 135.579 87.6255 139.591C87.0889 140.645 86.2855 142.794 85.8121 148.59C85.3183 154.635 85.3013 162.577 85.3013 174.872V336.945C85.3013 349.241 85.3185 357.175 85.8121 363.213C86.2851 368.998 87.0871 371.144 87.6255 372.201C89.6818 376.237 92.9514 379.504 96.941 381.537C97.9906 382.072 100.135 382.875 105.92 383.347C111.954 383.84 119.88 383.857 132.152 383.857H379.658C391.93 383.857 399.851 383.84 405.879 383.347C411.658 382.875 413.8 382.073 414.852 381.537C418.864 379.492 422.144 376.213 424.188 372.201C424.724 371.149 425.526 369.007 425.999 363.228C426.492 357.199 426.508 349.278 426.508 337.007V174.802ZM132.895 199.601C140.435 190.553 153.882 189.331 162.93 196.871L226.906 250.184C231.768 254.236 234.58 260.238 234.58 266.567C234.58 272.896 231.768 278.898 226.906 282.95L162.93 336.263C153.882 343.803 140.435 342.581 132.895 333.533C125.355 324.485 126.578 311.038 135.626 303.498L179.942 266.567L135.626 229.636C126.578 222.096 125.355 208.649 132.895 199.601ZM362.532 298.555C374.309 298.555 383.857 308.103 383.857 319.881C383.857 331.658 374.309 341.206 362.532 341.206H255.905C244.127 341.206 234.58 331.658 234.58 319.881C234.58 308.103 244.127 298.555 255.905 298.555H362.532ZM469.159 337.007C469.159 348.574 469.175 358.535 468.507 366.705C467.819 375.125 466.298 383.501 462.19 391.563C456.056 403.601 446.252 413.406 434.214 419.54C426.152 423.648 417.776 425.168 409.356 425.856C401.186 426.524 391.226 426.507 379.658 426.507H132.152C120.584 426.507 110.62 426.524 102.447 425.856C94.0253 425.168 85.6426 423.649 77.5777 419.54C65.5167 413.394 55.7454 403.578 49.6236 391.563C45.5135 383.497 43.9914 375.117 43.3023 366.687C42.6337 358.509 42.6509 348.536 42.6509 336.945V174.872C42.6509 163.28 42.6339 153.303 43.3023 145.119C43.9909 136.687 45.5116 128.299 49.6236 120.228C55.7572 108.19 65.5398 98.4077 77.5777 92.2741C85.648 88.1621 94.037 86.6415 102.468 85.9528C110.652 85.2844 120.63 85.3014 132.221 85.3014H379.596C391.187 85.3014 401.16 85.2842 409.338 85.9528C417.505 86.6204 425.624 88.0695 433.458 91.8962L434.214 92.2741L435.335 92.8591C446.839 99.0092 456.237 108.544 462.19 120.228C466.299 128.293 467.819 136.676 468.507 145.097C469.175 153.271 469.159 163.234 469.159 174.802V337.007Z" fill="white"/>
</svg>
