<svg width="512" height="512" viewBox="0 0 512 512" fill="none" xmlns="http://www.w3.org/2000/svg">
<path d="M255.905 341.207C279.46 341.207 298.556 360.302 298.556 383.857C298.556 407.413 279.46 426.508 255.905 426.508C232.349 426.508 213.254 407.413 213.254 383.857C213.254 360.302 232.349 341.207 255.905 341.207ZM79.0521 70.2226C87.3802 61.8945 100.883 61.8945 109.211 70.2226L410.798 371.81C419.126 380.138 419.126 393.64 410.798 401.968C402.47 410.296 388.967 410.296 380.639 401.968L280.494 301.823C279.381 301.719 278.26 301.527 277.142 301.239C262.303 297.423 246.698 297.687 231.97 301.99C217.253 306.291 203.966 314.478 193.509 325.691C185.477 334.305 171.983 334.776 163.369 326.744C154.756 318.712 154.285 305.218 162.317 296.604C178.002 279.784 197.931 267.502 220.007 261.051C225.312 259.501 230.695 258.3 236.121 257.45L201.997 223.326C181.032 231.446 162.128 244.215 146.736 260.722C138.703 269.335 125.209 269.806 116.595 261.773C107.982 253.741 107.51 240.247 115.542 231.634C131.109 214.94 149.469 201.22 169.715 191.044L138.258 159.587C118.281 171.167 100.11 185.641 84.3422 202.55C76.3098 211.163 62.8152 211.635 54.2015 203.603C45.5879 195.57 45.1166 182.076 53.1488 173.462C69.212 156.236 87.3868 141.15 107.219 128.548L79.0521 100.381C70.7245 92.0528 70.7245 78.5506 79.0521 70.2226ZM299.456 196.213C303.83 185.278 316.241 179.958 327.176 184.332C353.408 194.824 377 210.978 396.268 231.641C404.3 240.254 403.829 253.748 395.215 261.78C386.602 269.813 373.107 269.341 365.075 260.728C350.089 244.657 331.74 232.093 311.337 223.933C300.402 219.559 295.083 207.148 299.456 196.213ZM239.458 85.789C280.197 83.3687 320.964 89.9785 358.852 105.133C396.742 120.288 430.819 143.62 458.651 173.466C466.683 182.079 466.212 195.574 457.598 203.606C448.984 211.639 435.491 211.167 427.458 202.554C403.909 177.3 375.074 157.557 343.013 144.733C310.95 131.909 276.455 126.317 241.988 128.365C230.231 129.064 220.133 120.099 219.435 108.342C218.737 96.585 227.702 86.4875 239.458 85.789Z" fill="white"/>
</svg>
