<svg width="512" height="512" viewBox="0 0 512 512" fill="none" xmlns="http://www.w3.org/2000/svg">
<path d="M255.905 341.206C279.46 341.206 298.556 360.302 298.556 383.858C298.556 407.413 279.46 426.508 255.905 426.508C232.349 426.508 213.254 407.413 213.254 383.858C213.254 360.302 232.349 341.207 255.905 341.206ZM255.459 255.906C272.94 255.845 290.245 259.367 306.31 266.252C322.372 273.137 336.862 283.239 348.875 295.942C356.967 304.499 356.591 317.997 348.033 326.089C339.476 334.181 325.978 333.804 317.886 325.246C309.882 316.783 300.222 310.047 289.508 305.454C278.796 300.863 267.259 298.515 255.608 298.556C243.949 298.597 232.417 301.023 221.744 305.686C211.066 310.351 201.456 317.155 193.509 325.677C185.477 334.291 171.983 334.762 163.369 326.73C154.756 318.697 154.284 305.203 162.317 296.589C174.238 283.805 188.652 273.6 204.669 266.602C220.692 259.601 237.986 255.967 255.459 255.906ZM254.902 170.604C266.679 170.542 276.278 180.039 276.34 191.817C276.402 203.594 266.905 213.192 255.127 213.254C234.779 213.362 214.663 217.628 196.025 225.791C177.386 233.954 160.613 245.841 146.736 260.723C138.703 269.337 125.209 269.808 116.595 261.776C107.981 253.743 107.51 240.249 115.542 231.635C133.385 212.502 154.951 197.218 178.915 186.723C202.88 176.228 228.741 170.742 254.902 170.604ZM411.428 91.5482C419.756 83.2201 433.259 83.2201 441.587 91.5482C449.915 99.8762 449.915 113.378 441.587 121.706L414.016 149.278L441.587 176.849C449.915 185.177 449.915 198.679 441.587 207.007C433.259 215.335 419.756 215.335 411.428 207.007L383.857 179.436L356.285 207.007C347.957 215.335 334.455 215.335 326.127 207.007C317.799 198.679 317.799 185.177 326.127 176.849L353.698 149.278L326.127 121.706C317.799 113.378 317.799 99.8762 326.127 91.5482C334.455 83.2201 347.957 83.2202 356.285 91.5482L383.857 119.118L411.428 91.5482ZM254.964 85.3021C266.742 85.2621 276.321 94.7774 276.362 106.555C276.401 118.332 266.886 127.912 255.109 127.952C223.064 128.062 191.372 134.747 161.998 147.578C132.629 160.408 106.2 179.12 84.342 202.559C76.3096 211.173 62.815 211.644 54.2014 203.612C45.588 195.579 45.1167 182.086 53.1486 173.472C78.9805 145.771 110.215 123.656 144.925 108.493C179.63 93.3329 217.083 85.4309 254.964 85.3021Z" fill="white"/>
</svg>
