<svg width="512" height="512" viewBox="0 0 512 512" fill="none" xmlns="http://www.w3.org/2000/svg">
<path d="M426.504 149.278H85.3077C85.3064 150.641 85.3018 152.062 85.3018 153.547V358.271C85.3018 370.567 85.319 378.501 85.8125 384.538C86.2855 390.324 87.0876 392.47 87.626 393.526L87.8223 393.902C89.8873 397.765 93.0765 400.894 96.9414 402.863C97.9912 403.398 100.136 404.2 105.921 404.673C111.955 405.166 119.881 405.183 132.152 405.183H379.658C391.93 405.183 399.851 405.166 405.88 404.673C411.658 404.2 413.801 403.399 414.853 402.863C418.865 400.819 422.144 397.539 424.189 393.526C424.724 392.474 425.527 390.332 425.999 384.554C426.492 378.525 426.509 370.604 426.509 358.332V153.478C426.509 152.018 426.505 150.619 426.504 149.278ZM155.524 240.825C163.852 232.498 177.355 232.498 185.683 240.825L228.334 283.477C236.662 291.805 236.662 305.307 228.334 313.635L185.683 356.286C177.355 364.614 163.852 364.614 155.524 356.286C147.196 347.958 147.196 334.455 155.524 326.127L183.096 298.556L155.524 270.984C147.196 262.656 147.196 249.153 155.524 240.825ZM341.207 319.881C352.985 319.881 362.532 329.429 362.532 341.207C362.532 352.984 352.984 362.532 341.207 362.532H277.231C265.453 362.532 255.906 352.984 255.905 341.207C255.905 329.429 265.453 319.881 277.231 319.881H341.207ZM469.159 358.332C469.159 369.9 469.176 379.86 468.508 388.03C467.819 396.451 466.299 404.827 462.19 412.89C456.057 424.927 446.253 434.732 434.215 440.865C426.152 444.973 417.777 446.494 409.356 447.183C401.186 447.851 391.226 447.834 379.658 447.834H132.152C120.584 447.834 110.621 447.85 102.447 447.183C94.0257 446.494 85.6432 444.975 77.5782 440.865C65.5172 434.72 55.7459 424.904 49.6241 412.89C45.5139 404.823 43.992 396.443 43.3028 388.014C42.6342 379.835 42.6514 369.862 42.6514 358.271V153.547C42.6514 141.955 42.6344 131.978 43.3028 123.794C43.9914 115.363 45.5121 106.974 49.6241 98.9033C55.7577 86.8654 65.5403 77.0828 77.5782 70.9492C85.6485 66.8372 94.0375 65.3166 102.469 64.6279C110.652 63.9595 120.63 63.9765 132.222 63.9765H379.597C391.188 63.9765 401.16 63.9593 409.339 64.6279C417.769 65.3171 426.148 66.8391 434.215 70.9492C446.23 77.0711 456.045 86.8425 462.19 98.9033C466.3 106.968 467.82 115.351 468.508 123.772C469.176 131.946 469.159 141.909 469.159 153.478V358.332Z" fill="white"/>
</svg>
