<svg width="512" height="512" viewBox="0 0 512 512" fill="none" xmlns="http://www.w3.org/2000/svg">
<path d="M426.504 149.278H85.3047C85.3035 150.642 85.3008 152.063 85.3008 153.547V358.271C85.3008 370.567 85.318 378.501 85.8116 384.538C86.2845 390.324 87.0866 392.47 87.625 393.526L87.8213 393.902C89.8864 397.765 93.0755 400.894 96.9405 402.863C97.9902 403.398 100.135 404.2 105.92 404.673C111.954 405.166 119.88 405.183 132.151 405.183H379.657C391.929 405.183 399.85 405.166 405.879 404.673C411.657 404.2 413.8 403.399 414.852 402.863C418.864 400.819 422.143 397.539 424.188 393.526C424.724 392.474 425.526 390.333 425.998 384.555C426.491 378.526 426.508 370.604 426.508 358.332V153.478C426.508 152.019 426.505 150.62 426.504 149.278ZM198.174 219.5C206.502 211.172 220.005 211.172 228.333 219.5C236.661 227.828 236.661 241.331 228.333 249.659L200.761 277.23L228.333 304.802C236.661 313.13 236.661 326.633 228.333 334.961C220.005 343.289 206.502 343.289 198.174 334.961L155.523 292.31C151.524 288.31 149.277 282.886 149.277 277.23C149.277 271.575 151.524 266.151 155.523 262.151L198.174 219.5ZM283.476 219.5C291.804 211.172 305.307 211.172 313.635 219.5L356.285 262.151C360.284 266.151 362.531 271.575 362.531 277.23C362.531 282.886 360.284 288.31 356.285 292.31L313.635 334.961C305.307 343.289 291.804 343.289 283.476 334.961C275.148 326.633 275.148 313.13 283.476 304.802L311.047 277.23L283.476 249.659C275.148 241.331 275.148 227.828 283.476 219.5ZM469.158 358.332C469.158 369.9 469.175 379.86 468.507 388.03C467.818 396.451 466.298 404.827 462.189 412.89C456.056 424.927 446.252 434.732 434.214 440.865C426.152 444.973 417.776 446.494 409.355 447.183C401.185 447.851 391.225 447.834 379.657 447.834H132.151C120.583 447.834 110.62 447.85 102.446 447.183C94.0247 446.494 85.6422 444.975 77.5772 440.865C65.5162 434.72 55.7449 424.904 49.6231 412.89C45.5129 404.823 43.991 396.443 43.3018 388.014C42.6332 379.835 42.6504 369.862 42.6504 358.271V153.547C42.6504 145.153 42.6448 137.652 42.8848 131.122C42.7307 130.088 42.6504 129.029 42.6504 127.952C42.6505 125.939 42.9299 123.992 43.4512 122.145C44.2053 114.238 45.7978 106.411 49.6231 98.9033C55.7567 86.8654 65.5393 77.0828 77.5772 70.9492C85.6475 66.8372 94.0365 65.3166 102.468 64.6279C110.652 63.9595 120.629 63.9765 132.221 63.9765H379.596C391.187 63.9765 401.16 63.9593 409.338 64.6279C417.768 65.3171 426.147 66.8391 434.214 70.9492C446.229 77.0711 456.044 86.8425 462.189 98.9033C466.018 106.417 467.609 114.249 468.361 122.16C468.88 124.002 469.158 125.945 469.158 127.952C469.158 129.025 469.077 130.08 468.924 131.11C469.163 137.626 469.158 145.109 469.158 153.478V358.332Z" fill="white"/>
</svg>
