<svg width="512" height="512" viewBox="0 0 512 512" fill="none" xmlns="http://www.w3.org/2000/svg">
<path d="M426.506 149.278H85.3067C85.3055 150.641 85.3028 152.063 85.3028 153.547V358.271C85.3028 370.567 85.32 378.501 85.8135 384.538C86.2865 390.323 87.0885 392.469 87.627 393.526L87.8233 393.902C89.8883 397.765 93.0775 400.894 96.9424 402.863C97.9922 403.398 100.136 404.2 105.922 404.673C111.956 405.166 119.882 405.182 132.153 405.182H379.659C391.931 405.182 399.852 405.166 405.881 404.673C411.659 404.2 413.802 403.399 414.854 402.863C418.866 400.819 422.145 397.539 424.189 393.526C424.726 392.474 425.528 390.333 426 384.554C426.493 378.526 426.51 370.604 426.51 358.332V153.477C426.51 152.019 426.507 150.62 426.506 149.278ZM469.16 358.332C469.16 369.9 469.177 379.86 468.509 388.03C467.82 396.451 466.299 404.827 462.191 412.889C456.058 424.927 446.254 434.731 434.216 440.865C426.153 444.973 417.778 446.494 409.357 447.182C401.187 447.85 391.227 447.834 379.659 447.834H132.153C120.585 447.834 110.622 447.85 102.448 447.182C94.0267 446.494 85.6442 444.974 77.5791 440.865C65.5182 434.72 55.7469 424.904 49.625 412.889C45.5149 404.823 43.9929 396.443 43.3038 388.013C42.6352 379.835 42.6524 369.862 42.6524 358.271V153.547C42.6524 145.153 42.6468 137.652 42.8868 131.122C42.7327 130.088 42.6524 129.029 42.6524 127.952C42.6524 125.939 42.9319 123.991 43.4532 122.145C44.2072 114.238 45.7997 106.411 49.625 98.9031C55.7587 86.8652 65.5413 77.0826 77.5791 70.949C85.6495 66.837 94.0384 65.3164 102.47 64.6277C110.653 63.9593 120.631 63.9764 132.223 63.9764H379.598C391.189 63.9764 401.161 63.9591 409.34 64.6277C417.77 65.3169 426.149 66.8389 434.216 70.949C446.231 77.0709 456.046 86.8423 462.191 98.9031C466.02 106.416 467.611 114.249 468.363 122.16C468.882 124.002 469.16 125.944 469.16 127.952C469.16 129.025 469.079 130.08 468.926 131.11C469.165 137.626 469.16 145.108 469.16 153.477V358.332Z" fill="white"/>
</svg>
