<svg width="512" height="512" viewBox="0 0 512 512" fill="none" xmlns="http://www.w3.org/2000/svg">
<path d="M426.505 149.278H85.3057C85.3045 150.641 85.3018 152.063 85.3018 153.547V358.271C85.3018 370.567 85.319 378.501 85.8125 384.538C86.2855 390.323 87.0876 392.469 87.626 393.526L87.8223 393.902C89.8873 397.765 93.0765 400.894 96.9414 402.863C97.9912 403.398 100.136 404.2 105.921 404.673C111.955 405.166 119.881 405.182 132.152 405.182H379.658C391.93 405.182 399.851 405.166 405.88 404.673C411.658 404.2 413.801 403.399 414.853 402.863C418.865 400.819 422.144 397.539 424.189 393.526C424.725 392.474 425.527 390.333 425.999 384.554C426.492 378.526 426.509 370.604 426.509 358.332V153.477C426.509 152.019 426.506 150.62 426.505 149.278ZM304.802 219.5C313.13 211.172 326.633 211.172 334.961 219.5C343.289 227.828 343.289 241.331 334.961 249.659L249.659 334.961C241.331 343.289 227.828 343.289 219.5 334.961L176.85 292.309C168.522 283.981 168.522 270.479 176.85 262.151C185.178 253.823 198.681 253.823 207.009 262.151L234.579 289.721L304.802 219.5ZM469.159 358.332C469.159 369.9 469.176 379.86 468.508 388.03C467.819 396.451 466.299 404.827 462.19 412.889C456.057 424.927 446.253 434.731 434.215 440.865C426.152 444.973 417.777 446.494 409.356 447.182C401.186 447.85 391.226 447.834 379.658 447.834H132.152C120.584 447.834 110.621 447.85 102.447 447.182C94.0257 446.494 85.6432 444.974 77.5782 440.865C65.5172 434.72 55.7459 424.904 49.6241 412.889C45.5139 404.823 43.992 396.443 43.3028 388.013C42.6342 379.835 42.6514 369.862 42.6514 358.271V153.547C42.6514 145.153 42.6458 137.652 42.8858 131.122C42.7317 130.088 42.6514 129.029 42.6514 127.952C42.6514 125.939 42.9309 123.991 43.4522 122.145C44.2063 114.238 45.7987 106.411 49.6241 98.9031C55.7577 86.8652 65.5403 77.0826 77.5782 70.949C85.6485 66.837 94.0375 65.3164 102.469 64.6277C110.652 63.9593 120.63 63.9764 132.222 63.9764H379.597C391.188 63.9764 401.16 63.9591 409.339 64.6277C417.769 65.3169 426.148 66.8389 434.215 70.949C446.23 77.0709 456.045 86.8423 462.19 98.9031C466.019 106.416 467.61 114.249 468.362 122.16C468.881 124.002 469.159 125.944 469.159 127.952C469.159 129.025 469.078 130.08 468.925 131.11C469.164 137.626 469.159 145.108 469.159 153.477V358.332Z" fill="white"/>
</svg>
