<svg width="512" height="512" viewBox="0 0 512 512" fill="none" xmlns="http://www.w3.org/2000/svg">
<path d="M405.184 153.477C405.184 141.206 405.167 133.279 404.674 127.246C404.201 121.46 403.399 119.316 402.864 118.266C400.831 114.277 397.563 111.007 393.527 108.951C392.471 108.412 390.325 107.61 384.539 107.137C378.502 106.644 370.568 106.627 358.272 106.627H341.208V405.182H358.334C370.606 405.182 378.527 405.165 384.556 404.672C390.334 404.2 392.475 403.399 393.527 402.863C397.54 400.818 400.82 397.539 402.864 393.526C403.4 392.474 404.201 390.332 404.674 384.554C405.167 378.525 405.184 370.604 405.184 358.332V153.477ZM106.628 358.271C106.628 370.566 106.645 378.5 107.139 384.538C107.612 390.323 108.414 392.469 108.952 393.526C111.009 397.562 114.278 400.83 118.268 402.863C119.317 403.398 121.462 404.2 127.247 404.672C133.281 405.165 141.207 405.182 153.479 405.182H298.557V106.627H153.548C141.253 106.627 133.311 106.644 127.267 107.137C121.47 107.611 119.321 108.414 118.268 108.951C114.255 110.995 110.997 114.254 108.952 118.266C108.416 119.319 107.612 121.469 107.139 127.265C106.645 133.31 106.628 141.252 106.628 153.546V358.271ZM447.835 358.332C447.835 369.9 447.852 379.86 447.184 388.03C446.495 396.45 444.974 404.827 440.866 412.889C434.733 424.927 424.928 434.731 412.891 440.865C404.828 444.973 396.452 446.494 388.031 447.182C379.861 447.85 369.902 447.834 358.334 447.834H153.479C141.91 447.834 131.947 447.85 123.773 447.182C115.352 446.494 106.969 444.974 98.9043 440.865C86.8434 434.719 77.0721 424.904 70.9502 412.889C66.8401 404.823 65.3181 396.443 64.6289 388.013C63.9604 379.835 63.9776 369.862 63.9776 358.271V153.546C63.9776 141.955 63.9605 131.977 64.6289 123.793C65.3176 115.362 66.8382 106.973 70.9502 98.9029C77.0839 86.865 86.8665 77.0824 98.9043 70.9488C106.975 66.8368 115.364 65.3161 123.795 64.6275C131.979 63.9591 141.956 63.9761 153.548 63.9761H358.272C369.863 63.9761 379.836 63.9589 388.015 64.6275C396.445 65.3167 404.824 66.8386 412.891 70.9488C424.905 77.0706 434.721 86.842 440.866 98.9029C444.976 106.968 446.495 115.351 447.184 123.772C447.852 131.946 447.835 141.909 447.835 153.477V358.332Z" fill="white"/>
</svg>
