<svg width="512" height="512" viewBox="0 0 512 512" fill="none" xmlns="http://www.w3.org/2000/svg">
<path d="M176.849 134.199C185.177 125.871 198.679 125.871 207.008 134.199C215.336 142.527 215.336 156.029 207.008 164.357L115.46 255.905L207.008 347.453C215.336 355.781 215.336 369.283 207.008 377.611C198.679 385.939 185.177 385.939 176.849 377.611L70.2224 270.984C66.2231 266.985 63.9763 261.561 63.9763 255.905C63.9763 250.249 66.2231 244.825 70.2224 240.826L176.849 134.199ZM304.802 134.199C313.13 125.871 326.633 125.871 334.961 134.199L441.588 240.826C445.587 244.825 447.834 250.249 447.834 255.905C447.834 261.56 445.587 266.985 441.588 270.984L334.961 377.611C326.633 385.939 313.13 385.939 304.802 377.611C296.474 369.283 296.474 355.781 304.802 347.453L396.349 255.905L304.802 164.357C296.474 156.029 296.474 142.527 304.802 134.199Z" fill="white"/>
</svg>
