<svg width="512" height="512" viewBox="0 0 512 512" fill="none" xmlns="http://www.w3.org/2000/svg">
<path d="M362.531 316.681C360.348 317.926 358.14 319.106 355.918 320.217C329.221 333.565 293.83 341.207 255.904 341.207C217.979 341.207 182.589 333.565 155.892 320.217C153.67 319.106 151.46 317.926 149.277 316.681V362.532C149.277 367.77 154.078 378.252 174.966 388.696C194.578 398.502 223.164 405.183 255.904 405.183C288.645 405.183 317.231 398.502 336.844 388.696C357.731 378.252 362.531 367.77 362.531 362.532V316.681ZM362.531 210.054C360.348 211.299 358.14 212.479 355.918 213.59C329.221 226.938 293.83 234.579 255.904 234.579C217.979 234.579 182.589 226.938 155.892 213.59C153.67 212.479 151.46 211.299 149.277 210.054V255.905C149.278 261.143 154.078 271.626 174.966 282.069C194.578 291.875 223.164 298.556 255.904 298.556C288.645 298.556 317.231 291.875 336.844 282.069C357.731 271.626 362.531 261.143 362.531 255.905V210.054ZM362.531 149.278C362.531 144.041 357.731 133.558 336.844 123.114C317.231 113.308 288.645 106.627 255.904 106.627C223.164 106.627 194.578 113.308 174.966 123.114C154.078 133.558 149.277 144.041 149.277 149.278C149.278 154.516 154.078 164.999 174.966 175.442C194.578 185.248 223.164 191.929 255.904 191.929C288.645 191.929 317.231 185.248 336.844 175.442C357.731 164.999 362.531 154.516 362.531 149.278ZM405.183 362.532C405.182 392.628 381.34 414.133 355.918 426.844C329.221 440.192 293.83 447.834 255.904 447.834C217.979 447.834 182.589 440.192 155.892 426.844C130.47 414.133 106.627 392.628 106.627 362.532V149.278C106.627 119.183 130.47 97.6767 155.892 84.9658C182.589 71.6171 217.979 63.9765 255.904 63.9765C293.83 63.9765 329.221 71.6171 355.918 84.9658C381.34 97.6767 405.183 119.183 405.183 149.278V362.532Z" fill="white"/>
</svg>
