<svg width="512" height="512" viewBox="0 0 512 512" fill="none" xmlns="http://www.w3.org/2000/svg">
<path d="M319.88 405.182C331.658 405.182 341.206 414.73 341.207 426.508C341.207 438.285 331.658 447.834 319.88 447.834H191.928C180.151 447.834 170.603 438.285 170.603 426.508C170.603 414.73 180.151 405.182 191.928 405.182H319.88ZM405.182 153.477C405.182 141.206 405.165 133.28 404.672 127.246C404.2 121.461 403.398 119.316 402.863 118.266C400.83 114.277 397.562 111.007 393.526 108.951C392.469 108.413 390.323 107.61 384.538 107.137C378.5 106.644 370.566 106.627 358.271 106.627H153.546C141.252 106.627 133.31 106.644 127.265 107.137C121.469 107.611 119.319 108.414 118.266 108.951C114.254 110.996 110.995 114.254 108.951 118.266C108.414 119.32 107.611 121.469 107.137 127.265C106.644 133.31 106.627 141.252 106.627 153.547V294.295C106.627 295.776 106.629 297.195 106.63 298.555H405.178C405.179 297.214 405.182 295.815 405.182 294.356V153.477ZM447.834 294.356C447.834 302.725 447.838 310.205 447.599 316.719C447.753 317.75 447.834 318.806 447.834 319.881V328.411C447.834 334.039 447.848 339.539 447.467 344.173C447.067 349.049 446.124 354.802 443.176 360.586C439.074 368.637 432.548 375.124 424.549 379.2C418.766 382.147 413.015 383.09 408.138 383.491C403.505 383.872 398.006 383.857 392.379 383.857H119.414C113.787 383.857 108.291 383.872 103.661 383.491C98.781 383.089 93.0393 382.144 87.2613 379.2C79.2839 375.135 72.7378 368.658 68.6246 360.586C65.6732 354.793 64.7352 349.033 64.3375 344.161C63.9598 339.532 63.9762 334.031 63.9762 328.411V319.881C63.9762 318.804 64.0565 317.746 64.2106 316.712C63.9706 310.185 63.9762 302.687 63.9762 294.295V153.547C63.9762 141.955 63.9591 131.977 64.6275 123.794C65.3162 115.362 66.8368 106.973 70.9488 98.9031C77.0824 86.8652 86.865 77.0826 98.9029 70.949C106.973 66.837 115.362 65.3164 123.794 64.6277C131.977 63.9593 141.955 63.9764 153.546 63.9764H358.271C369.862 63.9764 379.835 63.9591 388.013 64.6277C396.443 65.3169 404.823 66.8389 412.889 70.949C424.904 77.0709 434.72 86.8422 440.865 98.9031C444.974 106.968 446.494 115.351 447.182 123.772C447.85 131.946 447.834 141.909 447.834 153.477V294.356Z" fill="white"/>
</svg>
