<svg width="512" height="512" viewBox="0 0 512 512" fill="none" xmlns="http://www.w3.org/2000/svg">
<path d="M447.833 394.52C447.833 388.631 443.059 383.858 437.17 383.858H74.6392C68.7504 383.858 63.9763 388.631 63.9761 394.52C63.9761 400.409 68.7503 405.183 74.6392 405.183H437.17C443.059 405.183 447.833 400.409 447.833 394.52ZM405.183 174.803C405.183 162.532 405.166 154.605 404.673 148.572C404.201 142.786 403.398 140.642 402.863 139.592C400.83 135.603 397.562 132.333 393.526 130.277C392.469 129.738 390.323 128.936 384.538 128.463C378.5 127.97 370.566 127.952 358.271 127.952H153.547C141.253 127.952 133.311 127.969 127.266 128.463C121.469 128.937 119.319 129.74 118.266 130.277C114.253 132.321 110.996 135.579 108.952 139.592C108.415 140.645 107.611 142.794 107.137 148.591C106.643 154.636 106.627 162.578 106.627 174.872V341.206H405.183V174.803ZM447.833 342.273C472.168 347.212 490.484 368.727 490.484 394.52C490.484 423.964 466.615 447.833 437.17 447.833H74.6392C45.1949 447.833 21.3257 423.964 21.3257 394.52C21.3259 368.727 39.6414 347.212 63.9761 342.273V174.872C63.9761 163.281 63.96 153.303 64.6284 145.119C65.3171 136.688 66.8377 128.299 70.9497 120.229C77.0833 108.191 86.8651 98.4083 98.9028 92.2747C106.973 88.1627 115.362 86.6421 123.793 85.9534C131.977 85.285 141.956 85.302 153.547 85.302H358.271C369.862 85.302 379.835 85.2848 388.013 85.9534C396.443 86.6426 404.822 88.1646 412.889 92.2747C424.904 98.3965 434.719 108.168 440.865 120.229C444.974 128.294 446.494 136.676 447.182 145.098C447.85 153.272 447.833 163.235 447.833 174.803V342.273Z" fill="white"/>
</svg>
