<svg width="512" height="512" viewBox="0 0 512 512" fill="none" xmlns="http://www.w3.org/2000/svg">
<path d="M319.881 405.183C331.659 405.183 341.207 414.73 341.207 426.508C341.207 438.286 331.659 447.833 319.881 447.833H191.929C180.151 447.833 170.604 438.286 170.604 426.508C170.604 414.73 180.151 405.183 191.929 405.183H319.881ZM405.183 174.803C405.183 162.532 405.166 154.605 404.673 148.572C404.2 142.786 403.398 140.642 402.863 139.592C400.831 135.602 397.562 132.333 393.526 130.277C392.47 129.738 390.324 128.936 384.538 128.463C378.501 127.97 370.567 127.952 358.272 127.952H153.547C141.252 127.952 133.31 127.969 127.266 128.463C121.469 128.937 119.32 129.74 118.267 130.277C114.254 132.321 110.996 135.579 108.951 139.592C108.415 140.645 107.611 142.795 107.138 148.591C106.644 154.636 106.627 162.578 106.627 174.872V294.295C106.627 306.591 106.644 314.524 107.138 320.562C107.611 326.347 108.413 328.493 108.951 329.55C111.008 333.586 114.277 336.854 118.267 338.887C119.316 339.422 121.461 340.224 127.246 340.697C133.28 341.19 141.206 341.206 153.478 341.206H358.333C370.605 341.206 378.526 341.191 384.555 340.698C390.333 340.225 392.474 339.423 393.526 338.887C397.539 336.842 400.819 333.563 402.863 329.55C403.399 328.498 404.2 326.356 404.673 320.578C405.166 314.55 405.183 306.629 405.183 294.357V174.803ZM203.191 151.801C210.125 148.09 218.539 148.497 225.083 152.86L321.048 216.836C326.98 220.791 330.544 227.449 330.544 234.579C330.544 241.71 326.981 248.368 321.048 252.324L225.083 316.3C218.539 320.662 210.125 321.069 203.191 317.358C196.258 313.647 191.929 306.421 191.929 298.556V170.604C191.929 162.739 196.257 155.512 203.191 151.801ZM234.579 258.709L270.773 234.579L234.579 210.45V258.709ZM447.834 294.357C447.834 305.924 447.851 315.884 447.183 324.054C446.494 332.475 444.973 340.851 440.865 348.913C434.732 360.951 424.927 370.755 412.89 376.889C404.827 380.997 396.451 382.518 388.03 383.206C379.86 383.874 369.901 383.858 358.333 383.858H153.478C141.909 383.858 131.946 383.874 123.773 383.206C115.351 382.518 106.968 380.998 98.9034 376.889C86.8424 370.744 77.0711 360.928 70.9493 348.913C66.8391 340.847 65.3171 332.467 64.628 324.037C63.9594 315.859 63.9766 305.886 63.9766 294.295V174.872C63.9766 163.281 63.9596 153.303 64.628 145.119C65.3166 136.688 66.8373 128.299 70.9493 120.229C77.0829 108.191 86.8655 98.4083 98.9034 92.2747C106.974 88.1627 115.363 86.6421 123.794 85.9534C131.978 85.285 141.955 85.302 153.547 85.302H358.272C369.862 85.302 379.835 85.2848 388.014 85.9534C396.444 86.6426 404.823 88.1646 412.89 92.2747C424.904 98.3965 434.72 108.168 440.865 120.229C444.975 128.294 446.494 136.676 447.183 145.098C447.851 153.272 447.834 163.235 447.834 174.803V294.357Z" fill="white"/>
</svg>
