<svg width="512" height="512" viewBox="0 0 512 512" fill="none" xmlns="http://www.w3.org/2000/svg">
<path d="M319.881 405.183C331.659 405.183 341.207 414.73 341.208 426.508C341.208 438.286 331.659 447.833 319.881 447.833H191.929C180.152 447.833 170.604 438.286 170.604 426.508C170.604 414.73 180.152 405.183 191.929 405.183H319.881ZM405.183 174.803C405.183 162.532 405.166 154.605 404.673 148.572C404.201 142.786 403.399 140.642 402.864 139.592C400.831 135.602 397.563 132.333 393.527 130.277C392.47 129.738 390.324 128.936 384.539 128.463C378.501 127.97 370.567 127.952 358.272 127.952H153.547C141.253 127.952 133.311 127.969 127.266 128.463C121.47 128.937 119.32 129.74 118.267 130.277C114.255 132.321 110.996 135.579 108.952 139.592C108.415 140.645 107.612 142.795 107.138 148.591C106.645 154.636 106.627 162.578 106.627 174.872V294.295C106.627 306.591 106.645 314.524 107.138 320.562C107.611 326.347 108.413 328.493 108.952 329.55C111.008 333.586 114.278 336.854 118.267 338.887C119.317 339.422 121.461 340.224 127.247 340.697C133.28 341.19 141.207 341.206 153.478 341.206H358.334C370.605 341.206 378.526 341.191 384.555 340.698C390.333 340.225 392.475 339.423 393.527 338.887C397.54 336.842 400.819 333.563 402.864 329.55C403.4 328.498 404.201 326.356 404.673 320.578C405.166 314.55 405.183 306.629 405.183 294.357V174.803ZM447.835 294.357C447.835 305.924 447.851 315.884 447.183 324.054C446.495 332.475 444.974 340.851 440.866 348.913C434.732 360.951 424.928 370.755 412.89 376.889C404.828 380.997 396.451 382.518 388.031 383.206C379.861 383.874 369.901 383.858 358.334 383.858H153.478C141.91 383.858 131.947 383.874 123.773 383.206C115.351 382.518 106.969 380.998 98.9039 376.889C86.8429 370.744 77.0716 360.928 70.9497 348.913C66.8396 340.847 65.3176 332.467 64.6285 324.037C63.9599 315.859 63.9771 305.886 63.9771 294.295V174.872C63.9771 163.281 63.96 153.303 64.6285 145.119C65.3171 136.688 66.8377 128.299 70.9497 120.229C77.0834 108.191 86.866 98.4083 98.9039 92.2747C106.974 88.1627 115.363 86.6421 123.794 85.9534C131.978 85.285 141.956 85.302 153.547 85.302H358.272C369.863 85.302 379.836 85.2848 388.014 85.9534C396.444 86.6426 404.824 88.1646 412.89 92.2747C424.905 98.3965 434.72 108.168 440.866 120.229C444.975 128.294 446.495 136.676 447.183 145.098C447.851 153.272 447.835 163.235 447.835 174.803V294.357Z" fill="white"/>
</svg>
