<svg width="512" height="512" viewBox="0 0 512 512" fill="none" xmlns="http://www.w3.org/2000/svg">
<path d="M362.531 191.928C362.531 133.04 314.793 85.3013 255.905 85.3013C197.016 85.3014 149.278 133.04 149.278 191.928V319.881C149.278 378.77 197.016 426.508 255.905 426.508C314.793 426.508 362.531 378.77 362.531 319.881V191.928ZM234.579 213.253V149.278C234.579 137.5 244.127 127.953 255.905 127.953C267.682 127.953 277.23 137.5 277.23 149.278V213.253C277.23 225.031 267.682 234.58 255.905 234.58C244.127 234.579 234.579 225.031 234.579 213.253ZM405.183 319.881C405.183 402.325 338.348 469.159 255.905 469.159C173.461 469.159 106.627 402.325 106.627 319.881V191.928C106.627 109.485 173.461 42.6511 255.905 42.6509C338.348 42.6509 405.183 109.485 405.183 191.928V319.881Z" fill="white"/>
</svg>
