<svg width="512" height="512" viewBox="0 0 512 512" fill="none" xmlns="http://www.w3.org/2000/svg">
<path d="M426.509 174.803C426.509 162.532 426.492 154.605 425.999 148.572C425.526 142.786 424.723 140.642 424.189 139.592C422.156 135.603 418.887 132.333 414.852 130.277C413.795 129.738 411.648 128.936 405.863 128.463C399.826 127.97 391.892 127.952 379.597 127.952H302.825C290.53 127.952 282.589 127.969 276.544 128.463C270.747 128.937 268.597 129.74 267.544 130.277C263.531 132.321 260.274 135.58 258.23 139.592C257.693 140.645 256.889 142.794 256.415 148.591C255.921 154.636 255.905 162.578 255.905 174.872V187.668C255.905 199.964 255.922 207.898 256.415 213.935C256.888 219.721 257.691 221.866 258.23 222.923C260.286 226.959 263.554 230.227 267.544 232.26C268.593 232.795 270.738 233.597 276.523 234.07C282.557 234.563 290.483 234.579 302.755 234.579H379.658C391.93 234.579 399.851 234.563 405.88 234.07C411.658 233.597 413.801 232.796 414.853 232.26C418.865 230.216 422.144 226.936 424.189 222.923C424.725 221.871 425.527 219.73 425.999 213.952C426.492 207.923 426.509 200.002 426.509 187.73V174.803ZM134.199 198.175C142.527 189.847 156.029 189.847 164.357 198.175C172.685 206.503 172.685 220.005 164.357 228.333L121.707 270.985C117.708 274.984 112.283 277.231 106.627 277.231C100.971 277.231 95.5471 274.984 91.5479 270.985L48.8975 228.333C40.5694 220.005 40.5694 206.503 48.8975 198.175C57.2256 189.847 70.7276 189.847 79.0557 198.175L106.627 225.745L134.199 198.175ZM106.627 85.3021C112.283 85.3021 117.708 87.5489 121.707 91.5482L164.357 134.199C172.686 142.527 172.686 156.03 164.357 164.358C156.029 172.686 142.527 172.685 134.199 164.358L106.627 136.785L79.0557 164.358C70.7277 172.685 57.2255 172.685 48.8975 164.358C40.5694 156.03 40.5694 142.527 48.8975 134.199L91.5479 91.5482C95.5471 87.549 100.971 85.3022 106.627 85.3021ZM469.159 187.73C469.159 199.298 469.176 209.257 468.508 217.427C467.819 225.848 466.299 234.224 462.19 242.286C456.057 254.324 446.253 264.128 434.215 270.262C426.152 274.37 417.776 275.891 409.355 276.579C401.185 277.247 391.226 277.231 379.658 277.231H362.532V319.881H379.597C391.188 319.881 401.16 319.865 409.339 320.534C417.769 321.223 426.148 322.744 434.215 326.854C446.23 332.976 456.045 342.747 462.19 354.808C466.3 362.873 467.82 371.256 468.508 379.677C469.176 387.851 469.159 397.814 469.159 409.382V447.838C469.159 459.616 459.612 469.163 447.834 469.163C436.056 469.163 426.509 459.616 426.509 447.838V409.382C426.509 397.11 426.492 389.185 425.999 383.151C425.526 377.365 424.723 375.221 424.189 374.171C422.156 370.182 418.888 366.913 414.853 364.857C413.796 364.318 411.649 363.515 405.863 363.042C399.826 362.549 391.892 362.533 379.597 362.533H132.222C119.927 362.533 111.985 362.549 105.94 363.042C100.144 363.516 97.9946 364.32 96.9414 364.857C92.9288 366.901 89.6706 370.159 87.626 374.171C87.0894 375.224 86.286 377.374 85.8125 383.171C85.3188 389.216 85.3018 397.158 85.3018 409.452V447.838C85.3016 459.616 75.7542 469.163 63.9766 469.163C52.199 469.163 42.6516 459.616 42.6514 447.838V409.452C42.6514 397.861 42.6343 387.882 43.3028 379.699C43.9914 371.267 45.512 362.878 49.6241 354.808C55.7577 342.77 65.5403 332.987 77.5782 326.854C85.6484 322.742 94.0375 321.222 102.469 320.534C110.652 319.865 120.63 319.881 132.222 319.881H319.882V277.231H302.755C291.187 277.231 281.224 277.247 273.05 276.579C264.629 275.891 256.247 274.371 248.182 270.262C236.121 264.117 226.349 254.301 220.228 242.286C216.117 234.22 214.595 225.84 213.906 217.41C213.238 209.232 213.254 199.259 213.254 187.668V174.872C213.254 163.281 213.238 153.303 213.906 145.119C214.595 136.688 216.116 128.299 220.228 120.229C226.361 108.191 236.144 98.4084 248.182 92.2747C256.252 88.1628 264.641 86.6421 273.072 85.9535C281.256 85.2851 291.234 85.3021 302.825 85.3021H379.597C391.188 85.3021 401.16 85.2849 409.339 85.9535C417.505 86.6211 425.625 88.0701 433.458 91.8968L434.215 92.2747L435.335 92.8597C446.84 99.0099 456.237 108.545 462.19 120.229C466.3 128.294 467.82 136.676 468.508 145.098C469.176 153.272 469.159 163.235 469.159 174.803V187.73Z" fill="white"/>
</svg>
