<svg width="512" height="512" viewBox="0 0 512 512" fill="none" xmlns="http://www.w3.org/2000/svg">
<path d="M426.509 132.152C426.509 119.881 426.492 111.954 425.999 105.921C425.526 100.135 424.723 97.9908 424.188 96.9412C422.156 92.9517 418.888 89.6821 414.852 87.6258C413.796 87.0873 411.649 86.2853 405.863 85.8123C399.826 85.3188 391.892 85.3016 379.596 85.3016H132.221C119.927 85.3016 111.985 85.3186 105.94 85.8123C100.144 86.2858 97.9945 87.0892 96.9412 87.6258C92.9286 89.6703 89.6703 92.9286 87.6258 96.9412C87.0892 97.9945 86.2858 100.144 85.8123 105.94C85.3186 111.985 85.3016 119.927 85.3016 132.221V379.596C85.3016 391.892 85.3187 399.829 85.8123 405.869C86.2855 411.659 87.0881 413.807 87.6258 414.862C89.6765 418.887 92.9406 422.15 96.9412 424.188C97.9908 424.723 100.135 425.526 105.921 425.999C111.954 426.492 119.881 426.509 132.152 426.509H379.658C391.93 426.509 399.851 426.492 405.88 425.999C411.658 425.526 413.8 424.724 414.852 424.188C418.876 422.138 422.149 418.864 424.188 414.862C424.724 413.81 425.526 411.669 425.999 405.89C426.492 399.862 426.509 391.941 426.509 379.669V132.152ZM255.948 362.532C261.69 362.532 267.189 364.848 271.202 368.955C275.215 373.062 277.401 378.615 277.267 384.355L277.266 384.398C277.134 390.055 274.759 395.427 270.665 399.332C266.571 403.237 261.092 405.355 255.436 405.22L255.395 405.219C243.82 404.942 234.58 395.478 234.58 383.899V383.857C234.58 372.08 244.127 362.532 255.905 362.532H255.948ZM469.159 379.669C469.159 391.237 469.176 401.196 468.508 409.366C467.819 417.787 466.298 426.163 462.19 434.225C456.051 446.274 446.241 456.062 434.215 462.19C426.152 466.298 417.777 467.819 409.356 468.508C401.186 469.176 391.226 469.159 379.658 469.159H132.152C120.584 469.159 110.621 469.176 102.447 468.508C94.0255 467.819 85.6429 466.3 77.5779 462.19C65.528 456.05 55.7513 446.251 49.6238 434.225C45.5129 426.157 43.9915 417.774 43.3025 409.344C42.634 401.163 42.6512 391.188 42.6512 379.596V132.221C42.6512 120.63 42.6341 110.652 43.3025 102.469C43.9912 94.0372 45.5118 85.6482 49.6238 77.5779C55.7574 65.54 65.54 55.7574 77.5779 49.6238C85.6482 45.5118 94.0372 43.9912 102.469 43.3025C110.652 42.6341 120.63 42.6512 132.221 42.6512H379.596C391.188 42.6512 401.16 42.6339 409.339 43.3025C417.769 43.9917 426.148 45.5137 434.215 49.6238C446.229 55.7457 456.045 65.517 462.19 77.5779C466.3 85.6429 467.819 94.0255 468.508 102.447C469.176 110.621 469.159 120.584 469.159 132.152V379.669Z" fill="white"/>
</svg>
