<svg width="512" height="512" viewBox="0 0 512 512" fill="none" xmlns="http://www.w3.org/2000/svg">
<path d="M255.903 341.205C279.458 341.205 298.554 360.3 298.554 383.855C298.554 407.41 279.459 426.505 255.903 426.505C232.348 426.505 213.253 407.41 213.253 383.855C213.253 360.3 232.348 341.205 255.903 341.205ZM255.458 255.906C272.939 255.845 290.243 259.367 306.308 266.252C322.37 273.137 336.86 283.238 348.872 295.941C356.964 304.498 356.588 317.996 348.03 326.088C339.473 334.181 325.975 333.804 317.883 325.247C309.879 316.783 300.219 310.047 289.505 305.455C278.793 300.864 267.258 298.515 255.607 298.556C243.948 298.597 232.417 301.023 221.744 305.686C211.066 310.351 201.457 317.154 193.51 325.676C185.477 334.29 171.983 334.761 163.369 326.729C154.756 318.697 154.285 305.203 162.316 296.589C174.237 283.806 188.652 273.6 204.669 266.602C220.692 259.602 237.985 255.967 255.458 255.906Z" fill="white"/>
</svg>
