<svg width="512" height="512" viewBox="0 0 512 512" fill="none" xmlns="http://www.w3.org/2000/svg">
<path d="M255.904 341.208C279.459 341.208 298.555 360.303 298.555 383.859C298.555 407.414 279.459 426.51 255.904 426.51C232.348 426.51 213.253 407.414 213.253 383.859C213.253 360.304 232.348 341.208 255.904 341.208ZM255.458 255.907C272.939 255.846 290.244 259.369 306.309 266.254C322.371 273.139 336.861 283.241 348.874 295.944C356.966 304.501 356.59 317.998 348.032 326.09C339.475 334.182 325.977 333.806 317.885 325.248C309.881 316.784 300.221 310.049 289.507 305.456C278.795 300.865 267.258 298.516 255.607 298.557C243.948 298.598 232.416 301.024 221.743 305.687C211.065 310.352 201.455 317.156 193.508 325.679C185.476 334.292 171.982 334.764 163.368 326.732C154.755 318.699 154.283 305.205 162.316 296.591C174.237 283.807 188.651 273.602 204.668 266.604C220.691 259.603 237.985 255.968 255.458 255.907ZM255.236 170.605C281.457 170.513 307.406 175.798 331.503 186.126C355.599 196.454 377.338 211.612 395.356 230.664C403.448 239.222 403.071 252.719 394.514 260.811C385.957 268.903 372.459 268.526 364.366 259.969C350.357 245.155 333.448 233.363 314.701 225.328C295.955 217.294 275.774 213.185 255.384 213.256C234.99 213.327 214.832 217.574 196.146 225.738C177.459 233.902 160.642 245.809 146.735 260.723C138.702 269.337 125.208 269.808 116.594 261.776C107.98 253.743 107.509 240.249 115.541 231.635C133.423 212.459 155.044 197.152 179.071 186.655C203.098 176.157 229.017 170.696 255.236 170.605ZM254.917 85.304C292.789 85.1718 330.312 92.8031 365.122 107.723C399.935 122.644 431.325 144.551 457.345 172.066C465.437 180.623 465.06 194.121 456.502 202.213C447.945 210.305 434.448 209.928 426.356 201.371C404.335 178.086 377.773 159.548 348.321 146.925C318.867 134.301 287.113 127.843 255.067 127.954C223.025 128.066 191.357 134.748 161.988 147.579C132.622 160.409 106.196 179.119 84.341 202.556C76.3087 211.17 62.8141 211.641 54.2004 203.609C45.587 195.576 45.1157 182.083 53.1477 173.469C78.9767 145.771 110.207 123.658 144.912 108.495C179.613 93.3349 217.041 85.4363 254.917 85.304Z" fill="white"/>
</svg>
