<svg width="512" height="512" viewBox="0 0 512 512" fill="none" xmlns="http://www.w3.org/2000/svg">
<path d="M255.902 341.204C279.457 341.204 298.553 360.3 298.553 383.855C298.553 407.41 279.457 426.505 255.902 426.505C232.347 426.505 213.252 407.41 213.252 383.855C213.252 360.3 232.347 341.204 255.902 341.204ZM255.456 255.905C272.937 255.844 290.242 259.366 306.307 266.251C322.369 273.136 336.859 283.238 348.871 295.941C356.963 304.498 356.586 317.995 348.028 326.087C339.471 334.179 325.974 333.803 317.882 325.245C309.878 316.782 300.218 310.045 289.504 305.453C278.792 300.862 267.256 298.514 255.605 298.555C243.951 298.596 232.44 301.02 221.764 305.685C211.085 310.35 201.476 317.154 193.529 325.676C185.497 334.29 172.002 334.761 163.389 326.729C154.775 318.696 154.304 305.202 162.336 296.588C174.257 283.805 188.671 273.599 204.688 266.601C220.707 259.602 237.979 255.966 255.456 255.905ZM255.255 170.605C281.476 170.513 307.424 175.798 331.52 186.125C355.613 196.451 377.332 211.587 395.352 230.642C403.444 239.199 403.066 252.696 394.509 260.788C385.951 268.881 372.455 268.504 364.362 259.947C350.355 245.135 333.468 233.363 314.719 225.327C295.973 217.293 275.793 213.184 255.403 213.255C235.007 213.326 214.829 217.574 196.145 225.737C177.459 233.901 160.643 245.808 146.735 260.722C138.703 269.336 125.208 269.806 116.595 261.774C107.981 253.741 107.51 240.248 115.542 231.634C133.423 212.459 155.044 197.15 179.07 186.654C203.1 176.155 229.04 170.696 255.255 170.605Z" fill="white"/>
</svg>
