<svg width="512" height="512" viewBox="0 0 512 512" fill="none" xmlns="http://www.w3.org/2000/svg">
<path d="M426.505 149.278H213.254V405.182H379.658C391.93 405.182 399.851 405.165 405.88 404.672C411.658 404.2 413.801 403.399 414.853 402.863C418.865 400.818 422.144 397.539 424.189 393.526C424.725 392.474 425.527 390.332 425.999 384.554C426.492 378.525 426.509 370.604 426.509 358.332V153.477C426.509 152.018 426.506 150.62 426.505 149.278ZM85.3018 358.271C85.3018 370.566 85.319 378.5 85.8125 384.538C86.2855 390.323 87.0876 392.469 87.626 393.526L87.8223 393.902C89.8873 397.765 93.0765 400.894 96.9414 402.863C97.9912 403.398 100.136 404.2 105.921 404.672C111.955 405.165 119.881 405.182 132.152 405.182H170.604V149.278H85.3057C85.3045 150.641 85.3018 152.062 85.3018 153.546V358.271ZM469.159 358.332C469.159 369.9 469.176 379.86 468.508 388.03C467.819 396.45 466.299 404.827 462.19 412.889C456.057 424.927 446.253 434.731 434.215 440.865C426.152 444.973 417.777 446.494 409.356 447.182C401.186 447.85 391.226 447.834 379.658 447.834H132.152C120.584 447.834 110.621 447.85 102.447 447.182C94.0257 446.494 85.6432 444.974 77.5782 440.865C65.5172 434.719 55.7459 424.904 49.6241 412.889C45.5139 404.823 43.992 396.443 43.3028 388.013C42.6342 379.835 42.6514 369.862 42.6514 358.271V153.546C42.6514 145.153 42.6458 137.652 42.8858 131.122C42.7317 130.087 42.6514 129.029 42.6514 127.952C42.6514 125.939 42.9309 123.991 43.4522 122.145C44.2063 114.237 45.7987 106.411 49.6241 98.9029C55.7577 86.865 65.5403 77.0824 77.5782 70.9488C85.6485 66.8368 94.0375 65.3161 102.469 64.6275C110.652 63.9591 120.63 63.9761 132.222 63.9761H379.597C391.188 63.9761 401.16 63.9589 409.339 64.6275C417.769 65.3166 426.148 66.8387 434.215 70.9488C446.23 77.0707 456.045 86.8421 462.19 98.9029C466.019 106.416 467.61 114.249 468.362 122.16C468.881 124.001 469.159 125.944 469.159 127.952C469.159 129.025 469.078 130.079 468.925 131.11C469.164 137.626 469.159 145.108 469.159 153.477V358.332Z" fill="white"/>
</svg>
