<svg width="512" height="512" viewBox="0 0 512 512" fill="none" xmlns="http://www.w3.org/2000/svg">
<path d="M426.504 149.278H85.3047C85.3035 150.641 85.3008 152.063 85.3008 153.547V358.271C85.3008 370.567 85.318 378.501 85.8116 384.538C86.2845 390.323 87.0866 392.469 87.625 393.526L87.8213 393.902C89.8864 397.765 93.0755 400.894 96.9405 402.863C97.9902 403.398 100.135 404.2 105.92 404.673C111.954 405.166 119.88 405.182 132.151 405.182H379.657C391.929 405.182 399.85 405.166 405.879 404.673C411.657 404.2 413.8 403.399 414.852 402.863C418.864 400.819 422.143 397.539 424.188 393.526C424.724 392.474 425.526 390.333 425.998 384.554C426.491 378.526 426.508 370.604 426.508 358.332V153.477C426.508 152.019 426.505 150.62 426.504 149.278ZM283.475 219.5C291.803 211.172 305.306 211.172 313.634 219.5C321.962 227.828 321.962 241.331 313.634 249.659L286.063 277.229L313.634 304.801C321.962 313.129 321.962 326.632 313.634 334.96C305.306 343.288 291.803 343.288 283.475 334.96L255.903 307.388L228.333 334.96C220.005 343.288 206.502 343.288 198.174 334.96C189.846 326.632 189.846 313.129 198.174 304.801L225.744 277.229L198.174 249.659C189.846 241.331 189.846 227.828 198.174 219.5C206.502 211.172 220.005 211.172 228.333 219.5L255.903 247.07L283.475 219.5ZM469.158 358.332C469.158 369.9 469.175 379.86 468.507 388.03C467.818 396.451 466.298 404.827 462.189 412.889C456.056 424.927 446.252 434.731 434.214 440.865C426.152 444.973 417.776 446.494 409.355 447.182C401.185 447.85 391.225 447.834 379.657 447.834H132.151C120.583 447.834 110.62 447.85 102.446 447.182C94.0247 446.494 85.6422 444.974 77.5772 440.865C65.5162 434.72 55.7449 424.904 49.6231 412.889C45.5129 404.823 43.991 396.443 43.3018 388.013C42.6332 379.835 42.6504 369.862 42.6504 358.271V153.547C42.6504 145.153 42.6448 137.652 42.8848 131.122C42.7307 130.088 42.6504 129.029 42.6504 127.952C42.6505 125.939 42.9299 123.991 43.4512 122.145C44.2053 114.238 45.7978 106.411 49.6231 98.9031C55.7567 86.8652 65.5393 77.0826 77.5772 70.949C85.6475 66.837 94.0365 65.3164 102.468 64.6277C110.652 63.9593 120.629 63.9764 132.221 63.9764H379.596C391.187 63.9764 401.16 63.9591 409.338 64.6277C417.768 65.3169 426.147 66.8389 434.214 70.949C446.229 77.0709 456.044 86.8423 462.189 98.9031C466.018 106.416 467.609 114.249 468.361 122.16C468.88 124.002 469.158 125.944 469.158 127.952C469.158 129.025 469.077 130.08 468.924 131.11C469.163 137.626 469.158 145.108 469.158 153.477V358.332Z" fill="white"/>
</svg>
