<svg width="512" height="512" viewBox="0 0 512 512" fill="none" xmlns="http://www.w3.org/2000/svg">
<path d="M447.834 341.206C459.612 341.206 469.159 350.754 469.159 362.531C469.159 374.309 459.612 383.857 447.834 383.857H63.9766C52.1989 383.857 42.6514 374.309 42.6514 362.531C42.6514 350.754 52.1989 341.206 63.9766 341.206H447.834ZM447.834 234.579C459.612 234.579 469.159 244.127 469.159 255.905C469.159 267.682 459.612 277.23 447.834 277.23H63.9766C52.1989 277.23 42.6514 267.682 42.6514 255.905C42.6514 244.127 52.1989 234.579 63.9766 234.579H447.834ZM447.834 127.952C459.612 127.952 469.159 137.5 469.159 149.278C469.159 161.055 459.612 170.603 447.834 170.603H63.9766C52.1989 170.603 42.6514 161.055 42.6514 149.278C42.6514 137.5 52.1989 127.952 63.9766 127.952H447.834Z" fill="white"/>
</svg>
