<svg width="512" height="512" viewBox="0 0 512 512" fill="none" xmlns="http://www.w3.org/2000/svg">
<path d="M277.23 341.206C289.008 341.207 298.556 350.754 298.556 362.532C298.556 374.309 289.008 383.857 277.23 383.857H106.627C94.8493 383.857 85.3018 374.309 85.3018 362.532C85.3018 350.754 94.8493 341.206 106.627 341.206H277.23ZM405.183 234.58C416.96 234.58 426.508 244.127 426.508 255.905C426.508 267.682 416.96 277.23 405.183 277.23H106.627C94.8493 277.23 85.3018 267.682 85.3018 255.905C85.3018 244.127 94.8493 234.58 106.627 234.58H405.183ZM405.183 127.953C416.96 127.953 426.508 137.5 426.508 149.278C426.508 161.055 416.96 170.603 405.183 170.603H234.579C222.802 170.603 213.254 161.055 213.254 149.278C213.254 137.5 222.802 127.953 234.579 127.953H405.183Z" fill="white"/>
</svg>
