<svg width="512" height="512" viewBox="0 0 512 512" fill="none" xmlns="http://www.w3.org/2000/svg">
<path d="M277.23 341.206C289.008 341.207 298.556 350.754 298.556 362.532C298.556 374.309 289.008 383.857 277.23 383.857H106.627C94.8493 383.857 85.3018 374.309 85.3018 362.532C85.3018 350.754 94.8493 341.206 106.627 341.206H277.23ZM405.183 234.579C416.96 234.579 426.508 244.127 426.508 255.905C426.508 267.682 416.96 277.23 405.183 277.23H106.627C94.8493 277.23 85.3018 267.682 85.3018 255.905C85.3018 244.127 94.8493 234.579 106.627 234.579H405.183ZM277.23 127.953C289.008 127.953 298.556 137.5 298.556 149.278C298.556 161.055 289.008 170.603 277.23 170.603H106.627C94.8493 170.603 85.3018 161.055 85.3018 149.278C85.3018 137.5 94.8493 127.953 106.627 127.953H277.23Z" fill="white"/>
</svg>
