<svg width="512" height="512" viewBox="0 0 512 512" fill="none" xmlns="http://www.w3.org/2000/svg">
<path d="M127.952 213.254C151.507 213.254 170.603 232.349 170.604 255.905C170.604 279.46 151.508 298.556 127.952 298.556C104.397 298.556 85.3018 279.46 85.3018 255.905C85.3019 232.35 104.397 213.254 127.952 213.254ZM255.904 213.254C279.46 213.254 298.556 232.349 298.556 255.905C298.556 279.46 279.46 298.556 255.904 298.556C232.349 298.556 213.254 279.46 213.254 255.905C213.254 232.35 232.349 213.255 255.904 213.254ZM383.857 213.254C407.413 213.254 426.508 232.349 426.508 255.905C426.508 279.46 407.413 298.556 383.857 298.556C360.302 298.556 341.206 279.46 341.206 255.905C341.206 232.349 360.302 213.254 383.857 213.254Z" fill="white"/>
</svg>
