<svg width="512" height="512" viewBox="0 0 512 512" fill="none" xmlns="http://www.w3.org/2000/svg">
<path d="M127.953 341.206C151.508 341.206 170.604 360.302 170.604 383.858C170.604 407.413 151.508 426.508 127.953 426.508C104.397 426.508 85.3024 407.413 85.3022 383.858C85.3022 360.302 104.397 341.206 127.953 341.206ZM255.905 341.206C279.46 341.206 298.556 360.302 298.556 383.858C298.556 407.413 279.46 426.508 255.905 426.508C232.35 426.508 213.255 407.413 213.254 383.858C213.254 360.303 232.35 341.207 255.905 341.206ZM383.858 341.206C407.413 341.207 426.508 360.302 426.508 383.858C426.508 407.413 407.413 426.508 383.858 426.508C360.303 426.508 341.207 407.413 341.207 383.858C341.207 360.302 360.303 341.206 383.858 341.206ZM127.953 213.254C151.508 213.254 170.604 232.349 170.604 255.905C170.604 279.46 151.508 298.556 127.953 298.556C104.397 298.556 85.3022 279.46 85.3022 255.905C85.3025 232.35 104.398 213.254 127.953 213.254ZM255.905 213.254C279.46 213.254 298.556 232.349 298.556 255.905C298.556 279.46 279.46 298.556 255.905 298.556C232.35 298.556 213.254 279.46 213.254 255.905C213.255 232.35 232.35 213.255 255.905 213.254ZM383.858 213.254C407.413 213.254 426.508 232.35 426.508 255.905C426.508 279.46 407.413 298.556 383.858 298.556C360.303 298.556 341.207 279.46 341.207 255.905C341.207 232.349 360.303 213.254 383.858 213.254ZM127.953 85.3021C151.508 85.3021 170.604 104.397 170.604 127.952C170.604 151.508 151.508 170.604 127.953 170.604C104.397 170.604 85.3022 151.508 85.3022 127.952C85.3024 104.397 104.397 85.3022 127.953 85.3021ZM255.905 85.3021C279.46 85.3021 298.556 104.397 298.556 127.952C298.556 151.508 279.46 170.604 255.905 170.604C232.35 170.604 213.254 151.508 213.254 127.952C213.255 104.397 232.35 85.3023 255.905 85.3021ZM383.858 85.3021C407.413 85.3022 426.508 104.397 426.508 127.952C426.508 151.508 407.413 170.604 383.858 170.604C360.303 170.604 341.207 151.508 341.207 127.952C341.207 104.397 360.303 85.3021 383.858 85.3021Z" fill="white"/>
</svg>
