<svg width="512" height="512" viewBox="0 0 512 512" fill="none" xmlns="http://www.w3.org/2000/svg">
<path d="M341.206 405.182V106.626C341.206 94.849 331.659 85.3013 319.881 85.3013H277.231C265.453 85.3013 255.905 94.849 255.905 106.626V234.58C255.904 246.357 246.357 255.905 234.579 255.905C222.802 255.905 213.254 246.357 213.254 234.58V106.626C213.254 71.2936 241.898 42.6509 277.231 42.6509H319.881C355.214 42.6509 383.857 71.2936 383.858 106.626V405.182C383.858 440.515 355.214 469.159 319.881 469.159H298.556C286.778 469.159 277.231 459.611 277.231 447.833C277.231 436.056 286.778 426.508 298.556 426.508H319.881C331.659 426.508 341.206 416.96 341.206 405.182ZM149.278 426.508V383.857H106.627C94.8495 383.857 85.302 374.309 85.302 362.532C85.302 350.754 94.8495 341.207 106.627 341.207H149.278V298.555C149.278 286.778 158.826 277.23 170.604 277.23C182.381 277.23 191.929 286.778 191.929 298.555V341.207H234.579C246.357 341.207 255.905 350.754 255.905 362.532C255.905 374.309 246.357 383.857 234.579 383.857H191.929V426.508C191.929 438.286 182.381 447.833 170.604 447.833C158.826 447.833 149.278 438.286 149.278 426.508Z" fill="white"/>
</svg>
