<svg width="512" height="512" viewBox="0 0 512 512" fill="none" xmlns="http://www.w3.org/2000/svg">
<path d="M405.188 358.262V153.538C405.188 141.243 405.17 133.304 404.677 127.261C404.204 121.469 403.401 119.321 402.863 118.266C400.825 114.266 397.562 111.001 393.537 108.951C392.482 108.413 390.334 107.61 384.544 107.137C378.504 106.644 370.567 106.627 358.272 106.627H153.547C141.252 106.627 133.31 106.644 127.266 107.137C121.469 107.611 119.32 108.414 118.267 108.951C114.254 110.995 110.996 114.254 108.951 118.266C108.415 119.319 107.611 121.469 107.138 127.265C106.644 133.31 106.627 141.252 106.627 153.546V358.271C106.627 370.566 106.644 378.503 107.138 384.543C107.611 390.334 108.414 392.481 108.951 393.537C111.002 397.561 114.266 400.824 118.267 402.863C119.316 403.398 121.461 404.2 127.246 404.672C133.28 405.165 141.206 405.182 153.478 405.182H358.343C370.615 405.182 378.536 405.165 384.564 404.672C390.343 404.2 392.485 403.399 393.537 402.863C397.547 400.819 400.818 397.549 402.863 393.535C403.401 392.48 404.203 390.332 404.677 384.539C405.17 378.496 405.188 370.557 405.188 358.262ZM234.58 341.207V277.23H170.604C158.826 277.23 149.279 267.682 149.278 255.905C149.278 244.127 158.826 234.579 170.604 234.579H234.58V170.603C234.58 158.825 244.128 149.278 255.905 149.278C267.683 149.278 277.231 158.825 277.231 170.603V234.579H341.207C352.985 234.579 362.532 244.127 362.532 255.905C362.532 267.682 352.984 277.23 341.207 277.23H277.231V341.207C277.23 352.984 267.683 362.532 255.905 362.532C244.128 362.532 234.58 352.984 234.58 341.207ZM447.838 358.262C447.838 369.854 447.855 379.83 447.187 388.012C446.498 396.443 444.977 404.828 440.865 412.897C434.733 424.933 424.94 434.73 412.899 440.865C404.837 444.973 396.461 446.494 388.041 447.182C379.871 447.85 369.911 447.834 358.343 447.834H153.478C141.909 447.834 131.946 447.85 123.773 447.182C115.351 446.494 106.968 444.974 98.9034 440.865C86.8536 434.725 77.0768 424.926 70.9493 412.9C66.8383 404.832 65.3169 396.448 64.628 388.017C63.9595 379.837 63.9766 369.862 63.9766 358.271V153.546C63.9766 141.955 63.9596 131.977 64.628 123.793C65.3166 115.362 66.8373 106.973 70.9493 98.9029C77.0829 86.865 86.8655 77.0824 98.9034 70.9488C106.974 66.8368 115.363 65.3161 123.794 64.6275C131.978 63.9591 141.955 63.9761 153.547 63.9761H358.272C369.863 63.9761 379.837 63.959 388.018 64.6275C396.448 65.3164 404.831 66.838 412.899 70.9488H412.9C424.926 77.0762 434.726 86.853 440.865 98.9029C444.977 106.972 446.498 115.358 447.187 123.789C447.855 131.97 447.838 141.946 447.838 153.538V358.262Z" fill="white"/>
</svg>
