<svg width="512" height="512" viewBox="0 0 512 512" fill="none" xmlns="http://www.w3.org/2000/svg">
<path d="M42.6525 413.713V191.929C42.6526 180.151 52.2 170.603 63.9776 170.603C75.7553 170.603 85.3027 180.151 85.3028 191.929V413.713C85.3028 420.036 85.3195 423.495 85.5226 425.98C85.5307 426.08 85.5407 426.174 85.5489 426.262C85.634 426.27 85.7238 426.281 85.8185 426.289C88.3004 426.492 91.7542 426.509 98.0655 426.509H319.885C331.662 426.509 341.21 436.056 341.21 447.834C341.21 459.611 331.662 469.159 319.885 469.159H98.0655C92.4572 469.159 86.9657 469.175 82.3439 468.798C77.4743 468.4 71.7238 467.461 65.9376 464.512C57.8937 460.414 51.3804 453.873 47.3009 445.867C44.3524 440.08 43.4123 434.33 43.0138 429.455C42.6358 424.83 42.6525 419.332 42.6525 413.713ZM426.514 294.287V132.213C426.514 119.918 426.498 111.979 426.004 105.936C425.531 100.143 424.727 97.9956 424.19 96.9412C422.151 92.9406 418.888 89.6765 414.863 87.6258C413.808 87.0881 411.66 86.2855 405.87 85.8123C399.83 85.3187 391.893 85.3016 379.598 85.3016H217.525C205.23 85.3016 197.288 85.3186 191.243 85.8123C185.447 86.2857 183.298 87.0892 182.244 87.6258C178.232 89.6703 174.973 92.9286 172.929 96.9412C172.392 97.9945 171.589 100.144 171.115 105.94C170.622 111.985 170.605 119.927 170.605 132.221V294.295C170.605 306.59 170.622 314.528 171.115 320.568C171.589 326.358 172.391 328.505 172.929 329.56C174.979 333.585 178.244 336.848 182.244 338.887C183.294 339.421 185.438 340.224 191.224 340.697C197.257 341.19 205.183 341.207 217.454 341.207H379.67C391.942 341.207 399.863 341.19 405.892 340.697C411.67 340.225 413.811 339.423 414.863 338.887C418.874 336.843 422.144 333.573 424.19 329.558C424.727 328.504 425.531 326.356 426.004 320.563C426.498 314.521 426.514 306.582 426.514 294.287ZM277.232 277.23V234.58H234.581C222.803 234.58 213.256 225.031 213.256 213.254C213.256 201.476 222.804 191.929 234.581 191.929H277.232V149.278C277.232 137.501 286.779 127.953 298.557 127.953C310.334 127.953 319.883 137.5 319.883 149.278V191.929H362.533C374.311 191.929 383.858 201.476 383.859 213.254C383.859 225.031 374.311 234.58 362.533 234.58H319.883V277.23C319.883 289.008 310.334 298.555 298.557 298.555C286.779 298.555 277.232 289.008 277.232 277.23ZM469.165 294.287C469.165 305.878 469.181 315.854 468.513 324.036C467.824 332.467 466.303 340.853 462.192 348.922C456.059 360.957 446.267 370.754 434.227 376.888V376.889C426.164 380.997 417.788 382.517 409.367 383.206C401.197 383.874 391.238 383.857 379.67 383.857H217.454C205.886 383.857 195.923 383.874 187.749 383.206C179.328 382.518 170.946 380.999 162.881 376.889C150.831 370.75 141.054 360.949 134.927 348.924C130.816 340.855 129.295 332.472 128.606 324.042C127.937 315.861 127.954 305.886 127.954 294.295V132.221C127.954 120.63 127.937 110.652 128.606 102.469C129.294 94.0372 130.815 85.6483 134.927 77.5779C141.06 65.54 150.843 55.7574 162.881 49.6238C170.951 45.5119 179.34 43.9912 187.772 43.3025C195.955 42.6341 205.933 42.6512 217.525 42.6512H379.598C391.189 42.6512 401.164 42.634 409.345 43.3025C417.775 43.9915 426.159 45.5129 434.227 49.6238C446.253 55.7513 456.052 65.528 462.192 77.5779C466.303 85.6471 467.824 94.0328 468.513 102.464C469.181 110.646 469.165 120.622 469.165 132.213V294.287Z" fill="white"/>
</svg>
