<svg width="512" height="512" viewBox="0 0 512 512" fill="none" xmlns="http://www.w3.org/2000/svg">
<path d="M42.6511 319.881V298.555C42.6511 286.778 52.1986 277.23 63.9763 277.23C75.754 277.23 85.3015 286.778 85.3015 298.555V319.881C85.3015 331.658 94.8492 341.206 106.627 341.206H405.182C416.96 341.206 426.509 331.658 426.509 319.881V277.23C426.509 265.453 416.96 255.904 405.182 255.904H277.23C265.453 255.904 255.905 246.357 255.905 234.579C255.905 222.801 265.453 213.254 277.23 213.254H405.182C440.515 213.254 469.159 241.897 469.159 277.23V319.881C469.159 355.214 440.515 383.857 405.182 383.857H106.627C71.2938 383.857 42.6511 355.214 42.6511 319.881ZM127.953 234.579V191.928H85.3015C73.524 191.928 63.9765 182.381 63.9763 170.603C63.9763 158.826 73.5239 149.277 85.3015 149.277H127.953V106.627C127.953 94.849 137.5 85.3015 149.278 85.3015C161.056 85.3016 170.603 94.8491 170.603 106.627V149.277H213.254C225.031 149.277 234.58 158.826 234.58 170.603C234.58 182.381 225.031 191.928 213.254 191.928H170.603V234.579C170.603 246.357 161.056 255.904 149.278 255.904C137.5 255.904 127.953 246.357 127.953 234.579Z" fill="white"/>
</svg>
