<svg width="512" height="512" viewBox="0 0 512 512" fill="none" xmlns="http://www.w3.org/2000/svg">
<path d="M405.189 358.262V153.538C405.189 141.243 405.171 133.304 404.678 127.261C404.204 121.469 403.402 119.321 402.864 118.266C400.826 114.266 397.563 111.001 393.538 108.951C392.483 108.413 390.335 107.61 384.545 107.137C378.505 106.644 370.568 106.627 358.272 106.627H153.548C141.253 106.627 133.311 106.644 127.267 107.137C121.47 107.611 119.321 108.414 118.268 108.951C114.255 110.995 110.997 114.254 108.952 118.266C108.416 119.319 107.612 121.469 107.139 127.265C106.645 133.31 106.628 141.252 106.628 153.546V358.271C106.628 370.566 106.645 378.503 107.139 384.543C107.612 390.334 108.415 392.481 108.952 393.537C111.003 397.561 114.267 400.824 118.268 402.863C119.317 403.398 121.462 404.2 127.247 404.672C133.281 405.165 141.207 405.182 153.479 405.182H358.344C370.616 405.182 378.537 405.165 384.565 404.672C390.344 404.2 392.486 403.399 393.538 402.863C397.548 400.819 400.819 397.549 402.864 393.535C403.401 392.48 404.204 390.332 404.678 384.539C405.171 378.496 405.189 370.557 405.189 358.262ZM304.8 176.849C313.128 168.521 326.631 168.521 334.959 176.849C343.287 185.177 343.287 198.679 334.959 207.007L286.064 255.903L334.959 304.798C343.287 313.126 343.287 326.629 334.959 334.958C326.631 343.286 313.128 343.286 304.8 334.958L255.904 286.062L207.009 334.958C198.681 343.285 185.179 343.285 176.851 334.958C168.523 326.629 168.523 313.126 176.851 304.798L225.745 255.903L176.851 207.007C168.523 198.679 168.523 185.177 176.851 176.849C185.179 168.521 198.681 168.521 207.009 176.849L255.904 225.744L304.8 176.849ZM447.839 358.262C447.839 369.854 447.856 379.83 447.188 388.012C446.499 396.443 444.977 404.828 440.866 412.897C434.734 424.933 424.941 434.73 412.9 440.865C404.838 444.973 396.462 446.494 388.042 447.182C379.872 447.85 369.912 447.834 358.344 447.834H153.479C141.91 447.834 131.947 447.85 123.773 447.182C115.352 446.494 106.969 444.974 98.9043 440.865C86.8545 434.725 77.0777 424.926 70.9502 412.9C66.8393 404.832 65.3179 396.448 64.6289 388.017C63.9604 379.837 63.9776 369.862 63.9776 358.271V153.546C63.9776 141.955 63.9605 131.977 64.6289 123.793C65.3176 115.362 66.8382 106.973 70.9502 98.9029C77.0839 86.865 86.8664 77.0824 98.9043 70.9488C106.975 66.8368 115.364 65.3161 123.795 64.6275C131.979 63.9591 141.956 63.9761 153.548 63.9761H358.272C369.864 63.9761 379.838 63.959 388.019 64.6275C396.449 65.3164 404.832 66.838 412.9 70.9488H412.901C424.927 77.0762 434.727 86.853 440.866 98.9029C444.978 106.972 446.499 115.358 447.188 123.789C447.856 131.97 447.839 141.946 447.839 153.538V358.262Z" fill="white"/>
</svg>
