<svg width="512" height="512" viewBox="0 0 512 512" fill="none" xmlns="http://www.w3.org/2000/svg">
<path d="M405.183 153.478C405.183 141.206 405.166 133.28 404.673 127.246C404.2 121.461 403.398 119.316 402.864 118.267C400.825 114.266 397.562 111.002 393.537 108.951C392.482 108.413 390.335 107.611 384.544 107.138C378.504 106.644 370.567 106.627 358.272 106.627H153.547C141.252 106.627 133.311 106.644 127.266 107.138C121.469 107.611 119.32 108.415 118.267 108.951C114.254 110.996 110.996 114.254 108.951 118.267C108.415 119.32 107.611 121.469 107.138 127.266C106.644 133.31 106.627 141.252 106.627 153.547V358.271C106.627 370.567 106.644 378.504 107.138 384.544C107.611 390.334 108.414 392.482 108.951 393.537C111.002 397.562 114.266 400.825 118.267 402.863C119.317 403.398 121.461 404.2 127.246 404.673C133.28 405.166 141.206 405.183 153.478 405.183H358.343C370.615 405.183 378.536 405.166 384.565 404.673C390.343 404.2 392.485 403.399 393.537 402.863C397.55 400.819 400.819 397.55 402.864 393.537C403.4 392.485 404.201 390.343 404.673 384.564C405.166 378.536 405.183 370.615 405.183 358.343V153.478ZM234.579 362.532V341.207C234.579 329.429 244.128 319.881 255.906 319.881C267.683 319.881 277.231 329.429 277.231 341.207V362.532C277.231 374.31 267.683 383.857 255.906 383.857C244.128 383.857 234.58 374.31 234.579 362.532ZM234.579 277.23V234.579C234.58 222.802 244.128 213.254 255.906 213.254C267.683 213.254 277.231 222.802 277.231 234.579V277.23C277.231 289.008 267.683 298.555 255.906 298.556C244.128 298.556 234.579 289.008 234.579 277.23ZM234.579 170.603V149.278C234.579 137.501 244.128 127.952 255.906 127.952C267.683 127.952 277.231 137.501 277.231 149.278V170.603C277.231 182.381 267.683 191.929 255.906 191.929C244.128 191.929 234.579 182.381 234.579 170.603ZM447.834 358.343C447.834 369.911 447.851 379.871 447.183 388.041C446.494 396.461 444.973 404.837 440.866 412.899C434.732 424.937 424.938 434.732 412.9 440.865C404.837 444.973 396.462 446.494 388.041 447.183C379.871 447.851 369.911 447.834 358.343 447.834H153.478C141.91 447.834 131.946 447.85 123.773 447.183C115.351 446.494 106.969 444.975 98.9036 440.865C86.8537 434.725 77.077 424.925 70.9495 412.899C66.8387 404.831 65.3172 396.448 64.6282 388.018C63.9597 379.837 63.9768 369.862 63.9768 358.271V153.547C63.9768 141.955 63.9598 131.978 64.6282 123.794C65.3169 115.363 66.8375 106.974 70.9495 98.9033C77.0831 86.8654 86.8657 77.0828 98.9036 70.9492C106.974 66.8372 115.363 65.3166 123.794 64.6279C131.978 63.9595 141.956 63.9765 153.547 63.9765H358.272C369.863 63.9765 379.837 63.9594 388.018 64.6279C396.448 65.3169 404.832 66.8384 412.9 70.9492C424.926 77.0767 434.726 86.8533 440.866 98.9033C444.975 106.968 446.495 115.351 447.183 123.772C447.851 131.946 447.834 141.909 447.834 153.478V358.343Z" fill="white"/>
</svg>
