<svg width="512" height="512" viewBox="0 0 512 512" fill="none" xmlns="http://www.w3.org/2000/svg">
<path d="M298.555 260.105C298.555 247.833 298.539 239.907 298.045 233.873C297.573 228.087 296.771 225.943 296.236 224.893C294.198 220.893 290.934 217.63 286.91 215.579C285.854 215.041 283.707 214.238 277.917 213.764C271.876 213.271 263.939 213.254 251.644 213.254H132.221C119.926 213.254 111.985 213.271 105.94 213.764C100.143 214.238 97.9941 215.042 96.941 215.579C92.9283 217.623 89.6701 220.881 87.6255 224.893C87.0889 225.947 86.2855 228.096 85.8121 233.892C85.3183 239.937 85.3013 247.88 85.3013 260.175V379.596C85.3013 391.892 85.3185 399.828 85.8121 405.869C86.2852 411.659 87.0878 413.807 87.6255 414.862C89.6762 418.887 92.9402 422.15 96.941 424.188C97.9906 424.723 100.135 425.526 105.92 425.999C111.954 426.492 119.88 426.509 132.152 426.509H251.715C263.987 426.509 271.908 426.492 277.937 425.999C283.716 425.526 285.858 424.724 286.91 424.188C290.916 422.147 294.188 418.875 296.236 414.856C296.772 413.805 297.574 411.662 298.046 405.883C298.539 399.853 298.555 391.93 298.555 379.658V260.105ZM341.207 298.555H379.658C391.93 298.555 399.852 298.54 405.882 298.047C411.662 297.574 413.805 296.772 414.856 296.236C418.873 294.189 422.146 290.916 424.188 286.908C424.725 285.854 425.529 283.705 426.002 277.912C426.496 271.87 426.512 263.931 426.512 251.636V132.213C426.512 119.918 426.496 111.979 426.002 105.936C425.529 100.143 424.725 97.9957 424.188 96.9412C422.15 92.9406 418.887 89.6765 414.862 87.6258C413.806 87.0881 411.659 86.2855 405.869 85.8123C399.828 85.3187 391.891 85.3016 379.596 85.3016H260.174C247.879 85.3016 239.937 85.3186 233.892 85.8123C228.096 86.2858 225.946 87.0892 224.893 87.6258C220.88 89.6703 217.623 92.9286 215.579 96.9412C215.042 97.9944 214.238 100.143 213.764 105.94C213.27 111.985 213.253 119.927 213.253 132.221V170.603H251.644C263.235 170.603 273.21 170.587 281.39 171.256C289.821 171.945 298.205 173.465 306.273 177.576C318.299 183.703 328.098 193.48 334.238 205.53C338.347 213.595 339.867 221.978 340.555 230.399C341.223 238.573 341.207 248.537 341.207 260.105V298.555ZM469.164 251.636C469.164 263.227 469.18 273.204 468.511 281.386C467.822 289.816 466.301 298.202 462.19 306.271C456.054 318.313 446.252 328.107 434.219 334.238H434.218C426.155 338.346 417.778 339.867 409.357 340.555C401.186 341.223 391.226 341.207 379.658 341.207H341.207V379.658C341.207 391.226 341.223 401.186 340.555 409.357C339.867 417.778 338.346 426.155 334.238 434.219C328.108 446.25 318.317 456.053 306.273 462.19C298.21 466.298 289.834 467.819 281.414 468.508C273.243 469.176 263.283 469.159 251.715 469.159H132.152C120.584 469.159 110.62 469.176 102.447 468.508C94.0253 467.819 85.6427 466.3 77.5777 462.19C65.5279 456.051 55.7511 446.251 49.6236 434.225C45.5127 426.157 43.9912 417.774 43.3023 409.344C42.6338 401.163 42.6509 391.188 42.6509 379.596V260.175C42.6509 248.583 42.6339 238.605 43.3023 230.421C43.9909 221.989 45.5115 213.6 49.6236 205.53C55.7572 193.492 65.5398 183.71 77.5777 177.576C85.648 173.464 94.037 171.944 102.468 171.256C110.652 170.587 120.63 170.603 132.221 170.603H170.603V132.221C170.603 120.63 170.587 110.652 171.255 102.469C171.944 94.0372 173.464 85.6482 177.576 77.5779C183.709 65.5401 193.492 55.7574 205.53 49.6238C213.6 45.5118 221.989 43.9912 230.42 43.3025C238.604 42.6341 248.583 42.6512 260.174 42.6512H379.596C391.188 42.6512 401.163 42.634 409.343 43.3025C417.774 43.9915 426.157 45.5129 434.225 49.6238C446.251 55.7513 456.05 65.528 462.19 77.5779C466.301 85.647 467.822 94.0328 468.511 102.464C469.18 110.646 469.164 120.621 469.164 132.213V251.636Z" fill="white"/>
</svg>
