<svg width="512" height="512" viewBox="0 0 512 512" fill="none" xmlns="http://www.w3.org/2000/svg">
<path d="M362.532 447.834V405.182H196.128C184.56 405.182 174.597 405.199 166.423 404.531C158.002 403.843 149.619 402.324 141.555 398.215C129.498 392.072 119.725 382.262 113.601 370.243C109.49 362.175 107.968 353.792 107.279 345.362C106.611 337.182 106.627 327.207 106.627 315.616V149.278H63.9766C52.199 149.278 42.6516 139.73 42.6514 127.953C42.6514 116.175 52.1989 106.627 63.9766 106.627H106.627V63.9763C106.627 52.1986 116.175 42.6511 127.953 42.6511C139.731 42.6513 149.278 52.1987 149.278 63.9763V315.616C149.278 327.911 149.294 335.848 149.788 341.887C150.261 347.677 151.065 349.824 151.603 350.88C153.657 354.911 156.923 358.178 160.917 360.213C161.967 360.747 164.111 361.549 169.896 362.022C175.93 362.515 183.856 362.532 196.128 362.532H447.838C459.616 362.532 469.163 372.08 469.163 383.857C469.163 395.635 459.616 405.182 447.838 405.182H405.183V447.834C405.183 459.611 395.635 469.159 383.857 469.159C372.08 469.159 362.532 459.611 362.532 447.834ZM362.532 298.56V196.128C362.532 183.856 362.516 175.93 362.022 169.896C361.55 164.111 360.748 161.966 360.213 160.917C358.178 156.923 354.911 153.656 350.88 151.602C349.824 151.064 347.677 150.261 341.888 149.788C335.848 149.294 327.911 149.278 315.616 149.278H213.254C201.477 149.278 191.929 139.73 191.929 127.953C191.929 116.175 201.476 106.627 213.254 106.627H315.616C327.207 106.627 337.182 106.611 345.362 107.279C353.793 107.968 362.175 109.49 370.243 113.6C382.262 119.724 392.072 129.498 398.215 141.554C402.324 149.619 403.843 158.001 404.531 166.423C405.199 174.596 405.183 184.559 405.183 196.128V298.56C405.182 310.338 395.635 319.885 383.857 319.885C372.08 319.885 362.532 310.338 362.532 298.56Z" fill="white"/>
</svg>
