<svg width="512" height="512" viewBox="0 0 512 512" fill="none" xmlns="http://www.w3.org/2000/svg">
<path d="M191.93 289.993C191.93 283.681 191.913 280.228 191.71 277.746C191.702 277.651 191.692 277.561 191.684 277.476C191.595 277.468 191.501 277.458 191.401 277.45C188.917 277.247 185.458 277.23 179.135 277.23H127.953V328.412C127.953 334.735 127.97 338.193 128.173 340.678C128.181 340.778 128.191 340.872 128.199 340.96C128.284 340.968 128.374 340.979 128.469 340.987C130.951 341.19 134.405 341.207 140.716 341.207H179.167C185.479 341.207 188.93 341.19 191.409 340.987C191.506 340.979 191.597 340.968 191.684 340.96C191.692 340.874 191.702 340.783 191.71 340.686C191.913 338.207 191.93 334.756 191.93 328.444V289.993ZM383.859 289.993C383.859 283.681 383.842 280.228 383.639 277.746C383.631 277.651 383.62 277.561 383.612 277.476C383.524 277.468 383.43 277.458 383.33 277.45C380.845 277.247 377.386 277.23 371.063 277.23H319.882V328.412C319.882 334.735 319.899 338.193 320.102 340.678C320.11 340.778 320.12 340.872 320.128 340.96C320.213 340.968 320.303 340.979 320.398 340.987C322.879 341.19 326.333 341.207 332.645 341.207H371.096C377.408 341.207 380.859 341.19 383.338 340.987C383.435 340.979 383.526 340.968 383.612 340.96C383.62 340.874 383.631 340.783 383.639 340.686C383.841 338.207 383.859 334.756 383.859 328.444V289.993ZM234.58 328.444C234.58 334.052 234.597 339.541 234.219 344.162C233.821 349.032 232.881 354.779 229.934 360.563C225.845 368.588 219.312 375.121 211.286 379.21C205.502 382.158 199.756 383.097 194.885 383.496C190.265 383.873 184.775 383.857 179.167 383.857H140.716C135.108 383.857 129.616 383.874 124.994 383.497C120.277 383.111 114.733 382.217 109.13 379.481L108.588 379.21C100.544 375.112 94.0309 368.572 89.9513 360.565C87.0028 354.778 86.0626 349.028 85.6642 344.153C85.2862 339.528 85.3028 334.031 85.3028 328.412V213.254C85.3028 166.144 123.494 127.953 170.605 127.953C182.382 127.953 191.93 137.5 191.93 149.278C191.93 161.055 182.382 170.603 170.605 170.603C147.049 170.603 127.953 189.699 127.953 213.254V234.58H179.135C184.754 234.58 190.251 234.563 194.876 234.941C199.751 235.339 205.501 236.28 211.288 239.228C219.295 243.308 225.835 249.821 229.934 257.865C232.882 263.651 233.822 269.402 234.22 274.272C234.597 278.894 234.58 284.385 234.58 289.993V328.444ZM426.509 328.444C426.509 334.052 426.525 339.541 426.148 344.162C425.749 349.032 424.809 354.779 421.862 360.563C417.773 368.588 411.24 375.121 403.215 379.21C397.431 382.158 391.684 383.097 386.814 383.496C382.193 383.873 376.704 383.857 371.096 383.857H332.645C327.036 383.857 321.545 383.874 316.923 383.497C312.053 383.099 306.303 382.159 300.517 379.21C292.473 375.112 285.96 368.572 281.88 360.565C278.931 354.778 277.991 349.028 277.593 344.153C277.215 339.528 277.232 334.031 277.232 328.412V213.254C277.232 166.144 315.423 127.953 362.533 127.953C374.311 127.953 383.859 137.5 383.859 149.278C383.859 161.055 374.311 170.603 362.533 170.603C338.978 170.603 319.882 189.699 319.882 213.254V234.58H371.063C376.682 234.58 382.18 234.563 386.805 234.941C391.68 235.339 397.43 236.28 403.217 239.228C411.223 243.308 417.764 249.821 421.862 257.865C424.811 263.651 425.75 269.402 426.148 274.272C426.525 278.894 426.509 284.385 426.509 289.993V328.444Z" fill="white"/>
</svg>
