<svg width="512" height="512" viewBox="0 0 512 512" fill="none" xmlns="http://www.w3.org/2000/svg">
<path d="M328.027 74.8937C336.326 72.1974 345.246 72.1139 353.583 74.6418L354.388 74.8937L354.962 75.0861C360.854 77.1115 365.402 80.3965 369.007 83.4562C372.538 86.4532 376.403 90.3413 380.358 94.2971L417.46 131.4C421.434 135.373 425.333 139.249 428.337 142.787C431.502 146.516 434.906 151.249 436.914 157.428C439.611 165.728 439.695 174.647 437.167 182.983L436.914 183.787C434.908 189.963 431.506 194.693 428.343 198.419C425.342 201.955 421.447 205.827 417.479 209.794C417.463 209.81 417.446 209.826 417.43 209.842L222.087 405.186H426.508C438.285 405.186 447.834 414.733 447.834 426.511C447.834 438.289 438.285 447.836 426.508 447.836H85.3018C73.5241 447.836 63.9766 438.289 63.9766 426.511V341.209C63.9766 335.553 66.2234 330.129 70.2227 326.13L302 94.3517L302.106 94.2463C306.044 90.3083 309.888 86.4441 313.401 83.4621C317.125 80.3016 321.853 76.9 328.027 74.8937ZM341.002 115.978C339.106 117.587 336.654 120.015 332.195 124.474L106.627 350.042V405.185H161.77L387.32 179.635C391.786 175.17 394.217 172.716 395.828 170.818C395.89 170.745 395.946 170.673 396.001 170.607C395.945 170.539 395.887 170.466 395.823 170.391C394.208 168.488 391.773 166.029 387.302 161.558L350.199 124.456C345.746 120.003 343.3 117.579 341.407 115.973C341.338 115.914 341.27 115.86 341.207 115.808C341.142 115.862 341.073 115.917 341.002 115.978Z" fill="white"/>
</svg>
