<svg width="512" height="512" viewBox="0 0 512 512" fill="none" xmlns="http://www.w3.org/2000/svg">
<path d="M170.603 106.627C179.212 106.627 186.976 111.803 190.288 119.75L296.916 375.655C301.445 386.527 296.304 399.012 285.432 403.542C274.561 408.072 262.075 402.93 257.545 392.059L227.471 319.881H113.735L83.6607 392.059C79.1308 402.93 66.6457 408.072 55.774 403.542C44.9024 399.012 39.7618 386.527 44.2916 375.655L150.919 119.75L151.077 119.38C154.472 111.643 162.128 106.627 170.603 106.627ZM426.508 319.881C426.508 296.326 407.412 277.23 383.857 277.23C360.302 277.23 341.207 296.326 341.207 319.881C341.207 343.436 360.302 362.531 383.857 362.531C407.412 362.531 426.508 343.436 426.508 319.881ZM131.505 277.231H209.701L170.603 183.397L131.505 277.231ZM469.159 383.857C469.159 395.635 459.611 405.183 447.834 405.183C439.188 405.183 431.745 400.038 428.397 392.644C415.433 400.596 400.181 405.183 383.857 405.183C336.746 405.183 298.555 366.992 298.555 319.881C298.555 272.77 336.746 234.579 383.857 234.579C400.18 234.579 415.432 239.165 428.396 247.117C431.744 239.723 439.189 234.579 447.834 234.579C459.611 234.579 469.159 244.127 469.159 255.904V383.857Z" fill="white"/>
</svg>
