<svg width="512" height="512" viewBox="0 0 512 512" fill="none" xmlns="http://www.w3.org/2000/svg">
<path d="M213.254 405.183V277.231H85.3016V405.183C85.3016 416.961 75.7541 426.508 63.9764 426.508C52.1987 426.508 42.6512 416.961 42.6512 405.183V106.627C42.6512 94.8496 52.1987 85.3021 63.9764 85.3021C75.7541 85.3021 85.3016 94.8496 85.3016 106.627V234.579H213.254V106.627C213.254 94.8496 222.802 85.3021 234.58 85.3021C246.357 85.3023 255.905 94.8497 255.905 106.627V405.183C255.905 416.961 246.357 426.508 234.58 426.508C222.802 426.508 213.254 416.961 213.254 405.183ZM386.505 160.307C392.191 149.993 405.162 146.242 415.475 151.928C425.789 157.615 429.541 170.586 423.854 180.9L382.1 256.631C397.157 256.309 412.486 259.951 426.47 267.979C467.266 291.399 481.346 343.37 457.715 384.07C434.126 424.694 381.991 438.521 341.263 415.14C300.555 391.771 286.456 339.973 309.863 299.318L386.505 160.307ZM405.235 304.968C384.762 293.215 358.648 300.235 346.905 320.458C335.202 340.613 342.098 366.44 362.497 378.151C382.967 389.902 409.086 382.88 420.831 362.654C432.532 342.501 425.638 316.681 405.235 304.968Z" fill="white"/>
</svg>
