<svg width="512" height="512" viewBox="0 0 512 512" fill="none" xmlns="http://www.w3.org/2000/svg">
<path d="M213.253 405.183V277.231H85.3008V405.183C85.3008 416.961 75.7533 426.508 63.9756 426.508C52.1979 426.508 42.6504 416.961 42.6504 405.183V106.627C42.6504 94.8496 52.1979 85.3021 63.9756 85.3021C75.7533 85.3021 85.3008 94.8496 85.3008 106.627V234.579H213.253V106.627C213.253 94.8496 222.801 85.3021 234.579 85.3021C246.357 85.3022 255.904 94.8497 255.904 106.627V405.183C255.904 416.961 246.357 426.508 234.579 426.508C222.801 426.508 213.253 416.961 213.253 405.183ZM447.834 170.604C459.612 170.604 469.159 180.151 469.159 191.929C469.159 203.707 459.612 213.254 447.834 213.254H379.194L368.204 257.351C386.041 254.022 404.54 256.463 420.968 264.398C439.297 273.251 453.833 288.367 461.99 306.989C470.15 325.614 471.398 346.543 465.48 366.014C459.563 385.483 446.874 402.191 429.729 413.127C412.573 424.07 392.081 428.51 371.943 425.669C351.807 422.828 333.339 412.892 319.88 397.629C312.09 388.796 312.936 375.319 321.77 367.53C330.603 359.74 344.079 360.587 351.869 369.42C358.592 377.044 367.823 382.014 377.901 383.436C387.978 384.858 398.221 382.636 406.792 377.169C415.373 371.696 421.717 363.338 424.673 353.612C427.628 343.888 427.008 333.427 422.924 324.103C418.837 314.774 411.565 307.222 402.418 302.804C393.254 298.378 382.804 297.37 372.975 299.964C366.425 301.693 360.42 304.952 355.424 309.421C354.161 310.55 352.975 311.743 351.869 312.997C345.367 320.371 334.666 322.344 325.962 317.775C317.257 313.205 312.804 303.275 315.182 293.736L341.839 186.772L341.954 186.328C344.473 177.064 352.893 170.604 362.531 170.604H447.834Z" fill="white"/>
</svg>
