<svg width="512" height="512" viewBox="0 0 512 512" fill="none" xmlns="http://www.w3.org/2000/svg">
<path d="M213.255 405.183V277.231H85.3027V405.183C85.3027 416.961 75.7552 426.508 63.9775 426.508C52.1999 426.508 42.6524 416.961 42.6523 405.183V106.627C42.6523 94.8496 52.1998 85.3021 63.9775 85.3021C75.7552 85.3021 85.3027 94.8496 85.3027 106.627V234.579H213.255V106.627C213.255 94.8496 222.803 85.3021 234.581 85.3021C246.359 85.3022 255.906 94.8497 255.906 106.627V405.183C255.906 416.961 246.359 426.508 234.581 426.508C222.803 426.508 213.255 416.961 213.255 405.183ZM316.43 342.391C327.536 338.471 339.717 344.298 343.637 355.404C346.575 363.727 352.02 370.934 359.221 376.029C366.419 381.121 375.029 383.858 383.858 383.858C407.414 383.858 426.51 364.762 426.51 341.206C426.51 317.651 407.414 298.556 383.858 298.556H362.533C353.908 298.556 346.132 293.36 342.831 285.391C339.531 277.422 341.355 268.25 347.454 262.151L396.352 213.254H319.883C308.105 213.254 298.557 203.707 298.557 191.929C298.557 180.151 308.105 170.604 319.883 170.604H447.835C456.46 170.604 464.236 175.799 467.537 183.768C470.838 191.737 469.013 200.909 462.914 207.008L409.95 259.971C444.299 270.994 469.16 303.196 469.16 341.206C469.16 388.317 430.969 426.508 383.858 426.508C366.217 426.508 348.998 421.042 334.587 410.846C320.178 400.651 309.29 386.237 303.417 369.598C299.497 358.492 305.324 346.311 316.43 342.391Z" fill="white"/>
</svg>
