<svg width="512" height="512" viewBox="0 0 512 512" fill="none" xmlns="http://www.w3.org/2000/svg">
<path d="M70.22 70.2221C78.5481 61.8941 92.0501 61.8941 100.378 70.2221L441.585 411.428C449.913 419.756 449.913 433.259 441.585 441.587C433.257 449.915 419.754 449.915 411.426 441.587L351.374 381.536C322.91 395.391 290.57 405.179 255.903 405.179C171.536 405.179 100.01 347.292 61.4543 308.961C51.8973 299.46 43.0171 291.11 38.0042 275.742C35.9094 269.32 35.2474 261.982 35.2473 255.903C35.2472 249.824 35.9082 242.485 38.0042 236.062C43.0192 220.692 51.9132 212.329 61.4875 202.813C77.2526 187.143 97.9135 168.83 122.26 152.421L70.22 100.38C61.8919 92.0523 61.8919 78.5502 70.22 70.2221ZM153.067 183.227C128.664 198.717 107.612 217.103 91.5549 233.063C81.0563 243.498 79.9137 245.116 78.551 249.292C78.5487 249.3 78.4906 249.486 78.4084 249.88C78.3264 250.274 78.2376 250.792 78.1575 251.429C77.995 252.722 77.8977 254.264 77.8977 255.903C77.8977 257.541 77.9959 259.083 78.1584 260.376C78.2386 261.014 78.3264 261.532 78.4084 261.926C78.4925 262.33 78.552 262.516 78.552 262.516C79.9146 266.693 81.0493 268.3 91.5247 278.714C128.863 315.834 189.684 362.529 255.903 362.529C277.618 362.529 298.872 357.511 319.108 349.269L283.48 313.641C275.125 317.637 265.766 319.88 255.903 319.88C220.57 319.88 191.926 291.238 191.926 255.905C191.926 246.036 194.17 236.678 198.166 228.327L153.067 183.227ZM255.903 106.626C340.269 106.627 411.8 164.514 450.357 202.845H450.356C459.912 212.346 468.795 220.707 473.806 236.07C475.9 242.489 476.563 249.825 476.565 255.906C476.566 261.795 475.947 268.869 474.001 275.149L473.809 275.754C468.81 291.075 459.946 299.426 450.435 308.877C450.396 308.916 450.359 308.956 450.321 308.995C444.208 315.07 437.387 321.515 429.927 328.077C421.083 335.855 407.608 334.992 399.829 326.148C392.051 317.304 392.915 303.829 401.759 296.051C408.476 290.144 414.641 284.32 420.185 278.812C420.228 278.768 420.272 278.723 420.316 278.679C430.773 268.286 431.906 266.678 433.262 262.524C433.262 262.524 433.321 262.339 433.405 261.938C433.486 261.545 433.575 261.028 433.655 260.39C433.817 259.097 433.914 257.555 433.913 255.915C433.913 254.276 433.815 252.733 433.653 251.439C433.572 250.8 433.484 250.282 433.402 249.887C433.361 249.693 433.326 249.545 433.298 249.44C433.274 249.347 433.259 249.3 433.257 249.295C431.895 245.119 430.749 243.494 420.286 233.092C382.949 195.973 322.122 149.278 255.903 149.278C249.651 149.278 243.44 149.692 237.282 150.48C225.6 151.974 214.919 143.715 213.424 132.033C211.93 120.35 220.189 109.669 231.871 108.174C239.741 107.168 247.76 106.626 255.903 106.626Z" fill="white"/>
</svg>
