<svg width="512" height="512" viewBox="0 0 512 512" fill="none" xmlns="http://www.w3.org/2000/svg">
<path d="M436.006 280.811C445.805 274.279 459.045 276.927 465.578 286.726C472.111 296.526 469.463 309.766 459.664 316.3L267.735 444.252C260.572 449.027 251.24 449.027 244.077 444.252L52.1481 316.3C42.3485 309.767 39.7001 296.526 46.2331 286.726C52.7661 276.927 66.0067 274.278 75.8063 280.811L255.906 400.878L436.006 280.811ZM244.414 67.3377C251.531 62.7836 260.684 62.8566 267.735 67.5574L459.664 195.511C465.596 199.466 469.16 206.124 469.16 213.254C469.16 220.384 465.596 227.043 459.664 230.998L267.735 358.95C260.572 363.725 251.24 363.725 244.077 358.95L52.1481 230.998C46.2154 227.043 42.652 220.384 42.652 213.254C42.6521 206.124 46.2155 199.466 52.1481 195.511L244.077 67.5574L244.414 67.3377ZM102.422 213.254L255.906 315.576L409.389 213.254L255.906 110.931L102.422 213.254Z" fill="white"/>
</svg>
