<svg width="512" height="512" viewBox="0 0 512 512" fill="none" xmlns="http://www.w3.org/2000/svg">
<path d="M127.957 329.679C127.957 324.272 123.57 319.881 118.155 319.881H117.29C111.402 319.881 106.627 324.655 106.627 330.544V334.496C106.627 346.273 97.0798 355.821 85.3021 355.821C73.5245 355.821 63.977 346.273 63.9769 334.496V330.544C63.9769 301.099 87.8462 277.23 117.29 277.23H118.155C147.118 277.23 170.608 300.709 170.608 329.679C170.608 341.782 166.676 353.555 159.422 363.227L127.954 405.183L149.277 405.182C161.054 405.182 170.603 414.729 170.604 426.507C170.605 438.284 161.057 447.833 149.28 447.834L85.3031 447.838C77.2256 447.838 69.8415 443.274 66.2289 436.05C62.6162 428.825 63.395 420.179 68.2416 413.717L125.302 337.637C127.027 335.337 127.957 332.541 127.957 329.679ZM426.508 341.207C438.286 341.207 447.834 350.754 447.834 362.532C447.834 374.31 438.286 383.857 426.508 383.857H213.254C201.477 383.857 191.929 374.31 191.929 362.532C191.929 350.754 201.477 341.207 213.254 341.207H426.508ZM426.508 234.58C438.286 234.58 447.834 244.127 447.834 255.905C447.834 267.683 438.286 277.23 426.508 277.23H213.254C201.477 277.23 191.929 267.683 191.929 255.905C191.929 244.127 201.477 234.58 213.254 234.58H426.508ZM106.627 213.254V119.806L94.8392 125.701C84.3049 130.968 71.495 126.698 66.2279 116.164C60.9609 105.63 65.2308 92.8196 75.765 87.5525L118.416 66.2273C125.027 62.9223 132.877 63.2754 139.164 67.1609C145.451 71.0466 149.279 77.9106 149.279 85.3015V213.254C149.279 225.031 139.73 234.579 127.952 234.579C116.175 234.579 106.627 225.031 106.627 213.254ZM426.508 127.952C438.286 127.952 447.834 137.5 447.834 149.278C447.834 161.056 438.286 170.603 426.508 170.603H213.254C201.477 170.603 191.929 161.056 191.929 149.278C191.929 137.5 201.477 127.952 213.254 127.952H426.508Z" fill="white"/>
</svg>
