<svg width="512" height="512" viewBox="0 0 512 512" fill="none" xmlns="http://www.w3.org/2000/svg">
<path d="M411.428 283.476C419.756 275.148 433.259 275.148 441.587 283.476C449.915 291.804 449.915 305.307 441.587 313.635L356.286 398.937C347.958 407.265 334.455 407.265 326.126 398.937L283.476 356.285C275.148 347.957 275.148 334.455 283.476 326.127C291.804 317.799 305.306 317.799 313.634 326.127L341.206 353.698L411.428 283.476ZM234.579 341.206C246.356 341.206 255.905 350.754 255.905 362.531C255.905 374.309 246.356 383.857 234.579 383.857H85.3013C73.5236 383.857 63.9761 374.309 63.9761 362.531C63.9761 350.754 73.5236 341.206 85.3013 341.206H234.579ZM319.88 234.579C331.658 234.579 341.207 244.127 341.207 255.905C341.207 267.682 331.658 277.23 319.88 277.23H85.3013C73.5236 277.23 63.9761 267.682 63.9761 255.905C63.9761 244.127 73.5236 234.579 85.3013 234.579H319.88ZM319.88 127.952C331.658 127.952 341.207 137.5 341.207 149.278C341.207 161.055 331.658 170.603 319.88 170.603H85.3013C73.5236 170.603 63.9761 161.055 63.9761 149.278C63.9761 137.5 73.5236 127.952 85.3013 127.952H319.88Z" fill="white"/>
</svg>
