<svg width="512" height="512" viewBox="0 0 512 512" fill="none" xmlns="http://www.w3.org/2000/svg">
<path d="M362.532 405.183V362.531H319.881C308.104 362.531 298.555 352.984 298.555 341.206C298.555 329.429 308.104 319.881 319.881 319.881H362.532V277.23C362.532 265.452 372.079 255.905 383.857 255.905C395.635 255.905 405.182 265.452 405.182 277.23V319.881H447.833C459.611 319.881 469.159 329.429 469.159 341.206C469.159 352.984 459.611 362.531 447.833 362.531H405.182V405.183C405.182 416.96 395.634 426.508 383.857 426.508C372.079 426.508 362.532 416.96 362.532 405.183ZM213.253 341.206C225.031 341.206 234.58 350.754 234.58 362.531C234.58 374.309 225.031 383.857 213.253 383.857H63.9761C52.1984 383.857 42.6509 374.309 42.6509 362.531C42.6509 350.754 52.1984 341.206 63.9761 341.206H213.253ZM298.555 234.579C310.333 234.579 319.881 244.127 319.881 255.905C319.881 267.682 310.333 277.23 298.555 277.23H63.9761C52.1984 277.23 42.6509 267.682 42.6509 255.905C42.6509 244.127 52.1984 234.579 63.9761 234.579H298.555ZM298.555 127.952C310.333 127.952 319.881 137.5 319.881 149.278C319.881 161.055 310.333 170.603 298.555 170.603H63.9761C52.1984 170.603 42.6509 161.055 42.6509 149.278C42.6509 137.5 52.1984 127.952 63.9761 127.952H298.555Z" fill="white"/>
</svg>
