<svg width="512" height="512" viewBox="0 0 512 512" fill="none" xmlns="http://www.w3.org/2000/svg">
<path d="M154.221 306.229C161.76 297.181 175.208 295.959 184.256 303.498C193.303 311.038 194.526 324.486 186.986 333.534L133.673 397.51C126.696 405.882 114.529 407.646 105.461 401.601L73.4725 380.276C63.6729 373.743 61.0244 360.502 67.5574 350.703C74.0906 340.903 87.3311 338.255 97.1307 344.788L113.175 355.484L154.221 306.229ZM426.508 341.206C438.285 341.206 447.834 350.755 447.834 362.533C447.834 374.31 438.285 383.858 426.508 383.858H234.579C222.802 383.858 213.254 374.31 213.254 362.533C213.254 350.755 222.801 341.207 234.579 341.206H426.508ZM154.221 199.602C161.76 190.554 175.208 189.332 184.256 196.871C193.303 204.411 194.526 217.859 186.986 226.907L133.673 290.883C126.696 299.255 114.529 301.019 105.461 294.974L73.4725 273.649C63.6729 267.116 61.0244 253.875 67.5574 244.076C74.0906 234.276 87.3311 231.628 97.1307 238.162L113.175 248.857L154.221 199.602ZM426.508 234.579C438.285 234.579 447.834 244.127 447.834 255.905C447.834 267.682 438.285 277.231 426.508 277.231H234.579C222.801 277.231 213.254 267.682 213.254 255.905C213.254 244.127 222.802 234.58 234.579 234.579H426.508ZM154.221 92.975C161.76 83.9272 175.208 82.7047 184.256 90.2445C193.303 97.7844 194.526 111.232 186.986 120.28L133.673 184.255C126.696 192.628 114.529 194.392 105.461 188.347L73.4725 167.022C63.6729 160.489 61.0244 147.248 67.5574 137.449C74.0906 127.649 87.3311 125.001 97.1307 131.535L113.175 142.23L154.221 92.975ZM426.508 127.953C438.285 127.953 447.834 137.5 447.834 149.278C447.834 161.055 438.285 170.604 426.508 170.604H234.579C222.801 170.604 213.254 161.055 213.254 149.278C213.254 137.5 222.802 127.953 234.579 127.953H426.508Z" fill="white"/>
</svg>
