<svg width="512" height="512" viewBox="0 0 512 512" fill="none" xmlns="http://www.w3.org/2000/svg">
<path d="M368.778 176.849C377.106 168.521 390.608 168.521 398.936 176.849L462.913 240.825C471.241 249.153 471.241 262.656 462.913 270.984L398.936 334.961C390.608 343.288 377.106 343.288 368.778 334.961C360.45 326.633 360.45 313.13 368.778 304.801L396.35 277.23H115.461L143.032 304.801C151.36 313.13 151.36 326.633 143.032 334.961C134.704 343.289 121.201 343.289 112.873 334.961L48.8974 270.984C40.5693 262.656 40.5693 249.153 48.8974 240.825L112.873 176.849C121.201 168.521 134.704 168.521 143.032 176.849C151.36 185.177 151.36 198.679 143.032 207.008L115.461 234.579H396.35L368.778 207.008C360.45 198.679 360.45 185.177 368.778 176.849Z" fill="white"/>
</svg>
