<svg width="512" height="512" viewBox="0 0 512 512" fill="none" xmlns="http://www.w3.org/2000/svg">
<path d="M241.22 48.5124C249.574 40.5707 262.786 40.6992 270.984 48.8972L334.961 112.873C343.289 121.201 343.289 134.704 334.961 143.032C326.633 151.36 313.13 151.36 304.802 143.032L277.23 115.46V234.58H396.349L368.778 207.009C360.45 198.68 360.45 185.177 368.778 176.849C377.106 168.521 390.608 168.521 398.936 176.849L462.913 240.826C471.241 249.154 471.241 262.656 462.913 270.984L398.936 334.961C390.608 343.288 377.106 343.288 368.778 334.961C360.45 326.633 360.45 313.13 368.778 304.801L396.349 277.23H277.23V396.349L304.802 368.778C313.13 360.45 326.633 360.45 334.961 368.778C343.289 377.106 343.288 390.608 334.961 398.936L270.984 462.913C266.985 466.912 261.561 469.159 255.905 469.159C250.249 469.159 244.825 466.912 240.826 462.913L176.849 398.936C168.522 390.608 168.521 377.106 176.849 368.778C185.178 360.45 198.681 360.45 207.009 368.778L234.58 396.349V277.23H115.461L143.032 304.801C151.36 313.13 151.36 326.633 143.032 334.961C134.704 343.289 121.201 343.289 112.873 334.961L48.8973 270.984C40.5692 262.656 40.5692 249.154 48.8973 240.826L112.873 176.849C121.201 168.521 134.704 168.521 143.032 176.849C151.36 185.177 151.36 198.68 143.032 207.009L115.461 234.58H234.58V115.46L207.009 143.032C198.681 151.36 185.178 151.36 176.849 143.032C168.521 134.704 168.521 121.201 176.849 112.873L240.826 48.8972L241.22 48.5124Z" fill="white"/>
</svg>
