<svg width="512" height="512" viewBox="0 0 512 512" fill="none" xmlns="http://www.w3.org/2000/svg">
<path d="M228.669 82.387C280.719 30.3365 365.111 30.3365 417.162 82.387C469.213 134.439 469.205 218.833 417.156 270.882L247.513 440.525C210.035 478.003 149.282 477.996 111.807 440.521C74.3337 403.047 74.3215 342.291 111.8 304.812L281.443 135.169C304.345 112.267 341.49 112.267 364.392 135.169C387.302 158.079 387.276 195.205 364.382 218.1L217.358 365.123C209.03 373.451 195.528 373.451 187.2 365.123C178.872 356.795 178.872 343.293 187.2 334.965L334.223 187.941C340.477 181.687 340.471 171.566 334.233 165.327C327.987 159.082 317.847 159.081 311.601 165.327L141.959 334.97C121.141 355.788 121.144 389.539 141.967 410.362C162.788 431.183 196.536 431.185 217.355 410.367L386.998 240.724C422.393 205.328 422.396 147.938 387.003 112.545C351.608 77.151 294.221 77.1509 258.827 112.545L111.803 259.569C103.475 267.897 89.9733 267.897 81.6452 259.569C73.3171 251.241 73.3172 237.739 81.6452 229.41L228.669 82.387Z" fill="white"/>
</svg>
