<svg width="512" height="512" viewBox="0 0 512 512" fill="none" xmlns="http://www.w3.org/2000/svg">
<path d="M373.195 239.911C373.195 231.078 366.034 223.917 357.201 223.917H117.289C87.8455 223.917 63.9762 247.786 63.976 277.23C63.976 306.674 87.8453 330.545 117.289 330.545H357.201C407.256 330.545 447.833 289.966 447.833 239.911C447.833 189.856 407.256 149.278 357.201 149.278H149.278C137.5 149.278 127.953 139.731 127.953 127.953C127.953 116.175 137.5 106.628 149.278 106.628H357.201C430.811 106.628 490.484 166.301 490.484 239.911C490.484 313.521 430.811 373.195 357.201 373.195H117.289C64.2899 373.195 21.3256 330.23 21.3256 277.23C21.3258 224.231 64.2901 181.266 117.289 181.266H357.201C389.589 181.266 415.845 207.522 415.845 239.911C415.845 272.299 389.589 298.556 357.201 298.556H149.278C137.5 298.556 127.953 289.008 127.953 277.23C127.953 265.453 137.5 255.905 149.278 255.905H357.201C366.034 255.905 373.195 248.744 373.195 239.911Z" fill="white"/>
</svg>
