<svg width="512" height="512" viewBox="0 0 512 512" fill="none" xmlns="http://www.w3.org/2000/svg">
<path d="M319.882 405.182V127.952H277.23V405.182C277.23 416.96 267.683 426.508 255.905 426.508C244.128 426.508 234.58 416.96 234.58 405.182V298.555C175.692 298.555 127.953 250.817 127.953 191.928C127.953 133.04 175.692 85.3015 234.58 85.3015H362.532C374.31 85.3015 383.857 94.849 383.857 106.627C383.857 118.404 374.31 127.952 362.532 127.952V405.182C362.532 416.96 352.985 426.508 341.207 426.508C329.429 426.508 319.882 416.96 319.882 405.182ZM170.604 191.928C170.604 227.261 199.247 255.905 234.58 255.905V127.952C199.247 127.952 170.604 156.595 170.604 191.928Z" fill="white"/>
</svg>
