<svg width="512" height="512" viewBox="0 0 512 512" fill="none" xmlns="http://www.w3.org/2000/svg">
<path d="M170.603 383.857C170.603 372.074 165.853 361.441 158.111 353.699C150.37 345.957 139.736 341.207 127.953 341.207C104.398 341.207 85.3016 360.302 85.3015 383.857C85.3015 407.413 104.397 426.509 127.953 426.509C151.508 426.508 170.603 407.412 170.603 383.857ZM426.509 127.953C426.509 104.397 407.413 85.3015 383.857 85.3015C360.302 85.3016 341.207 104.398 341.207 127.953C341.207 139.067 345.435 149.157 352.411 156.763C352.883 157.16 353.343 157.579 353.787 158.023C354.232 158.468 354.652 158.929 355.05 159.402C362.656 166.377 372.744 170.603 383.857 170.603C407.412 170.603 426.508 151.508 426.509 127.953ZM469.159 127.953C469.159 175.064 430.968 213.254 383.857 213.254C368.047 213.254 353.226 208.94 340.528 201.44L201.44 340.528C208.94 353.226 213.254 368.047 213.254 383.857C213.254 430.968 175.064 469.159 127.953 469.159C80.8421 469.159 42.6511 430.968 42.6511 383.857C42.6512 336.746 80.8422 298.555 127.953 298.555C143.763 298.555 158.583 302.87 171.281 310.369L310.369 171.281C302.87 158.583 298.555 143.763 298.555 127.953C298.555 80.8422 336.746 42.6512 383.857 42.6511C430.968 42.6511 469.159 80.8421 469.159 127.953Z" fill="white"/>
</svg>
