<svg width="512" height="512" viewBox="0 0 512 512" fill="none" xmlns="http://www.w3.org/2000/svg">
<path d="M383.852 63.9761C383.852 52.1984 393.399 42.6509 405.177 42.6509C416.955 42.651 426.502 52.1985 426.502 63.9761V170.603C426.502 182.381 416.955 191.928 405.177 191.928H298.55C286.772 191.928 277.225 182.381 277.225 170.603C277.225 158.825 286.772 149.278 298.55 149.278H360.375C344.093 133.325 324.285 121.226 302.401 114.052C272.066 104.108 239.336 104.155 209.024 114.18C178.711 124.205 152.413 143.68 133.988 169.75C115.565 195.818 105.99 227.109 106.658 259.03C107.327 290.949 118.209 321.814 137.709 347.089C157.21 372.366 184.294 390.72 214.998 399.466C245.702 408.213 278.404 406.886 308.297 395.679C338.191 384.473 363.704 363.978 381.092 337.204C387.507 327.326 400.714 324.519 410.592 330.933C420.469 337.348 423.276 350.556 416.861 360.433C394.506 394.857 361.703 421.208 323.269 435.617C284.834 450.025 242.789 451.731 203.314 440.486C163.838 429.241 129.013 405.641 103.94 373.142C78.8662 340.642 64.8764 300.959 64.0167 259.923C63.1572 218.889 75.4666 178.656 99.1584 145.133C122.849 111.612 156.663 86.5747 195.632 73.687C234.6 60.7996 276.68 60.7369 315.687 73.524C341.027 81.8309 364.203 95.2736 383.852 112.847V63.9761Z" fill="white"/>
</svg>
