<svg width="512" height="512" viewBox="0 0 512 512" fill="none" xmlns="http://www.w3.org/2000/svg">
<path d="M42.6505 413.713V191.929C42.6506 180.151 52.1981 170.603 63.9757 170.603C75.7533 170.603 85.3008 180.151 85.3009 191.929V413.713C85.3009 420.036 85.3175 423.495 85.5206 425.98C85.5287 426.08 85.5388 426.174 85.547 426.262C85.632 426.27 85.7219 426.281 85.8165 426.289C88.2984 426.492 91.7522 426.509 98.0636 426.509H319.883C331.66 426.509 341.208 436.056 341.208 447.834C341.208 459.611 331.66 469.159 319.883 469.159H98.0636C92.4553 469.159 86.9638 469.175 82.3419 468.798C77.4723 468.4 71.7218 467.461 65.9357 464.512C57.8917 460.414 51.3785 453.873 47.2989 445.867C44.3504 440.08 43.4103 434.33 43.0118 429.455C42.6338 424.83 42.6505 419.332 42.6505 413.713ZM426.512 294.287V132.213C426.512 119.918 426.496 111.979 426.002 105.936C425.529 100.143 424.725 97.9956 424.188 96.9412C422.149 92.9406 418.886 89.6765 414.861 87.6258C413.806 87.0881 411.658 86.2855 405.868 85.8123C399.828 85.3187 391.891 85.3016 379.596 85.3016H217.523C205.228 85.3016 197.286 85.3186 191.241 85.8123C185.445 86.2857 183.296 87.0892 182.242 87.6258C178.23 89.6703 174.971 92.9286 172.927 96.9412C172.39 97.9945 171.587 100.144 171.113 105.94C170.62 111.985 170.603 119.927 170.603 132.221V294.295C170.603 306.59 170.62 314.528 171.113 320.568C171.587 326.358 172.389 328.505 172.927 329.56C174.978 333.585 178.242 336.848 182.242 338.887C183.292 339.421 185.436 340.224 191.222 340.697C197.255 341.19 205.181 341.207 217.452 341.207H379.668C391.94 341.207 399.861 341.19 405.89 340.697C411.668 340.225 413.809 339.423 414.861 338.887C418.872 336.843 422.142 333.573 424.188 329.558C424.725 328.504 425.529 326.356 426.002 320.563C426.496 314.521 426.512 306.582 426.512 294.287ZM347.452 155.524C355.78 147.196 369.282 147.196 377.61 155.524C385.939 163.852 385.939 177.354 377.61 185.682L292.309 270.984C283.981 279.312 270.479 279.312 262.15 270.984L219.499 228.334C211.171 220.006 211.171 206.503 219.499 198.175C227.827 189.847 241.33 189.847 249.658 198.175L277.23 225.746L347.452 155.524ZM469.163 294.287C469.163 305.878 469.179 315.854 468.511 324.036C467.822 332.467 466.301 340.853 462.19 348.922C456.057 360.957 446.265 370.754 434.225 376.888V376.889C426.162 380.997 417.786 382.517 409.365 383.206C401.195 383.874 391.236 383.857 379.668 383.857H217.452C205.884 383.857 195.921 383.874 187.747 383.206C179.326 382.518 170.944 380.999 162.879 376.889C150.829 370.75 141.052 360.949 134.925 348.924C130.814 340.855 129.293 332.472 128.604 324.042C127.935 315.861 127.952 305.886 127.952 294.295V132.221C127.952 120.63 127.935 110.652 128.604 102.469C129.292 94.0372 130.813 85.6483 134.925 77.5779C141.059 65.54 150.841 55.7574 162.879 49.6238C170.949 45.5119 179.338 43.9912 187.77 43.3025C195.953 42.6341 205.931 42.6512 217.523 42.6512H379.596C391.187 42.6512 401.162 42.634 409.343 43.3025C417.773 43.9915 426.157 45.5129 434.225 49.6238C446.251 55.7513 456.05 65.528 462.19 77.5779C466.301 85.6471 467.822 94.0328 468.511 102.464C469.179 110.646 469.163 120.622 469.163 132.213V294.287Z" fill="white"/>
</svg>
