<svg width="512" height="512" viewBox="0 0 512 512" fill="none" xmlns="http://www.w3.org/2000/svg">
<path d="M255.909 106.627C340.276 106.627 411.795 164.516 450.35 202.846C459.897 212.338 468.792 220.703 473.804 236.068C475.899 242.49 476.561 249.827 476.561 255.906C476.561 261.984 475.899 269.32 473.804 275.742C468.792 291.108 459.894 299.474 450.35 308.962C411.795 347.292 340.276 405.181 255.909 405.181C171.542 405.181 100.011 347.293 61.4545 308.962C51.8976 299.461 43.0173 291.11 38.0043 275.742C35.9092 269.32 35.2474 261.984 35.2474 255.905C35.2475 249.826 35.9093 242.49 38.0043 236.068C43.017 220.701 51.8956 212.349 61.4545 202.846C100.011 164.515 171.542 106.627 255.909 106.627ZM255.909 149.278C189.69 149.278 128.862 195.974 91.5248 233.093C81.0529 243.504 79.9151 245.116 78.5521 249.294C78.5521 249.294 78.4926 249.481 78.4086 249.884C78.3265 250.278 78.2377 250.795 78.1576 251.433C77.9952 252.726 77.8978 254.267 77.8978 255.905C77.8978 257.542 77.9951 259.084 78.1576 260.377C78.2377 261.015 78.3265 261.532 78.4086 261.926C78.4906 262.32 78.5494 262.506 78.5521 262.515C79.9149 266.692 81.0503 268.302 91.5248 278.715C128.862 315.834 189.69 362.529 255.909 362.53C322.127 362.53 382.941 315.836 420.28 278.715C430.751 268.305 431.895 266.686 433.256 262.515C433.259 262.506 433.318 262.319 433.4 261.926C433.482 261.532 433.571 261.015 433.651 260.377C433.813 259.084 433.911 257.542 433.911 255.905C433.911 254.267 433.813 252.726 433.651 251.433C433.571 250.795 433.482 250.278 433.4 249.884C433.318 249.491 433.259 249.304 433.256 249.295C431.895 245.122 430.75 243.502 420.28 233.093C382.941 195.972 322.127 149.278 255.909 149.278ZM277.23 255.905C277.23 244.127 267.682 234.579 255.905 234.579C244.127 234.579 234.58 244.127 234.579 255.905C234.579 267.682 244.127 277.23 255.905 277.23C267.682 277.23 277.23 267.682 277.23 255.905ZM319.881 255.905C319.881 291.238 291.238 319.881 255.905 319.881C220.572 319.881 191.928 291.238 191.928 255.905C191.928 220.572 220.572 191.929 255.905 191.929C291.238 191.929 319.881 220.572 319.881 255.905Z" fill="white"/>
</svg>
