<svg width="512" height="512" viewBox="0 0 512 512" fill="none" xmlns="http://www.w3.org/2000/svg">
<path d="M362.532 234.579C362.532 222.802 372.08 213.254 383.857 213.254C395.635 213.254 405.182 222.802 405.182 234.579V353.698L432.754 326.127C441.082 317.799 454.585 317.799 462.913 326.127C471.241 334.455 471.241 347.957 462.913 356.285L398.936 420.262C390.608 428.59 377.106 428.59 368.778 420.262L304.802 356.285C296.474 347.957 296.474 334.455 304.802 326.127C313.13 317.799 326.633 317.799 334.961 326.127L362.532 353.698V234.579ZM213.254 341.206C225.031 341.206 234.579 350.754 234.579 362.531C234.579 374.309 225.031 383.857 213.254 383.857H85.3016C73.5239 383.857 63.9764 374.309 63.9764 362.531C63.9765 350.754 73.524 341.206 85.3016 341.206H213.254ZM277.23 234.579C289.008 234.579 298.556 244.127 298.556 255.905C298.556 267.682 289.008 277.23 277.23 277.23H85.3016C73.5239 277.23 63.9764 267.682 63.9764 255.905C63.9765 244.127 73.524 234.579 85.3016 234.579H277.23ZM341.207 127.952C352.984 127.953 362.532 137.5 362.532 149.278C362.532 161.055 352.984 170.603 341.207 170.603H85.3016C73.5239 170.603 63.9764 161.055 63.9764 149.278C63.9764 137.5 73.5239 127.952 85.3016 127.952H341.207Z" fill="white"/>
</svg>
