<svg width="512" height="512" viewBox="0 0 512 512" fill="none" xmlns="http://www.w3.org/2000/svg">
<path d="M341.207 341.206C352.984 341.207 362.532 350.755 362.532 362.532C362.531 374.31 352.984 383.857 341.207 383.858H85.3013C73.5237 383.858 63.9763 374.31 63.9761 362.532C63.9761 350.755 73.5236 341.206 85.3013 341.206H341.207ZM362.532 277.231V158.111L334.96 185.683C326.632 194.011 313.129 194.011 304.801 185.683C296.473 177.355 296.473 163.852 304.801 155.524L368.778 91.5481L369.171 91.1633C377.526 83.2215 390.738 83.3501 398.936 91.5481L462.913 155.524C471.241 163.852 471.241 177.355 462.913 185.683C454.585 194.011 441.082 194.011 432.753 185.683L405.182 158.111V277.231C405.182 289.008 395.635 298.556 383.857 298.556C372.079 298.556 362.532 289.008 362.532 277.231ZM277.23 234.579C289.007 234.579 298.555 244.127 298.555 255.905C298.555 267.682 289.008 277.231 277.23 277.231H85.3013C73.5236 277.231 63.9761 267.682 63.9761 255.905C63.9763 244.127 73.5237 234.579 85.3013 234.579H277.23ZM213.253 127.952C225.031 127.952 234.578 137.5 234.579 149.278C234.579 161.055 225.031 170.604 213.253 170.604H85.3013C73.5236 170.604 63.9761 161.055 63.9761 149.278C63.9763 137.5 73.5237 127.952 85.3013 127.952H213.253Z" fill="white"/>
</svg>
