<svg width="512" height="512" viewBox="0 0 512 512" fill="none" xmlns="http://www.w3.org/2000/svg">
<path d="M426.508 234.581C438.285 234.581 447.834 244.129 447.834 255.906C447.834 267.684 438.285 277.232 426.508 277.232H358.42C361.492 280.658 364.339 284.263 366.933 288.038C378.563 304.961 384.594 324.56 383.802 344.723C383.01 364.873 375.464 384.015 362.651 400.167C349.883 416.263 332.379 428.799 312.374 436.953C292.363 445.11 270.207 448.753 248.148 447.643C226.092 446.532 204.57 440.693 185.804 430.49C167.036 420.287 151.384 405.893 141.059 388.34C135.088 378.188 138.477 365.118 148.629 359.146C158.78 353.175 171.851 356.564 177.822 366.716C183.758 376.808 193.356 386.05 206.176 393.019C218.996 399.99 234.232 404.238 250.292 405.046C266.349 405.854 282.256 403.172 296.274 397.458C310.298 391.742 321.542 383.361 329.237 373.66C336.888 364.015 340.775 353.437 341.183 343.049C341.591 332.673 338.552 322.044 331.782 312.193C328.047 306.758 323.233 301.647 317.404 297.076C312.603 293.311 307.128 289.927 301.072 287.062C287.63 280.703 272.019 277.232 255.915 277.232H85.3016C73.5239 277.232 63.9764 267.684 63.9764 255.906C63.9766 244.129 73.524 234.581 85.3016 234.581H426.508ZM199.446 74.8544C219.461 66.6959 241.618 63.0618 263.673 64.1718C285.726 65.2819 307.258 71.1189 326.027 81.3232C344.799 91.5291 360.446 105.928 370.768 123.477C376.74 133.629 373.35 146.699 363.199 152.671C353.206 158.549 340.384 155.358 334.29 145.573L333.437 144.158C327.463 134.431 318.07 125.544 305.655 118.794C292.837 111.825 277.591 107.577 261.528 106.768C245.467 105.96 229.56 108.638 215.546 114.351C201.526 120.065 190.281 128.45 182.583 138.154C174.935 147.796 171.047 158.379 170.639 168.771C170.518 171.84 170.7 174.902 171.181 177.951C173.013 189.585 165.067 200.503 153.432 202.335C141.798 204.167 130.881 196.221 129.049 184.587C128.141 178.821 127.79 172.976 128.021 167.098C128.813 146.952 136.353 127.803 149.169 111.647C161.935 95.5543 179.437 83.0107 199.446 74.8544Z" fill="white"/>
</svg>
