<svg width="512" height="512" viewBox="0 0 512 512" fill="none" xmlns="http://www.w3.org/2000/svg">
<path d="M298.556 362.531C310.333 362.531 319.881 372.08 319.881 383.858C319.881 395.635 310.333 405.183 298.556 405.183H85.3018C73.5242 405.183 63.9768 395.635 63.9766 383.858C63.9766 372.08 73.5241 362.531 85.3018 362.531H298.556ZM426.508 277.231C438.285 277.231 447.834 286.778 447.834 298.556C447.834 310.333 438.285 319.881 426.508 319.881H85.3018C73.5242 319.881 63.9767 310.333 63.9766 298.556C63.9766 286.778 73.5241 277.231 85.3018 277.231H426.508ZM298.556 191.929C310.333 191.929 319.881 201.476 319.881 213.254C319.881 225.032 310.333 234.579 298.556 234.579H85.3018C73.5241 234.579 63.9766 225.032 63.9766 213.254C63.9766 201.476 73.5241 191.929 85.3018 191.929H298.556ZM426.508 106.627C438.285 106.627 447.834 116.175 447.834 127.952C447.834 139.73 438.285 149.278 426.508 149.278H85.3018C73.5241 149.278 63.9766 139.73 63.9766 127.952C63.9766 116.175 73.5241 106.627 85.3018 106.627H426.508Z" fill="white"/>
</svg>
