<svg width="512" height="512" viewBox="0 0 512 512" fill="none" xmlns="http://www.w3.org/2000/svg">
<path d="M426.508 362.531C438.285 362.531 447.834 372.08 447.834 383.858C447.834 395.635 438.285 405.183 426.508 405.183H213.254C201.476 405.183 191.929 395.635 191.929 383.858C191.929 372.08 201.476 362.532 213.254 362.531H426.508ZM426.508 277.231C438.285 277.231 447.834 286.778 447.834 298.556C447.834 310.333 438.285 319.881 426.508 319.881H85.3018C73.5242 319.881 63.9767 310.333 63.9766 298.556C63.9766 286.778 73.5241 277.231 85.3018 277.231H426.508ZM426.508 191.929C438.285 191.929 447.834 201.476 447.834 213.254C447.834 225.032 438.285 234.579 426.508 234.579H213.254C201.476 234.579 191.929 225.032 191.929 213.254C191.929 201.477 201.476 191.929 213.254 191.929H426.508ZM426.508 106.627C438.285 106.627 447.834 116.175 447.834 127.952C447.834 139.73 438.285 149.278 426.508 149.278H85.3018C73.5241 149.278 63.9766 139.73 63.9766 127.952C63.9766 116.175 73.5241 106.627 85.3018 106.627H426.508Z" fill="white"/>
</svg>
