<svg width="512" height="512" viewBox="0 0 512 512" fill="none" xmlns="http://www.w3.org/2000/svg">
<path d="M362.531 127.952H277.229V383.858H298.556C310.333 383.858 319.881 393.405 319.881 405.183C319.881 416.961 310.333 426.508 298.556 426.508H213.254C201.476 426.508 191.929 416.961 191.929 405.183C191.929 393.405 201.476 383.858 213.254 383.858H234.579V127.952H149.277C149.277 139.73 139.73 149.278 127.952 149.278C116.174 149.278 106.627 139.73 106.627 127.952V106.627C106.627 94.8496 116.174 85.3021 127.952 85.3021H383.857C395.635 85.3023 405.183 94.8497 405.183 106.627V127.952C405.183 139.73 395.635 149.277 383.857 149.278C372.08 149.278 362.531 139.73 362.531 127.952Z" fill="white"/>
</svg>
