<svg width="512" height="512" viewBox="0 0 512 512" fill="none" xmlns="http://www.w3.org/2000/svg">
<path d="M362.531 362.531C374.309 362.532 383.856 372.08 383.856 383.858C383.856 395.635 374.309 405.183 362.531 405.183H149.277C137.5 405.183 127.951 395.635 127.951 383.858C127.951 372.08 137.5 362.531 149.277 362.531H362.531ZM426.507 277.231C438.285 277.231 447.833 286.778 447.833 298.556C447.833 310.333 438.284 319.881 426.507 319.881H85.3008C73.5232 319.881 63.9757 310.333 63.9756 298.556C63.9756 286.778 73.5231 277.231 85.3008 277.231H426.507ZM362.531 191.929C374.309 191.929 383.856 201.477 383.856 213.254C383.856 225.032 374.309 234.579 362.531 234.579H149.277C137.5 234.579 127.951 225.032 127.951 213.254C127.951 201.476 137.5 191.929 149.277 191.929H362.531ZM426.507 106.627C438.285 106.627 447.833 116.175 447.833 127.952C447.833 139.73 438.285 149.278 426.507 149.278H85.3008C73.5231 149.278 63.9756 139.73 63.9756 127.952C63.9756 116.175 73.5231 106.627 85.3008 106.627H426.507Z" fill="white"/>
</svg>
