<svg width="512" height="512" viewBox="0 0 512 512" fill="none" xmlns="http://www.w3.org/2000/svg">
<path d="M319.882 426.509C331.66 426.509 341.207 436.056 341.207 447.834C341.207 459.612 331.659 469.159 319.882 469.159H191.93C180.152 469.159 170.604 459.612 170.604 447.834C170.604 436.056 180.152 426.509 191.93 426.509H319.882ZM362.537 191.929C362.537 133.041 314.795 85.3018 255.905 85.3018C197.017 85.3019 149.278 133.04 149.278 191.929C149.278 213.543 155.687 233.595 166.702 250.368C186.625 280.705 197.463 297.188 199.223 300.271C200.625 302.728 201.824 304.777 202.874 306.563C203.888 308.289 204.878 309.963 205.705 311.414C207.33 314.266 209.227 317.765 210.512 322.055C211.797 326.347 212.136 330.315 212.345 333.597C212.451 335.266 212.543 337.209 212.644 339.21C212.747 341.281 212.87 343.653 213.047 346.479C213.266 349.987 213.255 354.908 213.255 362.532H298.557L298.558 357.302C298.565 352.537 298.599 349.11 298.764 346.479C298.94 343.654 299.063 341.283 299.166 339.213C299.266 337.214 299.358 335.271 299.463 333.604C299.67 330.328 300.006 326.362 301.288 322.07C302.57 317.777 304.465 314.276 306.092 311.42C306.919 309.967 307.908 308.293 308.923 306.566C309.973 304.778 311.172 302.729 312.575 300.271C314.335 297.188 325.202 280.688 345.113 250.368C356.128 233.595 362.537 213.543 362.537 191.929ZM405.188 191.929C405.188 222.114 396.206 250.266 380.764 273.78C370.584 289.281 362.969 300.871 357.73 308.88C355.109 312.887 353.109 315.96 351.689 318.16C350.173 320.512 349.64 321.379 349.617 321.413C348.084 324.099 346.782 326.324 345.697 328.17C344.577 330.077 343.798 331.397 343.154 332.526C342.638 333.433 342.348 333.988 342.195 334.291C342.157 334.63 342.095 335.254 342.029 336.295C341.947 337.595 341.875 339.126 341.765 341.337C341.658 343.476 341.525 346.052 341.332 349.139C341.219 350.947 341.207 354.071 341.207 362.532C341.207 386.087 322.112 405.182 298.557 405.183H213.255C189.699 405.183 170.604 386.088 170.604 362.532C170.604 354.073 170.592 350.947 170.479 349.139C170.286 346.053 170.153 343.478 170.046 341.34C169.935 339.131 169.863 337.6 169.78 336.303C169.714 335.263 169.651 334.641 169.612 334.304C169.459 334 169.168 333.443 168.649 332.533C168.004 331.401 167.224 330.081 166.103 328.173C165.017 326.326 163.714 324.1 162.181 321.413C162.16 321.382 161.626 320.512 160.105 318.151C158.688 315.952 156.69 312.879 154.071 308.873C148.839 300.867 141.229 289.277 131.052 273.78C115.61 250.266 106.628 222.114 106.628 191.929C106.628 109.485 173.462 42.6515 255.905 42.6514C338.348 42.6514 405.187 109.484 405.188 191.929Z" fill="white"/>
</svg>
