<svg width="512" height="512" viewBox="0 0 512 512" fill="none" xmlns="http://www.w3.org/2000/svg">
<path d="M338.228 42.651C351.152 42.651 362.388 42.403 372.789 45.7829C381.406 48.5834 389.325 53.1803 396.03 59.2712C404.124 66.6248 409.484 76.5044 415.896 87.7253C420.456 95.7058 424.627 102.961 427.423 109.089C430.173 115.115 433.152 123.211 432.177 132.435C430.903 144.499 424.55 155.461 414.698 162.56C410.896 165.299 406.845 167.018 402.916 168.128C402.967 169.203 402.986 170.246 402.985 171.251C402.979 176.185 402.459 182.044 401.941 188.092L384.872 387.235C383.956 397.911 383.18 407.148 381.927 414.716C380.632 422.542 378.594 430.254 374.286 437.59V437.59C367.816 448.605 358.2 457.415 346.692 462.912C339.018 466.577 331.164 467.95 323.257 468.572C315.612 469.174 306.344 469.159 295.628 469.159H216.189C205.474 469.159 196.207 469.174 188.562 468.572C180.655 467.949 172.802 466.577 165.128 462.912C153.624 457.417 144.004 448.608 137.532 437.59C133.223 430.254 131.185 422.539 129.89 414.715C128.638 407.145 127.861 397.908 126.946 387.235L109.879 188.127C109.36 182.071 108.84 176.205 108.833 171.265C108.832 170.257 108.85 169.209 108.901 168.129C104.971 167.019 100.918 165.3 97.1157 162.56C87.2607 155.459 80.9124 144.497 79.6382 132.435C78.6641 123.215 81.6384 115.124 84.3882 109.097C87.1822 102.973 91.3504 95.7218 95.9087 87.7448L95.9204 87.7243C102.332 76.5037 107.692 66.6247 115.787 59.2712C122.495 53.1773 130.417 48.582 139.031 45.7829C149.432 42.403 160.666 42.651 173.59 42.651H338.228ZM169.441 383.592C170.413 394.934 171.053 402.22 171.968 407.752C172.841 413.028 173.723 414.993 174.307 415.988C176.454 419.644 179.658 422.585 183.51 424.425C184.555 424.925 186.587 425.634 191.91 426.053C197.494 426.493 204.802 426.508 216.189 426.508H295.628C307.015 426.508 314.325 426.493 319.911 426.053C325.233 425.634 327.265 424.924 328.31 424.425C332.159 422.587 335.361 419.647 337.51 415.988C338.095 414.991 338.977 413.026 339.849 407.754C340.764 402.223 341.404 394.938 342.376 383.592L346.009 341.207H165.808L169.441 383.592ZM165.124 170.603C158.309 170.603 154.526 170.621 151.812 170.85C151.698 170.86 151.59 170.872 151.489 170.882C151.488 170.985 151.485 171.095 151.485 171.212C151.488 173.931 151.793 177.697 152.374 184.484L158.497 255.905H353.321L359.446 184.45C360.027 177.669 360.331 173.912 360.334 171.2C360.335 171.088 360.331 170.982 360.33 170.882C360.228 170.872 360.12 170.86 360.006 170.85C357.29 170.621 353.505 170.603 346.689 170.603H165.124ZM173.59 85.3014C157.787 85.3014 154.662 85.5493 152.212 86.3454C149.337 87.2796 146.698 88.8118 144.465 90.8405C142.559 92.5724 140.791 95.164 132.951 108.885V108.886L132.94 108.906C127.967 117.609 124.984 122.871 123.191 126.801C123.083 127.039 122.984 127.26 122.894 127.466C123.113 127.49 123.349 127.516 123.603 127.539C127.896 127.931 133.933 127.953 143.943 127.953H367.865C377.874 127.953 383.913 127.931 388.208 127.539C388.463 127.515 388.7 127.491 388.92 127.466C388.83 127.258 388.731 127.034 388.622 126.795C386.826 122.86 383.84 117.591 378.865 108.885C371.024 95.1645 369.258 92.5724 367.351 90.8405C365.115 88.8088 362.478 87.2782 359.607 86.3454C357.157 85.5494 354.03 85.3014 338.228 85.3014H173.59Z" fill="white"/>
</svg>
