<svg width="512" height="512" viewBox="0 0 512 512" fill="none" xmlns="http://www.w3.org/2000/svg">
<path d="M362.531 191.928H106.626V277.225C106.626 347.523 163.318 404.589 233.47 405.182H235.688C305.839 404.589 362.531 347.523 362.531 277.225V191.928ZM172.854 54.4391C178.121 43.9048 190.931 39.6349 201.465 44.902C211.999 50.1692 216.269 62.9791 211.002 73.5133L189.677 116.164C184.41 126.698 171.6 130.968 161.065 125.701C150.531 120.434 146.261 107.625 151.528 97.0905L172.854 54.4391ZM236.83 54.4391C242.097 43.9049 254.907 39.6349 265.441 44.902C275.976 50.1692 280.245 62.9791 274.978 73.5133L253.652 116.164C248.385 126.698 235.576 130.968 225.042 125.701C214.508 120.434 210.238 107.625 215.505 97.0905L236.83 54.4391ZM300.807 54.4391C306.074 43.9051 318.883 39.6351 329.417 44.902C339.951 50.1692 344.221 62.9791 338.954 73.5133L317.629 116.164C312.362 126.698 299.552 130.968 289.018 125.701C278.484 120.434 274.214 107.625 279.48 97.0905L300.807 54.4391ZM405.182 277.23H415.845C433.511 277.23 447.833 262.908 447.833 245.242C447.833 227.576 433.511 213.254 415.845 213.254H405.182V277.23ZM490.483 245.242C490.483 286.464 457.067 319.881 415.845 319.882H399.805C391.173 353.414 372.602 382.956 347.421 405.182H383.856C395.634 405.182 405.182 414.731 405.182 426.508C405.181 438.286 395.634 447.834 383.856 447.834H235.729C235.345 447.836 234.961 447.839 234.578 447.839C234.195 447.839 233.812 447.836 233.429 447.834H85.3008C73.5232 447.834 63.9758 438.286 63.9756 426.508C63.9756 414.731 73.5231 405.182 85.3008 405.182H121.735C86.3159 373.919 63.9756 328.18 63.9756 277.225V190.284C63.9756 167.634 82.332 149.278 104.981 149.278H364.167C379.677 149.278 393.187 157.89 400.157 170.603H415.845C457.066 170.603 490.483 204.02 490.483 245.242Z" fill="white"/>
</svg>
