<svg width="512" height="512" viewBox="0 0 512 512" fill="none" xmlns="http://www.w3.org/2000/svg">
<path d="M255.928 42.6499C373.635 42.779 469.002 138.33 469.157 255.834V257.213C468.79 374.349 373.121 468.77 255.974 469.151C138.008 469.532 43.0329 373.398 42.6505 255.985C42.6295 249.54 45.5237 243.432 50.5245 239.367C55.5254 235.302 62.0963 233.717 68.4005 235.054C86.3812 238.868 104.359 234.889 117.656 224.025L117.724 223.97C132.017 212.389 140.249 194.959 140.112 176.606C140.112 176.57 140.112 176.533 140.111 176.497C140.101 172.149 139.712 167.817 138.947 163.534C137.587 155.919 140.457 148.164 146.447 143.269C152.438 138.375 160.609 137.108 167.8 139.959C182.854 145.928 199.909 143.985 213.245 134.792C228.781 123.955 237.962 106.204 237.823 87.3169C237.823 87.2811 237.822 87.2453 237.822 87.2095C237.809 81.3166 236.988 75.4526 235.384 69.7808C233.564 63.3472 234.867 56.4324 238.903 51.1021C242.94 45.7717 249.242 42.6426 255.928 42.6499ZM280.472 87.0913C280.685 120.036 264.653 150.948 237.621 169.792C237.599 169.807 237.575 169.823 237.553 169.838C221.161 181.171 201.765 186.663 182.377 185.962C179.974 213.656 166.44 239.36 144.641 257.053C127.85 270.772 107.585 277.948 86.9239 278.979C98.4182 362.323 169.63 426.779 255.835 426.5L258.044 426.479C351.417 424.999 426.809 349.12 426.507 255.973C426.507 255.958 426.507 255.942 426.507 255.927C426.412 170.233 362.998 99.1094 280.472 87.0913ZM213.295 341.206C225.073 341.206 234.62 350.753 234.62 362.531V362.574C234.62 368.318 232.303 373.819 228.193 377.832C224.083 381.844 218.528 384.03 212.785 383.893L212.743 383.892C201.168 383.615 191.928 374.152 191.928 362.573V362.531C191.928 350.753 201.476 341.206 213.253 341.206H213.295ZM319.922 298.554C331.7 298.554 341.247 308.103 341.247 319.88V319.922C341.247 325.667 338.93 331.168 334.82 335.181C330.71 339.194 325.155 341.379 319.412 341.242L319.37 341.241C307.795 340.964 298.555 331.5 298.555 319.921V319.88C298.555 308.103 308.103 298.554 319.881 298.554H319.922ZM234.62 234.579C246.398 234.579 255.946 244.126 255.946 255.904V255.947C255.946 261.691 253.628 267.192 249.519 271.205C245.409 275.218 239.853 277.404 234.11 277.266L234.068 277.265C222.493 276.988 213.253 267.524 213.253 255.946V255.904C213.253 244.126 222.802 234.579 234.579 234.579H234.62ZM341.247 191.927C353.025 191.927 362.573 201.475 362.573 213.252V213.295C362.573 219.04 360.256 224.541 356.146 228.554C352.036 232.567 346.48 234.752 340.737 234.615L340.695 234.614C329.12 234.337 319.881 224.873 319.881 213.294V213.252C319.881 201.475 329.429 191.927 341.206 191.927H341.247ZM64.0177 127.952C75.7952 127.952 85.3429 137.499 85.3429 149.277V149.32C85.3428 155.064 83.0251 160.565 78.9152 164.578C74.805 168.591 69.2496 170.776 63.5069 170.638L63.4659 170.637C51.8904 170.36 42.6508 160.898 42.6505 149.319V149.277C42.6505 137.499 52.198 127.952 63.9757 127.952H64.0177ZM85.3429 42.6499C97.1205 42.65 106.668 52.1975 106.668 63.9751V64.0181C106.668 69.7625 104.351 75.264 100.24 79.2769C96.1299 83.2898 90.574 85.4752 84.8312 85.3374L84.7892 85.3364C73.2144 85.0585 63.9759 75.5952 63.9757 64.0171V63.9751C63.9757 52.1975 73.5233 42.65 85.3009 42.6499H85.3429ZM170.645 42.6499C182.422 42.6501 191.97 52.1975 191.97 63.9751V64.0181C191.97 69.7624 189.652 75.264 185.542 79.2769C181.432 83.2898 175.876 85.4752 170.133 85.3374L170.091 85.3364C158.516 85.0586 149.278 75.5953 149.277 64.0171V63.9751C149.277 52.1974 158.825 42.6499 170.603 42.6499H170.645Z" fill="white"/>
</svg>
