<svg width="512" height="512" viewBox="0 0 512 512" fill="none" xmlns="http://www.w3.org/2000/svg">
<path d="M426.507 220.366C426.507 197.703 411.244 176.877 387.26 167.91C372.085 162.237 362.532 147.713 362.532 132.399C362.532 118.892 349.991 104.847 330.544 104.847C327.454 104.847 324.505 105.223 321.73 105.91C308.852 109.101 292.221 109.037 277.978 100.285C262.676 90.8828 244.102 85.3018 223.917 85.3018C169.132 85.3018 127.953 125.599 127.953 171.492C127.953 188.521 117.157 201.686 105.132 208.392C92.5883 215.387 85.3015 227.328 85.3014 239.914C85.3014 258.703 94.869 272.693 109.465 277.23H399.861C415.466 267.537 426.507 244.27 426.507 220.366ZM144.879 415.522L144.896 415.663C145.673 421.098 146.107 424.02 146.57 426.107C146.586 426.179 146.602 426.246 146.617 426.311C146.683 426.316 146.753 426.324 146.827 426.33C148.967 426.494 151.939 426.509 157.494 426.509H191.928V319.882H131.215L144.879 415.522ZM319.881 426.509H354.316C359.87 426.509 362.842 426.494 364.982 426.33C365.054 426.325 365.123 426.317 365.188 426.312C365.204 426.243 365.223 426.17 365.24 426.094C365.707 423.989 366.145 421.034 366.932 415.522L380.595 319.882H319.881V426.509ZM234.58 426.509H277.23V319.882H234.58V426.509ZM469.158 220.366C469.158 252.156 455.404 291.525 424.816 311.917L409.154 421.555C408.457 426.431 407.78 431.27 406.877 435.34C405.916 439.667 404.399 444.65 401.253 449.553C396.829 456.445 390.523 461.906 383.088 465.304C377.793 467.724 372.652 468.518 368.24 468.856C364.094 469.174 359.22 469.159 354.316 469.159H157.494C152.59 469.159 147.715 469.174 143.569 468.856C139.157 468.518 134.016 467.724 128.72 465.304C121.297 461.911 114.981 456.454 110.551 449.553C107.405 444.649 105.89 439.668 104.931 435.345C104.03 431.281 103.354 426.446 102.659 421.582C102.655 421.558 102.652 421.533 102.649 421.509L87.3434 314.366C57.6827 300.737 42.651 270.172 42.651 239.914C42.6511 210.014 60.0042 184.724 84.359 171.142C84.7122 170.945 84.9994 170.731 85.2144 170.536C85.249 170.505 85.2791 170.473 85.3082 170.444C85.9168 98.0906 149.505 42.6514 223.917 42.6514C252.009 42.6514 278.309 50.4293 300.307 63.9463C301.926 64.9406 305.917 65.8872 311.472 64.5107C317.588 62.9954 323.982 62.1963 330.544 62.1963C368.903 62.1963 403.247 90.3176 405.102 129.094C441.956 144.085 469.158 178.632 469.158 220.366Z" fill="white"/>
</svg>
