<svg width="512" height="512" viewBox="0 0 512 512" fill="none" xmlns="http://www.w3.org/2000/svg">
<path d="M298.555 42.6514C322.111 42.6514 341.207 61.7464 341.207 85.3018V170.604H426.508C450.063 170.604 469.159 189.699 469.159 213.254V298.556C469.159 322.111 450.064 341.207 426.508 341.207H341.207V426.509C341.206 450.064 322.111 469.159 298.555 469.159H213.254C189.698 469.159 170.603 450.064 170.603 426.509V341.207H85.3014C61.7461 341.207 42.651 322.111 42.651 298.556V213.254C42.6512 189.699 61.7462 170.604 85.3014 170.604H170.603V85.3018C170.603 61.7466 189.698 42.6516 213.254 42.6514H298.555ZM213.254 191.929C213.254 203.706 203.706 213.254 191.928 213.254H85.3014V298.556H191.928C203.706 298.556 213.254 308.104 213.254 319.882V426.509H298.555V319.882C298.555 314.226 300.802 308.801 304.801 304.802C308.801 300.802 314.226 298.556 319.881 298.556H426.508V213.254H319.881C314.226 213.254 308.801 211.008 304.801 207.009C300.802 203.01 298.555 197.585 298.555 191.929V85.3018H213.254V191.929Z" fill="white"/>
</svg>
