<svg width="512" height="512" viewBox="0 0 512 512" fill="none" xmlns="http://www.w3.org/2000/svg">
<path d="M255.907 63.9766C296.167 63.9766 333.523 76.3693 364.377 97.5459C385.267 94.5312 404.898 94.2117 421.733 97.6221C439.943 101.311 457.5 110.006 467.415 127.18C477.191 144.113 476.112 163.37 470.419 180.773C465.56 195.624 456.831 210.926 445.525 226.061C447.047 235.797 447.836 245.766 447.836 255.905C447.836 361.904 361.906 447.834 255.907 447.834C213.187 447.834 173.687 433.852 141.792 410.234C118.3 414.85 96.3337 416.406 77.5497 413.931C56.4484 411.15 35.4428 402.614 24.1747 383.098C12.5691 362.996 16.2028 339.8 24.9364 319.625C32.9728 301.061 46.6571 281.646 64.0897 262.501C64.0157 260.311 63.9784 258.113 63.9784 255.905C63.9784 149.906 149.908 63.9766 255.907 63.9766ZM404.431 270.993C375.855 297.53 339.851 323.957 299.11 347.479C265.176 367.07 231.204 382.774 199.345 394.098C216.784 401.243 235.877 405.183 255.907 405.183C333.258 405.183 396.867 346.351 404.431 270.993ZM74.3026 318.152C69.9385 324.734 66.5294 330.904 64.077 336.569C57.7376 351.214 59.2752 358.592 61.1112 361.772C62.8932 364.859 68.2116 369.68 83.1219 371.646C88.9714 372.416 95.7142 372.645 103.277 372.28C90.9051 356.075 81.0493 337.837 74.3026 318.152ZM255.907 106.627C173.463 106.627 106.63 173.461 106.63 255.905C106.63 298.387 124.356 336.712 152.874 363.921C189.962 354.143 233.481 336.12 277.784 310.542C329.915 280.444 372.283 246.15 399.536 215.072C381.781 152.475 324.176 106.627 255.907 106.627ZM407.774 138.542C415.708 148.795 422.628 159.872 428.382 171.625C428.946 170.213 429.447 168.841 429.882 167.511C433.403 156.749 432.033 151.198 430.478 148.505C428.903 145.777 424.679 141.736 413.266 139.424C411.54 139.074 409.708 138.78 407.774 138.542Z" fill="white"/>
</svg>
