<svg width="512" height="512" viewBox="0 0 512 512" fill="none" xmlns="http://www.w3.org/2000/svg">
<path d="M255.905 298.555C262.383 298.555 268.51 301.501 272.557 306.559L357.859 413.186C362.98 419.587 363.978 428.357 360.427 435.746C356.876 443.134 349.404 447.833 341.207 447.833H170.603C162.406 447.833 154.933 443.134 151.382 435.746C147.831 428.357 148.83 419.587 153.951 413.186L239.252 306.559L239.638 306.09C243.683 301.319 249.629 298.555 255.905 298.555ZM214.973 405.182H296.836L255.905 354.017L214.973 405.182ZM426.508 294.356V174.802C426.508 162.531 426.492 154.605 425.999 148.571C425.526 142.785 424.723 140.641 424.188 139.591C422.155 135.602 418.887 132.332 414.851 130.276C413.794 129.738 411.648 128.935 405.863 128.463C399.825 127.969 391.892 127.952 379.596 127.952H132.221C119.926 127.952 111.985 127.969 105.94 128.463C100.144 128.936 97.9942 129.739 96.941 130.276C92.9283 132.321 89.6701 135.579 87.6255 139.591C87.0889 140.645 86.2855 142.794 85.8121 148.59C85.3183 154.635 85.3013 162.577 85.3013 174.872V294.295C85.3013 306.59 85.3185 314.524 85.8121 320.561C86.285 326.347 87.0871 328.493 87.6255 329.549C89.6818 333.585 92.9514 336.854 96.941 338.886C97.9917 339.422 100.135 340.223 105.918 340.696C111.95 341.189 119.876 341.206 132.152 341.206H133.275C145.052 341.206 154.6 350.754 154.6 362.532C154.6 374.309 145.052 383.857 133.275 383.857H132.152C120.579 383.857 110.616 383.874 102.443 383.206C94.0208 382.517 85.6416 380.997 77.5777 376.888C65.5167 370.743 55.7454 360.928 49.6236 348.913C45.5134 340.846 43.9915 332.467 43.3023 324.037C42.6337 315.858 42.6509 305.886 42.6509 294.295V174.872C42.6509 163.28 42.6339 153.303 43.3023 145.119C43.9909 136.687 45.5116 128.299 49.6236 120.228C55.7572 108.19 65.5398 98.4077 77.5777 92.2741C85.648 88.1621 94.037 86.6415 102.468 85.9528C110.652 85.2844 120.63 85.3014 132.221 85.3014H379.596C391.187 85.3014 401.16 85.2842 409.338 85.9528C417.505 86.6204 425.624 88.0695 433.458 91.8962L434.214 92.2741L435.335 92.8591C446.839 99.0092 456.237 108.544 462.19 120.228C466.299 128.293 467.819 136.676 468.507 145.097C469.175 153.271 469.159 163.234 469.159 174.802V294.356C469.159 305.924 469.175 315.883 468.507 324.053C467.819 332.474 466.298 340.85 462.19 348.913C456.06 360.943 446.268 370.751 434.222 376.888C426.159 380.997 417.78 382.517 409.359 383.206C401.187 383.874 391.226 383.857 379.658 383.857H378.588C366.811 383.857 357.263 374.309 357.263 362.532C357.263 350.754 366.811 341.206 378.588 341.206H379.658C391.929 341.206 399.852 341.19 405.883 340.697C411.665 340.224 413.808 339.422 414.859 338.886C418.864 336.846 422.14 333.57 424.188 329.549C424.724 328.497 425.526 326.356 425.999 320.578C426.492 314.549 426.508 306.628 426.508 294.356Z" fill="white"/>
</svg>
