<svg width="512" height="512" viewBox="0 0 512 512" fill="none" xmlns="http://www.w3.org/2000/svg">
<path d="M245.091 130.899C251.603 127.067 259.657 126.967 266.262 130.637L458.19 237.264C464.96 241.025 469.159 248.161 469.159 255.905C469.159 263.65 464.96 270.786 458.19 274.547L266.262 381.174C259.657 384.843 251.603 384.744 245.091 380.912C238.579 377.08 234.58 370.088 234.58 362.532V292.148L74.333 381.174C67.7279 384.843 59.6744 384.744 53.1621 380.912C46.6498 377.08 42.6514 370.088 42.6514 362.532V149.278C42.6514 141.722 46.6498 134.73 53.1621 130.899C59.6744 127.067 67.7279 126.967 74.333 130.637L234.58 219.662V149.278C234.58 141.722 238.579 134.73 245.091 130.899ZM85.3018 326.289L211.993 255.905L85.3018 185.521V326.289ZM277.23 326.289L403.922 255.905L277.23 185.521V326.289Z" fill="white"/>
</svg>
