<svg width="512" height="512" viewBox="0 0 512 512" fill="none" xmlns="http://www.w3.org/2000/svg">
<path d="M149.277 309.217C149.277 298.297 149.171 295.927 148.864 294.384C147.182 285.93 140.576 279.322 132.111 277.639C130.57 277.332 128.221 277.229 117.29 277.229C106.359 277.229 104.007 277.332 102.467 277.639C93.9998 279.323 87.3921 285.932 85.7108 294.384C85.4044 295.924 85.3007 298.284 85.3007 309.217V351.867C85.3007 362.798 85.4044 365.15 85.7108 366.69C87.3945 375.155 94.0118 381.771 102.467 383.453C104.007 383.76 106.359 383.862 117.29 383.862C128.221 383.862 130.57 383.76 132.111 383.453C140.564 381.772 147.18 375.157 148.864 366.69C149.171 365.147 149.277 362.786 149.277 351.867V309.217ZM426.508 309.217C426.508 298.297 426.402 295.927 426.095 294.384C424.413 285.929 417.807 279.322 409.343 277.639C407.802 277.332 405.45 277.229 394.519 277.229C383.589 277.229 381.238 277.332 379.697 277.639C371.23 279.323 364.623 285.932 362.941 294.384C362.635 295.924 362.531 298.284 362.531 309.217V351.867C362.531 362.798 362.635 365.15 362.941 366.69C364.625 375.155 371.242 381.771 379.697 383.453C381.238 383.76 383.589 383.862 394.519 383.862C405.45 383.862 407.802 383.76 409.343 383.453C417.795 381.772 424.41 375.157 426.095 366.69L426.149 366.39C426.414 364.819 426.508 362.104 426.508 351.867V309.217ZM469.158 351.867C469.158 360.766 469.258 368.314 467.926 375.011C462.879 400.382 443.049 420.235 417.663 425.284C410.964 426.617 403.406 426.514 394.519 426.514C385.633 426.514 378.075 426.617 371.376 425.284C345.993 420.235 326.156 400.385 321.109 375.011C319.777 368.312 319.881 360.754 319.881 351.867V309.217C319.881 300.331 319.777 292.763 321.109 286.063C326.159 260.677 346.005 240.853 371.376 235.807C375.223 235.041 379.354 234.75 383.856 234.641C383.856 234.62 383.856 234.598 383.856 234.577C383.856 163.911 326.57 106.625 255.904 106.625C185.238 106.625 127.952 163.911 127.952 234.577C127.952 234.598 127.951 234.62 127.951 234.641C132.454 234.75 136.584 235.041 140.432 235.807C165.805 240.854 185.646 260.679 190.695 286.063C192.027 292.76 191.928 300.319 191.928 309.217V351.867C191.928 360.766 192.027 368.314 190.695 375.011C185.648 400.383 165.817 420.235 140.432 425.284C133.732 426.617 126.177 426.514 117.29 426.514C108.403 426.514 100.846 426.617 94.1464 425.284C68.763 420.235 48.927 400.385 43.8798 375.011C42.5473 368.312 42.6503 360.754 42.6503 351.867V309.217C42.6503 300.331 42.5472 292.763 43.8798 286.063C48.3466 263.607 64.3913 245.506 85.5966 238.133C85.4025 236.977 85.3007 235.788 85.3007 234.577C85.3009 140.356 161.683 63.9746 255.904 63.9746C350.126 63.9747 426.507 140.356 426.508 234.577C426.508 235.788 426.405 236.976 426.211 238.132C447.418 245.505 463.459 263.609 467.926 286.063C469.258 292.76 469.158 300.319 469.158 309.217V351.867Z" fill="white"/>
</svg>
