<svg width="512" height="512" viewBox="0 0 512 512" fill="none" xmlns="http://www.w3.org/2000/svg">
<path d="M426.509 132.152C426.509 119.88 426.492 111.954 425.999 105.92C425.527 100.135 424.724 97.9906 424.189 96.941C422.15 92.9404 418.887 89.6762 414.863 87.6255C413.807 87.0878 411.66 86.2852 405.869 85.8121C399.829 85.3185 391.892 85.3013 379.597 85.3013H132.222C119.927 85.3013 111.986 85.3183 105.941 85.8121C100.144 86.2855 97.995 87.0889 96.9417 87.6255C92.9291 89.6701 89.6708 92.9283 87.6263 96.941C87.0897 97.9942 86.2862 100.144 85.8128 105.94C85.3191 111.985 85.302 119.926 85.302 132.221V326.211L149.464 251.356C149.492 251.324 149.52 251.292 149.548 251.26C153.791 246.311 157.848 241.552 161.573 237.899C165.453 234.093 170.546 229.861 177.452 227.413C186.873 224.073 197.153 224.154 206.508 227.618C213.379 230.162 218.412 234.46 222.246 238.325C225.94 242.048 229.954 246.893 234.157 251.936L291.12 320.293C295.47 325.512 297.898 328.399 299.808 330.333C299.874 330.399 299.939 330.46 299.999 330.52C300.08 330.453 300.169 330.384 300.259 330.308C302.351 328.542 305.053 325.866 309.894 321.025L320.494 310.424C324.898 306.02 329.137 301.757 332.987 298.512C337.005 295.125 342.174 291.451 348.936 289.5L349.81 289.257C358.867 286.852 368.438 287.515 377.045 291.069C383.54 293.751 388.266 297.962 391.892 301.774C395.363 305.423 399.105 310.126 402.999 314.994L426.509 344.38V132.152ZM191.437 268.348C189.325 270.42 186.633 273.532 181.877 279.081C181.852 279.11 181.825 279.138 181.799 279.168L85.3343 391.71C85.389 398.218 85.5339 403.002 85.9017 406.871C86.3803 411.905 87.1244 413.867 87.6263 414.852C89.6826 418.888 92.9522 422.155 96.9417 424.188C97.9913 424.723 100.136 425.526 105.921 425.999C111.955 426.492 119.881 426.508 132.153 426.508H379.669C391.941 426.508 399.862 426.492 405.891 425.999C411.669 425.526 413.811 424.724 414.863 424.188C418.864 422.149 422.139 418.876 424.189 414.852C424.523 414.195 424.938 413.158 425.321 411.171L369.695 341.637C365.346 336.202 362.907 333.186 360.988 331.168C360.9 331.075 360.814 330.99 360.736 330.91C360.653 330.978 360.565 331.048 360.473 331.126C358.338 332.925 355.578 335.658 350.653 340.584L340.053 351.183C335.731 355.505 331.56 359.702 327.769 362.902C323.804 366.248 318.715 369.874 312.058 371.838C302.984 374.516 293.2 374.146 284.266 370.602C277.823 368.047 273.092 363.978 269.462 360.303C265.989 356.787 262.234 352.253 258.355 347.597L201.391 279.241C196.704 273.617 194.051 270.463 191.966 268.361C191.873 268.267 191.782 268.181 191.699 268.099C191.617 268.178 191.528 268.259 191.437 268.348ZM319.882 127.953C343.437 127.953 362.532 147.048 362.533 170.603C362.533 194.158 343.437 213.253 319.882 213.253C296.327 213.253 277.231 194.158 277.231 170.603C277.231 147.048 296.327 127.953 319.882 127.953ZM469.159 379.658C469.159 388.035 469.163 395.514 468.925 402.012C469.369 404.993 469.176 408.035 468.368 410.926C467.617 418.857 466.02 426.698 462.191 434.214C456.063 446.241 446.275 456.051 434.226 462.19C426.163 466.298 417.787 467.819 409.366 468.507C401.196 469.175 391.237 469.159 379.669 469.159H132.153C120.585 469.159 110.621 469.175 102.448 468.507C94.026 467.819 85.6434 466.299 77.5784 462.19C65.5175 456.045 55.7461 446.229 49.6243 434.214C45.7628 426.636 44.1919 418.799 43.4417 410.907C42.7151 403.263 42.6607 394.197 42.6526 383.876C42.6515 382.488 42.6517 381.06 42.6517 379.596V132.221C42.6517 120.63 42.6346 110.652 43.303 102.468C43.9917 94.037 45.5123 85.648 49.6243 77.5777C55.7579 65.5398 65.5405 55.7572 77.5784 49.6236C85.6487 45.5116 94.0377 43.9909 102.469 43.3023C110.653 42.6339 120.631 42.6509 132.222 42.6509H379.597C391.188 42.6509 401.163 42.6338 409.344 43.3023C417.774 43.9912 426.158 45.5127 434.226 49.6236C446.252 55.751 456.051 65.5278 462.191 77.5777C466.3 85.6427 467.82 94.0253 468.508 102.447C469.176 110.62 469.159 120.584 469.159 132.152V379.658Z" fill="white"/>
</svg>
