<svg width="512" height="512" viewBox="0 0 512 512" fill="none" xmlns="http://www.w3.org/2000/svg">
<path d="M385.747 85.3974C393.78 76.784 407.273 76.3127 415.887 84.3447C439.324 106.2 458.035 132.626 470.865 161.992C483.694 191.358 490.371 223.041 490.483 255.087C490.595 287.133 484.139 318.862 471.515 348.316C458.891 377.771 440.365 404.326 417.081 426.345C408.524 434.437 395.027 434.06 386.935 425.503C378.843 416.946 379.219 403.448 387.777 395.355C406.827 377.34 421.984 355.614 432.313 331.515C442.642 307.415 447.924 281.455 447.832 255.235C447.741 229.016 442.278 203.094 431.781 179.067C421.284 155.041 405.976 133.42 386.8 115.538C378.187 107.506 377.715 94.0111 385.747 85.3974ZM234.579 160.488C234.579 145.261 234.56 135.245 233.961 128.197C233.909 127.582 233.852 127.022 233.795 126.513C233.432 126.873 233.035 127.273 232.608 127.719C227.712 132.823 221.403 140.603 211.832 152.446L176.107 196.656C173.085 200.396 169.207 205.478 164.006 209.221C159.882 212.189 155.261 214.396 150.36 215.738C144.18 217.431 137.79 217.253 132.982 217.253H102.628C84.8151 217.253 81.0485 217.524 78.6117 218.329C72.2001 220.447 67.1703 225.478 65.0522 231.89C64.2473 234.326 63.976 238.093 63.976 255.905C63.976 273.719 64.2471 277.485 65.0522 279.922C67.1703 286.333 72.2001 291.363 78.6117 293.481C81.0485 294.286 84.8151 294.558 102.628 294.558H132.982C137.79 294.558 144.18 294.381 150.36 296.073C154.954 297.332 159.303 299.35 163.227 302.043L164.006 302.591L164.49 302.945C169.448 306.65 173.179 311.533 176.107 315.155L211.832 359.364C221.403 371.208 227.712 378.987 232.608 384.092C233.035 384.537 233.432 384.936 233.795 385.297C233.852 384.788 233.909 384.228 233.961 383.613C234.56 376.566 234.579 366.549 234.579 351.322V160.488ZM327.572 147.783C335.604 139.17 349.099 138.698 357.712 146.73C372.627 160.638 384.533 177.455 392.698 196.143C400.862 214.83 405.111 234.992 405.182 255.385C405.253 275.777 401.145 295.968 393.112 314.712C385.078 333.456 373.289 350.355 358.472 364.367C349.915 372.459 336.417 372.082 328.325 363.524C320.233 354.967 320.609 341.47 329.166 333.378C339.75 323.369 348.171 311.299 353.91 297.91C359.648 284.522 362.582 270.099 362.531 255.533C362.48 240.967 359.445 226.566 353.614 213.218C347.782 199.87 339.277 187.858 328.624 177.924C320.011 169.891 319.539 156.397 327.572 147.783ZM277.23 356.619C277.223 368.732 277.151 379.094 276.459 387.227C275.764 395.407 274.181 407.371 266.117 416.228C256.496 426.795 242.222 431.841 228.098 429.67C216.258 427.849 207.507 419.538 201.825 413.612C195.369 406.88 187.711 397.375 178.659 386.172L142.934 341.962C140.921 339.471 139.903 338.221 139.121 337.349C139.099 337.325 139.078 337.303 139.058 337.281C139.029 337.28 138.998 337.277 138.966 337.275C137.796 337.215 136.184 337.209 132.982 337.209H102.628C88.1893 337.209 75.8293 337.48 65.2338 333.979C45.9985 327.625 30.9086 312.536 24.5541 293.301C21.0538 282.705 21.3256 270.344 21.3256 255.905C21.3256 241.466 21.0539 229.106 24.5541 218.511C30.9086 199.275 45.9984 184.186 65.2338 177.831C75.8293 174.331 88.1893 174.603 102.628 174.603H132.982C136.184 174.603 137.796 174.596 138.966 174.536C138.998 174.534 139.029 174.531 139.058 174.529C139.078 174.508 139.099 174.486 139.121 174.463C139.903 173.591 140.921 172.341 142.934 169.85L178.659 125.64C187.711 114.437 195.369 104.93 201.825 98.1982C207.507 92.2729 216.259 83.962 228.098 82.1416C242.001 80.0039 256.049 84.8598 265.662 95.0908L266.117 95.582L266.49 96C274.23 104.813 275.775 116.533 276.459 124.585C277.151 132.717 277.223 143.079 277.23 155.191V356.619Z" fill="white"/>
</svg>
