<svg width="512" height="512" viewBox="0 0 512 512" fill="none" xmlns="http://www.w3.org/2000/svg">
<path d="M234.58 160.479C234.58 145.252 234.561 135.236 233.962 128.188C233.91 127.573 233.852 127.013 233.796 126.504C233.432 126.864 233.036 127.264 232.608 127.71C227.713 132.815 221.403 140.594 211.833 152.437L176.107 196.647C173.086 200.387 169.207 205.469 164.007 209.212C159.883 212.18 155.261 214.387 150.36 215.729C144.181 217.422 137.79 217.244 132.982 217.244H102.629C84.8157 217.244 81.0491 217.515 78.6123 218.32C72.2008 220.438 67.1709 225.468 65.0528 231.88C64.2477 234.317 63.9766 238.083 63.9766 255.896C63.9766 273.71 64.2477 277.476 65.0528 279.913C67.1709 286.324 72.2008 291.354 78.6123 293.472C81.0491 294.277 84.8157 294.549 102.629 294.549H132.982C137.79 294.549 144.181 294.371 150.36 296.063C154.955 297.322 159.304 299.341 163.228 302.034L164.007 302.581L164.49 302.936C169.449 306.641 173.18 311.523 176.107 315.145L211.833 359.355C221.403 371.199 227.713 378.978 232.608 384.083C233.036 384.528 233.432 384.927 233.796 385.288C233.852 384.779 233.91 384.219 233.962 383.604C234.561 376.557 234.58 366.54 234.58 351.313V160.479ZM383.857 319.873V277.221H341.207C329.429 277.221 319.882 267.674 319.882 255.896C319.882 244.119 329.429 234.571 341.207 234.571H383.857V191.92C383.858 180.142 393.406 170.595 405.184 170.595C416.961 170.595 426.509 180.142 426.509 191.92V234.571H469.159C480.937 234.571 490.484 244.119 490.484 255.896C490.484 267.674 480.937 277.221 469.159 277.221H426.509V319.873C426.509 331.65 416.961 341.198 405.184 341.198C393.406 341.198 383.858 331.65 383.857 319.873ZM277.23 356.61C277.223 368.723 277.151 379.085 276.46 387.217C275.765 395.397 274.182 407.362 266.117 416.22C256.496 426.786 242.223 431.833 228.099 429.661C216.259 427.841 207.507 419.529 201.825 413.603C195.369 406.871 187.712 397.365 178.659 386.162L142.935 341.953C140.922 339.462 139.903 338.212 139.121 337.34C139.1 337.316 139.078 337.294 139.059 337.272C139.029 337.271 138.999 337.268 138.967 337.266C137.797 337.206 136.185 337.199 132.982 337.199H102.629C88.1899 337.199 75.8299 337.471 65.2344 333.971C45.9991 327.616 30.9093 312.527 24.5547 293.292C21.0544 282.696 21.3262 270.336 21.3262 255.896C21.3262 241.457 21.0544 229.096 24.5547 218.501C30.9093 199.266 45.9992 184.177 65.2344 177.822C75.8299 174.322 88.1899 174.594 102.629 174.594H132.982C136.185 174.594 137.797 174.586 138.967 174.526C138.999 174.525 139.029 174.521 139.059 174.519C139.078 174.498 139.1 174.476 139.121 174.453C139.903 173.581 140.922 172.33 142.935 169.84L178.659 125.631C187.712 114.428 195.369 104.921 201.825 98.1893C207.507 92.2639 216.259 83.9521 228.099 82.1317C242.002 79.994 256.05 84.8508 265.662 95.0818L266.117 95.5731L266.49 95.991C274.231 104.804 275.775 116.524 276.46 124.576C277.151 132.708 277.223 143.07 277.23 155.182V356.61Z" fill="white"/>
</svg>
