<svg width="512" height="512" viewBox="0 0 512 512" fill="none" xmlns="http://www.w3.org/2000/svg">
<path d="M234.581 160.479C234.581 145.252 234.562 135.236 233.963 128.188C233.911 127.573 233.853 127.013 233.797 126.504C233.433 126.864 233.037 127.264 232.609 127.71C227.714 132.815 221.404 140.594 211.834 152.437L176.108 196.647C173.087 200.387 169.208 205.469 164.008 209.212C159.884 212.18 155.262 214.387 150.361 215.729C144.182 217.422 137.791 217.244 132.983 217.244H102.63C84.8167 217.244 81.0501 217.515 78.6133 218.32C72.2018 220.438 67.1719 225.468 65.0537 231.88C64.2487 234.317 63.9776 238.083 63.9776 255.896C63.9776 273.71 64.2487 277.476 65.0537 279.913C67.1719 286.324 72.2018 291.354 78.6133 293.472C81.0501 294.277 84.8167 294.549 102.63 294.549H132.983C137.791 294.549 144.182 294.371 150.361 296.063C154.956 297.322 159.305 299.341 163.229 302.034L164.008 302.581L164.491 302.936C169.45 306.641 173.181 311.523 176.108 315.145L211.834 359.355C221.404 371.199 227.714 378.978 232.609 384.083C233.037 384.528 233.433 384.927 233.797 385.288C233.853 384.779 233.911 384.219 233.963 383.604C234.562 376.557 234.581 366.54 234.581 351.313V160.479ZM469.16 234.571C480.938 234.571 490.485 244.119 490.485 255.896C490.485 267.674 480.938 277.221 469.16 277.221H341.208C329.43 277.221 319.883 267.674 319.883 255.896C319.883 244.119 329.43 234.571 341.208 234.571H469.16ZM277.231 356.61C277.224 368.723 277.152 379.085 276.461 387.217C275.766 395.397 274.183 407.362 266.118 416.22C256.497 426.786 242.224 431.833 228.1 429.661C216.26 427.841 207.508 419.529 201.826 413.603C195.37 406.871 187.713 397.365 178.66 386.162L142.936 341.953C140.923 339.462 139.904 338.212 139.122 337.34C139.101 337.316 139.079 337.294 139.06 337.272C139.03 337.271 139 337.268 138.968 337.266C137.798 337.206 136.186 337.199 132.983 337.199H102.63C88.1909 337.199 75.8309 337.471 65.2354 333.971C46.0001 327.616 30.9103 312.527 24.5557 293.292C21.0554 282.696 21.3272 270.336 21.3272 255.896C21.3272 241.457 21.0554 229.096 24.5557 218.501C30.9103 199.266 46.0001 184.177 65.2354 177.822C75.8309 174.322 88.1909 174.594 102.63 174.594H132.983C136.186 174.594 137.798 174.586 138.968 174.526C139 174.525 139.03 174.521 139.06 174.519C139.079 174.498 139.101 174.476 139.122 174.453C139.904 173.581 140.923 172.33 142.936 169.84L178.66 125.631C187.713 114.428 195.37 104.921 201.826 98.1893C207.508 92.2639 216.26 83.9521 228.1 82.1317C242.003 79.994 256.051 84.8508 265.663 95.0818L266.118 95.5731L266.491 95.991C274.232 104.804 275.776 116.524 276.461 124.576C277.152 132.708 277.224 143.07 277.231 155.182V356.61Z" fill="white"/>
</svg>
