<svg width="512" height="512" viewBox="0 0 512 512" fill="none" xmlns="http://www.w3.org/2000/svg">
<path d="M234.58 160.479C234.58 145.252 234.561 135.236 233.961 128.188C233.909 127.573 233.852 127.013 233.795 126.504C233.432 126.864 233.035 127.264 232.608 127.71C227.713 132.815 221.403 140.594 211.833 152.437L176.107 196.647C173.085 200.387 169.207 205.469 164.006 209.212C159.882 212.18 155.261 214.387 150.36 215.729C144.18 217.422 137.79 217.244 132.982 217.244H102.628C84.8152 217.244 81.0487 217.515 78.6118 218.32C72.2003 220.438 67.1704 225.468 65.0523 231.88C64.2473 234.317 63.9761 238.083 63.9761 255.896C63.9761 273.71 64.2473 277.476 65.0523 279.913C67.1704 286.324 72.2003 291.354 78.6118 293.472C81.0487 294.277 84.8152 294.549 102.628 294.549H132.982C137.79 294.549 144.18 294.371 150.36 296.063C154.954 297.322 159.303 299.341 163.227 302.034L164.006 302.581L164.49 302.936C169.448 306.641 173.18 311.523 176.107 315.145L211.833 359.355C221.403 371.199 227.713 378.978 232.608 384.083C233.035 384.528 233.432 384.927 233.795 385.288C233.852 384.779 233.909 384.219 233.961 383.604C234.561 376.557 234.58 366.54 234.58 351.313V160.479ZM334.353 163.37C342.385 154.756 355.88 154.286 364.494 162.318C377.277 174.239 387.483 188.653 394.481 204.671C401.479 220.688 405.121 237.97 405.182 255.45C405.243 272.929 401.721 290.236 394.835 306.303C387.95 322.368 377.845 336.853 365.145 348.863C356.588 356.955 343.09 356.579 334.998 348.021C326.905 339.464 327.283 325.966 335.84 317.874C344.307 309.867 351.044 300.21 355.634 289.5C360.225 278.789 362.572 267.251 362.532 255.598C362.491 243.945 360.063 232.424 355.398 221.746C350.733 211.067 343.928 201.458 335.406 193.511C326.792 185.478 326.321 171.984 334.353 163.37ZM277.23 356.61C277.223 368.723 277.151 379.085 276.46 387.217C275.764 395.397 274.181 407.362 266.117 416.22C256.496 426.786 242.223 431.833 228.098 429.661C216.259 427.841 207.507 419.529 201.825 413.603C195.369 406.871 187.712 397.365 178.659 386.162L142.934 341.953C140.921 339.462 139.903 338.212 139.121 337.34C139.099 337.316 139.078 337.294 139.058 337.272C139.029 337.271 138.998 337.268 138.966 337.266C137.797 337.206 136.184 337.199 132.982 337.199H102.628C88.1894 337.199 75.8294 337.471 65.2339 333.971C45.9987 327.616 30.9088 312.527 24.5542 293.292C21.0539 282.696 21.3257 270.336 21.3257 255.896C21.3257 241.457 21.0539 229.096 24.5542 218.501C30.9088 199.266 45.9987 184.177 65.2339 177.822C75.8294 174.322 88.1894 174.594 102.628 174.594H132.982C136.184 174.594 137.797 174.586 138.966 174.526C138.998 174.525 139.029 174.521 139.058 174.519C139.078 174.498 139.1 174.476 139.121 174.453C139.903 173.581 140.921 172.33 142.934 169.84L178.659 125.631C187.712 114.428 195.369 104.921 201.825 98.1893C207.507 92.2639 216.259 83.9521 228.098 82.1317C242.002 79.994 256.049 84.8508 265.662 95.0819L266.117 95.5731L266.49 95.991C274.23 104.804 275.775 116.524 276.46 124.576C277.151 132.708 277.223 143.07 277.23 155.182V356.61Z" fill="white"/>
</svg>
