<svg width="512" height="512" viewBox="0 0 512 512" fill="none" xmlns="http://www.w3.org/2000/svg">
<path d="M426.509 140.749C426.509 134.434 426.489 130.971 426.285 128.488C426.277 128.386 426.265 128.289 426.257 128.197C426.17 128.189 426.078 128.179 425.982 128.171C423.494 127.968 420.032 127.951 413.709 127.951H358.263C339.996 127.951 327.578 127.968 317.979 128.752C308.628 129.516 303.846 130.9 300.511 132.6C292.493 136.685 285.972 143.21 281.879 151.242C280.179 154.578 278.795 159.359 278.031 168.705C277.247 178.301 277.231 190.717 277.231 208.984V361.798C277.695 361.394 278.163 360.994 278.639 360.603C287.298 353.485 297.265 348.146 307.999 344.886C320.835 340.988 334.649 341.205 353.348 341.205H413.757C420.069 341.205 423.52 341.189 426 340.986C426.09 340.979 426.176 340.968 426.257 340.961C426.266 340.868 426.278 340.77 426.286 340.665C426.49 338.187 426.509 334.729 426.509 328.412V140.749ZM85.3019 328.412C85.3019 334.736 85.3186 338.193 85.5216 340.677C85.5298 340.777 85.5397 340.871 85.548 340.96C85.6318 340.968 85.7204 340.979 85.8136 340.986C88.292 341.189 91.7421 341.205 98.0538 341.205H158.464C177.165 341.205 190.956 340.988 203.792 344.886C214.498 348.137 224.506 353.466 233.189 360.603C233.659 360.989 234.121 361.384 234.58 361.783V208.984C234.58 190.718 234.562 178.303 233.777 168.707C233.013 159.361 231.628 154.58 229.928 151.242C225.838 143.215 219.311 136.688 211.288 132.6C207.953 130.901 203.171 129.516 193.82 128.752C184.221 127.968 171.802 127.951 153.535 127.951H98.089C91.7651 127.951 88.3066 127.968 85.8224 128.171C85.7258 128.179 85.6345 128.188 85.548 128.196C85.5398 128.284 85.5296 128.377 85.5216 128.476C85.3184 130.963 85.3019 134.426 85.3019 140.749V328.412ZM469.159 328.412C469.159 334.039 469.174 339.535 468.793 344.164C468.391 349.044 467.446 354.785 464.502 360.563C460.439 368.537 453.954 375.096 445.879 379.21C440.094 382.157 434.346 383.097 429.476 383.495C424.855 383.873 419.365 383.857 413.757 383.857H353.348C331.989 383.857 325.737 384.073 320.393 385.696C315.032 387.324 310.055 389.99 305.72 393.553C301.673 396.879 298.211 401.547 288.038 416.752L273.65 438.332C269.695 444.265 263.036 447.828 255.906 447.828C248.777 447.829 242.119 444.266 238.163 438.334L225.762 419.736L225.761 419.734C214.008 402.104 210.394 397.076 206.108 393.553C201.795 390.009 196.787 387.333 191.399 385.696C186.054 384.073 179.82 383.857 158.464 383.857H98.0538C92.4461 383.857 86.957 383.873 82.337 383.495C77.4659 383.097 71.7201 382.157 65.9366 379.21C57.8884 375.109 51.3773 368.565 47.2999 360.563C44.3519 354.777 43.4114 349.028 43.0128 344.152C42.6348 339.528 42.6515 334.032 42.6515 328.412V140.749C42.6515 135.129 42.6349 129.631 43.0128 125.004C43.4109 120.13 44.35 114.375 47.2999 108.586C51.389 100.561 57.9114 94.0384 65.9366 89.9493C71.723 87.001 77.4722 86.0608 82.3478 85.6622C86.9726 85.2842 92.4695 85.3009 98.089 85.3009H153.535C171.098 85.3009 185.554 85.2843 197.293 86.2433C209.28 87.2226 220.301 89.324 230.651 94.5978C240.285 99.5061 248.835 106.171 255.901 114.184C262.964 106.172 271.513 99.5073 281.149 94.5978C291.499 89.3242 302.519 87.2226 314.506 86.2433C326.245 85.2843 340.7 85.3009 358.263 85.3009H413.709C419.329 85.3009 424.828 85.2843 429.454 85.6622C434.176 86.0479 439.724 86.9415 445.329 89.6788L445.871 89.9493L446.62 90.34C454.313 94.4537 460.547 100.823 464.502 108.586C467.448 114.367 468.392 120.114 468.793 124.992C469.174 129.624 469.159 135.122 469.159 140.749V328.412Z" fill="white"/>
</svg>
