<svg width="512" height="512" viewBox="0 0 512 512" fill="none" xmlns="http://www.w3.org/2000/svg">
<path d="M362.533 405.182H154.61C141.714 405.182 130.957 414.341 128.487 426.508H349.781C356.092 426.508 359.547 426.492 362.03 426.289C362.118 426.282 362.201 426.271 362.28 426.264C362.289 426.171 362.301 426.073 362.31 425.968C362.514 423.488 362.533 420.029 362.533 413.712V405.182ZM383.858 98.0992C383.858 91.7837 383.84 88.3212 383.636 85.8385C383.627 85.7354 383.616 85.6382 383.607 85.5465C383.524 85.5388 383.435 85.5287 383.342 85.5211C380.853 85.3179 377.39 85.3014 371.067 85.3014H174.873C162.578 85.3014 154.637 85.3184 148.592 85.8121C142.795 86.2856 140.646 87.089 139.593 87.6256C135.58 89.6701 132.322 92.9284 130.277 96.941C129.741 97.9943 128.937 100.144 128.464 105.94C127.97 111.985 127.953 119.926 127.953 132.221V367.844C136.159 364.422 145.164 362.532 154.61 362.532H371.106C377.418 362.532 380.872 362.515 383.355 362.312C383.443 362.305 383.527 362.295 383.606 362.288C383.615 362.195 383.627 362.096 383.636 361.992C383.84 359.513 383.858 356.055 383.858 349.739V98.0992ZM426.509 349.739C426.509 355.366 426.524 360.861 426.143 365.491C425.741 370.371 424.796 376.111 421.853 381.888C418.13 389.194 412.37 395.328 405.184 399.476V413.712C405.184 419.34 405.198 424.836 404.817 429.466C404.416 434.346 403.471 440.088 400.526 445.867C396.471 453.826 390.003 460.39 381.912 464.512C376.125 467.461 370.372 468.4 365.503 468.797C360.881 469.175 355.389 469.159 349.781 469.159H122.622C102.011 469.159 85.3028 452.45 85.3028 431.839C85.3028 428.333 85.565 424.888 86.0674 421.522C85.5702 419.716 85.3028 417.814 85.3028 415.849V132.221C85.3028 120.63 85.2857 110.652 85.9541 102.468C86.6428 94.037 88.1634 85.6481 92.2754 77.5777C98.409 65.5398 108.192 55.7573 120.23 49.6236C128.3 45.5116 136.689 43.991 145.12 43.3024C153.304 42.6339 163.282 42.651 174.873 42.651H371.067C376.688 42.651 382.186 42.6345 386.814 43.0123C391.535 43.3979 397.085 44.291 402.691 47.0289L403.233 47.2994L403.985 47.692C411.701 51.8187 417.911 58.1994 421.853 65.9361C424.798 71.717 425.741 77.4641 426.143 82.3424C426.524 86.974 426.509 92.4717 426.509 98.0992V349.739Z" fill="white"/>
</svg>
