<svg width="512" height="512" viewBox="0 0 512 512" fill="none" xmlns="http://www.w3.org/2000/svg">
<path d="M42.6514 358.267V106.627C42.6514 94.8497 52.1989 85.3022 63.9766 85.3022C75.7543 85.3022 85.3018 94.8497 85.3018 106.627V274.355L132.5 235.024L132.656 234.895C139.825 228.921 146.03 223.739 151.476 219.806C157.123 215.728 163.13 212.105 170.253 209.881C184.569 205.412 199.985 206.122 213.824 211.863C220.722 214.724 226.382 218.879 231.646 223.459C236.742 227.894 242.49 233.659 249.143 240.312L249.28 240.45C256.459 247.629 261.081 252.233 264.866 255.521C268.486 258.665 270.194 259.564 271.119 259.941C275.797 261.847 281.038 262.022 285.886 260.414C286.851 260.093 288.632 259.302 292.475 256.39C296.492 253.346 301.443 249.034 309.129 242.308L433.79 133.229C442.654 125.473 456.126 126.372 463.882 135.236C471.637 144.099 470.74 157.572 461.876 165.328L337.215 274.406C329.972 280.744 323.724 286.224 318.231 290.385C312.565 294.679 306.524 298.504 299.314 300.896C284.876 305.685 269.167 305.2 255.028 299.44C248.003 296.578 242.242 292.364 236.898 287.721C231.718 283.222 225.878 277.365 219.121 270.608L218.983 270.47C211.914 263.4 207.369 258.872 203.648 255.634C200.093 252.542 198.409 251.643 197.481 251.258C192.859 249.341 187.724 249.108 182.962 250.594C182.01 250.892 180.255 251.632 176.444 254.384C172.454 257.266 167.531 261.352 159.872 267.735C159.826 267.773 159.778 267.81 159.731 267.848L85.3018 329.875V358.267C85.3018 370.562 85.3189 378.499 85.8125 384.539C86.2857 390.328 87.0882 392.475 87.626 393.531C89.6801 397.562 92.9475 400.829 96.9414 402.864C97.9912 403.399 100.136 404.201 105.921 404.673C111.955 405.166 119.881 405.183 132.152 405.183H447.838C459.616 405.183 469.163 414.731 469.163 426.508C469.163 438.286 459.616 447.833 447.838 447.833H132.152C120.584 447.833 110.621 447.85 102.447 447.182C94.0258 446.494 85.6431 444.975 77.5782 440.866C65.5216 434.723 55.7482 424.913 49.6241 412.894C45.5133 404.826 43.9918 396.444 43.3028 388.013C42.6342 379.833 42.6514 369.858 42.6514 358.267Z" fill="white"/>
</svg>
