<svg width="512" height="512" viewBox="0 0 512 512" fill="none" xmlns="http://www.w3.org/2000/svg">
<path d="M255.904 42.6504C373.681 42.6504 469.158 138.127 469.158 255.904C469.158 373.681 373.681 469.158 255.904 469.158C138.127 469.158 42.6504 373.681 42.6504 255.904C42.6504 138.127 138.127 42.6504 255.904 42.6504ZM386.385 365.817C407.102 341.249 421.006 310.75 425.186 277.229H304.611L386.385 365.817ZM277.229 234.579H425.186C415.563 157.409 354.4 96.2461 277.229 86.623V234.579ZM85.3008 255.904C85.3008 350.126 161.683 426.508 255.904 426.508C292.88 426.508 327.107 414.741 355.05 394.753L240.234 270.369C236.598 266.43 234.579 261.265 234.579 255.904V86.623C150.422 97.1172 85.3008 168.905 85.3008 255.904Z" fill="white"/>
</svg>
