<svg width="512" height="512" viewBox="0 0 512 512" fill="none" xmlns="http://www.w3.org/2000/svg">
<path d="M405.182 153.477C405.182 141.205 405.166 133.279 404.673 127.245C404.2 121.46 403.398 119.316 402.863 118.266C400.83 114.276 397.562 111.007 393.526 108.95C392.469 108.412 390.323 107.61 384.538 107.137C378.5 106.643 370.567 106.626 358.271 106.626H153.547C141.252 106.626 133.31 106.643 127.265 107.137C121.469 107.61 119.32 108.414 118.266 108.95C114.254 110.995 110.996 114.253 108.951 118.266C108.414 119.319 107.611 121.468 107.137 127.265C106.644 133.31 106.627 141.251 106.627 153.546V358.271C106.627 370.566 106.644 378.503 107.137 384.543C107.611 390.334 108.413 392.481 108.951 393.536C111.002 397.561 114.266 400.824 118.266 402.863C119.316 403.397 121.461 404.199 127.246 404.672C133.28 405.165 141.206 405.182 153.477 405.182H358.333C370.605 405.182 378.526 405.165 384.554 404.672C390.332 404.2 392.474 403.399 393.526 402.863C397.55 400.812 400.824 397.538 402.863 393.536C403.399 392.484 404.2 390.342 404.673 384.564C405.166 378.535 405.182 370.614 405.182 358.342V153.477ZM298.555 226.051C298.555 219.735 298.537 216.273 298.333 213.79C298.324 213.688 298.313 213.591 298.304 213.499C298.218 213.491 298.127 213.481 298.03 213.473C295.54 213.27 292.075 213.253 285.752 213.253H226.041C219.717 213.253 216.258 213.27 213.774 213.473C213.678 213.481 213.586 213.49 213.5 213.498C213.492 213.586 213.481 213.68 213.473 213.779C213.27 216.266 213.254 219.728 213.254 226.051V285.762C213.254 292.086 213.27 295.543 213.473 298.027C213.482 298.126 213.492 298.221 213.5 298.31C213.584 298.318 213.672 298.329 213.765 298.336C216.244 298.539 219.694 298.555 226.006 298.555H285.783C292.094 298.555 295.552 298.538 298.038 298.335C298.132 298.328 298.22 298.317 298.304 298.309C298.313 298.217 298.324 298.119 298.333 298.015C298.537 295.536 298.555 292.078 298.555 285.762V226.051ZM341.207 285.762C341.207 291.389 341.221 296.885 340.84 301.514C340.438 306.394 339.493 312.135 336.55 317.912C332.483 325.893 325.992 332.448 317.923 336.56C312.133 339.51 306.376 340.448 301.509 340.845C296.885 341.223 291.392 341.206 285.783 341.206H226.006C220.398 341.206 214.909 341.223 210.289 340.845C205.418 340.447 199.672 339.507 193.888 336.56C185.84 332.459 179.329 325.914 175.252 317.912C172.304 312.127 171.363 306.378 170.965 301.502C170.587 296.878 170.603 291.381 170.603 285.762V226.051C170.603 220.431 170.587 214.933 170.965 210.306C171.363 205.432 172.302 199.677 175.252 193.888C179.341 185.863 185.863 179.34 193.888 175.251C199.675 172.303 205.424 171.363 210.3 170.964C214.924 170.586 220.421 170.603 226.041 170.603H285.752C291.372 170.603 296.872 170.586 301.5 170.964C306.373 171.362 312.131 172.3 317.923 175.251C325.969 179.351 332.471 185.884 336.55 193.888C339.495 199.669 340.438 205.416 340.84 210.294C341.221 214.926 341.207 220.424 341.207 226.051V285.762ZM447.834 358.342C447.834 369.91 447.85 379.87 447.182 388.04C446.494 396.461 444.973 404.836 440.865 412.899C434.726 424.948 424.916 434.737 412.889 440.865C404.827 444.973 396.451 446.493 388.03 447.182C379.86 447.85 369.901 447.833 358.333 447.833H153.477C141.909 447.833 131.946 447.85 123.772 447.182C115.351 446.494 106.968 444.974 98.9031 440.865C86.8532 434.725 77.0765 424.925 70.949 412.899C66.8382 404.831 65.3167 396.447 64.6277 388.017C63.9592 379.836 63.9764 369.862 63.9764 358.271V153.546C63.9764 141.955 63.9593 131.977 64.6277 123.793C65.3164 115.362 66.837 106.973 70.949 98.9026C77.0826 86.8647 86.8652 77.0821 98.9031 70.9485C106.973 66.8365 115.362 65.3159 123.794 64.6272C131.977 63.9588 141.955 63.9759 153.547 63.9759H358.271C369.862 63.9759 379.835 63.9587 388.013 64.6272C396.443 65.3164 404.823 66.8384 412.889 70.9485C424.904 77.0704 434.72 86.8417 440.865 98.9026C444.974 106.968 446.494 115.35 447.182 123.772C447.85 131.945 447.834 141.909 447.834 153.477V358.342Z" fill="white"/>
</svg>
