<svg width="512" height="512" viewBox="0 0 512 512" fill="none" xmlns="http://www.w3.org/2000/svg">
<path d="M28.6338 241.897C36.9618 233.57 50.464 233.57 58.792 241.897L164.348 347.453C172.676 355.781 172.676 369.284 164.348 377.612C156.02 385.94 142.516 385.94 134.188 377.612L28.6338 272.057C20.3057 263.729 20.3057 250.226 28.6338 241.897ZM465.964 120.192C474.292 111.865 487.794 111.865 496.122 120.193C504.45 128.522 504.449 142.025 496.121 150.353L269.912 376.54C261.584 384.867 248.082 384.867 239.754 376.539L134.198 270.984C125.87 262.656 125.87 249.153 134.198 240.825C142.526 232.497 156.029 232.497 164.357 240.825L254.833 331.302L465.964 120.192ZM360.376 121.266C368.704 112.938 382.207 112.938 390.535 121.266C398.863 129.594 398.863 143.096 390.535 151.424L277.44 264.52C269.112 272.848 255.609 272.848 247.281 264.52C238.953 256.191 238.953 242.688 247.281 234.36L360.376 121.266Z" fill="white"/>
</svg>
