<svg width="512" height="512" viewBox="0 0 512 512" fill="none" xmlns="http://www.w3.org/2000/svg">
<path d="M170.604 341.207H127.954C104.399 341.207 85.3028 360.302 85.3027 383.857C85.3027 407.412 104.399 426.508 127.954 426.508C151.509 426.508 170.604 407.412 170.604 383.857V341.207ZM426.51 383.857C426.51 360.302 407.414 341.207 383.858 341.207H341.208V383.857C341.208 407.412 360.303 426.508 383.858 426.508C407.414 426.508 426.51 407.412 426.51 383.857ZM213.255 298.555H298.557V213.253H213.255V298.555ZM170.604 127.953C170.604 104.397 151.509 85.3015 127.954 85.3013C104.399 85.3013 85.3027 104.397 85.3027 127.953C85.3029 151.508 104.399 170.603 127.954 170.603H170.604V127.953ZM426.51 127.953C426.51 104.397 407.414 85.3013 383.858 85.3013C360.303 85.3014 341.208 104.397 341.208 127.953V170.603H383.858C407.414 170.603 426.51 151.508 426.51 127.953ZM469.16 127.953C469.16 175.063 430.969 213.253 383.858 213.253H341.208V298.555H383.858C430.969 298.555 469.16 336.746 469.16 383.857C469.16 430.968 430.969 469.159 383.858 469.159C336.748 469.159 298.557 430.968 298.557 383.857V341.207H213.255V383.857C213.255 430.968 175.065 469.159 127.954 469.159C80.8433 469.159 42.6523 430.968 42.6523 383.857C42.6524 336.746 80.8434 298.555 127.954 298.555H170.604V213.253H127.954C80.8434 213.253 42.6525 175.063 42.6523 127.953C42.6523 80.8419 80.8433 42.6509 127.954 42.6509C175.065 42.6511 213.255 80.842 213.255 127.953V170.603H298.557V127.953C298.557 80.8419 336.748 42.651 383.858 42.6509C430.969 42.6509 469.16 80.8419 469.16 127.953Z" fill="white"/>
</svg>
