<svg width="512" height="512" viewBox="0 0 512 512" fill="none" xmlns="http://www.w3.org/2000/svg">
<path d="M319.878 238.777C319.878 226.506 319.861 218.581 319.368 212.547C318.895 206.761 318.092 204.617 317.558 203.567C315.525 199.578 312.257 196.309 308.222 194.253C307.165 193.715 305.019 192.912 299.234 192.439C293.197 191.946 285.263 191.929 272.968 191.929H238.848C226.553 191.929 218.611 191.946 212.566 192.439C206.77 192.913 204.62 193.716 203.567 194.253C199.555 196.297 196.297 199.555 194.253 203.567C193.716 204.62 192.913 206.77 192.439 212.566C191.946 218.611 191.929 226.553 191.929 238.848V272.968C191.929 285.262 191.946 293.199 192.439 299.239C192.913 305.03 193.715 307.177 194.253 308.232C196.304 312.257 199.567 315.519 203.567 317.558C204.617 318.092 206.761 318.895 212.547 319.368C218.581 319.861 226.506 319.878 238.777 319.878H273.029C285.301 319.878 293.221 319.861 299.25 319.368C305.028 318.896 307.17 318.094 308.222 317.558C312.245 315.508 315.519 312.234 317.558 308.232C318.094 307.181 318.896 305.039 319.368 299.261C319.861 293.232 319.878 285.312 319.878 273.04V238.777ZM362.528 273.04C362.528 284.607 362.545 294.567 361.877 302.736C361.188 311.157 359.669 319.533 355.561 327.596C349.421 339.644 339.612 349.433 327.585 355.561C319.523 359.669 311.147 361.188 302.727 361.877C294.557 362.545 284.597 362.528 273.029 362.528H238.777C227.209 362.528 217.247 362.545 209.073 361.877C200.652 361.189 192.269 359.67 184.204 355.561C172.155 349.421 162.378 339.621 156.251 327.596C152.14 319.528 150.619 311.144 149.93 302.714C149.261 294.534 149.278 284.559 149.278 272.968V238.848C149.278 227.256 149.261 217.278 149.93 209.095C150.618 200.664 152.139 192.274 156.251 184.204C162.385 172.167 172.167 162.385 184.204 156.251C192.274 152.139 200.664 150.618 209.095 149.93C217.278 149.261 227.256 149.278 238.848 149.278H272.968C284.558 149.278 294.531 149.261 302.709 149.93C311.139 150.619 319.518 152.141 327.585 156.251C339.6 162.373 349.415 172.143 355.561 184.204C359.67 192.269 361.189 200.652 361.877 209.073C362.545 217.247 362.528 227.209 362.528 238.777V273.04Z" fill="white"/>
</svg>
