<svg width="512" height="512" viewBox="0 0 512 512" fill="none" xmlns="http://www.w3.org/2000/svg">
<path d="M362.533 196.128C362.533 183.857 362.517 175.931 362.023 169.897C361.551 164.112 360.749 161.967 360.214 160.918C358.181 156.928 354.913 153.658 350.877 151.602C349.82 151.064 347.674 150.262 341.889 149.789C335.851 149.295 327.917 149.278 315.622 149.278H196.199C183.904 149.278 175.963 149.295 169.918 149.789C164.122 150.262 161.972 151.065 160.919 151.602C156.906 153.647 153.648 156.905 151.604 160.918C151.067 161.971 150.264 164.12 149.79 169.917C149.296 175.961 149.279 183.903 149.279 196.198V315.621C149.279 327.916 149.296 335.853 149.79 341.893C150.263 347.684 151.066 349.831 151.604 350.886C153.654 354.911 156.918 358.174 160.919 360.212C161.969 360.747 164.113 361.549 169.898 362.022C175.932 362.515 183.858 362.532 196.13 362.532H315.684C327.956 362.532 335.877 362.516 341.905 362.023C347.683 361.551 349.825 360.748 350.877 360.212C354.901 358.162 358.175 354.888 360.214 350.886C360.75 349.834 361.552 347.693 362.024 341.915C362.517 335.886 362.533 327.965 362.533 315.693V196.128ZM405.185 315.693C405.185 327.261 405.201 337.22 404.533 345.39C403.845 353.811 402.324 362.187 398.216 370.25C392.077 382.298 382.267 392.086 370.24 398.214C362.178 402.322 353.802 403.843 345.381 404.532C337.211 405.2 327.251 405.183 315.684 405.183H196.13C184.562 405.183 174.598 405.2 166.425 404.532C158.003 403.844 149.621 402.324 141.556 398.214C129.506 392.075 119.729 382.275 113.602 370.25C109.491 362.181 107.969 353.797 107.28 345.367C106.612 337.186 106.629 327.212 106.629 315.621V196.198C106.629 184.606 106.612 174.629 107.28 166.445C107.969 158.014 109.49 149.625 113.602 141.554C119.735 129.516 129.518 119.734 141.556 113.6C149.626 109.488 158.015 107.968 166.446 107.279C174.63 106.61 184.608 106.627 196.199 106.627H315.622C327.213 106.627 337.186 106.61 345.364 107.279C353.794 107.968 362.174 109.49 370.24 113.6C382.255 119.722 392.07 129.493 398.216 141.554C402.325 149.619 403.845 158.002 404.533 166.423C405.201 174.597 405.185 184.56 405.185 196.128V315.693Z" fill="white"/>
</svg>
