<svg width="512" height="512" viewBox="0 0 512 512" fill="none" xmlns="http://www.w3.org/2000/svg">
<path d="M85.3018 336.945V174.873C85.3018 163.281 85.2847 153.303 85.9532 145.119C86.6418 136.688 88.1624 128.299 92.2745 120.228C98.4081 108.191 108.191 98.4079 120.229 92.2743C128.299 88.1623 136.688 86.6426 145.119 85.954C153.303 85.2856 163.281 85.3016 174.872 85.3016H213.258C225.035 85.3016 234.584 94.8492 234.584 106.627C234.584 118.405 225.036 127.952 213.258 127.952H174.872C162.577 127.952 154.636 127.969 148.591 128.463C142.794 128.936 140.645 129.741 139.592 130.277C135.579 132.322 132.321 135.579 130.276 139.592C129.74 140.645 128.936 142.794 128.463 148.591C127.969 154.636 127.952 162.578 127.952 174.873V336.945C127.952 349.241 127.969 357.178 128.463 363.219C128.936 369.009 129.739 371.156 130.276 372.212C132.327 376.236 135.591 379.5 139.592 381.538C140.642 382.073 142.786 382.875 148.571 383.348C154.605 383.841 162.531 383.857 174.803 383.857H337.007C349.279 383.857 357.2 383.84 363.229 383.348C369.007 382.875 371.149 382.074 372.201 381.538C376.218 379.491 379.495 376.213 381.537 372.205C382.073 371.154 382.875 369.011 383.348 363.231C383.841 357.201 383.857 349.279 383.857 337.008V298.556C383.858 286.778 393.405 277.23 405.183 277.23C416.96 277.23 426.508 286.778 426.508 298.556V337.008C426.508 348.576 426.525 358.536 425.856 366.707C425.168 375.128 423.648 383.505 419.54 391.568C413.404 403.611 403.597 413.409 391.564 419.54C383.501 423.648 375.125 425.168 366.705 425.856C358.535 426.524 348.575 426.508 337.007 426.508H174.803C163.235 426.508 153.271 426.524 145.098 425.856C136.676 425.168 128.294 423.649 120.229 419.54C108.179 413.4 98.4019 403.6 92.2745 391.574C88.1636 383.506 86.6421 375.123 85.9532 366.692C85.2846 358.512 85.3018 348.536 85.3018 336.945ZM447.833 191.929C447.833 203.706 438.286 213.254 426.508 213.254C414.73 213.254 405.183 203.706 405.183 191.929V136.785L292.31 249.659C283.982 257.987 270.478 257.987 262.15 249.659C253.822 241.331 253.822 227.828 262.15 219.5L375.024 106.627H319.881C308.103 106.627 298.556 97.0793 298.556 85.3016C298.556 73.524 308.103 63.9765 319.881 63.9764H426.508C438.286 63.9764 447.833 73.5239 447.833 85.3016V191.929Z" fill="white"/>
</svg>
