<svg width="512" height="512" viewBox="0 0 512 512" fill="none" xmlns="http://www.w3.org/2000/svg">
<path d="M63.9767 119.424C63.9767 113.804 63.9602 108.306 64.338 103.68C64.7362 98.8055 65.6754 93.051 68.6252 87.2616L69.0158 86.5136C73.1235 78.831 79.4874 72.5862 87.2619 68.6249C93.0482 65.6766 98.7974 64.7364 103.673 64.3378C108.217 63.9664 113.603 63.9751 119.119 63.9755L91.548 36.4042C83.2201 28.0762 83.2201 14.5741 91.548 6.24601C99.8761 -2.08204 113.378 -2.08197 121.706 6.24601L420.262 304.802C428.59 313.13 428.59 326.632 420.262 334.96C411.934 343.288 398.432 343.288 390.104 334.96L330.545 275.401L323.632 282.315C323.606 282.341 323.578 282.367 323.552 282.392C321.616 284.328 320.652 285.3 319.98 286.037C319.965 286.053 319.951 286.07 319.937 286.085C319.935 286.109 319.934 286.134 319.933 286.16C319.886 287.173 319.881 288.567 319.881 291.36V384.092C319.881 390.201 320.159 398.352 317.55 405.917C315.468 411.953 312.07 417.372 307.691 421.843C302.099 427.552 294.735 430.937 289.229 433.69L272.169 442.221C264.363 446.124 257.204 449.725 251.158 452.085C245.141 454.433 237.211 456.83 228.339 455.519C216.732 453.805 206.352 447.387 199.629 437.775C194.486 430.422 193.087 422.25 192.499 415.821C191.908 409.36 191.929 401.346 191.929 392.622V291.201C191.929 288.461 191.923 287.102 191.878 286.115C191.878 286.107 191.877 286.099 191.876 286.091C191.858 286.07 191.839 286.048 191.819 286.025C191.139 285.28 190.16 284.294 188.184 282.318L80.2189 174.353C77.2517 171.386 73.2079 167.536 70.2638 162.731C67.9343 158.93 66.2042 154.773 65.1554 150.405C63.8399 144.926 63.9767 139.347 63.9767 135.146V119.424ZM405.183 119.424C405.183 113.108 405.164 109.646 404.96 107.163C404.952 107.06 404.94 106.963 404.932 106.872C404.848 106.864 404.761 106.854 404.668 106.847C402.176 106.643 398.711 106.627 392.388 106.627H277.231C265.453 106.627 255.906 97.0792 255.905 85.3017C255.905 73.524 265.453 63.9755 277.231 63.9755H392.388C398.008 63.9755 403.508 63.9591 408.137 64.3368C412.857 64.722 418.411 65.6146 424.02 68.3534L424.563 68.6249L425.315 69.0175C433.038 73.1486 439.239 79.5333 443.177 87.2616C446.122 93.0423 447.066 98.7887 447.467 103.667C447.848 108.298 447.834 113.796 447.834 119.424L447.835 138.629C447.812 142.175 447.643 146.316 446.661 150.405C445.6 154.826 443.844 158.977 441.543 162.731C438.602 167.53 434.584 171.363 431.594 174.353L398.937 207.011C390.609 215.338 377.106 215.338 368.778 207.011C360.45 198.683 360.45 185.18 368.778 176.851L401.436 144.194C403.405 142.225 404.386 141.235 405.065 140.49C405.089 140.464 405.11 140.437 405.131 140.413C405.131 140.407 405.133 140.4 405.133 140.393C405.178 139.406 405.183 138.046 405.183 135.306V119.424ZM106.627 135.146C106.627 137.94 106.633 139.335 106.679 140.349C106.68 140.373 106.682 140.397 106.683 140.42C106.7 140.439 106.718 140.46 106.736 140.48C107.421 141.23 108.403 142.22 110.377 144.194L218.343 252.159C221.223 255.04 225.093 258.728 228.008 263.323L228.287 263.77L228.712 264.479C230.806 268.048 232.413 271.962 233.407 276.104L233.526 276.616C234.708 281.902 234.579 287.226 234.579 291.202V392.622C234.579 402.178 234.601 407.878 234.972 411.935C234.993 412.168 235.015 412.384 235.037 412.586C235.228 412.515 235.432 412.439 235.651 412.353C239.443 410.873 244.551 408.344 253.095 404.072L270.155 395.542C273.797 393.721 275.671 392.772 276.979 392.011C277.028 391.982 277.072 391.952 277.115 391.927C277.118 391.887 277.123 391.846 277.126 391.803C277.221 390.28 277.231 388.175 277.231 384.092V291.36C277.231 287.159 277.094 281.584 278.409 276.104L278.613 275.29C279.674 271.228 281.328 267.346 283.518 263.773L283.796 263.326C286.707 258.738 290.579 255.049 293.434 252.194L293.494 252.135L300.387 245.243L161.696 106.553C161.115 106.6 160.527 106.627 159.933 106.627H119.414C113.09 106.627 109.632 106.644 107.148 106.847C107.051 106.854 106.96 106.864 106.873 106.872C106.865 106.96 106.855 107.053 106.847 107.151C106.644 109.639 106.627 113.101 106.627 119.424V135.146Z" fill="white"/>
</svg>
