<svg width="512" height="512" viewBox="0 0 512 512" fill="none" xmlns="http://www.w3.org/2000/svg">
<path d="M277.231 384.091V291.359C277.231 287.158 277.094 281.583 278.409 276.104L278.612 275.29C279.671 271.233 281.325 267.348 283.518 263.77L283.796 263.324C286.703 258.743 290.565 255.062 293.4 252.227C293.452 252.174 293.507 252.124 293.56 252.072L401.438 144.194C403.402 142.23 404.383 141.24 405.057 140.499C405.084 140.469 405.107 140.44 405.131 140.413C405.131 140.407 405.133 140.399 405.133 140.393C405.156 139.899 405.168 139.312 405.175 138.506L405.183 135.305V119.424C405.183 113.108 405.164 109.646 404.96 107.163C404.952 107.061 404.94 106.964 404.932 106.872C404.845 106.864 404.754 106.854 404.657 106.846C402.167 106.643 398.702 106.626 392.379 106.626H119.414C113.09 106.626 109.632 106.643 107.148 106.846C107.051 106.854 106.96 106.863 106.873 106.871C106.865 106.959 106.855 107.052 106.847 107.151C106.644 109.638 106.627 113.101 106.627 119.424V135.146C106.627 137.939 106.633 139.334 106.679 140.348C106.68 140.373 106.682 140.397 106.683 140.42C106.7 140.439 106.718 140.46 106.736 140.481C107.421 141.23 108.403 142.221 110.377 144.194L218.343 252.159C221.223 255.04 225.093 258.728 228.008 263.322L228.287 263.77L228.712 264.48C230.806 268.048 232.413 271.962 233.407 276.104C234.716 281.556 234.579 287.097 234.579 291.201V392.621C234.579 402.177 234.601 407.877 234.972 411.935C234.993 412.167 235.015 412.384 235.037 412.585C235.228 412.514 235.432 412.438 235.651 412.353C239.443 410.872 244.551 408.344 253.095 404.072L270.155 395.542C273.797 393.721 275.671 392.771 276.979 392.01C277.028 391.981 277.072 391.952 277.115 391.926C277.118 391.887 277.123 391.846 277.126 391.803C277.221 390.28 277.231 388.175 277.231 384.091ZM447.834 135.305C447.834 139.409 447.97 144.952 446.661 150.404C445.596 154.84 443.834 158.99 441.541 162.732C438.604 167.525 434.606 171.343 431.597 174.353L323.632 282.317C323.583 282.366 323.531 282.413 323.482 282.461C321.582 284.361 320.633 285.319 319.971 286.045C319.959 286.058 319.949 286.07 319.938 286.082C319.936 286.107 319.934 286.132 319.933 286.159C319.886 287.172 319.881 288.566 319.881 291.359V384.091C319.881 390.2 320.159 398.351 317.55 405.916C315.468 411.952 312.07 417.372 307.691 421.843C302.099 427.552 294.735 430.936 289.229 433.69L272.169 442.22C264.363 446.123 257.204 449.724 251.158 452.084C245.141 454.433 237.211 456.83 228.339 455.52C216.731 453.805 206.352 447.387 199.629 437.775C194.486 430.421 193.087 422.25 192.499 415.821C191.908 409.36 191.929 401.346 191.929 392.621V291.2C191.929 288.46 191.923 287.101 191.878 286.114C191.878 286.106 191.877 286.098 191.876 286.09C191.858 286.069 191.839 286.047 191.819 286.025C191.139 285.279 190.16 284.293 188.184 282.317L80.2189 174.353C77.2518 171.386 73.2079 167.536 70.2638 162.732C67.9342 158.93 66.2042 154.773 65.1554 150.404C63.8399 144.925 63.9767 139.346 63.9767 135.146V119.424C63.9767 113.804 63.9601 108.305 64.338 103.679C64.7362 98.8046 65.6753 93.0503 68.6252 87.2609C72.7142 79.2356 79.2366 72.7132 87.2619 68.6241C93.0482 65.6758 98.7974 64.7356 103.673 64.337C108.298 63.959 113.795 63.9757 119.414 63.9757H392.379C397.999 63.9757 403.499 63.9592 408.127 64.337C412.848 64.7224 418.399 65.6153 424.007 68.3536L424.55 68.6241L425.3 69.0157C433 73.1338 439.226 79.5068 443.177 87.2609C446.122 93.0417 447.066 98.7888 447.467 103.667C447.848 108.299 447.834 113.796 447.834 119.424V135.305Z" fill="white"/>
</svg>
