<svg width="512" height="512" viewBox="0 0 512 512" fill="none" xmlns="http://www.w3.org/2000/svg">
<path d="M426.508 319.881H277.23V405.182H379.658C391.93 405.182 399.851 405.166 405.88 404.673C411.658 404.201 413.8 403.399 414.852 402.863C418.876 400.813 422.149 397.538 424.188 393.537C424.724 392.485 425.526 390.343 425.999 384.565C426.492 378.536 426.508 370.615 426.508 358.343V319.881ZM426.508 238.779C426.508 226.507 426.492 218.581 425.999 212.547C425.526 206.762 424.723 204.618 424.188 203.568C422.155 199.578 418.888 196.309 414.852 194.252C413.795 193.714 411.649 192.912 405.863 192.439C399.826 191.945 391.892 191.928 379.596 191.928H277.23V277.23H426.508V238.779ZM85.3014 358.271C85.3014 370.566 85.3185 378.503 85.8121 384.543C86.2853 390.334 87.0879 392.481 87.6256 393.537C89.6763 397.561 92.9405 400.824 96.9411 402.863C97.9907 403.398 100.135 404.201 105.921 404.673C111.954 405.166 119.881 405.182 132.152 405.182H234.58V319.881H85.3014V358.271ZM85.3014 277.23H234.58V191.928H132.221C119.926 191.928 111.985 191.945 105.94 192.439C100.144 192.912 97.9943 193.716 96.9411 194.252C92.9284 196.297 89.6702 199.555 87.6256 203.568C87.089 204.621 86.2856 206.77 85.8121 212.567C85.3184 218.612 85.3014 226.553 85.3014 238.848V277.23ZM234.58 117.29C234.58 99.6231 220.258 85.3013 202.591 85.3013C184.925 85.3013 170.603 99.623 170.603 117.29C170.603 134.956 184.925 149.278 202.591 149.278H234.58V117.29ZM277.23 149.278H309.218C326.885 149.278 341.207 134.956 341.207 117.29C341.207 99.623 326.885 85.3013 309.218 85.3013C291.552 85.3013 277.23 99.623 277.23 117.29V149.278ZM383.857 117.29C383.857 128.737 381.278 139.582 376.672 149.278H379.596C391.187 149.278 401.16 149.261 409.339 149.929C417.768 150.618 426.148 152.14 434.214 156.25C446.229 162.372 456.045 172.144 462.19 184.205L462.568 184.961C466.394 192.793 467.841 200.915 468.507 209.074C469.175 217.247 469.159 227.211 469.159 238.779V358.343C469.159 369.911 469.176 379.87 468.507 388.041C467.819 396.461 466.298 404.837 462.19 412.9C456.051 424.949 446.241 434.737 434.214 440.865C426.152 444.973 417.776 446.494 409.356 447.182C401.186 447.85 391.226 447.833 379.658 447.833H132.152C120.584 447.833 110.621 447.85 102.447 447.182C94.0254 446.494 85.6428 444.974 77.5778 440.865C65.5278 434.725 55.7511 424.926 49.6237 412.9C45.5128 404.832 43.9914 396.448 43.3024 388.018C42.6339 379.837 42.651 369.862 42.651 358.271V238.848C42.651 227.257 42.634 217.279 43.3024 209.095C43.991 200.664 45.5116 192.275 49.6237 184.205C55.7573 172.167 65.5399 162.384 77.5778 156.25C85.6481 152.138 94.0371 150.618 102.468 149.929C110.652 149.261 120.63 149.278 132.221 149.278H135.136C130.531 139.583 127.953 128.737 127.953 117.29C127.953 76.0676 161.37 42.6509 202.591 42.6509C223.476 42.6509 242.358 51.2285 255.905 65.0532C269.452 51.2285 288.333 42.6509 309.218 42.6509C350.44 42.6509 383.857 76.0677 383.857 117.29Z" fill="white"/>
</svg>
