<svg width="512" height="512" viewBox="0 0 512 512" fill="none" xmlns="http://www.w3.org/2000/svg">
<path d="M255.905 63.9761C307.508 63.9762 350.548 100.633 360.408 149.328C365.052 149.387 369.299 149.516 373.126 149.805C380.558 150.368 387.929 151.607 395.229 154.882C406.244 159.824 415.633 167.78 422.315 177.829C426.746 184.491 429.181 191.56 430.958 198.799C432.671 205.778 434.079 214.304 435.715 224.118L455.579 343.309C455.598 343.411 455.619 343.513 455.636 343.616C457.847 356.885 459.75 368.189 460.483 377.48C461.232 386.97 460.998 396.616 457.463 406.134C452.256 420.154 442.304 431.908 429.326 439.352C420.512 444.408 411.026 446.224 401.531 447.046C392.233 447.851 380.752 447.833 367.274 447.833H144.529C131.052 447.833 119.576 447.852 110.283 447.046C100.789 446.224 91.3121 444.406 82.5009 439.352C69.5387 431.917 59.5622 420.171 54.3486 406.134C50.8123 396.613 50.5779 386.965 51.3271 377.47C52.0606 368.174 53.9652 356.864 56.1786 343.583C56.1827 343.559 56.1872 343.535 56.1913 343.511L76.0898 224.118C77.7263 214.299 79.1358 205.774 80.8525 198.792C82.633 191.551 85.0709 184.486 89.498 177.829C96.1769 167.785 105.559 159.826 116.579 154.882C123.88 151.607 131.254 150.367 138.686 149.805C142.512 149.516 146.759 149.387 151.401 149.328C161.261 100.633 204.302 63.9761 255.905 63.9761ZM164.439 191.928C153.85 191.928 147.088 191.942 141.903 192.334C136.987 192.706 135.064 193.335 134.036 193.796C130.373 195.44 127.245 198.089 125.013 201.446C124.385 202.39 123.446 204.19 122.269 208.976C121.029 214.022 119.9 220.69 118.16 231.129L98.2568 350.551C98.2543 350.566 98.2515 350.581 98.2489 350.596L97.4111 355.634C95.548 366.885 94.3306 374.679 93.8456 380.826C93.3071 387.651 93.9116 390.158 94.33 391.285C96.0608 395.944 99.3835 399.867 103.722 402.355C104.767 402.955 107.142 403.964 113.965 404.555C120.988 405.164 130.293 405.182 144.529 405.182H367.274C381.511 405.182 390.823 405.164 397.852 404.555C404.684 403.964 407.061 402.953 408.104 402.355C412.427 399.876 415.743 395.962 417.48 391.285C417.898 390.16 418.503 387.655 417.965 380.834C417.414 373.849 415.916 364.735 413.599 350.831C413.582 350.737 413.563 350.645 413.548 350.551L393.643 231.129C391.903 220.685 390.778 214.017 389.538 208.968C388.362 204.18 387.425 202.385 386.801 201.446C384.572 198.094 381.441 195.442 377.772 193.796C376.744 193.335 374.822 192.706 369.908 192.334C364.726 191.942 357.966 191.928 347.377 191.928H164.439ZM255.905 106.626C228.049 106.626 204.352 124.429 195.569 149.278H316.24C307.458 124.43 283.761 106.627 255.905 106.626Z" fill="white"/>
</svg>
