<svg width="512" height="512" viewBox="0 0 512 512" fill="none" xmlns="http://www.w3.org/2000/svg">
<path d="M263.556 126.894C304.031 76.3004 379.508 72.1195 425.323 117.934C466.355 158.966 467.926 224.991 428.892 267.928L271.673 440.855C267.631 445.301 261.902 447.835 255.894 447.835C249.886 447.834 244.156 445.3 240.115 440.854L82.9172 267.927C43.8832 224.99 45.4558 158.965 86.4876 117.933C132.303 72.1176 207.757 76.3052 248.231 126.894L255.897 136.473L263.556 126.894ZM395.164 148.092C367.325 120.253 321.456 122.794 296.861 153.538L272.561 183.93C268.515 188.99 262.389 191.936 255.91 191.938C249.432 191.94 243.303 188.996 239.255 183.938L214.931 153.544L214.928 153.541C190.331 122.795 144.484 120.254 116.646 148.091C91.7121 173.025 90.7568 213.147 114.476 239.238L255.895 394.806L397.333 239.238C421.052 213.147 420.098 173.026 395.164 148.092Z" fill="white"/>
</svg>
