<svg width="512" height="512" viewBox="0 0 512 512" fill="none" xmlns="http://www.w3.org/2000/svg">
<path d="M309.248 106.627C319.846 106.627 329.036 106.455 337.838 108.823C345.058 110.766 351.902 113.96 358.041 118.28C365.488 123.521 371.254 130.686 378.061 138.854L427.82 198.565C434.094 206.093 439.554 212.626 443.671 218.397C447.945 224.387 451.666 230.752 453.832 238.345C457.105 249.816 457.105 261.987 453.832 273.459C451.667 281.049 447.947 287.414 443.674 293.408C439.556 299.183 434.097 305.717 427.82 313.249L378.061 372.96C371.239 381.146 365.483 388.284 358.041 393.522C351.909 397.837 345.066 401.037 337.838 402.982C329.039 405.349 319.857 405.183 309.248 405.183H153.478C141.909 405.183 131.946 405.199 123.773 404.531C115.351 403.843 106.968 402.323 98.9034 398.214C86.8535 392.074 77.0767 382.275 70.9493 370.249C66.8383 362.181 65.3169 353.797 64.628 345.366C63.9595 337.186 63.9766 327.211 63.9766 315.62V196.197C63.9766 184.606 63.9596 174.628 64.628 166.444C65.3166 158.013 66.8373 149.624 70.9493 141.554C77.0829 129.516 86.8655 119.733 98.9034 113.6C106.974 109.488 115.363 107.967 123.794 107.278C131.978 106.61 141.955 106.627 153.547 106.627H309.248ZM106.627 315.62C106.627 327.915 106.644 335.852 107.138 341.893C107.611 347.683 108.414 349.831 108.951 350.886C111.002 354.911 114.266 358.174 118.267 360.212C119.316 360.747 121.461 361.549 127.246 362.022C133.28 362.515 141.206 362.531 153.478 362.531H309.248C322.136 362.531 324.669 362.358 326.757 361.796C329.175 361.145 331.457 360.076 333.494 358.643C335.272 357.392 337.075 355.52 345.296 345.655L395.055 285.944C401.729 277.935 405.977 272.813 408.946 268.648C411.76 264.701 412.508 262.842 412.817 261.758C413.908 257.934 413.908 253.869 412.817 250.045C412.509 248.964 411.763 247.109 408.949 243.165C405.979 239.001 401.732 233.882 395.055 225.869L345.296 166.157C337.06 156.275 335.267 154.408 333.494 153.16C331.464 151.732 329.183 150.663 326.757 150.01C324.672 149.449 322.148 149.277 309.248 149.277H153.547C141.252 149.277 133.31 149.294 127.266 149.788C121.469 150.262 119.32 151.065 118.267 151.602C114.254 153.646 110.996 156.904 108.951 160.917C108.415 161.97 107.611 164.12 107.138 169.916C106.644 175.961 106.627 183.902 106.627 196.197V315.62Z" fill="white"/>
</svg>
