<svg width="512" height="512" viewBox="0 0 512 512" fill="none" xmlns="http://www.w3.org/2000/svg">
<path d="M42.6514 255.905C42.6514 206.262 76.5771 164.543 122.509 152.667L70.2227 100.381C61.8947 92.0527 61.8947 78.5506 70.2227 70.2226C78.5507 61.8945 92.0528 61.8946 100.381 70.2226L441.588 411.429C449.916 419.757 449.916 433.26 441.588 441.588C433.26 449.916 419.757 449.916 411.429 441.588L247.072 277.23H170.604C158.826 277.23 149.278 267.683 149.278 255.905C149.278 244.128 158.826 234.579 170.604 234.579H204.421L161.771 191.929H149.278C113.945 191.929 85.3018 220.572 85.3018 255.905C85.3019 291.238 113.945 319.881 149.278 319.881H191.929C203.706 319.881 213.254 329.429 213.254 341.207C213.254 352.984 203.706 362.532 191.929 362.532H149.278C90.39 362.532 42.6515 314.794 42.6514 255.905ZM426.509 255.905C426.509 220.572 397.865 191.929 362.532 191.929H319.882C308.104 191.929 298.556 182.381 298.556 170.603C298.556 158.826 308.104 149.278 319.882 149.278H362.532C421.421 149.278 469.159 197.017 469.159 255.905C469.159 287.759 455.158 316.366 433.061 335.87C424.23 343.664 410.754 342.823 402.96 333.993C395.166 325.163 396.007 311.686 404.837 303.893C418.157 292.136 426.509 275.006 426.509 255.905Z" fill="white"/>
</svg>
