<svg width="512" height="512" viewBox="0 0 512 512" fill="none" xmlns="http://www.w3.org/2000/svg">
<path d="M135.283 225.749C143.611 217.421 157.114 217.421 165.442 225.749C173.77 234.077 173.77 247.58 165.442 255.908L135.283 286.067C110.296 311.054 110.292 351.565 135.273 376.546C160.254 401.527 200.778 401.524 225.765 376.537L255.885 346.388C264.209 338.056 277.712 338.05 286.044 346.374C294.375 354.698 294.382 368.201 286.058 376.533L255.932 406.688L255.925 406.696C214.288 448.333 146.759 448.349 105.115 406.705C63.4715 365.062 63.4876 297.545 105.125 255.908L135.283 225.749ZM301.147 180.516C309.475 172.188 322.978 172.188 331.306 180.516C339.634 188.844 339.634 202.346 331.306 210.674L210.672 331.309C202.344 339.637 188.842 339.637 180.514 331.309C172.185 322.981 172.185 309.479 180.514 301.151L301.147 180.516ZM255.905 105.107C297.548 63.4645 365.054 63.4742 406.692 105.113C448.332 146.752 448.329 214.262 406.693 255.902L376.552 286.06C368.226 294.39 354.723 294.394 346.392 286.068C338.062 277.742 338.06 264.239 346.386 255.909L376.528 225.751L376.531 225.747C401.516 200.763 401.517 160.255 376.533 135.271C351.547 110.285 311.046 110.283 286.063 135.265L255.905 165.424C247.577 173.752 234.074 173.752 225.746 165.424C217.418 157.096 217.418 143.593 225.746 135.265L255.905 105.107Z" fill="white"/>
</svg>
