<svg width="512" height="512" viewBox="0 0 512 512" fill="none" xmlns="http://www.w3.org/2000/svg">
<path d="M149.278 362.532V319.881C149.278 308.104 158.826 298.555 170.603 298.555C182.381 298.555 191.928 308.104 191.928 319.881V362.532C191.929 397.865 220.572 426.508 255.905 426.508C291.238 426.508 319.881 397.865 319.881 362.532V319.881C319.881 308.104 329.429 298.555 341.207 298.555C352.984 298.555 362.532 308.104 362.532 319.881V362.532C362.532 421.42 314.793 469.159 255.905 469.159C197.017 469.159 149.278 421.42 149.278 362.532ZM234.58 341.207V170.603C234.58 158.825 244.127 149.278 255.905 149.278C267.683 149.278 277.23 158.825 277.23 170.603V341.207C277.23 352.984 267.683 362.532 255.905 362.532C244.127 362.532 234.58 352.984 234.58 341.207ZM319.881 191.928V149.278C319.881 113.945 291.238 85.3014 255.905 85.3013C220.572 85.3013 191.928 113.945 191.928 149.278V191.928C191.928 203.706 182.381 213.253 170.603 213.253C158.826 213.253 149.278 203.706 149.278 191.928V149.278C149.278 90.3894 197.017 42.6509 255.905 42.6509C314.793 42.651 362.532 90.3894 362.532 149.278V191.928C362.532 203.706 352.984 213.253 341.207 213.253C329.429 213.253 319.881 203.706 319.881 191.928Z" fill="white"/>
</svg>
