<svg width="512" height="512" viewBox="0 0 512 512" fill="none" xmlns="http://www.w3.org/2000/svg">
<path d="M405.183 260.104C405.183 247.833 405.166 239.907 404.673 233.873C404.2 228.087 403.398 225.943 402.864 224.894C400.831 220.904 397.562 217.635 393.527 215.579C392.47 215.041 390.324 214.238 384.538 213.765C378.501 213.271 370.567 213.254 358.272 213.254H153.547C141.252 213.254 133.311 213.271 127.266 213.765C121.469 214.238 119.32 215.042 118.267 215.579C114.254 217.624 110.996 220.881 108.951 224.894C108.415 225.947 107.611 228.096 107.138 233.893C106.644 239.937 106.627 247.88 106.627 260.175V379.597C106.627 391.892 106.644 399.829 107.138 405.869C107.611 411.659 108.414 413.807 108.951 414.862C111.002 418.887 114.266 422.15 118.267 424.188C119.316 424.723 121.461 425.526 127.246 425.999C133.28 426.492 141.206 426.509 153.478 426.509H358.333C370.605 426.509 378.526 426.492 384.555 425.999C390.333 425.527 392.475 424.724 393.527 424.188L393.902 423.993C397.754 421.933 400.888 418.739 402.864 414.862C403.4 413.81 404.201 411.668 404.673 405.891C405.166 399.862 405.183 391.941 405.183 379.669V260.104ZM298.556 127.953C298.556 104.398 279.461 85.3019 255.906 85.3018C232.35 85.3018 213.254 104.398 213.254 127.953V170.604H298.556V127.953ZM341.207 170.604H358.272C369.863 170.604 379.836 170.587 388.014 171.256C396.444 171.945 404.823 173.466 412.89 177.576C424.905 183.698 434.72 193.469 440.866 205.53C444.975 213.595 446.495 221.978 447.183 230.399C447.851 238.573 447.834 248.536 447.834 260.104V379.669C447.834 391.237 447.851 401.196 447.183 409.366C446.494 417.787 444.974 426.163 440.866 434.226C434.726 446.274 424.917 456.062 412.89 462.19C404.827 466.299 396.451 467.819 388.031 468.508C379.861 469.176 369.901 469.159 358.333 469.159H153.478C141.91 469.159 131.947 469.176 123.773 468.508C115.351 467.82 106.969 466.3 98.9036 462.19C86.8536 456.051 77.0769 446.251 70.9495 434.226C66.8386 426.157 65.3172 417.774 64.6282 409.344C63.9597 401.163 63.9768 391.188 63.9768 379.597V260.175C63.9768 248.583 63.9598 238.605 64.6282 230.421C65.3169 221.99 66.8375 213.601 70.9495 205.53C77.0831 193.492 86.8658 183.71 98.9036 177.576C106.974 173.464 115.363 171.945 123.794 171.256C131.978 170.587 141.956 170.604 153.547 170.604H170.604V127.953C170.604 80.8424 208.795 42.6514 255.906 42.6514C303.016 42.6515 341.207 80.8425 341.207 127.953V170.604Z" fill="white"/>
</svg>
