<svg width="512" height="512" viewBox="0 0 512 512" fill="none" xmlns="http://www.w3.org/2000/svg">
<path d="M170.603 358.267V357.2C170.604 345.423 180.151 335.875 191.928 335.875C203.706 335.875 213.253 345.423 213.254 357.2V358.267C213.254 370.562 213.271 378.499 213.764 384.539C214.238 390.328 215.04 392.475 215.578 393.53C217.632 397.562 220.899 400.828 224.893 402.863C225.943 403.398 228.087 404.2 233.873 404.673C239.907 405.166 247.833 405.183 260.104 405.183H358.333C370.605 405.183 378.526 405.166 384.554 404.673C390.332 404.2 392.474 403.399 393.526 402.863C397.55 400.813 400.824 397.539 402.863 393.537C403.399 392.485 404.2 390.343 404.673 384.564C405.166 378.536 405.182 370.615 405.182 358.343V153.477C405.182 141.206 405.166 133.28 404.673 127.246C404.2 121.461 403.398 119.316 402.863 118.267C400.83 114.277 397.562 111.007 393.526 108.951C392.469 108.413 390.323 107.611 384.538 107.138C378.5 106.644 370.567 106.627 358.271 106.627H260.174C247.879 106.627 239.937 106.644 233.892 107.138C228.096 107.611 225.947 108.415 224.893 108.951C220.881 110.996 217.622 114.254 215.578 118.267C215.041 119.32 214.238 121.469 213.764 127.266C213.271 133.31 213.254 141.252 213.254 153.547V154.579C213.254 166.357 203.706 175.904 191.928 175.904C180.151 175.904 170.603 166.357 170.603 154.579V153.547C170.603 141.955 170.586 131.978 171.255 123.794C171.943 115.363 173.464 106.974 177.576 98.9033C183.71 86.8654 193.492 77.0828 205.53 70.9492C213.6 66.8371 221.989 65.3165 230.421 64.6279C238.604 63.9594 248.582 63.9765 260.174 63.9765H358.271C369.862 63.9765 379.835 63.9593 388.013 64.6279C396.443 65.317 404.823 66.839 412.889 70.9492C424.904 77.071 434.72 86.8423 440.865 98.9033C444.974 106.968 446.494 115.351 447.182 123.772C447.85 131.946 447.834 141.909 447.834 153.477V358.343C447.834 369.911 447.85 379.871 447.182 388.041C446.494 396.461 444.973 404.837 440.865 412.899C434.726 424.948 424.916 434.737 412.889 440.865C404.827 444.973 396.451 446.494 388.03 447.183C379.86 447.851 369.901 447.834 358.333 447.834H260.104C248.536 447.834 238.573 447.85 230.399 447.183C221.978 446.494 213.595 444.974 205.53 440.865C193.473 434.722 183.7 424.913 177.576 412.893C173.465 404.826 171.944 396.443 171.255 388.013C170.586 379.832 170.603 369.858 170.603 358.267ZM240.825 176.85C249.153 168.521 262.656 168.521 270.984 176.85L334.961 240.825C343.289 249.153 343.289 262.656 334.961 270.984L270.984 334.961C262.656 343.289 249.153 343.289 240.825 334.961C232.497 326.633 232.497 313.13 240.825 304.802L268.396 277.23H85.3015C73.5239 277.23 63.9765 267.683 63.9763 255.905C63.9763 244.128 73.5238 234.579 85.3015 234.579H268.396L240.825 207.008C232.497 198.68 232.497 185.178 240.825 176.85Z" fill="white"/>
</svg>
