<svg width="512" height="512" viewBox="0 0 512 512" fill="none" xmlns="http://www.w3.org/2000/svg">
<path d="M341.204 213.252C341.204 142.586 283.917 85.2998 213.251 85.2998C142.585 85.3001 85.2991 142.586 85.2988 213.252C85.2988 283.918 142.585 341.205 213.251 341.205C283.917 341.205 341.204 283.918 341.204 213.252ZM191.926 277.229V234.578H149.275C137.498 234.578 127.95 225.03 127.95 213.252C127.95 201.474 137.498 191.927 149.275 191.927H191.926V149.276C191.926 137.499 201.474 127.951 213.251 127.951C225.029 127.951 234.577 137.499 234.577 149.276V191.927H277.228C289.005 191.927 298.552 201.474 298.553 213.252C298.553 225.03 289.005 234.578 277.228 234.578H234.577V277.229C234.577 289.006 225.029 298.554 213.251 298.554C201.474 298.553 191.926 289.006 191.926 277.229ZM383.854 213.252C383.854 252.676 370.479 288.976 348.022 317.865L462.91 432.753C471.238 441.081 471.238 454.583 462.91 462.911C454.582 471.239 441.08 471.239 432.752 462.911L317.864 348.023C288.975 370.48 252.675 383.855 213.251 383.855C119.03 383.855 42.6484 307.473 42.6484 213.252C42.6487 119.031 119.03 42.6497 213.251 42.6494C307.472 42.6494 383.854 119.031 383.854 213.252Z" fill="white"/>
</svg>
