<svg width="512" height="512" viewBox="0 0 512 512" fill="none" xmlns="http://www.w3.org/2000/svg">
<path d="M341.207 213.253C341.207 142.587 283.92 85.3013 213.254 85.3013C142.588 85.3015 85.302 142.588 85.3018 213.253C85.3018 283.919 142.588 341.206 213.254 341.207C283.92 341.207 341.207 283.92 341.207 213.253ZM277.23 191.928C289.008 191.928 298.555 201.476 298.556 213.253C298.556 225.031 289.008 234.58 277.23 234.58H149.278C137.501 234.58 127.953 225.031 127.953 213.253C127.953 201.476 137.501 191.928 149.278 191.928H277.23ZM383.857 213.253C383.857 252.678 370.482 288.978 348.025 317.867L462.913 432.754C471.241 441.083 471.241 454.585 462.913 462.913C454.585 471.241 441.083 471.24 432.755 462.913L317.867 348.025C288.978 370.482 252.678 383.857 213.254 383.857C119.033 383.857 42.6514 307.475 42.6514 213.253C42.6516 119.032 119.033 42.6511 213.254 42.6509C307.475 42.6509 383.857 119.032 383.857 213.253Z" fill="white"/>
</svg>
