<svg width="512" height="512" viewBox="0 0 512 512" fill="none" xmlns="http://www.w3.org/2000/svg">
<path d="M172.61 127.953C178.074 127.953 185.27 127.728 192.15 129.769L192.815 129.974L193.857 130.322C199.046 132.127 203.858 134.924 208.01 138.574C213.59 143.48 217.245 150.032 220.149 154.872L328.222 334.995C330.156 338.218 331.151 339.859 331.934 341.005C331.959 341.041 331.984 341.074 332.007 341.107C332.045 341.109 332.085 341.114 332.127 341.117C333.524 341.198 335.451 341.206 339.208 341.206H447.841C459.618 341.206 469.167 350.754 469.167 362.532C469.167 374.309 459.618 383.857 447.841 383.857H339.208C333.59 383.857 326.055 384.097 318.975 381.836C313.355 380.041 308.189 377.102 303.788 373.233C298.907 368.941 295.502 363.398 292.778 358.83L291.65 356.939L183.576 176.817V176.816C181.641 173.591 180.645 171.949 179.86 170.799C179.837 170.765 179.812 170.733 179.791 170.702C179.754 170.699 179.715 170.695 179.675 170.693C178.289 170.611 176.374 170.603 172.61 170.603H63.9763C52.1986 170.603 42.6511 161.055 42.6511 149.278C42.6511 137.5 52.1986 127.953 63.9763 127.953H172.61ZM447.834 127.953C459.611 127.953 469.159 137.5 469.159 149.278C469.159 161.055 459.611 170.603 447.834 170.603H319.882C308.104 170.603 298.555 161.055 298.555 149.278C298.555 137.5 308.104 127.953 319.882 127.953H447.834Z" fill="white"/>
</svg>
