<svg width="512" height="512" viewBox="0 0 512 512" fill="none" xmlns="http://www.w3.org/2000/svg">
<path d="M405.182 255.905C405.182 173.461 338.349 106.627 255.905 106.626C173.461 106.626 106.627 173.461 106.627 255.905C106.627 338.349 173.461 405.182 255.905 405.182C338.349 405.182 405.182 338.348 405.182 255.905ZM298.555 255.905C298.555 232.35 279.46 213.254 255.905 213.253C232.35 213.253 213.254 232.349 213.254 255.905C213.254 279.46 232.35 298.555 255.905 298.555C279.46 298.555 298.555 279.46 298.555 255.905ZM341.207 255.905C341.207 303.015 303.016 341.206 255.905 341.207C208.794 341.207 170.603 303.015 170.603 255.905C170.603 208.794 208.794 170.603 255.905 170.603C303.016 170.603 341.207 208.794 341.207 255.905ZM447.834 255.905C447.834 361.904 361.904 447.833 255.905 447.833C149.906 447.833 63.9765 361.904 63.9763 255.905C63.9763 149.906 149.906 63.9761 255.905 63.9761C361.904 63.9762 447.834 149.906 447.834 255.905Z" fill="white"/>
</svg>
