<svg width="512" height="512" viewBox="0 0 512 512" fill="none" xmlns="http://www.w3.org/2000/svg">
<path d="M341.207 213.253C341.206 142.587 283.919 85.3013 213.253 85.3013C142.588 85.3015 85.3015 142.588 85.3013 213.253C85.3013 283.919 142.587 341.206 213.253 341.207C283.92 341.207 341.207 283.92 341.207 213.253ZM383.857 213.253C383.857 252.678 370.482 288.978 348.025 317.867L462.913 432.754C471.24 441.083 471.241 454.585 462.913 462.913C454.585 471.241 441.083 471.24 432.754 462.913L317.867 348.025C288.978 370.482 252.678 383.857 213.253 383.857C119.032 383.857 42.6509 307.475 42.6509 213.253C42.6511 119.032 119.032 42.6511 213.253 42.6509C307.475 42.6509 383.857 119.032 383.857 213.253Z" fill="white"/>
</svg>
