<svg width="512" height="512" viewBox="0 0 512 512" fill="none" xmlns="http://www.w3.org/2000/svg">
<path d="M419.261 188.574C419.261 173.835 419.043 170.18 418.364 167.774L418.222 167.306C417.299 164.466 415.786 161.846 413.785 159.624C412.081 157.731 409.523 155.968 395.958 148.136L279.355 80.8152C265.681 72.9205 262.863 71.5793 260.343 71.0437C257.42 70.4224 254.397 70.4224 251.474 71.0437C248.948 71.5805 246.093 72.9327 232.441 80.8152L115.977 148.055C102.317 155.942 99.7468 157.712 98.0256 159.624C96.1547 161.702 94.7094 164.133 93.7736 166.775L93.5929 167.306C92.797 169.756 92.549 172.882 92.549 188.675V323.131C92.549 338.922 92.797 342.044 93.5929 344.494L93.7726 345.024C94.7069 347.662 96.1511 350.091 98.0256 352.173C99.7511 354.089 102.334 355.87 115.999 363.759L232.441 430.987C246.096 438.871 248.949 440.224 251.474 440.76C254.397 441.382 257.42 441.382 260.343 440.76L260.822 440.648C263.266 440.029 266.573 438.379 279.375 430.987L395.818 363.759C409.476 355.874 412.059 354.09 413.785 352.173C415.79 349.946 417.301 347.329 418.222 344.494C419.013 342.059 419.261 338.948 419.261 323.226V188.574ZM298.556 255.9C298.556 232.345 279.461 213.249 255.905 213.249C232.35 213.249 213.254 232.345 213.254 255.9C213.254 279.455 232.35 298.551 255.905 298.551C279.461 298.55 298.556 279.455 298.556 255.9ZM341.207 255.9C341.207 303.011 303.016 341.202 255.905 341.202C208.795 341.202 170.604 303.011 170.604 255.9C170.604 208.789 208.795 170.598 255.905 170.598C303.016 170.599 341.207 208.789 341.207 255.9ZM461.912 323.226C461.912 336.076 462.159 347.29 458.785 357.674C456.013 366.207 451.476 374.055 445.482 380.712C438.168 388.834 428.344 394.229 417.143 400.696L300.701 467.925C289.497 474.394 279.9 480.206 269.21 482.478L269.211 482.479C260.442 484.343 251.375 484.343 242.606 482.479C231.915 480.207 222.32 474.392 211.115 467.924L94.673 400.696C83.4779 394.232 73.6449 388.835 66.3302 380.712C60.3308 374.049 55.7998 366.2 53.0295 357.674C49.6506 347.274 49.8986 336.045 49.8986 323.131V188.675C49.8986 175.761 49.6505 164.526 53.0295 154.127C55.7982 145.605 60.3272 137.752 66.3302 131.085C73.644 122.962 83.4797 117.569 94.6515 111.119L211.115 43.8786C222.323 37.4078 231.916 31.597 242.606 29.3249C251.375 27.4609 260.441 27.4609 269.211 29.3249C279.906 31.5983 289.493 37.4201 300.68 43.8786L417.283 111.199C428.365 117.597 438.185 122.981 445.482 131.085C451.479 137.746 456.014 145.598 458.785 154.127C462.159 164.511 461.912 175.724 461.912 188.574V323.226Z" fill="white"/>
</svg>
