<svg width="512" height="512" viewBox="0 0 512 512" fill="none" xmlns="http://www.w3.org/2000/svg">
<path d="M426.508 153.477C426.508 141.206 426.492 133.279 425.999 127.246C425.526 121.46 424.723 119.316 424.188 118.266C422.155 114.277 418.888 111.007 414.852 108.951C413.795 108.412 411.649 107.61 405.863 107.137C399.825 106.644 391.892 106.627 379.596 106.627H132.221C119.926 106.627 111.985 106.644 105.94 107.137C100.144 107.611 97.9943 108.414 96.941 108.951C92.9284 110.995 89.6701 114.254 87.6256 118.266C87.089 119.319 86.2856 121.469 85.8121 127.265C85.3184 133.31 85.3014 141.252 85.3014 153.546V358.271C85.3014 370.566 85.3185 378.503 85.8121 384.543C86.2853 390.334 87.0879 392.481 87.6256 393.537C89.6763 397.561 92.9405 400.824 96.941 402.863C97.9907 403.398 100.135 404.2 105.92 404.672C111.954 405.165 119.88 405.182 132.152 405.182H379.658C391.93 405.182 399.851 405.165 405.879 404.672C411.658 404.2 413.8 403.399 414.852 402.863C418.876 400.813 422.149 397.538 424.188 393.537C424.724 392.485 425.526 390.342 425.999 384.564C426.492 378.535 426.508 370.614 426.508 358.342V153.477ZM170.603 170.603C170.603 158.825 180.151 149.278 191.928 149.278C203.706 149.278 213.254 158.825 213.254 170.603C213.254 194.158 232.35 213.253 255.905 213.253C279.46 213.253 298.555 194.158 298.555 170.603C298.555 158.825 308.104 149.278 319.881 149.278C331.659 149.278 341.207 158.826 341.207 170.603C341.207 217.714 303.016 255.905 255.905 255.905C208.794 255.905 170.603 217.714 170.603 170.603ZM469.159 358.342C469.159 369.91 469.175 379.87 468.507 388.041C467.819 396.461 466.298 404.837 462.19 412.899C456.051 424.948 446.241 434.737 434.214 440.865C426.152 444.973 417.776 446.494 409.356 447.182C401.186 447.85 391.226 447.834 379.658 447.834H132.152C120.584 447.834 110.621 447.85 102.447 447.182C94.0253 446.494 85.6427 444.974 77.5777 440.865C65.5278 434.725 55.7511 424.925 49.6236 412.899C45.5128 404.831 43.9913 396.448 43.3023 388.017C42.6338 379.837 42.651 369.862 42.651 358.271V153.546C42.651 141.955 42.6339 131.977 43.3023 123.793C43.991 115.362 45.5116 106.973 49.6236 98.9029C55.7572 86.865 65.5398 77.0824 77.5777 70.9488C85.648 66.8368 94.037 65.3161 102.468 64.6275C110.652 63.9591 120.63 63.9761 132.221 63.9761H379.596C391.187 63.9761 401.16 63.9589 409.338 64.6275C417.768 65.3166 426.148 66.8387 434.214 70.9488C446.229 77.0706 456.045 86.842 462.19 98.9029C466.299 106.968 467.819 115.35 468.507 123.772C469.175 131.946 469.159 141.909 469.159 153.477V358.342Z" fill="white"/>
</svg>
