<svg width="512" height="512" viewBox="0 0 512 512" fill="none" xmlns="http://www.w3.org/2000/svg">
<path d="M227.148 54.1355C238.763 30.1232 273.08 30.1095 284.7 54.1336L284.972 54.7097L336.474 166.363L458.569 180.841L459.202 180.922C485.888 184.583 496.359 217.736 476.511 236.093L386.254 319.576L410.211 440.178L410.329 440.803C415.077 467.224 386.889 487.589 363.214 474.337L363.212 474.336L255.935 414.271L148.633 474.322L148.632 474.321C124.857 487.627 96.2907 466.999 101.62 440.178L125.581 319.574L35.3142 236.091C15.274 217.558 26.1587 184.055 53.2644 180.841L175.378 166.356L226.876 54.7117L227.148 54.1355ZM211.604 189.647C206.927 199.787 197.322 206.703 186.316 208.008L186.317 208.009L81.241 220.471L158.929 292.321H158.928C167.132 299.908 170.733 311.181 168.575 322.045L147.955 425.825L240.314 374.139C249.837 368.81 261.439 368.683 271.09 373.881L271.548 374.132L271.55 374.133L363.875 425.826L343.259 322.036V322.035C341.096 311.148 344.724 299.89 352.909 292.321L430.588 220.472L325.511 208.012C314.428 206.698 304.888 199.714 300.244 189.645L255.924 93.5623L211.604 189.647Z" fill="white"/>
</svg>
