<svg width="512" height="512" viewBox="0 0 512 512" fill="none" xmlns="http://www.w3.org/2000/svg">
<path d="M447.834 255.904C447.834 197.016 400.095 149.277 341.207 149.277H170.604C111.715 149.277 63.9767 197.016 63.9766 255.904C63.9766 314.793 111.715 362.531 170.604 362.531H341.207C400.095 362.531 447.834 314.793 447.834 255.904ZM213.255 255.904C213.255 232.349 194.159 213.254 170.604 213.254C147.048 213.254 127.953 232.349 127.953 255.904C127.953 279.46 147.048 298.556 170.604 298.556C194.159 298.556 213.255 279.46 213.255 255.904ZM255.905 255.904C255.905 303.015 217.714 341.206 170.604 341.206C123.493 341.206 85.3018 303.015 85.3018 255.904C85.3019 208.794 123.493 170.603 170.604 170.603C217.714 170.603 255.905 208.794 255.905 255.904ZM490.484 255.904C490.484 338.348 423.651 405.183 341.207 405.183H170.604C88.1598 405.182 21.3262 338.348 21.3262 255.904C21.3263 173.461 88.1599 106.627 170.604 106.627H341.207C423.651 106.627 490.484 173.461 490.484 255.904Z" fill="white"/>
</svg>
