<svg width="512" height="512" viewBox="0 0 512 512" fill="none" xmlns="http://www.w3.org/2000/svg">
<path d="M362.532 255.904C362.532 216.224 389.624 182.877 426.32 173.344C426.275 172.17 426.219 171.076 426.149 170.048C425.817 165.186 425.25 163.335 424.882 162.447C422.715 157.216 418.562 153.062 413.343 150.9C412.456 150.533 410.603 149.966 405.742 149.634C400.688 149.289 394.085 149.277 383.857 149.277H319.881V362.531H383.857C394.084 362.531 400.687 362.519 405.74 362.174C410.601 361.842 412.454 361.275 413.343 360.906C418.569 358.742 422.718 354.593 424.882 349.367C425.25 348.48 425.817 346.628 426.149 341.766C426.219 340.737 426.275 339.644 426.32 338.469C389.623 328.935 362.532 295.584 362.532 255.904ZM405.182 255.904C405.182 279.461 424.277 298.556 447.832 298.556C459.609 298.556 469.157 308.103 469.157 319.881C469.157 329.525 469.169 337.827 468.702 344.669C468.237 351.483 467.231 358.299 464.551 365.037L464.287 365.689C457.793 381.364 445.341 393.817 429.666 400.311C422.716 403.189 415.681 404.245 408.647 404.726C401.804 405.193 393.503 405.183 383.857 405.183H127.953C118.307 405.183 110.004 405.193 103.16 404.726C96.1251 404.245 89.089 403.189 82.1392 400.311C66.4602 393.816 54.013 381.361 47.521 365.689C44.6421 358.738 43.5859 351.703 43.106 344.669C42.6392 337.827 42.6509 329.525 42.6509 319.881C42.6509 308.103 52.1984 298.556 63.9761 298.556C87.5294 298.556 106.626 279.457 106.626 255.899C106.626 232.348 87.5357 213.259 63.9761 213.259C52.1985 213.259 42.6511 203.711 42.6509 191.934C42.6509 182.289 42.6391 173.987 43.106 167.145C43.5859 160.111 44.6421 153.075 47.521 146.125C54.0104 130.459 66.4539 117.994 82.1392 111.497C89.0905 108.618 96.1277 107.562 103.162 107.082C110.005 106.615 118.308 106.627 127.953 106.627H383.857C393.501 106.627 401.803 106.615 408.645 107.082C415.679 107.562 422.715 108.618 429.666 111.497C445.348 117.993 457.796 130.456 464.287 146.125C467.166 153.075 468.222 160.111 468.702 167.145C469.169 173.987 469.157 182.289 469.157 191.934C469.157 203.711 459.609 213.259 447.832 213.259C424.275 213.259 405.182 232.35 405.182 255.904ZM149.278 255.899C149.278 295.579 122.184 328.935 85.4859 338.47C85.5311 339.644 85.5876 340.737 85.6577 341.766C85.9895 346.628 86.5568 348.48 86.9243 349.367C89.09 354.596 93.2382 358.743 98.4605 360.906C99.3485 361.274 101.202 361.842 106.066 362.174C111.12 362.519 117.726 362.531 127.953 362.531H277.23V149.277H127.953C117.725 149.277 111.119 149.289 106.064 149.634C101.2 149.966 99.3471 150.533 98.4605 150.9C93.2446 153.061 89.0927 157.213 86.9243 162.447C86.5568 163.335 85.9894 165.187 85.6577 170.048C85.5876 171.076 85.5311 172.17 85.4859 173.344C122.181 182.875 149.278 216.216 149.278 255.899Z" fill="white"/>
</svg>
