<svg width="512" height="512" viewBox="0 0 512 512" fill="none" xmlns="http://www.w3.org/2000/svg">
<path d="M426.518 127.952C432.174 127.952 437.599 130.199 441.598 134.198C445.597 138.198 447.844 143.623 447.843 149.279L447.834 277.231C447.833 289.009 438.285 298.555 426.507 298.555C414.73 298.554 405.182 289.006 405.183 277.229L405.188 201.335L317.042 290.859C314.974 292.96 313.311 294.652 311.696 296.098C287.405 317.839 250.667 317.839 226.376 296.098C224.776 294.666 223.143 293.016 221.019 290.858C219.167 288.978 218.397 288.204 217.97 287.793L217.629 287.476C209.533 280.229 197.287 280.229 189.19 287.476C188.818 287.809 188.274 288.345 185.816 290.842L100.497 377.493C92.2343 385.885 78.7326 385.991 70.3403 377.728C61.9479 369.464 61.8436 355.962 70.1069 347.569L155.424 260.918C157.424 258.886 159.117 257.153 160.745 255.696L161.316 255.19C185.608 233.956 221.974 234.125 246.075 255.696C247.705 257.155 249.4 258.893 251.411 260.935C253.767 263.328 254.416 263.955 254.821 264.317C262.917 271.564 275.153 271.565 283.25 264.317C283.639 263.969 284.241 263.382 286.651 260.935L375.593 170.603H298.556C286.778 170.602 277.231 161.055 277.231 149.277C277.231 137.5 286.778 127.952 298.556 127.952H426.518Z" fill="white"/>
</svg>
