<svg width="512" height="512" viewBox="0 0 512 512" fill="none" xmlns="http://www.w3.org/2000/svg">
<path d="M213.253 383.859C213.254 407.414 232.349 426.508 255.904 426.508C279.46 426.508 298.554 407.412 298.554 383.857L213.253 383.859ZM87.3389 287.674L87.3506 287.664L87.3594 287.654C87.3525 287.661 87.3457 287.667 87.3389 287.674ZM293.337 90.8579H293.339C293.334 90.8564 293.328 90.8555 293.323 90.854C293.328 90.8556 293.333 90.8568 293.337 90.8579ZM127.951 292.636C127.951 302.097 124.189 311.133 117.529 317.799L117.53 317.8L106.639 328.708L106.631 328.716C106.629 328.718 106.627 328.72 106.626 328.721V341.205C106.627 341.206 106.628 341.207 106.629 341.208L405.182 341.207V328.714C405.181 328.714 405.179 328.712 405.176 328.708L394.288 317.821C387.603 311.136 383.856 302.07 383.856 292.63V232.44C376.96 233.842 369.827 234.58 362.531 234.58C303.643 234.58 255.904 186.841 255.904 127.953C255.904 112.91 259.028 98.5831 264.655 85.5962C261.765 85.4015 258.847 85.3013 255.904 85.3013C185.238 85.3013 127.951 142.588 127.951 213.253V292.636ZM298.555 127.953C298.555 163.286 327.198 191.928 362.531 191.928C374.091 191.928 384.875 188.882 394.191 183.562C413.541 172.514 426.507 151.734 426.507 127.953C426.507 92.6196 397.864 63.9762 362.531 63.9761C344.18 63.9761 327.657 71.677 315.964 84.0845C315.539 84.5957 315.092 85.0842 314.624 85.5503C304.609 96.8531 298.555 111.672 298.555 127.953ZM469.158 127.953C469.158 162.86 452.374 193.825 426.507 213.255V289.722L435.343 298.558C443.33 306.55 447.833 317.391 447.833 328.711V341.207C447.833 364.762 428.737 383.857 405.182 383.857H341.206C341.206 430.968 303.015 469.159 255.904 469.159C208.794 469.159 170.604 430.969 170.603 383.86H106.626C83.0615 383.86 63.9756 364.748 63.9756 341.202V328.711C63.9756 317.386 68.4803 306.552 76.4658 298.563L85.3008 289.715V213.253C85.3009 119.032 161.683 42.6509 255.904 42.6509C268.762 42.6509 281.307 44.0781 293.383 46.7866C311.987 30.9272 336.149 21.3257 362.531 21.3257C421.42 21.3258 469.158 69.0642 469.158 127.953Z" fill="white"/>
</svg>
