<svg width="512" height="512" viewBox="0 0 512 512" fill="none" xmlns="http://www.w3.org/2000/svg">
<path d="M213.254 383.858C213.254 407.413 232.35 426.509 255.905 426.509C279.46 426.509 298.556 407.413 298.556 383.858H213.254ZM283.475 155.525C291.804 147.197 305.307 147.197 313.635 155.525C321.962 163.853 321.962 177.355 313.635 185.683L286.063 213.254L313.635 240.826C321.962 249.154 321.962 262.656 313.635 270.984C305.307 279.312 291.804 279.312 283.475 270.984L255.904 243.413L228.334 270.984C220.006 279.312 206.503 279.312 198.175 270.984C189.847 262.656 189.847 249.154 198.175 240.826L225.746 213.254L198.175 185.683C189.847 177.355 189.847 163.853 198.175 155.525C206.503 147.197 220.006 147.197 228.334 155.525L255.904 183.095L283.475 155.525ZM383.857 213.254C383.857 142.588 326.571 85.3022 255.905 85.3022C185.239 85.3024 127.952 142.589 127.952 213.254V292.637C127.952 302.096 124.188 311.151 117.517 317.822L109.211 326.128C107.856 327.483 107.176 328.167 106.7 328.675C106.684 328.693 106.668 328.709 106.653 328.725C106.653 328.745 106.652 328.766 106.651 328.789C106.629 329.489 106.627 330.451 106.627 332.377C106.627 336.729 106.635 339.109 106.732 340.836C106.737 340.926 106.744 341.009 106.749 341.086C106.818 341.091 106.892 341.098 106.971 341.102C108.683 341.199 111.042 341.208 115.361 341.208H396.439C400.759 341.208 403.119 341.199 404.833 341.102C404.915 341.097 404.992 341.091 405.064 341.086C405.069 341.009 405.076 340.926 405.081 340.836C405.179 339.109 405.187 336.729 405.187 332.377C405.187 330.464 405.184 329.501 405.161 328.808C405.16 328.779 405.158 328.752 405.157 328.727C405.145 328.714 405.132 328.7 405.119 328.686C404.635 328.171 403.953 327.486 402.596 326.128L394.289 317.822C387.61 311.143 383.857 302.083 383.857 292.636V213.254ZM426.508 289.723L434.403 297.619C436.15 299.381 438.136 301.481 439.833 303.844C443.555 309.029 446.05 314.964 447.167 321.207L447.27 321.812L447.381 322.528C447.891 326.103 447.838 329.616 447.838 332.377C447.838 338.878 448.119 347.374 445.6 354.842V354.843C441.342 367.468 431.427 377.371 418.814 381.625C411.36 384.14 402.878 383.858 396.439 383.858H341.207C341.207 430.969 303.016 469.16 255.905 469.16C209.162 469.16 171.2 431.563 170.61 384.96L170.603 383.858H115.361C108.92 383.858 100.445 384.14 92.9911 381.625C80.3623 377.366 70.4669 367.451 66.2138 354.842C63.6947 347.374 63.9765 338.878 63.9765 332.377C63.9765 329.474 63.9105 325.641 64.539 321.812L64.6435 321.207C65.761 314.96 68.2572 309.026 71.9774 303.845L72.4071 303.261C74.5769 300.37 77.1061 297.916 79.0526 295.969L85.3017 289.719V213.254C85.3019 119.033 161.684 42.6521 255.905 42.6519C350.127 42.6518 426.507 119.033 426.508 213.254V289.723Z" fill="white"/>
</svg>
