<svg width="512" height="512" viewBox="0 0 512 512" fill="none" xmlns="http://www.w3.org/2000/svg">
<path d="M213.254 383.858C213.254 407.413 232.35 426.509 255.906 426.509C279.461 426.509 298.556 407.413 298.556 383.858H213.254ZM319.881 191.929C331.659 191.929 341.207 201.477 341.207 213.254C341.207 225.032 331.659 234.581 319.881 234.581H191.929C180.151 234.581 170.604 225.032 170.604 213.254C170.604 201.477 180.152 191.929 191.929 191.929H319.881ZM383.858 213.254C383.858 142.588 326.572 85.3022 255.906 85.3022C185.24 85.3024 127.953 142.589 127.953 213.254V292.637C127.953 302.096 124.188 311.151 117.518 317.822L109.211 326.128C107.857 327.483 107.177 328.167 106.701 328.675C106.684 328.693 106.668 328.709 106.654 328.725C106.653 328.745 106.652 328.766 106.652 328.789C106.63 329.489 106.627 330.451 106.627 332.377C106.627 336.729 106.635 339.109 106.733 340.836C106.738 340.926 106.744 341.009 106.749 341.086C106.821 341.091 106.897 341.097 106.978 341.102C108.687 341.199 111.042 341.208 115.362 341.208H396.451C400.769 341.208 403.129 341.199 404.843 341.102C404.918 341.098 404.988 341.092 405.054 341.087C405.059 341.01 405.067 340.926 405.072 340.836C405.169 339.109 405.177 336.729 405.177 332.377C405.177 330.464 405.173 329.501 405.151 328.808C405.15 328.775 405.147 328.744 405.146 328.715C405.137 328.706 405.129 328.696 405.12 328.686C404.636 328.171 403.954 327.486 402.596 326.128L394.289 317.822C387.611 311.143 383.858 302.083 383.858 292.636V213.254ZM426.508 289.723L434.404 297.619C436.151 299.381 438.136 301.481 439.833 303.844C443.701 309.231 446.207 315.39 447.261 321.812C447.888 325.631 447.828 329.432 447.828 332.377C447.828 338.878 448.11 347.375 445.591 354.843C441.344 367.434 431.472 377.36 418.826 381.625C411.371 384.14 402.89 383.858 396.451 383.858H341.207C341.207 430.969 303.016 469.16 255.906 469.16C209.163 469.16 171.201 431.563 170.611 384.96L170.604 383.858H115.362C108.918 383.858 100.455 384.14 93.0014 381.625C80.3897 377.371 70.4732 367.468 66.2143 354.842C63.6952 347.374 63.9769 338.878 63.9769 332.377C63.9769 329.474 63.911 325.641 64.5394 321.812L64.6439 321.207C65.7615 314.96 68.2577 309.026 71.9779 303.845L72.4076 303.261C74.5774 300.37 77.1066 297.916 79.0531 295.969L85.3021 289.719V213.254C85.3024 119.033 161.684 42.6521 255.906 42.6519C350.127 42.6518 426.508 119.033 426.508 213.254V289.723Z" fill="white"/>
</svg>
