<svg width="512" height="512" viewBox="0 0 512 512" fill="none" xmlns="http://www.w3.org/2000/svg">
<path d="M213.254 383.858C213.254 407.414 232.349 426.509 255.905 426.509C279.462 426.509 298.555 407.414 298.555 383.858H213.254ZM255.915 42.6519C350.137 42.6519 426.515 119.034 426.516 213.254L426.498 277.216C426.495 288.994 416.944 298.539 405.166 298.536C393.389 298.532 383.844 288.982 383.847 277.205L383.865 213.254L383.854 211.601C382.97 141.741 326.102 85.3743 256.05 85.3022L251.34 85.3823C236.659 85.8966 222.647 88.8705 209.677 93.8999C198.696 98.1578 186.342 92.7081 182.084 81.7271C177.826 70.746 183.276 58.3923 194.257 54.1343C211.682 47.3777 230.471 43.4124 250.062 42.7505C250.182 42.7464 250.302 42.7437 250.422 42.7417L255.556 42.6548C255.675 42.6528 255.795 42.6519 255.915 42.6519ZM85.3018 213.251C85.3019 173.841 98.6872 137.521 121.132 108.64L91.5479 79.0562C83.2199 70.7281 83.2199 57.226 91.5479 48.8979C99.8759 40.5699 113.378 40.57 121.706 48.8979L462.913 390.104C471.241 398.432 471.241 411.935 462.913 420.263C454.585 428.591 441.082 428.591 432.754 420.263L396.349 383.858H341.206C341.206 430.97 303.017 469.16 255.905 469.16C208.794 469.16 170.604 430.97 170.604 383.858L106.633 383.861C84.7507 383.861 66.7298 367.398 64.2627 346.158C64.215 345.747 64.179 345.334 64.1553 344.921L64.0117 342.427C63.9883 342.02 63.9766 341.611 63.9766 341.203V328.712C63.9766 317.387 68.4813 306.553 76.4668 298.564L85.3018 289.724V213.251ZM127.952 292.639C127.952 302.091 124.196 311.143 117.523 317.818L117.524 317.819L106.633 328.716C106.631 328.718 106.628 328.72 106.627 328.721V340.588L106.662 341.209L353.698 341.208L151.606 139.115C136.704 160.035 127.952 185.605 127.952 213.251V292.639Z" fill="white"/>
</svg>
