<svg width="512" height="512" viewBox="0 0 512 512" fill="none" xmlns="http://www.w3.org/2000/svg">
<path d="M426.507 255.903C426.507 161.682 350.125 85.2999 255.903 85.2998C161.682 85.2998 85.2998 161.682 85.2998 255.903C85.2998 286.449 93.3093 315.061 107.328 339.821L108.062 341.106L109.015 342.741C110.193 344.8 111.906 348.023 112.854 351.45C113.818 354.94 114.195 358.448 113.94 362.163C113.619 366.864 111.968 371.299 111.428 372.92C111.38 373.063 111.331 373.205 111.28 373.347L97.6914 414.112L138.856 400.392C140.5 399.844 144.94 398.191 149.646 397.869L150.34 397.828C153.795 397.664 157.076 398.049 160.352 398.954C164.938 400.222 169.168 402.858 170.812 403.806C195.84 418.24 224.876 426.505 255.906 426.505C350.127 426.505 426.507 350.125 426.507 255.903ZM234.578 319.88V277.229H191.927C180.149 277.228 170.602 267.681 170.602 255.903C170.602 244.126 180.149 234.578 191.927 234.578H234.578V191.927C234.578 180.149 244.126 170.602 255.903 170.602C267.681 170.602 277.228 180.149 277.229 191.927V234.578H319.88C331.657 234.578 341.205 244.126 341.205 255.903C341.205 267.681 331.657 277.228 319.88 277.229H277.229V319.88C277.228 331.657 267.681 341.205 255.903 341.205C244.126 341.205 234.578 331.657 234.578 319.88ZM469.157 255.903C469.157 373.68 373.683 469.156 255.906 469.156C217.673 469.156 181.732 459.075 150.661 441.414L103.389 457.171C103.277 457.21 103.165 457.251 103.053 457.288C98.2595 458.886 93.2642 460.573 89.0576 461.562C85.1692 462.475 77.8845 463.89 70.0879 461.109C61.0324 457.88 53.92 450.749 50.6992 441.717C47.9216 433.928 49.3293 426.654 50.2432 422.762C51.2228 418.59 52.8917 413.642 54.4766 408.889C54.4946 408.833 54.5127 408.777 54.5312 408.722L70.3896 361.145C52.7295 330.074 42.6494 294.135 42.6494 255.903C42.6494 138.126 138.126 42.6494 255.903 42.6494C373.68 42.6495 469.157 138.126 469.157 255.903Z" fill="white"/>
</svg>
