<svg width="512" height="512" viewBox="0 0 512 512" fill="none" xmlns="http://www.w3.org/2000/svg">
<path d="M426.507 255.903C426.507 161.682 350.125 85.2999 255.904 85.2998C161.682 85.2998 85.3003 161.682 85.3003 255.903C85.3003 286.449 93.3098 315.061 107.329 339.821L108.063 341.106L109.015 342.741C110.194 344.8 111.907 348.023 112.854 351.45C113.885 355.182 114.157 358.706 113.92 362.163C113.6 366.849 111.994 371.209 111.389 373.022L97.6929 414.108L138.781 400.413C140.453 399.856 144.93 398.192 149.647 397.869L150.34 397.828C153.795 397.664 157.076 398.049 160.352 398.954L160.78 399.077C165.186 400.381 169.182 402.871 170.714 403.755H170.713L170.801 403.806H170.802C195.83 418.24 224.866 426.505 255.896 426.505C350.119 426.505 426.507 350.124 426.507 255.903ZM319.88 234.578C331.658 234.578 341.206 244.126 341.206 255.903C341.206 267.681 331.658 277.228 319.88 277.229H191.927C180.15 277.228 170.602 267.681 170.602 255.903C170.602 244.126 180.15 234.578 191.927 234.578H319.88ZM469.158 255.903C469.158 373.681 373.672 469.156 255.896 469.156C217.663 469.156 181.722 459.075 150.651 441.413L103.237 457.218C103.142 457.251 103.049 457.287 102.954 457.318C98.1919 458.906 93.2178 460.586 89.0259 461.569C85.1365 462.482 77.8774 463.883 70.0991 461.109C61.0784 457.893 53.9329 450.784 50.6997 441.717C47.9221 433.928 49.3298 426.654 50.2437 422.762C51.2233 418.59 52.8922 413.642 54.4771 408.889C54.4951 408.833 54.5132 408.777 54.5317 408.722L70.3901 361.145C52.73 330.074 42.6499 294.135 42.6499 255.903C42.6499 138.126 138.127 42.6494 255.904 42.6494C373.681 42.6495 469.158 138.126 469.158 255.903Z" fill="white"/>
</svg>
