<svg width="512" height="512" viewBox="0 0 512 512" fill="none" xmlns="http://www.w3.org/2000/svg">
<path d="M426.51 315.691V153.477C426.51 141.205 426.493 133.279 426 127.245C425.527 121.46 424.724 119.315 424.19 118.266C422.151 114.265 418.888 111.001 414.863 108.95C413.808 108.413 411.66 107.61 405.87 107.137C399.83 106.643 391.893 106.626 379.598 106.626H132.223C119.928 106.626 111.986 106.643 105.941 107.137C100.145 107.61 97.9957 108.414 96.9425 108.95C92.9298 110.995 89.6716 114.253 87.627 118.266C87.0904 119.319 86.287 121.468 85.8135 127.265C85.3198 133.309 85.3028 141.251 85.3028 153.546V398.17C85.3028 409.958 85.3242 417.322 85.7979 422.536C85.831 422.901 85.8649 423.237 85.8995 423.546C86.1632 423.379 86.4478 423.196 86.754 422.993C91.1235 420.104 96.8889 415.52 106.094 408.156L138.591 382.158L138.67 382.094C144.881 377.125 150.244 372.706 156.46 369.53C161.604 366.902 167.065 364.993 172.7 363.837C179.555 362.43 186.527 362.531 194.544 362.531H379.67C391.942 362.531 399.864 362.514 405.894 362.022C411.673 361.549 413.815 360.747 414.866 360.211C418.876 358.168 422.143 354.9 424.19 350.885C424.726 349.833 425.528 347.691 426 341.913C426.493 335.884 426.51 327.964 426.51 315.691ZM234.581 298.555V255.904H191.93C180.152 255.904 170.605 246.356 170.605 234.578C170.605 222.801 180.152 213.253 191.93 213.253H234.581V170.603C234.581 158.825 244.129 149.277 255.906 149.277C267.684 149.277 277.232 158.825 277.232 170.603V213.253H319.883C331.66 213.253 341.208 222.801 341.208 234.578C341.208 246.356 331.66 255.904 319.883 255.904H277.232V298.555C277.232 310.332 267.684 319.88 255.906 319.88C244.129 319.88 234.581 310.332 234.581 298.555ZM469.16 315.691C469.16 327.259 469.177 337.219 468.509 345.389C467.82 353.809 466.3 362.185 462.191 370.248C456.059 382.283 446.27 392.078 434.23 398.213C426.167 402.321 417.789 403.842 409.368 404.53C401.198 405.198 391.238 405.182 379.67 405.182H194.544C184.818 405.182 182.907 405.283 181.275 405.617C179.382 406.006 177.565 406.643 175.864 407.512C174.395 408.262 172.855 409.366 165.315 415.398C165.288 415.419 165.263 415.441 165.236 415.462L132.737 441.461C124.196 448.294 116.649 454.359 110.276 458.572C104.234 462.567 95.6803 467.429 85.3467 467.44C72.3556 467.454 60.0715 461.547 51.9698 451.397C45.524 443.322 43.9776 433.608 43.3223 426.395C42.6314 418.788 42.6524 409.108 42.6524 398.17V153.546C42.6524 141.955 42.6354 131.977 43.3038 123.793C43.9924 115.362 45.5131 106.973 49.6251 98.9024C55.7587 86.8645 65.5413 77.0819 77.5792 70.9483C85.6495 66.8363 94.0385 65.3156 102.47 64.627C110.653 63.9586 120.631 63.9756 132.223 63.9756H379.598C391.189 63.9756 401.164 63.9585 409.345 64.627C417.775 65.316 426.159 66.8374 434.227 70.9483C446.252 77.0757 456.052 86.8525 462.191 98.9024C466.301 106.967 467.821 115.35 468.509 123.772C469.177 131.945 469.16 141.908 469.16 153.477V315.691Z" fill="white"/>
</svg>
