<svg width="512" height="512" viewBox="0 0 512 512" fill="none" xmlns="http://www.w3.org/2000/svg">
<path d="M426.509 315.691V153.477C426.509 141.205 426.492 133.279 425.999 127.245C425.526 121.46 424.723 119.315 424.189 118.266C422.15 114.265 418.887 111.001 414.862 108.95C413.807 108.413 411.659 107.61 405.869 107.137C399.829 106.643 391.892 106.626 379.597 106.626H132.222C119.927 106.626 111.985 106.643 105.94 107.137C100.144 107.61 97.9948 108.414 96.9415 108.95C92.9288 110.995 89.6706 114.253 87.626 118.266C87.0894 119.319 86.286 121.468 85.8126 127.265C85.3188 133.309 85.3018 141.251 85.3018 153.546V398.17C85.3018 409.958 85.3233 417.322 85.7969 422.536C85.83 422.901 85.8639 423.237 85.8985 423.546C86.1622 423.379 86.4469 423.196 86.753 422.993C91.1225 420.104 96.8879 415.52 106.093 408.156L138.59 382.158L138.669 382.094C144.88 377.125 150.243 372.706 156.459 369.53C161.603 366.902 167.064 364.993 172.699 363.837C179.554 362.43 186.526 362.531 194.543 362.531H379.669C391.941 362.531 399.863 362.514 405.893 362.022C411.672 361.549 413.814 360.747 414.865 360.211C418.875 358.168 422.142 354.9 424.189 350.885C424.725 349.833 425.527 347.691 425.999 341.913C426.492 335.884 426.509 327.964 426.509 315.691ZM304.802 176.849C313.13 168.521 326.633 168.521 334.961 176.849C343.289 185.177 343.289 198.679 334.961 207.007L249.659 292.309C241.331 300.637 227.828 300.637 219.5 292.309L176.85 249.658C168.522 241.33 168.522 227.827 176.85 219.499C185.178 211.171 198.681 211.171 207.009 219.499L234.579 247.07L304.802 176.849ZM469.159 315.691C469.159 327.259 469.176 337.219 468.508 345.389C467.819 353.809 466.299 362.185 462.19 370.248C456.059 382.283 446.269 392.078 434.229 398.213C426.166 402.321 417.788 403.842 409.367 404.53C401.197 405.198 391.237 405.182 379.669 405.182H194.543C184.817 405.182 182.906 405.283 181.274 405.617C179.381 406.006 177.564 406.643 175.863 407.512C174.394 408.262 172.854 409.366 165.314 415.398C165.287 415.419 165.262 415.441 165.235 415.462L132.736 441.461C124.195 448.294 116.648 454.359 110.275 458.572C104.233 462.567 95.6794 467.429 85.3458 467.44C72.3546 467.454 60.0705 461.547 51.9688 451.397C45.523 443.322 43.9767 433.608 43.3214 426.395C42.6304 418.788 42.6514 409.108 42.6514 398.17V153.546C42.6514 141.955 42.6344 131.977 43.3028 123.793C43.9915 115.362 45.5121 106.973 49.6241 98.9024C55.7577 86.8645 65.5403 77.0819 77.5782 70.9483C85.6485 66.8363 94.0375 65.3156 102.469 64.627C110.653 63.9586 120.63 63.9756 132.222 63.9756H379.597C391.188 63.9756 401.163 63.9585 409.344 64.627C417.774 65.316 426.158 66.8374 434.226 70.9483C446.251 77.0757 456.051 86.8525 462.19 98.9024C466.3 106.967 467.82 115.35 468.508 123.772C469.176 131.945 469.159 141.908 469.159 153.477V315.691Z" fill="white"/>
</svg>
