<svg width="512" height="512" viewBox="0 0 512 512" fill="none" xmlns="http://www.w3.org/2000/svg">
<path d="M426.509 255.905C426.509 161.683 350.127 85.3013 255.905 85.3013C161.684 85.3013 85.3018 161.683 85.3018 255.905C85.3018 286.451 93.3113 315.063 107.33 339.823L108.064 341.108L109.017 342.743C110.195 344.801 111.908 348.024 112.855 351.452C113.887 355.183 114.158 358.707 113.922 362.165C113.601 366.85 111.995 371.21 111.391 373.024L97.6943 414.11L138.782 400.415C140.454 399.857 144.932 398.193 149.648 397.871L150.342 397.83C153.797 397.665 157.078 398.05 160.354 398.956L160.781 399.079C165.187 400.383 169.184 402.873 170.716 403.756H170.715L170.803 403.807H170.804C195.832 418.242 224.867 426.506 255.897 426.506C350.12 426.506 426.509 350.125 426.509 255.905ZM170.646 234.58C176.389 234.58 181.888 236.895 185.9 241.002C189.913 245.11 192.1 250.662 191.966 256.403L191.965 256.446C191.833 262.102 189.458 267.474 185.364 271.379C181.27 275.284 175.791 277.402 170.135 277.267L170.094 277.266C158.518 276.989 149.279 267.526 149.278 255.947V255.905C149.278 244.127 158.826 234.58 170.604 234.58H170.646ZM255.948 234.58C261.69 234.58 267.19 236.895 271.202 241.002C275.215 245.11 277.402 250.662 277.268 256.403L277.267 256.446C277.134 262.102 274.759 267.474 270.665 271.379C266.571 275.284 261.093 277.402 255.437 277.267L255.396 277.266C243.82 276.989 234.58 267.526 234.58 255.947V255.905C234.58 244.127 244.128 234.58 255.905 234.58H255.948ZM341.249 234.58C346.991 234.58 352.491 236.895 356.504 241.002C360.517 245.11 362.703 250.662 362.569 256.403L362.568 256.446C362.436 262.102 360.061 267.474 355.967 271.379C351.873 275.284 346.394 277.402 340.738 277.267L340.696 277.266C329.121 276.989 319.882 267.525 319.882 255.947V255.905C319.882 244.127 329.429 234.58 341.207 234.58H341.249ZM469.159 255.905C469.159 373.683 373.673 469.158 255.897 469.158C217.664 469.158 181.723 459.076 150.652 441.415L103.238 457.219C103.144 457.252 103.05 457.288 102.955 457.32C98.1934 458.907 93.2193 460.587 89.0273 461.571C85.138 462.483 77.8788 463.884 70.1006 461.111C61.0799 457.894 53.9344 450.785 50.7012 441.718C47.9236 433.929 49.3312 426.655 50.2451 422.763C51.2248 418.591 52.8937 413.644 54.4785 408.89C54.4966 408.834 54.5147 408.779 54.5332 408.723L70.3916 361.146C52.7315 330.076 42.6514 294.136 42.6514 255.905C42.6514 138.128 138.128 42.6509 255.905 42.6509C373.682 42.6509 469.159 138.128 469.159 255.905Z" fill="white"/>
</svg>
