<svg width="512" height="512" viewBox="0 0 512 512" fill="none" xmlns="http://www.w3.org/2000/svg">
<path d="M426.509 255.905C426.509 161.683 350.127 85.3013 255.905 85.3013C161.683 85.3013 85.3015 161.683 85.3015 255.905C85.3015 286.451 93.311 315.063 107.33 339.823L108.064 341.108L109.016 342.743C110.195 344.801 111.908 348.024 112.855 351.452C113.887 355.183 114.158 358.707 113.922 362.165C113.601 366.85 111.995 371.21 111.39 373.024L97.6941 414.11L138.782 400.415C140.454 399.857 144.931 398.193 149.648 397.871L150.342 397.83C153.797 397.665 157.078 398.05 160.353 398.956L160.781 399.079C165.187 400.383 169.184 402.873 170.716 403.756H170.715L170.802 403.807H170.803C195.832 418.242 224.867 426.506 255.897 426.506C350.12 426.506 426.508 350.125 426.509 255.905ZM283.475 198.174C291.803 189.846 305.306 189.846 313.635 198.174C321.963 206.502 321.963 220.005 313.635 228.333L286.063 255.904L313.635 283.475C321.963 291.803 321.963 305.306 313.635 313.634C305.306 321.962 291.803 321.962 283.475 313.634L255.904 286.063L228.334 313.634C220.006 321.962 206.503 321.962 198.175 313.634C189.846 305.306 189.846 291.803 198.175 283.475L225.745 255.904L198.175 228.333C189.846 220.005 189.846 206.502 198.175 198.174C206.503 189.846 220.006 189.846 228.334 198.174L255.904 225.745L283.475 198.174ZM469.159 255.905C469.159 373.683 373.673 469.158 255.897 469.158C217.664 469.158 181.723 459.076 150.652 441.415L103.238 457.219C103.143 457.252 103.05 457.288 102.955 457.32C98.1932 458.907 93.219 460.587 89.0271 461.571C85.1377 462.483 77.8786 463.884 70.1003 461.111C61.0796 457.894 53.9341 450.785 50.7009 441.718C47.9233 433.929 49.331 426.655 50.2449 422.763C51.2245 418.591 52.8934 413.644 54.4783 408.89C54.4963 408.834 54.5144 408.779 54.533 408.723L70.3914 361.146C52.7312 330.076 42.6511 294.136 42.6511 255.905C42.6511 138.128 138.128 42.6509 255.905 42.6509C373.682 42.6509 469.159 138.128 469.159 255.905Z" fill="white"/>
</svg>
