<svg width="512" height="512" viewBox="0 0 512 512" fill="none" xmlns="http://www.w3.org/2000/svg">
<path d="M426.507 315.691V153.477C426.507 141.205 426.49 133.279 425.997 127.245C425.524 121.46 424.721 119.315 424.187 118.266C422.154 114.276 418.886 111.007 414.851 108.95C413.794 108.412 411.647 107.61 405.861 107.137C399.824 106.643 391.89 106.626 379.595 106.626H132.22C119.925 106.626 111.983 106.643 105.939 107.137C100.142 107.61 97.9928 108.414 96.9395 108.95C92.9269 110.995 89.6686 114.253 87.6241 118.266C87.0875 119.319 86.2841 121.468 85.8106 127.265C85.3169 133.309 85.2999 141.251 85.2999 153.546V398.17C85.2999 409.958 85.3213 417.322 85.795 422.536C85.8281 422.901 85.8619 423.237 85.8966 423.546C86.1603 423.379 86.4449 423.196 86.751 422.993C91.1206 420.104 96.886 415.52 106.091 408.156L138.59 382.157L138.975 381.855C145.029 377.01 150.32 372.666 156.457 369.53C161.612 366.897 167.086 364.991 172.708 363.837C179.562 362.43 186.51 362.531 194.53 362.531H379.656C391.928 362.531 399.853 362.515 405.886 362.022C411.67 361.549 413.813 360.746 414.863 360.211C418.873 358.168 422.141 354.9 424.187 350.885C424.723 349.833 425.525 347.691 425.997 341.913C426.49 335.884 426.507 327.964 426.507 315.691ZM319.88 213.253C331.657 213.253 341.205 222.801 341.205 234.578C341.205 246.356 331.657 255.904 319.88 255.904H191.927C180.149 255.904 170.602 246.356 170.602 234.578C170.602 222.801 180.149 213.253 191.927 213.253H319.88ZM469.157 315.691C469.157 327.259 469.174 337.219 468.506 345.389C467.817 353.809 466.297 362.185 462.189 370.248C456.057 382.283 446.267 392.078 434.227 398.213C426.162 402.322 417.782 403.842 409.36 404.53C401.188 405.198 391.225 405.182 379.656 405.182H194.53C184.807 405.182 182.914 405.282 181.282 405.617C179.376 406.008 177.551 406.649 175.861 407.512C174.419 408.249 172.908 409.33 165.473 415.278C165.362 415.367 165.249 415.455 165.137 415.541L165.076 415.587L132.734 441.461C124.193 448.294 116.646 454.359 110.274 458.572C104.231 462.567 95.6774 467.429 85.3438 467.44C72.3527 467.454 60.0686 461.547 51.9669 451.397C45.5211 443.322 43.9747 433.608 43.3194 426.395C42.6285 418.788 42.6495 409.108 42.6495 398.17V153.546C42.6495 141.955 42.6324 131.977 43.3009 123.793C43.9895 115.362 45.5101 106.973 49.6221 98.9024C55.7558 86.8645 65.5383 77.0819 77.5762 70.9483C85.6466 66.8363 94.0355 65.3156 102.467 64.627C110.651 63.9586 120.628 63.9756 132.22 63.9756H379.595C391.186 63.9756 401.159 63.9584 409.337 64.627C417.767 65.3161 426.146 66.8382 434.213 70.9483C446.228 77.0701 456.043 86.8415 462.189 98.9024C466.298 106.967 467.818 115.35 468.506 123.772C469.174 131.945 469.157 141.908 469.157 153.477V315.691Z" fill="white"/>
</svg>
