<svg width="512" height="512" viewBox="0 0 512 512" fill="none" xmlns="http://www.w3.org/2000/svg">
<path d="M426.509 174.803C426.509 166.221 426.499 159.764 426.325 154.593C404.874 170.51 378.871 190.163 356.777 206.954C343.436 217.093 331.55 226.164 323 232.701C318.726 235.969 315.286 238.602 312.915 240.419C311.73 241.326 310.812 242.03 310.191 242.506C309.881 242.744 309.645 242.925 309.486 243.046C309.407 243.107 309.347 243.154 309.308 243.184C309.288 243.199 309.273 243.211 309.263 243.218C309.258 243.222 309.254 243.225 309.252 243.227C309.251 243.228 309.25 243.229 309.249 243.229L296.266 226.311L309.248 243.229C309.125 243.323 309.001 243.417 308.876 243.508C295.884 253.036 284.79 261.628 271.929 264.955C261.75 267.587 251.072 267.67 240.862 265.202L239.876 264.955C227.022 261.63 215.952 253.056 202.982 243.544C202.887 243.474 202.793 243.401 202.698 243.33L85.4776 154.809C85.3097 159.958 85.3018 166.376 85.3018 174.873V336.946C85.3018 349.241 85.3189 357.179 85.8125 363.219C86.2857 369.009 87.0883 371.156 87.626 372.211C89.6767 376.236 92.9409 379.499 96.9414 381.538C97.9911 382.072 100.135 382.875 105.921 383.348C111.955 383.841 119.881 383.858 132.152 383.858H379.658C391.93 383.858 399.851 383.841 405.88 383.348C411.658 382.876 413.801 382.074 414.853 381.538C418.876 379.487 422.15 376.213 424.189 372.211C424.725 371.159 425.527 369.018 425.999 363.24C426.492 357.211 426.509 349.29 426.509 337.018V174.803ZM132.222 127.953C127.883 127.953 124.087 127.956 120.725 127.98L228.401 209.293L228.439 209.323C244.192 220.87 247.575 222.891 250.556 223.663C254.058 224.569 257.747 224.569 261.249 223.663C264.239 222.889 267.642 220.852 283.453 209.261C283.475 209.244 283.5 209.226 283.526 209.206C283.687 209.082 283.926 208.9 284.238 208.66C284.864 208.18 285.787 207.473 286.978 206.561C289.358 204.737 292.81 202.094 297.097 198.817C305.67 192.262 317.589 183.165 330.971 172.996C349.674 158.781 371.297 142.425 390.65 127.977C387.4 127.956 383.747 127.953 379.597 127.953H132.222ZM469.159 337.018C469.159 348.586 469.176 358.545 468.508 366.715C467.819 375.136 466.299 383.512 462.19 391.575C456.051 403.624 446.242 413.413 434.215 419.541C426.153 423.648 417.777 425.168 409.356 425.857C401.186 426.525 391.226 426.508 379.658 426.508H132.152C120.584 426.508 110.621 426.525 102.447 425.857C94.0258 425.169 85.6431 423.65 77.5782 419.541C65.5282 413.401 55.7515 403.601 49.6241 391.575C45.5132 383.507 43.9917 375.123 43.3028 366.693C42.6342 358.512 42.6514 348.537 42.6514 336.946V174.873C42.6514 163.281 42.6344 153.303 43.3028 145.12C43.9914 136.688 45.5121 128.299 49.6241 120.229C55.7577 108.191 65.5403 98.4086 77.5782 92.2749C85.6485 88.1629 94.0375 86.6423 102.469 85.9537C110.652 85.2852 120.63 85.3023 132.222 85.3023H379.597C391.188 85.3023 401.16 85.2851 409.339 85.9537C417.505 86.6213 425.625 88.0703 433.458 91.897L434.215 92.2749L435.335 92.8599C446.84 99.0101 456.237 108.545 462.19 120.229C466.3 128.294 467.82 136.677 468.508 145.098C469.176 153.272 469.159 163.235 469.159 174.803V337.018Z" fill="white"/>
</svg>
