<svg width="512" height="512" viewBox="0 0 512 512" fill="none" xmlns="http://www.w3.org/2000/svg">
<path d="M163.043 42.6519C189.201 42.6519 212.724 58.576 222.441 82.8618L244.943 139.073L244.946 139.079C253.68 160.914 249.707 185.759 234.676 203.796L222.571 218.312C215.639 226.637 216.074 238.833 223.541 246.664L223.901 247.034L223.909 247.041L264.761 287.929L265.13 288.29C272.942 295.737 285.155 296.18 293.501 289.231L308.012 277.129L308.019 277.124C326.074 262.077 350.916 258.152 372.729 266.875L428.952 289.357L428.955 289.358C453.245 299.074 469.168 322.596 469.168 348.755L469.158 407.43C469.156 441.518 441.528 469.159 407.432 469.16C205.971 469.16 42.6504 305.839 42.6504 104.378C42.6505 70.2822 70.2916 42.6519 104.382 42.6519H163.043ZM85.3008 104.378C85.3008 282.284 229.526 426.508 407.432 426.508C417.965 426.508 426.508 417.968 426.508 407.426L426.518 348.755L426.514 348.347C426.351 339.791 421.083 332.146 413.114 328.958L356.894 306.478L356.892 306.477C349.614 303.566 341.336 304.878 335.323 309.889L335.322 309.888L320.819 321.985L320.812 321.991C295.399 343.169 258.004 341.491 234.602 318.088L193.736 277.185C170.361 253.802 168.616 216.434 189.811 191.001L189.815 190.997L201.915 176.487C206.937 170.457 208.246 162.176 205.348 154.924L182.846 98.7134L182.843 98.7075C179.604 90.6114 171.763 85.3023 163.043 85.3022H104.382C93.841 85.3022 85.3009 93.8436 85.3008 104.378Z" fill="white"/>
</svg>
