<svg width="512" height="512" viewBox="0 0 512 512" fill="none" xmlns="http://www.w3.org/2000/svg">
<path d="M63.9766 379.593V277.231C63.9766 267.587 63.9648 259.286 64.4317 252.445C64.9117 245.411 65.968 238.378 68.8467 231.428C75.3399 215.752 87.7988 203.293 103.475 196.799C110.425 193.92 117.461 192.864 124.494 192.384C131.336 191.917 139.639 191.929 149.283 191.929C161.061 191.929 170.608 201.477 170.608 213.254C170.608 225.032 161.061 234.58 149.283 234.581C139.055 234.581 132.451 234.592 127.398 234.937C122.536 235.269 120.684 235.836 119.797 236.204C114.572 238.368 110.414 242.524 108.25 247.75C107.882 248.638 107.315 250.489 106.983 255.349C106.639 260.401 106.627 267.003 106.627 277.231V379.593C106.627 391.889 106.644 399.825 107.138 405.865C107.611 411.654 108.413 413.801 108.951 414.857C111.005 418.888 114.273 422.154 118.267 424.189C119.316 424.724 121.461 425.527 127.246 426C133.28 426.493 141.206 426.509 153.478 426.509H358.343C370.615 426.509 378.536 426.492 384.564 426C390.343 425.527 392.485 424.725 393.537 424.189C397.543 422.148 400.815 418.876 402.863 414.857C403.399 413.806 404.2 411.663 404.673 405.883C405.166 399.853 405.183 391.931 405.183 379.659V277.231C405.183 267.004 405.17 260.402 404.825 255.351C404.493 250.492 403.926 248.639 403.558 247.75C401.391 242.518 397.237 238.365 392.019 236.204C391.131 235.836 389.279 235.269 384.417 234.937C379.363 234.592 372.76 234.581 362.532 234.581C350.755 234.581 341.207 225.032 341.207 213.254C341.207 201.477 350.755 191.929 362.532 191.929C372.177 191.929 380.478 191.917 387.32 192.384C394.354 192.864 401.389 193.92 408.34 196.799C424.022 203.295 436.471 215.759 442.962 231.428C445.84 238.376 446.896 245.409 447.377 252.443C447.845 259.285 447.834 267.585 447.834 277.231V379.659C447.834 391.227 447.851 401.187 447.183 409.358C446.494 417.779 444.974 426.157 440.865 434.22C434.735 446.251 424.944 456.054 412.899 462.191C404.837 466.299 396.461 467.82 388.041 468.508C379.871 469.176 369.911 469.16 358.343 469.16H153.478C141.909 469.16 131.946 469.176 123.773 468.508C115.351 467.82 106.968 466.3 98.9034 462.191C86.847 456.048 77.0734 446.239 70.9493 434.22C66.8385 426.152 65.317 417.77 64.628 409.339C63.9594 401.159 63.9766 391.184 63.9766 379.593ZM234.579 277.231V115.461L207.008 143.033C198.68 151.361 185.178 151.361 176.85 143.033C168.522 134.705 168.522 121.202 176.85 112.874L240.825 48.8979C244.825 44.8987 250.249 42.6519 255.905 42.6519C261.561 42.6519 266.985 44.8987 270.984 48.8979L334.961 112.874C343.289 121.202 343.289 134.705 334.961 143.033C326.633 151.361 313.13 151.361 304.802 143.033L277.231 115.461V277.231C277.231 289.009 267.683 298.556 255.905 298.556C244.128 298.556 234.579 289.009 234.579 277.231Z" fill="white"/>
</svg>
