<svg width="512" height="512" viewBox="0 0 512 512" fill="none" xmlns="http://www.w3.org/2000/svg">
<path d="M426.508 255.904C426.508 161.682 350.126 85.3003 255.904 85.3003C161.683 85.3003 85.3008 161.682 85.3008 255.904C85.3008 350.125 161.683 426.507 255.904 426.507C350.126 426.507 426.508 350.125 426.508 255.904ZM234.579 341.206V277.229H170.603C158.825 277.229 149.277 267.681 149.277 255.904C149.277 244.126 158.825 234.579 170.603 234.579H234.579V170.602C234.579 158.824 244.127 149.277 255.904 149.277C267.682 149.277 277.229 158.824 277.229 170.602V234.579H341.206C352.984 234.579 362.531 244.126 362.531 255.904C362.531 267.681 352.984 277.229 341.206 277.229H277.229V341.206C277.229 352.983 267.682 362.531 255.904 362.531C244.127 362.531 234.579 352.983 234.579 341.206ZM469.158 255.904C469.158 373.681 373.681 469.158 255.904 469.158C138.127 469.158 42.6504 373.681 42.6504 255.904C42.6504 138.127 138.127 42.6499 255.904 42.6499C373.681 42.65 469.158 138.127 469.158 255.904Z" fill="white"/>
</svg>
