<svg width="512" height="512" viewBox="0 0 512 512" fill="none" xmlns="http://www.w3.org/2000/svg">
<path d="M234.579 383.858V277.23H127.952C116.174 277.23 106.626 267.682 106.626 255.905C106.627 244.127 116.174 234.579 127.952 234.579H234.579V127.952C234.579 116.175 244.126 106.627 255.904 106.627C267.682 106.627 277.229 116.175 277.229 127.952V234.579H383.857C395.634 234.58 405.182 244.127 405.182 255.905C405.182 267.682 395.634 277.23 383.857 277.23H277.229V383.858C277.229 395.635 267.681 405.183 255.904 405.183C244.126 405.183 234.579 395.635 234.579 383.858Z" fill="white"/>
</svg>
