<svg width="512" height="512" viewBox="0 0 512 512" fill="none" xmlns="http://www.w3.org/2000/svg">
<path d="M341.207 330.544C341.207 301.1 317.337 277.23 287.893 277.23H191.928V383.857H287.893C317.337 383.857 341.206 359.988 341.207 330.544ZM319.88 181.265C319.88 151.821 296.011 127.952 266.567 127.952H191.928V234.579H266.567C296.011 234.579 319.88 210.71 319.88 181.265ZM362.532 181.265C362.532 206.948 352.442 230.275 336.01 247.498C364.619 264.11 383.857 295.08 383.857 330.544C383.857 383.543 340.892 426.507 287.893 426.508H170.603C158.825 426.508 149.278 416.96 149.278 405.182V106.627C149.278 94.849 158.825 85.3015 170.603 85.3015H266.567C319.566 85.3015 362.532 128.266 362.532 181.265Z" fill="white"/>
</svg>
