<svg width="512" height="512" viewBox="0 0 512 512" fill="none" xmlns="http://www.w3.org/2000/svg">
<path d="M426.506 255.904C426.506 161.682 350.124 85.3003 255.902 85.3003C161.681 85.3003 85.2988 161.682 85.2988 255.904C85.2989 350.125 161.681 426.507 255.902 426.507C350.124 426.507 426.506 350.125 426.506 255.904ZM304.797 176.848C313.125 168.52 326.627 168.52 334.955 176.848C343.283 185.176 343.283 198.679 334.955 207.007L286.06 255.902L334.955 304.798C343.283 313.126 343.283 326.629 334.955 334.957C326.627 343.285 313.125 343.284 304.797 334.957L255.9 286.061L207.006 334.957C198.678 343.285 185.175 343.285 176.847 334.957C168.519 326.629 168.519 313.126 176.847 304.798L225.741 255.902L176.847 207.007C168.519 198.679 168.519 185.176 176.847 176.848C185.175 168.52 198.678 168.52 207.006 176.848L255.9 225.743L304.797 176.848ZM469.156 255.904C469.156 373.681 373.679 469.158 255.902 469.158C138.125 469.158 42.6485 373.681 42.6484 255.904C42.6484 138.127 138.125 42.6499 255.902 42.6499C373.679 42.65 469.156 138.127 469.156 255.904Z" fill="white"/>
</svg>
