<svg width="512" height="512" viewBox="0 0 512 512" fill="none" xmlns="http://www.w3.org/2000/svg">
<path d="M191.929 138.615C191.929 127.696 191.822 125.336 191.516 123.793C189.832 115.331 183.22 108.719 174.764 107.037C173.223 106.731 170.871 106.627 159.94 106.627C149.009 106.627 146.659 106.731 145.118 107.037C136.659 108.72 130.045 115.333 128.362 123.793C128.056 125.334 127.952 127.684 127.952 138.615V373.194C127.952 384.125 128.056 386.477 128.362 388.017C130.044 396.474 136.656 403.086 145.118 404.769C146.659 405.076 149.01 405.18 159.941 405.18C170.872 405.18 173.222 405.076 174.763 404.769C183.223 403.087 189.833 396.476 191.516 388.017C191.822 386.474 191.929 384.113 191.929 373.194V138.615ZM383.857 138.615C383.857 127.696 383.751 125.336 383.444 123.793C381.761 115.331 375.149 108.719 366.692 107.037C365.152 106.731 362.8 106.627 351.869 106.627C340.938 106.627 338.588 106.731 337.047 107.037C328.587 108.72 321.974 115.333 320.291 123.793C319.984 125.334 319.881 127.684 319.881 138.615V373.194C319.881 384.125 319.984 386.477 320.291 388.017C321.973 396.474 328.584 403.086 337.047 404.769C338.587 405.076 340.939 405.18 351.87 405.18C362.801 405.18 365.151 405.076 366.691 404.769C375.151 403.087 381.762 396.476 383.444 388.017C383.751 386.474 383.857 384.113 383.857 373.194V138.615ZM234.579 373.194C234.579 382.093 234.679 389.642 233.347 396.339C228.298 421.718 208.461 441.553 183.083 446.601C176.384 447.934 168.828 447.83 159.941 447.83C151.055 447.83 143.497 447.934 136.798 446.601C111.422 441.554 91.58 421.72 86.5311 396.339C85.1986 389.639 85.3017 382.081 85.3017 373.194V138.615C85.3017 129.728 85.1986 122.172 86.5311 115.473C91.5793 90.0938 111.419 70.2541 136.798 65.206C143.497 63.8734 151.053 63.9765 159.94 63.9765C168.827 63.9765 176.385 63.8734 183.084 65.206C208.466 70.2547 228.299 90.0967 233.347 115.473C234.679 122.169 234.579 129.716 234.579 138.615V373.194ZM426.508 373.194C426.508 382.093 426.607 389.642 425.275 396.339C420.227 421.718 400.39 441.553 375.012 446.601C368.312 447.934 360.757 447.83 351.87 447.83C342.983 447.83 335.426 447.934 328.726 446.601C303.351 441.554 283.508 421.72 278.459 396.339C277.126 389.639 277.23 382.081 277.23 373.194V138.615C277.23 129.728 277.126 122.172 278.459 115.473C283.507 90.0938 303.348 70.2541 328.726 65.206C335.426 63.8734 342.982 63.9765 351.869 63.9765C360.756 63.9765 368.313 63.8734 375.013 65.206C400.394 70.2547 420.228 90.0967 425.275 115.473C426.607 122.169 426.508 129.716 426.508 138.615V373.194Z" fill="white"/>
</svg>
