<svg width="512" height="512" viewBox="0 0 512 512" fill="none" xmlns="http://www.w3.org/2000/svg">
<path d="M426.508 319.881C438.285 319.882 447.833 329.429 447.833 341.207C447.833 352.984 438.285 362.532 426.508 362.532H298.555C286.777 362.532 277.23 352.984 277.229 341.207C277.229 329.429 286.777 319.882 298.555 319.881H426.508ZM426.508 213.254V191.928C426.508 180.151 416.959 170.603 405.182 170.603H106.626C94.8486 170.603 85.301 180.151 85.3008 191.928V234.58C85.3009 246.357 94.8485 255.905 106.626 255.905H234.579C246.357 255.905 255.904 265.453 255.904 277.23C255.904 289.008 246.357 298.555 234.579 298.555H106.626C71.2931 298.555 42.6505 269.912 42.6504 234.58V191.928C42.6506 156.595 71.2932 127.953 106.626 127.953H405.182C440.515 127.953 469.158 156.595 469.158 191.928V213.254C469.158 225.032 459.61 234.579 447.833 234.58C436.055 234.58 426.508 225.032 426.508 213.254Z" fill="white"/>
</svg>
