<svg width="512" height="512" viewBox="0 0 512 512" fill="none" xmlns="http://www.w3.org/2000/svg">
<path d="M405.183 319.881C416.961 319.882 426.508 329.429 426.508 341.207C426.508 352.984 416.961 362.531 405.183 362.532H277.23C265.452 362.532 255.905 352.984 255.905 341.207C255.905 329.429 265.452 319.882 277.23 319.881H405.183ZM255.905 234.58V106.626C255.905 94.849 246.357 85.3014 234.58 85.3013H191.928C180.151 85.3015 170.603 94.8491 170.603 106.626V405.182C170.603 416.96 180.151 426.508 191.928 426.508H213.254C225.032 426.508 234.58 436.056 234.58 447.833C234.579 459.611 225.032 469.159 213.254 469.159H191.928C156.595 469.158 127.953 440.515 127.953 405.182V106.626C127.953 71.2937 156.595 42.6511 191.928 42.6509H234.58C269.912 42.651 298.555 71.2936 298.555 106.626V234.58C298.555 246.357 289.008 255.905 277.23 255.905C265.453 255.905 255.905 246.357 255.905 234.58Z" fill="white"/>
</svg>
