<svg width="512" height="512" viewBox="0 0 512 512" fill="none" xmlns="http://www.w3.org/2000/svg">
<path d="M191.929 183.366C191.929 177.054 191.912 173.601 191.709 171.119C191.701 171.024 191.691 170.934 191.683 170.849C191.594 170.841 191.5 170.831 191.4 170.823C188.917 170.62 185.46 170.603 179.136 170.603H140.75C134.427 170.603 130.964 170.62 128.477 170.823C128.379 170.831 128.286 170.841 128.198 170.849C128.19 170.937 128.18 171.029 128.172 171.127C127.969 173.615 127.952 177.078 127.952 183.401V221.787C127.952 228.11 127.969 231.568 128.172 234.051C128.18 234.151 128.19 234.245 128.198 234.333C128.283 234.341 128.373 234.352 128.468 234.36C130.329 234.512 132.737 234.56 136.487 234.574L140.715 234.58L191.929 234.581V183.366ZM383.858 183.366C383.858 177.054 383.841 173.601 383.638 171.119C383.63 171.024 383.619 170.934 383.611 170.849C383.523 170.841 383.429 170.831 383.329 170.823C380.846 170.62 377.388 170.603 371.065 170.603H332.679C326.355 170.603 322.893 170.62 320.405 170.823C320.307 170.831 320.215 170.841 320.127 170.849C320.119 170.937 320.109 171.029 320.101 171.127C319.898 173.615 319.881 177.078 319.881 183.401V221.787C319.881 228.11 319.898 231.568 320.101 234.051C320.109 234.151 320.119 234.245 320.127 234.333C320.212 234.341 320.302 234.352 320.397 234.36C322.258 234.512 324.666 234.56 328.416 234.574L332.644 234.58L383.858 234.581V183.366ZM234.579 298.555C234.579 345.666 196.388 383.857 149.277 383.857C137.5 383.857 127.952 374.309 127.952 362.532C127.952 350.754 137.5 341.207 149.277 341.207C172.833 341.207 191.929 322.111 191.929 298.555V277.231L140.714 277.23C135.106 277.23 129.615 277.246 124.993 276.869C120.124 276.471 114.373 275.532 108.587 272.583C100.539 268.483 94.0276 261.938 89.9503 253.936C87.0023 248.15 86.0618 242.402 85.6632 237.526C85.2852 232.902 85.3019 227.406 85.3019 221.787V183.401C85.3019 177.781 85.2853 172.282 85.6632 167.656C86.0613 162.782 87.0004 157.027 89.9503 151.238L90.3409 150.49C94.4487 142.807 100.813 136.562 108.587 132.601C114.376 129.651 120.131 128.712 125.005 128.314C129.632 127.936 135.13 127.953 140.75 127.953H179.136C184.755 127.953 190.251 127.936 194.875 128.314C199.599 128.7 205.141 129.595 210.743 132.331L211.285 132.601L212.031 132.991C219.694 137.087 225.96 143.441 229.933 151.238C232.881 157.024 233.821 162.775 234.219 167.645C234.597 172.267 234.579 177.758 234.579 183.366V298.555ZM426.508 298.555C426.508 345.666 388.317 383.857 341.206 383.857C329.429 383.857 319.881 374.309 319.881 362.532C319.881 350.754 329.429 341.207 341.206 341.207C364.762 341.207 383.858 322.111 383.858 298.555V277.231L332.643 277.23C327.035 277.23 321.544 277.246 316.922 276.869C312.052 276.471 306.302 275.532 300.516 272.583C292.467 268.483 285.956 261.938 281.879 253.936C278.931 248.15 277.991 242.402 277.592 237.526C277.214 232.902 277.231 227.406 277.231 221.787V183.401C277.231 177.781 277.214 172.282 277.592 167.656C277.99 162.782 278.929 157.027 281.879 151.238L282.27 150.49C286.377 142.807 292.741 136.562 300.516 132.601C306.305 129.651 312.059 128.712 316.934 128.314C321.56 127.936 327.059 127.953 332.679 127.953H371.065C376.684 127.953 382.18 127.936 386.804 128.314C391.528 128.7 397.07 129.595 402.672 132.331L403.214 132.601L403.96 132.991C411.623 137.087 417.889 143.441 421.861 151.238C424.81 157.024 425.749 162.775 426.147 167.645C426.524 172.267 426.508 177.758 426.508 183.366V298.555Z" fill="white"/>
</svg>
