<svg width="512" height="512" viewBox="0 0 512 512" fill="none" xmlns="http://www.w3.org/2000/svg">
<path d="M328.027 74.8937C336.325 72.1974 345.245 72.1139 353.583 74.6418L354.387 74.8937L354.961 75.0861C360.853 77.1115 365.402 80.3965 369.006 83.4562C372.537 86.4532 376.402 90.3413 380.358 94.2971L417.459 131.4C421.433 135.373 425.332 139.249 428.336 142.787C431.502 146.516 434.906 151.249 436.914 157.428C439.61 165.728 439.694 174.647 437.167 182.983L436.914 183.787C434.907 189.963 431.505 194.693 428.342 198.419C425.341 201.955 421.447 205.827 417.479 209.794C417.463 209.81 417.446 209.826 417.429 209.842L222.086 405.186H426.507C438.285 405.186 447.833 414.733 447.833 426.511C447.833 438.289 438.285 447.836 426.507 447.836H85.3013C73.5236 447.836 63.9761 438.289 63.9761 426.511V341.209C63.9761 335.553 66.2229 330.129 70.2222 326.13L302 94.3517L302.106 94.2463C306.044 90.3083 309.888 86.4441 313.401 83.4621C317.124 80.3016 321.852 76.9 328.027 74.8937ZM106.626 350.042V405.185H161.769L311.046 255.907L255.904 200.765L106.626 350.042ZM341.001 115.978C339.105 117.587 336.654 120.015 332.195 124.474L286.063 170.606L341.206 225.748L387.32 179.635C391.785 175.17 394.216 172.716 395.828 170.818C395.89 170.745 395.945 170.673 396 170.607C395.944 170.539 395.886 170.466 395.823 170.391C394.208 168.488 391.772 166.029 387.301 161.558L350.199 124.456C345.746 120.003 343.299 117.579 341.407 115.973C341.337 115.914 341.27 115.86 341.207 115.808C341.142 115.862 341.073 115.917 341.001 115.978Z" fill="white"/>
</svg>
