<svg width="512" height="512" viewBox="0 0 512 512" fill="none" xmlns="http://www.w3.org/2000/svg">
<path d="M328.026 74.8937C336.325 72.1974 345.245 72.1139 353.582 74.6418L354.387 74.8937L354.961 75.0861C360.853 77.1115 365.401 80.3965 369.006 83.4562C372.537 86.4532 376.402 90.3413 380.357 94.2971L417.459 131.4C421.433 135.373 425.332 139.249 428.336 142.787C431.501 146.516 434.905 151.249 436.913 157.428C439.61 165.728 439.694 174.647 437.166 182.983L436.913 183.787C434.907 189.963 431.505 194.693 428.342 198.419C425.341 201.955 421.446 205.827 417.479 209.794C417.462 209.81 417.445 209.826 417.429 209.842L185.682 441.59C181.682 445.589 176.258 447.836 170.603 447.836H85.3008C79.645 447.836 74.221 445.589 70.2217 441.59C66.2224 437.591 63.9756 432.167 63.9756 426.511V341.209C63.9756 335.553 66.2224 330.129 70.2217 326.13L301.999 94.3517L302.105 94.2463C306.043 90.3083 309.887 86.4441 313.4 83.4621C317.124 80.3016 321.852 76.9 328.026 74.8937ZM341.001 115.978C339.105 117.587 336.653 120.015 332.194 124.474L106.626 350.042V405.185H161.769L387.319 179.635C391.785 175.17 394.216 172.716 395.827 170.818C395.889 170.745 395.945 170.673 396 170.607C395.944 170.539 395.886 170.466 395.822 170.391C394.207 168.488 391.772 166.029 387.301 161.558L350.198 124.456C345.745 120.003 343.299 117.579 341.406 115.973C341.337 115.914 341.269 115.86 341.206 115.808C341.141 115.862 341.072 115.917 341.001 115.978Z" fill="white"/>
</svg>
