<svg width="512" height="512" viewBox="0 0 512 512" fill="none" xmlns="http://www.w3.org/2000/svg">
<path d="M234.579 341.207H191.929C168.374 341.207 149.278 360.302 149.278 383.858C149.278 407.413 168.374 426.509 191.929 426.509C215.484 426.509 234.579 407.413 234.579 383.858V341.207ZM234.579 213.254H191.929C168.374 213.254 149.278 232.35 149.278 255.905C149.278 279.461 168.374 298.556 191.929 298.556H234.579V213.254ZM277.244 257.006C277.828 280.053 296.694 298.556 319.881 298.556C343.436 298.556 362.531 279.461 362.531 255.905C362.531 232.35 343.436 213.254 319.881 213.254C296.326 213.254 277.23 232.35 277.23 255.905L277.244 257.006ZM362.531 127.953C362.531 104.398 343.436 85.3019 319.881 85.3019H277.23V170.604H319.881L320.982 170.59C344.028 170.006 362.531 151.14 362.531 127.953ZM149.278 127.953C149.278 151.508 168.374 170.604 191.929 170.604H234.579V85.3019H191.929C168.374 85.3019 149.278 104.398 149.278 127.953ZM405.183 127.953C405.183 153.431 394.012 176.299 376.302 191.929C394.012 207.559 405.183 230.427 405.183 255.905C405.183 303.016 366.992 341.207 319.881 341.207C304.343 341.207 289.777 337.051 277.23 329.793V383.858C277.23 430.968 239.04 469.159 191.929 469.159C144.818 469.159 106.627 430.968 106.627 383.858C106.627 358.38 117.797 335.511 135.507 319.881C117.798 304.251 106.627 281.383 106.627 255.905C106.627 230.428 117.797 207.559 135.506 191.929C117.797 176.299 106.627 153.431 106.627 127.953C106.627 80.8425 144.818 42.6515 191.929 42.6515H319.881C366.992 42.6515 405.183 80.8425 405.183 127.953Z" fill="white"/>
</svg>
