<svg width="512" height="512" viewBox="0 0 512 512" fill="none" xmlns="http://www.w3.org/2000/svg">
<path d="M341.207 405.183V277.231H170.603V405.183C170.603 416.961 161.056 426.508 149.278 426.508C137.5 426.508 127.953 416.961 127.953 405.183V106.627C127.953 94.8496 137.5 85.3021 149.278 85.3021C161.056 85.3021 170.603 94.8496 170.603 106.627V234.579H341.207V106.627C341.207 94.8496 350.754 85.3021 362.532 85.3021C374.309 85.3021 383.857 94.8496 383.857 106.627V405.183C383.857 416.961 374.309 426.508 362.532 426.508C350.754 426.508 341.207 416.961 341.207 405.183Z" fill="white"/>
</svg>
