<svg width="512" height="512" viewBox="0 0 512 512" fill="none" xmlns="http://www.w3.org/2000/svg">
<path d="M213.254 405.183V277.231H85.3018V405.183C85.3017 416.961 75.7542 426.508 63.9766 426.508C52.1989 426.508 42.6514 416.961 42.6514 405.183V106.627C42.6514 94.8496 52.1989 85.3021 63.9766 85.3021C75.7543 85.3021 85.3018 94.8496 85.3018 106.627V234.579H213.254V106.627C213.254 94.8496 222.802 85.3021 234.58 85.3021C246.358 85.3022 255.905 94.8497 255.905 106.627V405.183C255.905 416.961 246.358 426.508 234.58 426.508C222.802 426.508 213.254 416.961 213.254 405.183ZM405.183 405.183V383.858H330.544C323.76 383.858 317.381 380.63 313.362 375.164C309.344 369.699 308.166 362.646 310.189 356.171L363.503 185.568C367.016 174.326 378.977 168.062 390.219 171.575C401.46 175.088 407.725 187.048 404.212 198.289L359.551 341.206H405.183V298.556C405.183 286.778 414.731 277.231 426.509 277.231C438.286 277.231 447.834 286.778 447.834 298.556V341.206C459.612 341.206 469.159 350.755 469.159 362.533C469.159 374.31 459.611 383.858 447.834 383.858V405.183C447.834 416.96 438.286 426.508 426.509 426.508C414.731 426.508 405.183 416.961 405.183 405.183Z" fill="white"/>
</svg>
