<svg width="512" height="512" viewBox="0 0 512 512" fill="none" xmlns="http://www.w3.org/2000/svg">
<path d="M213.254 405.183V277.231H85.302V405.183C85.302 416.961 75.7545 426.508 63.9768 426.508C52.1991 426.508 42.6516 416.961 42.6516 405.183V106.627C42.6516 94.8496 52.1991 85.3021 63.9768 85.3021C75.7545 85.3021 85.302 94.8496 85.302 106.627V234.579H213.254V106.627C213.254 94.8496 222.803 85.3021 234.58 85.3021C246.358 85.3022 255.906 94.8497 255.906 106.627V405.183C255.906 416.961 246.358 426.508 234.58 426.508C222.803 426.508 213.254 416.961 213.254 405.183ZM383.858 405.183V221.516L347.95 233.486C336.777 237.21 324.7 231.171 320.976 219.998C317.251 208.825 323.29 196.747 334.463 193.023L398.44 171.698C404.943 169.53 412.092 170.621 417.653 174.629C423.214 178.637 426.509 185.074 426.509 191.929V405.183C426.509 416.961 416.961 426.508 405.183 426.508C393.405 426.508 383.858 416.96 383.858 405.183Z" fill="white"/>
</svg>
