<svg width="512" height="512" viewBox="0 0 512 512" fill="none" xmlns="http://www.w3.org/2000/svg">
<path d="M426.5 252.25C426.5 230.71 409.045 213.254 387.516 213.254H383.857C360.302 213.254 341.207 232.349 341.207 255.905V266.568C341.207 278.345 331.659 287.893 319.881 287.893C308.104 287.893 298.555 278.345 298.555 266.568V255.905C298.555 208.794 336.746 170.604 383.857 170.604H387.516C432.612 170.604 469.151 207.166 469.151 252.25C469.151 273.896 460.563 294.665 445.247 309.981L371.366 383.86L447.833 383.858C459.61 383.857 469.158 393.404 469.159 405.182C469.159 416.96 459.611 426.508 447.833 426.508L319.881 426.512C311.256 426.512 303.48 421.317 300.179 413.348C296.878 405.379 298.702 396.207 304.801 390.108L415.087 279.822C422.395 272.514 426.499 262.599 426.5 252.25ZM213.253 405.183V277.231H85.3013V405.183C85.3012 416.961 75.7537 426.508 63.9761 426.508C52.1984 426.508 42.6509 416.961 42.6509 405.183V106.627C42.6509 94.8496 52.1984 85.3021 63.9761 85.3021C75.7538 85.3021 85.3013 94.8496 85.3013 106.627V234.579H213.253V106.627C213.253 94.8496 222.802 85.3021 234.58 85.3021C246.357 85.3022 255.905 94.8497 255.905 106.627V405.183C255.905 416.96 246.357 426.508 234.58 426.508C222.802 426.508 213.253 416.961 213.253 405.183Z" fill="white"/>
</svg>
