<svg width="512" height="512" viewBox="0 0 512 512" fill="none" xmlns="http://www.w3.org/2000/svg">
<path d="M341.207 85.3022C352.984 85.3024 362.532 94.8499 362.532 106.627C362.532 118.405 352.984 127.952 341.207 127.953H314.641L241.525 383.858H255.905C267.682 383.858 277.23 393.405 277.23 405.183C277.23 416.961 267.682 426.508 255.905 426.508H170.603C158.825 426.508 149.278 416.961 149.278 405.183C149.278 393.405 158.825 383.858 170.603 383.858H197.167L270.284 127.953H255.905C244.127 127.953 234.58 118.405 234.58 106.627C234.58 94.8497 244.127 85.3022 255.905 85.3022H341.207Z" fill="white"/>
</svg>
