<svg width="512" height="512" viewBox="0 0 512 512" fill="none" xmlns="http://www.w3.org/2000/svg">
<path d="M436.006 323.463C445.805 316.93 459.045 319.578 465.578 329.378C472.111 339.177 469.463 352.418 459.664 358.951L267.735 486.903C260.572 491.678 251.24 491.678 244.077 486.903L52.1481 358.951C42.3486 352.418 39.7002 339.177 46.2331 329.378C52.7661 319.578 66.0067 316.93 75.8063 323.463L255.906 443.529L436.006 323.463ZM436.006 238.161C445.805 231.628 459.045 234.277 465.578 244.076C472.111 253.876 469.463 267.116 459.664 273.649L267.735 401.601C260.572 406.377 251.24 406.377 244.077 401.601L52.1481 273.649C42.3485 267.116 39.7001 253.876 46.2331 244.076C52.7661 234.276 66.0067 231.628 75.8063 238.161L255.906 358.227L436.006 238.161ZM244.414 24.6873C251.531 20.1332 260.684 20.2062 267.735 24.907L459.664 152.86C465.596 156.815 469.16 163.473 469.16 170.603C469.16 177.733 465.596 184.392 459.664 188.347L267.735 316.3C260.572 321.075 251.24 321.075 244.077 316.3L52.1481 188.347C46.2154 184.392 42.652 177.734 42.652 170.603C42.6521 163.473 46.2155 156.815 52.1481 152.86L244.077 24.907L244.414 24.6873ZM102.422 170.603L255.906 272.926L409.389 170.603L255.906 68.281L102.422 170.603Z" fill="white"/>
</svg>
