<svg width="512" height="512" viewBox="0 0 512 512" fill="none" xmlns="http://www.w3.org/2000/svg">
<path d="M106.669 341.206C118.447 341.206 127.994 350.754 127.994 362.531V362.574C127.994 368.319 125.677 373.82 121.566 377.833C117.456 381.846 111.901 384.031 106.158 383.894L106.117 383.893C94.5417 383.616 85.3019 374.152 85.3018 362.573V362.531C85.3019 350.754 94.8494 341.206 106.627 341.206H106.669ZM405.183 341.206C416.96 341.206 426.508 350.754 426.508 362.531C426.508 374.309 416.96 383.857 405.183 383.857H191.929C180.151 383.857 170.604 374.309 170.604 362.531C170.604 350.754 180.151 341.206 191.929 341.206H405.183ZM106.669 234.579C118.447 234.58 127.994 244.127 127.994 255.905V255.948C127.994 261.692 125.677 267.193 121.566 271.206C117.456 275.219 111.901 277.404 106.158 277.267L106.117 277.266C94.5417 276.989 85.302 267.525 85.3018 255.947V255.905C85.3019 244.127 94.8493 234.579 106.627 234.579H106.669ZM405.183 234.579C416.96 234.579 426.508 244.127 426.508 255.905C426.508 267.682 416.96 277.23 405.183 277.23H191.929C180.151 277.23 170.604 267.682 170.604 255.905C170.604 244.127 180.151 234.579 191.929 234.579H405.183ZM106.669 127.952C118.447 127.953 127.994 137.5 127.994 149.278V149.321C127.994 155.065 125.677 160.566 121.566 164.579C117.456 168.592 111.9 170.778 106.157 170.64L106.115 170.639C94.5404 170.361 85.302 160.898 85.3018 149.32V149.278C85.3018 137.5 94.8493 127.952 106.627 127.952H106.669ZM405.183 127.952C416.96 127.952 426.508 137.5 426.508 149.278C426.508 161.055 416.96 170.603 405.183 170.603H191.929C180.151 170.603 170.604 161.055 170.604 149.278C170.604 137.5 180.151 127.952 191.929 127.952H405.183Z" fill="white"/>
</svg>
