<svg width="512" height="512" viewBox="0 0 512 512" fill="none" xmlns="http://www.w3.org/2000/svg">
<path d="M319.879 170.602C331.657 170.602 341.205 180.151 341.205 191.928V277.23C341.205 289.008 350.753 298.555 362.531 298.555C374.308 298.555 383.856 289.007 383.856 277.23V255.904C383.856 228.524 375.076 201.869 358.803 179.852C342.53 157.836 319.618 141.617 293.443 133.584C267.268 125.55 239.205 126.124 213.382 135.221C187.563 144.318 165.339 161.466 149.978 184.134C134.619 206.799 126.938 233.784 128.058 261.14C129.179 288.497 139.045 314.777 156.206 336.109C173.365 357.44 196.922 372.704 223.406 379.66C249.885 386.615 277.885 384.891 303.316 374.744C314.255 370.379 326.661 375.708 331.026 386.647C335.391 397.586 330.061 409.992 319.122 414.357C285.218 427.885 247.88 430.186 212.571 420.912C177.266 411.639 145.856 391.289 122.972 362.842C100.09 334.398 86.9368 299.36 85.4428 262.886C83.9489 226.412 94.1917 190.429 114.67 160.209C135.147 129.992 164.776 107.126 199.21 94.9948C233.642 82.8647 271.058 82.0996 305.956 92.8102C340.854 103.521 371.403 125.144 393.102 154.502C414.801 183.859 426.506 219.4 426.506 255.904V277.23C426.506 312.563 397.863 341.206 362.531 341.206C342.976 341.206 325.47 332.432 313.735 318.607C298.533 332.635 278.219 341.206 255.903 341.206C208.792 341.205 170.602 303.015 170.602 255.904C170.602 208.793 208.792 170.602 255.903 170.602C272.226 170.602 287.478 175.189 300.442 183.141C303.79 175.747 311.234 170.602 319.879 170.602ZM213.252 255.904C213.252 279.459 232.348 298.555 255.903 298.555C279.441 298.555 298.527 279.487 298.554 255.956V255.87L298.539 254.769C297.938 231.739 279.079 213.254 255.903 213.254C232.348 213.254 213.253 232.349 213.252 255.904Z" fill="white"/>
</svg>
