<svg width="512" height="512" viewBox="0 0 512 512" fill="none" xmlns="http://www.w3.org/2000/svg">
<path d="M240.824 48.8972C249.152 40.5691 262.655 40.5691 270.983 48.8972L334.96 112.873C343.288 121.201 343.288 134.704 334.96 143.032C326.632 151.36 313.129 151.36 304.801 143.032L277.229 115.461V396.349L304.801 368.778C313.129 360.45 326.632 360.45 334.96 368.778C343.288 377.106 343.287 390.608 334.96 398.936L270.983 462.913C262.655 471.241 249.152 471.241 240.824 462.913L176.849 398.936C168.521 390.608 168.521 377.106 176.849 368.778C185.177 360.45 198.679 360.45 207.007 368.778L234.578 396.349V115.461L207.007 143.032C198.679 151.36 185.177 151.36 176.849 143.032C168.521 134.704 168.521 121.201 176.849 112.873L240.824 48.8972Z" fill="white"/>
</svg>
