<svg width="512" height="512" viewBox="0 0 512 512" fill="none" xmlns="http://www.w3.org/2000/svg">
<path d="M426.509 255.905C426.509 161.683 350.127 85.3016 255.905 85.3015C161.684 85.3015 85.3018 161.683 85.3018 255.905C85.3018 350.127 161.684 426.509 255.905 426.509C350.127 426.508 426.509 350.127 426.509 255.905ZM341.207 234.58C352.985 234.58 362.532 244.127 362.532 255.905C362.532 267.683 352.985 277.23 341.207 277.23H170.604C158.826 277.23 149.278 267.683 149.278 255.905C149.278 244.127 158.826 234.58 170.604 234.58H341.207ZM469.159 255.905C469.159 373.682 373.682 469.159 255.905 469.159C138.128 469.159 42.6514 373.682 42.6514 255.905C42.6514 138.128 138.128 42.6511 255.905 42.6511C373.682 42.6512 469.159 138.128 469.159 255.905Z" fill="white"/>
</svg>
