<svg width="512" height="512" viewBox="0 0 512 512" fill="none" xmlns="http://www.w3.org/2000/svg">
<path d="M405.18 351.87C405.18 340.939 405.076 338.588 404.77 337.048C403.087 328.585 396.475 321.974 388.018 320.292C386.477 319.985 384.125 319.881 373.195 319.881H138.616C127.685 319.881 125.334 319.985 123.793 320.292C115.334 321.974 108.72 328.588 107.037 337.048C106.731 338.588 106.627 340.94 106.627 351.871C106.627 362.802 106.731 365.151 107.037 366.692C108.72 375.149 115.332 381.762 123.793 383.445C125.337 383.752 127.697 383.858 138.616 383.858H373.195C384.113 383.858 386.475 383.752 388.018 383.445C396.477 381.762 403.087 375.152 404.77 366.693C405.076 365.152 405.18 362.801 405.18 351.87ZM405.18 159.941C405.18 149.01 405.076 146.66 404.77 145.119C403.087 136.656 396.475 130.045 388.018 128.363C386.477 128.056 384.125 127.953 373.195 127.953H138.616C127.685 127.953 125.334 128.056 123.793 128.363C115.334 130.046 108.72 136.659 107.037 145.119C106.731 146.66 106.627 149.011 106.627 159.942C106.627 170.873 106.731 173.223 107.037 174.763C108.72 183.221 115.332 189.833 123.793 191.516C125.337 191.823 127.697 191.929 138.616 191.929H373.195C384.113 191.929 386.475 191.823 388.018 191.516C396.477 189.834 403.087 183.224 404.77 174.764C405.076 173.224 405.18 170.872 405.18 159.941ZM447.83 351.87C447.83 360.756 447.934 368.314 446.602 375.013C441.554 400.392 421.718 420.228 396.339 425.276C389.643 426.608 382.094 426.508 373.195 426.508H138.616C129.717 426.508 122.17 426.608 115.473 425.276C90.0965 420.228 70.255 400.393 65.2064 375.012C63.8739 368.313 63.9769 360.758 63.9769 351.871C63.9769 342.984 63.8739 335.426 65.2064 328.727C70.2546 303.348 90.0943 283.508 115.473 278.46C122.172 277.127 129.729 277.231 138.616 277.231H373.195C382.082 277.231 389.64 277.127 396.339 278.46C421.721 283.508 441.554 303.351 446.602 328.727C447.934 335.426 447.83 342.983 447.83 351.87ZM447.83 159.941C447.83 168.828 447.934 176.385 446.602 183.085C441.554 208.463 421.718 228.299 396.339 233.347C389.643 234.679 382.094 234.58 373.195 234.58H138.616C129.717 234.58 122.17 234.679 115.473 233.347C90.0965 228.3 70.255 208.465 65.2064 183.084C63.8739 176.384 63.9769 168.829 63.9769 159.942C63.9769 151.055 63.8739 143.498 65.2064 136.798C70.2546 111.42 90.0943 91.58 115.473 86.5319C122.172 85.1994 129.729 85.3024 138.616 85.3024H373.195C382.082 85.3024 389.64 85.1993 396.339 86.5319C421.721 91.5807 441.554 111.423 446.602 136.798C447.934 143.498 447.83 151.054 447.83 159.941Z" fill="white"/>
</svg>
