<svg width="512" height="512" viewBox="0 0 512 512" fill="none" xmlns="http://www.w3.org/2000/svg">
<path d="M311.544 59.3392C324.393 55.1643 338.232 55.1643 351.081 59.3392C359.69 62.1365 366.691 66.9879 373.136 72.4583C379.389 77.7668 386.425 84.8262 394.612 93.013L418.767 117.168C426.967 125.367 434.034 132.415 439.35 138.679C444.825 145.131 449.681 152.14 452.479 160.751C456.657 173.61 456.645 187.433 452.473 200.273C449.676 208.883 444.825 215.888 439.35 222.339C434.037 228.601 426.972 235.645 418.773 243.843L243.853 418.763C235.655 426.961 228.611 434.027 222.349 439.34C215.898 444.815 208.893 449.666 200.283 452.463C187.443 456.635 173.62 456.647 160.762 452.469C152.15 449.671 145.141 444.815 138.689 439.34C132.425 434.024 125.378 426.956 117.179 418.757L93.0233 394.602C84.8365 386.415 77.7771 379.379 72.4686 373.125C66.9981 366.681 62.1467 359.68 59.3494 351.071C55.1746 338.221 55.1745 324.383 59.3494 311.534C62.1472 302.923 67 295.917 72.4744 289.466C77.7881 283.205 84.8534 276.16 93.0516 267.962L267.973 93.0413C276.171 84.8431 283.215 77.7778 289.476 72.4642C295.928 66.9897 302.933 62.1369 311.544 59.3392ZM337.901 99.9027C333.752 98.5545 329.294 98.5126 325.126 99.7767L324.723 99.9027C323.595 100.269 321.506 101.222 317.073 104.984C312.451 108.906 306.823 114.509 298.131 123.201L286.06 135.27L316.226 165.436C324.555 173.764 324.555 187.267 316.226 195.595C307.898 203.923 294.396 203.923 286.068 195.595L255.902 165.429L225.75 195.581L255.916 225.747C264.244 234.076 264.244 247.578 255.916 255.906C247.588 264.234 234.086 264.234 225.758 255.906L195.592 225.74L165.433 255.897L195.605 286.069C203.933 294.397 203.933 307.899 195.605 316.227C187.277 324.555 173.774 324.555 165.446 316.227L135.275 286.056L123.211 298.12C114.519 306.812 108.917 312.44 104.994 317.063C101.233 321.495 100.28 323.585 99.9129 324.713C98.5213 328.996 98.5213 333.608 99.9129 337.891C100.278 339.015 101.227 341.099 104.983 345.524C108.902 350.14 114.497 355.758 123.181 364.443L147.338 388.599C156.029 397.29 161.66 402.896 166.285 406.821C170.723 410.586 172.816 411.54 173.942 411.906C178.216 413.294 182.811 413.294 187.103 411.9C188.232 411.533 190.322 410.58 194.754 406.82C199.375 402.898 205.003 397.296 213.694 388.605L388.615 213.684C397.307 204.992 402.908 199.365 406.83 194.743C410.591 190.312 411.543 188.222 411.91 187.093C413.305 182.801 413.304 178.206 411.916 173.932C411.55 172.806 410.596 170.712 406.83 166.275C402.905 161.649 397.3 156.018 388.609 147.327L364.453 123.171C355.769 114.487 350.15 108.892 345.534 104.973C341.109 101.217 339.025 100.268 337.901 99.9027Z" fill="white"/>
</svg>
