<svg width="512" height="512" viewBox="0 0 512 512" fill="none" xmlns="http://www.w3.org/2000/svg">
<path d="M298.554 183.365C298.554 177.053 298.537 173.599 298.334 171.118C298.326 171.023 298.316 170.934 298.308 170.849C298.219 170.841 298.125 170.831 298.025 170.823C295.542 170.62 292.085 170.603 285.761 170.603H247.376C241.053 170.603 237.591 170.62 235.104 170.823C235.006 170.831 234.913 170.841 234.825 170.849C234.817 170.937 234.807 171.029 234.799 171.127C234.596 173.615 234.579 177.077 234.579 183.4V221.785C234.579 228.108 234.596 231.566 234.799 234.049C234.807 234.149 234.817 234.243 234.825 234.332C234.91 234.339 234.999 234.35 235.094 234.358C237.576 234.561 241.029 234.578 247.341 234.578H298.554V183.365ZM341.204 298.552C341.204 345.662 303.013 383.853 255.903 383.853C244.126 383.853 234.578 374.304 234.578 362.527C234.578 350.75 244.126 341.202 255.903 341.202C279.458 341.202 298.554 322.107 298.554 298.552V277.228H247.341C241.733 277.228 236.242 277.244 231.62 276.867C226.751 276.469 221 275.53 215.214 272.582C207.166 268.481 200.655 261.936 196.577 253.934C193.629 248.148 192.689 242.4 192.29 237.524C191.912 232.9 191.929 227.404 191.929 221.785V183.4C191.929 177.78 191.912 172.282 192.29 167.656C192.688 162.782 193.627 157.027 196.577 151.238C200.666 143.213 207.189 136.69 215.214 132.601C221.003 129.651 226.758 128.712 231.632 128.314C236.258 127.936 241.756 127.953 247.376 127.953H285.761C291.38 127.953 296.876 127.936 301.5 128.314C306.376 128.713 312.124 129.653 317.91 132.601C325.662 136.551 332.046 142.785 336.166 150.488L336.558 151.238L336.828 151.78C339.564 157.382 340.457 162.927 340.843 167.644C341.221 172.266 341.204 177.757 341.204 183.365V298.552Z" fill="white"/>
</svg>
