<svg width="512" height="512" viewBox="0 0 512 512" fill="none" xmlns="http://www.w3.org/2000/svg">
<path d="M298.553 289.99C298.553 283.678 298.536 280.225 298.334 277.743C298.326 277.648 298.315 277.559 298.307 277.474C298.218 277.466 298.124 277.456 298.025 277.448C295.54 277.245 292.082 277.228 285.758 277.228H234.579V328.408C234.579 334.731 234.595 338.19 234.798 340.674C234.807 340.774 234.817 340.868 234.825 340.957C234.91 340.964 234.999 340.975 235.093 340.983C237.575 341.186 241.029 341.202 247.34 341.202H285.792C292.103 341.202 295.554 341.186 298.033 340.983C298.129 340.975 298.221 340.965 298.307 340.957C298.315 340.87 298.326 340.779 298.334 340.682C298.536 338.203 298.553 334.752 298.553 328.44V289.99ZM341.204 328.44C341.204 334.048 341.22 339.537 340.842 344.158C340.444 349.029 339.504 354.775 336.557 360.559C332.468 368.584 325.935 375.118 317.91 379.207C312.126 382.154 306.379 383.093 301.508 383.492C296.888 383.869 291.399 383.853 285.792 383.853H247.34C241.732 383.853 236.242 383.869 231.62 383.492C226.75 383.094 221 382.155 215.213 379.207C207.17 375.108 200.656 368.568 196.577 360.561C193.628 354.774 192.688 349.024 192.29 344.149C191.912 339.524 191.928 334.027 191.928 328.408V213.252C191.928 166.143 230.118 127.953 277.228 127.953C289.006 127.953 298.553 137.5 298.553 149.278C298.553 161.056 289.006 170.603 277.228 170.603C253.674 170.603 234.579 189.698 234.579 213.252V234.578H285.758C291.378 234.578 296.875 234.561 301.5 234.939C306.223 235.325 311.767 236.219 317.37 238.956L317.912 239.226L318.658 239.616C326.324 243.714 332.587 250.069 336.557 257.862V257.863C339.505 263.649 340.444 269.4 340.842 274.269C341.22 278.891 341.204 284.382 341.204 289.99V328.44Z" fill="white"/>
</svg>
