<svg width="512" height="512" viewBox="0 0 512 512" fill="none" xmlns="http://www.w3.org/2000/svg">
<path d="M123.276 59.7515C128.265 42.8556 145.847 32.9057 162.987 37.4976L285.373 70.2847H285.374C302.497 74.8728 312.775 92.2695 308.644 109.413L308.437 110.228L284.589 199.235L368.097 160.292C384.447 152.667 403.841 159.775 411.442 176.075L464.988 290.897V290.898C466.803 294.791 467.782 298.859 468.001 302.902C468.75 305.078 469.159 307.413 469.159 309.843L469.164 436.546L469.153 437.389C468.706 455.03 454.257 469.16 436.543 469.16H138.615C138.576 469.16 138.537 469.158 138.499 469.158C130.341 469.141 122.052 468.078 113.8 465.867C62.6101 452.15 32.2208 399.536 45.939 348.339L123.048 60.5611L123.276 59.7515ZM251.346 426.509H426.513L426.509 344.83L251.346 426.509ZM87.1363 359.378C79.5166 387.816 96.3953 417.048 124.839 424.669C153.28 432.29 182.514 415.412 190.135 386.971L264.641 108.884L161.648 81.2925L87.1363 359.378ZM138.658 354.004C144.4 354.004 149.9 356.32 153.913 360.428C157.925 364.536 160.112 370.09 159.977 375.831L159.976 375.874C159.843 381.529 157.469 386.901 153.375 390.805C149.281 394.71 143.803 396.827 138.147 396.692L138.105 396.691C126.529 396.414 117.29 386.951 117.29 375.372V375.33C117.29 363.552 126.837 354.005 138.615 354.004H138.658ZM270.18 253.014L234.157 387.464L422.092 299.829L377.025 203.188L270.18 253.014Z" fill="white"/>
</svg>
