<svg width="512" height="512" viewBox="0 0 512 512" fill="none" xmlns="http://www.w3.org/2000/svg">
<path d="M383.857 153.478C383.857 141.206 383.84 133.28 383.347 127.246C382.874 121.461 382.072 119.316 381.538 118.267C379.499 114.266 376.236 111.002 372.211 108.951C371.156 108.413 369.009 107.611 363.218 107.138C357.178 106.644 349.241 106.627 336.946 106.627H255.905V170.605L383.857 170.606V153.478ZM447.834 319.881C459.611 319.881 469.159 329.429 469.159 341.207C469.158 352.984 459.611 362.532 447.834 362.532H319.881C308.104 362.532 298.555 352.984 298.555 341.207C298.555 329.429 308.104 319.881 319.881 319.881H447.834ZM85.3013 298.556H213.256L213.255 213.255L85.3013 213.254V298.556ZM85.3013 358.271C85.3013 370.567 85.3184 378.504 85.8121 384.544C86.2853 390.334 87.0878 392.482 87.6255 393.537C89.6762 397.562 92.9404 400.825 96.941 402.863C97.9907 403.398 100.135 404.2 105.92 404.673C111.954 405.166 119.88 405.183 132.152 405.183H213.258L213.257 341.207H85.3013V358.271ZM85.3013 170.603L213.254 170.604L213.253 106.627H132.221C119.926 106.627 111.985 106.644 105.94 107.138C100.144 107.611 97.9942 108.415 96.941 108.951C92.9283 110.996 89.6701 114.254 87.6255 118.267C87.0889 119.32 86.2855 121.469 85.8121 127.266C85.3183 133.31 85.3013 141.252 85.3013 153.547V170.603ZM426.508 191.933C426.508 197.588 424.262 203.013 420.262 207.013C416.263 211.012 410.838 213.259 405.182 213.259L255.906 213.256L255.909 426.508C255.909 432.164 253.662 437.589 249.663 441.588C245.663 445.587 240.239 447.834 234.584 447.834H132.152C120.584 447.834 110.62 447.85 102.447 447.183C94.0253 446.494 85.6427 444.975 77.5777 440.865C65.5277 434.725 55.751 424.925 49.6236 412.899C45.5128 404.831 43.9912 396.448 43.3023 388.018C42.6338 379.837 42.6509 369.862 42.6509 358.271V153.547C42.6509 141.955 42.6339 131.978 43.3023 123.794C43.9909 115.363 45.5116 106.974 49.6236 98.9033C55.7572 86.8654 65.5398 77.0828 77.5777 70.9492C85.648 66.8372 94.037 65.3166 102.468 64.6279C110.652 63.9595 120.63 63.9765 132.221 63.9765H336.946C348.537 63.9765 358.511 63.9594 366.692 64.6279C375.122 65.3169 383.506 66.8384 391.574 70.9492C403.6 77.0767 413.4 86.8533 419.54 98.9033C423.649 106.968 425.169 115.351 425.857 123.772C426.525 131.946 426.508 141.909 426.508 153.478V191.933Z" fill="white"/>
</svg>
