<svg width="512" height="512" viewBox="0 0 512 512" fill="none" xmlns="http://www.w3.org/2000/svg">
<path d="M405.182 341.207H277.23V405.183H358.342C370.614 405.183 378.535 405.166 384.564 404.673C390.342 404.2 392.485 403.399 393.537 402.863C397.549 400.819 400.818 397.55 402.863 393.537C403.399 392.485 404.2 390.343 404.672 384.564C405.165 378.536 405.182 370.615 405.182 358.343V341.207ZM277.23 298.556H405.182V213.254H277.23V298.556ZM106.627 298.556H234.579V213.254H106.627V298.556ZM405.182 153.478C405.182 141.206 405.165 133.28 404.672 127.246C404.2 121.461 403.398 119.316 402.863 118.267C400.824 114.266 397.561 111.002 393.537 108.951C392.481 108.413 390.334 107.611 384.543 107.138C378.503 106.644 370.566 106.627 358.271 106.627H277.23V170.603H405.182V153.478ZM106.627 358.271C106.627 370.567 106.644 378.504 107.137 384.544C107.61 390.334 108.413 392.482 108.951 393.537C111.001 397.562 114.266 400.825 118.266 402.863C119.316 403.398 121.46 404.2 127.246 404.673C133.279 405.166 141.206 405.183 153.477 405.183H234.579V341.207H106.627V358.271ZM106.627 170.603H234.579V106.627H153.546C141.252 106.627 133.31 106.644 127.265 107.138C121.469 107.611 119.319 108.415 118.266 108.951C114.254 110.996 110.995 114.254 108.951 118.267C108.414 119.32 107.611 121.469 107.137 127.266C106.644 133.31 106.627 141.252 106.627 153.547V170.603ZM447.834 358.343C447.834 369.911 447.85 379.871 447.182 388.041C446.494 396.461 444.973 404.837 440.865 412.899C434.731 424.937 424.937 434.732 412.899 440.865C404.837 444.973 396.461 446.494 388.041 447.183C379.87 447.851 369.91 447.834 358.342 447.834H153.477C141.909 447.834 131.946 447.85 123.772 447.183C115.35 446.494 106.968 444.975 98.9029 440.865C86.8529 434.725 77.0762 424.925 70.9488 412.899C66.838 404.831 65.3164 396.448 64.6275 388.018C63.959 379.837 63.9761 369.862 63.9761 358.271V153.547C63.9761 141.955 63.9591 131.978 64.6275 123.794C65.3161 115.363 66.8368 106.974 70.9488 98.9033C77.0824 86.8654 86.865 77.0828 98.9029 70.9492C106.973 66.8372 115.362 65.3166 123.793 64.6279C131.977 63.9595 141.955 63.9765 153.546 63.9765H358.271C369.862 63.9765 379.837 63.9594 388.017 64.6279C396.448 65.3169 404.831 66.8384 412.899 70.9492C424.925 77.0767 434.725 86.8533 440.865 98.9033C444.974 106.968 446.494 115.351 447.182 123.772C447.85 131.946 447.834 141.909 447.834 153.478V358.343Z" fill="white"/>
</svg>
