<svg width="512" height="512" viewBox="0 0 512 512" fill="none" xmlns="http://www.w3.org/2000/svg">
<path d="M426.507 362.531C438.285 362.531 447.833 372.08 447.833 383.858C447.833 395.635 438.285 405.183 426.507 405.183H85.3013C73.5237 405.183 63.9763 395.635 63.9761 383.858C63.9761 372.08 73.5236 362.531 85.3013 362.531H426.507ZM426.507 277.231C438.285 277.231 447.833 286.778 447.833 298.556C447.833 310.333 438.285 319.881 426.507 319.881H85.3013C73.5237 319.881 63.9762 310.333 63.9761 298.556C63.9761 286.778 73.5236 277.231 85.3013 277.231H426.507ZM426.507 191.929C438.285 191.929 447.833 201.476 447.833 213.254C447.833 225.032 438.285 234.579 426.507 234.579H85.3013C73.5236 234.579 63.9762 225.032 63.9761 213.254C63.9761 201.476 73.5236 191.929 85.3013 191.929H426.507ZM426.507 106.627C438.285 106.627 447.833 116.175 447.833 127.952C447.833 139.73 438.285 149.278 426.507 149.278H85.3013C73.5236 149.278 63.9761 139.73 63.9761 127.952C63.9761 116.175 73.5236 106.627 85.3013 106.627H426.507Z" fill="white"/>
</svg>
