<svg width="512" height="512" viewBox="0 0 512 512" fill="none" xmlns="http://www.w3.org/2000/svg">
<path d="M383.858 383.857C395.636 383.857 405.184 393.405 405.184 405.182C405.184 416.96 395.636 426.507 383.858 426.508H127.953C116.175 426.508 106.628 416.96 106.628 405.182C106.628 393.405 116.175 383.857 127.953 383.857H383.858ZM149.278 234.579V106.627C149.278 94.8491 158.826 85.3017 170.604 85.3015C182.381 85.3015 191.93 94.849 191.93 106.627V234.579C191.93 269.912 220.572 298.555 255.905 298.555C291.238 298.555 319.882 269.912 319.882 234.579V106.627C319.882 94.849 329.429 85.3015 341.207 85.3015C352.985 85.3015 362.532 94.849 362.532 106.627V234.579C362.532 293.467 314.794 341.206 255.905 341.206C197.017 341.206 149.278 293.467 149.278 234.579Z" fill="white"/>
</svg>
