<svg width="512" height="512" viewBox="0 0 512 512" fill="none" xmlns="http://www.w3.org/2000/svg">
<path d="M85.3027 63.9761C85.3027 52.1984 94.8502 42.6509 106.628 42.6509C118.406 42.6509 127.953 52.1984 127.953 63.9761V112.858C147.603 95.2796 170.781 81.8326 196.126 73.524C235.133 60.7369 277.208 60.7995 316.176 73.687C355.143 86.5744 388.963 111.611 412.654 145.133C436.344 178.653 448.665 218.885 447.806 259.923C446.946 300.963 432.945 340.645 407.874 373.142C382.801 405.641 347.979 429.241 308.503 440.486C269.027 451.731 226.977 450.025 188.542 435.617C150.108 421.208 117.305 394.857 94.9492 360.433C88.5346 350.556 91.3421 337.348 101.22 330.933C111.097 324.519 124.304 327.326 130.719 337.204C148.106 363.978 173.62 384.473 203.514 395.679C233.407 406.885 266.114 408.213 296.818 399.466C327.522 390.72 354.603 372.366 374.104 347.089C393.607 321.811 404.496 290.946 405.164 259.03C405.833 227.112 396.25 195.821 377.824 169.75C359.401 143.681 333.097 124.205 302.783 114.18C272.47 104.155 239.746 104.108 209.412 114.052C187.528 121.226 167.721 133.325 151.44 149.278H213.255C225.033 149.278 234.58 158.825 234.58 170.603C234.58 182.381 225.033 191.928 213.255 191.928H106.628C94.8502 191.928 85.3027 182.381 85.3027 170.603V63.9761Z" fill="white"/>
</svg>
