<svg width="512" height="512" viewBox="0 0 512 512" fill="none" xmlns="http://www.w3.org/2000/svg">
<path d="M85.2945 404.632C85.007 393.291 75.8671 384.151 64.5269 383.864L63.4254 383.85C51.9024 383.558 42.6512 374.125 42.651 362.532C42.651 350.754 52.1985 341.206 63.9762 341.206C99.3092 341.206 127.953 369.849 127.953 405.182C127.953 416.96 118.404 426.507 106.627 426.507C95.0332 426.507 85.6003 417.256 85.3082 405.733L85.2945 404.632ZM149.278 405.182C149.278 358.072 111.087 319.881 63.9762 319.881C52.1985 319.881 42.651 310.333 42.651 298.555C42.651 286.778 52.1985 277.23 63.9762 277.23C134.642 277.23 191.928 334.516 191.928 405.182C191.928 416.96 182.381 426.507 170.603 426.507C158.825 426.507 149.278 416.96 149.278 405.182ZM213.254 405.182C213.254 322.738 146.42 255.904 63.9762 255.904C52.1985 255.904 42.651 246.356 42.651 234.579C42.6511 222.801 52.1986 213.254 63.9762 213.254C169.975 213.254 255.905 299.183 255.905 405.182C255.905 416.96 246.357 426.507 234.58 426.507C222.802 426.507 213.254 416.96 213.254 405.182ZM426.508 337.007V174.802C426.508 162.531 426.492 154.605 425.999 148.571C425.526 142.785 424.723 140.641 424.188 139.591C422.155 135.602 418.888 132.332 414.852 130.276C413.795 129.738 411.649 128.936 405.863 128.463C399.825 127.969 391.892 127.952 379.596 127.952H132.221C119.926 127.952 111.985 127.969 105.94 128.463C100.144 128.936 97.9943 129.739 96.941 130.276C92.9284 132.321 89.6701 135.579 87.6256 139.591C87.089 140.645 86.2856 142.794 85.8121 148.59C85.3184 154.635 85.3014 162.577 85.3014 174.872V175.938C85.3014 187.716 75.7539 197.263 63.9762 197.263C52.1985 197.263 42.651 187.716 42.651 175.938V174.872C42.651 163.28 42.6339 153.303 43.3023 145.119C43.991 136.687 45.5116 128.299 49.6236 120.228C55.7572 108.19 65.5398 98.4077 77.5777 92.2741C85.648 88.1621 94.037 86.6415 102.468 85.9528C110.652 85.2844 120.63 85.3014 132.221 85.3014H379.596C391.187 85.3014 401.16 85.2842 409.338 85.9528C417.768 86.642 426.148 88.164 434.214 92.2741C446.229 98.396 456.045 108.167 462.19 120.228C466.299 128.293 467.819 136.676 468.507 145.097C469.175 153.271 469.159 163.234 469.159 174.802V337.007C469.159 348.574 469.175 358.535 468.507 366.705C467.819 375.125 466.298 383.501 462.19 391.563C456.059 403.597 446.262 413.404 434.219 419.54C426.156 423.648 417.778 425.168 409.357 425.856C401.186 426.524 391.226 426.507 379.658 426.507H298.555C286.778 426.507 277.23 416.96 277.23 405.182C277.23 393.405 286.778 383.857 298.555 383.857H379.658C391.93 383.857 399.852 383.84 405.882 383.347C411.662 382.875 413.805 382.072 414.856 381.537C418.864 379.495 422.141 376.218 424.188 372.201C424.724 371.149 425.526 369.007 425.999 363.228C426.492 357.199 426.508 349.278 426.508 337.007Z" fill="white"/>
</svg>
