<svg width="512" height="512" viewBox="0 0 512 512" fill="none" xmlns="http://www.w3.org/2000/svg">
<path d="M426.509 153.478C426.509 141.206 426.492 133.28 425.999 127.246C425.526 121.461 424.723 119.316 424.189 118.267C422.15 114.266 418.887 111.002 414.862 108.951C413.807 108.414 411.659 107.611 405.869 107.138C399.829 106.644 391.892 106.627 379.597 106.627H132.222C119.927 106.627 111.985 106.644 105.94 107.138C100.144 107.611 97.9947 108.415 96.9414 108.951C92.9288 110.996 89.6706 114.254 87.626 118.267C87.0894 119.32 86.286 121.469 85.8125 127.266C85.3188 133.31 85.3018 141.252 85.3018 153.547V304.887L149.464 230.031L149.521 229.966C153.773 225.005 157.84 220.235 161.572 216.574C165.453 212.768 170.544 208.536 177.451 206.087H177.452C186.873 202.747 197.153 202.828 206.508 206.292C213.379 208.836 218.412 213.134 222.246 216.999C225.939 220.722 229.953 225.568 234.156 230.611L291.12 298.968L294.044 302.467C296.651 305.571 298.376 307.557 299.808 309.007C299.873 309.074 299.939 309.135 299.999 309.195C300.08 309.129 300.168 309.06 300.259 308.983C302.351 307.218 305.052 304.541 309.894 299.699L320.494 289.1C324.898 284.696 329.137 280.432 332.986 277.188C337.005 273.801 342.174 270.126 348.936 268.175L349.81 267.932C358.867 265.526 368.438 266.19 377.045 269.744C383.54 272.426 388.266 276.637 391.892 280.449C395.363 284.099 399.105 288.801 402.999 293.668L426.509 323.056V153.478ZM191.437 247.023C189.324 249.095 186.633 252.206 181.877 257.755C181.859 257.776 181.839 257.796 181.82 257.817L85.334 370.386C85.3888 376.893 85.5337 381.677 85.9014 385.545C86.38 390.58 87.1242 392.541 87.626 393.526C89.6823 397.562 92.9519 400.831 96.9414 402.863C97.9911 403.398 100.136 404.2 105.921 404.673C111.955 405.166 119.881 405.183 132.152 405.183H379.669C391.941 405.183 399.862 405.166 405.891 404.673C411.668 404.2 413.81 403.399 414.862 402.863C418.864 400.824 422.138 397.55 424.189 393.526C424.523 392.869 424.938 391.833 425.32 389.846L369.694 320.313C365.346 314.877 362.907 311.86 360.987 309.842C360.899 309.749 360.814 309.666 360.735 309.585C360.653 309.653 360.564 309.724 360.473 309.801C358.337 311.601 355.578 314.332 350.652 319.258L340.053 329.858C335.731 334.18 331.56 338.376 327.769 341.576C323.804 344.923 318.715 348.549 312.058 350.514C302.984 353.191 293.2 352.82 284.266 349.276C277.823 346.721 273.091 342.652 269.462 338.978C265.989 335.461 262.234 330.928 258.355 326.272L201.391 257.916C196.704 252.292 194.051 249.138 191.966 247.036C191.873 246.942 191.782 246.857 191.698 246.774C191.616 246.853 191.527 246.934 191.437 247.023ZM319.882 149.278C343.437 149.279 362.532 168.374 362.532 191.929C362.532 215.484 343.437 234.579 319.882 234.579C296.326 234.579 277.231 215.484 277.231 191.929C277.231 168.373 296.327 149.278 319.882 149.278ZM469.159 358.333C469.159 366.71 469.163 374.188 468.925 380.687C469.369 383.668 469.176 386.71 468.368 389.602C467.616 397.532 466.02 405.374 462.19 412.89C456.062 424.916 446.274 434.726 434.226 440.865C426.163 444.973 417.787 446.494 409.366 447.183C401.196 447.851 391.237 447.834 379.669 447.834H132.152C120.584 447.834 110.621 447.851 102.447 447.183C94.0258 446.494 85.6432 444.975 77.5782 440.865C65.5173 434.72 55.7459 424.904 49.6241 412.89C45.7624 405.311 44.1916 397.473 43.4414 389.581C42.7148 381.937 42.6604 372.872 42.6524 362.551C42.6513 361.164 42.6514 359.735 42.6514 358.272V153.547C42.6514 141.955 42.6344 131.978 43.3028 123.794C43.9914 115.363 45.5121 106.974 49.6241 98.9034C55.7577 86.8655 65.5403 77.0829 77.5782 70.9493C85.6485 66.8373 94.0374 65.3166 102.469 64.628C110.652 63.9596 120.63 63.9766 132.222 63.9766H379.597C391.188 63.9766 401.163 63.9594 409.344 64.628C417.774 65.3169 426.158 66.8383 434.226 70.9493C446.251 77.0767 456.051 86.8534 462.19 98.9034C466.3 106.968 467.82 115.351 468.508 123.773C469.176 131.946 469.159 141.909 469.159 153.478V358.333Z" fill="white"/>
</svg>
