<svg width="512" height="512" viewBox="0 0 512 512" fill="none" xmlns="http://www.w3.org/2000/svg">
<path d="M426.509 255.905C426.509 161.683 350.127 85.3013 255.906 85.3013C161.684 85.3013 85.302 161.683 85.302 255.905C85.3021 350.126 161.684 426.508 255.906 426.508C350.127 426.508 426.509 350.126 426.509 255.905ZM191.929 319.881V191.928C191.929 180.151 201.477 170.603 213.254 170.603C225.032 170.603 234.58 180.151 234.58 191.928V319.881C234.58 331.659 225.032 341.207 213.254 341.207C201.477 341.206 191.929 331.659 191.929 319.881ZM277.231 319.881V191.928C277.231 180.151 286.778 170.603 298.556 170.603C310.334 170.603 319.882 180.151 319.882 191.928V319.881C319.882 331.659 310.333 341.207 298.556 341.207C286.779 341.206 277.231 331.659 277.231 319.881ZM469.159 255.905C469.159 373.682 373.682 469.159 255.906 469.159C138.129 469.159 42.6517 373.682 42.6516 255.905C42.6516 138.128 138.129 42.6509 255.906 42.6509C373.682 42.6509 469.159 138.128 469.159 255.905Z" fill="white"/>
</svg>
