<svg width="512" height="512" viewBox="0 0 512 512" fill="none" xmlns="http://www.w3.org/2000/svg">
<path d="M170.603 117.029C170.603 106.277 170.5 103.962 170.201 102.457C168.52 94.0094 161.909 87.3967 153.438 85.7116C151.897 85.4051 149.546 85.3014 138.615 85.3014C127.682 85.3014 125.322 85.4052 123.782 85.7116C115.322 87.3944 108.719 93.9975 107.037 102.457C106.73 103.997 106.626 106.357 106.626 117.29V394.52C106.626 405.451 106.73 407.803 107.037 409.343C108.722 417.815 115.335 424.426 123.783 426.106C125.323 426.412 127.675 426.515 138.605 426.515C149.538 426.515 151.907 426.412 153.448 426.106C161.9 424.425 168.516 417.81 170.201 409.343C170.463 408.026 170.574 406.096 170.598 398.431L170.603 394.781V117.029ZM405.182 117.029C405.182 106.277 405.079 103.962 404.78 102.457C403.099 94.0094 396.488 87.3967 388.017 85.7116C386.476 85.4051 384.125 85.3014 373.194 85.3014C362.262 85.3014 359.902 85.4052 358.362 85.7116C349.902 87.3943 343.298 93.9973 341.616 102.457C341.309 103.997 341.206 106.357 341.206 117.29V394.52C341.206 405.451 341.309 407.803 341.616 409.343C343.301 417.815 349.914 424.426 358.362 426.106C359.902 426.413 362.255 426.515 373.185 426.515C384.118 426.515 386.487 426.412 388.027 426.106C396.479 424.425 403.096 417.81 404.78 409.343C405.042 408.026 405.153 406.095 405.177 398.431L405.182 394.781V117.029ZM213.253 394.781C213.253 403.501 213.357 411.002 212.032 417.664C206.985 443.036 187.153 462.888 161.768 467.937C155.068 469.27 147.489 469.167 138.605 469.167C129.718 469.167 122.161 469.27 115.461 467.937C90.0705 462.887 70.2512 443.03 65.2055 417.664C63.8729 410.965 63.976 403.407 63.976 394.52V117.29C63.976 108.404 63.8728 100.836 65.2055 94.1364C70.2536 68.7577 90.0827 48.9287 115.461 43.8805C122.161 42.5479 129.729 42.651 138.615 42.651C147.501 42.651 155.059 42.548 161.758 43.8805C187.125 48.9263 206.981 68.7456 212.032 94.1364C213.357 100.798 213.253 108.31 213.253 117.029V394.781ZM447.833 394.781C447.833 403.501 447.936 411.002 446.611 417.664C441.564 443.036 421.733 462.888 396.347 467.937C389.647 469.27 382.069 469.167 373.185 469.167C364.298 469.167 356.74 469.27 350.04 467.937C324.65 462.887 304.83 443.03 299.785 417.664C298.452 410.964 298.555 403.407 298.555 394.52V117.29C298.555 108.404 298.452 100.836 299.785 94.1364C304.833 68.7578 324.662 48.9288 350.04 43.8805C356.74 42.5479 364.308 42.651 373.194 42.651C382.081 42.651 389.639 42.5479 396.338 43.8805C421.705 48.9264 441.56 68.7457 446.611 94.1364C447.936 100.798 447.833 108.31 447.833 117.029V394.781Z" fill="white"/>
</svg>
