<svg width="512" height="512" viewBox="0 0 512 512" fill="none" xmlns="http://www.w3.org/2000/svg">
<path d="M426.508 255.905C426.508 161.683 350.126 85.3016 255.904 85.3015C161.683 85.3015 85.3008 161.683 85.3008 255.905C85.3008 350.127 161.683 426.509 255.904 426.509C350.126 426.508 426.508 350.127 426.508 255.905ZM202.746 173.372C209.432 169.586 217.638 169.689 224.226 173.642L330.853 237.619C337.276 241.473 341.206 248.414 341.206 255.905C341.206 263.396 337.276 270.337 330.853 274.191L224.226 338.168C217.638 342.121 209.432 342.224 202.746 338.438C196.061 334.653 191.928 327.564 191.928 319.882V191.928C191.928 184.246 196.061 177.157 202.746 173.372ZM234.579 282.216L278.431 255.905L234.579 229.594V282.216ZM469.158 255.905C469.158 373.682 373.681 469.159 255.904 469.159C138.127 469.159 42.6504 373.682 42.6504 255.905C42.6504 138.128 138.127 42.6511 255.904 42.6511C373.681 42.6512 469.158 138.128 469.158 255.905Z" fill="white"/>
</svg>
