<svg width="512" height="512" viewBox="0 0 512 512" fill="none" xmlns="http://www.w3.org/2000/svg">
<path d="M122.496 78.5464C131.554 77.3781 139.583 80.0505 145.616 82.5913C151.712 85.1583 158.93 89.0329 166.831 93.2466L379.832 206.847C379.942 206.903 380.054 206.958 380.163 207.016C388.928 211.69 396.821 215.876 402.778 219.791C408.553 223.586 415.82 229.158 419.909 238.02C425.142 249.359 425.142 262.436 419.909 273.775C415.818 282.64 408.546 288.219 402.761 292.023C396.79 295.949 388.879 300.145 380.085 304.835L166.831 418.571C158.921 422.789 151.702 426.661 145.604 429.226C139.56 431.768 131.543 434.427 122.496 433.26C110.721 431.741 100.095 425.385 93.1964 415.686C87.9047 408.246 86.482 399.91 85.8839 393.386C85.2801 386.801 85.3019 378.608 85.3019 369.648V142.176C85.3019 133.216 85.2802 125.019 85.8839 118.43C86.4814 111.908 87.9022 103.564 93.1964 96.1206L93.8536 95.2212C100.759 86.0299 111.087 80.0179 122.496 78.5464ZM127.952 369.648C127.952 379.445 127.974 385.316 128.357 389.493C128.379 389.737 128.402 389.963 128.425 390.174C128.625 390.094 128.84 390.007 129.069 389.911C132.931 388.287 138.121 385.546 146.761 380.938L360.015 267.203C369.549 262.117 375.386 258.979 379.33 256.385C379.591 256.214 379.83 256.052 380.05 255.901C379.837 255.755 379.606 255.599 379.355 255.434C375.451 252.869 369.691 249.77 360.305 244.763C360.208 244.714 360.111 244.666 360.015 244.615L146.761 130.879C138.123 126.273 132.931 123.528 129.064 121.899C128.836 121.803 128.624 121.717 128.426 121.637C128.403 121.849 128.379 122.077 128.357 122.322C127.973 126.504 127.952 132.38 127.952 142.176V369.648Z" fill="white"/>
</svg>
