<svg width="512" height="512" viewBox="0 0 512 512" fill="none" xmlns="http://www.w3.org/2000/svg">
<path d="M437.479 130.637C444.084 126.967 452.137 127.067 458.649 130.899C465.162 134.73 469.16 141.722 469.16 149.278V362.532C469.16 370.088 465.162 377.08 458.649 380.912C452.137 384.744 444.084 384.843 437.479 381.174L277.231 292.148V362.532C277.231 370.088 273.233 377.08 266.721 380.912C260.208 384.744 252.155 384.843 245.55 381.174L53.6211 274.547C46.851 270.786 42.6523 263.65 42.6523 255.905C42.6524 248.161 46.851 241.025 53.6211 237.264L245.55 130.637C252.155 126.967 260.208 127.067 266.721 130.899C273.233 134.73 277.231 141.722 277.231 149.278V219.662L437.479 130.637ZM107.889 255.905L234.581 326.289V185.521L107.889 255.905ZM299.817 255.905L426.51 326.289V185.521L299.817 255.905Z" fill="white"/>
</svg>
