<svg width="512" height="512" viewBox="0 0 512 512" fill="none" xmlns="http://www.w3.org/2000/svg">
<path d="M234.58 255.905C234.58 208.794 196.389 170.603 149.278 170.603H63.9761C52.1985 170.603 42.6511 161.055 42.6509 149.278C42.6509 137.5 52.1984 127.952 63.9761 127.952H149.278C219.944 127.952 277.23 185.239 277.23 255.905C277.23 303.015 315.421 341.206 362.532 341.206H396.35L368.778 313.634C360.45 305.306 360.45 291.804 368.778 283.476C377.106 275.148 390.608 275.148 398.936 283.476L462.913 347.453C471.24 355.781 471.241 369.283 462.913 377.611L398.936 441.587C390.608 449.915 377.106 449.915 368.778 441.587C360.45 433.259 360.45 419.756 368.778 411.428L396.349 383.857H362.532C291.866 383.857 234.58 326.571 234.58 255.905ZM200.447 324.155C209.864 317.082 223.232 318.982 230.305 328.399C237.378 337.816 235.478 351.184 226.061 358.257C204.678 374.318 178.063 383.857 149.278 383.857H63.9761C52.1985 383.857 42.651 374.309 42.6509 362.532C42.6509 350.754 52.1984 341.206 63.9761 341.206H149.278C168.501 341.206 186.188 334.865 200.447 324.155ZM368.778 70.2221C377.106 61.894 390.608 61.8941 398.936 70.2221L462.913 134.198C466.912 138.197 469.159 143.622 469.159 149.278C469.159 154.933 466.912 160.358 462.913 164.357L398.936 228.332C390.608 236.661 377.106 236.661 368.778 228.332C360.45 220.004 360.45 206.502 368.778 198.174L396.349 170.603H362.532C343.304 170.603 325.617 176.939 311.363 187.646C301.946 194.719 288.578 192.82 281.504 183.403C274.431 173.986 276.331 160.618 285.748 153.544C307.135 137.48 333.751 127.952 362.532 127.952H396.349L368.778 100.38C360.45 92.0522 360.45 78.5502 368.778 70.2221Z" fill="white"/>
</svg>
