<svg width="512" height="512" viewBox="0 0 512 512" fill="none" xmlns="http://www.w3.org/2000/svg">
<path d="M341.207 405.182V302.707C338.659 304.861 336 306.882 333.301 308.807C323.343 315.912 309.916 323.718 293.736 333.157C293.721 333.166 293.706 333.175 293.691 333.183L293.511 333.288L241.327 363.728C224.862 373.333 211.244 381.3 200.003 386.545C188.871 391.739 176.882 395.866 164.109 394.564C146.038 392.722 129.601 383.293 118.896 368.601C111.335 358.224 108.861 345.789 107.739 333.556C106.606 321.206 106.627 305.431 106.627 286.371V225.436C106.627 206.376 106.606 190.603 107.739 178.256C108.861 166.024 111.336 153.594 118.896 143.218C129.591 128.538 146.023 119.085 164.109 117.241C176.884 115.939 188.873 120.069 200.005 125.263C211.246 130.508 224.863 138.476 241.327 148.08L293.556 178.547C309.796 188.02 323.264 195.852 333.25 202.974C335.966 204.912 338.644 206.944 341.207 209.112V106.627C341.207 94.8491 350.754 85.3017 362.532 85.3015C374.309 85.3015 383.858 94.849 383.858 106.627V405.182C383.858 416.96 374.309 426.508 362.532 426.508C350.754 426.507 341.207 416.96 341.207 405.182ZM149.278 286.371C149.278 306.273 149.3 319.721 150.211 329.66C151.134 339.715 152.749 342.636 153.368 343.485C156.931 348.375 162.402 351.519 168.434 352.134C169.479 352.24 172.818 352.164 181.971 347.893C191.017 343.673 202.646 336.915 219.835 326.887L272.066 296.421L272.111 296.394L272.291 296.29C289.172 286.442 300.553 279.777 308.531 274.086C316.593 268.334 318.285 265.514 318.712 264.551C321.15 259.049 321.151 252.776 318.713 247.275C318.283 246.304 316.579 243.472 308.484 237.698C300.469 231.982 289.031 225.285 272.066 215.388L219.835 184.921C202.645 174.893 191.016 168.134 181.97 163.913C172.816 159.641 169.478 159.565 168.434 159.672C162.417 160.285 156.94 163.43 153.368 168.333C152.749 169.182 151.134 172.101 150.211 182.153C149.3 192.089 149.278 205.534 149.278 225.436V286.371Z" fill="white"/>
</svg>
