<svg width="512" height="512" viewBox="0 0 512 512" fill="none" xmlns="http://www.w3.org/2000/svg">
<path d="M362.532 225.436C362.532 205.536 362.509 192.091 361.596 182.156C360.673 172.105 359.057 169.184 358.437 168.333C354.866 163.432 349.387 160.285 343.368 159.672C342.326 159.565 338.992 159.64 329.848 163.907C320.811 168.124 309.193 174.876 292.017 184.895C292.002 184.904 291.987 184.911 291.972 184.92L291.973 184.921L239.744 215.388C222.778 225.285 211.341 231.982 203.327 237.698C195.233 243.471 193.53 246.303 193.099 247.275C190.662 252.776 190.662 259.049 193.099 264.551C193.527 265.515 195.22 268.336 203.284 274.089C211.27 279.786 222.668 286.459 239.579 296.324L291.973 326.887C309.164 336.915 320.791 343.673 329.835 347.893C338.987 352.163 342.323 352.24 343.368 352.134C349.402 351.518 354.875 348.374 358.437 343.485C359.057 342.635 360.673 339.712 361.596 329.658C362.509 319.72 362.532 306.271 362.532 286.371V225.436ZM405.183 286.371C405.183 305.433 405.202 321.208 404.068 333.559C402.944 345.793 400.469 358.225 392.909 368.601C382.203 383.295 365.762 392.722 347.693 394.564C334.919 395.866 322.932 391.738 311.8 386.544C300.562 381.3 286.947 373.332 270.483 363.728L218.087 333.165C201.903 323.724 188.474 315.915 178.514 308.809C175.814 306.883 173.152 304.862 170.603 302.706V405.182C170.603 416.96 161.056 426.508 149.278 426.508C137.5 426.508 127.953 416.96 127.953 405.182V106.627C127.953 94.849 137.5 85.3015 149.278 85.3015C161.056 85.3015 170.603 94.849 170.603 106.627V209.113C173.166 206.944 175.844 204.912 178.56 202.974C188.545 195.852 202.013 188.02 218.253 178.547L270.483 148.08L270.653 147.981C287.046 138.418 300.61 130.484 311.814 125.257C322.939 120.066 334.923 115.939 347.693 117.241C365.777 119.084 382.212 128.536 392.909 143.218C400.468 153.592 402.944 166.021 404.068 178.254C405.202 190.602 405.183 206.375 405.183 225.436V286.371Z" fill="white"/>
</svg>
