<svg width="512" height="512" viewBox="0 0 512 512" fill="none" xmlns="http://www.w3.org/2000/svg">
<path d="M383.858 174.803C383.858 162.532 383.841 154.606 383.348 148.572C382.875 142.786 382.072 140.642 381.537 139.592C379.499 135.592 376.236 132.328 372.211 130.277C371.156 129.739 369.008 128.937 363.219 128.463C357.178 127.97 349.241 127.953 336.945 127.953H174.872C162.577 127.953 154.636 127.97 148.591 128.463C142.795 128.937 140.645 129.74 139.592 130.277C135.579 132.321 132.321 135.58 130.277 139.592C129.74 140.646 128.937 142.795 128.463 148.591C127.969 154.636 127.952 162.578 127.952 174.873V336.946C127.952 349.241 127.969 357.176 128.463 363.213C128.936 368.999 129.738 371.145 130.277 372.202C132.333 376.237 135.602 379.505 139.592 381.538C140.642 382.072 142.786 382.875 148.571 383.348C154.605 383.841 162.531 383.858 174.803 383.858H337.018C349.29 383.858 357.211 383.841 363.239 383.348C369.018 382.876 371.159 382.074 372.211 381.538C376.213 379.499 379.487 376.225 381.537 372.202C382.073 371.15 382.875 369.007 383.348 363.229C383.841 357.2 383.858 349.279 383.858 337.007V174.803ZM426.508 337.007C426.508 348.575 426.525 358.535 425.857 366.706C425.168 375.126 423.648 383.502 419.54 391.564C413.412 403.591 403.623 413.401 391.574 419.541C383.512 423.649 375.136 425.168 366.715 425.857C358.545 426.525 348.586 426.508 337.018 426.508H174.803C163.235 426.508 153.271 426.525 145.098 425.857C136.676 425.169 128.294 423.65 120.229 419.541C108.168 413.395 98.3964 403.579 92.2746 391.564C88.1645 383.497 86.6424 375.118 85.9533 366.688C85.2847 358.51 85.3019 348.537 85.3019 336.946V174.873C85.3019 163.281 85.2849 153.303 85.9533 145.12C86.6419 136.688 88.1626 128.299 92.2746 120.229C98.4082 108.191 108.191 98.4086 120.229 92.2749C128.299 88.1629 136.688 86.6423 145.119 85.9537C153.303 85.2852 163.281 85.3023 174.872 85.3023H336.945C348.537 85.3023 358.512 85.2851 366.693 85.9537C375.123 86.6426 383.506 88.164 391.574 92.2749C403.6 98.4024 413.4 108.179 419.54 120.229C423.649 128.294 425.168 136.677 425.857 145.098C426.525 153.272 426.508 163.235 426.508 174.803V337.007Z" fill="white"/>
</svg>
