<svg width="512" height="512" viewBox="0 0 512 512" fill="none" xmlns="http://www.w3.org/2000/svg">
<path d="M426.509 255.905C426.509 161.683 350.127 85.3016 255.905 85.3015C161.683 85.3015 85.3015 161.683 85.3015 255.905C85.3016 350.127 161.683 426.509 255.905 426.509C350.127 426.508 426.508 350.127 426.509 255.905ZM298.555 226.041C298.555 219.725 298.537 216.266 298.333 213.787C298.324 213.686 298.313 213.59 298.304 213.5C298.218 213.492 298.127 213.482 298.03 213.474C295.54 213.271 292.075 213.254 285.752 213.254H226.041C219.717 213.254 216.259 213.27 213.775 213.473C213.678 213.481 213.587 213.492 213.5 213.5C213.492 213.587 213.481 213.678 213.473 213.775C213.27 216.259 213.254 219.717 213.254 226.041V285.752C213.254 292.075 213.271 295.54 213.474 298.03C213.482 298.127 213.492 298.218 213.5 298.304C213.59 298.313 213.686 298.324 213.787 298.333C216.266 298.537 219.725 298.555 226.041 298.555H285.752C292.067 298.555 295.532 298.537 298.017 298.333C298.118 298.324 298.214 298.313 298.304 298.304C298.313 298.214 298.324 298.118 298.333 298.017C298.537 295.532 298.555 292.067 298.555 285.752V226.041ZM469.159 255.905C469.159 373.682 373.682 469.159 255.905 469.159C138.128 469.159 42.6512 373.682 42.6511 255.905C42.6511 138.128 138.128 42.6511 255.905 42.6511C373.682 42.6512 469.159 138.128 469.159 255.905ZM341.207 285.752C341.207 291.38 341.221 296.879 340.841 301.512C340.44 306.39 339.496 312.14 336.55 317.923C332.461 325.948 325.948 332.461 317.923 336.55C312.14 339.496 306.39 340.44 301.512 340.841C296.879 341.221 291.38 341.207 285.752 341.207H226.041C220.414 341.207 214.918 341.221 210.288 340.84C205.408 340.438 199.666 339.493 193.888 336.55C185.884 332.471 179.351 325.969 175.252 317.923C172.301 312.131 171.362 306.373 170.965 301.5C170.587 296.872 170.603 291.372 170.603 285.752V226.041C170.603 220.421 170.587 214.925 170.965 210.301C171.363 205.425 172.303 199.675 175.252 193.888C179.341 185.863 185.863 179.341 193.888 175.252C199.675 172.303 205.425 171.363 210.301 170.965C214.925 170.587 220.421 170.603 226.041 170.603H285.752C291.372 170.603 296.872 170.587 301.5 170.965C306.373 171.362 312.131 172.301 317.923 175.252C325.969 179.351 332.471 185.884 336.55 193.888C339.493 199.666 340.438 205.408 340.84 210.288C341.221 214.918 341.207 220.414 341.207 226.041V285.752Z" fill="white"/>
</svg>
