<svg width="512" height="512" viewBox="0 0 512 512" fill="none" xmlns="http://www.w3.org/2000/svg">
<path d="M112.874 91.5418C121.201 83.2142 134.704 83.2142 143.032 91.5418L441.587 390.097C449.915 398.426 449.915 411.929 441.587 420.257C433.259 428.585 419.757 428.584 411.429 420.257L362.441 371.268C362.346 377.248 362.154 382.595 361.761 387.22C361.066 395.401 359.483 407.365 351.418 416.222C341.798 426.789 327.524 431.835 313.4 429.664C301.56 427.843 292.809 419.532 287.126 413.606C280.671 406.874 273.013 397.369 263.96 386.166L228.236 341.956C226.223 339.465 225.204 338.215 224.422 337.343C224.401 337.319 224.379 337.297 224.36 337.275C224.331 337.274 224.3 337.271 224.268 337.269C223.098 337.209 221.486 337.203 218.284 337.203H187.93C173.491 337.203 161.131 337.474 150.536 333.973C131.3 327.619 116.21 312.53 109.856 293.295C106.356 282.699 106.627 270.338 106.627 255.899C106.627 241.46 106.356 229.1 109.856 218.505C116.21 199.269 131.3 184.179 150.536 177.825C155.372 176.227 160.576 175.416 166.178 175.006L112.874 121.701C104.545 113.373 104.545 99.8699 112.874 91.5418ZM319.881 223.911V148.795C319.881 138.534 319.873 131.795 319.591 126.978C319.557 126.394 319.52 125.875 319.483 125.415C319.165 125.749 318.811 126.13 318.417 126.563C315.171 130.133 310.929 135.369 304.48 143.349L291.152 159.844C283.749 169.004 270.322 170.429 261.162 163.027C252.001 155.625 250.576 142.197 257.978 133.037L271.306 116.543C277.406 108.994 282.576 102.582 286.864 97.8679C290.63 93.7266 296.252 87.8996 303.624 84.8601C323.74 76.5657 346.875 84.7447 357.309 103.84C361.132 110.837 361.843 118.903 362.169 124.491C362.541 130.853 362.532 139.089 362.532 148.795V223.911C362.532 235.689 352.984 245.237 341.207 245.237C329.429 245.237 319.881 235.689 319.881 223.911ZM149.278 255.899C149.278 273.713 149.549 277.479 150.354 279.916C152.472 286.327 157.502 291.357 163.914 293.475L164.389 293.62C166.876 294.313 171.229 294.552 187.93 294.552H218.284C223.091 294.552 229.482 294.374 235.662 296.067L236.577 296.329C240.833 297.598 244.866 299.523 248.529 302.037L249.308 302.585L249.791 302.939C254.75 306.644 258.481 311.527 261.409 315.149L297.134 359.358C306.705 371.201 313.014 378.981 317.91 384.086C318.337 384.531 318.734 384.93 319.097 385.291C319.153 384.782 319.211 384.222 319.263 383.607C319.862 376.56 319.881 366.543 319.881 351.316V328.709L208.419 217.247H187.93C170.117 217.247 166.35 217.518 163.914 218.323C157.502 220.441 152.472 225.472 150.354 231.884C149.549 234.32 149.278 238.087 149.278 255.899Z" fill="white"/>
</svg>
