<svg width="512" height="512" viewBox="0 0 512 512" fill="none" xmlns="http://www.w3.org/2000/svg">
<path d="M426.509 204.601C426.509 193.185 426.364 190.915 425.91 189.024C425.38 186.814 424.518 184.733 423.367 182.855C422.355 181.203 420.868 179.523 412.777 171.431L340.393 99.0484C332.303 90.9585 330.611 89.4598 328.961 88.4488C327.041 87.2722 324.96 86.4103 322.798 85.8912C320.915 85.4392 318.649 85.3013 307.199 85.3013H204.591C193.145 85.3013 190.898 85.439 189.015 85.8912C186.858 86.4089 184.781 87.2691 182.856 88.4488C181.241 89.438 179.591 90.8945 171.638 98.8482C171.559 98.9267 171.48 99.0053 171.401 99.0826L171.312 99.1675L99.049 171.431C99.0021 171.478 98.9529 171.523 98.9055 171.57C90.9256 179.551 89.4508 181.221 88.4494 182.855C87.2767 184.769 86.4126 186.855 85.8918 189.024C85.4396 190.907 85.302 193.154 85.302 204.601V307.209C85.302 318.656 85.4397 320.903 85.8918 322.787C86.4109 324.949 87.2727 327.03 88.4494 328.95C89.4605 330.599 90.9589 332.292 99.049 340.382L171.432 412.765C179.524 420.857 181.204 422.344 182.856 423.356C184.798 424.546 186.877 425.407 189.015 425.92C190.891 426.371 193.13 426.508 204.543 426.508H307.246C318.663 426.508 320.922 426.371 322.797 425.92C324.941 425.406 327.025 424.543 328.961 423.356C330.617 422.341 332.315 420.843 340.393 412.765L412.777 340.382C420.855 332.303 422.353 330.606 423.367 328.95C424.522 327.066 425.381 324.99 425.91 322.787C426.364 320.896 426.509 318.625 426.509 307.209V204.601ZM256.968 341.207C268.745 341.207 278.293 350.754 278.293 362.532V364.665C278.293 376.426 268.77 385.967 257.009 385.99L254.885 385.994C249.222 386.005 243.787 383.763 239.779 379.762C235.77 375.762 233.518 370.331 233.518 364.668V362.532C233.518 350.754 243.065 341.207 254.843 341.207H256.968ZM234.58 298.56V277.225C234.58 265.447 244.128 255.9 255.905 255.9C263.772 255.9 271.485 253.724 278.192 249.614C284.896 245.505 290.328 239.628 293.9 232.616C297.471 225.605 299.035 217.741 298.417 209.901C297.798 202.051 295.027 194.538 290.406 188.181C285.779 181.815 279.483 176.851 272.219 173.844C264.952 170.836 257 169.898 249.23 171.13C241.457 172.364 234.17 175.725 228.193 180.833C222.21 185.945 217.764 192.602 215.337 200.082C211.701 211.284 199.672 217.418 188.47 213.783C177.268 210.147 171.133 198.118 174.769 186.916C179.626 171.948 188.525 158.629 200.483 148.41C212.446 138.186 227.013 131.471 242.547 129.006C258.084 126.541 273.995 128.419 288.532 134.437C303.073 140.456 315.66 150.382 324.907 163.105C334.162 175.838 339.7 190.872 340.936 206.548C342.172 222.234 339.044 237.958 331.904 251.975C324.764 265.991 313.895 277.755 300.479 285.978C293.228 290.422 285.388 293.732 277.231 295.838V298.56C277.231 310.338 267.683 319.886 255.905 319.886C244.128 319.886 234.58 310.338 234.58 298.56ZM469.159 307.209C469.159 316.656 469.286 324.816 467.383 332.743V332.744C465.823 339.244 463.256 345.487 459.734 351.235C455.473 358.187 449.609 363.867 442.935 370.541L370.552 442.924C363.878 449.598 358.198 455.462 351.245 459.722C345.55 463.212 339.314 465.818 332.754 467.393C324.827 469.296 316.63 469.159 307.246 469.159H204.543C195.156 469.159 186.984 469.296 179.058 467.393C172.492 465.817 166.261 463.209 160.572 459.722C153.615 455.459 147.934 449.585 141.274 442.924L68.8899 370.541C62.237 363.888 56.3457 358.19 52.0832 351.235C48.5831 345.523 45.9897 339.285 44.4192 332.744C42.5144 324.81 42.6516 316.625 42.6516 307.209V204.601C42.6516 195.184 42.5145 187.002 44.4192 179.068C45.988 172.533 48.5792 166.289 52.0832 160.571C56.3381 153.627 62.2073 147.952 68.8244 141.335L68.9543 141.208L141.274 68.8892L141.511 68.6558L141.607 68.5621C148.085 62.081 153.701 56.293 160.572 52.0826C166.279 48.5853 172.511 45.9903 179.058 44.4185C186.991 42.5138 195.174 42.6509 204.591 42.6509H307.199C316.613 42.6509 324.82 42.5137 332.754 44.4185C339.296 45.989 345.533 48.5824 351.245 52.0826C358.201 56.3451 363.899 62.2361 370.552 68.8892L442.935 141.273C449.386 147.725 455.103 153.258 459.329 159.922L459.734 160.571L460.383 161.655C463.576 167.107 465.922 172.98 467.383 179.068C469.286 186.994 469.159 195.153 469.159 204.601V307.209Z" fill="white"/>
</svg>
