<svg width="512" height="512" viewBox="0 0 512 512" fill="none" xmlns="http://www.w3.org/2000/svg">
<path d="M426.507 204.6C426.507 193.184 426.363 190.913 425.909 189.023C425.378 186.812 424.516 184.732 423.366 182.854C422.353 181.202 420.867 179.522 412.775 171.43L340.391 99.0471C332.301 90.9572 330.609 89.4585 328.959 88.4475C327.039 87.2709 324.958 86.409 322.796 85.8899C320.914 85.4379 318.648 85.3 307.198 85.3H204.589C193.143 85.3 190.897 85.4377 189.013 85.8899C186.856 86.4077 184.779 87.2679 182.854 88.4475C181.24 89.4368 179.59 90.8932 171.636 98.8469C171.558 98.9254 171.479 99.004 171.399 99.0813L171.31 99.1662L99.0473 171.43C99.0004 171.477 98.9512 171.522 98.9038 171.569C90.9239 179.55 89.4491 181.22 88.4477 182.854C87.275 184.768 86.4109 186.854 85.8901 189.023C85.4379 190.906 85.3003 193.153 85.3003 204.6V307.207C85.3003 318.654 85.4379 320.902 85.8901 322.785C86.4092 324.947 87.271 327.028 88.4477 328.948C89.4587 330.598 90.9572 332.291 99.0473 340.381L171.43 412.764C179.522 420.856 181.202 422.342 182.854 423.355C184.796 424.545 186.876 425.406 189.013 425.919C190.889 426.37 193.129 426.507 204.541 426.507H307.245C318.661 426.507 320.92 426.369 322.795 425.919C324.939 425.405 327.023 424.541 328.959 423.355C330.615 422.34 332.313 420.842 340.391 412.764L412.775 340.381C420.854 332.302 422.351 330.604 423.366 328.948C424.52 327.065 425.38 324.989 425.909 322.785C426.363 320.895 426.507 318.624 426.507 307.207V204.6ZM256.966 308.145C268.744 308.145 278.291 317.692 278.291 329.47V331.603C278.291 343.364 268.769 352.905 257.007 352.928L254.883 352.932C249.22 352.943 243.785 350.701 239.777 346.7C235.769 342.7 233.516 337.27 233.516 331.607V329.47C233.516 317.692 243.064 308.145 254.841 308.145H256.966ZM234.579 265.493V180.192C234.579 168.414 244.126 158.866 255.904 158.866C267.681 158.866 277.229 168.414 277.229 180.192V265.493C277.229 277.271 267.681 286.819 255.904 286.819C244.126 286.819 234.579 277.271 234.579 265.493ZM469.158 307.207C469.158 316.655 469.284 324.815 467.381 332.741V332.742C465.821 339.242 463.254 345.485 459.732 351.234C455.471 358.186 449.607 363.865 442.933 370.539L370.55 442.923C363.877 449.597 358.196 455.461 351.244 459.721C345.548 463.211 339.312 465.817 332.752 467.392C324.826 469.295 316.628 469.157 307.245 469.157H204.541C195.155 469.157 186.982 469.295 179.056 467.392C172.49 465.815 166.26 463.208 160.57 459.721C153.614 455.458 147.932 449.583 141.272 442.923L68.8882 370.539C62.2353 363.886 56.344 358.189 52.0815 351.234C48.5813 345.522 45.988 339.284 44.4175 332.742C42.5127 324.809 42.6499 316.624 42.6499 307.207V204.6C42.6499 195.183 42.5128 187 44.4175 179.067C45.9862 172.532 48.5775 166.288 52.0815 160.57C56.3364 153.626 62.2056 147.95 68.8227 141.333L68.9526 141.206L141.272 68.8879L141.509 68.6545L141.605 68.5608C148.083 62.0798 153.699 56.2918 160.57 52.0813C166.277 48.584 172.509 45.989 179.056 44.4172C186.99 42.5125 195.172 42.6496 204.589 42.6496H307.198C316.611 42.6496 324.818 42.5124 332.752 44.4172C339.294 45.9877 345.532 48.5811 351.244 52.0813C358.199 56.3438 363.897 62.2348 370.55 68.8879L442.933 141.272C449.385 147.723 455.101 153.257 459.328 159.921L459.732 160.57L460.381 161.654C463.574 167.105 465.92 172.979 467.381 179.067C469.284 186.993 469.158 195.152 469.158 204.6V307.207Z" fill="white"/>
</svg>
