<svg width="512" height="512" viewBox="0 0 512 512" fill="none" xmlns="http://www.w3.org/2000/svg">
<path d="M405.182 132.152C405.182 119.881 405.165 111.954 404.672 105.921C404.199 100.135 403.397 97.9909 402.862 96.9412C400.83 92.9516 397.561 89.6821 393.525 87.6258C392.469 87.0873 390.323 86.2853 384.537 85.8123C378.5 85.3187 370.566 85.3016 358.271 85.3016H153.546C141.251 85.3016 133.309 85.3186 127.265 85.8123C121.468 86.2858 119.319 87.0892 118.266 87.6258C114.253 89.6703 110.995 92.9286 108.95 96.9412C108.414 97.9945 107.61 100.144 107.137 105.94C106.643 111.985 106.626 119.927 106.626 132.221V216.773C106.626 343.779 202.189 401.19 244.949 420.545C247.519 421.708 248.426 422.1 249.242 422.386C249.773 422.571 250.518 422.8 252.215 423.095C252.271 423.1 252.569 423.134 253.155 423.169C253.929 423.214 254.889 423.241 255.915 423.241C256.941 423.241 257.9 423.214 258.674 423.169C259.263 423.134 259.561 423.099 259.615 423.094C261.296 422.802 262.026 422.578 262.54 422.397C263.345 422.115 264.231 421.731 266.796 420.57L266.853 420.545C309.613 401.19 405.182 343.779 405.182 216.774V132.152ZM256.966 298.555C268.744 298.555 278.291 308.104 278.291 319.882V322.013C278.291 333.775 268.769 343.316 257.008 343.339L254.884 343.344C249.221 343.355 243.786 341.112 239.777 337.112C235.769 333.112 233.517 327.681 233.517 322.018V319.882C233.517 308.104 243.064 298.556 254.842 298.555H256.966ZM234.578 255.905V170.603C234.578 158.826 244.127 149.278 255.904 149.278C267.682 149.278 277.23 158.826 277.23 170.603V255.905C277.229 267.683 267.682 277.23 255.904 277.23C244.127 277.23 234.578 267.683 234.578 255.905ZM447.833 216.774C447.833 369.91 331.509 438.095 284.44 459.4C284.422 459.409 284.402 459.416 284.383 459.425L284.384 459.426C279.212 461.766 274.848 463.754 266.738 465.146L266.739 465.147C263.217 465.752 259.006 465.892 255.915 465.892C252.824 465.892 248.613 465.752 245.091 465.147C236.971 463.753 232.59 461.768 227.361 459.401C180.292 438.096 63.9756 369.908 63.9756 216.773V132.221C63.9756 120.63 63.9586 110.652 64.627 102.469C65.3156 94.0372 66.8363 85.6482 70.9483 77.5779C77.0819 65.54 86.8645 55.7574 98.9024 49.6238C106.973 45.5118 115.362 43.9912 123.793 43.3025C131.977 42.6341 141.955 42.6512 153.546 42.6512H358.271C369.861 42.6512 379.834 42.6339 388.013 43.3025C396.443 43.9917 404.822 45.5137 412.889 49.6238C424.903 55.7457 434.719 65.517 440.864 77.5779C444.974 85.6429 446.493 94.0255 447.182 102.447C447.85 110.621 447.833 120.584 447.833 132.152V216.774Z" fill="white"/>
</svg>
