<svg width="512" height="512" viewBox="0 0 512 512" fill="none" xmlns="http://www.w3.org/2000/svg">
<path d="M426.508 132.153C426.508 119.881 426.492 111.955 425.999 105.921C425.526 100.135 424.723 97.9912 424.188 96.9416C422.155 92.9521 418.888 89.6825 414.852 87.6261C413.795 87.0877 411.649 86.2857 405.863 85.8127C399.826 85.3191 391.892 85.3019 379.596 85.3019H132.221C119.927 85.3019 111.985 85.3189 105.94 85.8127C100.144 86.2861 97.9944 87.0895 96.9411 87.6261C92.9285 89.6707 89.6702 92.9289 87.6257 96.9416C87.0891 97.9948 86.2856 100.144 85.8122 105.941C85.3185 111.985 85.3014 119.927 85.3014 132.222V379.597C85.3014 391.892 85.3186 399.829 85.8122 405.869C86.2854 411.659 87.088 413.807 87.6257 414.862C89.6763 418.887 92.9405 422.15 96.9411 424.189C97.9907 424.723 100.135 425.526 105.921 425.999C111.954 426.492 119.881 426.509 132.152 426.509H379.658C391.93 426.509 399.851 426.492 405.88 425.999C411.658 425.527 413.8 424.725 414.852 424.189C418.876 422.138 422.149 418.864 424.188 414.862C424.724 413.81 425.526 411.669 425.999 405.891C426.492 399.862 426.508 391.941 426.508 379.669V132.153ZM325.275 177.761C333.1 168.959 346.579 168.166 355.382 175.99C364.184 183.815 364.977 197.294 357.152 206.097L243.417 334.049C239.37 338.602 233.569 341.207 227.478 341.207C221.387 341.207 215.587 338.602 211.54 334.05L154.666 270.074C146.84 261.272 147.632 247.792 156.434 239.967C165.237 232.142 178.716 232.934 186.542 241.736L227.476 287.783L325.275 177.761ZM469.159 379.669C469.159 391.237 469.176 401.196 468.507 409.366C467.819 417.787 466.298 426.163 462.19 434.226C456.051 446.275 446.241 456.063 434.215 462.191C426.152 466.299 417.777 467.819 409.356 468.508C401.186 469.176 391.226 469.159 379.658 469.159H132.152C120.584 469.159 110.621 469.176 102.447 468.508C94.0254 467.82 85.6428 466.3 77.5778 462.191C65.5279 456.051 55.7512 446.252 49.6237 434.226C45.5128 426.158 43.9914 417.774 43.3024 409.344C42.6339 401.163 42.651 391.188 42.651 379.597V132.222C42.651 120.63 42.634 110.653 43.3024 102.469C43.9911 94.0376 45.5117 85.6486 49.6237 77.5783C55.7573 65.5404 65.5399 55.7578 77.5778 49.6242C85.6481 45.5122 94.0371 43.9916 102.468 43.3029C110.652 42.6345 120.63 42.6515 132.221 42.6515H379.596C391.187 42.6515 401.16 42.6343 409.339 43.3029C417.768 43.9921 426.148 45.5141 434.215 49.6242C446.229 55.746 456.045 65.5174 462.19 77.5783C466.299 85.6433 467.819 94.0259 468.507 102.447C469.175 110.621 469.159 120.584 469.159 132.153V379.669Z" fill="white"/>
</svg>
