<svg width="512" height="512" viewBox="0 0 512 512" fill="none" xmlns="http://www.w3.org/2000/svg">
<path d="M426.509 132.152C426.509 119.881 426.492 111.954 425.999 105.921C425.526 100.135 424.723 97.9908 424.189 96.9412C422.156 92.9517 418.888 89.6821 414.853 87.6258C413.796 87.0873 411.649 86.2853 405.863 85.8123C399.826 85.3188 391.892 85.3016 379.597 85.3016H132.222C119.927 85.3016 111.985 85.3186 105.94 85.8123C100.144 86.2858 97.9947 87.0892 96.9414 87.6258C92.9288 89.6703 89.6706 92.9286 87.626 96.9412C87.0894 97.9945 86.286 100.144 85.8125 105.94C85.3188 111.985 85.3018 119.927 85.3018 132.221V379.596C85.3018 391.892 85.3189 399.829 85.8125 405.869C86.2857 411.659 87.0883 413.807 87.626 414.862C89.6767 418.887 92.9409 422.15 96.9414 424.188C97.9911 424.723 100.135 425.526 105.921 425.999C111.955 426.492 119.881 426.509 132.152 426.509H379.658C391.93 426.509 399.851 426.492 405.88 425.999C411.658 425.526 413.801 424.724 414.853 424.188C418.876 422.138 422.15 418.864 424.189 414.862C424.725 413.81 425.527 411.669 425.999 405.89C426.492 399.862 426.509 391.941 426.509 379.669V132.152ZM256.968 308.156C268.745 308.156 278.293 317.705 278.293 329.482V331.614C278.293 337.284 276.034 342.722 272.017 346.723C267.999 350.725 262.554 352.961 256.884 352.939L254.76 352.931C243.015 352.885 233.518 343.351 233.518 331.606V329.482C233.518 317.705 243.065 308.156 254.843 308.156H256.968ZM234.58 265.506V180.204C234.58 168.426 244.128 158.879 255.905 158.879C267.683 158.879 277.23 168.426 277.231 180.204V265.506C277.23 277.283 267.683 286.831 255.905 286.831C244.128 286.831 234.58 277.283 234.58 265.506ZM469.159 379.669C469.159 391.237 469.176 401.196 468.508 409.366C467.819 417.787 466.299 426.163 462.19 434.225C456.051 446.274 446.242 456.062 434.215 462.19C426.152 466.298 417.777 467.819 409.356 468.508C401.186 469.176 391.226 469.159 379.658 469.159H132.152C120.584 469.159 110.621 469.176 102.447 468.508C94.0258 467.819 85.6432 466.3 77.5782 462.19C65.5282 456.05 55.7515 446.251 49.6241 434.225C45.5131 426.157 43.9917 417.774 43.3028 409.344C42.6342 401.163 42.6514 391.188 42.6514 379.596V132.221C42.6514 120.63 42.6344 110.652 43.3028 102.469C43.9914 94.0372 45.5121 85.6482 49.6241 77.5779C55.7577 65.54 65.5403 55.7574 77.5782 49.6238C85.6485 45.5118 94.0374 43.9912 102.469 43.3025C110.652 42.6341 120.63 42.6512 132.222 42.6512H379.597C391.188 42.6512 401.16 42.6339 409.339 43.3025C417.769 43.9917 426.148 45.5137 434.215 49.6238C446.23 55.7457 456.045 65.517 462.19 77.5779C466.3 85.6429 467.82 94.0255 468.508 102.447C469.176 110.621 469.159 120.584 469.159 132.152V379.669Z" fill="white"/>
</svg>
