<svg width="512" height="512" viewBox="0 0 512 512" fill="none" xmlns="http://www.w3.org/2000/svg">
<path d="M426.507 255.904C426.507 161.682 350.125 85.3001 255.903 85.3C216.479 85.3 180.18 98.6754 151.291 121.132L390.674 360.515C413.13 331.626 426.507 295.328 426.507 255.904ZM85.2998 255.904C85.2999 350.125 161.682 426.507 255.903 426.507C295.327 426.507 331.626 413.131 360.515 390.674L121.132 151.291C98.6752 180.18 85.2998 216.479 85.2998 255.904ZM469.157 255.904C469.157 373.68 373.68 469.157 255.903 469.157C138.126 469.157 42.6495 373.68 42.6494 255.904C42.6494 138.127 138.126 42.6497 255.903 42.6497C373.68 42.6497 469.157 138.127 469.157 255.904Z" fill="white"/>
</svg>
