<svg width="512" height="512" viewBox="0 0 512 512" fill="none" xmlns="http://www.w3.org/2000/svg">
<path d="M229.875 69.5078C246.439 62.1331 265.362 62.1331 281.926 69.5078C293.621 74.7148 301.953 84.2085 309.02 94.2089C316.151 104.3 323.989 117.915 333.476 134.348L436.898 313.48C446.386 329.914 454.258 343.509 459.431 354.732C464.558 365.854 468.614 377.817 467.276 390.548C465.38 408.588 455.909 424.966 441.247 435.619C430.891 443.143 418.507 445.609 406.32 446.728C394.023 447.856 378.324 447.835 359.364 447.835H152.445C133.485 447.835 117.785 447.856 105.488 446.728C93.3002 445.609 80.9149 443.143 70.5591 435.619C55.894 424.964 46.4284 408.584 44.5327 390.548C43.1946 377.816 47.2522 365.852 52.3794 354.731C57.5535 343.509 65.4259 329.914 74.9136 313.48L178.353 134.317C187.832 117.9 195.663 104.292 202.79 94.205C209.851 84.2099 218.181 74.7145 229.875 69.5078ZM264.579 108.471C259.057 106.012 252.744 106.012 247.223 108.471C246.263 108.898 243.417 110.616 237.624 118.816C231.894 126.925 225.189 138.497 215.29 155.643L111.85 334.806C101.944 351.964 95.2712 363.566 91.1118 372.588C86.9056 381.711 86.8403 385.04 86.9507 386.09C87.582 392.096 90.7354 397.559 95.6284 401.114C96.4804 401.733 99.3903 403.339 109.385 404.256C119.271 405.163 132.644 405.184 152.445 405.184H359.364C379.165 405.184 392.537 405.163 402.421 404.256C412.415 403.339 415.325 401.733 416.177 401.114C421.073 397.557 424.227 392.093 424.858 386.09C424.968 385.038 424.903 381.709 420.698 372.587C416.539 363.566 409.867 351.963 399.961 334.806L296.539 155.673C286.632 138.515 279.922 126.936 274.189 118.824C268.393 110.622 265.544 108.901 264.579 108.471ZM304.801 262.152C313.129 253.824 326.631 253.824 334.959 262.152C343.288 270.48 343.288 283.982 334.959 292.311L249.659 377.612C241.331 385.94 227.828 385.94 219.5 377.612L176.849 334.962C168.521 326.634 168.521 313.131 176.849 304.803C185.177 296.475 198.679 296.475 207.007 304.803L234.579 332.374L304.801 262.152Z" fill="white"/>
</svg>
