<svg width="512" height="512" viewBox="0 0 512 512" fill="none" xmlns="http://www.w3.org/2000/svg">
<path d="M215.501 57.5267C238.78 37.69 273.031 37.6904 296.309 57.5276L322.347 79.7171C325.498 82.4025 329.399 84.0172 333.507 84.345H333.506L367.605 87.0628H367.607C398.087 89.4952 422.308 113.693 424.742 144.188L424.742 144.195L427.453 178.294L427.488 178.677C427.87 182.507 429.382 186.161 431.844 189.167L432.094 189.466L432.095 189.467L454.273 215.496L454.735 216.043C474.109 239.307 473.96 273.195 454.276 296.293L454.275 296.292L432.098 322.325L432.096 322.327C429.409 325.481 427.787 329.397 427.459 333.503V333.507L424.731 367.602L424.732 367.603C422.319 397.835 398.503 421.925 368.335 424.677L367.621 424.738L333.509 427.459C329.381 427.789 325.478 429.406 322.341 432.079L296.311 454.267L296.309 454.269C273.033 474.105 238.779 474.111 215.498 454.272L215.495 454.27L189.466 432.081L189.169 431.833C186.078 429.302 182.287 427.774 178.298 427.455V427.454L144.188 424.738H144.186C113.685 422.304 89.5093 398.083 87.0755 367.612L84.3479 333.509L84.347 333.505C84.0197 329.404 82.4014 325.494 79.7112 322.337L79.7063 322.332L57.5315 296.294L57.0706 295.747C37.6989 272.487 37.839 238.605 57.5257 215.504L57.5276 215.502L79.7269 189.46C82.3819 186.344 83.9969 182.447 84.3284 178.294L84.3294 178.289L87.0569 144.188C89.4931 113.685 113.744 89.4923 144.213 87.0608L178.287 84.3431L178.673 84.3089C182.652 83.9124 186.415 82.311 189.459 79.7171H189.46L215.501 57.5267ZM268.645 89.9895C261.308 83.737 250.502 83.737 243.164 89.9895L243.163 89.9905L217.122 112.179L217.123 112.18C207.146 120.683 194.742 125.816 181.68 126.859H181.679L147.605 129.575L147.606 129.576C137.979 130.345 130.338 137.992 129.573 147.584V147.589L126.844 181.691C125.804 194.718 120.71 207.125 112.187 217.126L112.185 217.128L89.9866 243.167L89.9876 243.168C83.8364 250.386 83.739 260.952 89.7054 268.283L89.9944 268.63L89.9983 268.635L112.173 294.673L112.959 295.614C120.981 305.409 125.851 317.437 126.863 330.108L129.591 364.21V364.214C130.359 373.838 137.983 381.456 147.578 382.222H147.577L181.688 384.94H181.691C194.347 385.95 206.379 390.801 216.188 398.832L217.13 399.619L217.132 399.621L243.162 421.81C250.498 428.061 261.306 428.061 268.645 421.807L294.675 399.618L294.677 399.617C304.66 391.11 317.062 385.985 330.117 384.944L364.229 382.222L364.677 382.181C374.058 381.218 381.46 373.687 382.216 364.21V364.206L384.944 330.111L385.054 328.886C386.313 316.26 391.406 304.318 399.634 294.663L421.811 268.632L421.813 268.629C428.064 261.293 428.065 250.499 421.811 243.16L421.81 243.158L399.63 217.128V217.127C391.144 207.169 385.982 194.771 384.938 181.687L384.937 181.68L382.226 147.58C381.46 137.979 373.832 130.347 364.217 129.578V129.579L330.117 126.862L330.115 126.861C317.04 125.817 304.651 120.674 294.683 112.179L268.645 89.9895ZM304.8 198.169C313.128 189.841 326.631 189.841 334.959 198.169C343.287 206.497 343.287 220 334.959 228.328L249.658 313.629C241.329 321.957 227.826 321.957 219.498 313.629L176.848 270.979C168.52 262.651 168.52 249.148 176.848 240.82C185.176 232.492 198.678 232.492 207.006 240.82L234.577 268.391L304.8 198.169Z" fill="white"/>
</svg>
