<svg width="512" height="512" viewBox="0 0 512 512" fill="none" xmlns="http://www.w3.org/2000/svg">
<path d="M63.9776 358.271V153.547C63.9776 141.956 63.9605 131.977 64.6289 123.793C65.3176 115.362 66.8382 106.973 70.9502 98.9028C77.0838 86.8651 86.8666 77.0833 98.9043 70.9497C106.975 66.8377 115.364 65.3171 123.795 64.6284C130.956 64.0435 139.491 63.9859 149.279 63.98V42.6509C149.279 30.8732 158.827 21.3257 170.605 21.3257C182.382 21.3258 191.93 30.8732 191.93 42.6509V63.9761H319.882V42.6509C319.882 30.8732 329.43 21.3257 341.208 21.3257C352.986 21.3259 362.533 30.8733 362.533 42.6509V63.98C372.323 63.9859 380.856 64.0432 388.015 64.6284C396.445 65.3176 404.824 66.8396 412.891 70.9497C424.905 77.0715 434.721 86.8421 440.866 98.9028C444.976 106.968 446.495 115.35 447.184 123.772C447.852 131.946 447.835 141.909 447.835 153.477V358.343C447.835 369.911 447.852 379.87 447.184 388.041C446.495 396.461 444.974 404.837 440.866 412.9C434.727 424.949 424.917 434.737 412.891 440.865C404.828 444.973 396.452 446.494 388.031 447.182C379.861 447.85 369.902 447.833 358.334 447.833H153.479C141.91 447.833 131.947 447.85 123.773 447.182C115.352 446.494 106.969 444.974 98.9043 440.865C86.8544 434.725 77.0777 424.926 70.9502 412.9C66.8393 404.832 65.3179 396.449 64.6289 388.018C63.9604 379.837 63.9776 369.862 63.9776 358.271ZM191.93 319.881H234.58V277.23H191.93V319.881ZM153.548 106.627C141.253 106.627 133.311 106.643 127.267 107.137C121.47 107.611 119.321 108.415 118.268 108.952C114.255 110.996 110.997 114.253 108.952 118.266C108.416 119.319 107.612 121.469 107.139 127.266C106.705 132.581 106.643 139.361 106.634 149.278H405.179C405.17 139.346 405.108 132.562 404.674 127.246C404.201 121.46 403.399 119.316 402.864 118.266C400.831 114.277 397.563 111.008 393.527 108.952C392.471 108.413 390.325 107.61 384.539 107.137C378.502 106.644 370.568 106.627 358.272 106.627H153.548ZM106.628 358.271C106.628 370.566 106.645 378.503 107.139 384.543C107.612 390.334 108.414 392.481 108.952 393.537C111.003 397.561 114.267 400.824 118.268 402.863C119.317 403.398 121.461 404.201 127.247 404.673C133.281 405.166 141.207 405.183 153.479 405.183H358.334C370.606 405.183 378.527 405.166 384.556 404.673C390.334 404.201 392.475 403.399 393.527 402.863C397.551 400.813 400.825 397.538 402.864 393.537C403.4 392.485 404.201 390.343 404.674 384.565C405.167 378.536 405.184 370.615 405.184 358.343V191.928H106.628V358.271ZM277.231 335.875C277.231 350.597 265.296 362.532 250.574 362.532H175.936C161.214 362.532 149.28 350.597 149.279 335.875V261.236C149.28 246.514 161.214 234.58 175.936 234.58H250.574C265.296 234.58 277.231 246.514 277.231 261.236V335.875Z" fill="white"/>
</svg>
