<svg width="512" height="512" viewBox="0 0 512 512" fill="none" xmlns="http://www.w3.org/2000/svg">
<path d="M63.9761 358.271V153.548C63.9761 141.956 63.959 131.978 64.6275 123.794C65.3161 115.362 66.8368 106.973 70.9488 98.9031C77.0824 86.8653 86.8651 77.0835 98.9029 70.95C106.973 66.8379 115.362 65.3173 123.793 64.6287C130.955 64.0438 139.49 63.9862 149.278 63.9802V42.6511C149.278 30.8734 158.825 21.3259 170.603 21.3259C182.381 21.326 191.928 30.8735 191.928 42.6511V63.9763H319.88V42.6511C319.88 30.8734 329.429 21.3259 341.207 21.3259C352.984 21.3262 362.532 30.8736 362.532 42.6511V63.9802C372.321 63.9862 380.855 64.0435 388.013 64.6287C396.443 65.3178 404.823 66.8398 412.889 70.95C424.904 77.0718 434.719 86.8423 440.865 98.9031C444.974 106.968 446.494 115.351 447.182 123.772C447.85 131.946 447.834 141.909 447.834 153.477V358.344C447.834 369.911 447.85 379.871 447.182 388.041C446.494 396.461 444.973 404.838 440.865 412.9C434.726 424.949 424.916 434.737 412.889 440.865C404.827 444.973 396.45 446.494 388.03 447.182C379.86 447.85 369.9 447.834 358.333 447.834H153.477C141.909 447.834 131.946 447.85 123.772 447.182C115.35 446.494 106.968 444.974 98.9029 440.865C86.853 434.725 77.0762 424.926 70.9488 412.9C66.8379 404.832 65.3164 396.449 64.6275 388.018C63.959 379.838 63.9761 369.863 63.9761 358.271ZM309.218 277.23C320.996 277.23 330.543 286.779 330.543 298.556C330.543 310.334 320.996 319.881 309.218 319.882H202.591C190.814 319.882 181.265 310.334 181.265 298.556C181.265 286.779 190.814 277.23 202.591 277.23H309.218ZM153.546 106.628C141.252 106.628 133.31 106.644 127.265 107.137C121.468 107.611 119.319 108.415 118.266 108.952C114.254 110.996 110.995 114.254 108.951 118.266C108.414 119.32 107.611 121.469 107.137 127.266C106.703 132.581 106.642 139.362 106.632 149.278H405.177C405.168 139.347 405.107 132.562 404.672 127.246C404.2 121.46 403.398 119.316 402.863 118.266C400.83 114.277 397.562 111.008 393.526 108.952C392.469 108.413 390.324 107.61 384.538 107.137C378.5 106.644 370.566 106.628 358.271 106.628H153.546ZM106.627 358.271C106.627 370.566 106.644 378.503 107.137 384.544C107.61 390.334 108.413 392.481 108.951 393.537C111.001 397.562 114.266 400.825 118.266 402.863C119.316 403.398 121.46 404.201 127.246 404.674C133.279 405.167 141.206 405.183 153.477 405.183H358.333C370.604 405.183 378.525 405.167 384.554 404.674C390.332 404.201 392.474 403.399 393.526 402.863C397.55 400.813 400.824 397.538 402.863 393.537C403.399 392.485 404.2 390.343 404.672 384.565C405.165 378.536 405.182 370.615 405.182 358.344V191.928H106.627V358.271Z" fill="white"/>
</svg>
