<svg width="512" height="512" viewBox="0 0 512 512" fill="none" xmlns="http://www.w3.org/2000/svg">
<path d="M63.9766 358.271V153.547C63.9766 141.956 63.9595 131.977 64.628 123.793C65.3166 115.362 66.8372 106.973 70.9493 98.9028C77.0829 86.8651 86.8656 77.0833 98.9034 70.9497C106.974 66.8377 115.363 65.3171 123.794 64.6284C130.955 64.0435 139.49 63.9859 149.278 63.98V42.6509C149.278 30.8732 158.826 21.3257 170.604 21.3257C182.381 21.3258 191.929 30.8732 191.929 42.6509V63.9761H319.881V42.6509C319.881 30.8732 329.429 21.3257 341.207 21.3257C352.985 21.3259 362.532 30.8733 362.532 42.6509V63.98C372.322 63.9859 380.855 64.0432 388.014 64.6284C396.444 65.3176 404.823 66.8396 412.89 70.9497C424.904 77.0715 434.72 86.8421 440.865 98.9028C444.975 106.968 446.494 115.35 447.183 123.772C447.851 131.946 447.834 141.909 447.834 153.477V358.343C447.834 369.911 447.851 379.87 447.183 388.041C446.494 396.461 444.973 404.837 440.865 412.9C434.726 424.949 424.916 434.737 412.89 440.865C404.827 444.973 396.451 446.494 388.03 447.182C379.86 447.85 369.901 447.833 358.333 447.833H153.478C141.909 447.833 131.946 447.85 123.773 447.182C115.351 446.494 106.968 444.974 98.9034 440.865C86.8534 434.725 77.0767 424.926 70.9493 412.9C66.8383 404.832 65.3169 396.449 64.628 388.018C63.9594 379.837 63.9766 369.862 63.9766 358.271ZM170.647 319.881C176.389 319.881 181.888 322.197 185.9 326.304C189.913 330.412 192.1 335.964 191.966 341.705L191.965 341.748C191.833 347.404 189.457 352.776 185.363 356.681C181.269 360.586 175.791 362.704 170.135 362.569L170.094 362.568C158.518 362.291 149.279 352.827 149.278 341.249V341.207C149.278 329.429 158.826 319.881 170.604 319.881H170.647ZM255.947 319.881C261.69 319.881 267.19 322.197 271.202 326.304C275.215 330.412 277.402 335.964 277.268 341.705L277.267 341.748C277.134 347.404 274.759 352.776 270.665 356.681C266.571 360.586 261.093 362.704 255.437 362.569L255.395 362.568C243.819 362.291 234.579 352.827 234.579 341.249V341.207C234.579 329.429 244.128 319.881 255.905 319.881H255.947ZM341.249 319.881C346.991 319.881 352.491 322.197 356.504 326.304C360.517 330.412 362.703 335.964 362.568 341.705L362.567 341.748C362.435 347.404 360.061 352.776 355.967 356.681C351.873 360.586 346.394 362.704 340.738 362.569L340.696 362.568C329.121 362.291 319.881 352.827 319.881 341.249V341.207C319.881 329.429 329.429 319.881 341.207 319.881H341.249ZM170.647 234.58C176.388 234.58 181.888 236.895 185.9 241.002C189.913 245.11 192.1 250.662 191.966 256.403L191.965 256.446C191.833 262.102 189.458 267.474 185.363 271.379C181.269 275.284 175.791 277.402 170.135 277.267L170.094 277.266C158.518 276.989 149.278 267.526 149.278 255.947V255.905C149.278 244.127 158.826 234.58 170.604 234.58H170.647ZM255.947 234.58C261.689 234.58 267.19 236.895 271.202 241.002C275.215 245.11 277.402 250.662 277.268 256.403L277.267 256.446C277.134 262.102 274.759 267.474 270.665 271.379C266.571 275.284 261.093 277.402 255.437 277.267L255.395 277.266C243.819 276.989 234.579 267.526 234.579 255.947V255.905C234.579 244.127 244.128 234.58 255.905 234.58H255.947ZM341.248 234.58C353.026 234.58 362.573 244.127 362.573 255.905V255.948C362.573 261.692 360.257 267.194 356.147 271.207C352.036 275.219 346.481 277.404 340.738 277.267L340.696 277.266C329.121 276.989 319.881 267.526 319.881 255.947V255.905C319.881 244.127 329.429 234.58 341.207 234.58H341.248ZM153.547 106.627C141.252 106.627 133.31 106.643 127.266 107.137C121.469 107.611 119.32 108.415 118.267 108.952C114.254 110.996 110.996 114.253 108.951 118.266C108.415 119.319 107.611 121.469 107.138 127.266C106.704 132.581 106.642 139.361 106.633 149.278H405.178C405.169 139.346 405.107 132.562 404.673 127.246C404.2 121.46 403.398 119.316 402.863 118.266C400.831 114.277 397.562 111.008 393.526 108.952C392.47 108.413 390.324 107.61 384.538 107.137C378.501 106.644 370.567 106.627 358.272 106.627H153.547ZM106.627 358.271C106.627 370.566 106.644 378.503 107.138 384.543C107.611 390.334 108.414 392.481 108.951 393.537C111.002 397.561 114.266 400.824 118.267 402.863C119.316 403.398 121.461 404.201 127.246 404.673C133.28 405.166 141.206 405.183 153.478 405.183H358.333C370.605 405.183 378.526 405.166 384.555 404.673C390.333 404.201 392.474 403.399 393.526 402.863C397.55 400.813 400.824 397.538 402.863 393.537C403.399 392.485 404.2 390.343 404.673 384.565C405.166 378.536 405.183 370.615 405.183 358.343V191.928H106.627V358.271Z" fill="white"/>
</svg>
