<svg width="512" height="512" viewBox="0 0 512 512" fill="none" xmlns="http://www.w3.org/2000/svg">
<path d="M63.9766 358.271V153.548C63.9766 141.956 63.9595 131.978 64.628 123.794C65.3166 115.362 66.8372 106.973 70.9493 98.9031C77.0829 86.8653 86.8656 77.0835 98.9034 70.95C106.974 66.8379 115.363 65.3173 123.794 64.6287C130.955 64.0438 139.49 63.9862 149.278 63.9802V42.6511C149.278 30.8734 158.826 21.3259 170.604 21.3259C182.381 21.326 191.929 30.8735 191.929 42.6511V63.9763H319.881V42.6511C319.881 30.8734 329.429 21.3259 341.207 21.3259C352.985 21.3262 362.532 30.8736 362.532 42.6511V63.9802C372.322 63.9862 380.855 64.0435 388.014 64.6287C396.444 65.3178 404.823 66.8398 412.89 70.95C424.904 77.0718 434.72 86.8423 440.865 98.9031C444.975 106.968 446.494 115.351 447.183 123.772C447.851 131.946 447.834 141.909 447.834 153.477V358.344C447.834 369.911 447.851 379.871 447.183 388.041C446.494 396.461 444.973 404.838 440.865 412.9C434.726 424.949 424.916 434.737 412.89 440.865C404.827 444.973 396.451 446.494 388.03 447.182C379.86 447.85 369.901 447.834 358.333 447.834H153.478C141.909 447.834 131.946 447.85 123.773 447.182C115.351 446.494 106.968 444.974 98.9034 440.865C86.8534 434.725 77.0767 424.926 70.9493 412.9C66.8383 404.832 65.3169 396.449 64.628 388.018C63.9594 379.838 63.9766 369.863 63.9766 358.271ZM304.802 240.826C313.13 232.498 326.633 232.498 334.961 240.826C343.289 249.154 343.289 262.656 334.961 270.984L249.659 356.286C241.331 364.614 227.828 364.614 219.5 356.286L176.85 313.635C168.522 305.307 168.522 291.804 176.85 283.476C185.178 275.149 198.68 275.149 207.008 283.476L234.579 311.048L304.802 240.826ZM153.547 106.628C141.252 106.628 133.31 106.644 127.266 107.137C121.469 107.611 119.32 108.415 118.267 108.952C114.254 110.996 110.996 114.254 108.951 118.266C108.415 119.32 107.611 121.469 107.138 127.266C106.704 132.581 106.642 139.362 106.633 149.278H405.178C405.169 139.347 405.107 132.562 404.673 127.246C404.2 121.46 403.398 119.316 402.863 118.266C400.831 114.277 397.562 111.008 393.526 108.952C392.47 108.413 390.324 107.61 384.538 107.137C378.501 106.644 370.567 106.628 358.272 106.628H153.547ZM106.627 358.271C106.627 370.566 106.644 378.503 107.138 384.544C107.611 390.334 108.414 392.481 108.951 393.537C111.002 397.562 114.266 400.825 118.267 402.863C119.316 403.398 121.461 404.201 127.246 404.674C133.28 405.167 141.206 405.183 153.478 405.183H358.333C370.605 405.183 378.526 405.167 384.555 404.674C390.333 404.201 392.474 403.399 393.526 402.863C397.55 400.813 400.824 397.538 402.863 393.537C403.399 392.485 404.2 390.343 404.673 384.565C405.166 378.536 405.183 370.615 405.183 358.344V191.928H106.627V358.271Z" fill="white"/>
</svg>
