<svg width="512" height="512" viewBox="0 0 512 512" fill="none" xmlns="http://www.w3.org/2000/svg">
<path d="M405.182 277.23C405.182 194.786 338.349 127.953 255.905 127.953C173.461 127.953 106.627 194.786 106.627 277.23C106.627 359.674 173.461 426.508 255.905 426.508C338.349 426.508 405.182 359.674 405.182 277.23ZM234.58 277.23V191.928C234.58 180.151 244.128 170.603 255.905 170.603C267.683 170.603 277.23 180.151 277.23 191.928V277.23C277.23 289.008 267.683 298.556 255.905 298.556C244.127 298.556 234.58 289.008 234.58 277.23ZM390.103 70.2222C398.431 61.8943 411.934 61.8944 420.262 70.2222L462.913 112.874C471.241 121.202 471.241 134.704 462.913 143.032C454.585 151.36 441.082 151.36 432.754 143.032L390.103 100.381C381.775 92.0533 381.775 78.5503 390.103 70.2222ZM298.556 21.3257C310.333 21.3257 319.881 30.8732 319.881 42.6509C319.881 54.4286 310.333 63.9761 298.556 63.9761H213.254C201.476 63.9759 191.929 54.4285 191.929 42.6509C191.929 30.8733 201.476 21.3258 213.254 21.3257H298.556ZM447.834 277.23C447.834 383.229 361.904 469.159 255.905 469.159C149.906 469.159 63.9764 383.229 63.9764 277.23C63.9766 171.231 149.906 85.3013 255.905 85.3013C361.904 85.3014 447.834 171.231 447.834 277.23Z" fill="white"/>
</svg>
