<svg width="512" height="512" viewBox="0 0 512 512" fill="none" xmlns="http://www.w3.org/2000/svg">
<path d="M213.254 383.858C213.254 407.413 232.35 426.509 255.905 426.509C279.46 426.509 298.556 407.413 298.556 383.858H213.254ZM234.579 277.231V234.581H191.929C180.151 234.581 170.603 225.032 170.603 213.254C170.604 201.477 180.151 191.929 191.929 191.929H234.579V149.279C234.579 137.501 244.127 127.954 255.905 127.954C267.683 127.954 277.23 137.501 277.23 149.279V191.929H319.881C331.658 191.929 341.207 201.477 341.207 213.254C341.207 225.032 331.658 234.581 319.881 234.581H277.23V277.231C277.23 289.009 267.683 298.556 255.905 298.556C244.127 298.556 234.579 289.009 234.579 277.231ZM383.857 213.254C383.857 142.588 326.571 85.3022 255.905 85.3022C185.239 85.3024 127.952 142.589 127.952 213.254V292.637C127.952 302.096 124.188 311.151 117.517 317.822L109.211 326.128C107.856 327.483 107.176 328.167 106.7 328.675C106.684 328.693 106.668 328.709 106.653 328.725C106.653 328.745 106.652 328.766 106.651 328.789C106.629 329.489 106.627 330.451 106.627 332.377C106.627 336.729 106.635 339.109 106.732 340.836C106.737 340.926 106.744 341.009 106.749 341.086C106.82 341.091 106.896 341.097 106.977 341.102C108.686 341.199 111.041 341.208 115.361 341.208H396.45C400.769 341.208 403.129 341.199 404.843 341.102C404.917 341.098 404.987 341.092 405.054 341.087C405.059 341.01 405.066 340.926 405.071 340.836C405.169 339.109 405.177 336.729 405.177 332.377C405.177 330.464 405.173 329.501 405.15 328.808C405.149 328.775 405.146 328.744 405.145 328.715C405.137 328.706 405.128 328.696 405.119 328.686C404.635 328.171 403.953 327.486 402.596 326.128L394.289 317.822C387.61 311.143 383.857 302.083 383.857 292.636V213.254ZM426.508 289.723L434.403 297.619C436.15 299.381 438.136 301.481 439.833 303.844C443.701 309.231 446.207 315.39 447.261 321.812C447.887 325.631 447.827 329.432 447.827 332.377C447.827 338.878 448.11 347.375 445.591 354.843C441.344 367.434 431.472 377.36 418.825 381.625C411.371 384.14 402.889 383.858 396.45 383.858H341.207C341.207 430.969 303.016 469.16 255.905 469.16C209.162 469.16 171.2 431.563 170.61 384.96L170.603 383.858H115.361C108.918 383.858 100.455 384.14 93.0009 381.625C80.3893 377.371 70.4727 367.468 66.2138 354.842C63.6947 347.374 63.9765 338.878 63.9765 332.377C63.9765 329.474 63.9105 325.641 64.539 321.812L64.6435 321.207C65.761 314.96 68.2572 309.026 71.9774 303.845L72.4071 303.261C74.5769 300.37 77.1061 297.916 79.0526 295.969L85.3017 289.719V213.254C85.3019 119.033 161.684 42.6521 255.905 42.6519C350.127 42.6518 426.507 119.033 426.508 213.254V289.723Z" fill="white"/>
</svg>
