<svg width="512" height="512" viewBox="0 0 512 512" fill="none" xmlns="http://www.w3.org/2000/svg">
<path d="M213.254 383.858C213.254 407.413 232.35 426.509 255.905 426.509C279.46 426.509 298.555 407.413 298.555 383.858H213.254ZM383.857 213.254C383.857 142.588 326.571 85.3022 255.905 85.3022C185.239 85.3024 127.952 142.589 127.952 213.254V292.637C127.952 302.096 124.188 311.151 117.517 317.822L109.211 326.128C107.856 327.483 107.176 328.167 106.7 328.675C106.683 328.693 106.668 328.709 106.653 328.725C106.652 328.745 106.652 328.766 106.651 328.789C106.629 329.489 106.627 330.451 106.627 332.377C106.627 336.729 106.634 339.109 106.732 340.836C106.737 340.926 106.744 341.009 106.749 341.086C106.82 341.091 106.896 341.097 106.977 341.102C108.686 341.199 111.041 341.208 115.361 341.208H396.45C400.769 341.208 403.129 341.199 404.842 341.102C404.917 341.098 404.987 341.092 405.053 341.087C405.059 341.01 405.066 340.926 405.071 340.836C405.169 339.109 405.176 336.729 405.176 332.377C405.176 330.464 405.173 329.501 405.15 328.808C405.149 328.775 405.146 328.744 405.145 328.715C405.136 328.706 405.128 328.696 405.119 328.686C404.635 328.171 403.953 327.486 402.595 326.128L394.289 317.822C387.61 311.143 383.857 302.083 383.857 292.636V213.254ZM426.507 289.723L434.403 297.619C436.15 299.381 438.136 301.481 439.833 303.844C443.7 309.231 446.207 315.39 447.26 321.812C447.887 325.631 447.827 329.432 447.827 332.377C447.827 338.878 448.11 347.375 445.59 354.843C441.343 367.434 431.471 377.36 418.825 381.625C411.37 384.14 402.889 383.858 396.45 383.858H341.207C341.207 430.969 303.016 469.16 255.905 469.16C209.162 469.16 171.2 431.563 170.61 384.96L170.603 383.858H115.361C108.917 383.858 100.454 384.14 93.0006 381.625C80.389 377.371 70.4724 367.468 66.2135 354.842C63.6944 347.374 63.9762 338.878 63.9762 332.377C63.9762 329.474 63.9103 325.641 64.5387 321.812L64.6432 321.207C65.7607 314.96 68.257 309.026 71.9772 303.845L72.4069 303.261C74.5766 300.37 77.1058 297.916 79.0524 295.969L85.3014 289.719V213.254C85.3017 119.033 161.684 42.6521 255.905 42.6519C350.126 42.6518 426.507 119.033 426.507 213.254V289.723Z" fill="white"/>
</svg>
