<svg width="512" height="512" viewBox="0 0 512 512" fill="none" xmlns="http://www.w3.org/2000/svg">
<path d="M213.255 383.858C213.255 407.414 232.35 426.509 255.905 426.509C279.46 426.509 298.556 407.414 298.556 383.858H213.255ZM114.734 25.9121C124.14 18.8241 137.511 20.7033 144.599 30.1093C151.687 39.5154 149.808 52.8866 140.402 59.9746C113.931 79.922 93.0769 106.385 79.8708 136.786C75.1781 147.588 62.6165 152.541 51.8142 147.849C41.0119 143.156 36.0591 130.594 40.7517 119.792C56.8924 82.6354 82.3807 50.2922 114.734 25.9121ZM367.222 30.1093C374.31 20.7034 387.682 18.8241 397.088 25.9121C429.441 50.2922 454.929 82.6354 471.07 119.792C475.763 130.594 470.809 143.156 460.007 147.849C449.204 152.541 436.644 147.588 431.951 136.786C418.745 106.385 397.891 79.922 371.42 59.9746C362.014 52.8866 360.134 39.5154 367.222 30.1093ZM127.953 292.638C127.953 302.096 124.188 311.152 117.517 317.822L109.212 326.128C107.857 327.482 107.177 328.167 106.701 328.675C106.685 328.692 106.669 328.709 106.654 328.725C106.653 328.745 106.653 328.767 106.652 328.789C106.63 329.49 106.628 330.451 106.628 332.378C106.628 336.729 106.635 339.109 106.733 340.836C106.738 340.925 106.745 341.009 106.75 341.087C106.821 341.092 106.896 341.098 106.977 341.103C108.686 341.2 111.041 341.207 115.361 341.207H396.45C400.769 341.207 403.13 341.2 404.843 341.103C404.918 341.098 404.988 341.092 405.054 341.088C405.06 341.01 405.066 340.927 405.071 340.837C405.169 339.109 405.177 336.729 405.177 332.377C405.177 330.463 405.174 329.501 405.151 328.809C405.15 328.776 405.147 328.745 405.146 328.717C405.137 328.707 405.128 328.697 405.119 328.686C404.635 328.171 403.954 327.486 402.596 326.129L394.29 317.821C387.611 311.142 383.857 302.083 383.857 292.637V213.255C383.857 142.589 326.571 85.3025 255.905 85.3027C185.239 85.303 127.953 142.589 127.953 213.255V292.638ZM426.509 289.723L432.756 295.971C434.668 297.883 437.227 300.361 439.404 303.26L439.834 303.845L440.192 304.352C443.856 309.616 446.239 315.59 447.26 321.811C447.887 325.631 447.828 329.432 447.828 332.377C447.828 338.877 448.11 347.374 445.591 354.843C441.344 367.433 431.472 377.359 418.825 381.625C411.37 384.139 402.889 383.858 396.45 383.858H341.207C341.207 430.969 303.016 469.16 255.905 469.16C209.162 469.16 171.2 431.563 170.61 384.961L170.603 383.858H115.361C108.917 383.858 100.455 384.14 93.0017 381.626C80.3898 377.372 70.4724 367.468 66.2136 354.842C63.6946 347.374 63.9763 338.878 63.9763 332.378C63.9763 329.475 63.9113 325.641 64.5398 321.811C65.6014 315.343 68.1379 309.193 71.9782 303.845L72.4069 303.261C74.5766 300.37 77.1064 297.916 79.0524 295.97L85.3015 289.721V213.255C85.3015 119.034 161.684 42.6516 255.905 42.6513C350.127 42.6511 426.508 119.033 426.509 213.255V289.723Z" fill="white"/>
</svg>
