<svg width="512" height="512" viewBox="0 0 512 512" fill="none" xmlns="http://www.w3.org/2000/svg">
<path d="M426.508 315.691V153.477C426.508 141.205 426.492 133.279 425.999 127.245C425.526 121.46 424.723 119.315 424.188 118.266C422.155 114.276 418.888 111.007 414.852 108.95C413.795 108.412 411.649 107.61 405.863 107.137C399.825 106.643 391.892 106.626 379.596 106.626H132.221C119.926 106.626 111.985 106.643 105.94 107.137C100.144 107.61 97.9943 108.414 96.941 108.95C92.9284 110.995 89.6701 114.253 87.6256 118.266C87.089 119.319 86.2855 121.468 85.8121 127.265C85.3184 133.309 85.3013 141.251 85.3013 153.546V398.17C85.3013 409.958 85.3228 417.322 85.7965 422.536C85.8296 422.901 85.8634 423.237 85.898 423.546C86.1618 423.379 86.4464 423.196 86.7525 422.993C91.122 420.104 96.8874 415.52 106.092 408.156L138.591 382.157L138.976 381.855C145.03 377.01 150.321 372.666 156.459 369.53C161.614 366.897 167.087 364.991 172.71 363.837C179.564 362.43 186.511 362.531 194.532 362.531H379.658C391.93 362.531 399.855 362.515 405.887 362.022C411.671 361.549 413.815 360.746 414.865 360.211C418.874 358.168 422.142 354.9 424.188 350.885C424.724 349.833 425.526 347.691 425.999 341.913C426.492 335.884 426.508 327.964 426.508 315.691ZM283.475 176.849C291.803 168.521 305.306 168.521 313.634 176.849C321.962 185.177 321.962 198.679 313.634 207.007L286.063 234.578L313.634 262.149C321.962 270.477 321.962 283.98 313.634 292.308C305.306 300.636 291.803 300.636 283.475 292.308L255.904 264.736L228.334 292.308C220.005 300.636 206.502 300.636 198.174 292.308C189.847 283.98 189.847 270.477 198.174 262.149L225.746 234.578L198.174 207.007C189.847 198.679 189.847 185.177 198.174 176.849C206.502 168.521 220.005 168.521 228.334 176.849L255.904 204.419L283.475 176.849ZM469.159 315.691C469.159 327.259 469.175 337.219 468.507 345.389C467.819 353.809 466.298 362.185 462.19 370.248C456.058 382.283 446.269 392.078 434.228 398.213C426.164 402.322 417.783 403.842 409.362 404.53C401.189 405.198 391.226 405.182 379.658 405.182H194.532C184.808 405.182 182.916 405.282 181.284 405.617C179.378 406.008 177.552 406.649 175.863 407.512C174.421 408.249 172.909 409.33 165.474 415.278C165.363 415.367 165.251 415.455 165.138 415.541L165.078 415.587L132.736 441.461C124.195 448.294 116.648 454.359 110.275 458.572C104.233 462.567 95.6789 467.429 85.3453 467.44C72.3541 467.454 60.07 461.547 51.9683 451.397C45.5225 443.322 43.9762 433.608 43.3209 426.395C42.6299 418.788 42.6509 409.108 42.6509 398.17V153.546C42.6509 141.955 42.6339 131.977 43.3023 123.793C43.991 115.362 45.5116 106.973 49.6236 98.9024C55.7572 86.8645 65.5398 77.0819 77.5777 70.9483C85.648 66.8363 94.037 65.3156 102.468 64.627C110.652 63.9586 120.63 63.9756 132.221 63.9756H379.596C391.187 63.9756 401.16 63.9584 409.338 64.627C417.768 65.3161 426.148 66.8382 434.214 70.9483C446.229 77.0701 456.045 86.8415 462.19 98.9024C466.299 106.967 467.819 115.35 468.507 123.772C469.175 131.945 469.159 141.908 469.159 153.477V315.691Z" fill="white"/>
</svg>
