<svg width="512" height="512" viewBox="0 0 512 512" fill="none" xmlns="http://www.w3.org/2000/svg">
<path d="M426.509 315.691V153.477C426.509 141.205 426.492 133.279 425.999 127.245C425.526 121.46 424.723 119.315 424.189 118.266C422.156 114.276 418.888 111.007 414.853 108.95C413.796 108.412 411.649 107.61 405.863 107.137C399.826 106.643 391.892 106.626 379.597 106.626H132.222C119.927 106.626 111.985 106.643 105.94 107.137C100.144 107.61 97.9948 108.414 96.9415 108.95C92.9288 110.995 89.6706 114.253 87.626 118.266C87.0894 119.319 86.286 121.468 85.8126 127.265C85.3188 133.309 85.3018 141.251 85.3018 153.546V398.17C85.3018 409.958 85.3233 417.322 85.7969 422.536C85.83 422.901 85.8639 423.237 85.8985 423.546C86.1622 423.379 86.4469 423.196 86.753 422.993C91.1225 420.104 96.8879 415.52 106.093 408.156L138.592 382.157L138.977 381.855C145.031 377.01 150.322 372.666 156.459 369.53C161.614 366.897 167.088 364.991 172.71 363.837C179.564 362.43 186.512 362.531 194.532 362.531H379.658C391.93 362.531 399.855 362.515 405.888 362.022C411.672 361.549 413.815 360.746 414.865 360.211C418.875 358.168 422.142 354.9 424.189 350.885C424.725 349.833 425.527 347.691 425.999 341.913C426.492 335.884 426.509 327.964 426.509 315.691ZM469.159 315.691C469.159 327.259 469.176 337.219 468.508 345.389C467.819 353.809 466.299 362.185 462.19 370.248C456.059 382.283 446.269 392.078 434.229 398.213C426.164 402.322 417.784 403.842 409.362 404.53C401.189 405.198 391.227 405.182 379.658 405.182H194.532C184.809 405.182 182.916 405.282 181.284 405.617C179.378 406.008 177.553 406.649 175.863 407.512C174.421 408.249 172.91 409.33 165.475 415.278C165.364 415.367 165.251 415.455 165.139 415.541L165.078 415.587L132.736 441.461C124.195 448.294 116.648 454.359 110.275 458.572C104.233 462.567 95.6794 467.429 85.3458 467.44C72.3546 467.454 60.0705 461.547 51.9688 451.397C45.523 443.322 43.9767 433.608 43.3214 426.395C42.6304 418.788 42.6514 409.108 42.6514 398.17V153.546C42.6514 141.955 42.6344 131.977 43.3028 123.793C43.9915 115.362 45.5121 106.973 49.6241 98.9024C55.7577 86.8645 65.5403 77.0819 77.5782 70.9483C85.6485 66.8363 94.0375 65.3156 102.469 64.627C110.653 63.9586 120.63 63.9756 132.222 63.9756H379.597C391.188 63.9756 401.16 63.9584 409.339 64.627C417.769 65.3161 426.148 66.8382 434.215 70.9483C446.23 77.0701 456.045 86.8415 462.19 98.9024C466.3 106.967 467.82 115.35 468.508 123.772C469.176 131.945 469.159 141.908 469.159 153.477V315.691Z" fill="white"/>
</svg>
