<svg width="512" height="512" viewBox="0 0 512 512" fill="none" xmlns="http://www.w3.org/2000/svg">
<path d="M426.508 255.905C426.508 161.683 350.126 85.3013 255.905 85.3013C161.683 85.3013 85.3013 161.683 85.3013 255.905C85.3013 286.451 93.3108 315.063 107.33 339.823L108.064 341.108L109.016 342.743C110.195 344.801 111.908 348.024 112.855 351.452C113.82 354.941 114.196 358.449 113.942 362.165C113.62 366.865 111.97 371.301 111.429 372.921C111.382 373.064 111.332 373.206 111.282 373.348L97.6929 414.114L138.858 400.393C140.501 399.845 144.941 398.193 149.648 397.871L150.341 397.83C153.796 397.665 157.077 398.05 160.353 398.956C164.939 400.223 169.17 402.859 170.813 403.807C195.841 418.242 224.877 426.506 255.908 426.506C350.129 426.506 426.508 350.126 426.508 255.905ZM304.801 198.174C313.129 189.846 326.632 189.846 334.96 198.174C343.289 206.502 343.289 220.005 334.96 228.333L249.659 313.635C241.331 321.963 227.828 321.963 219.5 313.635L176.849 270.984C168.521 262.656 168.521 249.154 176.849 240.826C185.177 232.498 198.68 232.498 207.008 240.826L234.579 268.396L304.801 198.174ZM469.159 255.905C469.159 373.681 373.685 469.158 255.908 469.158C217.675 469.158 181.734 459.077 150.663 441.416L103.39 457.172C103.278 457.212 103.167 457.252 103.054 457.29C98.261 458.887 93.2657 460.575 89.0591 461.563C85.1707 462.477 77.886 463.891 70.0894 461.111C61.0338 457.882 53.9214 450.75 50.7007 441.718C47.9231 433.929 49.3307 426.655 50.2446 422.763C51.2243 418.591 52.8932 413.644 54.478 408.89C54.4961 408.834 54.5142 408.779 54.5327 408.723L70.3911 361.146C52.731 330.076 42.6509 294.136 42.6509 255.905C42.6509 138.128 138.128 42.6509 255.905 42.6509C373.682 42.6509 469.159 138.128 469.159 255.905Z" fill="white"/>
</svg>
