<svg width="512" height="512" viewBox="0 0 512 512" fill="none" xmlns="http://www.w3.org/2000/svg">
<path d="M426.508 245.807C426.508 243.581 426.499 241.659 426.487 239.993L309.116 328.63C309.037 328.69 308.956 328.75 308.875 328.809C296.086 338.188 285.137 346.66 272.529 350.095L271.928 350.256C261.749 352.888 251.071 352.971 240.861 350.503L239.875 350.256C227.021 346.931 215.951 338.356 202.982 328.845C202.886 328.775 202.792 328.702 202.697 328.631L85.3312 240.001C85.3125 241.991 85.3009 244.362 85.3009 247.21V379.595C85.3009 391.89 85.318 399.831 85.8117 405.875C86.2851 411.67 87.0883 413.819 87.6252 414.873C89.6698 418.886 92.928 422.144 96.9406 424.188C97.9903 424.723 100.135 425.525 105.92 425.998C111.954 426.491 119.88 426.508 132.152 426.508H379.657C391.929 426.508 399.85 426.491 405.879 425.998C411.656 425.525 413.799 424.724 414.851 424.188L415.227 423.992C419.085 421.929 422.216 418.738 424.188 414.868C424.723 413.817 425.526 411.674 425.998 405.893C426.491 399.863 426.508 391.94 426.508 379.668V245.807ZM266.496 97.5173C262.853 96.4761 258.999 96.4225 255.341 97.3591C252.201 98.1631 248.602 100.374 231.885 113.015L109.998 205.182L228.401 294.593L228.439 294.623C244.192 306.171 247.574 308.192 250.555 308.964C254.057 309.869 257.746 309.869 261.248 308.964C264.247 308.188 267.663 306.14 283.604 294.451L402.746 204.475L289.517 113.819C273.159 100.722 269.614 98.4083 266.496 97.5173ZM469.158 379.668C469.158 391.236 469.175 401.197 468.507 409.369C467.819 417.79 466.298 426.168 462.19 434.231C456.047 446.287 446.234 456.066 434.214 462.19C426.152 466.298 417.776 467.818 409.356 468.507C401.185 469.175 391.225 469.158 379.657 469.158H132.152C120.583 469.158 110.62 469.174 102.446 468.507C94.0249 467.818 85.6423 466.299 77.5773 462.19C65.5393 456.056 55.7568 446.274 49.6232 434.236C45.5114 426.166 43.9906 417.779 43.3019 409.347C42.6335 401.164 42.6506 391.187 42.6506 379.595V247.21C42.6506 235.988 42.4591 226.23 45.089 216.98C47.2478 209.387 50.7928 202.255 55.5529 195.946C61.342 188.273 69.2213 182.545 78.1867 175.765L206.16 78.9958C219.74 68.7274 231.289 59.4914 244.761 56.0417C255.761 53.2252 267.311 53.3922 278.216 56.5085H278.217C291.587 60.3297 302.881 69.8818 316.174 80.5251L435.575 176.124C444.077 182.931 451.514 188.673 456.979 196.216C461.439 202.372 464.824 209.324 466.873 216.765V216.766C469.338 225.716 469.158 235.105 469.158 245.807V379.668Z" fill="white"/>
</svg>
