<svg width="512" height="512" viewBox="0 0 512 512" fill="none" xmlns="http://www.w3.org/2000/svg">
<path d="M405.179 55.4534C411.975 54.0258 421.106 52.7887 430.312 56.1682C442.062 60.4818 451.333 69.7397 455.652 81.5042C459.032 90.7107 457.793 99.8426 456.365 106.633C454.89 113.652 452.224 122.246 449.277 131.822C449.249 131.915 449.216 132.008 449.186 132.102L362.029 415.364C358.244 427.666 354.999 438.28 351.762 446.24C348.821 453.472 344.07 463.513 334.475 469.508C322.801 476.802 308.307 478.039 295.542 472.742V472.741C285.094 468.406 278.753 459.283 274.659 452.63C270.153 445.307 265.203 435.368 259.443 423.848L204.19 313.342C203.183 311.329 202.679 310.331 202.292 309.626C202.278 309.601 202.264 309.577 202.251 309.554C201.578 309.186 200.632 308.71 198.723 307.755L198.722 307.754L87.961 252.374C76.4434 246.615 66.5061 241.668 59.1856 237.164C52.533 233.072 43.4117 226.733 39.0763 216.284C33.7875 203.539 34.997 189.036 42.3018 177.345C48.2952 167.753 58.3317 162.999 65.5675 160.055C73.5293 156.815 84.1452 153.568 96.4542 149.781L379.967 62.5462C389.554 59.5963 398.154 56.9289 405.179 55.4534ZM413.946 97.1936C409.291 98.1714 402.903 100.113 392.51 103.311L108.997 190.546C95.8903 194.579 87.4427 197.201 81.6427 199.561C81.1768 199.75 80.7525 199.93 80.3663 200.098C80.7189 200.326 81.106 200.574 81.5333 200.837C86.8674 204.119 94.7689 208.093 107.035 214.226L213.964 267.69L308.084 173.571C316.412 165.242 329.915 165.242 338.243 173.571C346.571 181.899 346.571 195.401 338.243 203.729L244.126 297.845L297.591 404.775C303.723 417.039 307.7 424.942 310.983 430.278C311.245 430.703 311.491 431.089 311.719 431.441C311.886 431.056 312.066 430.635 312.254 430.172C314.613 424.371 317.232 415.926 321.265 402.821L408.499 119.308C408.52 119.239 408.544 119.171 408.566 119.102C411.729 108.82 413.655 102.485 414.627 97.8596C414.69 97.5597 414.745 97.2809 414.794 97.0227C414.533 97.0723 414.251 97.1297 413.946 97.1936Z" fill="white"/>
</svg>
