<svg width="512" height="512" viewBox="0 0 512 512" fill="none" xmlns="http://www.w3.org/2000/svg">
<path d="M426.51 383.858C426.51 360.303 407.414 341.208 383.858 341.208C360.303 341.208 341.208 360.303 341.208 383.858C341.208 407.413 360.303 426.509 383.858 426.509C407.414 426.509 426.51 407.413 426.51 383.858ZM170.604 255.906C170.604 232.35 151.509 213.255 127.954 213.254C104.399 213.254 85.3027 232.35 85.3027 255.906C85.3028 279.461 104.399 298.556 127.954 298.556C151.509 298.556 170.604 279.461 170.604 255.906ZM426.51 127.954C426.51 104.398 407.414 85.3022 383.858 85.3022C360.303 85.3023 341.208 104.398 341.208 127.954C341.208 151.509 360.303 170.604 383.858 170.604C407.414 170.604 426.51 151.509 426.51 127.954ZM469.16 127.954C469.16 175.064 430.969 213.254 383.858 213.254C358.184 213.254 335.16 201.911 319.521 183.963L211.379 238.035C212.607 243.798 213.255 249.776 213.255 255.906C213.255 262.035 212.607 268.013 211.379 273.776L319.521 327.847C335.16 309.9 358.184 298.556 383.858 298.556C430.969 298.556 469.16 336.747 469.16 383.858C469.16 430.969 430.969 469.16 383.858 469.16C336.748 469.16 298.557 430.969 298.557 383.858C298.557 377.729 299.205 371.751 300.434 365.988L192.289 311.917C176.651 329.864 153.628 341.207 127.954 341.208C80.8434 341.208 42.6524 303.017 42.6523 255.906C42.6523 208.795 80.8433 170.604 127.954 170.604C153.628 170.604 176.651 181.947 192.289 199.894L300.434 145.823C299.205 140.06 298.557 134.083 298.557 127.954C298.557 80.8429 336.748 42.6519 383.858 42.6519C430.969 42.6519 469.16 80.8428 469.16 127.954Z" fill="white"/>
</svg>
