<svg width="512" height="512" viewBox="0 0 512 512" fill="none" xmlns="http://www.w3.org/2000/svg">
<path d="M405.181 255.904C405.181 173.46 338.347 106.627 255.904 106.627C173.46 106.627 106.625 173.46 106.625 255.904C106.625 338.348 173.46 405.182 255.904 405.182C338.348 405.182 405.181 338.348 405.181 255.904ZM234.578 149.277C234.579 137.499 244.126 127.952 255.904 127.952C267.681 127.952 277.229 137.499 277.229 149.277V234.579H362.531C374.308 234.579 383.856 244.126 383.856 255.904C383.856 267.682 374.308 277.229 362.531 277.229H255.904C244.126 277.229 234.578 267.682 234.578 255.904V149.277ZM115.612 26.314C124.634 18.7436 138.085 19.92 145.656 28.942C153.226 37.9641 152.05 51.4153 143.028 58.9859L77.683 113.817C68.6608 121.388 55.2096 120.21 47.639 111.188C40.0686 102.166 41.2448 88.7146 50.267 81.1441L115.612 26.314ZM366.229 28.942C373.799 19.92 387.251 18.7436 396.273 26.314L461.618 81.1441C470.64 88.7146 471.816 102.166 464.245 111.188C456.675 120.21 443.224 121.388 434.202 113.817L368.857 58.9859C359.835 51.4153 358.658 37.9641 366.229 28.942ZM447.832 255.904C447.832 361.903 361.903 447.833 255.904 447.833C149.904 447.833 63.975 361.903 63.975 255.904C63.975 149.905 149.904 63.9752 255.904 63.9752C361.903 63.9752 447.832 149.905 447.832 255.904Z" fill="white"/>
</svg>
