<svg width="512" height="512" viewBox="0 0 512 512" fill="none" xmlns="http://www.w3.org/2000/svg">
<path d="M63.9771 358.271V153.548C63.9771 141.956 63.96 131.978 64.6285 123.794C65.3171 115.362 66.8377 106.973 70.9497 98.9031C77.0834 86.8653 86.8661 77.0835 98.9039 70.95C106.974 66.8379 115.363 65.3173 123.794 64.6287C130.956 64.0438 139.491 63.9862 149.279 63.9802V42.6511C149.279 30.8734 158.826 21.3259 170.604 21.3259C182.382 21.326 191.929 30.8735 191.929 42.6511V63.9763H319.881V42.6511C319.881 30.8734 329.43 21.3259 341.208 21.3259C352.985 21.3262 362.533 30.8736 362.533 42.6511V63.9802C372.322 63.9862 380.856 64.0435 388.014 64.6287C396.444 65.3178 404.824 66.8398 412.89 70.95C424.905 77.0718 434.72 86.8423 440.866 98.9031C444.975 106.968 446.495 115.351 447.183 123.772C447.851 131.946 447.835 141.909 447.835 153.477V358.344C447.835 369.911 447.851 379.871 447.183 388.041C446.495 396.461 444.974 404.838 440.866 412.9C434.727 424.949 424.917 434.737 412.89 440.865C404.828 444.973 396.451 446.494 388.031 447.182C379.861 447.85 369.901 447.834 358.334 447.834H153.478C141.91 447.834 131.947 447.85 123.773 447.182C115.351 446.494 106.969 444.974 98.9039 440.865C86.8539 434.725 77.0772 424.926 70.9497 412.9C66.8388 404.832 65.3174 396.449 64.6285 388.018C63.9599 379.838 63.9771 369.863 63.9771 358.271ZM341.208 234.58C352.985 234.58 362.533 244.128 362.533 255.905C362.533 267.683 352.985 277.23 341.208 277.23H170.604C158.826 277.23 149.279 267.683 149.279 255.905C149.279 244.127 158.826 234.58 170.604 234.58H341.208ZM153.547 106.628C141.253 106.628 133.311 106.644 127.266 107.137C121.469 107.611 119.32 108.415 118.267 108.952C114.254 110.996 110.996 114.254 108.952 118.266C108.415 119.32 107.612 121.469 107.138 127.266C106.704 132.581 106.643 139.362 106.633 149.278H405.178C405.169 139.347 405.108 132.562 404.673 127.246C404.201 121.46 403.399 119.316 402.864 118.266C400.831 114.277 397.563 111.008 393.527 108.952C392.47 108.413 390.324 107.61 384.539 107.137C378.501 106.644 370.567 106.628 358.272 106.628H153.547ZM106.627 358.271C106.627 370.566 106.645 378.503 107.138 384.544C107.611 390.334 108.414 392.481 108.952 393.537C111.002 397.562 114.267 400.825 118.267 402.863C119.317 403.398 121.461 404.201 127.247 404.674C133.28 405.167 141.207 405.183 153.478 405.183H358.334C370.605 405.183 378.526 405.167 384.555 404.674C390.333 404.201 392.475 403.399 393.527 402.863C397.551 400.813 400.825 397.538 402.864 393.537C403.4 392.485 404.201 390.343 404.673 384.565C405.166 378.536 405.183 370.615 405.183 358.344V191.928H106.627V358.271Z" fill="white"/>
</svg>
