<svg width="512" height="512" viewBox="0 0 512 512" fill="none" xmlns="http://www.w3.org/2000/svg">
<path d="M63.9761 358.271V153.548C63.9761 141.956 63.959 131.978 64.6275 123.794C65.3161 115.362 66.8368 106.973 70.9488 98.9031C77.0824 86.8653 86.8651 77.0835 98.9029 70.95C106.973 66.8379 115.362 65.3173 123.793 64.6287C130.955 64.0438 139.49 63.9862 149.278 63.9802V42.6511C149.278 30.8734 158.825 21.3259 170.603 21.3259C182.381 21.326 191.928 30.8735 191.928 42.6511V63.9763H319.88V42.6511C319.88 30.8734 329.429 21.3259 341.207 21.3259C352.984 21.3262 362.532 30.8736 362.532 42.6511V63.9802C372.322 63.9862 380.857 64.0435 388.017 64.6287C396.448 65.3176 404.831 66.8391 412.899 70.95C424.925 77.0774 434.725 86.8532 440.865 98.9031C444.974 106.968 446.494 115.351 447.182 123.772C447.85 131.946 447.834 141.909 447.834 153.477V358.344C447.834 369.911 447.85 379.871 447.182 388.041C446.494 396.461 444.973 404.838 440.865 412.9C434.731 424.938 424.937 434.731 412.899 440.865C404.837 444.973 396.461 446.494 388.041 447.182C379.87 447.85 369.91 447.834 358.342 447.834H153.477C141.909 447.834 131.946 447.85 123.772 447.182C115.35 446.494 106.968 444.974 98.9029 440.865C86.853 434.725 77.0762 424.926 70.9488 412.9C66.8379 404.832 65.3164 396.449 64.6275 388.018C63.959 379.838 63.9761 369.863 63.9761 358.271ZM283.476 240.826C291.804 232.498 305.307 232.498 313.635 240.826C321.963 249.154 321.963 262.656 313.635 270.984L286.063 298.555L313.634 326.127C321.962 334.455 321.962 347.958 313.634 356.286C305.306 364.614 291.804 364.614 283.476 356.286L255.905 328.715L228.334 356.286C220.005 364.614 206.502 364.614 198.174 356.286C189.847 347.958 189.846 334.456 198.174 326.128L225.746 298.555L198.174 270.984C189.846 262.656 189.846 249.154 198.174 240.826C206.502 232.498 220.005 232.498 228.334 240.826L255.905 268.397L283.476 240.826ZM153.546 106.628C141.252 106.628 133.31 106.644 127.265 107.137C121.468 107.611 119.319 108.415 118.266 108.952C114.254 110.996 110.995 114.254 108.951 118.266C108.414 119.32 107.611 121.469 107.137 127.266C106.703 132.581 106.642 139.362 106.632 149.278H405.177C405.168 139.347 405.107 132.562 404.672 127.246C404.2 121.46 403.398 119.316 402.863 118.266C400.824 114.266 397.561 111.003 393.537 108.952C392.481 108.414 390.334 107.611 384.543 107.137C378.503 106.644 370.566 106.628 358.271 106.628H153.546ZM106.627 358.271C106.627 370.566 106.644 378.503 107.137 384.544C107.61 390.334 108.413 392.481 108.951 393.537C111.001 397.562 114.266 400.825 118.266 402.863C119.316 403.398 121.46 404.201 127.246 404.674C133.279 405.167 141.206 405.183 153.477 405.183H358.342C370.614 405.183 378.535 405.167 384.564 404.674C390.342 404.201 392.485 403.399 393.537 402.863C397.549 400.819 400.818 397.549 402.863 393.537C403.399 392.485 404.2 390.343 404.672 384.565C405.165 378.536 405.182 370.615 405.182 358.344V191.928H106.627V358.271Z" fill="white"/>
</svg>
