<svg width="512" height="512" viewBox="0 0 512 512" fill="none" xmlns="http://www.w3.org/2000/svg">
<path d="M63.9768 358.271V153.548C63.9768 141.956 63.9598 131.978 64.6282 123.794C65.3169 115.362 66.8375 106.973 70.9495 98.9031C77.0831 86.8653 86.8658 77.0835 98.9036 70.95C106.974 66.8379 115.363 65.3173 123.794 64.6287C130.956 64.0438 139.491 63.9862 149.279 63.9802V42.6511C149.279 30.8734 158.826 21.3259 170.604 21.3259C182.381 21.326 191.929 30.8735 191.929 42.6511V63.9763H319.881V42.6511C319.881 30.8734 329.43 21.3259 341.207 21.3259C352.985 21.3262 362.533 30.8736 362.533 42.6511V63.9802C372.323 63.9862 380.858 64.0435 388.018 64.6287C396.448 65.3176 404.832 66.8391 412.9 70.95C424.925 77.0774 434.726 86.8532 440.866 98.9031C444.975 106.968 446.495 115.351 447.183 123.772C447.851 131.946 447.834 141.909 447.834 153.477V358.344C447.834 369.911 447.851 379.871 447.183 388.041C446.494 396.461 444.974 404.838 440.866 412.9C434.732 424.938 424.938 434.731 412.9 440.865C404.837 444.973 396.462 446.494 388.041 447.182C379.871 447.85 369.911 447.834 358.343 447.834H153.478C141.91 447.834 131.946 447.85 123.773 447.182C115.351 446.494 106.969 444.974 98.9036 440.865C86.8537 434.725 77.077 424.926 70.9495 412.9C66.8386 404.832 65.3172 396.449 64.6282 388.018C63.9597 379.838 63.9768 369.863 63.9768 358.271ZM234.579 351.87V319.882H202.592C190.815 319.882 181.266 310.334 181.266 298.556C181.266 286.779 190.814 277.23 202.592 277.23H234.579V245.243C234.579 233.465 244.128 223.917 255.906 223.917C267.683 223.917 277.231 233.465 277.231 245.243V277.23H309.219C320.997 277.23 330.544 286.779 330.544 298.556C330.544 310.334 320.996 319.881 309.219 319.882H277.231V351.87C277.231 363.647 267.683 373.195 255.906 373.195C244.128 373.195 234.58 363.647 234.579 351.87ZM153.547 106.628C141.252 106.628 133.311 106.644 127.266 107.137C121.469 107.611 119.32 108.415 118.267 108.952C114.254 110.996 110.996 114.254 108.951 118.266C108.415 119.32 107.611 121.469 107.138 127.266C106.704 132.581 106.643 139.362 106.633 149.278H405.178C405.169 139.347 405.108 132.562 404.673 127.246C404.2 121.46 403.398 119.316 402.864 118.266C400.825 114.266 397.562 111.003 393.537 108.952C392.482 108.414 390.335 107.611 384.544 107.137C378.504 106.644 370.567 106.628 358.272 106.628H153.547ZM106.627 358.271C106.627 370.566 106.644 378.503 107.138 384.544C107.611 390.334 108.414 392.481 108.951 393.537C111.002 397.562 114.266 400.825 118.267 402.863C119.317 403.398 121.461 404.201 127.246 404.674C133.28 405.167 141.206 405.183 153.478 405.183H358.343C370.615 405.183 378.536 405.167 384.565 404.674C390.343 404.201 392.485 403.399 393.537 402.863C397.55 400.819 400.819 397.549 402.864 393.537C403.4 392.485 404.201 390.343 404.673 384.565C405.166 378.536 405.183 370.615 405.183 358.344V191.928H106.627V358.271Z" fill="white"/>
</svg>
