<svg width="512" height="512" viewBox="0 0 512 512" fill="none" xmlns="http://www.w3.org/2000/svg">
<path d="M426.51 255.905C426.51 161.683 350.128 85.3013 255.906 85.3013C161.685 85.3013 85.3027 161.683 85.3027 255.905C85.3028 350.126 161.685 426.508 255.906 426.508C350.128 426.508 426.51 350.126 426.51 255.905ZM234.581 149.278C234.581 137.5 244.129 127.953 255.906 127.953C267.684 127.953 277.231 137.5 277.231 149.278V234.58H362.533C374.311 234.58 383.858 244.127 383.858 255.905C383.858 267.682 374.311 277.23 362.533 277.23H255.906C244.129 277.23 234.581 267.682 234.581 255.905V149.278ZM469.16 255.905C469.16 373.682 373.683 469.159 255.906 469.159C138.129 469.159 42.6524 373.682 42.6523 255.905C42.6523 138.128 138.129 42.6509 255.906 42.6509C373.683 42.6509 469.16 138.128 469.16 255.905Z" fill="white"/>
</svg>
