<svg width="512" height="512" viewBox="0 0 512 512" fill="none" xmlns="http://www.w3.org/2000/svg">
<path d="M405.183 277.23C405.182 194.786 338.349 127.953 255.905 127.953C173.462 127.953 106.627 194.786 106.627 277.23C106.627 359.674 173.461 426.508 255.905 426.508C338.349 426.508 405.183 359.674 405.183 277.23ZM319.881 255.905C331.658 255.905 341.207 265.452 341.207 277.23C341.207 289.008 331.659 298.556 319.881 298.556H191.929C180.151 298.556 170.604 289.008 170.604 277.23C170.604 265.452 180.151 255.905 191.929 255.905H319.881ZM390.104 70.2222C398.431 61.8943 411.934 61.8944 420.262 70.2222L462.913 112.874C471.241 121.202 471.241 134.704 462.913 143.032C454.585 151.36 441.082 151.36 432.754 143.032L390.104 100.381C381.775 92.0533 381.775 78.5503 390.104 70.2222ZM298.556 21.3257C310.333 21.3257 319.881 30.8732 319.881 42.6509C319.881 54.4286 310.333 63.9761 298.556 63.9761H213.254C201.476 63.9759 191.929 54.4285 191.929 42.6509C191.929 30.8733 201.476 21.3258 213.254 21.3257H298.556ZM447.834 277.23C447.834 383.229 361.904 469.159 255.905 469.159C149.906 469.159 63.9766 383.229 63.9766 277.23C63.9767 171.231 149.906 85.3013 255.905 85.3013C361.904 85.3014 447.834 171.231 447.834 277.23Z" fill="white"/>
</svg>
