<svg width="512" height="512" viewBox="0 0 512 512" fill="none" xmlns="http://www.w3.org/2000/svg">
<path d="M426.508 255.905C426.508 161.683 350.126 85.3013 255.905 85.3013C161.683 85.3013 85.3014 161.683 85.3014 255.905C85.3014 306.86 107.642 352.595 143.06 383.856C173.12 357.332 212.641 341.207 255.905 341.207C299.17 341.207 338.687 357.333 368.747 383.858C404.167 352.597 426.508 306.861 426.508 255.905ZM255.905 383.857C227.506 383.857 201.278 393.093 180.044 408.754C202.894 420.117 228.653 426.508 255.905 426.508C283.156 426.508 308.913 420.117 331.763 408.755C310.529 393.094 284.304 383.857 255.905 383.857ZM298.555 234.58C298.555 211.024 279.46 191.928 255.905 191.928C232.349 191.928 213.254 211.024 213.254 234.58C213.254 258.135 232.35 277.23 255.905 277.23C279.46 277.23 298.555 258.135 298.555 234.58ZM469.159 255.905C469.159 373.682 373.682 469.159 255.905 469.159C138.128 469.159 42.651 373.682 42.651 255.905C42.651 138.128 138.128 42.6509 255.905 42.6509C373.682 42.6509 469.159 138.128 469.159 255.905ZM341.207 234.58C341.206 281.69 303.016 319.881 255.905 319.881C208.794 319.881 170.603 281.69 170.603 234.58C170.603 187.469 208.794 149.278 255.905 149.278C303.016 149.278 341.207 187.469 341.207 234.58Z" fill="white"/>
</svg>
