<svg width="512" height="512" viewBox="0 0 512 512" fill="none" xmlns="http://www.w3.org/2000/svg">
<path d="M341.207 426.508C341.207 419.275 336.209 409.084 320.33 399.557C304.876 390.284 282.149 383.858 255.905 383.858C229.662 383.858 206.935 390.284 191.48 399.557C175.602 409.084 170.604 419.275 170.604 426.508C170.604 438.286 161.056 447.833 149.278 447.833C137.501 447.833 127.953 438.286 127.953 426.508C127.953 398.408 146.825 376.611 169.537 362.984C192.674 349.102 223.261 341.206 255.905 341.206C288.55 341.206 319.137 349.102 342.273 362.984C364.986 376.611 383.857 398.408 383.857 426.508C383.857 438.286 374.31 447.833 362.532 447.833C350.755 447.833 341.207 438.286 341.207 426.508ZM42.6514 362.54C42.6514 341.776 53.1436 324.206 67.583 311.221C81.9644 298.288 101.253 288.841 122.545 283.259C133.938 280.273 145.594 287.087 148.581 298.48C151.567 309.872 144.753 321.529 133.36 324.516C116.994 328.807 104.294 335.568 96.1025 342.935C87.9685 350.25 85.3018 357.071 85.3018 362.54C85.3016 374.318 75.7542 383.866 63.9766 383.866C52.199 383.866 42.6515 374.318 42.6514 362.54ZM426.509 362.54C426.509 357.071 423.842 350.25 415.708 342.935C407.516 335.568 394.817 328.807 378.45 324.516C367.058 321.529 360.243 309.873 363.229 298.48C366.216 287.087 377.873 280.273 389.266 283.259C410.557 288.841 429.846 298.288 444.228 311.221C458.667 324.206 469.159 341.776 469.159 362.54C469.159 374.318 459.611 383.866 447.834 383.866C436.056 383.866 426.509 374.318 426.509 362.54ZM298.556 234.579C298.556 211.024 279.461 191.929 255.905 191.929C232.35 191.929 213.254 211.024 213.254 234.579C213.254 258.135 232.35 277.231 255.905 277.231C279.461 277.231 298.556 258.135 298.556 234.579ZM85.3018 170.604C85.3018 123.493 123.493 85.3022 170.604 85.3021C192.437 85.3021 212.399 93.5332 227.477 107.028C236.252 114.882 236.999 128.364 229.145 137.14C221.29 145.916 207.808 146.663 199.032 138.808C191.472 132.042 181.541 127.953 170.604 127.953C147.048 127.953 127.953 147.049 127.953 170.604C127.953 183.233 133.415 194.559 142.175 202.399C150.951 210.254 151.697 223.736 143.843 232.512C135.988 241.288 122.506 242.035 113.73 234.18C96.3133 218.591 85.3019 195.869 85.3018 170.604ZM383.857 170.604C383.857 147.049 364.762 127.953 341.207 127.953C330.27 127.953 320.338 132.042 312.778 138.808C304.002 146.663 290.521 145.916 282.666 137.14C274.811 128.364 275.558 114.882 284.334 107.028C299.411 93.5332 319.373 85.3021 341.207 85.3021C388.318 85.3023 426.509 123.493 426.509 170.604C426.509 195.869 415.497 218.591 398.08 234.18C389.304 242.035 375.823 241.288 367.968 232.512C360.113 223.736 360.86 210.254 369.636 202.399C378.395 194.559 383.857 183.233 383.857 170.604ZM341.207 234.579C341.207 281.69 303.016 319.881 255.905 319.881C208.794 319.881 170.604 281.69 170.604 234.579C170.604 187.469 208.795 149.278 255.905 149.278C303.016 149.278 341.207 187.469 341.207 234.579Z" fill="white"/>
</svg>
