<svg width="512" height="512" viewBox="0 0 512 512" fill="none" xmlns="http://www.w3.org/2000/svg">
<path d="M298.555 426.508C298.555 412.302 289.918 396.83 270.576 383.935C251.383 371.14 223.638 362.533 191.928 362.533C160.218 362.533 132.475 371.14 113.282 383.935C93.9397 396.83 85.3014 412.302 85.3014 426.508C85.3014 438.286 75.7539 447.833 63.9762 447.833C52.1985 447.833 42.651 438.286 42.651 426.508C42.651 393.604 62.6562 366.426 89.6236 348.448C116.74 330.37 152.972 319.881 191.928 319.881C230.884 319.881 267.117 330.37 294.234 348.448C321.201 366.426 341.207 393.604 341.207 426.508C341.207 438.286 331.659 447.833 319.881 447.833C308.104 447.833 298.555 438.286 298.555 426.508ZM426.508 426.507C426.508 404.273 403.639 377.654 357.641 366.816C346.178 364.115 339.074 352.632 341.775 341.168C344.476 329.705 355.959 322.601 367.422 325.302C420.817 337.884 469.159 374.46 469.159 426.507C469.159 438.285 459.611 447.832 447.834 447.832C436.056 447.832 426.509 438.285 426.508 426.507ZM255.905 191.929C255.905 156.596 227.261 127.953 191.928 127.953C156.595 127.953 127.953 156.596 127.953 191.929C127.953 227.262 156.595 255.906 191.928 255.906C227.261 255.906 255.905 227.262 255.905 191.929ZM383.857 191.929C383.857 156.596 355.214 127.953 319.881 127.953C308.104 127.953 298.555 118.405 298.555 106.627C298.555 94.8496 308.104 85.3021 319.881 85.3021C378.77 85.3024 426.508 133.041 426.508 191.929C426.508 250.817 378.77 298.556 319.881 298.556C308.104 298.556 298.555 289.008 298.555 277.231C298.555 265.453 308.104 255.906 319.881 255.906C355.214 255.905 383.857 227.262 383.857 191.929ZM298.555 191.929C298.555 250.817 250.817 298.556 191.928 298.556C133.04 298.556 85.3014 250.817 85.3014 191.929C85.3014 133.041 133.04 85.3023 191.928 85.3021C250.817 85.3021 298.555 133.041 298.555 191.929Z" fill="white"/>
</svg>
