<svg width="512" height="512" viewBox="0 0 512 512" fill="none" xmlns="http://www.w3.org/2000/svg">
<path d="M298.555 405.182C298.555 390.976 289.918 375.504 270.576 362.609C251.383 349.814 223.638 341.207 191.928 341.207C160.218 341.207 132.475 349.814 113.282 362.609C93.9396 375.504 85.3013 390.976 85.3013 405.182C85.3013 416.96 75.7538 426.508 63.9761 426.508C52.1984 426.508 42.6509 416.96 42.6509 405.182C42.651 372.279 62.6561 345.1 89.6235 327.122C116.74 309.044 152.972 298.556 191.928 298.556C230.884 298.556 267.117 309.044 294.234 327.122C321.201 345.1 341.206 372.279 341.207 405.182C341.207 416.96 331.659 426.507 319.881 426.508C308.104 426.508 298.555 416.96 298.555 405.182ZM432.754 198.175C441.082 189.847 454.585 189.847 462.913 198.175C471.241 206.503 471.241 220.006 462.913 228.334L377.611 313.635C373.612 317.634 368.188 319.881 362.532 319.881C356.876 319.881 351.452 317.634 347.453 313.635L304.801 270.984C296.473 262.656 296.473 249.153 304.801 240.825C313.129 232.497 326.632 232.497 334.96 240.825L362.532 268.396L432.754 198.175ZM255.905 170.603C255.905 135.27 227.261 106.627 191.928 106.627C156.595 106.627 127.953 135.27 127.953 170.603C127.953 205.936 156.595 234.58 191.928 234.58C227.261 234.58 255.905 205.936 255.905 170.603ZM298.555 170.603C298.555 229.492 250.817 277.23 191.928 277.23C133.04 277.23 85.3013 229.492 85.3013 170.603C85.3013 111.715 133.04 63.9766 191.928 63.9764C250.817 63.9764 298.555 111.715 298.555 170.603Z" fill="white"/>
</svg>
