<svg width="512" height="512" viewBox="0 0 512 512" fill="none" xmlns="http://www.w3.org/2000/svg">
<path d="M215.506 57.5256C238.784 37.692 273.032 37.6933 296.309 57.5295L322.347 79.7189C325.375 82.2993 329.123 83.8945 333.12 84.2922L333.507 84.3263L333.511 84.3273L367.612 87.0549H367.611C398.097 89.4894 422.309 113.703 424.742 144.19L424.743 144.195L427.453 178.284C427.769 182.253 429.3 186.051 431.844 189.158L432.094 189.457L432.098 189.462L454.277 215.502H454.276C474.109 238.779 474.114 273.006 454.276 296.284L454.275 296.283L432.104 322.331L432.096 322.34C429.405 325.499 427.787 329.406 427.46 333.505V333.509L424.805 366.681C424.794 366.992 424.778 367.305 424.753 367.619C422.32 398.107 398.109 422.316 367.622 424.749C367.32 424.773 367.018 424.789 366.718 424.8L333.509 427.45C329.385 427.78 325.483 429.394 322.346 432.065L322.347 432.066L296.315 454.266L296.309 454.271C273.033 474.106 238.781 474.112 215.501 454.275L189.468 432.095L189.466 432.094C186.31 429.404 182.4 427.785 178.298 427.457H178.295L145.057 424.798C144.775 424.787 144.491 424.772 144.207 424.749C113.72 422.316 89.5105 398.109 87.0758 367.623L84.3483 333.511L84.3473 333.507C84.02 329.406 82.4018 325.496 79.7116 322.339L79.7096 322.337L57.5329 296.306C37.6993 273.032 37.6847 238.779 57.526 215.496L57.5309 215.49L79.7301 189.458C82.3833 186.342 83.9974 182.447 84.3288 178.296L84.3297 178.292L87.0573 144.18C87.0886 143.788 87.1305 143.4 87.1823 143.015C90.1183 113.32 113.746 89.8396 143.508 87.132C143.733 87.107 143.959 87.0847 144.186 87.0666L178.287 84.3449C182.391 84.0174 186.305 82.3974 189.46 79.7092L189.465 79.7052L215.506 57.5256ZM268.645 89.9914C261.308 83.7388 250.502 83.7388 243.165 89.9914L243.16 89.9953L217.12 112.175L217.119 112.174C207.155 120.664 194.757 125.817 181.68 126.861L148.183 129.533C147.989 129.554 147.795 129.573 147.599 129.589C137.99 130.356 130.358 137.987 129.591 147.597C129.568 147.893 129.536 148.187 129.501 148.48L126.844 181.692C125.804 194.719 120.711 207.126 112.187 217.128L112.183 217.133L89.984 243.165C83.8371 250.383 83.7406 260.966 89.7057 268.296L89.9948 268.643L89.9958 268.645L112.173 294.675L112.96 295.615C120.981 305.411 125.851 317.439 126.863 330.111L129.591 364.223V364.227C130.342 373.636 137.674 381.146 147.001 382.175C147.194 382.185 147.388 382.199 147.583 382.214L181.695 384.942H181.694C194.773 385.986 207.167 391.142 217.129 399.63L243.161 421.81L243.163 421.811C250.498 428.062 261.306 428.063 268.645 421.809L294.672 399.613L294.677 399.609C304.66 391.102 317.061 385.977 330.117 384.935L364.218 382.214C364.427 382.197 364.636 382.184 364.843 382.173C373.955 381.16 381.158 373.961 382.175 364.851C382.186 364.637 382.199 364.423 382.216 364.208L384.944 330.112L385.054 328.888C386.314 316.257 391.411 304.326 399.634 294.676L421.805 268.63L421.813 268.62C428.064 261.285 428.065 250.501 421.811 243.162L421.807 243.157L399.632 217.121L398.846 216.181C390.827 206.387 385.949 194.354 384.937 181.677V181.671L382.226 147.582C381.459 137.972 373.824 130.337 364.215 129.57L364.211 129.57L330.11 126.842V126.841C317.071 125.8 304.676 120.696 294.683 112.181L268.645 89.9914Z" fill="white"/>
</svg>
